<?xml version="1.0" encoding="UTF-8" standalone="no"?>
<!-- Created with Inkscape (http://www.inkscape.org/) -->

<svg
   xmlns:dc="http://purl.org/dc/elements/1.1/"
   xmlns:cc="http://creativecommons.org/ns#"
   xmlns:rdf="http://www.w3.org/1999/02/22-rdf-syntax-ns#"
   xmlns:svg="http://www.w3.org/2000/svg"
   xmlns="http://www.w3.org/2000/svg"
   xmlns:sodipodi="http://sodipodi.sourceforge.net/DTD/sodipodi-0.dtd"
   xmlns:inkscape="http://www.inkscape.org/namespaces/inkscape"
   width="12cm"
   height="6cm"
   viewBox="0 0 120 59.999998"
   version="1.1"
   id="svg5156"
   inkscape:version="0.92.4 (5da689c313, 2019-01-14)"
   sodipodi:docname="Bladerunners original logo.svg">
  <defs
     id="defs5150">
    <inkscape:path-effect
       effect="bspline"
       id="path-effect2423"
       is_visible="true"
       weight="33.333333"
       steps="2"
       helper_size="0"
       apply_no_weight="true"
       apply_with_weight="true"
       only_selected="false" />
  </defs>
  <sodipodi:namedview
     id="base"
     pagecolor="#ffffff"
     bordercolor="#666666"
     borderopacity="1.0"
     inkscape:pageopacity="0.0"
     inkscape:pageshadow="2"
     inkscape:zoom="0.35"
     inkscape:cx="-100"
     inkscape:cy="331.42857"
     inkscape:document-units="mm"
     inkscape:current-layer="layer1"
     showgrid="false"
     units="cm"
     inkscape:window-width="1920"
     inkscape:window-height="1017"
     inkscape:window-x="-8"
     inkscape:window-y="-8"
     inkscape:window-maximized="1" />
  <metadata
     id="metadata5153">
    <rdf:RDF>
      <cc:Work
         rdf:about="">
        <dc:format>image/svg+xml</dc:format>
        <dc:type
           rdf:resource="http://purl.org/dc/dcmitype/StillImage" />
        <dc:title></dc:title>
      </cc:Work>
    </rdf:RDF>
  </metadata>
  <g
     inkscape:label="Layer 1"
     inkscape:groupmode="layer"
     id="layer1"
     transform="translate(0,-237.00002)">
    <g
       id="text835"
       style="font-style:normal;font-variant:normal;font-weight:bold;font-stretch:normal;font-size:7.47925711px;line-height:1.25;font-family:'Brush Script MT';-inkscape-font-specification:'Brush Script MT Bold';font-variant-ligatures:normal;font-variant-caps:normal;font-variant-numeric:normal;font-feature-settings:normal;text-align:start;letter-spacing:0px;word-spacing:0px;writing-mode:lr-tb;text-anchor:start;fill:#000000;fill-opacity:1;stroke:#000000;stroke-width:0.79778469;stroke-miterlimit:4;stroke-dasharray:none;stroke-opacity:1"
       transform="matrix(3.4004745,0,0,6.1184764,-193.1048,-222.40375)"
       aria-label="Bladerunners"
       inkscape:export-xdpi="300"
       inkscape:export-ydpi="300">
      <path
         inkscape:connector-curvature="0"
         id="path837"
         style="stroke:#000000;stroke-width:0.79778469;stroke-miterlimit:4;stroke-dasharray:none;stroke-opacity:1"
         d="m 60.330256,78.58805 -0.179668,0.224548 q 0.32575,0.01956 0.582793,0.06308 0.256934,0.03987 0.474148,0.09553 0.220756,0.05191 0.386973,0.112737 0.58391,0.223806 0.596694,0.65455 0.0078,0.262827 -0.225648,0.521854 -0.233449,0.259026 -0.614539,0.46763 -0.377438,0.208496 -0.78303,0.330142 -0.401833,0.125188 -0.734017,0.135047 -0.554857,0.01647 -0.871205,-0.178744 -0.316458,-0.198862 -0.327075,-0.556599 -0.0074,-0.248225 0.172484,-0.589694 0.179852,-0.341468 0.5629,-0.853378 -0.299764,-0.0057 -0.426043,-0.07504 -0.126388,-0.07297 -0.130397,-0.208039 -0.0025,-0.08396 0.04366,-0.129171 0.04615,-0.04521 0.125921,-0.06585 0.07966,-0.02429 0.305115,-0.06021 0.229107,-0.03603 0.585543,-0.09045 0.383373,-0.500959 0.690046,-0.754852 0.310216,-0.257651 0.670519,-0.30488 0.02909,-0.0045 0.06195,-0.0055 0.0365,-0.0011 0.03705,0.01717 6.5e-4,0.0219 -0.08049,0.119304 -0.07749,0.09729 -0.257485,0.31089 -0.176343,0.213488 -0.419768,0.505693 0.683561,-0.111628 1.114489,-0.241333 0.434469,-0.133463 0.652267,-0.304339 0.217797,-0.170875 0.211838,-0.371646 -0.0073,-0.244575 -0.247783,-0.347044 -0.240525,-0.102469 -0.729675,-0.08795 -0.270127,0.008 -0.618938,0.07317 -0.34516,0.06505 -0.627831,0.142856 -0.27902,0.0777 -0.49931,0.164616 -0.216747,0.08316 -0.215663,0.119662 3.25e-4,0.01095 0.02255,0.02125 0.180818,0.0604 0.182119,0.104203 0.0017,0.05841 -0.540839,0.242574 -0.542681,0.180519 -0.7325,0.186152 -0.135064,0.004 -0.139073,-0.131055 -0.0048,-0.160616 0.274912,-0.585426 0.283221,-0.428569 0.520679,-0.552531 0.08277,-0.04265 0.386798,-0.139356 0.304031,-0.09671 0.666685,-0.187852 0.366304,-0.09125 0.744318,-0.157274 0.378013,-0.06602 0.670043,-0.07469 0.689921,-0.02048 1.044074,0.217456 0.354044,0.234283 0.365095,0.606621 0.0075,0.251876 -0.146207,0.490267 -0.150032,0.238282 -0.479691,0.456321 -0.329659,0.218039 -0.865256,0.39104 -0.531946,0.172892 -1.259529,0.278519 z m -0.372963,0.482383 q -0.183102,0.231956 -0.327567,0.411616 -0.140923,0.175902 -0.20338,0.287363 -0.05891,0.107703 -0.05566,0.217214 0.0052,0.175218 0.188186,0.308623 0.186527,0.129647 0.526012,0.119571 0.313932,-0.0093 0.664768,-0.129338 0.354378,-0.123779 0.589994,-0.309798 0.239266,-0.186127 0.233849,-0.368646 -0.0047,-0.156966 -0.18656,-0.253867 -0.181902,-0.0969 -0.549215,-0.162726 -0.367421,-0.06947 -0.880423,-0.120012 z" />
      <path
         inkscape:connector-curvature="0"
         id="path839"
         style="stroke:#000000;stroke-width:0.79778469;stroke-miterlimit:4;stroke-dasharray:none;stroke-opacity:1"
         d="m 64.250343,79.873156 0.008,0.270128 q -0.732917,1.033797 -1.211116,1.04799 -0.259176,0.0077 -0.417184,-0.268945 -0.154466,-0.280395 -0.168117,-0.740342 -0.01105,-0.372338 0.148999,-0.888591 0.159942,-0.519903 0.436371,-1.054224 0.27997,-0.53808 0.58231,-0.937987 0.305881,-0.403667 0.57135,-0.56865 0.107561,-0.06896 0.169618,-0.0708 0.07666,-0.0023 0.104269,0.06632 0.0275,0.06495 0.03238,0.229215 0.01506,0.507402 -0.375439,1.26067 -0.390607,0.749618 -1.105123,1.541732 -0.03087,0.190903 -0.02784,0.293114 0.0069,0.233624 0.109828,0.376713 0.106544,0.142982 0.285412,0.137673 0.09126,-0.0027 0.195062,-0.07521 0.103694,-0.07615 0.217364,-0.185477 0.11367,-0.109328 0.443837,-0.433336 z M 63.13938,79.248483 q 0.184294,-0.191802 0.352469,-0.434277 0.171826,-0.242583 0.320775,-0.517369 0.148949,-0.274787 0.230166,-0.492759 0.08487,-0.218081 0.08162,-0.327592 -0.0025,-0.08396 -0.0609,-0.08222 -0.0219,6.5e-4 -0.08277,0.04265 -0.217256,0.189128 -0.478866,0.730316 -0.261719,0.537538 -0.362496,1.08126 z" />
      <path
         inkscape:connector-curvature="0"
         id="path841"
         style="stroke:#000000;stroke-width:0.79778469;stroke-miterlimit:4;stroke-dasharray:none;stroke-opacity:1"
         d="m 64.623484,79.299005 q 0.539905,-0.520219 1.05465,-0.780287 0.514744,-0.260068 0.799473,-0.268519 0.07666,-0.0023 0.144315,0.06148 0.06755,0.06011 0.106544,0.142982 0.04265,0.08277 0.04384,0.122921 0.0019,0.06571 -0.04818,0.100077 -0.05024,0.03072 -0.176701,0.07832 0.02729,0.05765 0.07015,0.147715 0.04286,0.09007 0.0665,0.147823 0.02353,0.05411 0.02483,0.09791 0.0026,0.08761 -0.169117,0.333842 -0.168176,0.242475 -0.237825,0.357803 -0.066,0.11522 -0.06112,0.279487 0.008,0.270128 0.256243,0.26276 0.255526,-0.0076 0.785239,-0.501926 l 0.0066,0.222673 q -0.893101,1.053166 -1.290992,1.064975 -0.142364,0.0042 -0.207237,-0.08884 -0.06112,-0.08953 -0.06653,-0.272045 -0.0086,-0.28838 0.183261,-0.842111 -0.515403,0.607178 -0.767104,0.866746 -0.251809,0.255918 -0.419727,0.260902 -0.08031,0.0024 -0.204887,-0.132756 -0.124579,-0.135138 -0.22599,-0.351344 -0.09787,-0.219964 -0.10491,-0.457238 -0.0051,-0.171568 0.0244,-0.285705 0.02939,-0.117787 0.12072,-0.241066 0.09134,-0.123279 0.293556,-0.326575 z m 1.736611,-0.453437 q -0.936204,0.462564 -1.332404,0.777571 -0.392548,0.314898 -0.383014,0.636131 0.0035,0.116812 0.0459,0.192278 0.04232,0.07182 0.111678,0.06976 0.04015,-0.0012 0.140848,-0.05533 0.376572,-0.237699 0.683429,-0.608512 0.306748,-0.374463 0.733567,-1.011895 z" />
      <path
         inkscape:connector-curvature="0"
         id="path843"
         style="stroke:#000000;stroke-width:0.79778469;stroke-miterlimit:4;stroke-dasharray:none;stroke-opacity:1"
         d="m 68.922668,79.922886 q -0.310398,0.374572 -0.55834,0.637682 -0.244292,0.263002 -0.401117,0.395532 -0.153282,0.128771 -0.211688,0.130505 -0.09491,0.0028 -0.219923,-0.146924 -0.121362,-0.149848 -0.212363,-0.384631 -0.091,-0.234782 -0.09826,-0.479357 -0.01051,-0.354087 0.322008,-0.722007 0.332409,-0.371571 0.763412,-0.621847 0.431002,-0.250275 0.650025,-0.256776 0.178868,-0.0053 0.357153,0.215923 0.263636,-0.596053 0.501969,-1.059825 0.241983,-0.463881 0.406942,-0.691646 0.164958,-0.227764 0.237966,-0.229931 0.08031,-0.0024 0.148398,0.07597 0.07163,0.0746 0.07456,0.17316 0.0056,0.189819 -0.258035,0.661651 -0.263778,0.468181 -0.520904,0.914243 -0.257127,0.446062 -0.437921,0.878898 -0.180902,0.429185 -0.170176,0.790572 0.0098,0.328534 0.221473,0.32225 0.127763,-0.0038 0.317007,-0.151899 0.189136,-0.151757 0.536797,-0.501859 l 0.0079,0.266477 q -0.758253,1.041856 -1.185347,1.054532 -0.171567,0.0051 -0.252126,-0.124046 -0.07691,-0.129246 -0.0846,-0.388423 -0.0104,-0.350436 0.06518,-0.758228 z m 0.243693,-0.898708 q -0.321633,0.119154 -0.752419,0.37673 -0.430895,0.253925 -0.519445,0.347893 -0.07814,0.07539 -0.134239,0.278004 -0.0561,0.202612 -0.05306,0.304823 0.0018,0.06206 0.03954,0.101127 0.0377,0.03907 0.09245,0.03745 0.05111,-0.0015 0.115512,-0.04727 0.06441,-0.04575 0.202979,-0.177743 0.142223,-0.132097 0.184944,-0.169901 0.06043,-0.0566 0.266844,-0.24175 0.209955,-0.18891 0.305482,-0.294046 0.09553,-0.105136 0.1612,-0.231307 0.06556,-0.129822 0.09022,-0.284004 z" />
      <path
         inkscape:connector-curvature="0"
         id="path845"
         style="stroke:#000000;stroke-width:0.79778469;stroke-miterlimit:4;stroke-dasharray:none;stroke-opacity:1"
         d="m 70.918288,80.079177 0.0027,0.09126 q 0.0064,0.215372 0.115829,0.332693 0.109436,0.11732 0.281003,0.112228 0.178868,-0.0053 0.366196,-0.0949 0.190978,-0.0897 0.37668,-0.234049 0.185703,-0.144348 0.452547,-0.386098 l 0.0066,0.222673 q -0.397758,0.508694 -0.751236,0.785897 -0.353586,0.273553 -0.725924,0.284604 -0.324884,0.0096 -0.522179,-0.2366 -0.197295,-0.246242 -0.210296,-0.684287 -0.01138,-0.383289 0.158284,-0.69888 0.169551,-0.31924 0.564449,-0.678052 0.270387,-0.245508 0.540589,-0.374096 0.270203,-0.128588 0.485575,-0.13498 0.171568,-0.0051 0.272511,0.07229 0.104486,0.07362 0.109145,0.23059 0.0068,0.229973 -0.157917,0.465039 -0.16485,0.231415 -0.512219,0.468248 -0.343827,0.233073 -0.852354,0.456421 z m 0.02946,-0.238358 q 0.324742,-0.137514 0.552732,-0.334267 0.22799,-0.196753 0.332409,-0.371571 0.107961,-0.178577 0.105578,-0.258885 -0.0025,-0.08396 -0.07915,-0.08168 -0.06571,0.0019 -0.21288,0.09035 -0.143523,0.08829 -0.29283,0.227907 -0.145657,0.139506 -0.260702,0.3256 -0.115045,0.186094 -0.145157,0.402549 z" />
      <path
         sodipodi:nodetypes="ccccccscccccccccccccccccccccccsccc"
         inkscape:connector-curvature="0"
         id="path847"
         style="stroke:#000000;stroke-width:0.79778469;stroke-miterlimit:4;stroke-dasharray:none;stroke-opacity:1"
         d="m 72.403354,80.24726 -0.007,-0.237274 c 0.126791,-0.159649 0.222631,-0.295241 0.287521,-0.406775 -0.07867,-0.02446 -0.136834,-0.05562 -0.174493,-0.09347 -0.03523,-0.03793 -0.05399,-0.09583 -0.0563,-0.173701 -0.0026,-0.08761 0.03062,-0.19942 0.09965,-0.335434 0.06903,-0.136014 0.155357,-0.264016 0.258968,-0.384006 0.103611,-0.11999 0.198715,-0.19832 0.285313,-0.234991 0.03357,-0.01805 0.06617,-0.02754 0.0978,-0.02848 0.04867,-0.0015 0.0737,0.02093 0.07507,0.06719 0.0012,0.04137 -0.03403,0.126451 -0.105686,0.255234 0.499007,-0.09275 0.814217,-0.14108 0.945631,-0.144981 0.05111,-0.0015 0.08654,0.0023 0.106294,0.01146 0.04202,0.02067 0.07761,0.07077 0.106761,0.150282 0.02915,0.07951 0.04492,0.159425 0.0473,0.239733 0.0015,0.05111 -0.01992,0.107765 -0.06437,0.169976 -0.04207,0.05971 -0.116167,0.148374 -0.222281,0.266002 -0.124863,0.142542 -0.22868,0.296638 -0.311449,0.462288 -0.08277,0.165651 -0.122927,0.289847 -0.120471,0.372589 0.0034,0.114378 0.07567,0.169472 0.216814,0.165283 0.148448,-0.0044 0.401929,-0.162938 0.760444,-0.475615 l 0.0073,0.244575 c -0.195703,0.217717 -0.357456,0.389365 -0.485258,0.514944 -0.127802,0.12558 -0.246592,0.226535 -0.35637,0.302865 -0.10985,0.0739 -0.20858,0.112144 -0.296189,0.114744 -0.10221,0.0031 -0.188758,-0.04064 -0.259643,-0.13113 -0.07096,-0.09289 -0.109072,-0.228157 -0.114345,-0.405808 -0.0031,-0.104644 0.0201,-0.224684 0.06969,-0.36012 0.04957,-0.135436 0.123144,-0.282546 0.220731,-0.441329 0.09995,-0.161289 0.192565,-0.446579 0.107895,-0.427019 -0.08474,0.01713 -0.174315,0.03562 -0.268719,0.05547 -0.0944,0.01985 -0.167014,0.03541 -0.217831,0.04666 -0.141926,0.306242 -0.352823,0.58652 -0.63269,0.840835 z" />
      <path
         inkscape:connector-curvature="0"
         id="path849"
         style="stroke:#000000;stroke-width:0.79778469;stroke-miterlimit:4;stroke-dasharray:none;stroke-opacity:1"
         d="m 76.334664,79.665844 q -0.508503,0.716581 -0.777155,1.020495 -0.265003,0.303806 -0.440221,0.309006 -0.138714,0.0041 -0.258884,-0.105577 -0.120279,-0.113345 -0.191728,-0.304865 -0.06791,-0.195278 -0.07452,-0.417951 -0.0043,-0.146015 0.01775,-0.263585 0.02574,-0.117679 0.09828,-0.258668 0.07243,-0.14464 0.19167,-0.312591 0.122887,-0.168058 0.299231,-0.381547 0.105719,-0.131013 0.176126,-0.220789 0.07406,-0.08988 0.142548,-0.121145 0.07203,-0.03502 0.232649,-0.03979 0.116812,-0.0035 0.223648,0.02625 0.106727,0.02606 0.107702,0.05891 0.002,0.06571 -0.102468,0.240525 -0.100769,0.174709 -0.334327,0.430085 -0.230015,0.251617 -0.536905,0.498209 -0.06297,0.217431 -0.05961,0.330592 0.0047,0.156966 0.125121,0.153391 0.0438,-0.0013 0.143848,-0.07734 0.09994,-0.07969 0.334576,-0.298564 0.238183,-0.222631 0.426777,-0.39264 0.138681,-0.128338 0.317591,-0.378438 0.182453,-0.253859 0.295581,-0.381439 0.261677,-0.292746 0.357745,-0.37963 0.09596,-0.09054 0.187219,-0.09324 0.08761,-0.0026 0.118437,0.05129 0.03448,0.05378 0.03946,0.221697 0.0023,0.07666 -0.01092,0.124546 -0.01319,0.04789 -0.05837,0.125955 -0.04164,0.07431 -0.174393,0.279195 -0.132755,0.204888 -0.314449,0.484299 -0.09788,0.149049 -0.169334,0.326542 -0.07157,0.173843 -0.06897,0.261452 0.0056,0.189819 0.155299,0.185377 0.124113,-0.0037 0.285346,-0.110769 0.161233,-0.107086 0.492809,-0.383639 l 0.0073,0.244575 q -0.415393,0.406916 -0.614505,0.591852 -0.199112,0.184935 -0.346069,0.280636 -0.146957,0.0957 -0.28202,0.09971 -0.306632,0.0091 -0.317466,-0.355936 -0.0041,-0.138714 0.08021,-0.375047 0.08422,-0.239983 0.275421,-0.691395 z" />
      <path
         inkscape:connector-curvature="0"
         id="path851"
         style="stroke:#000000;stroke-width:0.79778469;stroke-miterlimit:4;stroke-dasharray:none;stroke-opacity:1"
         d="m 79.941207,79.231358 q -0.621231,0.734541 -0.612889,1.01562 0.0047,0.156966 0.132422,0.153174 0.105861,-0.0031 0.270528,-0.117637 0.168209,-0.118253 0.521145,-0.413708 l 0.0075,0.251875 q -0.503185,0.526437 -0.773896,0.760994 -0.270712,0.234558 -0.44593,0.239758 -0.29933,0.0089 -0.311031,-0.385356 -0.0035,-0.116812 0.02968,-0.231057 0.03315,-0.114245 0.09163,-0.236549 0.06202,-0.126063 0.18672,-0.356287 0.124587,-0.233874 0.287596,-0.527345 -0.204929,0.112036 -0.509544,0.435286 -0.198571,0.203187 -0.335626,0.386281 -0.137164,0.179443 -0.294931,0.403341 -0.154224,0.220139 -0.228607,0.299072 -0.07084,0.07517 -0.147498,0.07745 -0.116812,0.0035 -0.222631,-0.238182 -0.105819,-0.24165 -0.115462,-0.566533 -0.006,-0.200771 0.03449,-0.315233 0.0441,-0.11457 0.172985,-0.32665 0.240392,-0.394415 0.417601,-0.5787 0.177102,-0.187936 0.345019,-0.19292 0.116812,-0.0035 0.187361,0.03463 0.0742,0.03799 0.07669,0.121946 0.0011,0.0365 -0.01963,0.07731 -0.02071,0.0408 -0.04894,0.07452 -0.02458,0.03361 -0.10937,0.131122 -0.557799,0.655933 -0.552165,0.845752 0.0031,0.105861 0.0725,0.103803 0.0438,-0.0013 0.1638,-0.143698 0.123538,-0.146157 0.313941,-0.37833 0.193945,-0.235933 0.456705,-0.492175 0.266411,-0.256352 0.606371,-0.496618 0.189461,-0.140805 0.317224,-0.144597 0.05841,-0.0017 0.117929,0.157257 0.06317,0.158883 0.06805,0.32315 0.0024,0.08031 -0.149707,0.249234 z" />
      <path
         inkscape:connector-curvature="0"
         id="path853"
         style="stroke:#000000;stroke-width:0.79778469;stroke-miterlimit:4;stroke-dasharray:none;stroke-opacity:1"
         d="m 82.672889,79.231358 q -0.621231,0.734541 -0.612889,1.01562 0.0047,0.156966 0.132422,0.153174 0.105861,-0.0031 0.270528,-0.117637 0.168209,-0.118253 0.521145,-0.413708 l 0.0075,0.251875 q -0.503185,0.526437 -0.773897,0.760994 -0.270711,0.234558 -0.445929,0.239758 -0.29933,0.0089 -0.311031,-0.385356 -0.0035,-0.116812 0.02968,-0.231057 0.03315,-0.114245 0.09163,-0.236549 0.06202,-0.126063 0.186719,-0.356287 0.124588,-0.233874 0.287597,-0.527345 -0.20493,0.112036 -0.509544,0.435286 -0.198571,0.203187 -0.335627,0.386281 -0.137164,0.179443 -0.29493,0.403341 -0.154224,0.220139 -0.228607,0.299072 -0.07084,0.07517 -0.147498,0.07745 -0.116812,0.0035 -0.222631,-0.238182 -0.105819,-0.24165 -0.115462,-0.566533 -0.006,-0.200771 0.03449,-0.315233 0.0441,-0.11457 0.172985,-0.32665 0.240391,-0.394415 0.417601,-0.5787 0.177102,-0.187936 0.345019,-0.19292 0.116812,-0.0035 0.187361,0.03463 0.0742,0.03799 0.07669,0.121946 0.0011,0.0365 -0.01963,0.07731 -0.02071,0.0408 -0.04894,0.07452 -0.02458,0.03361 -0.10937,0.131122 -0.557799,0.655933 -0.552165,0.845752 0.0031,0.105861 0.0725,0.103803 0.0438,-0.0013 0.1638,-0.143698 0.123538,-0.146157 0.31394,-0.37833 0.193945,-0.235933 0.456706,-0.492175 0.266411,-0.256352 0.606371,-0.496618 0.189461,-0.140805 0.317224,-0.144597 0.05841,-0.0017 0.117928,0.157257 0.06317,0.158883 0.06805,0.32315 0.0024,0.08031 -0.149707,0.249234 z" />
      <path
         inkscape:connector-curvature="0"
         id="path855"
         style="stroke:#000000;stroke-width:0.79778469;stroke-miterlimit:4;stroke-dasharray:none;stroke-opacity:1"
         d="m 83.52663,80.079177 0.0027,0.09126 q 0.0064,0.215372 0.115829,0.332693 0.109436,0.11732 0.281003,0.112228 0.178869,-0.0053 0.366196,-0.0949 0.190978,-0.0897 0.37668,-0.234049 0.185703,-0.144348 0.452547,-0.386098 l 0.0066,0.222673 q -0.397758,0.508694 -0.751236,0.785897 -0.353586,0.273553 -0.725924,0.284604 -0.324884,0.0096 -0.522179,-0.2366 -0.197295,-0.246242 -0.210296,-0.684287 -0.01138,-0.383289 0.158284,-0.69888 0.169551,-0.31924 0.56445,-0.678052 0.270386,-0.245508 0.540588,-0.374096 0.270203,-0.128588 0.485575,-0.13498 0.171568,-0.0051 0.272511,0.07229 0.104486,0.07362 0.109145,0.23059 0.0068,0.229973 -0.157917,0.465039 -0.16485,0.231415 -0.512219,0.468248 -0.343827,0.233073 -0.852354,0.456421 z m 0.02946,-0.238358 q 0.324742,-0.137514 0.552732,-0.334267 0.22799,-0.196753 0.332409,-0.371571 0.107961,-0.178577 0.105578,-0.258885 -0.0025,-0.08396 -0.07915,-0.08168 -0.06571,0.0019 -0.21288,0.09035 -0.143523,0.08829 -0.29283,0.227907 -0.145657,0.139506 -0.260702,0.3256 -0.115045,0.186094 -0.145157,0.402549 z" />
      <path
         sodipodi:nodetypes="ccccccscccccccccccccccccccccccsccc"
         inkscape:connector-curvature="0"
         id="path857"
         style="stroke:#000000;stroke-width:0.79778469;stroke-miterlimit:4;stroke-dasharray:none;stroke-opacity:1"
         d="m 85.008605,80.24726 -0.007,-0.237274 c 0.126791,-0.159649 0.222631,-0.295241 0.287521,-0.406775 -0.07867,-0.02446 -0.136833,-0.05562 -0.174493,-0.09347 -0.03523,-0.03793 -0.054,-0.09583 -0.05631,-0.173701 -0.0026,-0.08761 0.03062,-0.19942 0.09965,-0.335434 0.06903,-0.136014 0.155357,-0.264016 0.258968,-0.384006 0.103611,-0.11999 0.198715,-0.19832 0.285313,-0.234991 0.03357,-0.01805 0.06617,-0.02754 0.0978,-0.02848 0.04867,-0.0015 0.0737,0.02093 0.07507,0.06719 0.0012,0.04137 -0.03403,0.126451 -0.105686,0.255234 0.499007,-0.09275 0.814217,-0.14108 0.94563,-0.144981 0.05111,-0.0015 0.08654,0.0023 0.106294,0.01146 0.04202,0.02067 0.07761,0.07077 0.106761,0.150282 0.02915,0.07951 0.04492,0.159425 0.04731,0.239733 0.0015,0.05111 -0.01992,0.107765 -0.06437,0.169976 -0.04207,0.05971 -0.116167,0.148374 -0.222281,0.266002 -0.124863,0.142542 -0.228679,0.296638 -0.311449,0.462288 -0.08277,0.165651 -0.122926,0.289847 -0.120471,0.372589 0.0034,0.114378 0.07567,0.169472 0.216814,0.165283 0.148449,-0.0044 0.40193,-0.162938 0.760445,-0.475615 l 0.0073,0.244575 c -0.195704,0.217717 -0.357457,0.389365 -0.485259,0.514944 -0.127802,0.12558 -0.246592,0.226535 -0.35637,0.302865 -0.10985,0.0739 -0.208579,0.112144 -0.296188,0.114744 -0.102211,0.0031 -0.188759,-0.04064 -0.259644,-0.13113 -0.07096,-0.09289 -0.109071,-0.228157 -0.114344,-0.405808 -0.0031,-0.104644 0.0201,-0.224684 0.06969,-0.36012 0.04957,-0.135436 0.123144,-0.282546 0.220732,-0.441329 0.09995,-0.161289 0.192564,-0.446579 0.107894,-0.427019 -0.08474,0.01713 -0.174315,0.03562 -0.268719,0.05547 -0.0944,0.01985 -0.167014,0.03541 -0.217831,0.04666 -0.141925,0.306242 -0.352822,0.58652 -0.63269,0.840835 z" />
      <path
         sodipodi:nodetypes="ccccacccccccccczccccccccccccccccc"
         inkscape:connector-curvature="0"
         id="path859"
         style="stroke:#000000;stroke-width:0.79778469;stroke-miterlimit:4;stroke-dasharray:none;stroke-opacity:1"
         d="m 87.157972,80.067742 -0.0026,-0.08761 c 0.608219,-0.680569 1.02642,-1.156987 1.254604,-1.429254 0.04465,-0.300919 0.169191,-0.454413 0.373614,-0.46048 0.05111,-0.0015 0.127923,0.01325 0.165567,0.03893 0.02662,0.01816 0.02396,0.06871 0.02396,0.06871 -0.0089,0.02949 -0.01251,0.07101 -0.01092,0.124546 0.0014,0.04624 0.021,0.132127 0.0588,0.25766 0.04019,0.123029 0.07128,0.226843 0.09328,0.31144 0.02199,0.0846 0.03458,0.180435 0.03776,0.287513 0.0048,0.160617 -0.02712,0.316233 -0.09575,0.466848 -0.06867,0.148181 -0.170346,0.292471 -0.305015,0.432869 -0.134742,0.137964 -0.30953,0.28077 -0.524363,0.428418 0.08804,0.012 0.157617,0.01724 0.208722,0.01573 0.09978,-0.0029 0.206132,-0.03045 0.319066,-0.08254 0.168726,-0.05038 0.555251,-0.295616 0.651568,-0.414976 0.09632,-0.119359 0.07259,0.175066 0.07259,0.175066 -0.285959,0.259031 -0.515911,0.440882 -0.770397,0.650483 -0.241169,0.163044 -0.45058,0.247202 -0.628231,0.252475 -0.228757,0.0068 -0.443367,-0.08427 -0.643832,-0.273178 -0.117845,-0.113417 -0.192959,-0.223231 -0.22534,-0.329442 -0.02995,-0.106283 -0.04763,-0.250684 -0.05305,-0.433203 z m 1.345013,-0.598919 -0.08152,-0.531004 c -0.145826,0.174829 -0.458561,0.511716 -0.938205,1.010661 0.146954,0.0273 0.247995,0.06693 0.303122,0.118879 0.05513,0.05195 0.133638,0.153141 0.235533,0.303564 0.163461,-0.07305 0.287262,-0.169283 0.371404,-0.288696 0.0865,-0.121917 0.126722,-0.285087 0.120655,-0.489508 -7.33e-4,-0.02433 -0.0026,-0.0462 -0.0056,-0.0656 -5.77e-4,-0.01947 -0.0024,-0.0389 -0.0054,-0.0583 z" />
    </g>
    <path
       style="fill:#000000;fill-opacity:1;stroke:#000000;stroke-width:0.29566213;stroke-linecap:butt;stroke-linejoin:round;stroke-miterlimit:10;stroke-dasharray:none;stroke-opacity:1"
       d="m 108.75813,271.66372 c 1.1129,-0.86059 2.22569,-1.72114 3.22117,-2.07737 0.99547,-0.35635 1.86926,0.35902 2.09047,1.4553 0.22127,1.09641 -0.21192,3.13607 -1.06573,4.51057 -0.85378,1.37455 -2.12669,2.07901 -2.968,2.38156 -0.84132,0.30251 -1.24843,0.20214 -17.383441,0.15147 -16.135009,-0.0509 -47.864408,-0.0509 -64.042701,-0.0509 -11.109377,0 -14.444286,0.0408 -16.062778,0.16053 -0.738469,0.0547 -1.684102,0.29302 -2.492117,0.55974 -1.1891854,0.39248 -2.1072184,0.78947 -3.4325144,1.51979 -1.325296,0.73032 -2.292593,1.43468 -2.543313,1.93222 -0.250768,0.49752 0.09685,0.71219 0.911946,0.93868 0.815149,0.22654 2.038998,0.42825 3.286541,0.95651 1.247537,0.5284 2.5224404,1.38512 3.6686824,2.34167 1.146253,0.95659 2.165565,2.0143 2.85335,3.02108 0.687784,1.00683 1.04447,1.9636 1.810051,2.13959 0.765576,0.17592 1.936754,-0.42776 3.566031,-1.1574 1.629273,-0.7296 3.721018,-1.58671 7.18423,-2.36677 3.463216,-0.78006 8.307343,-1.48556 13.402088,-2.06453 5.094748,-0.57898 10.446552,-1.03234 15.948986,-1.30921 5.502436,-0.27672 11.15986,-0.37757 19.260595,-0.52867 8.100726,-0.15104 18.650753,-0.35269 24.892674,-0.50352 6.24192,-0.15104 8.17846,-0.25189 9.91053,-0.65467 1.73206,-0.40288 3.26172,-1.10835 4.45408,-2.18762 1.19237,-1.07931 2.05066,-2.53488 2.60209,-4.26476 0.55143,-1.72987 0.80459,-3.79345 0.50821,-5.83533 -0.29634,-2.04192 -1.12657,-4.74385 -2.36953,-5.93558 -1.24295,-1.19177 -2.89012,-1.43527 -3.89893,-0.66222 -1.00882,0.77301 -1.36905,2.56184 -1.8131,3.98563 -0.44409,1.42383 -0.97202,2.48407 -1.49957,3.54349"
       id="path866"
       inkscape:connector-curvature="0"
       sodipodi:nodetypes="cccccsssaccccccccssccccccccccc"
       inkscape:export-xdpi="300"
       inkscape:export-ydpi="300" />
    <g
       id="text835-0"
       style="font-style:normal;font-variant:normal;font-weight:bold;font-stretch:normal;font-size:7.47925711px;line-height:1.25;font-family:'Brush Script MT';-inkscape-font-specification:'Brush Script MT Bold';font-variant-ligatures:normal;font-variant-caps:normal;font-variant-numeric:normal;font-feature-settings:normal;text-align:start;letter-spacing:0px;word-spacing:0px;writing-mode:lr-tb;text-anchor:start;fill:#ffffff;fill-opacity:1;stroke:none;stroke-width:0.79777592;stroke-miterlimit:4;stroke-dasharray:none;stroke-opacity:1"
       transform="matrix(3.4004745,0,0,6.1184764,-193.1048,-222.40375)"
       aria-label="Bladerunners"
       inkscape:export-xdpi="300"
       inkscape:export-ydpi="300">
      <path
         inkscape:connector-curvature="0"
         id="path837-5"
         style="fill:#ffffff;fill-opacity:1;stroke:none;stroke-width:0.79777592;stroke-miterlimit:4;stroke-dasharray:none;stroke-opacity:1"
         d="m 60.330256,78.58805 -0.179668,0.224548 q 0.32575,0.01956 0.582793,0.06308 0.256934,0.03987 0.474148,0.09553 0.220756,0.05191 0.386973,0.112737 0.58391,0.223806 0.596694,0.65455 0.0078,0.262827 -0.225648,0.521854 -0.233449,0.259026 -0.614539,0.46763 -0.377438,0.208496 -0.78303,0.330142 -0.401833,0.125188 -0.734017,0.135047 -0.554857,0.01647 -0.871205,-0.178744 -0.316458,-0.198862 -0.327075,-0.556599 -0.0074,-0.248225 0.172484,-0.589694 0.179852,-0.341468 0.5629,-0.853378 -0.299764,-0.0057 -0.426043,-0.07504 -0.126388,-0.07297 -0.130397,-0.208039 -0.0025,-0.08396 0.04366,-0.129171 0.04615,-0.04521 0.125921,-0.06585 0.07966,-0.02429 0.305115,-0.06021 0.229107,-0.03603 0.585543,-0.09045 0.383373,-0.500959 0.690046,-0.754852 0.310216,-0.257651 0.670519,-0.30488 0.02909,-0.0045 0.06195,-0.0055 0.0365,-0.0011 0.03705,0.01717 6.5e-4,0.0219 -0.08049,0.119304 -0.07749,0.09729 -0.257485,0.31089 -0.176343,0.213488 -0.419768,0.505693 0.683561,-0.111628 1.114489,-0.241333 0.434469,-0.133463 0.652267,-0.304339 0.217797,-0.170875 0.211838,-0.371646 -0.0073,-0.244575 -0.247783,-0.347044 -0.240525,-0.102469 -0.729675,-0.08795 -0.270127,0.008 -0.618938,0.07317 -0.34516,0.06505 -0.627831,0.142856 -0.27902,0.0777 -0.49931,0.164616 -0.216747,0.08316 -0.215663,0.119662 3.25e-4,0.01095 0.02255,0.02125 0.180818,0.0604 0.182119,0.104203 0.0017,0.05841 -0.540839,0.242574 -0.542681,0.180519 -0.7325,0.186152 -0.135064,0.004 -0.139073,-0.131055 -0.0048,-0.160616 0.274912,-0.585426 0.283221,-0.428569 0.520679,-0.552531 0.08277,-0.04265 0.386798,-0.139356 0.304031,-0.09671 0.666685,-0.187852 0.366304,-0.09125 0.744318,-0.157274 0.378013,-0.06602 0.670043,-0.07469 0.689921,-0.02048 1.044074,0.217456 0.354044,0.234283 0.365095,0.606621 0.0075,0.251876 -0.146207,0.490267 -0.150032,0.238282 -0.479691,0.456321 -0.329659,0.218039 -0.865256,0.39104 -0.531946,0.172892 -1.259529,0.278519 z m -0.372963,0.482383 q -0.183102,0.231956 -0.327567,0.411616 -0.140923,0.175902 -0.20338,0.287363 -0.05891,0.107703 -0.05566,0.217214 0.0052,0.175218 0.188186,0.308623 0.186527,0.129647 0.526012,0.119571 0.313932,-0.0093 0.664768,-0.129338 0.354378,-0.123779 0.589994,-0.309798 0.239266,-0.186127 0.233849,-0.368646 -0.0047,-0.156966 -0.18656,-0.253867 -0.181902,-0.0969 -0.549215,-0.162726 -0.367421,-0.06947 -0.880423,-0.120012 z" />
      <path
         inkscape:connector-curvature="0"
         id="path839-4"
         style="fill:#ffffff;fill-opacity:1;stroke:none;stroke-width:0.79777592;stroke-miterlimit:4;stroke-dasharray:none;stroke-opacity:1"
         d="m 64.250343,79.873156 0.008,0.270128 q -0.732917,1.033797 -1.211116,1.04799 -0.259176,0.0077 -0.417184,-0.268945 -0.154466,-0.280395 -0.168117,-0.740342 -0.01105,-0.372338 0.148999,-0.888591 0.159942,-0.519903 0.436371,-1.054224 0.27997,-0.53808 0.58231,-0.937987 0.305881,-0.403667 0.57135,-0.56865 0.107561,-0.06896 0.169618,-0.0708 0.07666,-0.0023 0.104269,0.06632 0.0275,0.06495 0.03238,0.229215 0.01506,0.507402 -0.375439,1.26067 -0.390607,0.749618 -1.105123,1.541732 -0.03087,0.190903 -0.02784,0.293114 0.0069,0.233624 0.109828,0.376713 0.106544,0.142982 0.285412,0.137673 0.09126,-0.0027 0.195062,-0.07521 0.103694,-0.07615 0.217364,-0.185477 0.11367,-0.109328 0.443837,-0.433336 z M 63.13938,79.248483 q 0.184294,-0.191802 0.352469,-0.434277 0.171826,-0.242583 0.320775,-0.517369 0.148949,-0.274787 0.230166,-0.492759 0.08487,-0.218081 0.08162,-0.327592 -0.0025,-0.08396 -0.0609,-0.08222 -0.0219,6.5e-4 -0.08277,0.04265 -0.217256,0.189128 -0.478866,0.730316 -0.261719,0.537538 -0.362496,1.08126 z" />
      <path
         inkscape:connector-curvature="0"
         id="path841-6"
         style="fill:#ffffff;fill-opacity:1;stroke:none;stroke-width:0.79777592;stroke-miterlimit:4;stroke-dasharray:none;stroke-opacity:1"
         d="m 64.623484,79.299005 q 0.539905,-0.520219 1.05465,-0.780287 0.514744,-0.260068 0.799473,-0.268519 0.07666,-0.0023 0.144315,0.06148 0.06755,0.06011 0.106544,0.142982 0.04265,0.08277 0.04384,0.122921 0.0019,0.06571 -0.04818,0.100077 -0.05024,0.03072 -0.176701,0.07832 0.02729,0.05765 0.07015,0.147715 0.04286,0.09007 0.0665,0.147823 0.02353,0.05411 0.02483,0.09791 0.0026,0.08761 -0.169117,0.333842 -0.168176,0.242475 -0.237825,0.357803 -0.066,0.11522 -0.06112,0.279487 0.008,0.270128 0.256243,0.26276 0.255526,-0.0076 0.785239,-0.501926 l 0.0066,0.222673 q -0.893101,1.053166 -1.290992,1.064975 -0.142364,0.0042 -0.207237,-0.08884 -0.06112,-0.08953 -0.06653,-0.272045 -0.0086,-0.28838 0.183261,-0.842111 -0.515403,0.607178 -0.767104,0.866746 -0.251809,0.255918 -0.419727,0.260902 -0.08031,0.0024 -0.204887,-0.132756 -0.124579,-0.135138 -0.22599,-0.351344 -0.09787,-0.219964 -0.10491,-0.457238 -0.0051,-0.171568 0.0244,-0.285705 0.02939,-0.117787 0.12072,-0.241066 0.09134,-0.123279 0.293556,-0.326575 z m 1.736611,-0.453437 q -0.936204,0.462564 -1.332404,0.777571 -0.392548,0.314898 -0.383014,0.636131 0.0035,0.116812 0.0459,0.192278 0.04232,0.07182 0.111678,0.06976 0.04015,-0.0012 0.140848,-0.05533 0.376572,-0.237699 0.683429,-0.608512 0.306748,-0.374463 0.733567,-1.011895 z" />
      <path
         inkscape:connector-curvature="0"
         id="path843-2"
         style="fill:#ffffff;fill-opacity:1;stroke:none;stroke-width:0.79777592;stroke-miterlimit:4;stroke-dasharray:none;stroke-opacity:1"
         d="m 68.922668,79.922886 q -0.310398,0.374572 -0.55834,0.637682 -0.244292,0.263002 -0.401117,0.395532 -0.153282,0.128771 -0.211688,0.130505 -0.09491,0.0028 -0.219923,-0.146924 -0.121362,-0.149848 -0.212363,-0.384631 -0.091,-0.234782 -0.09826,-0.479357 -0.01051,-0.354087 0.322008,-0.722007 0.332409,-0.371571 0.763412,-0.621847 0.431002,-0.250275 0.650025,-0.256776 0.178868,-0.0053 0.357153,0.215923 0.263636,-0.596053 0.501969,-1.059825 0.241983,-0.463881 0.406942,-0.691646 0.164958,-0.227764 0.237966,-0.229931 0.08031,-0.0024 0.148398,0.07597 0.07163,0.0746 0.07456,0.17316 0.0056,0.189819 -0.258035,0.661651 -0.263778,0.468181 -0.520904,0.914243 -0.257127,0.446062 -0.437921,0.878898 -0.180902,0.429185 -0.170176,0.790572 0.0098,0.328534 0.221473,0.32225 0.127763,-0.0038 0.317007,-0.151899 0.189136,-0.151757 0.536797,-0.501859 l 0.0079,0.266477 q -0.758253,1.041856 -1.185347,1.054532 -0.171567,0.0051 -0.252126,-0.124046 -0.07691,-0.129246 -0.0846,-0.388423 -0.0104,-0.350436 0.06518,-0.758228 z m 0.243693,-0.898708 q -0.321633,0.119154 -0.752419,0.37673 -0.430895,0.253925 -0.519445,0.347893 -0.07814,0.07539 -0.134239,0.278004 -0.0561,0.202612 -0.05306,0.304823 0.0018,0.06206 0.03954,0.101127 0.0377,0.03907 0.09245,0.03745 0.05111,-0.0015 0.115512,-0.04727 0.06441,-0.04575 0.202979,-0.177743 0.142223,-0.132097 0.184944,-0.169901 0.06043,-0.0566 0.266844,-0.24175 0.209955,-0.18891 0.305482,-0.294046 0.09553,-0.105136 0.1612,-0.231307 0.06556,-0.129822 0.09022,-0.284004 z" />
      <path
         inkscape:connector-curvature="0"
         id="path845-9"
         style="fill:#ffffff;fill-opacity:1;stroke:none;stroke-width:0.79777592;stroke-miterlimit:4;stroke-dasharray:none;stroke-opacity:1"
         d="m 70.918288,80.079177 0.0027,0.09126 q 0.0064,0.215372 0.115829,0.332693 0.109436,0.11732 0.281003,0.112228 0.178868,-0.0053 0.366196,-0.0949 0.190978,-0.0897 0.37668,-0.234049 0.185703,-0.144348 0.452547,-0.386098 l 0.0066,0.222673 q -0.397758,0.508694 -0.751236,0.785897 -0.353586,0.273553 -0.725924,0.284604 -0.324884,0.0096 -0.522179,-0.2366 -0.197295,-0.246242 -0.210296,-0.684287 -0.01138,-0.383289 0.158284,-0.69888 0.169551,-0.31924 0.564449,-0.678052 0.270387,-0.245508 0.540589,-0.374096 0.270203,-0.128588 0.485575,-0.13498 0.171568,-0.0051 0.272511,0.07229 0.104486,0.07362 0.109145,0.23059 0.0068,0.229973 -0.157917,0.465039 -0.16485,0.231415 -0.512219,0.468248 -0.343827,0.233073 -0.852354,0.456421 z m 0.02946,-0.238358 q 0.324742,-0.137514 0.552732,-0.334267 0.22799,-0.196753 0.332409,-0.371571 0.107961,-0.178577 0.105578,-0.258885 -0.0025,-0.08396 -0.07915,-0.08168 -0.06571,0.0019 -0.21288,0.09035 -0.143523,0.08829 -0.29283,0.227907 -0.145657,0.139506 -0.260702,0.3256 -0.115045,0.186094 -0.145157,0.402549 z" />
      <path
         sodipodi:nodetypes="ccccccscccccccccccccccccccccccsccc"
         inkscape:connector-curvature="0"
         id="path847-9"
         style="fill:#ffffff;fill-opacity:1;stroke:none;stroke-width:0.79777592;stroke-miterlimit:4;stroke-dasharray:none;stroke-opacity:1"
         d="m 72.403354,80.24726 -0.007,-0.237274 c 0.126791,-0.159649 0.222631,-0.295241 0.287521,-0.406775 -0.07867,-0.02446 -0.136834,-0.05562 -0.174493,-0.09347 -0.03523,-0.03793 -0.05399,-0.09583 -0.0563,-0.173701 -0.0026,-0.08761 0.03062,-0.19942 0.09965,-0.335434 0.06903,-0.136014 0.155357,-0.264016 0.258968,-0.384006 0.103611,-0.11999 0.198715,-0.19832 0.285313,-0.234991 0.03357,-0.01805 0.06617,-0.02754 0.0978,-0.02848 0.04867,-0.0015 0.0737,0.02093 0.07507,0.06719 0.0012,0.04137 -0.03403,0.126451 -0.105686,0.255234 0.499007,-0.09275 0.814217,-0.14108 0.945631,-0.144981 0.05111,-0.0015 0.08654,0.0023 0.106294,0.01146 0.04202,0.02067 0.07761,0.07077 0.106761,0.150282 0.02915,0.07951 0.04492,0.159425 0.0473,0.239733 0.0015,0.05111 -0.01992,0.107765 -0.06437,0.169976 -0.04207,0.05971 -0.116167,0.148374 -0.222281,0.266002 -0.124863,0.142542 -0.22868,0.296638 -0.311449,0.462288 -0.08277,0.165651 -0.122927,0.289847 -0.120471,0.372589 0.0034,0.114378 0.07567,0.169472 0.216814,0.165283 0.148448,-0.0044 0.401929,-0.162938 0.760444,-0.475615 l 0.0073,0.244575 c -0.195703,0.217717 -0.357456,0.389365 -0.485258,0.514944 -0.127802,0.12558 -0.246592,0.226535 -0.35637,0.302865 -0.10985,0.0739 -0.20858,0.112144 -0.296189,0.114744 -0.10221,0.0031 -0.188758,-0.04064 -0.259643,-0.13113 -0.07096,-0.09289 -0.109072,-0.228157 -0.114345,-0.405808 -0.0031,-0.104644 0.0201,-0.224684 0.06969,-0.36012 0.04957,-0.135436 0.123144,-0.282546 0.220731,-0.441329 0.09995,-0.161289 0.192565,-0.446579 0.107895,-0.427019 -0.08474,0.01713 -0.174315,0.03562 -0.268719,0.05547 -0.0944,0.01985 -0.167014,0.03541 -0.217831,0.04666 -0.141926,0.306242 -0.352823,0.58652 -0.63269,0.840835 z" />
      <path
         inkscape:connector-curvature="0"
         id="path849-1"
         style="fill:#ffffff;fill-opacity:1;stroke:none;stroke-width:0.79777592;stroke-miterlimit:4;stroke-dasharray:none;stroke-opacity:1"
         d="m 76.334664,79.665844 q -0.508503,0.716581 -0.777155,1.020495 -0.265003,0.303806 -0.440221,0.309006 -0.138714,0.0041 -0.258884,-0.105577 -0.120279,-0.113345 -0.191728,-0.304865 -0.06791,-0.195278 -0.07452,-0.417951 -0.0043,-0.146015 0.01775,-0.263585 0.02574,-0.117679 0.09828,-0.258668 0.07243,-0.14464 0.19167,-0.312591 0.122887,-0.168058 0.299231,-0.381547 0.105719,-0.131013 0.176126,-0.220789 0.07406,-0.08988 0.142548,-0.121145 0.07203,-0.03502 0.232649,-0.03979 0.116812,-0.0035 0.223648,0.02625 0.106727,0.02606 0.107702,0.05891 0.002,0.06571 -0.102468,0.240525 -0.100769,0.174709 -0.334327,0.430085 -0.230015,0.251617 -0.536905,0.498209 -0.06297,0.217431 -0.05961,0.330592 0.0047,0.156966 0.125121,0.153391 0.0438,-0.0013 0.143848,-0.07734 0.09994,-0.07969 0.334576,-0.298564 0.238183,-0.222631 0.426777,-0.39264 0.138681,-0.128338 0.317591,-0.378438 0.182453,-0.253859 0.295581,-0.381439 0.261677,-0.292746 0.357745,-0.37963 0.09596,-0.09054 0.187219,-0.09324 0.08761,-0.0026 0.118437,0.05129 0.03448,0.05378 0.03946,0.221697 0.0023,0.07666 -0.01092,0.124546 -0.01319,0.04789 -0.05837,0.125955 -0.04164,0.07431 -0.174393,0.279195 -0.132755,0.204888 -0.314449,0.484299 -0.09788,0.149049 -0.169334,0.326542 -0.07157,0.173843 -0.06897,0.261452 0.0056,0.189819 0.155299,0.185377 0.124113,-0.0037 0.285346,-0.110769 0.161233,-0.107086 0.492809,-0.383639 l 0.0073,0.244575 q -0.415393,0.406916 -0.614505,0.591852 -0.199112,0.184935 -0.346069,0.280636 -0.146957,0.0957 -0.28202,0.09971 -0.306632,0.0091 -0.317466,-0.355936 -0.0041,-0.138714 0.08021,-0.375047 0.08422,-0.239983 0.275421,-0.691395 z" />
      <path
         inkscape:connector-curvature="0"
         id="path851-7"
         style="fill:#ffffff;fill-opacity:1;stroke:none;stroke-width:0.79777592;stroke-miterlimit:4;stroke-dasharray:none;stroke-opacity:1"
         d="m 79.941207,79.231358 q -0.621231,0.734541 -0.612889,1.01562 0.0047,0.156966 0.132422,0.153174 0.105861,-0.0031 0.270528,-0.117637 0.168209,-0.118253 0.521145,-0.413708 l 0.0075,0.251875 q -0.503185,0.526437 -0.773896,0.760994 -0.270712,0.234558 -0.44593,0.239758 -0.29933,0.0089 -0.311031,-0.385356 -0.0035,-0.116812 0.02968,-0.231057 0.03315,-0.114245 0.09163,-0.236549 0.06202,-0.126063 0.18672,-0.356287 0.124587,-0.233874 0.287596,-0.527345 -0.204929,0.112036 -0.509544,0.435286 -0.198571,0.203187 -0.335626,0.386281 -0.137164,0.179443 -0.294931,0.403341 -0.154224,0.220139 -0.228607,0.299072 -0.07084,0.07517 -0.147498,0.07745 -0.116812,0.0035 -0.222631,-0.238182 -0.105819,-0.24165 -0.115462,-0.566533 -0.006,-0.200771 0.03449,-0.315233 0.0441,-0.11457 0.172985,-0.32665 0.240392,-0.394415 0.417601,-0.5787 0.177102,-0.187936 0.345019,-0.19292 0.116812,-0.0035 0.187361,0.03463 0.0742,0.03799 0.07669,0.121946 0.0011,0.0365 -0.01963,0.07731 -0.02071,0.0408 -0.04894,0.07452 -0.02458,0.03361 -0.10937,0.131122 -0.557799,0.655933 -0.552165,0.845752 0.0031,0.105861 0.0725,0.103803 0.0438,-0.0013 0.1638,-0.143698 0.123538,-0.146157 0.313941,-0.37833 0.193945,-0.235933 0.456705,-0.492175 0.266411,-0.256352 0.606371,-0.496618 0.189461,-0.140805 0.317224,-0.144597 0.05841,-0.0017 0.117929,0.157257 0.06317,0.158883 0.06805,0.32315 0.0024,0.08031 -0.149707,0.249234 z" />
      <path
         inkscape:connector-curvature="0"
         id="path853-2"
         style="fill:#ffffff;fill-opacity:1;stroke:none;stroke-width:0.79777592;stroke-miterlimit:4;stroke-dasharray:none;stroke-opacity:1"
         d="m 82.672889,79.231358 q -0.621231,0.734541 -0.612889,1.01562 0.0047,0.156966 0.132422,0.153174 0.105861,-0.0031 0.270528,-0.117637 0.168209,-0.118253 0.521145,-0.413708 l 0.0075,0.251875 q -0.503185,0.526437 -0.773897,0.760994 -0.270711,0.234558 -0.445929,0.239758 -0.29933,0.0089 -0.311031,-0.385356 -0.0035,-0.116812 0.02968,-0.231057 0.03315,-0.114245 0.09163,-0.236549 0.06202,-0.126063 0.186719,-0.356287 0.124588,-0.233874 0.287597,-0.527345 -0.20493,0.112036 -0.509544,0.435286 -0.198571,0.203187 -0.335627,0.386281 -0.137164,0.179443 -0.29493,0.403341 -0.154224,0.220139 -0.228607,0.299072 -0.07084,0.07517 -0.147498,0.07745 -0.116812,0.0035 -0.222631,-0.238182 -0.105819,-0.24165 -0.115462,-0.566533 -0.006,-0.200771 0.03449,-0.315233 0.0441,-0.11457 0.172985,-0.32665 0.240391,-0.394415 0.417601,-0.5787 0.177102,-0.187936 0.345019,-0.19292 0.116812,-0.0035 0.187361,0.03463 0.0742,0.03799 0.07669,0.121946 0.0011,0.0365 -0.01963,0.07731 -0.02071,0.0408 -0.04894,0.07452 -0.02458,0.03361 -0.10937,0.131122 -0.557799,0.655933 -0.552165,0.845752 0.0031,0.105861 0.0725,0.103803 0.0438,-0.0013 0.1638,-0.143698 0.123538,-0.146157 0.31394,-0.37833 0.193945,-0.235933 0.456706,-0.492175 0.266411,-0.256352 0.606371,-0.496618 0.189461,-0.140805 0.317224,-0.144597 0.05841,-0.0017 0.117928,0.157257 0.06317,0.158883 0.06805,0.32315 0.0024,0.08031 -0.149707,0.249234 z" />
      <path
         inkscape:connector-curvature="0"
         id="path855-5"
         style="fill:#ffffff;fill-opacity:1;stroke:none;stroke-width:0.79777592;stroke-miterlimit:4;stroke-dasharray:none;stroke-opacity:1"
         d="m 83.52663,80.079177 0.0027,0.09126 q 0.0064,0.215372 0.115829,0.332693 0.109436,0.11732 0.281003,0.112228 0.178869,-0.0053 0.366196,-0.0949 0.190978,-0.0897 0.37668,-0.234049 0.185703,-0.144348 0.452547,-0.386098 l 0.0066,0.222673 q -0.397758,0.508694 -0.751236,0.785897 -0.353586,0.273553 -0.725924,0.284604 -0.324884,0.0096 -0.522179,-0.2366 -0.197295,-0.246242 -0.210296,-0.684287 -0.01138,-0.383289 0.158284,-0.69888 0.169551,-0.31924 0.56445,-0.678052 0.270386,-0.245508 0.540588,-0.374096 0.270203,-0.128588 0.485575,-0.13498 0.171568,-0.0051 0.272511,0.07229 0.104486,0.07362 0.109145,0.23059 0.0068,0.229973 -0.157917,0.465039 -0.16485,0.231415 -0.512219,0.468248 -0.343827,0.233073 -0.852354,0.456421 z m 0.02946,-0.238358 q 0.324742,-0.137514 0.552732,-0.334267 0.22799,-0.196753 0.332409,-0.371571 0.107961,-0.178577 0.105578,-0.258885 -0.0025,-0.08396 -0.07915,-0.08168 -0.06571,0.0019 -0.21288,0.09035 -0.143523,0.08829 -0.29283,0.227907 -0.145657,0.139506 -0.260702,0.3256 -0.115045,0.186094 -0.145157,0.402549 z" />
      <path
         sodipodi:nodetypes="ccccccscccccccccccccccccccccccsccc"
         inkscape:connector-curvature="0"
         id="path857-2"
         style="fill:#ffffff;fill-opacity:1;stroke:none;stroke-width:0.79777592;stroke-miterlimit:4;stroke-dasharray:none;stroke-opacity:1"
         d="m 85.008605,80.24726 -0.007,-0.237274 c 0.126791,-0.159649 0.222631,-0.295241 0.287521,-0.406775 -0.07867,-0.02446 -0.136833,-0.05562 -0.174493,-0.09347 -0.03523,-0.03793 -0.054,-0.09583 -0.05631,-0.173701 -0.0026,-0.08761 0.03062,-0.19942 0.09965,-0.335434 0.06903,-0.136014 0.155357,-0.264016 0.258968,-0.384006 0.103611,-0.11999 0.198715,-0.19832 0.285313,-0.234991 0.03357,-0.01805 0.06617,-0.02754 0.0978,-0.02848 0.04867,-0.0015 0.0737,0.02093 0.07507,0.06719 0.0012,0.04137 -0.03403,0.126451 -0.105686,0.255234 0.499007,-0.09275 0.814217,-0.14108 0.94563,-0.144981 0.05111,-0.0015 0.08654,0.0023 0.106294,0.01146 0.04202,0.02067 0.07761,0.07077 0.106761,0.150282 0.02915,0.07951 0.04492,0.159425 0.04731,0.239733 0.0015,0.05111 -0.01992,0.107765 -0.06437,0.169976 -0.04207,0.05971 -0.116167,0.148374 -0.222281,0.266002 -0.124863,0.142542 -0.228679,0.296638 -0.311449,0.462288 -0.08277,0.165651 -0.122926,0.289847 -0.120471,0.372589 0.0034,0.114378 0.07567,0.169472 0.216814,0.165283 0.148449,-0.0044 0.40193,-0.162938 0.760445,-0.475615 l 0.0073,0.244575 c -0.195704,0.217717 -0.357457,0.389365 -0.485259,0.514944 -0.127802,0.12558 -0.246592,0.226535 -0.35637,0.302865 -0.10985,0.0739 -0.208579,0.112144 -0.296188,0.114744 -0.102211,0.0031 -0.188759,-0.04064 -0.259644,-0.13113 -0.07096,-0.09289 -0.109071,-0.228157 -0.114344,-0.405808 -0.0031,-0.104644 0.0201,-0.224684 0.06969,-0.36012 0.04957,-0.135436 0.123144,-0.282546 0.220732,-0.441329 0.09995,-0.161289 0.192564,-0.446579 0.107894,-0.427019 -0.08474,0.01713 -0.174315,0.03562 -0.268719,0.05547 -0.0944,0.01985 -0.167014,0.03541 -0.217831,0.04666 -0.141925,0.306242 -0.352822,0.58652 -0.63269,0.840835 z" />
      <path
         sodipodi:nodetypes="ccccacccccccccczccccccccccccccccc"
         inkscape:connector-curvature="0"
         id="path859-3"
         style="fill:#ffffff;fill-opacity:1;stroke:none;stroke-width:0.79777592;stroke-miterlimit:4;stroke-dasharray:none;stroke-opacity:1"
         d="m 87.157972,80.067742 -0.0026,-0.08761 c 0.608219,-0.680569 1.02642,-1.156987 1.254604,-1.429254 0.04465,-0.300919 0.169191,-0.454413 0.373614,-0.46048 0.05111,-0.0015 0.127923,0.01325 0.165567,0.03893 0.02662,0.01816 0.02396,0.06871 0.02396,0.06871 -0.0089,0.02949 -0.01251,0.07101 -0.01092,0.124546 0.0014,0.04624 0.021,0.132127 0.0588,0.25766 0.04019,0.123029 0.07128,0.226843 0.09328,0.31144 0.02199,0.0846 0.03458,0.180435 0.03776,0.287513 0.0048,0.160617 -0.02712,0.316233 -0.09575,0.466848 -0.06867,0.148181 -0.170346,0.292471 -0.305015,0.432869 -0.134742,0.137964 -0.30953,0.28077 -0.524363,0.428418 0.08804,0.012 0.157617,0.01724 0.208722,0.01573 0.09978,-0.0029 0.206132,-0.03045 0.319066,-0.08254 0.168726,-0.05038 0.555251,-0.295616 0.651568,-0.414976 0.09632,-0.119359 0.07259,0.175066 0.07259,0.175066 -0.285959,0.259031 -0.515911,0.440882 -0.770397,0.650483 -0.241169,0.163044 -0.45058,0.247202 -0.628231,0.252475 -0.228757,0.0068 -0.443367,-0.08427 -0.643832,-0.273178 -0.117845,-0.113417 -0.192959,-0.223231 -0.22534,-0.329442 -0.02995,-0.106283 -0.04763,-0.250684 -0.05305,-0.433203 z m 1.345013,-0.598919 -0.08152,-0.531004 c -0.145826,0.174829 -0.458561,0.511716 -0.938205,1.010661 0.146954,0.0273 0.247995,0.06693 0.303122,0.118879 0.05513,0.05195 0.133638,0.153141 0.235533,0.303564 0.163461,-0.07305 0.287262,-0.169283 0.371404,-0.288696 0.0865,-0.121917 0.126722,-0.285087 0.120655,-0.489508 -7.33e-4,-0.02433 -0.0026,-0.0462 -0.0056,-0.0656 -5.77e-4,-0.01947 -0.0024,-0.0389 -0.0054,-0.0583 z" />
    </g>
    <path
       style="fill:#fcfcfc;fill-opacity:1;stroke:#000000;stroke-width:1.66121233;stroke-linecap:butt;stroke-linejoin:miter;stroke-miterlimit:10;stroke-dasharray:none;stroke-opacity:1;paint-order:normal"
       d="m 111.52903,269.30317 c 0.96709,-1.57192 1.96207,0.44122 2.14138,1.11641 0.45798,1.72458 0.18745,3.75765 -0.66637,5.13215 -0.85378,1.37455 -2.12669,2.079 -2.968,2.38156 -0.84132,0.30251 -1.24843,0.20213 -17.383441,0.15147 -16.135009,-0.0509 -47.864408,-0.0509 -64.042706,-0.0509 -11.109372,0 -14.444281,0.0408 -16.062773,0.16053 -0.738469,0.0547 -1.684102,0.29302 -2.492117,0.55973 -1.1891854,0.39248 -2.1072184,0.78947 -3.4325144,1.51979 -1.325296,0.73032 -2.292593,1.43469 -2.543313,1.93222 -0.250768,0.49752 0.09685,0.71219 0.911946,0.93869 0.815149,0.22653 2.038998,0.42824 3.286541,0.9565 1.247537,0.5284 2.5224404,1.38513 3.6686824,2.34168 1.146253,0.95659 2.165565,2.01429 2.85335,3.02108 0.687784,1.00682 1.04447,1.9636 1.810051,2.13959 0.765576,0.17592 1.936754,-0.42776 3.566031,-1.15741 1.629267,-0.72959 3.721018,-1.5867 7.18423,-2.36677 3.463216,-0.78006 8.307343,-1.48555 13.402088,-2.06453 5.094748,-0.57897 10.446552,-1.03233 15.948986,-1.3092 5.502436,-0.27672 11.15986,-0.37758 19.260595,-0.52867 8.100726,-0.15104 18.650753,-0.3527 24.892674,-0.50358 6.24192,-0.15104 8.17846,-0.25184 9.91053,-0.65466 1.73206,-0.40289 3.26172,-1.10835 4.45408,-2.18762 1.19237,-1.07932 2.05066,-2.53489 2.60209,-4.26476 0.55143,-1.72988 0.80459,-3.79346 0.50821,-5.83533 -0.29634,-2.04193 -1.12657,-4.74386 -2.36953,-5.93559 -1.24295,-1.19177 -2.89012,-1.43527 -3.89893,-0.66222 -0.96559,0.90117 -1.58826,2.52216 -2.57356,3.71163"
       id="path866-2"
       inkscape:connector-curvature="0"
       sodipodi:nodetypes="csccsssaccccccccsscccccccccc"
       inkscape:export-xdpi="300"
       inkscape:export-ydpi="300" />
    <g
       id="g4213"
       inkscape:export-xdpi="300"
       inkscape:export-ydpi="300"
       transform="matrix(4.0614502,0,0,4.0172939,-130.17725,-191.66623)"
       style="fill:#000a77;fill-opacity:1;stroke:#000a77;stroke-width:0.06673478;stroke-miterlimit:4;stroke-dasharray:none;stroke-opacity:1">
      <g
         id="text6227"
         style="font-style:normal;font-variant:normal;font-weight:bold;font-stretch:normal;font-size:11.21881104px;line-height:1.25;font-family:'Imperfecta Regular';-inkscape-font-specification:'Imperfecta Regular, Bold';font-variant-ligatures:normal;font-variant-caps:normal;font-variant-numeric:normal;font-feature-settings:normal;text-align:start;letter-spacing:0px;word-spacing:0px;writing-mode:lr-tb;text-anchor:start;fill:#000a77;fill-opacity:1;stroke:#000a77;stroke-width:0.53220069;stroke-miterlimit:4;stroke-dasharray:none;stroke-opacity:1"
         transform="matrix(0.09721261,0,0,0.16174506,46.577441,104.239)"
         aria-label="s">
        <g
           id="text1666"
           style="font-style:normal;font-variant:normal;font-weight:normal;font-stretch:normal;font-size:10.16202164px;line-height:1.25;font-family:Chosence;-inkscape-font-specification:Chosence;font-variant-ligatures:normal;font-variant-caps:normal;font-variant-numeric:normal;font-feature-settings:normal;text-align:start;letter-spacing:1.13770831px;word-spacing:0px;writing-mode:lr-tb;text-anchor:start;fill:#000a77;fill-opacity:1;stroke:#000a77;stroke-width:0.49017295;stroke-miterlimit:4;stroke-dasharray:none;stroke-opacity:1"
           aria-label="sheffield"
           transform="matrix(1.4004909,0,0,0.84172817,-100.99028,2.7100106)">
          <g
             id="g5211"
             style="fill:#000a77;fill-opacity:1;stroke:#000a77;stroke-width:0.49017295;stroke-miterlimit:4;stroke-dasharray:none;stroke-opacity:1">
            <g
               id="g5222"
               style="fill:#000a77;fill-opacity:1;stroke:#000a77;stroke-width:0.49017295;stroke-miterlimit:4;stroke-dasharray:none;stroke-opacity:1">
              <path
                 sodipodi:nodetypes="scsscsccssssscccccsscszcsccssssscccccss"
                 inkscape:connector-curvature="0"
                 id="path2767"
                 style="font-style:normal;font-variant:normal;font-weight:normal;font-stretch:normal;font-family:Chosence;-inkscape-font-specification:Chosence;letter-spacing:1.13770831px;word-spacing:0px;fill:#000a77;fill-opacity:1;stroke:#000a77;stroke-width:0.49017295;stroke-miterlimit:4;stroke-dasharray:none;stroke-opacity:1"
                 d="m -2.7327497,94.572039 c 0,-0.3341 0.09428,-0.59708 0.28283,-0.78895 0.191861,-0.18855 0.456497,-0.28283 0.793908,-0.28283 h 1.23055697 c 0.334103,0 0.597085,0.0943 0.788946,0.28283 0.188553,0.19187 0.28283,0.45485 0.28283,0.78895 v 1.51835 h -0.957651 v -1.47369 c 0,-0.14224 -0.07277,-0.21336 -0.218325,-0.21336 H -1.5567737 c -0.145549,0 -0.218324,0.0711 -0.218324,0.21336 v 4.71279 c 0,0.32418 0.125702,0.790921 0.377106,0.999321 0.09924,0.0794 0.229903,0.16209 0.391992,0.2481 0.05293,0.0298 0.12570197,0.0678 0.21832497,0.11412 l 0.223286,0.11412 c 0.383723,0.19848 0.661591,0.40192 0.833604,0.61032 0.251404,0.30433 0.377106,0.97 0.377106,1.45296 v 5.30613 c 0,0.58275 -0.15561377,0.71079 -0.35643052,0.81348 -0.209138,0.12074 -0.41169148,0.1915 -0.71534548,0.33086 0,0 -1.16192237,0.50891 -1.35818647,0.54246 -0.1962642,0.0335 -0.4793795,-0.0698 -0.6712405,-0.2583 -0.188553,-0.18856 -0.28283,-0.45154 -0.28283,-0.78895 v -1.51835 h 0.957652 v 1.32335 c 0,0.14555 0.0868,0.28068 0.218325,0.21833 l 1.03207997,-0.48921 c 0.131538,-0.0623 0.218325,-0.0728 0.218325,-0.21833 v -5.26147 c 0,-0.29771 -0.125702,-0.81783 -0.377107,-1.01631 -0.09593,-0.0761 -0.224941,-0.15878 -0.38702997,-0.2481 -0.04962,-0.0265 -0.122395,-0.0645 -0.218325,-0.11412 l -0.228248,-0.11909 c -0.380414,-0.20509 -0.658282,-0.4168 -0.833603,-0.63512 -0.251405,-0.31425 -0.377107,-0.916621 -0.377107,-1.406201 z" />
              <path
                 sodipodi:nodetypes="ccccccccccccc"
                 inkscape:connector-curvature="0"
                 id="path2769"
                 style="font-style:normal;font-variant:normal;font-weight:normal;font-stretch:normal;font-family:Chosence;-inkscape-font-specification:Chosence;letter-spacing:1.13770831px;word-spacing:0px;fill:#000a77;fill-opacity:1;stroke:#000a77;stroke-width:0.49017295;stroke-miterlimit:4;stroke-dasharray:none;stroke-opacity:1"
                 d="m 6.0214863,106.7285 -0.957652,0.33076 v -6.6473 l -1.468729,0.24287 v 6.96984 l -0.957652,0.36272 V 93.500259 h 0.957652 v 6.251502 l 1.468729,-0.24287 v -6.008632 h 0.957652 z" />
              <path
                 sodipodi:nodetypes="ccccccccccccc"
                 inkscape:connector-curvature="0"
                 id="path2771"
                 style="font-style:normal;font-variant:normal;font-weight:normal;font-stretch:normal;font-family:Chosence;-inkscape-font-specification:Chosence;letter-spacing:1.13770831px;word-spacing:0px;fill:#000a77;fill-opacity:1;stroke:#000a77;stroke-width:0.49017295;stroke-miterlimit:4;stroke-dasharray:none;stroke-opacity:1"
                 d="m 10.897642,105.33731 -2.8977637,0.76978 V 93.500259 h 2.8977637 v 0.90308 H 8.9624923 v 4.550422 l 0.962907,-0.121434 v 0.90307 l -0.962907,0.138782 v 5.084231 l 1.9351497,-0.51921 z" />
              <path
                 sodipodi:nodetypes="ccccccccccc"
                 inkscape:connector-curvature="0"
                 id="path2773"
                 style="font-style:normal;font-variant:normal;font-weight:normal;font-stretch:normal;font-family:Chosence;-inkscape-font-specification:Chosence;letter-spacing:1.13770831px;word-spacing:0px;fill:#000a77;fill-opacity:1;stroke:#000a77;stroke-width:0.49017295;stroke-miterlimit:4;stroke-dasharray:none;stroke-opacity:1"
                 d="m 14.754788,99.197615 -0.962915,0.121434 v 5.361441 l -0.962614,0.22315 V 93.500259 h 2.897769 v 0.90308 h -1.935155 v 3.995292 l 0.962915,-0.104086 z" />
              <path
                 sodipodi:nodetypes="ccccccccccc"
                 inkscape:connector-curvature="0"
                 id="path2775"
                 style="font-style:normal;font-variant:normal;font-weight:normal;font-stretch:normal;font-family:Chosence;-inkscape-font-specification:Chosence;letter-spacing:1.13770831px;word-spacing:0px;fill:#000a77;fill-opacity:1;stroke:#000a77;stroke-width:0.49017295;stroke-miterlimit:4;stroke-dasharray:none;stroke-opacity:1"
                 d="m 19.524618,98.730113 -0.96291,0.137893 v 4.995444 l -0.96261,0.15734 V 93.500259 h 2.89776 v 0.90308 h -1.93515 v 3.544249 l 0.96291,-0.120545 z" />
              <path
                 sodipodi:nodetypes="ccccc"
                 inkscape:connector-curvature="0"
                 id="path2777"
                 style="font-style:normal;font-variant:normal;font-weight:normal;font-stretch:normal;font-family:Chosence;-inkscape-font-specification:Chosence;letter-spacing:1.13770831px;word-spacing:0px;fill:#000a77;fill-opacity:1;stroke:#000a77;stroke-width:0.49017295;stroke-miterlimit:4;stroke-dasharray:none;stroke-opacity:1"
                 d="m 22.368928,103.27741 v -9.777151 h 0.96262 v 9.635241 z" />
              <path
                 sodipodi:nodetypes="ccccccccccccc"
                 inkscape:connector-curvature="0"
                 id="path2779"
                 style="font-style:normal;font-variant:normal;font-weight:normal;font-stretch:normal;font-family:Chosence;-inkscape-font-specification:Chosence;letter-spacing:1.13770831px;word-spacing:0px;fill:#000a77;fill-opacity:1;stroke:#000a77;stroke-width:0.49017295;stroke-miterlimit:4;stroke-dasharray:none;stroke-opacity:1"
                 d="m 28.246868,102.45641 -2.89776,0.39055 v -9.346701 h 2.89776 v 0.90308 h -1.93515 l -1.5e-4,2.913222 0.96291,-0.06939 v 0.90307 l -0.96291,0.08995 1.5e-4,3.566919 1.93515,-0.24881 z" />
              <path
                 sodipodi:nodetypes="ccccccc"
                 inkscape:connector-curvature="0"
                 id="path2781"
                 style="font-style:normal;font-variant:normal;font-weight:normal;font-stretch:normal;font-family:Chosence;-inkscape-font-specification:Chosence;letter-spacing:1.13770831px;word-spacing:0px;fill:#000a77;fill-opacity:1;stroke:#000a77;stroke-width:0.49017295;stroke-miterlimit:4;stroke-dasharray:none;stroke-opacity:1"
                 d="m 33.144428,101.85885 -2.90769,0.34339 v -8.701981 h 0.96262 v 7.662131 l 1.94507,-0.20165 z" />
              <path
                 sodipodi:nodetypes="ccscsscsccscssscc"
                 inkscape:connector-curvature="0"
                 id="path2783"
                 style="font-style:normal;font-variant:normal;font-weight:normal;font-stretch:normal;font-family:Chosence;-inkscape-font-specification:Chosence;letter-spacing:1.13770831px;word-spacing:0px;fill:#000a77;fill-opacity:1;stroke:#000a77;stroke-width:0.49017295;stroke-miterlimit:4;stroke-dasharray:none;stroke-opacity:1"
                 d="m 35.185048,101.64074 v -8.140481 h 2.3073 c 0.3341,0 0.59708,0.0943 0.78894,0.28283 0.19186,0.19187 0.28779,0.45485 0.28779,0.78895 v 4.94704 c 0,0.615281 -0.13728,1.073431 -0.41184,1.374451 -0.30102,0.3308 -0.76637,0.52344 -1.46376,0.59419 z m 0.95765,-1.00738 0.55078,-0.0709 c 0.34122,-0.0439 0.5822,-0.14197 0.71451,-0.28424 0.13563,-0.14224 0.20344,-0.395301 0.20344,-0.759171 v -4.90238 c 0,-0.14224 -0.0744,-0.21336 -0.22329,-0.21336 h -1.24544 z" />
            </g>
          </g>
        </g>
      </g>
    </g>
    <path
       transform="matrix(1.4355065,0,0,1.4186285,-7.5790103,239.62551)"
       inkscape:original-d="m 17.062499,33.372502 c 1.480167,-0.355167 3.001,-0.709334 4.5,-1.0625 1.895353,-0.167537 3.792667,-0.334333 5.6875,-0.5 1.750003,-0.14675 3.501,-0.292667 5.25,-0.4375 1.166949,-0.02182 2.334333,-0.04267 3.499999,-0.0625 1.20828,-0.02182 2.417667,-0.001 3.625,0"
       inkscape:path-effect="#path-effect2423"
       inkscape:connector-curvature="0"
       id="path2421"
       d="m 17.062499,33.372502 c 1.481438,-0.349784 3.001171,-0.70861 4.698302,-0.968871 1.697131,-0.26026 3.594445,-0.427057 5.416861,-0.583263 1.822416,-0.156206 3.573413,-0.302122 5.031358,-0.385414 1.457946,-0.08329 2.62533,-0.104137 3.812294,-0.114544 1.186964,-0.01041 2.396351,-0.01041 3.603684,-0.01041"
       style="fill:none;stroke:none;stroke-width:0.05;stroke-linecap:butt;stroke-linejoin:miter;stroke-miterlimit:4;stroke-dasharray:none;stroke-opacity:1"
       inkscape:export-xdpi="300"
       inkscape:export-ydpi="300" />
    <path
       style="fill:none;stroke:#000000;stroke-width:0.18418914px;stroke-linecap:butt;stroke-linejoin:miter;stroke-opacity:1"
       d="m 114.73531,244.74558 c 0,0 0,0 0,0 z"
       id="path10118"
       inkscape:connector-curvature="0"
       inkscape:export-xdpi="300"
       inkscape:export-ydpi="300" />
  </g>
</svg>
