<?xml version="1.0" encoding="UTF-8" standalone="no"?>
<!DOCTYPE svg PUBLIC "-//W3C//DTD SVG 20010904//EN"
              "http://www.w3.org/TR/2001/REC-SVG-20010904/DTD/svg10.dtd">

<svg xmlns="http://www.w3.org/2000/svg"
     width="1.11667in" height="1.10333in"
     viewBox="0 0 335 331">
  <path id="face"
        fill="none" stroke="black" stroke-width="1"
        d="M 103.00,110.00
           C 103.00,110.00 101.00,115.00 101.00,115.00
             93.51,111.65 91.19,118.81 91.02,125.00
             90.75,134.71 95.52,149.44 99.99,158.00
             103.00,163.75 106.30,164.45 107.57,169.01
             107.57,169.01 108.17,177.00 108.17,177.00
             108.91,184.62 111.14,203.08 116.41,208.24
             116.41,208.24 127.00,215.74 127.00,215.74
             137.45,223.28 148.41,231.66 162.00,231.99
             166.82,232.10 168.53,231.60 173.00,231.17
             173.00,231.17 181.00,230.47 181.00,230.47
             185.94,229.34 195.50,223.95 200.00,221.19
             205.19,218.01 214.56,212.11 217.61,206.99
             220.28,202.49 220.13,197.96 220.55,193.00
             220.55,193.00 222.57,180.00 222.57,180.00
             222.57,180.00 223.14,168.00 223.14,168.00
             223.81,163.78 225.50,163.23 227.00,160.00
             228.39,156.98 227.68,155.05 229.17,152.00
             229.17,152.00 234.01,145.00 234.01,145.00
             234.01,145.00 241.20,129.00 241.20,129.00
             242.55,123.78 240.02,114.71 234.00,113.76
             232.16,113.16 230.75,113.62 229.00,113.76
             229.00,113.76 226.00,93.00 226.00,93.00
             226.00,93.00 226.00,83.00 226.00,83.00
             224.99,74.55 219.71,55.21 215.33,48.00
             210.53,40.12 205.56,37.71 198.00,33.20
             190.87,28.95 178.22,23.17 170.00,22.18
             157.07,20.63 130.06,30.58 120.01,38.53
             111.63,45.16 110.04,52.55 107.23,62.00
             105.76,66.97 104.04,71.82 103.30,77.00
             103.30,77.00 102.27,90.00 102.27,90.00
             101.42,95.78 97.75,105.48 103.00,110.00 Z" />
  <path id="profile"
        fill="none" stroke="black" stroke-width="1"
        d="M 101.00,115.00
           C 87.41,111.93 91.01,131.51 92.89,139.00
             94.23,144.31 97.21,153.34 99.88,158.00
             99.88,158.00 106.99,169.00 106.99,169.00
             106.99,169.00 110.92,195.00 110.92,195.00
             111.88,200.73 114.94,211.84 112.05,216.98
             108.51,223.30 94.11,226.22 87.00,229.28
             65.37,238.59 43.58,246.97 23.00,258.58
             18.15,261.31 3.45,267.24 1.17,271.19
             -0.22,273.61 0.00,277.26 0.00,280.00
             0.00,280.00 0.00,331.00 0.00,331.00
             0.00,331.00 335.00,331.00 335.00,331.00
             335.00,331.00 335.00,290.00 335.00,290.00
             335.00,287.57 335.13,284.26 334.26,282.00
             331.89,275.87 318.93,269.77 313.00,266.76
             313.00,266.76 290.00,254.26 290.00,254.26
             290.00,254.26 269.00,244.69 269.00,244.69
             269.00,244.69 247.00,233.86 247.00,233.86
             247.00,233.86 224.04,224.30 224.04,224.30
             222.11,222.93 220.60,221.23 219.83,219.00
             217.94,214.36 219.52,205.93 219.83,201.00
             219.83,201.00 222.83,178.00 222.83,178.00
             222.83,178.00 223.41,168.00 223.41,168.00
             223.41,168.00 229.41,153.00 229.41,153.00
             233.09,145.07 242.50,133.15 241.44,124.00
             240.49,115.72 236.44,114.09 229.00,114.00
             229.00,114.00 226.00,93.00 226.00,93.00
             226.00,93.00 226.00,82.00 226.00,82.00
             224.95,73.16 219.25,53.06 214.21,46.00
             209.50,39.40 203.03,35.49 196.00,31.78
             186.99,27.02 175.36,21.63 165.00,22.04
             156.44,22.37 143.90,26.34 136.00,29.72
             127.71,33.27 121.33,35.78 115.33,43.00
             109.97,49.45 104.78,67.49 103.44,76.00
             103.44,76.00 102.72,85.00 102.72,85.00
             102.72,85.00 100.21,101.00 100.21,101.00
             99.88,107.58 103.05,106.98 101.00,115.00 Z" />
</svg>
