<?xml version="1.0" encoding="UTF-8" standalone="no"?>
<!DOCTYPE svg PUBLIC "-//W3C//DTD SVG 20010904//EN"
              "http://www.w3.org/TR/2001/REC-SVG-20010904/DTD/svg10.dtd">

<svg xmlns="http://www.w3.org/2000/svg"
     width="1.11333in" height="1.11in"
     viewBox="0 0 334 333">
  <path id="face"
        fill="none" stroke="black" stroke-width="1"
        d="M 102.00,104.00
           C 100.32,104.06 98.00,103.91 96.60,105.02
             94.38,106.78 95.27,110.61 95.58,113.00
             95.58,113.00 96.47,122.00 96.47,122.00
             97.32,125.50 99.17,127.73 99.79,132.00
             99.79,132.00 100.64,142.00 100.64,142.00
             100.98,146.11 99.30,150.52 100.64,153.98
             102.35,158.62 106.46,158.49 107.69,163.05
             107.69,163.05 108.52,172.00 108.52,172.00
             109.56,176.91 112.80,184.50 115.12,189.00
             117.58,193.77 121.73,197.97 125.28,202.00
             137.59,215.97 153.10,227.39 172.00,229.71
             180.37,230.75 185.29,229.32 193.00,226.42
             214.82,218.21 223.71,207.34 232.67,186.00
             232.67,186.00 239.47,166.00 239.47,166.00
             240.78,160.22 238.32,157.48 245.15,155.00
             245.15,155.00 245.15,138.00 245.15,138.00
             245.15,138.00 249.96,116.00 249.96,116.00
             250.24,110.51 249.90,103.01 244.00,101.00
             246.18,93.31 244.02,87.60 242.34,80.09
             242.34,80.09 240.49,70.00 240.49,70.00
             240.49,70.00 237.09,61.00 237.09,61.00
             233.67,51.39 232.98,44.93 225.53,36.85
             216.44,26.98 211.15,27.16 207.09,24.31
             201.82,20.60 196.53,13.21 189.99,11.97
             182.18,10.59 181.25,11.42 174.00,11.97
             174.00,11.97 163.00,12.55 163.00,12.55
             159.43,13.14 158.15,14.08 155.00,15.24
             155.00,15.24 147.00,17.63 147.00,17.63
             143.00,19.32 131.50,27.38 128.30,30.46
             122.47,36.06 117.08,45.67 113.69,53.00
             105.97,69.69 104.75,72.62 102.83,91.00
             102.13,97.71 101.34,96.28 102.00,104.00 Z" />
  <path id="profile"
        fill="none" stroke="black" stroke-width="1"
        d="M 102.00,104.00
           C 100.32,104.06 98.00,103.91 96.60,105.02
             94.38,106.78 95.27,110.61 95.58,113.00
             96.09,116.95 95.74,120.18 97.10,124.00
             97.10,124.00 99.39,130.00 99.39,130.00
             100.83,135.47 100.60,143.39 100.17,149.00
             99.47,158.29 105.40,157.29 107.40,162.13
             108.55,164.90 107.21,168.06 109.35,175.00
             111.93,183.38 117.88,191.37 118.00,200.00
             118.03,202.57 118.24,206.64 116.98,208.87
             113.68,214.70 99.12,218.70 93.00,221.28
             76.33,228.34 79.23,229.35 68.00,234.74
             68.00,234.74 58.00,238.79 58.00,238.79
             58.00,238.79 26.00,254.25 26.00,254.25
             26.00,254.25 9.00,262.76 9.00,262.76
             6.48,264.04 2.51,265.87 1.02,268.33
             -0.22,270.37 0.00,273.65 0.00,276.00
             0.00,276.00 0.00,333.00 0.00,333.00
             0.00,333.00 334.00,333.00 334.00,333.00
             334.00,333.00 334.00,274.00 334.00,274.00
             334.00,272.21 334.14,268.96 333.43,267.37
             332.52,265.35 328.82,262.81 327.00,261.42
             320.47,256.46 313.83,253.48 306.00,251.14
             285.56,245.05 264.29,234.09 246.00,223.20
             242.70,221.24 229.13,215.26 228.02,213.59
             226.68,211.55 226.97,206.49 227.00,204.00
             227.03,201.79 227.03,200.17 227.63,198.00
             227.63,198.00 233.08,185.00 233.08,185.00
             233.08,185.00 238.91,168.00 238.91,168.00
             241.25,160.46 237.88,157.64 245.15,155.00
             245.15,155.00 245.15,138.00 245.15,138.00
             245.15,138.00 249.96,116.00 249.96,116.00
             250.24,110.51 249.90,103.01 244.00,101.00
             246.18,93.31 244.02,87.60 242.34,80.09
             242.34,80.09 240.49,70.00 240.49,70.00
             240.49,70.00 237.09,61.00 237.09,61.00
             233.67,51.39 232.98,44.93 225.53,36.85
             216.44,26.98 211.15,27.16 207.09,24.31
             201.82,20.60 196.53,13.21 189.99,11.97
             182.18,10.59 181.25,11.42 174.00,11.97
             174.00,11.97 163.00,12.55 163.00,12.55
             159.43,13.14 158.15,14.08 155.00,15.24
             155.00,15.24 147.00,17.63 147.00,17.63
             143.00,19.32 131.50,27.38 128.30,30.46
             122.47,36.06 117.08,45.67 113.69,53.00
             105.97,69.69 104.75,72.62 102.83,91.00
             102.13,97.71 101.34,96.28 102.00,104.00 Z" />
</svg>
