<?xml version="1.0" encoding="UTF-8" standalone="no"?>
<!DOCTYPE svg PUBLIC "-//W3C//DTD SVG 20010904//EN"
              "http://www.w3.org/TR/2001/REC-SVG-20010904/DTD/svg10.dtd">

<svg xmlns="http://www.w3.org/2000/svg"
     width="11.4367in" height="15.54in"
     viewBox="0 0 3431 4662">
  <path id="face"
        fill="none" stroke="black" stroke-width="1"
        d="M 1336.00,544.00
           C 1336.00,544.00 1337.00,547.00 1337.00,547.00
             1331.92,549.61 1325.39,559.06 1321.26,563.93
             1321.26,563.93 1307.58,577.29 1307.58,577.29
             1307.58,577.29 1297.62,590.56 1297.62,590.56
             1297.62,590.56 1291.61,596.29 1291.61,596.29
             1286.31,602.46 1270.05,626.51 1266.12,634.00
             1266.12,634.00 1253.96,661.00 1253.96,661.00
             1253.96,661.00 1247.14,674.00 1247.14,674.00
             1245.51,676.83 1243.06,679.13 1241.79,682.17
             1241.79,682.17 1238.73,695.00 1238.73,695.00
             1238.73,695.00 1228.37,716.00 1228.37,716.00
             1228.37,716.00 1223.93,728.00 1223.93,728.00
             1223.93,728.00 1221.82,736.00 1221.82,736.00
             1221.82,736.00 1209.52,765.00 1209.52,765.00
             1209.52,765.00 1206.01,772.00 1206.01,772.00
             1206.01,772.00 1200.12,794.00 1200.12,794.00
             1197.21,805.07 1193.14,820.59 1193.00,832.00
             1193.00,832.00 1189.48,865.00 1189.48,865.00
             1189.48,865.00 1184.49,880.00 1184.49,880.00
             1184.49,880.00 1179.83,897.00 1179.83,897.00
             1179.83,897.00 1168.95,927.00 1168.95,927.00
             1168.95,927.00 1167.75,934.00 1167.75,934.00
             1167.75,934.00 1164.72,951.00 1164.72,951.00
             1163.90,957.83 1164.12,976.74 1166.25,983.00
             1167.49,986.69 1168.25,990.49 1172.00,992.00
             1172.00,992.00 1169.76,1005.00 1169.76,1005.00
             1169.76,1005.00 1169.76,1011.00 1169.76,1011.00
             1169.76,1011.00 1168.00,1028.00 1168.00,1028.00
             1168.00,1028.00 1168.00,1048.00 1168.00,1048.00
             1168.00,1048.00 1168.74,1062.00 1168.74,1062.00
             1168.74,1062.00 1175.99,1109.00 1175.99,1109.00
             1175.99,1109.00 1171.64,1122.00 1171.64,1122.00
             1171.64,1122.00 1170.28,1149.00 1170.28,1149.00
             1170.28,1149.00 1166.64,1156.96 1166.64,1156.96
             1166.64,1156.96 1165.00,1168.00 1165.00,1168.00
             1159.43,1164.31 1150.19,1153.94 1146.00,1152.56
             1146.00,1152.56 1130.00,1151.00 1130.00,1151.00
             1125.81,1150.95 1119.97,1150.80 1116.04,1152.14
             1113.31,1153.07 1112.88,1153.90 1110.72,1155.08
             1110.72,1155.08 1105.28,1157.73 1105.28,1157.73
             1101.19,1160.71 1095.12,1169.21 1093.21,1174.00
             1093.21,1174.00 1091.32,1180.91 1091.32,1180.91
             1091.32,1180.91 1088.69,1186.17 1088.69,1186.17
             1087.72,1188.92 1087.01,1199.70 1087.00,1203.00
             1087.00,1203.00 1088.00,1227.00 1088.00,1227.00
             1088.13,1239.84 1089.58,1239.60 1091.63,1251.00
             1091.63,1251.00 1092.37,1261.00 1092.37,1261.00
             1092.37,1261.00 1096.75,1281.00 1096.75,1281.00
             1096.75,1281.00 1098.46,1293.00 1098.46,1293.00
             1098.37,1296.19 1097.35,1296.82 1097.81,1301.00
             1098.61,1308.18 1102.17,1309.03 1102.10,1317.17
             1102.10,1317.17 1105.79,1351.00 1105.79,1351.00
             1107.39,1363.14 1111.78,1372.82 1111.00,1385.00
             1115.88,1386.69 1116.14,1399.34 1116.72,1404.00
             1116.72,1404.00 1122.56,1430.00 1122.56,1430.00
             1122.56,1430.00 1128.23,1459.00 1128.23,1459.00
             1128.23,1459.00 1130.73,1475.00 1130.73,1475.00
             1131.91,1478.24 1134.08,1479.73 1135.47,1484.00
             1135.47,1484.00 1137.88,1496.00 1137.88,1496.00
             1137.88,1496.00 1143.30,1513.99 1143.30,1513.99
             1143.30,1513.99 1146.47,1521.17 1146.47,1521.17
             1146.47,1521.17 1147.90,1527.00 1147.90,1527.00
             1147.90,1527.00 1151.49,1537.00 1151.49,1537.00
             1153.89,1546.60 1151.94,1548.54 1152.86,1554.00
             1152.86,1554.00 1157.12,1572.00 1157.12,1572.00
             1157.12,1572.00 1162.31,1582.00 1162.31,1582.00
             1162.31,1582.00 1163.64,1587.96 1163.64,1587.96
             1163.64,1587.96 1173.34,1606.00 1173.34,1606.00
             1185.29,1621.97 1201.68,1634.07 1221.00,1639.41
             1221.00,1639.41 1243.00,1643.55 1243.00,1643.55
             1244.92,1643.82 1249.14,1643.39 1249.89,1645.48
             1250.41,1646.92 1248.51,1653.71 1248.32,1656.00
             1248.32,1656.00 1249.00,1673.00 1249.00,1673.00
             1249.00,1673.00 1248.00,1694.00 1248.00,1694.00
             1248.00,1694.00 1252.00,1693.00 1252.00,1693.00
             1254.20,1705.97 1247.51,1706.56 1249.00,1718.00
             1243.44,1720.06 1243.99,1722.58 1243.00,1728.00
             1243.00,1728.00 1247.00,1728.00 1247.00,1728.00
             1247.00,1728.00 1249.12,1738.00 1249.12,1738.00
             1249.12,1738.00 1248.00,1746.00 1248.00,1746.00
             1248.00,1746.00 1252.00,1744.00 1252.00,1744.00
             1252.00,1744.00 1250.01,1760.00 1250.01,1760.00
             1249.91,1765.57 1251.40,1768.01 1247.00,1772.00
             1247.00,1772.00 1247.00,1778.00 1247.00,1778.00
             1247.00,1778.00 1254.00,1772.00 1254.00,1772.00
             1254.00,1772.00 1261.05,1784.28 1261.05,1784.28
             1261.05,1784.28 1263.35,1791.00 1263.35,1791.00
             1263.35,1791.00 1267.58,1799.00 1267.58,1799.00
             1269.87,1803.06 1270.41,1806.39 1275.00,1808.00
             1274.23,1821.06 1276.63,1817.37 1277.24,1823.00
             1277.71,1827.33 1274.67,1830.27 1279.14,1834.00
             1279.14,1834.00 1279.14,1840.83 1279.14,1840.83
             1279.14,1840.83 1276.00,1857.00 1276.00,1857.00
             1281.49,1862.89 1278.91,1872.64 1281.00,1880.00
             1281.00,1880.00 1279.92,1881.54 1279.92,1881.54
             1279.92,1881.54 1281.19,1891.00 1281.19,1891.00
             1281.19,1891.00 1283.00,1892.00 1283.00,1892.00
             1283.00,1892.00 1282.00,1895.00 1282.00,1895.00
             1282.00,1895.00 1286.00,1895.00 1286.00,1895.00
             1286.00,1895.00 1282.00,1897.00 1282.00,1897.00
             1283.62,1902.35 1284.48,1914.08 1288.27,1917.34
             1290.15,1918.96 1298.14,1921.08 1301.00,1922.00
             1301.00,1922.00 1299.00,1913.00 1299.00,1913.00
             1307.64,1918.23 1303.51,1919.92 1302.00,1928.00
             1313.64,1929.60 1317.57,1936.97 1309.00,1946.00
             1309.00,1946.00 1314.00,1948.00 1314.00,1948.00
             1314.65,1951.81 1314.75,1951.92 1318.00,1954.00
             1318.00,1954.00 1316.00,1958.00 1316.00,1958.00
             1320.92,1959.26 1328.14,1960.31 1323.00,1967.00
             1323.00,1967.00 1327.80,1986.00 1327.80,1986.00
             1327.80,1986.00 1330.75,1993.00 1330.75,1993.00
             1330.75,1993.00 1336.00,2005.00 1336.00,2005.00
             1337.84,2001.05 1338.16,1998.38 1342.00,1996.00
             1342.72,2000.37 1352.13,2014.00 1355.20,2018.00
             1360.91,2025.41 1358.73,2025.53 1362.28,2030.00
             1362.28,2030.00 1384.83,2054.00 1384.83,2054.00
             1384.83,2054.00 1404.37,2080.00 1404.37,2080.00
             1404.37,2080.00 1458.73,2151.00 1458.73,2151.00
             1458.73,2151.00 1493.87,2192.00 1493.87,2192.00
             1493.87,2192.00 1511.09,2212.00 1511.09,2212.00
             1511.09,2212.00 1521.00,2221.09 1521.00,2221.09
             1521.00,2221.09 1540.00,2239.04 1540.00,2239.04
             1540.00,2239.04 1558.00,2256.04 1558.00,2256.04
             1558.00,2256.04 1571.00,2268.68 1571.00,2268.68
             1571.00,2268.68 1604.00,2291.42 1604.00,2291.42
             1604.00,2291.42 1637.00,2313.83 1637.00,2313.83
             1642.87,2317.13 1649.70,2319.03 1656.00,2321.42
             1656.00,2321.42 1684.00,2333.01 1684.00,2333.01
             1684.00,2333.01 1724.00,2349.60 1724.00,2349.60
             1734.17,2353.75 1737.67,2356.98 1749.00,2357.00
             1749.00,2357.00 1769.00,2358.00 1769.00,2358.00
             1769.00,2358.00 1830.00,2359.00 1830.00,2359.00
             1830.00,2359.00 1845.00,2360.00 1845.00,2360.00
             1866.45,2360.25 1887.86,2355.71 1909.00,2352.42
             1909.00,2352.42 1953.00,2345.52 1953.00,2345.52
             1953.00,2345.52 1994.00,2330.69 1994.00,2330.69
             1994.00,2330.69 2027.00,2317.96 2027.00,2317.96
             2033.06,2314.53 2041.55,2306.08 2047.00,2301.17
             2047.00,2301.17 2085.00,2267.17 2085.00,2267.17
             2085.00,2267.17 2128.00,2227.04 2128.00,2227.04
             2133.77,2221.52 2145.43,2211.64 2150.10,2205.72
             2150.10,2205.72 2164.00,2183.00 2164.00,2183.00
             2164.00,2183.00 2188.57,2142.00 2188.57,2142.00
             2188.57,2142.00 2193.37,2132.00 2193.37,2132.00
             2193.37,2132.00 2221.71,2092.00 2221.71,2092.00
             2221.71,2092.00 2240.92,2065.00 2240.92,2065.00
             2240.92,2065.00 2254.40,2043.00 2254.40,2043.00
             2258.21,2036.68 2264.45,2029.72 2263.00,2022.00
             2263.00,2022.00 2268.00,2016.00 2268.00,2016.00
             2268.00,2016.00 2267.00,2019.00 2267.00,2019.00
             2267.00,2019.00 2273.00,2016.00 2273.00,2016.00
             2270.20,2013.24 2269.88,2013.32 2266.00,2013.00
             2266.00,2013.00 2272.00,2006.00 2272.00,2006.00
             2272.00,2006.00 2272.00,2011.00 2272.00,2011.00
             2272.00,2011.00 2279.90,2000.03 2279.90,2000.03
             2279.90,2000.03 2290.00,1989.00 2290.00,1989.00
             2288.27,1983.86 2287.63,1980.99 2293.00,1978.00
             2293.00,1978.00 2293.00,1985.00 2293.00,1985.00
             2293.00,1985.00 2298.00,1978.00 2298.00,1978.00
             2298.00,1978.00 2296.00,1978.00 2296.00,1978.00
             2296.00,1978.00 2296.00,1976.00 2296.00,1976.00
             2296.00,1976.00 2300.00,1976.00 2300.00,1976.00
             2303.65,1969.65 2309.32,1960.24 2310.16,1953.00
             2311.86,1938.49 2304.58,1926.56 2304.00,1914.00
             2304.00,1914.00 2301.00,1915.00 2301.00,1915.00
             2303.60,1910.08 2303.57,1904.23 2308.11,1900.42
             2313.19,1896.14 2320.96,1898.01 2322.14,1890.98
             2322.94,1886.24 2318.96,1883.70 2318.00,1880.00
             2318.00,1880.00 2315.00,1881.00 2315.00,1881.00
             2316.68,1870.86 2323.91,1877.14 2330.00,1867.00
             2336.13,1868.03 2336.88,1864.43 2334.40,1861.41
             2332.61,1859.25 2329.58,1858.61 2327.00,1858.00
             2329.80,1853.46 2331.99,1855.85 2336.00,1858.00
             2336.00,1858.00 2334.00,1855.00 2334.00,1855.00
             2334.00,1855.00 2343.00,1856.00 2343.00,1856.00
             2343.00,1856.00 2337.49,1846.00 2337.49,1846.00
             2337.49,1846.00 2342.64,1829.00 2342.64,1829.00
             2342.64,1829.00 2341.42,1822.00 2341.42,1822.00
             2341.42,1822.00 2342.31,1815.00 2342.31,1815.00
             2342.31,1815.00 2341.00,1799.00 2341.00,1799.00
             2341.00,1799.00 2344.00,1783.00 2344.00,1783.00
             2344.00,1783.00 2346.00,1783.00 2346.00,1783.00
             2347.30,1788.15 2347.13,1791.86 2352.00,1795.00
             2352.00,1795.00 2352.00,1791.00 2352.00,1791.00
             2352.00,1791.00 2355.00,1791.00 2355.00,1791.00
             2354.58,1773.90 2351.39,1779.18 2350.00,1769.00
             2350.00,1769.00 2354.00,1770.00 2354.00,1770.00
             2354.00,1770.00 2350.00,1768.00 2350.00,1768.00
             2350.00,1768.00 2351.00,1764.00 2351.00,1764.00
             2355.79,1767.24 2356.19,1767.80 2362.00,1768.00
             2355.81,1759.56 2358.29,1760.01 2354.22,1753.00
             2350.16,1746.02 2346.51,1744.70 2346.00,1736.00
             2346.00,1736.00 2353.00,1740.00 2353.00,1740.00
             2352.28,1731.55 2348.69,1726.11 2343.00,1720.00
             2343.00,1720.00 2347.00,1716.00 2347.00,1716.00
             2347.00,1716.00 2342.00,1717.00 2342.00,1717.00
             2342.00,1717.00 2347.00,1710.00 2347.00,1710.00
             2347.00,1710.00 2343.00,1712.00 2343.00,1712.00
             2343.00,1712.00 2343.00,1707.00 2343.00,1707.00
             2343.00,1707.00 2350.00,1708.00 2350.00,1708.00
             2349.56,1704.42 2347.43,1701.31 2351.00,1700.00
             2351.00,1700.00 2344.00,1687.00 2344.00,1687.00
             2344.00,1687.00 2347.00,1686.00 2347.00,1686.00
             2347.00,1686.00 2347.00,1688.00 2347.00,1688.00
             2347.00,1688.00 2353.00,1689.00 2353.00,1689.00
             2353.00,1689.00 2349.00,1672.00 2349.00,1672.00
             2354.78,1671.51 2354.82,1673.93 2355.00,1679.00
             2355.00,1679.00 2357.00,1679.00 2357.00,1679.00
             2357.00,1679.00 2354.14,1667.58 2354.14,1667.58
             2354.14,1667.58 2358.00,1657.00 2358.00,1657.00
             2358.00,1657.00 2350.91,1650.87 2350.91,1650.87
             2350.91,1650.87 2350.91,1642.00 2350.91,1642.00
             2350.91,1642.00 2348.00,1634.00 2348.00,1634.00
             2352.18,1635.19 2358.58,1635.37 2363.00,1635.26
             2369.88,1635.09 2374.92,1635.76 2382.00,1634.16
             2407.73,1628.37 2431.63,1608.93 2444.28,1586.17
             2444.28,1586.17 2449.06,1576.00 2449.06,1576.00
             2452.49,1568.15 2455.94,1564.79 2455.00,1555.00
             2460.42,1551.08 2457.67,1545.31 2465.25,1535.00
             2468.12,1531.10 2472.94,1524.79 2475.17,1520.58
             2475.17,1520.58 2480.50,1507.09 2480.50,1507.09
             2480.50,1507.09 2485.20,1496.00 2485.20,1496.00
             2485.20,1496.00 2486.74,1488.00 2486.74,1488.00
             2486.74,1488.00 2490.65,1474.00 2490.65,1474.00
             2490.65,1474.00 2493.93,1456.00 2493.93,1456.00
             2493.93,1456.00 2495.79,1448.00 2495.79,1448.00
             2495.79,1448.00 2496.80,1439.00 2496.80,1439.00
             2496.80,1439.00 2499.41,1426.17 2499.41,1426.17
             2499.41,1426.17 2502.08,1406.00 2502.08,1406.00
             2502.08,1406.00 2502.08,1395.00 2502.08,1395.00
             2502.08,1395.00 2506.48,1380.00 2506.48,1380.00
             2506.48,1380.00 2507.46,1372.00 2507.46,1372.00
             2507.46,1372.00 2511.41,1358.00 2511.41,1358.00
             2511.41,1358.00 2513.17,1349.01 2513.17,1349.01
             2513.17,1349.01 2517.33,1338.99 2517.33,1338.99
             2517.33,1338.99 2525.32,1293.00 2525.32,1293.00
             2525.32,1293.00 2530.00,1257.00 2530.00,1257.00
             2530.00,1257.00 2530.00,1247.00 2530.00,1247.00
             2530.00,1247.00 2528.95,1235.00 2528.95,1235.00
             2528.36,1225.39 2528.14,1215.55 2528.95,1206.00
             2529.57,1195.38 2524.34,1192.91 2523.73,1188.00
             2523.73,1188.00 2523.73,1184.00 2523.73,1184.00
             2523.24,1177.46 2518.30,1171.97 2514.18,1167.29
             2509.33,1161.78 2514.34,1163.29 2504.04,1156.70
             2504.04,1156.70 2498.72,1153.23 2498.72,1153.23
             2498.72,1153.23 2478.00,1149.84 2478.00,1149.84
             2475.01,1149.42 2470.34,1151.04 2467.00,1151.58
             2461.21,1152.50 2452.08,1154.13 2447.00,1156.93
             2439.80,1160.90 2441.11,1162.13 2436.90,1165.46
             2436.90,1165.46 2422.29,1176.69 2422.29,1176.69
             2416.36,1181.40 2411.58,1187.14 2405.00,1191.00
             2403.96,1185.20 2403.58,1183.86 2405.00,1178.00
             2407.06,1178.16 2409.12,1178.54 2409.58,1175.77
             2409.58,1175.77 2406.13,1160.00 2406.13,1160.00
             2405.80,1155.90 2408.75,1153.92 2408.99,1145.00
             2409.27,1134.24 2410.33,1136.72 2411.22,1129.72
             2411.22,1129.72 2411.22,1123.00 2411.22,1123.00
             2411.22,1123.00 2412.98,1101.01 2412.98,1101.01
             2412.98,1101.01 2412.25,1090.99 2412.25,1090.99
             2412.25,1090.99 2413.49,1079.00 2413.49,1079.00
             2412.47,1062.87 2413.49,1052.71 2414.25,1037.00
             2414.25,1037.00 2414.25,1027.00 2414.25,1027.00
             2414.25,1027.00 2413.74,999.58 2413.74,999.58
             2413.74,999.58 2412.17,985.00 2412.17,985.00
             2412.17,985.00 2408.28,948.00 2408.28,948.00
             2408.28,948.00 2407.67,940.00 2407.67,940.00
             2407.67,940.00 2405.21,931.00 2405.21,931.00
             2405.21,931.00 2403.38,914.00 2403.38,914.00
             2403.38,914.00 2400.46,902.00 2400.46,902.00
             2400.46,902.00 2399.47,893.00 2399.47,893.00
             2399.47,893.00 2397.19,885.00 2397.19,885.00
             2397.19,885.00 2393.29,861.00 2393.29,861.00
             2393.29,861.00 2392.78,851.04 2392.78,851.04
             2391.97,846.28 2390.37,848.55 2388.43,835.00
             2388.43,835.00 2386.62,817.00 2386.62,817.00
             2386.62,817.00 2380.59,798.00 2380.59,798.00
             2380.59,798.00 2378.48,789.00 2378.48,789.00
             2378.48,789.00 2375.75,782.00 2375.75,782.00
             2375.75,782.00 2371.34,763.00 2371.34,763.00
             2369.40,757.89 2366.04,755.49 2364.26,751.91
             2364.26,751.91 2359.32,736.00 2359.32,736.00
             2357.79,731.83 2355.01,729.62 2353.30,726.00
             2353.30,726.00 2350.44,717.00 2350.44,717.00
             2350.44,717.00 2345.99,710.00 2345.99,710.00
             2345.99,710.00 2341.60,700.91 2341.60,700.91
             2339.98,697.01 2339.13,692.73 2336.79,689.13
             2334.91,686.24 2333.31,685.90 2331.50,683.74
             2331.50,683.74 2326.12,674.17 2326.12,674.17
             2326.12,674.17 2315.03,659.83 2315.03,659.83
             2315.03,659.83 2309.21,646.00 2309.21,646.00
             2309.21,646.00 2298.90,627.00 2298.90,627.00
             2298.90,627.00 2295.50,618.00 2295.50,618.00
             2295.50,618.00 2288.59,604.91 2288.59,604.91
             2288.59,604.91 2285.04,595.11 2285.04,595.11
             2286.15,597.34 2275.37,580.11 2277.31,582.45
             2275.92,580.77 2274.19,579.98 2273.02,577.87
             2271.80,575.68 2272.28,573.68 2271.05,571.59
             2270.11,570.01 2268.29,569.05 2265.90,565.00
             2265.90,565.00 2254.55,544.42 2254.55,544.42
             2254.55,544.42 2246.77,534.91 2246.77,534.91
             2246.77,534.91 2239.96,525.08 2239.96,525.08
             2239.96,525.08 2233.80,518.41 2233.80,518.41
             2233.80,518.41 2230.20,513.54 2230.20,513.54
             2230.20,513.54 2210.33,498.31 2210.33,498.31
             2210.33,498.31 2204.90,492.29 2204.90,492.29
             2204.90,492.29 2198.29,487.72 2198.29,487.72
             2198.29,487.72 2193.25,482.82 2193.25,482.82
             2193.25,482.82 2178.33,471.24 2178.33,471.24
             2178.33,471.24 2172.90,466.24 2172.90,466.24
             2172.90,466.24 2167.17,462.60 2167.17,462.60
             2167.17,462.60 2135.72,439.93 2135.72,439.93
             2135.72,439.93 2126.17,433.90 2126.17,433.90
             2126.17,433.90 2120.91,429.58 2120.91,429.58
             2117.78,427.56 2115.86,428.35 2112.04,426.28
             2112.04,426.28 2103.96,420.50 2103.96,420.50
             2103.96,420.50 2090.99,413.59 2090.99,413.59
             2090.99,413.59 2084.00,408.94 2084.00,408.94
             2084.00,408.94 2076.00,405.38 2076.00,405.38
             2076.00,405.38 2065.17,399.18 2065.17,399.18
             2065.17,399.18 2053.00,390.58 2053.00,390.58
             2049.73,388.59 2047.45,388.97 2044.00,387.66
             2044.00,387.66 2035.04,383.55 2035.04,383.55
             2035.04,383.55 2026.96,377.94 2026.96,377.94
             2022.71,375.44 2021.55,376.56 2018.28,375.09
             2018.28,375.09 2012.96,372.26 2012.96,372.26
             2012.96,372.26 1984.00,367.09 1984.00,367.09
             1984.00,367.09 1972.00,366.39 1972.00,366.39
             1972.00,366.39 1965.00,364.26 1965.00,364.26
             1965.00,364.26 1946.00,360.08 1946.00,360.08
             1946.00,360.08 1937.00,356.79 1937.00,356.79
             1937.00,356.79 1930.00,355.45 1930.00,355.45
             1924.13,353.92 1922.43,351.68 1917.83,349.04
             1917.83,349.04 1905.00,343.57 1905.00,343.57
             1905.00,343.57 1895.83,337.73 1895.83,337.73
             1895.83,337.73 1889.00,336.03 1889.00,336.03
             1889.00,336.03 1882.00,332.81 1882.00,332.81
             1879.14,331.78 1862.21,328.48 1859.00,328.31
             1859.00,328.31 1844.00,329.49 1844.00,329.49
             1844.00,329.49 1821.00,327.00 1821.00,327.00
             1821.00,327.00 1800.00,326.30 1800.00,326.30
             1800.00,326.30 1782.00,326.30 1782.00,326.30
             1782.00,326.30 1773.00,326.30 1773.00,326.30
             1773.00,326.30 1758.00,328.70 1758.00,328.70
             1752.79,329.13 1751.68,327.20 1747.00,327.09
             1747.00,327.09 1738.00,327.68 1738.00,327.68
             1738.00,327.68 1720.00,327.00 1720.00,327.00
             1720.00,327.00 1704.00,328.00 1704.00,328.00
             1704.00,328.00 1692.00,327.36 1692.00,327.36
             1692.00,327.36 1667.00,333.12 1667.00,333.12
             1667.00,333.12 1661.00,335.46 1661.00,335.46
             1661.00,335.46 1652.00,336.63 1652.00,336.63
             1645.41,338.45 1635.86,343.18 1630.00,346.76
             1624.25,350.27 1619.98,355.34 1614.72,359.41
             1614.72,359.41 1606.21,365.04 1606.21,365.04
             1606.21,365.04 1601.63,369.65 1601.63,369.65
             1601.63,369.65 1591.00,376.93 1591.00,376.93
             1586.68,379.26 1583.98,378.59 1581.17,379.72
             1581.17,379.72 1569.00,386.75 1569.00,386.75
             1569.00,386.75 1551.00,392.35 1551.00,392.35
             1551.00,392.35 1506.00,414.31 1506.00,414.31
             1498.44,418.50 1498.62,420.46 1494.83,423.58
             1494.83,423.58 1489.37,426.90 1489.37,426.90
             1489.37,426.90 1483.90,431.80 1483.90,431.80
             1483.90,431.80 1475.09,436.70 1475.09,436.70
             1468.43,441.14 1465.95,445.40 1463.73,447.21
             1463.73,447.21 1458.00,450.92 1458.00,450.92
             1458.00,450.92 1435.63,466.19 1435.63,466.19
             1435.63,466.19 1429.74,471.37 1429.74,471.37
             1429.74,471.37 1422.28,476.78 1422.28,476.78
             1422.28,476.78 1409.91,487.63 1409.91,487.63
             1409.91,487.63 1404.00,491.49 1404.00,491.49
             1404.00,491.49 1391.00,501.62 1391.00,501.62
             1391.00,501.62 1385.21,505.13 1385.21,505.13
             1385.21,505.13 1378.99,511.12 1378.99,511.12
             1378.99,511.12 1371.31,516.59 1371.31,516.59
             1371.31,516.59 1364.06,522.87 1364.06,522.87
             1364.06,522.87 1357.79,529.22 1357.79,529.22
             1357.79,529.22 1349.01,535.95 1349.01,535.95
             1344.07,540.39 1342.88,543.44 1336.00,544.00 Z
           M 2353.00,1664.00
           C 2353.00,1664.00 2353.00,1665.00 2353.00,1665.00
             2353.00,1665.00 2352.00,1664.00 2352.00,1664.00
             2352.00,1664.00 2353.00,1664.00 2353.00,1664.00 Z
           M 2357.00,1680.00
           C 2357.00,1680.00 2357.00,1681.00 2357.00,1681.00
             2357.00,1681.00 2358.00,1680.00 2358.00,1680.00
             2358.00,1680.00 2357.00,1680.00 2357.00,1680.00 Z
           M 1246.00,1720.00
           C 1246.00,1720.00 1246.00,1721.00 1246.00,1721.00
             1246.00,1721.00 1245.00,1720.00 1245.00,1720.00
             1245.00,1720.00 1246.00,1720.00 1246.00,1720.00 Z
           M 2349.00,1754.00
           C 2352.17,1757.44 2352.35,1758.92 2350.00,1763.00
             2350.00,1763.00 2349.00,1754.00 2349.00,1754.00 Z
           M 1314.00,1944.00
           C 1314.00,1944.00 1314.00,1945.00 1314.00,1945.00
             1314.00,1945.00 1313.00,1944.00 1313.00,1944.00
             1313.00,1944.00 1314.00,1944.00 1314.00,1944.00 Z" />
  <path id="profile"
        fill="none" stroke="black" stroke-width="1"
        d="M 1336.00,544.00
           C 1336.00,544.00 1337.00,547.00 1337.00,547.00
             1331.92,549.61 1325.39,559.06 1321.26,563.93
             1321.26,563.93 1307.58,577.29 1307.58,577.29
             1307.58,577.29 1297.62,590.56 1297.62,590.56
             1297.62,590.56 1291.61,596.29 1291.61,596.29
             1286.31,602.46 1270.05,626.51 1266.12,634.00
             1266.12,634.00 1253.96,661.00 1253.96,661.00
             1253.96,661.00 1247.14,674.00 1247.14,674.00
             1245.51,676.83 1243.06,679.13 1241.79,682.17
             1241.79,682.17 1238.73,695.00 1238.73,695.00
             1238.73,695.00 1228.37,716.00 1228.37,716.00
             1228.37,716.00 1223.93,728.00 1223.93,728.00
             1223.93,728.00 1221.82,736.00 1221.82,736.00
             1221.82,736.00 1209.52,765.00 1209.52,765.00
             1209.52,765.00 1206.01,772.00 1206.01,772.00
             1206.01,772.00 1200.12,794.00 1200.12,794.00
             1197.21,805.07 1193.14,820.59 1193.00,832.00
             1193.00,832.00 1189.48,865.00 1189.48,865.00
             1189.48,865.00 1184.49,880.00 1184.49,880.00
             1184.49,880.00 1179.83,897.00 1179.83,897.00
             1179.83,897.00 1168.95,927.00 1168.95,927.00
             1168.95,927.00 1167.75,934.00 1167.75,934.00
             1167.75,934.00 1164.72,951.00 1164.72,951.00
             1163.90,957.83 1164.12,976.74 1166.25,983.00
             1167.49,986.69 1168.25,990.49 1172.00,992.00
             1172.00,992.00 1169.76,1005.00 1169.76,1005.00
             1169.76,1005.00 1169.76,1011.00 1169.76,1011.00
             1169.76,1011.00 1168.00,1028.00 1168.00,1028.00
             1168.00,1028.00 1168.00,1048.00 1168.00,1048.00
             1168.00,1048.00 1168.74,1062.00 1168.74,1062.00
             1168.74,1062.00 1175.99,1109.00 1175.99,1109.00
             1175.99,1109.00 1171.64,1122.00 1171.64,1122.00
             1171.64,1122.00 1170.28,1149.00 1170.28,1149.00
             1170.28,1149.00 1166.64,1156.96 1166.64,1156.96
             1166.64,1156.96 1165.00,1168.00 1165.00,1168.00
             1159.43,1164.31 1150.19,1153.94 1146.00,1152.56
             1146.00,1152.56 1130.00,1151.00 1130.00,1151.00
             1125.81,1150.95 1119.97,1150.80 1116.04,1152.14
             1113.31,1153.07 1112.88,1153.90 1110.72,1155.08
             1110.72,1155.08 1105.28,1157.73 1105.28,1157.73
             1101.19,1160.71 1095.12,1169.21 1093.21,1174.00
             1093.21,1174.00 1091.32,1180.91 1091.32,1180.91
             1091.32,1180.91 1088.69,1186.17 1088.69,1186.17
             1087.72,1188.92 1087.01,1199.70 1087.00,1203.00
             1087.00,1203.00 1088.00,1227.00 1088.00,1227.00
             1088.13,1239.84 1089.58,1239.60 1091.63,1251.00
             1091.63,1251.00 1092.37,1261.00 1092.37,1261.00
             1092.37,1261.00 1096.75,1281.00 1096.75,1281.00
             1096.75,1281.00 1098.46,1293.00 1098.46,1293.00
             1098.37,1296.19 1097.35,1296.82 1097.81,1301.00
             1098.61,1308.18 1102.17,1309.03 1102.10,1317.17
             1102.10,1317.17 1105.79,1351.00 1105.79,1351.00
             1107.39,1363.14 1111.78,1372.82 1111.00,1385.00
             1115.88,1386.69 1116.14,1399.34 1116.72,1404.00
             1116.72,1404.00 1122.56,1430.00 1122.56,1430.00
             1122.56,1430.00 1128.23,1459.00 1128.23,1459.00
             1128.23,1459.00 1130.73,1475.00 1130.73,1475.00
             1131.91,1478.24 1134.08,1479.73 1135.47,1484.00
             1135.47,1484.00 1137.88,1496.00 1137.88,1496.00
             1137.88,1496.00 1143.30,1513.99 1143.30,1513.99
             1143.30,1513.99 1146.47,1521.17 1146.47,1521.17
             1146.47,1521.17 1147.90,1527.00 1147.90,1527.00
             1147.90,1527.00 1151.49,1537.00 1151.49,1537.00
             1153.89,1546.60 1151.94,1548.54 1152.86,1554.00
             1152.86,1554.00 1157.12,1572.00 1157.12,1572.00
             1157.12,1572.00 1162.31,1582.00 1162.31,1582.00
             1162.31,1582.00 1163.64,1587.96 1163.64,1587.96
             1163.64,1587.96 1173.34,1606.00 1173.34,1606.00
             1185.29,1621.97 1201.68,1634.07 1221.00,1639.41
             1221.00,1639.41 1243.00,1643.55 1243.00,1643.55
             1244.92,1643.82 1249.14,1643.39 1249.89,1645.48
             1250.41,1646.92 1248.51,1653.71 1248.32,1656.00
             1248.32,1656.00 1249.00,1673.00 1249.00,1673.00
             1249.00,1673.00 1248.00,1694.00 1248.00,1694.00
             1248.00,1694.00 1252.00,1693.00 1252.00,1693.00
             1254.20,1705.97 1247.51,1706.56 1249.00,1718.00
             1243.44,1720.06 1243.99,1722.58 1243.00,1728.00
             1243.00,1728.00 1247.00,1728.00 1247.00,1728.00
             1247.00,1728.00 1249.12,1738.00 1249.12,1738.00
             1249.12,1738.00 1248.00,1746.00 1248.00,1746.00
             1248.00,1746.00 1252.00,1744.00 1252.00,1744.00
             1252.00,1744.00 1250.01,1760.00 1250.01,1760.00
             1249.91,1765.57 1251.40,1768.01 1247.00,1772.00
             1247.00,1772.00 1247.00,1778.00 1247.00,1778.00
             1247.00,1778.00 1254.00,1772.00 1254.00,1772.00
             1254.00,1772.00 1261.05,1784.28 1261.05,1784.28
             1261.05,1784.28 1263.35,1791.00 1263.35,1791.00
             1263.35,1791.00 1267.58,1799.00 1267.58,1799.00
             1269.87,1803.06 1270.41,1806.39 1275.00,1808.00
             1274.23,1821.06 1276.63,1817.37 1277.24,1823.00
             1277.71,1827.33 1274.67,1830.27 1279.14,1834.00
             1279.14,1834.00 1279.14,1840.83 1279.14,1840.83
             1279.14,1840.83 1276.00,1857.00 1276.00,1857.00
             1281.49,1862.88 1278.91,1872.65 1281.00,1880.00
             1281.00,1880.00 1279.92,1881.54 1279.92,1881.54
             1279.92,1881.54 1281.19,1891.00 1281.19,1891.00
             1281.19,1891.00 1283.00,1892.00 1283.00,1892.00
             1283.00,1892.00 1282.00,1895.00 1282.00,1895.00
             1282.00,1895.00 1286.00,1895.00 1286.00,1895.00
             1286.00,1895.00 1282.00,1897.00 1282.00,1897.00
             1283.62,1902.35 1284.48,1914.08 1288.27,1917.34
             1290.15,1918.96 1298.14,1921.08 1301.00,1922.00
             1301.00,1922.00 1299.00,1913.00 1299.00,1913.00
             1307.64,1918.23 1303.51,1919.92 1302.00,1928.00
             1313.64,1929.60 1317.57,1936.97 1309.00,1946.00
             1309.00,1946.00 1314.00,1948.00 1314.00,1948.00
             1314.65,1951.81 1314.75,1951.92 1318.00,1954.00
             1318.00,1954.00 1316.00,1958.00 1316.00,1958.00
             1320.92,1959.26 1328.14,1960.31 1323.00,1967.00
             1323.00,1967.00 1327.80,1986.00 1327.80,1986.00
             1327.80,1986.00 1330.75,1993.00 1330.75,1993.00
             1330.75,1993.00 1336.00,2005.00 1336.00,2005.00
             1337.84,2001.05 1338.16,1998.38 1342.00,1996.00
             1343.13,2002.87 1356.29,2017.89 1358.47,2022.68
             1360.21,2026.49 1356.70,2026.15 1359.00,2032.00
             1359.00,2032.00 1355.00,2032.00 1355.00,2032.00
             1357.39,2036.66 1359.09,2036.95 1364.00,2038.00
             1364.00,2038.00 1363.00,2042.00 1363.00,2042.00
             1364.87,2043.26 1366.52,2044.15 1367.69,2046.21
             1369.44,2049.30 1368.62,2052.68 1368.71,2056.00
             1368.71,2056.00 1370.09,2071.00 1370.09,2071.00
             1370.09,2071.00 1372.00,2090.00 1372.00,2090.00
             1372.00,2090.00 1373.00,2120.00 1373.00,2120.00
             1373.02,2133.63 1377.88,2150.53 1366.00,2161.00
             1365.91,2170.21 1352.46,2168.89 1349.01,2169.58
             1347.47,2169.89 1333.82,2178.39 1332.54,2179.67
             1331.25,2180.96 1331.49,2181.17 1331.00,2182.00
             1331.00,2182.00 1328.00,2181.00 1328.00,2181.00
             1326.58,2185.38 1316.16,2186.69 1311.58,2190.02
             1311.58,2190.02 1299.83,2197.93 1299.83,2197.93
             1299.83,2197.93 1290.09,2203.26 1290.09,2203.26
             1286.48,2205.54 1285.87,2207.67 1281.57,2209.45
             1281.57,2209.45 1266.00,2212.93 1266.00,2212.93
             1261.18,2214.27 1259.85,2215.87 1256.00,2217.39
             1256.00,2217.39 1245.00,2220.68 1245.00,2220.68
             1245.00,2220.68 1231.00,2227.05 1231.00,2227.05
             1231.00,2227.05 1224.00,2229.53 1224.00,2229.53
             1224.00,2229.53 1216.00,2233.78 1216.00,2233.78
             1216.00,2233.78 1207.00,2236.21 1207.00,2236.21
             1207.00,2236.21 1196.00,2240.83 1196.00,2240.83
             1196.00,2240.83 1182.00,2248.29 1182.00,2248.29
             1182.00,2248.29 1170.17,2252.46 1170.17,2252.46
             1170.17,2252.46 1158.00,2258.70 1158.00,2258.70
             1158.00,2258.70 1147.00,2263.03 1147.00,2263.03
             1147.00,2263.03 1114.00,2279.03 1114.00,2279.03
             1114.00,2279.03 1101.00,2286.83 1101.00,2286.83
             1101.00,2286.83 1083.01,2295.90 1083.01,2295.90
             1083.01,2295.90 1073.96,2302.86 1073.96,2302.86
             1073.96,2302.86 1063.00,2307.80 1063.00,2307.80
             1059.04,2309.93 1055.52,2312.93 1051.27,2314.52
             1048.21,2315.67 1045.85,2314.94 1042.18,2317.22
             1039.59,2318.84 1038.64,2320.86 1036.68,2322.27
             1033.59,2324.49 1031.29,2323.45 1028.28,2324.98
             1028.28,2324.98 1023.91,2328.06 1023.91,2328.06
             1023.91,2328.06 1014.00,2333.77 1014.00,2333.77
             1014.00,2333.77 1001.09,2337.99 1001.09,2337.99
             997.93,2339.37 997.10,2340.92 994.91,2342.00
             991.26,2343.79 987.00,2342.34 984.30,2343.60
             981.85,2344.74 979.08,2350.55 978.00,2353.00
             972.67,2353.41 966.13,2357.39 961.00,2359.51
             961.00,2359.51 947.21,2365.15 947.21,2365.15
             947.21,2365.15 942.63,2369.10 942.63,2369.10
             942.63,2369.10 937.28,2371.91 937.28,2371.91
             937.28,2371.91 930.99,2376.29 930.99,2376.29
             930.99,2376.29 921.30,2381.59 921.30,2381.59
             911.16,2388.81 913.01,2396.78 904.00,2397.00
             895.72,2404.53 892.32,2405.70 883.09,2410.82
             883.09,2410.82 875.98,2415.46 875.98,2415.46
             875.98,2415.46 865.00,2420.11 865.00,2420.11
             865.00,2420.11 853.00,2426.53 853.00,2426.53
             853.00,2426.53 846.00,2431.10 846.00,2431.10
             846.00,2431.10 837.00,2435.77 837.00,2435.77
             837.00,2435.77 827.17,2439.59 827.17,2439.59
             822.26,2441.86 823.39,2442.78 817.00,2444.00
             817.00,2444.00 809.58,2449.56 809.58,2449.56
             809.58,2449.56 803.00,2454.95 803.00,2454.95
             803.00,2454.95 791.09,2459.63 791.09,2459.63
             791.09,2459.63 783.96,2464.16 783.96,2464.16
             783.96,2464.16 777.01,2466.48 777.01,2466.48
             777.01,2466.48 768.91,2472.30 768.91,2472.30
             768.91,2472.30 763.09,2475.12 763.09,2475.12
             763.09,2475.12 756.91,2479.76 756.91,2479.76
             756.91,2479.76 738.26,2490.96 738.26,2490.96
             738.26,2490.96 732.87,2496.29 732.87,2496.29
             732.87,2496.29 708.00,2511.00 708.00,2511.00
             708.00,2511.00 710.00,2513.00 710.00,2513.00
             710.00,2513.00 678.17,2531.03 678.17,2531.03
             678.17,2531.03 672.91,2535.16 672.91,2535.16
             672.91,2535.16 663.05,2539.57 663.05,2539.57
             663.05,2539.57 656.74,2546.11 656.74,2546.11
             656.74,2546.11 643.07,2554.52 643.07,2554.52
             643.07,2554.52 634.99,2560.82 634.99,2560.82
             634.99,2560.82 629.37,2563.21 629.37,2563.21
             629.37,2563.21 622.96,2569.37 622.96,2569.37
             622.96,2569.37 612.00,2576.58 612.00,2576.58
             612.00,2576.58 591.00,2592.51 591.00,2592.51
             591.00,2592.51 578.00,2601.20 578.00,2601.20
             578.00,2601.20 571.43,2604.60 571.43,2604.60
             571.43,2604.60 560.91,2613.50 560.91,2613.50
             560.91,2613.50 550.00,2619.45 550.00,2619.45
             550.00,2619.45 534.00,2629.54 534.00,2629.54
             534.00,2629.54 526.30,2633.76 526.30,2633.76
             526.30,2633.76 505.00,2653.00 505.00,2653.00
             505.00,2653.00 506.00,2655.00 506.00,2655.00
             499.52,2658.70 492.36,2667.64 486.96,2672.91
             486.96,2672.91 459.42,2700.26 459.42,2700.26
             459.42,2700.26 453.41,2707.67 453.41,2707.67
             453.41,2707.67 447.69,2712.61 447.69,2712.61
             447.69,2712.61 439.60,2725.40 439.60,2725.40
             439.60,2725.40 433.79,2731.28 433.79,2731.28
             433.79,2731.28 424.75,2743.52 424.75,2743.52
             419.49,2748.95 412.46,2753.62 410.00,2761.00
             405.46,2761.96 405.86,2764.12 402.82,2767.14
             402.82,2767.14 394.17,2775.07 394.17,2775.07
             394.17,2775.07 386.63,2784.03 386.63,2784.03
             386.63,2784.03 377.58,2793.32 377.58,2793.32
             377.58,2793.32 365.64,2807.58 365.64,2807.58
             365.64,2807.58 353.51,2819.45 353.51,2819.45
             353.51,2819.45 343.00,2829.68 343.00,2829.68
             343.00,2829.68 336.04,2834.61 336.04,2834.61
             328.28,2840.69 330.44,2845.68 323.00,2848.00
             321.93,2851.49 318.09,2856.24 314.87,2858.11
             312.03,2859.77 309.49,2858.61 307.78,2862.11
             306.30,2865.13 302.14,2877.96 302.46,2881.00
             303.01,2886.09 307.08,2892.12 305.33,2897.00
             305.33,2897.00 300.06,2906.09 300.06,2906.09
             300.06,2906.09 292.59,2923.96 292.59,2923.96
             292.59,2923.96 285.61,2934.00 285.61,2934.00
             285.61,2934.00 281.52,2947.00 281.52,2947.00
             279.13,2952.54 274.47,2955.98 275.00,2965.00
             269.34,2968.74 267.21,2975.86 264.68,2981.84
             264.68,2981.84 261.02,2989.01 261.02,2989.01
             258.95,2993.94 255.98,3004.63 255.00,3010.00
             255.00,3010.00 253.00,3009.00 253.00,3009.00
             253.00,3009.00 248.07,3019.99 248.07,3019.99
             248.07,3019.99 246.67,3024.58 246.67,3024.58
             246.67,3024.58 243.22,3031.00 243.22,3031.00
             243.22,3031.00 238.16,3046.72 238.16,3046.72
             238.16,3046.72 231.61,3057.00 231.61,3057.00
             231.61,3057.00 228.20,3068.00 228.20,3068.00
             228.20,3068.00 223.00,3084.00 223.00,3084.00
             223.00,3084.00 222.00,3083.00 222.00,3083.00
             222.00,3083.00 220.00,3084.00 220.00,3084.00
             219.18,3087.81 216.69,3091.39 215.19,3095.04
             215.19,3095.04 211.71,3106.00 211.71,3106.00
             211.71,3106.00 207.80,3114.17 207.80,3114.17
             207.80,3114.17 205.88,3121.00 205.88,3121.00
             205.88,3121.00 198.09,3139.00 198.09,3139.00
             198.09,3139.00 195.00,3148.91 195.00,3148.91
             195.00,3148.91 188.45,3163.00 188.45,3163.00
             188.45,3163.00 184.10,3174.00 184.10,3174.00
             184.10,3174.00 180.52,3181.00 180.52,3181.00
             180.52,3181.00 174.63,3196.00 174.63,3196.00
             171.43,3202.94 168.19,3208.21 168.00,3216.00
             168.00,3216.00 165.00,3215.00 165.00,3215.00
             165.00,3215.00 161.36,3227.96 161.36,3227.96
             161.36,3227.96 153.40,3243.00 153.40,3243.00
             152.11,3246.16 152.36,3249.30 150.24,3253.73
             150.24,3253.73 141.78,3268.00 141.78,3268.00
             141.78,3268.00 139.23,3277.72 139.23,3277.72
             137.35,3282.41 131.33,3288.96 129.98,3294.00
             129.98,3294.00 129.18,3300.00 129.18,3300.00
             128.34,3302.66 126.32,3304.54 125.16,3307.00
             123.70,3310.10 124.29,3312.15 123.28,3315.00
             123.28,3315.00 120.13,3321.00 120.13,3321.00
             118.70,3324.21 119.64,3327.68 116.00,3329.00
             115.29,3333.29 112.00,3342.00 109.00,3345.00
             108.98,3349.71 107.57,3351.15 105.00,3355.00
             105.00,3355.00 107.00,3358.00 107.00,3358.00
             107.00,3358.00 104.00,3357.00 104.00,3357.00
             104.00,3357.00 102.74,3365.42 102.74,3365.42
             102.74,3365.42 94.67,3385.78 94.67,3385.78
             94.67,3385.78 93.00,3388.00 93.00,3388.00
             93.00,3388.00 94.00,3391.00 94.00,3391.00
             94.00,3391.00 91.00,3392.00 91.00,3392.00
             91.00,3392.00 83.65,3410.00 83.65,3410.00
             83.65,3410.00 78.00,3430.00 78.00,3430.00
             78.00,3430.00 76.00,3429.00 76.00,3429.00
             71.58,3438.45 73.30,3439.94 71.56,3444.17
             71.56,3444.17 68.34,3450.00 68.34,3450.00
             68.34,3450.00 66.39,3457.00 66.39,3457.00
             66.39,3457.00 60.49,3470.00 60.49,3470.00
             60.49,3470.00 58.05,3479.00 58.05,3479.00
             58.05,3479.00 54.96,3484.96 54.96,3484.96
             54.96,3484.96 53.45,3489.42 53.45,3489.42
             53.45,3489.42 50.03,3495.00 50.03,3495.00
             48.59,3498.44 50.26,3501.05 47.24,3509.00
             47.24,3509.00 37.11,3533.00 37.11,3533.00
             37.11,3533.00 34.39,3541.91 34.39,3541.91
             34.39,3541.91 28.57,3553.00 28.57,3553.00
             28.57,3553.00 25.84,3561.42 25.84,3561.42
             25.84,3561.42 21.01,3571.25 21.01,3571.25
             21.01,3571.25 18.28,3582.71 18.28,3582.71
             16.29,3587.41 12.86,3589.39 11.81,3592.13
             9.39,3598.49 13.57,3596.54 7.33,3606.42
             4.10,3611.54 7.60,3614.05 4.00,3615.00
             4.00,3615.00 4.00,3621.00 4.00,3621.00
             4.00,3621.00 0.00,3624.00 0.00,3624.00
             0.00,3624.00 0.00,3632.00 0.00,3632.00
             0.00,3632.00 0.00,3650.00 0.00,3650.00
             0.00,3650.00 0.00,3712.00 0.00,3712.00
             0.00,3712.00 0.00,3926.00 0.00,3926.00
             0.00,3926.00 0.00,4662.00 0.00,4662.00
             0.00,4662.00 3431.00,4662.00 3431.00,4662.00
             3431.00,4662.00 3431.00,3189.00 3431.00,3189.00
             3431.00,3189.00 3431.00,2839.00 3431.00,2839.00
             3431.00,2839.00 3431.00,2786.00 3431.00,2786.00
             3430.99,2783.02 3431.30,2779.78 3429.40,2777.26
             3426.25,2773.07 3417.70,2768.59 3416.72,2762.83
             3416.00,2758.61 3420.77,2754.07 3421.56,2746.00
             3422.67,2734.54 3417.24,2733.13 3410.48,2726.37
             3406.79,2722.69 3407.84,2720.97 3402.00,2718.00
             3402.00,2718.00 3403.00,2716.00 3403.00,2716.00
             3398.39,2713.76 3393.09,2713.03 3389.01,2710.24
             3389.01,2710.24 3374.08,2696.45 3374.08,2696.45
             3369.06,2692.03 3367.84,2686.83 3361.00,2687.00
             3358.83,2680.44 3348.32,2673.92 3343.61,2668.89
             3338.30,2663.23 3338.90,2658.80 3331.00,2655.00
             3331.00,2655.00 3333.00,2653.00 3333.00,2653.00
             3330.96,2651.49 3328.04,2649.65 3326.43,2647.79
             3322.97,2643.83 3324.95,2641.89 3318.99,2640.00
             3319.17,2638.36 3319.46,2637.74 3318.99,2636.00
             3317.93,2632.18 3306.76,2620.66 3303.68,2616.00
             3303.68,2616.00 3300.32,2610.45 3300.32,2610.45
             3300.32,2610.45 3296.09,2605.87 3296.09,2605.87
             3282.71,2587.38 3281.33,2587.67 3265.88,2572.53
             3265.88,2572.53 3256.47,2561.97 3256.47,2561.97
             3256.47,2561.97 3250.45,2557.47 3250.45,2557.47
             3250.45,2557.47 3246.74,2553.60 3246.74,2553.60
             3246.74,2553.60 3241.30,2549.56 3241.30,2549.56
             3241.30,2549.56 3227.00,2537.90 3227.00,2537.90
             3224.03,2535.81 3219.17,2533.56 3218.00,2530.00
             3209.58,2527.91 3210.34,2524.27 3203.95,2519.95
             3203.95,2519.95 3193.04,2513.87 3193.04,2513.87
             3193.04,2513.87 3185.91,2507.49 3185.91,2507.49
             3185.91,2507.49 3178.00,2503.31 3178.00,2503.31
             3178.00,2503.31 3165.91,2494.33 3165.91,2494.33
             3165.91,2494.33 3155.09,2489.18 3155.09,2489.18
             3155.09,2489.18 3134.91,2474.80 3134.91,2474.80
             3134.91,2474.80 3119.00,2466.19 3119.00,2466.19
             3119.00,2466.19 3109.00,2458.67 3109.00,2458.67
             3109.00,2458.67 3091.09,2447.77 3091.09,2447.77
             3091.09,2447.77 3077.83,2437.96 3077.83,2437.96
             3077.83,2437.96 3060.00,2427.12 3060.00,2427.12
             3060.00,2427.12 3039.00,2410.51 3039.00,2410.51
             3039.00,2410.51 3025.01,2400.69 3025.01,2400.69
             3025.01,2400.69 3017.83,2394.90 3017.83,2394.90
             3009.68,2389.00 2990.04,2381.95 2980.00,2378.75
             2980.00,2378.75 2971.00,2376.34 2971.00,2376.34
             2966.72,2374.70 2964.88,2371.83 2960.91,2370.32
             2960.91,2370.32 2945.00,2365.10 2945.00,2365.10
             2945.00,2365.10 2922.17,2351.26 2922.17,2351.26
             2922.17,2351.26 2916.91,2346.69 2916.91,2346.69
             2916.91,2346.69 2907.00,2341.46 2907.00,2341.46
             2907.00,2341.46 2879.58,2324.73 2879.58,2324.73
             2879.58,2324.73 2854.00,2315.29 2854.00,2315.29
             2854.00,2315.29 2841.00,2310.09 2841.00,2310.09
             2841.00,2310.09 2833.00,2308.24 2833.00,2308.24
             2833.00,2308.24 2824.00,2304.95 2824.00,2304.95
             2824.00,2304.95 2818.00,2303.32 2818.00,2303.32
             2818.00,2303.32 2809.00,2299.46 2809.00,2299.46
             2809.00,2299.46 2800.00,2297.69 2800.00,2297.69
             2800.00,2297.69 2777.00,2288.76 2777.00,2288.76
             2777.00,2288.76 2771.00,2287.40 2771.00,2287.40
             2771.00,2287.40 2763.00,2284.59 2763.00,2284.59
             2763.00,2284.59 2750.00,2282.00 2750.00,2282.00
             2750.00,2282.00 2749.00,2286.00 2749.00,2286.00
             2742.42,2276.16 2733.97,2268.82 2723.00,2264.00
             2723.00,2264.00 2707.00,2257.50 2707.00,2257.50
             2703.55,2255.80 2691.76,2249.78 2689.59,2247.37
             2688.41,2246.06 2688.49,2245.50 2688.00,2244.06
             2688.00,2244.06 2679.58,2244.06 2679.58,2244.06
             2679.58,2244.06 2655.00,2237.45 2655.00,2237.45
             2655.00,2237.45 2639.00,2235.59 2639.00,2235.59
             2634.87,2234.51 2629.97,2231.21 2626.00,2229.26
             2626.00,2229.26 2616.00,2224.67 2616.00,2224.67
             2616.00,2224.67 2610.00,2222.87 2610.00,2222.87
             2610.00,2222.87 2603.00,2218.95 2603.00,2218.95
             2603.00,2218.95 2579.00,2208.60 2579.00,2208.60
             2579.00,2208.60 2572.00,2204.79 2572.00,2204.79
             2572.00,2204.79 2564.04,2201.74 2564.04,2201.74
             2564.04,2201.74 2557.83,2197.41 2557.83,2197.41
             2557.83,2197.41 2549.01,2193.68 2549.01,2193.68
             2549.01,2193.68 2542.72,2189.90 2542.72,2189.90
             2542.72,2189.90 2536.00,2187.53 2536.00,2187.53
             2536.00,2187.53 2526.00,2181.95 2526.00,2181.95
             2521.05,2179.17 2517.86,2179.06 2514.00,2177.24
             2514.00,2177.24 2508.00,2173.59 2508.00,2173.59
             2503.68,2171.00 2499.69,2169.78 2495.00,2168.16
             2492.12,2167.17 2483.10,2164.48 2482.00,2162.00
             2482.00,2162.00 2468.00,2159.00 2468.00,2159.00
             2468.00,2159.00 2471.00,2158.00 2471.00,2158.00
             2467.92,2156.98 2464.14,2157.62 2463.00,2154.00
             2459.48,2153.68 2449.16,2150.35 2446.00,2148.85
             2446.00,2148.85 2440.00,2145.58 2440.00,2145.58
             2437.67,2144.76 2435.10,2145.18 2429.04,2142.79
             2429.04,2142.79 2412.00,2135.44 2412.00,2135.44
             2412.00,2135.44 2394.00,2131.66 2394.00,2131.66
             2383.95,2127.99 2382.52,2123.22 2368.00,2122.00
             2366.54,2117.84 2364.64,2117.68 2361.00,2115.55
             2355.95,2112.60 2350.57,2110.20 2345.00,2108.36
             2345.00,2108.36 2338.00,2106.20 2338.00,2106.20
             2338.00,2106.20 2328.00,2100.53 2328.00,2100.53
             2328.00,2100.53 2319.00,2097.35 2319.00,2097.35
             2319.00,2097.35 2310.00,2092.13 2310.00,2092.13
             2310.00,2092.13 2298.00,2089.19 2298.00,2089.19
             2298.00,2089.19 2282.17,2080.24 2282.17,2080.24
             2282.17,2080.24 2275.96,2075.41 2275.96,2075.41
             2271.23,2072.29 2267.45,2072.81 2264.30,2069.70
             2259.06,2064.53 2260.52,2059.12 2260.73,2053.00
             2260.73,2053.00 2260.17,2045.28 2260.17,2045.28
             2260.17,2045.28 2261.48,2040.00 2261.48,2040.00
             2262.10,2036.49 2263.54,2024.85 2263.00,2022.00
             2263.00,2022.00 2267.00,2022.00 2267.00,2022.00
             2266.26,2018.91 2265.42,2018.11 2268.00,2016.00
             2268.00,2016.00 2267.00,2019.00 2267.00,2019.00
             2274.22,2017.04 2272.82,2013.56 2266.00,2013.00
             2266.00,2013.00 2272.00,2006.00 2272.00,2006.00
             2272.00,2006.00 2272.00,2011.00 2272.00,2011.00
             2272.00,2011.00 2279.90,2000.03 2279.90,2000.03
             2279.90,2000.03 2290.00,1989.00 2290.00,1989.00
             2288.27,1983.86 2287.63,1980.99 2293.00,1978.00
             2293.00,1978.00 2293.00,1985.00 2293.00,1985.00
             2293.00,1985.00 2298.00,1978.00 2298.00,1978.00
             2298.00,1978.00 2296.00,1978.00 2296.00,1978.00
             2296.00,1978.00 2296.00,1976.00 2296.00,1976.00
             2296.00,1976.00 2300.00,1976.00 2300.00,1976.00
             2303.65,1969.65 2309.32,1960.24 2310.16,1953.00
             2311.86,1938.49 2304.58,1926.56 2304.00,1914.00
             2304.00,1914.00 2301.00,1915.00 2301.00,1915.00
             2303.60,1910.08 2303.57,1904.23 2308.11,1900.42
             2313.19,1896.14 2320.96,1898.01 2322.14,1890.98
             2322.94,1886.24 2318.96,1883.70 2318.00,1880.00
             2318.00,1880.00 2315.00,1881.00 2315.00,1881.00
             2316.68,1870.86 2323.91,1877.14 2330.00,1867.00
             2336.13,1868.03 2336.88,1864.43 2334.40,1861.41
             2332.61,1859.25 2329.58,1858.61 2327.00,1858.00
             2329.80,1853.46 2331.99,1855.85 2336.00,1858.00
             2336.00,1858.00 2334.00,1855.00 2334.00,1855.00
             2334.00,1855.00 2343.00,1856.00 2343.00,1856.00
             2343.00,1856.00 2337.49,1846.00 2337.49,1846.00
             2337.49,1846.00 2342.64,1829.00 2342.64,1829.00
             2342.64,1829.00 2341.42,1822.00 2341.42,1822.00
             2341.42,1822.00 2342.31,1815.00 2342.31,1815.00
             2342.31,1815.00 2341.00,1799.00 2341.00,1799.00
             2341.00,1799.00 2344.00,1783.00 2344.00,1783.00
             2344.00,1783.00 2346.00,1783.00 2346.00,1783.00
             2347.30,1788.15 2347.13,1791.86 2352.00,1795.00
             2352.00,1795.00 2352.00,1791.00 2352.00,1791.00
             2352.00,1791.00 2355.00,1791.00 2355.00,1791.00
             2354.58,1773.90 2351.39,1779.18 2350.00,1769.00
             2350.00,1769.00 2354.00,1770.00 2354.00,1770.00
             2354.00,1770.00 2350.00,1768.00 2350.00,1768.00
             2350.00,1768.00 2351.00,1764.00 2351.00,1764.00
             2355.79,1767.24 2356.19,1767.80 2362.00,1768.00
             2355.81,1759.56 2358.29,1760.01 2354.22,1753.00
             2350.16,1746.02 2346.51,1744.70 2346.00,1736.00
             2346.00,1736.00 2353.00,1740.00 2353.00,1740.00
             2352.28,1731.55 2348.69,1726.11 2343.00,1720.00
             2343.00,1720.00 2347.00,1716.00 2347.00,1716.00
             2347.00,1716.00 2342.00,1717.00 2342.00,1717.00
             2342.00,1717.00 2347.00,1710.00 2347.00,1710.00
             2347.00,1710.00 2343.00,1712.00 2343.00,1712.00
             2343.00,1712.00 2343.00,1707.00 2343.00,1707.00
             2343.00,1707.00 2350.00,1708.00 2350.00,1708.00
             2349.56,1704.42 2347.43,1701.31 2351.00,1700.00
             2351.00,1700.00 2344.00,1687.00 2344.00,1687.00
             2344.00,1687.00 2347.00,1686.00 2347.00,1686.00
             2347.00,1686.00 2347.00,1688.00 2347.00,1688.00
             2347.00,1688.00 2353.00,1689.00 2353.00,1689.00
             2353.00,1689.00 2349.00,1672.00 2349.00,1672.00
             2354.78,1671.51 2354.82,1673.93 2355.00,1679.00
             2355.00,1679.00 2357.00,1679.00 2357.00,1679.00
             2357.00,1679.00 2354.14,1667.58 2354.14,1667.58
             2354.14,1667.58 2358.00,1657.00 2358.00,1657.00
             2358.00,1657.00 2350.91,1650.87 2350.91,1650.87
             2350.91,1650.87 2350.91,1642.00 2350.91,1642.00
             2350.91,1642.00 2348.00,1634.00 2348.00,1634.00
             2352.18,1635.19 2358.58,1635.37 2363.00,1635.26
             2369.88,1635.09 2374.92,1635.76 2382.00,1634.16
             2407.73,1628.37 2431.63,1608.93 2444.28,1586.17
             2444.28,1586.17 2449.06,1576.00 2449.06,1576.00
             2452.49,1568.15 2455.94,1564.79 2455.00,1555.00
             2460.42,1551.08 2457.67,1545.31 2465.25,1535.00
             2468.12,1531.10 2472.94,1524.79 2475.17,1520.58
             2475.17,1520.58 2480.50,1507.09 2480.50,1507.09
             2480.50,1507.09 2485.20,1496.00 2485.20,1496.00
             2485.20,1496.00 2486.74,1488.00 2486.74,1488.00
             2486.74,1488.00 2490.65,1474.00 2490.65,1474.00
             2490.65,1474.00 2493.93,1456.00 2493.93,1456.00
             2493.93,1456.00 2495.79,1448.00 2495.79,1448.00
             2495.79,1448.00 2496.80,1439.00 2496.80,1439.00
             2496.80,1439.00 2499.41,1426.17 2499.41,1426.17
             2499.41,1426.17 2502.08,1406.00 2502.08,1406.00
             2502.08,1406.00 2502.08,1395.00 2502.08,1395.00
             2502.08,1395.00 2506.48,1380.00 2506.48,1380.00
             2506.48,1380.00 2507.46,1372.00 2507.46,1372.00
             2507.46,1372.00 2511.41,1358.00 2511.41,1358.00
             2511.41,1358.00 2513.17,1349.01 2513.17,1349.01
             2513.17,1349.01 2517.33,1338.99 2517.33,1338.99
             2517.33,1338.99 2525.32,1293.00 2525.32,1293.00
             2525.32,1293.00 2530.00,1257.00 2530.00,1257.00
             2530.00,1257.00 2530.00,1247.00 2530.00,1247.00
             2530.00,1247.00 2528.95,1235.00 2528.95,1235.00
             2528.36,1225.39 2528.14,1215.55 2528.95,1206.00
             2529.57,1195.38 2524.34,1192.91 2523.73,1188.00
             2523.73,1188.00 2523.73,1184.00 2523.73,1184.00
             2523.24,1177.46 2518.30,1171.97 2514.18,1167.29
             2509.33,1161.78 2514.34,1163.29 2504.04,1156.70
             2504.04,1156.70 2498.72,1153.23 2498.72,1153.23
             2498.72,1153.23 2478.00,1149.84 2478.00,1149.84
             2475.01,1149.42 2470.34,1151.04 2467.00,1151.58
             2461.21,1152.50 2452.08,1154.13 2447.00,1156.93
             2439.80,1160.90 2441.11,1162.13 2436.90,1165.46
             2436.90,1165.46 2422.29,1176.69 2422.29,1176.69
             2416.36,1181.40 2411.58,1187.14 2405.00,1191.00
             2403.96,1185.20 2403.58,1183.86 2405.00,1178.00
             2407.06,1178.16 2409.12,1178.54 2409.58,1175.77
             2409.58,1175.77 2406.13,1160.00 2406.13,1160.00
             2405.80,1155.90 2408.75,1153.92 2408.99,1145.00
             2409.27,1134.24 2410.33,1136.72 2411.22,1129.72
             2411.22,1129.72 2411.22,1123.00 2411.22,1123.00
             2411.22,1123.00 2412.98,1101.01 2412.98,1101.01
             2412.98,1101.01 2412.25,1090.99 2412.25,1090.99
             2412.25,1090.99 2413.49,1079.00 2413.49,1079.00
             2412.47,1062.87 2413.49,1052.71 2414.25,1037.00
             2414.25,1037.00 2414.25,1027.00 2414.25,1027.00
             2414.25,1027.00 2413.74,999.58 2413.74,999.58
             2413.74,999.58 2412.17,985.00 2412.17,985.00
             2412.17,985.00 2408.28,948.00 2408.28,948.00
             2408.28,948.00 2407.67,940.00 2407.67,940.00
             2407.67,940.00 2405.21,931.00 2405.21,931.00
             2405.21,931.00 2403.38,914.00 2403.38,914.00
             2403.38,914.00 2400.46,902.00 2400.46,902.00
             2400.46,902.00 2399.47,893.00 2399.47,893.00
             2399.47,893.00 2397.19,885.00 2397.19,885.00
             2397.19,885.00 2393.29,861.00 2393.29,861.00
             2393.29,861.00 2392.78,851.04 2392.78,851.04
             2391.97,846.28 2390.37,848.55 2388.43,835.00
             2388.43,835.00 2386.62,817.00 2386.62,817.00
             2386.62,817.00 2380.59,798.00 2380.59,798.00
             2380.59,798.00 2378.48,789.00 2378.48,789.00
             2378.48,789.00 2375.75,782.00 2375.75,782.00
             2375.75,782.00 2371.34,763.00 2371.34,763.00
             2369.40,757.89 2366.04,755.49 2364.26,751.91
             2364.26,751.91 2359.32,736.00 2359.32,736.00
             2357.79,731.83 2355.01,729.62 2353.30,726.00
             2353.30,726.00 2350.44,717.00 2350.44,717.00
             2350.44,717.00 2345.99,710.00 2345.99,710.00
             2345.99,710.00 2341.60,700.91 2341.60,700.91
             2339.98,697.01 2339.13,692.73 2336.79,689.13
             2334.91,686.24 2333.31,685.90 2331.50,683.74
             2331.50,683.74 2326.12,674.17 2326.12,674.17
             2326.12,674.17 2315.03,659.83 2315.03,659.83
             2315.03,659.83 2309.21,646.00 2309.21,646.00
             2309.21,646.00 2298.90,627.00 2298.90,627.00
             2298.90,627.00 2295.50,618.00 2295.50,618.00
             2295.50,618.00 2288.59,604.91 2288.59,604.91
             2288.59,604.91 2285.04,595.11 2285.04,595.11
             2286.15,597.34 2275.37,580.11 2277.31,582.45
             2275.92,580.77 2274.19,579.98 2273.02,577.87
             2271.80,575.68 2272.28,573.68 2271.05,571.59
             2270.11,570.01 2268.29,569.05 2265.90,565.00
             2265.90,565.00 2254.55,544.42 2254.55,544.42
             2254.55,544.42 2246.77,534.91 2246.77,534.91
             2246.77,534.91 2239.96,525.08 2239.96,525.08
             2239.96,525.08 2233.80,518.41 2233.80,518.41
             2233.80,518.41 2230.20,513.54 2230.20,513.54
             2230.20,513.54 2210.33,498.31 2210.33,498.31
             2210.33,498.31 2204.90,492.29 2204.90,492.29
             2204.90,492.29 2198.29,487.72 2198.29,487.72
             2198.29,487.72 2193.25,482.82 2193.25,482.82
             2193.25,482.82 2178.33,471.24 2178.33,471.24
             2178.33,471.24 2172.90,466.24 2172.90,466.24
             2172.90,466.24 2167.17,462.60 2167.17,462.60
             2167.17,462.60 2135.72,439.93 2135.72,439.93
             2135.72,439.93 2126.17,433.90 2126.17,433.90
             2126.17,433.90 2120.91,429.58 2120.91,429.58
             2117.78,427.56 2115.86,428.35 2112.04,426.28
             2112.04,426.28 2103.96,420.50 2103.96,420.50
             2103.96,420.50 2090.99,413.59 2090.99,413.59
             2090.99,413.59 2084.00,408.94 2084.00,408.94
             2084.00,408.94 2076.00,405.38 2076.00,405.38
             2076.00,405.38 2065.17,399.18 2065.17,399.18
             2065.17,399.18 2053.00,390.58 2053.00,390.58
             2049.73,388.59 2047.45,388.97 2044.00,387.66
             2044.00,387.66 2035.04,383.55 2035.04,383.55
             2035.04,383.55 2026.96,377.94 2026.96,377.94
             2022.71,375.44 2021.55,376.56 2018.28,375.09
             2018.28,375.09 2012.96,372.26 2012.96,372.26
             2012.96,372.26 1984.00,367.09 1984.00,367.09
             1984.00,367.09 1972.00,366.39 1972.00,366.39
             1972.00,366.39 1965.00,364.26 1965.00,364.26
             1965.00,364.26 1946.00,360.08 1946.00,360.08
             1946.00,360.08 1937.00,356.79 1937.00,356.79
             1937.00,356.79 1930.00,355.45 1930.00,355.45
             1924.13,353.92 1922.43,351.68 1917.83,349.04
             1917.83,349.04 1905.00,343.57 1905.00,343.57
             1905.00,343.57 1895.83,337.73 1895.83,337.73
             1895.83,337.73 1889.00,336.03 1889.00,336.03
             1889.00,336.03 1882.00,332.81 1882.00,332.81
             1879.14,331.78 1862.21,328.48 1859.00,328.31
             1859.00,328.31 1844.00,329.49 1844.00,329.49
             1844.00,329.49 1821.00,327.00 1821.00,327.00
             1821.00,327.00 1800.00,326.30 1800.00,326.30
             1800.00,326.30 1782.00,326.30 1782.00,326.30
             1782.00,326.30 1773.00,326.30 1773.00,326.30
             1773.00,326.30 1758.00,328.70 1758.00,328.70
             1752.79,329.13 1751.68,327.20 1747.00,327.09
             1747.00,327.09 1738.00,327.68 1738.00,327.68
             1738.00,327.68 1720.00,327.00 1720.00,327.00
             1720.00,327.00 1704.00,328.00 1704.00,328.00
             1704.00,328.00 1692.00,327.36 1692.00,327.36
             1692.00,327.36 1667.00,333.12 1667.00,333.12
             1667.00,333.12 1661.00,335.46 1661.00,335.46
             1661.00,335.46 1652.00,336.63 1652.00,336.63
             1645.41,338.45 1635.86,343.18 1630.00,346.76
             1624.25,350.27 1619.98,355.34 1614.72,359.41
             1614.72,359.41 1606.21,365.04 1606.21,365.04
             1606.21,365.04 1601.63,369.65 1601.63,369.65
             1601.63,369.65 1591.00,376.93 1591.00,376.93
             1586.68,379.26 1583.98,378.59 1581.17,379.72
             1581.17,379.72 1569.00,386.75 1569.00,386.75
             1569.00,386.75 1551.00,392.35 1551.00,392.35
             1551.00,392.35 1506.00,414.31 1506.00,414.31
             1498.44,418.50 1498.62,420.46 1494.83,423.58
             1494.83,423.58 1489.37,426.90 1489.37,426.90
             1489.37,426.90 1483.90,431.80 1483.90,431.80
             1483.90,431.80 1475.09,436.70 1475.09,436.70
             1468.43,441.14 1465.95,445.40 1463.73,447.21
             1463.73,447.21 1458.00,450.92 1458.00,450.92
             1458.00,450.92 1435.63,466.19 1435.63,466.19
             1435.63,466.19 1429.74,471.37 1429.74,471.37
             1429.74,471.37 1422.28,476.78 1422.28,476.78
             1422.28,476.78 1409.91,487.63 1409.91,487.63
             1409.91,487.63 1404.00,491.49 1404.00,491.49
             1404.00,491.49 1391.00,501.62 1391.00,501.62
             1391.00,501.62 1385.21,505.13 1385.21,505.13
             1385.21,505.13 1378.99,511.12 1378.99,511.12
             1378.99,511.12 1371.31,516.59 1371.31,516.59
             1371.31,516.59 1364.06,522.87 1364.06,522.87
             1364.06,522.87 1357.79,529.22 1357.79,529.22
             1357.79,529.22 1349.01,535.95 1349.01,535.95
             1344.07,540.39 1342.88,543.44 1336.00,544.00 Z
           M 2353.00,1664.00
           C 2353.00,1664.00 2353.00,1665.00 2353.00,1665.00
             2353.00,1665.00 2352.00,1664.00 2352.00,1664.00
             2352.00,1664.00 2353.00,1664.00 2353.00,1664.00 Z
           M 2357.00,1680.00
           C 2357.00,1680.00 2357.00,1681.00 2357.00,1681.00
             2357.00,1681.00 2358.00,1680.00 2358.00,1680.00
             2358.00,1680.00 2357.00,1680.00 2357.00,1680.00 Z
           M 1246.00,1720.00
           C 1246.00,1720.00 1246.00,1721.00 1246.00,1721.00
             1246.00,1721.00 1245.00,1720.00 1245.00,1720.00
             1245.00,1720.00 1246.00,1720.00 1246.00,1720.00 Z
           M 2349.00,1754.00
           C 2352.17,1757.44 2352.35,1758.92 2350.00,1763.00
             2350.00,1763.00 2349.00,1754.00 2349.00,1754.00 Z
           M 1314.00,1944.00
           C 1314.00,1944.00 1314.00,1945.00 1314.00,1945.00
             1314.00,1945.00 1313.00,1944.00 1313.00,1944.00
             1313.00,1944.00 1314.00,1944.00 1314.00,1944.00 Z
           M 1104.00,2282.00
           C 1104.00,2282.00 1104.00,2283.00 1104.00,2283.00
             1104.00,2283.00 1105.00,2282.00 1105.00,2282.00
             1105.00,2282.00 1104.00,2282.00 1104.00,2282.00 Z
           M 222.00,3084.00
           C 222.00,3084.00 222.00,3085.00 222.00,3085.00
             222.00,3085.00 221.00,3084.00 221.00,3084.00
             221.00,3084.00 222.00,3084.00 222.00,3084.00 Z
           M 105.00,3360.00
           C 105.00,3360.00 105.00,3361.00 105.00,3361.00
             105.00,3361.00 104.00,3360.00 104.00,3360.00
             104.00,3360.00 105.00,3360.00 105.00,3360.00 Z
           M 33.00,3548.00
           C 33.00,3548.00 33.00,3549.00 33.00,3549.00
             33.00,3549.00 32.00,3548.00 32.00,3548.00
             32.00,3548.00 33.00,3548.00 33.00,3548.00 Z
           M 31.00,3552.00
           C 31.00,3552.00 31.00,3553.00 31.00,3553.00
             31.00,3553.00 30.00,3552.00 30.00,3552.00
             30.00,3552.00 31.00,3552.00 31.00,3552.00 Z
           M 30.00,3556.00
           C 30.00,3556.00 30.00,3557.00 30.00,3557.00
             30.00,3557.00 29.00,3556.00 29.00,3556.00
             29.00,3556.00 30.00,3556.00 30.00,3556.00 Z
           M 26.00,3566.00
           C 26.00,3566.00 26.00,3567.00 26.00,3567.00
             26.00,3567.00 25.00,3566.00 25.00,3566.00
             25.00,3566.00 26.00,3566.00 26.00,3566.00 Z
           M 656.00,4578.00
           C 651.77,4563.56 635.75,4563.89 636.23,4551.00
             636.48,4544.37 641.61,4545.21 643.74,4539.94
             644.76,4537.42 645.31,4532.48 648.25,4526.00
             650.79,4520.41 653.01,4519.20 654.71,4515.96
             654.71,4515.96 657.30,4509.01 657.30,4509.01
             657.30,4509.01 663.69,4497.00 663.69,4497.00
             663.69,4497.00 671.66,4477.00 671.66,4477.00
             671.66,4477.00 672.17,4469.00 672.17,4469.00
             672.17,4469.00 674.83,4451.09 674.83,4451.09
             674.83,4451.09 678.78,4437.01 678.78,4437.01
             678.78,4437.01 683.02,4428.91 683.02,4428.91
             683.02,4428.91 684.77,4422.00 684.77,4422.00
             684.77,4422.00 690.75,4405.00 690.75,4405.00
             690.75,4405.00 692.35,4399.04 692.35,4399.04
             694.19,4394.57 697.08,4394.28 699.02,4390.90
             701.19,4387.11 699.30,4384.72 702.21,4379.00
             704.62,4374.28 706.55,4373.16 708.08,4370.72
             708.08,4370.72 711.04,4364.28 711.04,4364.28
             717.32,4353.62 718.96,4354.10 719.00,4341.00
             725.78,4342.54 726.92,4348.11 728.99,4354.00
             729.68,4355.98 730.72,4357.93 731.03,4360.00
             731.72,4364.45 729.87,4370.65 728.89,4375.00
             728.89,4375.00 727.78,4381.83 727.78,4381.83
             726.46,4388.31 725.09,4391.93 724.90,4399.00
             724.90,4399.00 724.90,4409.00 724.90,4409.00
             724.90,4409.00 722.96,4420.00 722.96,4420.00
             722.96,4420.00 722.96,4430.00 722.96,4430.00
             722.96,4430.00 720.33,4439.00 720.33,4439.00
             720.33,4439.00 718.79,4461.00 718.79,4461.00
             718.79,4461.00 716.06,4471.00 716.06,4471.00
             716.06,4471.00 716.06,4483.00 716.06,4483.00
             716.06,4483.00 714.02,4491.00 714.02,4491.00
             714.02,4491.00 714.02,4501.83 714.02,4501.83
             714.02,4501.83 711.82,4523.00 711.82,4523.00
             711.82,4523.00 710.17,4531.00 710.17,4531.00
             708.84,4540.26 709.02,4542.92 709.00,4552.00
             708.98,4562.44 707.06,4559.74 707.00,4569.00
             707.00,4569.00 705.81,4596.04 705.81,4596.04
             705.89,4602.56 704.98,4608.06 697.00,4607.94
             694.51,4607.90 692.27,4607.38 690.17,4605.99
             688.09,4604.62 685.95,4602.02 684.00,4600.26
             677.89,4594.75 663.05,4580.02 656.00,4578.00 Z
           M 3083.00,4545.00
           C 3083.00,4545.00 3083.00,4506.00 3083.00,4506.00
             3083.00,4506.00 3081.88,4484.00 3081.88,4484.00
             3081.88,4484.00 3081.88,4466.00 3081.88,4466.00
             3081.59,4463.63 3081.23,4460.63 3083.50,4459.04
             3087.24,4456.41 3091.09,4462.13 3094.09,4464.21
             3097.69,4466.71 3109.04,4471.76 3110.77,4474.22
             3113.19,4477.65 3112.99,4482.02 3112.84,4486.00
             3112.84,4486.00 3112.84,4497.00 3112.84,4497.00
             3111.24,4505.60 3105.32,4519.37 3100.99,4527.00
             3097.37,4533.36 3091.01,4545.29 3083.00,4545.00 Z" />
</svg>
