<?xml version="1.0" encoding="UTF-8" standalone="no"?>
<!DOCTYPE svg PUBLIC "-//W3C//DTD SVG 20010904//EN"
              "http://www.w3.org/TR/2001/REC-SVG-20010904/DTD/svg10.dtd">

<svg xmlns="http://www.w3.org/2000/svg"
     width="12.04in" height="14.76in"
     viewBox="0 0 3612 4428">
  <path id="face"
        fill="none" stroke="black" stroke-width="1"
        d="M 1285.00,464.00
           C 1278.25,465.12 1276.59,470.03 1272.39,474.96
             1265.20,483.38 1268.35,479.93 1262.91,487.91
             1262.91,487.91 1257.22,495.04 1257.22,495.04
             1257.22,495.04 1253.80,500.99 1253.80,500.99
             1249.90,507.52 1247.87,505.66 1247.00,516.00
             1240.81,517.97 1241.93,521.59 1239.74,527.00
             1239.74,527.00 1233.28,539.00 1233.28,539.00
             1230.93,544.96 1233.29,546.97 1228.00,552.00
             1228.00,552.00 1220.49,579.09 1220.49,579.09
             1220.49,579.09 1218.82,597.00 1218.82,597.00
             1218.82,597.00 1217.32,604.00 1217.32,604.00
             1217.32,604.00 1215.79,626.00 1215.79,626.00
             1215.79,626.00 1214.74,641.00 1214.74,641.00
             1214.74,641.00 1213.19,661.00 1213.19,661.00
             1213.19,661.00 1214.96,677.00 1214.96,677.00
             1214.96,677.00 1213.00,697.00 1213.00,697.00
             1213.00,697.00 1211.00,745.00 1211.00,745.00
             1211.00,745.00 1209.90,760.00 1209.90,760.00
             1209.90,760.00 1209.90,832.00 1209.90,832.00
             1209.90,832.00 1209.90,850.00 1209.90,850.00
             1209.90,850.00 1206.00,876.00 1206.00,876.00
             1206.00,876.00 1205.00,899.00 1205.00,899.00
             1205.00,899.00 1205.00,929.00 1205.00,929.00
             1205.00,929.00 1208.00,953.00 1208.00,953.00
             1208.00,953.00 1206.00,957.00 1206.00,957.00
             1201.12,955.19 1198.61,954.17 1197.00,949.00
             1197.00,949.00 1194.00,949.00 1194.00,949.00
             1194.53,954.60 1195.71,957.32 1200.17,960.98
             1202.14,962.59 1206.45,965.03 1207.59,966.96
             1209.27,969.80 1207.66,978.23 1205.42,980.41
             1203.93,981.85 1201.01,982.30 1199.00,982.80
             1199.00,982.80 1189.00,982.80 1189.00,982.80
             1191.99,985.77 1193.96,987.15 1198.00,988.15
             1200.29,988.72 1205.07,988.93 1206.69,990.02
             1210.54,992.62 1209.10,999.52 1205.78,1001.92
             1203.24,1003.75 1201.45,1003.34 1197.00,1007.00
             1197.00,1007.00 1207.00,1011.00 1207.00,1011.00
             1202.93,1018.76 1206.66,1019.63 1201.92,1022.85
             1198.56,1025.14 1196.61,1024.32 1193.00,1024.45
             1186.56,1024.69 1180.33,1025.97 1174.00,1023.83
             1160.51,1019.27 1160.15,1014.94 1152.00,1022.00
             1152.20,1023.97 1152.24,1028.00 1153.08,1029.55
             1155.07,1033.19 1157.49,1031.59 1158.00,1039.00
             1163.83,1043.42 1166.87,1052.45 1170.00,1059.00
             1170.00,1059.00 1163.00,1061.00 1163.00,1061.00
             1165.41,1065.59 1166.13,1065.72 1165.00,1071.00
             1175.32,1080.68 1154.52,1078.81 1150.00,1078.00
             1150.00,1078.00 1147.00,1080.00 1147.00,1080.00
             1147.00,1080.00 1147.00,1088.00 1147.00,1088.00
             1143.46,1088.62 1143.20,1088.58 1142.00,1092.00
             1137.03,1087.96 1136.92,1088.54 1131.00,1090.00
             1131.00,1090.00 1128.00,1084.00 1128.00,1084.00
             1114.82,1087.35 1115.25,1077.00 1110.00,1073.00
             1110.00,1073.00 1111.58,1069.82 1111.58,1069.82
             1111.58,1069.82 1111.58,1054.45 1111.58,1054.45
             1111.58,1054.45 1109.15,1052.61 1109.15,1052.61
             1109.15,1052.61 1101.00,1053.95 1101.00,1053.95
             1101.00,1053.95 1092.00,1053.95 1092.00,1053.95
             1092.00,1053.95 1089.00,1035.00 1089.00,1035.00
             1089.00,1035.00 1089.00,1024.00 1089.00,1024.00
             1089.00,1024.00 1089.96,1013.00 1089.96,1013.00
             1089.96,1013.00 1089.96,984.00 1089.96,984.00
             1086.23,986.63 1085.24,990.13 1083.07,994.00
             1076.53,1005.64 1076.78,1009.29 1075.91,1022.00
             1075.91,1022.00 1075.00,1041.00 1075.00,1041.00
             1075.00,1041.00 1073.00,1040.00 1073.00,1040.00
             1072.94,1047.23 1070.47,1056.70 1076.85,1062.00
             1076.85,1062.00 1076.85,1066.00 1076.85,1066.00
             1076.85,1066.00 1082.86,1087.58 1082.86,1087.58
             1082.86,1087.58 1088.00,1097.00 1088.00,1097.00
             1093.52,1101.53 1097.06,1111.59 1105.00,1112.00
             1105.00,1112.00 1107.00,1118.00 1107.00,1118.00
             1107.00,1118.00 1114.00,1120.00 1114.00,1120.00
             1111.94,1125.18 1110.01,1130.00 1106.00,1134.00
             1106.00,1134.00 1104.09,1146.00 1104.09,1146.00
             1104.09,1146.00 1108.92,1163.00 1108.92,1163.00
             1108.92,1163.00 1113.07,1177.00 1113.07,1177.00
             1113.07,1177.00 1121.80,1192.00 1121.80,1192.00
             1121.80,1192.00 1126.60,1203.66 1126.60,1203.66
             1126.60,1203.66 1135.95,1210.29 1135.95,1210.29
             1135.95,1210.29 1144.84,1221.82 1144.84,1221.82
             1144.84,1221.82 1152.13,1229.09 1152.13,1229.09
             1152.13,1229.09 1155.26,1234.96 1155.26,1234.96
             1155.26,1234.96 1159.28,1240.28 1159.28,1240.28
             1159.28,1240.28 1164.49,1250.00 1164.49,1250.00
             1164.49,1250.00 1168.00,1258.00 1168.00,1258.00
             1168.00,1258.00 1169.00,1258.00 1169.00,1258.00
             1169.00,1258.00 1170.00,1256.00 1170.00,1256.00
             1170.00,1256.00 1172.00,1262.00 1172.00,1262.00
             1172.00,1262.00 1175.00,1262.00 1175.00,1262.00
             1175.00,1262.00 1174.00,1258.00 1174.00,1258.00
             1178.87,1266.88 1178.98,1284.77 1179.00,1295.00
             1179.00,1295.00 1180.55,1315.72 1180.55,1315.72
             1180.55,1315.72 1183.21,1322.01 1183.21,1322.01
             1183.21,1322.01 1185.43,1332.72 1185.43,1332.72
             1186.35,1335.41 1188.00,1337.03 1188.67,1341.00
             1189.30,1344.74 1188.11,1348.90 1188.17,1353.00
             1188.17,1353.00 1189.00,1368.00 1189.00,1368.00
             1189.00,1368.00 1188.00,1390.00 1188.00,1390.00
             1188.15,1402.19 1192.16,1400.00 1194.87,1407.04
             1194.87,1407.04 1198.87,1428.04 1198.87,1428.04
             1199.49,1433.18 1197.13,1438.88 1203.00,1441.00
             1201.81,1444.34 1200.66,1451.54 1201.25,1455.00
             1201.25,1455.00 1203.03,1461.00 1203.03,1461.00
             1203.03,1461.00 1203.03,1469.00 1203.03,1469.00
             1203.03,1469.00 1204.96,1476.00 1204.96,1476.00
             1204.96,1476.00 1204.96,1485.00 1204.96,1485.00
             1204.96,1485.00 1206.96,1492.00 1206.96,1492.00
             1206.96,1492.00 1206.96,1500.00 1206.96,1500.00
             1207.63,1504.29 1210.87,1514.06 1213.03,1517.71
             1216.17,1523.04 1219.67,1524.54 1225.00,1527.20
             1236.92,1533.14 1246.14,1532.69 1259.00,1531.15
             1259.00,1531.15 1271.00,1529.29 1271.00,1529.29
             1277.65,1527.41 1279.41,1524.43 1284.28,1520.68
             1284.28,1520.68 1289.79,1517.15 1289.79,1517.15
             1289.79,1517.15 1300.09,1507.07 1300.09,1507.07
             1302.98,1504.09 1304.33,1499.88 1308.02,1497.62
             1311.97,1495.19 1316.66,1497.99 1317.94,1502.09
             1318.24,1503.54 1318.05,1505.50 1317.94,1507.00
             1318.09,1509.98 1318.30,1511.13 1319.00,1514.00
             1313.76,1515.52 1318.86,1523.71 1320.28,1527.00
             1320.28,1527.00 1331.82,1554.00 1331.82,1554.00
             1333.09,1557.55 1335.34,1562.27 1334.07,1565.99
             1331.23,1574.32 1317.22,1576.63 1314.00,1589.00
             1314.00,1589.00 1311.00,1588.00 1311.00,1588.00
             1307.78,1592.10 1303.67,1596.28 1304.51,1602.00
             1304.51,1602.00 1305.73,1607.00 1305.73,1607.00
             1306.23,1610.73 1304.65,1614.36 1304.00,1618.00
             1304.00,1618.00 1326.00,1618.00 1326.00,1618.00
             1326.00,1618.00 1325.00,1621.00 1325.00,1621.00
             1333.22,1621.18 1339.05,1622.31 1342.87,1630.00
             1350.86,1631.64 1344.16,1637.27 1342.87,1642.39
             1341.39,1647.30 1345.40,1654.90 1352.00,1656.00
             1352.00,1656.00 1355.56,1671.00 1355.56,1671.00
             1356.40,1676.36 1354.79,1679.06 1360.00,1682.00
             1360.00,1682.00 1358.00,1687.00 1358.00,1687.00
             1361.63,1688.26 1360.68,1691.71 1361.37,1695.00
             1362.11,1698.48 1364.18,1702.78 1365.76,1706.00
             1365.76,1706.00 1385.22,1748.00 1385.22,1748.00
             1385.22,1748.00 1393.96,1766.00 1393.96,1766.00
             1393.96,1766.00 1420.83,1796.00 1420.83,1796.00
             1420.83,1796.00 1436.82,1814.00 1436.82,1814.00
             1436.82,1814.00 1442.27,1821.70 1442.27,1821.70
             1442.27,1821.70 1476.00,1848.42 1476.00,1848.42
             1476.00,1848.42 1517.00,1880.39 1517.00,1880.39
             1521.78,1883.45 1523.25,1882.45 1528.00,1883.78
             1528.00,1883.78 1545.00,1890.20 1545.00,1890.20
             1545.00,1890.20 1589.00,1907.40 1589.00,1907.40
             1597.20,1910.65 1608.40,1915.89 1617.00,1916.00
             1617.00,1916.00 1622.00,1916.00 1622.00,1916.00
             1630.47,1916.10 1635.12,1918.59 1643.00,1920.86
             1643.00,1920.86 1685.00,1933.72 1685.00,1933.72
             1692.78,1936.06 1701.96,1939.90 1710.00,1940.00
             1710.00,1940.00 1779.00,1940.00 1779.00,1940.00
             1779.00,1940.00 1796.00,1941.00 1796.00,1941.00
             1796.00,1941.00 1850.00,1941.00 1850.00,1941.00
             1850.00,1941.00 1866.00,1942.00 1866.00,1942.00
             1866.00,1942.00 1889.00,1943.00 1889.00,1943.00
             1889.00,1943.00 1901.00,1944.00 1901.00,1944.00
             1901.00,1944.00 1913.00,1944.00 1913.00,1944.00
             1913.00,1944.00 1923.00,1945.00 1923.00,1945.00
             1923.00,1945.00 1945.00,1945.74 1945.00,1945.74
             1953.70,1944.32 1961.83,1940.53 1970.00,1937.42
             1970.00,1937.42 2013.00,1920.40 2013.00,1920.40
             2013.00,1920.40 2031.00,1913.61 2031.00,1913.61
             2039.48,1911.46 2035.82,1914.77 2050.00,1909.46
             2050.00,1909.46 2056.00,1907.49 2056.00,1907.49
             2058.36,1906.45 2065.26,1900.85 2068.00,1898.85
             2068.00,1898.85 2095.00,1878.88 2095.00,1878.88
             2095.00,1878.88 2121.00,1859.87 2121.00,1859.87
             2124.25,1857.44 2131.31,1852.64 2133.61,1849.91
             2136.24,1846.79 2139.11,1839.05 2140.85,1835.00
             2140.85,1835.00 2153.85,1804.00 2153.85,1804.00
             2153.85,1804.00 2170.58,1764.00 2170.58,1764.00
             2170.58,1764.00 2184.00,1725.00 2184.00,1725.00
             2184.00,1725.00 2195.00,1690.00 2195.00,1690.00
             2195.00,1690.00 2190.00,1689.00 2190.00,1689.00
             2190.00,1689.00 2192.00,1678.00 2192.00,1678.00
             2194.05,1678.64 2196.29,1679.63 2197.35,1676.81
             2198.56,1673.56 2195.39,1671.90 2196.27,1666.91
             2196.27,1666.91 2203.00,1643.00 2203.00,1643.00
             2197.99,1642.72 2197.27,1639.56 2198.69,1635.09
             2200.76,1628.53 2207.41,1615.35 2204.00,1609.00
             2206.76,1605.14 2207.92,1594.67 2207.00,1590.00
             2212.28,1585.91 2209.14,1581.15 2210.94,1576.17
             2210.94,1576.17 2213.02,1571.83 2213.02,1571.83
             2214.02,1569.06 2215.83,1559.99 2215.96,1557.00
             2215.96,1557.00 2215.19,1542.00 2215.19,1542.00
             2215.19,1542.00 2219.00,1528.00 2219.00,1528.00
             2219.00,1528.00 2215.00,1524.00 2215.00,1524.00
             2215.00,1524.00 2219.00,1524.00 2219.00,1524.00
             2219.00,1524.00 2220.00,1495.00 2220.00,1495.00
             2219.96,1486.19 2215.68,1478.60 2223.00,1472.00
             2223.00,1472.00 2221.79,1465.13 2221.79,1465.13
             2221.79,1465.13 2226.00,1457.00 2226.00,1457.00
             2234.59,1463.69 2256.27,1479.38 2266.00,1481.90
             2272.88,1483.69 2277.02,1480.57 2287.00,1483.00
             2291.43,1479.18 2296.80,1478.87 2302.00,1476.48
             2307.19,1474.10 2308.89,1471.63 2313.00,1468.22
             2318.21,1463.89 2320.77,1464.80 2320.00,1457.00
             2327.60,1453.66 2330.32,1441.69 2331.13,1434.00
             2331.13,1434.00 2332.50,1411.00 2332.50,1411.00
             2332.50,1411.00 2330.94,1403.00 2330.94,1403.00
             2330.94,1403.00 2330.94,1394.00 2330.94,1394.00
             2329.66,1384.38 2326.01,1382.28 2328.64,1371.11
             2328.88,1370.08 2328.95,1369.56 2329.68,1368.72
             2331.32,1366.86 2334.45,1367.50 2341.00,1360.00
             2341.00,1360.00 2338.00,1360.00 2338.00,1360.00
             2338.00,1360.00 2343.95,1358.09 2343.95,1358.09
             2348.48,1356.37 2350.97,1353.09 2360.00,1352.49
             2364.09,1352.22 2372.19,1354.27 2375.69,1351.98
             2377.99,1350.47 2378.01,1347.76 2379.45,1345.00
             2381.33,1341.38 2384.61,1338.35 2387.00,1335.00
             2387.00,1335.00 2369.91,1327.58 2369.91,1327.58
             2369.91,1327.58 2358.09,1327.58 2358.09,1327.58
             2358.09,1327.58 2350.00,1320.00 2350.00,1320.00
             2350.00,1320.00 2352.00,1329.00 2352.00,1329.00
             2352.00,1329.00 2346.00,1329.00 2346.00,1329.00
             2346.87,1322.37 2348.55,1318.09 2342.00,1314.00
             2342.87,1312.35 2343.28,1311.94 2343.71,1310.00
             2343.71,1310.00 2344.90,1291.00 2344.90,1291.00
             2344.90,1291.00 2344.00,1281.00 2344.00,1281.00
             2343.96,1277.11 2344.92,1270.81 2342.00,1268.00
             2342.00,1268.00 2342.00,1266.00 2342.00,1266.00
             2352.60,1261.07 2356.07,1258.18 2368.00,1256.00
             2368.00,1256.00 2367.00,1254.00 2367.00,1254.00
             2377.43,1252.00 2379.19,1246.30 2384.88,1239.28
             2388.28,1235.08 2392.15,1232.53 2391.69,1225.99
             2391.27,1220.12 2386.62,1219.79 2384.74,1214.98
             2382.81,1210.05 2385.71,1206.80 2382.00,1198.00
             2384.92,1196.51 2386.90,1194.92 2388.44,1191.91
             2390.03,1188.79 2389.37,1185.31 2393.11,1184.00
             2392.96,1181.38 2392.47,1175.61 2393.11,1173.39
             2394.05,1170.88 2396.42,1168.76 2395.96,1166.09
             2395.53,1163.56 2391.04,1159.91 2389.00,1158.49
             2386.29,1156.62 2384.82,1156.42 2382.00,1155.22
             2373.95,1151.79 2369.06,1150.05 2360.00,1151.00
             2359.31,1147.75 2357.64,1144.26 2358.87,1141.02
             2361.03,1135.34 2367.26,1134.07 2372.00,1131.61
             2375.48,1129.81 2376.94,1127.81 2380.00,1125.68
             2386.05,1121.47 2389.44,1121.60 2392.00,1114.00
             2392.00,1114.00 2386.00,1111.00 2386.00,1111.00
             2386.00,1111.00 2390.00,1106.00 2390.00,1106.00
             2390.00,1106.00 2391.00,1109.00 2391.00,1109.00
             2391.00,1109.00 2392.98,1102.00 2392.98,1102.00
             2396.22,1095.01 2397.96,1099.23 2398.00,1088.00
             2398.00,1088.00 2395.00,1093.00 2395.00,1093.00
             2395.00,1093.00 2387.81,1088.00 2387.81,1088.00
             2392.90,1084.34 2387.27,1081.66 2387.81,1076.99
             2388.11,1070.51 2392.52,1071.90 2391.00,1062.00
             2391.00,1062.00 2394.00,1062.00 2394.00,1062.00
             2394.00,1062.00 2392.00,1057.00 2392.00,1057.00
             2392.00,1057.00 2408.00,1056.00 2408.00,1056.00
             2406.89,1049.45 2403.41,1051.07 2401.61,1045.98
             2400.36,1042.44 2402.59,1028.75 2404.00,1025.00
             2397.84,1021.93 2389.69,1016.65 2390.00,1008.92
             2392.25,1009.44 2394.57,1010.04 2396.73,1008.92
             2398.67,1007.78 2408.94,996.60 2400.00,993.00
             2400.00,993.00 2406.00,992.00 2406.00,992.00
             2406.00,992.00 2404.00,990.00 2404.00,990.00
             2404.00,990.00 2406.00,989.00 2406.00,989.00
             2406.00,989.00 2392.00,985.00 2392.00,985.00
             2392.00,985.00 2398.00,976.00 2398.00,976.00
             2396.05,974.21 2391.86,969.57 2389.77,968.72
             2385.66,967.06 2378.02,968.51 2373.83,969.54
             2373.83,969.54 2361.00,971.28 2361.00,971.28
             2357.12,972.18 2357.11,973.24 2352.00,974.00
             2352.00,974.00 2357.00,970.00 2357.00,970.00
             2357.00,970.00 2351.00,970.00 2351.00,970.00
             2351.00,970.00 2360.00,964.00 2360.00,964.00
             2360.00,964.00 2364.00,965.00 2364.00,965.00
             2361.75,963.57 2359.64,962.59 2358.60,959.94
             2357.39,956.88 2358.96,950.40 2355.84,950.34
             2354.00,950.30 2352.91,952.69 2352.18,954.02
             2349.59,958.72 2349.25,959.37 2344.98,962.96
             2334.55,971.75 2331.07,969.53 2319.00,966.00
             2319.00,966.00 2328.00,954.00 2328.00,954.00
             2328.00,954.00 2323.00,950.00 2323.00,950.00
             2323.00,950.00 2323.00,948.00 2323.00,948.00
             2323.00,948.00 2328.00,948.00 2328.00,948.00
             2328.00,948.00 2329.00,939.00 2329.00,939.00
             2329.00,939.00 2314.00,939.00 2314.00,939.00
             2314.00,939.00 2313.00,936.00 2313.00,936.00
             2313.00,936.00 2305.00,942.00 2305.00,942.00
             2300.16,934.15 2297.84,943.65 2295.44,946.96
             2293.95,949.03 2291.24,951.36 2289.00,952.57
             2287.23,953.53 2280.57,955.41 2280.57,951.66
             2280.57,951.66 2282.00,948.00 2282.00,948.00
             2271.55,939.66 2272.94,927.80 2271.49,923.04
             2270.14,918.59 2266.88,917.42 2266.57,911.00
             2266.57,911.00 2272.83,882.00 2272.83,882.00
             2272.83,882.00 2275.00,849.00 2275.00,849.00
             2274.91,842.75 2273.32,840.10 2272.43,834.00
             2272.43,834.00 2271.07,824.00 2271.07,824.00
             2271.07,824.00 2264.52,806.00 2264.52,806.00
             2263.44,802.20 2263.92,799.62 2262.18,796.00
             2262.18,796.00 2251.18,775.00 2251.18,775.00
             2250.78,773.02 2250.92,771.03 2251.18,769.00
             2251.18,769.00 2247.00,768.00 2247.00,768.00
             2247.00,768.00 2248.00,765.00 2248.00,765.00
             2244.93,763.93 2245.28,761.98 2245.00,759.00
             2239.96,757.47 2237.31,744.94 2236.28,740.00
             2236.28,740.00 2234.27,730.00 2234.27,730.00
             2234.27,730.00 2230.46,716.00 2230.46,716.00
             2230.46,716.00 2228.87,697.00 2228.87,697.00
             2228.41,693.28 2227.13,692.10 2226.41,689.00
             2226.41,689.00 2225.74,682.00 2225.74,682.00
             2225.74,682.00 2224.26,676.00 2224.26,676.00
             2223.70,672.69 2224.22,671.28 2223.07,667.00
             2223.07,667.00 2220.38,659.00 2220.38,659.00
             2220.38,659.00 2218.98,651.00 2218.98,651.00
             2218.98,651.00 2214.47,636.83 2214.47,636.83
             2214.47,636.83 2213.60,626.00 2213.60,626.00
             2213.60,626.00 2209.32,611.00 2209.32,611.00
             2209.32,611.00 2208.18,603.00 2208.18,603.00
             2208.18,603.00 2206.28,596.00 2206.28,596.00
             2206.12,593.34 2206.86,591.75 2206.28,589.00
             2206.28,589.00 2199.62,573.00 2199.62,573.00
             2197.66,566.46 2198.66,561.67 2194.19,550.00
             2194.19,550.00 2186.96,535.00 2186.96,535.00
             2185.52,530.92 2185.40,525.66 2182.41,519.00
             2180.41,514.57 2177.33,511.99 2174.69,507.99
             2174.69,507.99 2168.21,496.00 2168.21,496.00
             2165.21,490.89 2163.23,484.29 2158.00,481.00
             2158.00,481.00 2159.00,479.00 2159.00,479.00
             2159.00,479.00 2144.82,461.74 2144.82,461.74
             2144.82,461.74 2132.36,444.05 2132.36,444.05
             2132.36,444.05 2126.63,439.51 2126.63,439.51
             2124.63,437.47 2124.05,435.11 2120.39,432.07
             2120.39,432.07 2114.00,428.24 2114.00,428.24
             2114.00,428.24 2101.00,417.54 2101.00,417.54
             2101.00,417.54 2087.37,408.32 2087.37,408.32
             2087.37,408.32 2072.96,396.64 2072.96,396.64
             2072.96,396.64 2067.09,394.02 2067.09,394.02
             2062.00,391.03 2062.52,387.87 2055.00,388.00
             2050.86,380.36 2043.00,378.48 2036.04,373.50
             2036.04,373.50 2027.96,367.21 2027.96,367.21
             2027.96,367.21 2018.17,362.21 2018.17,362.21
             2018.17,362.21 2005.91,353.56 2005.91,353.56
             2005.91,353.56 1998.00,350.57 1998.00,350.57
             1998.00,350.57 1991.00,346.35 1991.00,346.35
             1991.00,346.35 1977.58,339.71 1977.58,339.71
             1977.58,339.71 1966.00,331.67 1966.00,331.67
             1961.06,328.82 1958.35,329.86 1950.18,323.41
             1944.34,318.80 1944.66,316.83 1940.87,313.59
             1936.83,310.14 1916.80,298.08 1912.00,296.64
             1909.44,295.88 1899.00,295.02 1896.00,295.00
             1881.13,294.93 1888.02,294.06 1878.00,291.01
             1874.78,290.03 1873.62,290.40 1870.00,288.72
             1870.00,288.72 1861.00,283.98 1861.00,283.98
             1861.00,283.98 1852.00,281.08 1852.00,281.08
             1852.00,281.08 1834.00,273.31 1834.00,273.31
             1834.00,273.31 1826.17,271.09 1826.17,271.09
             1826.17,271.09 1815.00,265.66 1815.00,265.66
             1815.00,265.66 1802.00,261.37 1802.00,261.37
             1802.00,261.37 1794.00,257.63 1794.00,257.63
             1794.00,257.63 1786.00,256.02 1786.00,256.02
             1786.00,256.02 1779.17,254.47 1779.17,254.47
             1779.17,254.47 1773.91,252.29 1773.91,252.29
             1773.91,252.29 1759.00,248.97 1759.00,248.97
             1759.00,248.97 1725.00,238.08 1725.00,238.08
             1725.00,238.08 1717.00,238.08 1717.00,238.08
             1710.87,237.33 1699.36,232.75 1695.00,239.00
             1689.98,235.41 1674.18,235.22 1668.04,236.47
             1668.04,236.47 1661.83,238.55 1661.83,238.55
             1661.83,238.55 1656.00,240.07 1656.00,240.07
             1656.00,240.07 1649.00,243.06 1649.00,243.06
             1649.00,243.06 1640.00,244.59 1640.00,244.59
             1640.00,244.59 1625.00,249.40 1625.00,249.40
             1625.00,249.40 1613.00,252.10 1613.00,252.10
             1613.00,252.10 1606.00,254.88 1606.00,254.88
             1606.00,254.88 1598.00,257.09 1598.00,257.09
             1591.96,259.09 1588.10,261.68 1582.72,264.69
             1582.72,264.69 1562.42,272.77 1562.42,272.77
             1562.42,272.77 1540.96,285.46 1540.96,285.46
             1540.96,285.46 1521.00,295.56 1521.00,295.56
             1521.00,295.56 1504.83,305.95 1504.83,305.95
             1504.83,305.95 1480.00,312.56 1480.00,312.56
             1480.00,312.56 1470.72,319.12 1470.72,319.12
             1466.17,321.70 1462.65,322.06 1458.13,326.33
             1454.49,329.76 1454.09,333.20 1451.21,336.95
             1449.20,339.56 1444.61,342.62 1441.75,344.56
             1441.75,344.56 1435.83,347.66 1435.83,347.66
             1435.83,347.66 1430.00,351.87 1430.00,351.87
             1430.00,351.87 1407.58,364.01 1407.58,364.01
             1407.58,364.01 1380.88,382.22 1380.88,382.22
             1380.88,382.22 1375.14,384.73 1375.14,384.73
             1375.14,384.73 1361.49,395.52 1361.49,395.52
             1359.52,397.53 1359.51,398.82 1356.78,400.90
             1356.78,400.90 1340.37,412.05 1340.37,412.05
             1340.37,412.05 1329.58,421.75 1329.58,421.75
             1329.58,421.75 1323.17,426.46 1323.17,426.46
             1323.17,426.46 1305.99,443.99 1305.99,443.99
             1299.07,449.86 1287.62,454.46 1285.00,464.00 Z
           M 2015.00,357.00
           C 2015.00,357.00 2015.00,358.00 2015.00,358.00
             2015.00,358.00 2016.00,357.00 2016.00,357.00
             2016.00,357.00 2015.00,357.00 2015.00,357.00 Z
           M 2117.00,430.00
           C 2117.00,430.00 2117.00,431.00 2117.00,431.00
             2117.00,431.00 2116.00,430.00 2116.00,430.00
             2116.00,430.00 2117.00,430.00 2117.00,430.00 Z
           M 2321.00,951.00
           C 2321.00,951.00 2321.00,952.00 2321.00,952.00
             2321.00,952.00 2320.00,951.00 2320.00,951.00
             2320.00,951.00 2321.00,951.00 2321.00,951.00 Z
           M 1104.00,1056.00
           C 1104.00,1058.11 1104.46,1063.64 1102.42,1064.83
             1100.30,1066.07 1097.64,1063.15 1098.63,1060.37
             1099.38,1058.28 1102.19,1057.01 1104.00,1056.00 Z
           M 1169.00,1071.00
           C 1169.00,1071.00 1169.00,1072.00 1169.00,1072.00
             1169.00,1072.00 1168.00,1071.00 1168.00,1071.00
             1168.00,1071.00 1169.00,1071.00 1169.00,1071.00 Z
           M 1124.00,1087.00
           C 1124.00,1087.00 1127.00,1089.00 1127.00,1089.00
             1124.82,1089.05 1124.04,1089.46 1124.00,1087.00 Z
           M 1165.00,1146.00
           C 1166.06,1151.23 1164.64,1152.73 1160.00,1155.00
             1160.00,1155.00 1161.00,1159.00 1161.00,1159.00
             1161.00,1159.00 1157.00,1162.00 1157.00,1162.00
             1157.00,1162.00 1153.00,1160.00 1153.00,1160.00
             1150.90,1166.32 1145.67,1170.66 1141.82,1176.00
             1139.88,1178.69 1137.78,1181.65 1134.09,1181.73
             1129.50,1181.83 1127.84,1177.09 1126.28,1173.71
             1121.99,1164.42 1117.29,1161.28 1120.00,1150.00
             1116.77,1147.87 1117.01,1146.59 1116.00,1143.00
             1116.00,1143.00 1120.00,1142.00 1120.00,1142.00
             1116.18,1136.40 1121.80,1130.69 1127.01,1131.89
             1127.01,1131.89 1136.00,1135.00 1136.00,1135.00
             1139.77,1135.93 1150.84,1138.13 1153.75,1139.70
             1159.51,1142.81 1154.25,1148.98 1165.00,1146.00 Z
           M 1151.00,1159.00
           C 1151.00,1159.00 1151.00,1160.00 1151.00,1160.00
             1151.00,1160.00 1152.00,1159.00 1152.00,1159.00
             1152.00,1159.00 1151.00,1159.00 1151.00,1159.00 Z
           M 1165.00,1179.00
           C 1165.00,1179.00 1169.00,1184.00 1169.00,1184.00
             1167.71,1193.50 1165.46,1193.72 1165.36,1198.00
             1165.23,1203.37 1169.82,1210.54 1164.44,1215.25
             1158.89,1220.10 1148.93,1210.65 1145.55,1206.68
             1144.26,1205.16 1142.60,1203.14 1142.62,1201.04
             1142.67,1197.43 1147.29,1195.79 1149.83,1194.13
             1156.31,1189.87 1155.00,1186.97 1165.00,1179.00 Z
           M 2362.00,1195.00
           C 2362.00,1195.00 2361.00,1198.00 2361.00,1198.00
             2361.00,1198.00 2372.00,1198.00 2372.00,1198.00
             2372.00,1198.00 2373.00,1200.00 2373.00,1200.00
             2373.05,1206.12 2375.19,1208.33 2374.73,1211.95
             2374.40,1214.61 2373.16,1215.48 2371.69,1217.45
             2367.76,1222.70 2365.33,1225.73 2358.04,1225.86
             2354.34,1225.93 2353.58,1224.43 2348.99,1224.04
             2343.77,1223.60 2338.28,1224.78 2334.74,1219.81
             2330.27,1213.54 2336.77,1197.94 2344.00,1206.00
             2347.39,1203.90 2348.91,1203.21 2349.00,1199.00
             2349.00,1199.00 2352.00,1197.00 2352.00,1197.00
             2356.19,1197.61 2356.84,1198.02 2360.00,1195.00
             2360.00,1195.00 2362.00,1195.00 2362.00,1195.00 Z
           M 2336.00,1202.00
           C 2336.00,1202.00 2336.00,1203.00 2336.00,1203.00
             2336.00,1203.00 2335.00,1202.00 2335.00,1202.00
             2335.00,1202.00 2336.00,1202.00 2336.00,1202.00 Z
           M 2330.00,1366.00
           C 2330.00,1366.00 2330.00,1367.00 2330.00,1367.00
             2330.00,1367.00 2329.00,1366.00 2329.00,1366.00
             2329.00,1366.00 2330.00,1366.00 2330.00,1366.00 Z
           M 2195.00,1682.00
           C 2195.00,1682.00 2195.00,1688.00 2195.00,1688.00
             2195.00,1688.00 2197.00,1688.00 2197.00,1688.00
             2197.00,1688.00 2195.00,1682.00 2195.00,1682.00 Z" />
  <path id="profile"
        fill="none" stroke="black" stroke-width="1"
        d="M 1285.00,464.00
           C 1278.25,465.12 1276.59,470.03 1272.39,474.96
             1265.20,483.38 1268.35,479.93 1262.91,487.91
             1262.91,487.91 1257.22,495.04 1257.22,495.04
             1257.22,495.04 1253.80,500.99 1253.80,500.99
             1249.90,507.52 1247.87,505.66 1247.00,516.00
             1240.81,517.97 1241.93,521.59 1239.74,527.00
             1239.74,527.00 1233.28,539.00 1233.28,539.00
             1230.93,544.96 1233.29,546.97 1228.00,552.00
             1228.00,552.00 1220.49,579.09 1220.49,579.09
             1220.49,579.09 1218.82,597.00 1218.82,597.00
             1218.82,597.00 1217.32,604.00 1217.32,604.00
             1217.32,604.00 1215.79,626.00 1215.79,626.00
             1215.79,626.00 1214.74,641.00 1214.74,641.00
             1214.74,641.00 1213.19,661.00 1213.19,661.00
             1213.19,661.00 1214.96,677.00 1214.96,677.00
             1214.96,677.00 1213.00,697.00 1213.00,697.00
             1213.00,697.00 1211.00,745.00 1211.00,745.00
             1211.00,745.00 1209.90,760.00 1209.90,760.00
             1209.90,760.00 1209.90,832.00 1209.90,832.00
             1209.90,832.00 1209.90,850.00 1209.90,850.00
             1209.90,850.00 1206.00,876.00 1206.00,876.00
             1206.00,876.00 1205.00,899.00 1205.00,899.00
             1205.00,899.00 1205.00,929.00 1205.00,929.00
             1205.00,929.00 1208.00,953.00 1208.00,953.00
             1208.00,953.00 1206.00,957.00 1206.00,957.00
             1201.12,955.19 1198.61,954.17 1197.00,949.00
             1197.00,949.00 1194.00,949.00 1194.00,949.00
             1194.53,954.60 1195.71,957.32 1200.17,960.98
             1202.14,962.59 1206.45,965.03 1207.59,966.96
             1209.27,969.80 1207.66,978.23 1205.42,980.41
             1203.93,981.85 1201.01,982.30 1199.00,982.80
             1199.00,982.80 1189.00,982.80 1189.00,982.80
             1191.99,985.77 1193.96,987.15 1198.00,988.15
             1200.29,988.72 1205.07,988.93 1206.69,990.02
             1210.54,992.62 1209.10,999.52 1205.78,1001.92
             1203.24,1003.75 1201.45,1003.34 1197.00,1007.00
             1197.00,1007.00 1207.00,1011.00 1207.00,1011.00
             1202.93,1018.76 1206.66,1019.63 1201.92,1022.85
             1198.56,1025.14 1196.61,1024.32 1193.00,1024.45
             1186.56,1024.69 1180.33,1025.97 1174.00,1023.83
             1160.51,1019.27 1160.15,1014.94 1152.00,1022.00
             1152.20,1023.97 1152.24,1028.00 1153.08,1029.55
             1155.07,1033.19 1157.49,1031.59 1158.00,1039.00
             1163.83,1043.42 1166.87,1052.45 1170.00,1059.00
             1170.00,1059.00 1163.00,1061.00 1163.00,1061.00
             1165.41,1065.59 1166.13,1065.72 1165.00,1071.00
             1175.32,1080.68 1154.52,1078.81 1150.00,1078.00
             1150.00,1078.00 1147.00,1080.00 1147.00,1080.00
             1147.00,1080.00 1147.00,1088.00 1147.00,1088.00
             1143.46,1088.62 1143.20,1088.58 1142.00,1092.00
             1137.03,1087.96 1136.92,1088.54 1131.00,1090.00
             1131.00,1090.00 1128.00,1084.00 1128.00,1084.00
             1114.82,1087.35 1115.25,1077.00 1110.00,1073.00
             1110.00,1073.00 1111.58,1069.82 1111.58,1069.82
             1111.58,1069.82 1111.58,1054.45 1111.58,1054.45
             1111.58,1054.45 1109.15,1052.61 1109.15,1052.61
             1109.15,1052.61 1101.00,1053.95 1101.00,1053.95
             1101.00,1053.95 1092.00,1053.95 1092.00,1053.95
             1092.00,1053.95 1089.00,1035.00 1089.00,1035.00
             1089.00,1035.00 1089.00,1024.00 1089.00,1024.00
             1089.00,1024.00 1089.96,1013.00 1089.96,1013.00
             1089.96,1013.00 1089.96,984.00 1089.96,984.00
             1086.23,986.63 1085.24,990.13 1083.07,994.00
             1076.53,1005.64 1076.78,1009.29 1075.91,1022.00
             1075.91,1022.00 1075.00,1041.00 1075.00,1041.00
             1075.00,1041.00 1073.00,1040.00 1073.00,1040.00
             1072.94,1047.23 1070.47,1056.70 1076.85,1062.00
             1076.85,1062.00 1076.85,1066.00 1076.85,1066.00
             1076.85,1066.00 1082.86,1087.58 1082.86,1087.58
             1082.86,1087.58 1088.00,1097.00 1088.00,1097.00
             1093.52,1101.53 1097.06,1111.59 1105.00,1112.00
             1105.00,1112.00 1107.00,1118.00 1107.00,1118.00
             1107.00,1118.00 1114.00,1120.00 1114.00,1120.00
             1111.94,1125.18 1110.01,1130.00 1106.00,1134.00
             1106.00,1134.00 1104.09,1146.00 1104.09,1146.00
             1104.09,1146.00 1108.92,1163.00 1108.92,1163.00
             1108.92,1163.00 1113.07,1177.00 1113.07,1177.00
             1113.07,1177.00 1121.80,1192.00 1121.80,1192.00
             1121.80,1192.00 1126.60,1203.66 1126.60,1203.66
             1126.60,1203.66 1135.95,1210.29 1135.95,1210.29
             1135.95,1210.29 1144.84,1221.82 1144.84,1221.82
             1144.84,1221.82 1152.13,1229.09 1152.13,1229.09
             1152.13,1229.09 1155.26,1234.96 1155.26,1234.96
             1155.26,1234.96 1159.28,1240.28 1159.28,1240.28
             1159.28,1240.28 1164.49,1250.00 1164.49,1250.00
             1164.49,1250.00 1168.00,1258.00 1168.00,1258.00
             1168.00,1258.00 1169.00,1258.00 1169.00,1258.00
             1169.00,1258.00 1170.00,1256.00 1170.00,1256.00
             1170.00,1256.00 1172.00,1262.00 1172.00,1262.00
             1172.00,1262.00 1175.00,1262.00 1175.00,1262.00
             1175.00,1262.00 1174.00,1258.00 1174.00,1258.00
             1178.87,1266.88 1178.98,1284.77 1179.00,1295.00
             1179.00,1295.00 1180.55,1315.72 1180.55,1315.72
             1180.55,1315.72 1183.21,1322.01 1183.21,1322.01
             1183.21,1322.01 1185.43,1332.72 1185.43,1332.72
             1186.35,1335.41 1188.00,1337.03 1188.67,1341.00
             1189.30,1344.74 1188.11,1348.90 1188.17,1353.00
             1188.17,1353.00 1189.00,1368.00 1189.00,1368.00
             1189.00,1368.00 1188.00,1390.00 1188.00,1390.00
             1188.15,1402.19 1192.16,1400.00 1194.87,1407.04
             1194.87,1407.04 1198.87,1428.04 1198.87,1428.04
             1199.49,1433.18 1197.13,1438.88 1203.00,1441.00
             1201.81,1444.34 1200.66,1451.54 1201.25,1455.00
             1201.25,1455.00 1203.03,1461.00 1203.03,1461.00
             1203.03,1461.00 1203.03,1469.00 1203.03,1469.00
             1203.03,1469.00 1204.96,1476.00 1204.96,1476.00
             1204.96,1476.00 1204.96,1485.00 1204.96,1485.00
             1204.96,1485.00 1206.96,1492.00 1206.96,1492.00
             1206.96,1492.00 1206.96,1500.00 1206.96,1500.00
             1207.63,1504.29 1210.87,1514.06 1213.03,1517.71
             1216.17,1523.04 1219.67,1524.54 1225.00,1527.20
             1236.92,1533.14 1246.14,1532.69 1259.00,1531.15
             1259.00,1531.15 1271.00,1529.29 1271.00,1529.29
             1277.65,1527.41 1279.41,1524.43 1284.28,1520.68
             1284.28,1520.68 1289.79,1517.15 1289.79,1517.15
             1289.79,1517.15 1300.09,1507.07 1300.09,1507.07
             1302.98,1504.09 1304.33,1499.88 1308.02,1497.62
             1311.97,1495.19 1316.66,1497.99 1317.94,1502.09
             1318.24,1503.54 1318.05,1505.50 1317.94,1507.00
             1318.09,1509.98 1318.30,1511.13 1319.00,1514.00
             1313.76,1515.52 1318.86,1523.71 1320.28,1527.00
             1320.28,1527.00 1331.82,1554.00 1331.82,1554.00
             1333.09,1557.55 1335.34,1562.27 1334.07,1565.99
             1331.23,1574.32 1317.22,1576.63 1314.00,1589.00
             1314.00,1589.00 1311.00,1588.00 1311.00,1588.00
             1307.78,1592.10 1303.67,1596.28 1304.51,1602.00
             1304.51,1602.00 1305.73,1607.00 1305.73,1607.00
             1306.23,1610.73 1304.65,1614.36 1304.00,1618.00
             1304.00,1618.00 1326.00,1618.00 1326.00,1618.00
             1326.00,1618.00 1325.00,1621.00 1325.00,1621.00
             1333.22,1621.18 1339.05,1622.31 1342.87,1630.00
             1350.86,1631.64 1344.16,1637.27 1342.87,1642.39
             1341.39,1647.30 1345.40,1654.90 1352.00,1656.00
             1352.00,1656.00 1355.56,1671.00 1355.56,1671.00
             1356.40,1676.36 1354.79,1679.06 1360.00,1682.00
             1360.00,1682.00 1358.00,1687.00 1358.00,1687.00
             1363.80,1689.02 1359.40,1701.70 1364.00,1704.00
             1364.00,1704.00 1361.00,1706.00 1361.00,1706.00
             1365.67,1712.38 1363.54,1715.08 1364.39,1722.00
             1364.92,1726.28 1366.86,1727.23 1367.13,1734.00
             1367.13,1734.00 1367.82,1750.00 1367.82,1750.00
             1367.82,1750.00 1367.04,1757.00 1367.04,1757.00
             1367.04,1757.00 1369.09,1777.00 1369.09,1777.00
             1369.09,1777.00 1369.09,1787.00 1369.09,1787.00
             1369.09,1787.00 1370.76,1794.00 1370.76,1794.00
             1370.76,1794.00 1372.00,1807.00 1372.00,1807.00
             1372.00,1807.00 1372.00,1818.00 1372.00,1818.00
             1372.00,1818.00 1371.00,1849.00 1371.00,1849.00
             1371.00,1849.00 1372.00,1868.00 1372.00,1868.00
             1372.00,1868.00 1371.00,1885.00 1371.00,1885.00
             1371.00,1885.00 1370.00,1927.00 1370.00,1927.00
             1370.00,1927.00 1365.03,1970.00 1365.03,1970.00
             1365.03,1970.00 1365.03,1980.00 1365.03,1980.00
             1365.03,1980.00 1361.40,1999.00 1361.40,1999.00
             1358.18,2006.33 1355.87,2003.42 1352.04,2007.14
             1348.68,2010.42 1347.39,2014.24 1344.97,2017.79
             1344.97,2017.79 1341.91,2021.59 1341.91,2021.59
             1340.40,2023.99 1339.37,2030.04 1338.49,2033.00
             1337.14,2037.55 1335.49,2039.34 1334.46,2045.00
             1334.46,2045.00 1333.25,2059.00 1333.25,2059.00
             1333.25,2059.00 1326.29,2079.00 1326.29,2079.00
             1324.39,2084.92 1322.37,2096.58 1315.00,2097.00
             1315.00,2097.00 1314.00,2101.00 1314.00,2101.00
             1314.00,2101.00 1312.00,2099.00 1312.00,2099.00
             1308.76,2103.08 1306.82,2104.61 1307.00,2110.00
             1307.00,2110.00 1304.00,2110.00 1304.00,2110.00
             1304.00,2110.00 1305.00,2113.00 1305.00,2113.00
             1305.00,2113.00 1288.00,2125.00 1288.00,2125.00
             1286.97,2128.02 1283.83,2128.67 1281.00,2129.86
             1275.04,2132.36 1269.42,2136.88 1263.00,2136.00
             1263.00,2136.00 1263.00,2140.00 1263.00,2140.00
             1258.87,2140.70 1249.26,2146.58 1242.00,2146.00
             1238.20,2154.37 1233.71,2152.12 1227.29,2155.88
             1222.68,2158.57 1214.96,2166.24 1213.63,2167.11
             1211.18,2168.69 1203.15,2170.37 1200.00,2171.00
             1198.32,2176.06 1191.42,2178.39 1187.00,2181.15
             1187.00,2181.15 1173.83,2190.87 1173.83,2190.87
             1173.83,2190.87 1168.00,2193.30 1168.00,2193.30
             1168.00,2193.30 1162.00,2197.30 1162.00,2197.30
             1157.09,2200.36 1152.37,2201.58 1149.00,2207.00
             1149.00,2207.00 1136.42,2215.41 1136.42,2215.41
             1136.42,2215.41 1129.00,2220.27 1129.00,2220.27
             1129.00,2220.27 1122.00,2226.36 1122.00,2226.36
             1122.00,2226.36 1114.51,2231.09 1114.51,2231.09
             1114.51,2231.09 1102.17,2243.71 1102.17,2243.71
             1102.17,2243.71 1091.13,2253.10 1091.13,2253.10
             1091.13,2253.10 1086.56,2258.41 1086.56,2258.41
             1086.56,2258.41 1066.11,2280.09 1066.11,2280.09
             1066.11,2280.09 1057.59,2292.30 1057.59,2292.30
             1057.59,2292.30 1035.00,2300.71 1035.00,2300.71
             1035.00,2300.71 1024.00,2306.45 1024.00,2306.45
             1024.00,2306.45 992.00,2316.00 992.00,2316.00
             989.04,2321.24 986.89,2319.20 981.00,2321.31
             981.00,2321.31 971.00,2324.98 971.00,2324.98
             971.00,2324.98 962.00,2329.79 962.00,2329.79
             962.00,2329.79 954.00,2331.64 954.00,2331.64
             954.00,2331.64 934.00,2342.35 934.00,2342.35
             934.00,2342.35 918.17,2349.03 918.17,2349.03
             918.17,2349.03 911.70,2353.59 911.70,2353.59
             911.70,2353.59 899.96,2359.96 899.96,2359.96
             899.96,2359.96 887.09,2364.54 887.09,2364.54
             887.09,2364.54 881.83,2367.73 881.83,2367.73
             881.83,2367.73 875.00,2370.48 875.00,2370.48
             870.79,2372.86 869.10,2375.58 864.00,2376.00
             864.00,2376.00 859.00,2382.00 859.00,2382.00
             859.00,2382.00 856.00,2381.00 856.00,2381.00
             852.13,2387.15 849.99,2386.30 844.00,2389.46
             844.00,2389.46 829.83,2398.72 829.83,2398.72
             823.99,2401.94 818.86,2402.74 815.00,2409.00
             808.94,2409.37 807.41,2412.13 802.83,2415.36
             802.83,2415.36 784.74,2426.61 784.74,2426.61
             783.44,2428.15 783.41,2429.17 783.00,2431.00
             783.00,2431.00 768.00,2436.00 768.00,2436.00
             764.93,2441.90 756.96,2445.47 751.58,2449.16
             751.58,2449.16 734.00,2463.11 734.00,2463.11
             734.00,2463.11 715.13,2474.61 715.13,2474.61
             715.13,2474.61 704.42,2486.04 704.42,2486.04
             704.42,2486.04 697.18,2491.37 697.18,2491.37
             697.18,2491.37 691.69,2496.79 691.69,2496.79
             691.69,2496.79 670.72,2514.63 670.72,2514.63
             670.72,2514.63 663.00,2520.30 663.00,2520.30
             663.00,2520.30 655.00,2527.20 655.00,2527.20
             655.00,2527.20 638.04,2537.98 638.04,2537.98
             638.04,2537.98 631.83,2542.94 631.83,2542.94
             631.83,2542.94 626.26,2545.99 626.26,2545.99
             626.26,2545.99 614.41,2557.49 614.41,2557.49
             611.86,2559.41 610.70,2558.60 607.00,2561.30
             607.00,2561.30 602.00,2565.37 602.00,2565.37
             602.00,2565.37 595.13,2569.78 595.13,2569.78
             595.13,2569.78 589.78,2574.88 589.78,2574.88
             589.78,2574.88 584.72,2577.94 584.72,2577.94
             584.72,2577.94 576.34,2584.39 576.34,2584.39
             576.34,2584.39 569.21,2587.85 569.21,2587.85
             569.21,2587.85 561.90,2596.16 561.90,2596.16
             556.77,2600.90 554.48,2600.38 551.80,2602.09
             551.80,2602.09 545.91,2607.09 545.91,2607.09
             541.09,2610.21 529.02,2616.90 527.00,2622.00
             521.39,2622.59 516.79,2627.11 512.00,2629.91
             509.45,2631.40 506.46,2632.48 504.26,2634.40
             501.79,2636.55 501.71,2638.16 496.98,2641.07
             496.98,2641.07 490.00,2644.72 490.00,2644.72
             490.00,2644.72 484.00,2649.39 484.00,2649.39
             484.00,2649.39 475.04,2654.51 475.04,2654.51
             475.04,2654.51 468.83,2659.03 468.83,2659.03
             465.22,2661.24 463.47,2660.52 459.00,2663.25
             459.00,2663.25 433.00,2680.41 433.00,2680.41
             433.00,2680.41 422.00,2687.04 422.00,2687.04
             422.00,2687.04 417.28,2689.05 417.28,2689.05
             410.41,2692.56 402.18,2699.94 399.00,2707.00
             393.72,2707.25 393.63,2708.97 389.72,2711.74
             385.70,2714.58 383.27,2713.68 380.65,2716.43
             378.35,2718.83 375.42,2728.56 374.91,2732.00
             374.91,2732.00 374.28,2738.00 374.28,2738.00
             373.38,2740.98 371.33,2742.40 370.03,2746.00
             370.03,2746.00 367.97,2757.00 367.97,2757.00
             367.97,2757.00 359.80,2770.91 359.80,2770.91
             359.80,2770.91 349.56,2786.68 349.56,2786.68
             345.90,2791.44 342.36,2792.10 343.00,2799.00
             337.45,2802.60 337.32,2810.82 335.03,2814.74
             335.03,2814.74 329.09,2821.05 329.09,2821.05
             329.09,2821.05 322.47,2830.71 322.47,2830.71
             322.47,2830.71 309.56,2845.00 309.56,2845.00
             309.56,2845.00 305.62,2851.99 305.62,2851.99
             305.62,2851.99 300.06,2859.17 300.06,2859.17
             300.06,2859.17 295.78,2867.00 295.78,2867.00
             295.78,2867.00 284.56,2881.29 284.56,2881.29
             284.56,2881.29 280.39,2889.00 280.39,2889.00
             280.39,2889.00 274.25,2898.00 274.25,2898.00
             274.25,2898.00 271.05,2904.63 271.05,2904.63
             271.05,2904.63 267.70,2908.37 267.70,2908.37
             267.70,2908.37 265.09,2912.72 265.09,2912.72
             265.09,2912.72 260.83,2918.03 260.83,2918.03
             260.83,2918.03 252.02,2934.00 252.02,2934.00
             249.32,2938.35 248.39,2938.17 245.37,2944.00
             243.43,2947.75 238.15,2958.03 235.00,2960.00
             233.49,2967.64 223.72,2981.91 219.33,2989.09
             216.04,2994.48 212.71,3000.22 210.15,3006.00
             210.15,3006.00 207.45,3013.00 207.45,3013.00
             207.45,3013.00 200.04,3027.00 200.04,3027.00
             200.04,3027.00 189.72,3048.00 189.72,3048.00
             187.77,3051.57 187.58,3053.76 184.00,3056.00
             183.58,3061.85 179.88,3066.77 177.44,3071.96
             175.07,3076.99 175.02,3083.92 168.00,3088.00
             167.73,3096.78 164.89,3099.76 161.97,3107.09
             161.97,3107.09 159.20,3115.96 159.20,3115.96
             159.20,3115.96 155.24,3123.09 155.24,3123.09
             155.24,3123.09 147.95,3139.00 147.95,3139.00
             147.95,3139.00 144.61,3147.96 144.61,3147.96
             140.96,3156.01 137.92,3157.83 137.00,3168.00
             137.00,3168.00 133.00,3169.00 133.00,3169.00
             133.45,3175.09 126.97,3189.04 124.40,3195.00
             124.40,3195.00 121.78,3204.00 121.78,3204.00
             121.78,3204.00 118.38,3211.00 118.38,3211.00
             118.38,3211.00 113.10,3225.00 113.10,3225.00
             113.10,3225.00 111.49,3230.83 111.49,3230.83
             111.49,3230.83 108.83,3236.09 108.83,3236.09
             108.83,3236.09 106.40,3244.00 106.40,3244.00
             106.40,3244.00 99.36,3261.00 99.36,3261.00
             99.36,3261.00 97.47,3269.00 97.47,3269.00
             97.47,3269.00 94.48,3276.00 94.48,3276.00
             94.48,3276.00 90.17,3291.00 90.17,3291.00
             90.17,3291.00 81.19,3316.00 81.19,3316.00
             81.19,3316.00 79.45,3324.00 79.45,3324.00
             79.45,3324.00 74.69,3338.99 74.69,3338.99
             74.69,3338.99 64.80,3363.00 64.80,3363.00
             64.80,3363.00 63.27,3371.00 63.27,3371.00
             60.42,3378.79 60.29,3371.19 58.00,3387.00
             58.00,3387.00 57.00,3384.00 57.00,3384.00
             57.00,3384.00 55.83,3393.00 55.83,3393.00
             55.83,3393.00 49.71,3408.42 49.71,3408.42
             49.71,3408.42 48.18,3417.00 48.18,3417.00
             48.18,3417.00 45.59,3425.00 45.59,3425.00
             43.78,3430.75 44.95,3435.35 41.00,3440.00
             41.00,3440.00 37.00,3463.00 37.00,3463.00
             37.00,3463.00 33.00,3463.00 33.00,3463.00
             33.00,3463.00 34.00,3467.00 34.00,3467.00
             34.00,3467.00 32.00,3467.00 32.00,3467.00
             32.00,3467.00 34.00,3470.00 34.00,3470.00
             34.00,3470.00 28.00,3488.00 28.00,3488.00
             28.00,3488.00 29.00,3492.00 29.00,3492.00
             29.00,3492.00 27.00,3491.00 27.00,3491.00
             27.00,3491.00 28.00,3494.00 28.00,3494.00
             28.00,3494.00 26.00,3499.00 26.00,3499.00
             26.00,3499.00 24.14,3499.76 24.14,3499.76
             24.14,3499.76 22.00,3511.00 22.00,3511.00
             22.00,3511.00 21.00,3510.00 21.00,3510.00
             21.00,3510.00 19.00,3511.00 19.00,3511.00
             22.84,3518.04 18.01,3521.98 15.16,3528.09
             11.03,3536.93 7.88,3546.21 7.00,3556.00
             7.00,3556.00 6.00,3554.00 6.00,3554.00
             2.83,3557.61 -3.48,3561.98 4.00,3565.00
             4.00,3565.00 3.00,3567.00 3.00,3567.00
             3.00,3567.00 4.00,3568.00 4.00,3568.00
             4.00,3568.00 0.00,3568.00 0.00,3568.00
             0.00,3568.00 0.00,4065.00 0.00,4065.00
             12.64,4067.42 22.53,4073.57 34.00,4078.74
             34.00,4078.74 42.00,4081.64 42.00,4081.64
             42.00,4081.64 57.09,4090.18 57.09,4090.18
             57.09,4090.18 66.00,4093.87 66.00,4093.87
             66.00,4093.87 79.00,4101.21 79.00,4101.21
             79.00,4101.21 97.28,4109.83 97.28,4109.83
             97.28,4109.83 131.00,4121.19 131.00,4121.19
             131.00,4121.19 142.00,4126.12 142.00,4126.12
             142.00,4126.12 153.00,4129.24 153.00,4129.24
             153.00,4129.24 190.00,4146.19 190.00,4146.19
             190.00,4146.19 205.99,4153.38 205.99,4153.38
             205.99,4153.38 213.17,4157.41 213.17,4157.41
             213.17,4157.41 227.09,4162.76 227.09,4162.76
             232.37,4164.95 239.20,4166.63 242.08,4172.18
             243.81,4175.52 244.37,4187.36 245.00,4192.00
             245.00,4192.00 247.33,4206.00 247.33,4206.00
             247.54,4208.83 246.67,4210.84 247.33,4215.00
             247.33,4215.00 250.03,4227.00 250.03,4227.00
             250.03,4227.00 250.03,4238.72 250.03,4238.72
             250.03,4238.72 251.83,4248.00 251.83,4248.00
             251.83,4248.00 254.12,4274.00 254.12,4274.00
             254.12,4274.00 256.08,4282.00 256.08,4282.00
             256.08,4282.00 256.08,4293.00 256.08,4293.00
             256.08,4293.00 258.54,4307.00 258.54,4307.00
             259.04,4310.85 257.47,4314.60 258.54,4322.00
             258.54,4322.00 261.57,4338.00 261.57,4338.00
             261.57,4338.00 262.17,4351.00 262.17,4351.00
             262.17,4351.00 264.15,4367.00 264.15,4367.00
             264.36,4376.19 266.31,4384.98 267.71,4394.00
             267.71,4394.00 269.58,4410.00 269.58,4410.00
             270.10,4413.95 269.52,4422.91 271.31,4425.69
             273.14,4428.51 277.07,4427.99 280.00,4428.00
             280.00,4428.00 1302.00,4428.00 1302.00,4428.00
             1302.00,4428.00 3347.00,4428.00 3347.00,4428.00
             3347.00,4428.00 3349.72,4404.00 3349.72,4404.00
             3349.72,4404.00 3352.00,4368.00 3352.00,4368.00
             3352.00,4368.00 3355.00,4368.00 3355.00,4368.00
             3355.00,4368.00 3356.00,4345.00 3356.00,4345.00
             3356.02,4330.06 3357.93,4326.55 3359.71,4313.00
             3359.71,4313.00 3361.09,4300.04 3361.09,4300.04
             3361.09,4300.04 3362.78,4293.83 3362.78,4293.83
             3363.84,4288.60 3363.93,4283.31 3364.00,4278.00
             3364.10,4270.86 3365.33,4271.45 3365.76,4266.00
             3365.76,4266.00 3370.16,4219.00 3370.16,4219.00
             3370.16,4219.00 3372.10,4210.00 3372.10,4210.00
             3372.10,4210.00 3372.10,4193.00 3372.10,4193.00
             3372.10,4193.00 3373.85,4177.00 3373.85,4177.00
             3373.85,4177.00 3373.85,4169.00 3373.85,4169.00
             3374.64,4162.66 3375.98,4164.94 3376.00,4154.00
             3376.00,4154.00 3376.00,4143.00 3376.00,4143.00
             3376.00,4143.00 3380.79,4100.00 3380.79,4100.00
             3380.79,4100.00 3382.50,4085.87 3382.50,4085.87
             3386.29,4077.92 3403.62,4075.84 3408.00,4070.00
             3413.19,4069.99 3417.28,4067.13 3422.00,4065.17
             3422.00,4065.17 3436.91,4059.07 3436.91,4059.07
             3436.91,4059.07 3446.00,4054.44 3446.00,4054.44
             3446.00,4054.44 3461.00,4048.90 3461.00,4048.90
             3461.00,4048.90 3468.00,4047.15 3468.00,4047.15
             3468.00,4047.15 3476.00,4042.84 3476.00,4042.84
             3476.00,4042.84 3485.58,4040.32 3485.58,4040.32
             3485.58,4040.32 3502.00,4032.90 3502.00,4032.90
             3502.00,4032.90 3508.00,4030.78 3508.00,4030.78
             3508.00,4030.78 3521.00,4023.40 3521.00,4023.40
             3521.00,4023.40 3548.91,4010.18 3548.91,4010.18
             3553.75,4007.45 3554.73,4004.94 3563.00,4001.34
             3563.00,4001.34 3578.00,3995.22 3578.00,3995.22
             3578.00,3995.22 3588.91,3992.48 3588.91,3992.48
             3588.91,3992.48 3598.00,3988.17 3598.00,3988.17
             3609.53,3983.53 3611.98,3986.06 3612.00,3975.00
             3612.00,3975.00 3612.00,3615.00 3612.00,3615.00
             3612.00,3615.00 3612.00,3421.00 3612.00,3421.00
             3611.98,3411.57 3610.46,3413.50 3610.00,3408.00
             3602.09,3403.08 3607.31,3394.64 3600.00,3392.00
             3599.51,3381.37 3597.76,3383.04 3594.85,3375.00
             3594.85,3375.00 3589.31,3357.00 3589.31,3357.00
             3589.31,3357.00 3582.25,3338.00 3582.25,3338.00
             3581.05,3333.57 3579.22,3332.90 3579.00,3328.00
             3579.00,3328.00 3575.00,3321.00 3575.00,3321.00
             3575.25,3317.93 3575.53,3317.83 3573.00,3316.00
             3573.00,3316.00 3574.00,3312.00 3574.00,3312.00
             3566.77,3306.64 3567.17,3301.05 3564.75,3293.00
             3561.27,3281.40 3559.85,3282.01 3558.45,3277.83
             3558.45,3277.83 3555.61,3267.00 3555.61,3267.00
             3555.61,3267.00 3542.03,3237.00 3542.03,3237.00
             3542.03,3237.00 3539.57,3228.28 3539.57,3228.28
             3539.57,3228.28 3533.38,3215.00 3533.38,3215.00
             3533.38,3215.00 3531.15,3204.04 3531.15,3204.04
             3531.15,3204.04 3527.27,3197.83 3527.27,3197.83
             3527.27,3197.83 3525.12,3191.30 3525.12,3191.30
             3523.93,3188.77 3522.57,3188.18 3520.41,3182.96
             3520.41,3182.96 3515.77,3166.00 3515.77,3166.00
             3513.18,3158.53 3511.49,3157.69 3510.45,3154.87
             3510.45,3154.87 3508.78,3147.91 3508.78,3147.91
             3508.78,3147.91 3504.83,3141.00 3504.83,3141.00
             3504.83,3141.00 3501.24,3126.00 3501.24,3126.00
             3501.24,3126.00 3494.47,3115.82 3494.47,3115.82
             3494.47,3115.82 3492.07,3107.17 3492.07,3107.17
             3492.07,3107.17 3488.50,3099.99 3488.50,3099.99
             3488.50,3099.99 3486.96,3093.00 3486.96,3093.00
             3486.96,3093.00 3480.76,3078.00 3480.76,3078.00
             3480.76,3078.00 3476.16,3069.01 3476.16,3069.01
             3476.16,3069.01 3473.39,3059.16 3473.39,3059.16
             3473.39,3059.16 3469.77,3052.70 3469.77,3052.70
             3469.77,3052.70 3467.47,3045.01 3467.47,3045.01
             3467.47,3045.01 3463.18,3037.83 3463.18,3037.83
             3463.18,3037.83 3457.49,3025.00 3457.49,3025.00
             3457.49,3025.00 3451.55,3009.17 3451.55,3009.17
             3451.55,3009.17 3445.63,2995.00 3445.63,2995.00
             3445.63,2995.00 3444.05,2989.09 3444.05,2989.09
             3444.05,2989.09 3437.49,2978.00 3437.49,2978.00
             3437.49,2978.00 3432.46,2963.09 3432.46,2963.09
             3432.46,2963.09 3429.18,2957.34 3429.18,2957.34
             3429.18,2957.34 3427.03,2952.00 3427.03,2952.00
             3427.03,2952.00 3423.62,2945.72 3423.62,2945.72
             3423.62,2945.72 3418.81,2933.00 3418.81,2933.00
             3418.81,2933.00 3405.48,2909.00 3405.48,2909.00
             3405.48,2909.00 3396.26,2887.00 3396.26,2887.00
             3396.26,2887.00 3386.04,2866.96 3386.04,2866.96
             3386.04,2866.96 3382.44,2856.07 3382.44,2856.07
             3380.49,2852.31 3378.30,2852.71 3376.85,2849.80
             3375.64,2847.37 3376.16,2844.05 3374.16,2840.00
             3369.70,2831.00 3369.34,2836.99 3364.00,2820.00
             3364.00,2820.00 3361.00,2821.00 3361.00,2821.00
             3360.37,2815.52 3359.40,2815.65 3357.18,2810.96
             3357.18,2810.96 3352.70,2801.00 3352.70,2801.00
             3348.40,2793.52 3346.79,2794.83 3340.63,2783.28
             3340.63,2783.28 3330.99,2762.41 3330.99,2762.41
             3329.64,2760.43 3327.58,2760.00 3325.72,2757.74
             3325.72,2757.74 3323.16,2753.42 3323.16,2753.42
             3323.16,2753.42 3319.36,2747.99 3319.36,2747.99
             3319.36,2747.99 3314.58,2739.10 3314.58,2739.10
             3314.58,2739.10 3300.39,2720.51 3300.39,2720.51
             3300.39,2720.51 3295.54,2715.33 3295.54,2715.33
             3295.54,2715.33 3286.77,2701.25 3286.77,2701.25
             3286.77,2701.25 3279.71,2694.89 3279.71,2694.89
             3273.68,2688.73 3259.38,2671.42 3256.00,2664.00
             3256.00,2664.00 3254.00,2665.00 3254.00,2665.00
             3254.00,2665.00 3253.00,2662.00 3253.00,2662.00
             3253.00,2662.00 3250.00,2663.00 3250.00,2663.00
             3246.90,2655.42 3244.09,2655.65 3239.33,2649.91
             3239.33,2649.91 3228.25,2635.87 3228.25,2635.87
             3228.25,2635.87 3223.46,2628.00 3223.46,2628.00
             3223.46,2628.00 3215.85,2617.96 3215.85,2617.96
             3214.72,2615.28 3215.01,2610.96 3215.00,2608.00
             3214.98,2604.42 3214.42,2594.38 3212.62,2591.59
             3208.23,2584.79 3200.90,2585.86 3192.29,2577.56
             3182.88,2568.49 3182.17,2561.38 3167.00,2559.00
             3167.00,2559.00 3167.00,2554.00 3167.00,2554.00
             3160.62,2556.08 3159.03,2552.19 3154.00,2548.84
             3154.00,2548.84 3144.30,2543.10 3144.30,2543.10
             3141.80,2540.95 3141.71,2538.94 3138.87,2537.45
             3138.87,2537.45 3130.00,2535.00 3130.00,2535.00
             3130.00,2535.00 3131.00,2532.00 3131.00,2532.00
             3131.00,2532.00 3114.00,2522.59 3114.00,2522.59
             3114.00,2522.59 3110.00,2522.00 3110.00,2522.00
             3110.00,2522.00 3111.00,2520.00 3111.00,2520.00
             3102.32,2518.62 3096.70,2511.44 3089.91,2507.03
             3084.76,2503.68 3076.88,2500.34 3073.00,2496.00
             3073.00,2496.00 3071.00,2497.00 3071.00,2497.00
             3067.13,2490.12 3063.74,2491.36 3057.99,2488.10
             3051.58,2484.48 3047.61,2479.45 3040.00,2479.00
             3038.42,2474.50 3036.59,2475.12 3033.04,2472.52
             3027.46,2468.43 3028.67,2467.39 3021.00,2466.00
             3021.00,2466.00 3022.00,2464.00 3022.00,2464.00
             3022.00,2464.00 3012.00,2457.42 3012.00,2457.42
             3012.00,2457.42 2990.28,2446.18 2990.28,2446.18
             2990.28,2446.18 2978.00,2436.86 2978.00,2436.86
             2978.00,2436.86 2957.04,2424.83 2957.04,2424.83
             2957.04,2424.83 2948.96,2419.05 2948.96,2419.05
             2948.96,2419.05 2938.09,2415.36 2938.09,2415.36
             2938.09,2415.36 2931.91,2410.72 2931.91,2410.72
             2931.91,2410.72 2918.00,2403.67 2918.00,2403.67
             2918.00,2403.67 2901.04,2398.32 2901.04,2398.32
             2901.04,2398.32 2892.96,2394.81 2892.96,2394.81
             2892.96,2394.81 2880.00,2390.87 2880.00,2390.87
             2880.00,2390.87 2869.00,2385.32 2869.00,2385.32
             2869.00,2385.32 2860.17,2382.61 2860.17,2382.61
             2860.17,2382.61 2853.96,2379.13 2853.96,2379.13
             2853.96,2379.13 2845.00,2376.25 2845.00,2376.25
             2845.00,2376.25 2823.00,2367.00 2823.00,2367.00
             2823.00,2367.00 2824.00,2365.00 2824.00,2365.00
             2824.00,2365.00 2800.00,2355.00 2800.00,2355.00
             2800.00,2355.00 2802.00,2353.00 2802.00,2353.00
             2802.00,2353.00 2802.00,2352.00 2802.00,2352.00
             2802.00,2352.00 2800.00,2354.00 2800.00,2354.00
             2800.00,2354.00 2787.00,2347.84 2787.00,2347.84
             2787.00,2347.84 2771.17,2341.63 2771.17,2341.63
             2771.17,2341.63 2763.00,2337.02 2763.00,2337.02
             2763.00,2337.02 2754.28,2334.10 2754.28,2334.10
             2754.28,2334.10 2742.00,2327.76 2742.00,2327.76
             2742.00,2327.76 2727.04,2322.62 2727.04,2322.62
             2727.04,2322.62 2711.00,2316.06 2711.00,2316.06
             2711.00,2316.06 2702.00,2313.36 2702.00,2313.36
             2702.00,2313.36 2690.00,2307.95 2690.00,2307.95
             2690.00,2307.95 2680.00,2304.78 2680.00,2304.78
             2680.00,2304.78 2668.00,2299.71 2668.00,2299.71
             2668.00,2299.71 2654.00,2296.25 2654.00,2296.25
             2654.00,2296.25 2646.00,2292.81 2646.00,2292.81
             2646.00,2292.81 2637.00,2290.76 2637.00,2290.76
             2637.00,2290.76 2617.00,2283.69 2617.00,2283.69
             2617.00,2283.69 2596.00,2278.37 2596.00,2278.37
             2596.00,2278.37 2588.00,2277.48 2588.00,2277.48
             2588.00,2277.48 2565.00,2272.39 2565.00,2272.39
             2560.55,2271.65 2558.14,2273.52 2553.00,2272.39
             2547.67,2271.48 2543.20,2267.52 2538.00,2265.35
             2538.00,2265.35 2516.04,2258.13 2516.04,2258.13
             2511.95,2256.46 2505.91,2245.98 2501.53,2242.34
             2501.53,2242.34 2495.26,2238.49 2495.26,2238.49
             2495.26,2238.49 2490.76,2234.18 2490.76,2234.18
             2490.76,2234.18 2455.00,2209.67 2455.00,2209.67
             2446.60,2204.76 2442.29,2200.50 2432.00,2200.00
             2429.53,2192.91 2421.54,2192.42 2417.28,2190.25
             2417.28,2190.25 2409.00,2184.41 2409.00,2184.41
             2409.00,2184.41 2402.00,2180.71 2402.00,2180.71
             2398.91,2178.96 2396.41,2177.21 2393.00,2175.96
             2393.00,2175.96 2387.09,2174.04 2387.09,2174.04
             2387.09,2174.04 2360.68,2161.18 2360.68,2161.18
             2360.68,2161.18 2354.09,2159.04 2354.09,2159.04
             2354.09,2159.04 2342.75,2151.65 2342.75,2151.65
             2342.75,2151.65 2328.17,2144.96 2328.17,2144.96
             2328.17,2144.96 2318.83,2138.62 2318.83,2138.62
             2318.83,2138.62 2309.00,2134.26 2309.00,2134.26
             2309.00,2134.26 2302.00,2130.49 2302.00,2130.49
             2291.74,2125.52 2289.46,2124.65 2287.00,2113.00
             2287.00,2113.00 2285.00,2114.00 2285.00,2114.00
             2285.00,2114.00 2285.00,2115.00 2285.00,2115.00
             2285.00,2115.00 2278.57,2106.58 2278.57,2106.58
             2278.57,2106.58 2270.50,2097.83 2270.50,2097.83
             2267.86,2094.29 2267.60,2092.08 2263.57,2088.39
             2263.57,2088.39 2256.52,2083.54 2256.52,2083.54
             2256.52,2083.54 2250.25,2076.48 2250.25,2076.48
             2248.38,2074.75 2246.64,2074.26 2245.31,2071.86
             2245.31,2071.86 2240.82,2052.00 2240.82,2052.00
             2240.82,2052.00 2237.63,2044.00 2237.63,2044.00
             2231.90,2029.82 2234.63,2035.10 2224.43,2022.72
             2222.51,2020.39 2221.36,2017.85 2218.79,2016.00
             2219.64,2012.86 2219.34,2004.44 2218.79,2001.28
             2218.79,2001.28 2216.63,1994.99 2216.63,1994.99
             2216.63,1994.99 2215.68,1985.00 2215.68,1985.00
             2214.22,1976.27 2212.94,1980.65 2212.84,1966.72
             2212.80,1960.91 2210.19,1955.63 2209.24,1949.99
             2209.24,1949.99 2207.35,1927.00 2207.35,1927.00
             2206.39,1916.82 2205.14,1920.54 2205.00,1908.00
             2205.00,1908.00 2200.94,1869.00 2200.94,1869.00
             2200.94,1869.00 2200.94,1858.00 2200.94,1858.00
             2198.88,1842.48 2193.73,1823.19 2198.00,1808.00
             2195.51,1804.64 2195.87,1802.71 2195.84,1798.72
             2195.80,1791.51 2193.09,1792.43 2192.39,1787.96
             2192.39,1787.96 2192.92,1780.00 2192.92,1780.00
             2192.92,1780.00 2192.00,1767.00 2192.00,1767.00
             2192.00,1767.00 2192.00,1734.00 2192.00,1734.00
             2191.91,1721.86 2189.59,1721.46 2189.75,1718.00
             2189.75,1718.00 2191.73,1711.00 2191.73,1711.00
             2191.73,1711.00 2192.27,1703.00 2192.27,1703.00
             2192.27,1703.00 2196.00,1690.00 2196.00,1690.00
             2196.00,1690.00 2190.00,1689.00 2190.00,1689.00
             2190.00,1689.00 2192.00,1678.00 2192.00,1678.00
             2194.05,1678.64 2196.29,1679.63 2197.35,1676.81
             2198.56,1673.56 2195.39,1671.90 2196.27,1666.91
             2196.27,1666.91 2203.00,1643.00 2203.00,1643.00
             2197.99,1642.72 2197.27,1639.56 2198.69,1635.09
             2200.76,1628.53 2207.41,1615.35 2204.00,1609.00
             2206.76,1605.14 2207.92,1594.67 2207.00,1590.00
             2212.28,1585.91 2209.14,1581.15 2210.94,1576.17
             2210.94,1576.17 2213.02,1571.83 2213.02,1571.83
             2214.02,1569.06 2215.83,1559.99 2215.96,1557.00
             2215.96,1557.00 2215.19,1542.00 2215.19,1542.00
             2215.19,1542.00 2219.00,1528.00 2219.00,1528.00
             2219.00,1528.00 2215.00,1524.00 2215.00,1524.00
             2215.00,1524.00 2219.00,1524.00 2219.00,1524.00
             2219.00,1524.00 2220.00,1495.00 2220.00,1495.00
             2219.96,1486.19 2215.68,1478.60 2223.00,1472.00
             2223.00,1472.00 2221.79,1465.13 2221.79,1465.13
             2221.79,1465.13 2226.00,1457.00 2226.00,1457.00
             2234.59,1463.69 2256.27,1479.38 2266.00,1481.90
             2272.88,1483.69 2277.02,1480.57 2287.00,1483.00
             2291.43,1479.18 2296.80,1478.87 2302.00,1476.48
             2307.19,1474.10 2308.89,1471.63 2313.00,1468.22
             2318.21,1463.89 2320.77,1464.80 2320.00,1457.00
             2327.60,1453.66 2330.32,1441.69 2331.13,1434.00
             2331.13,1434.00 2332.50,1411.00 2332.50,1411.00
             2332.50,1411.00 2330.94,1403.00 2330.94,1403.00
             2330.94,1403.00 2330.94,1394.00 2330.94,1394.00
             2329.66,1384.38 2326.01,1382.28 2328.64,1371.11
             2328.88,1370.08 2328.95,1369.56 2329.68,1368.72
             2331.32,1366.86 2334.45,1367.50 2341.00,1360.00
             2341.00,1360.00 2338.00,1360.00 2338.00,1360.00
             2338.00,1360.00 2343.95,1358.09 2343.95,1358.09
             2348.48,1356.37 2350.97,1353.09 2360.00,1352.49
             2364.09,1352.22 2372.19,1354.27 2375.69,1351.98
             2377.99,1350.47 2378.01,1347.76 2379.45,1345.00
             2381.33,1341.38 2384.61,1338.35 2387.00,1335.00
             2387.00,1335.00 2369.91,1327.58 2369.91,1327.58
             2369.91,1327.58 2358.09,1327.58 2358.09,1327.58
             2358.09,1327.58 2350.00,1320.00 2350.00,1320.00
             2350.00,1320.00 2352.00,1329.00 2352.00,1329.00
             2352.00,1329.00 2346.00,1329.00 2346.00,1329.00
             2346.87,1322.37 2348.55,1318.09 2342.00,1314.00
             2342.87,1312.35 2343.28,1311.94 2343.71,1310.00
             2343.71,1310.00 2344.90,1291.00 2344.90,1291.00
             2344.90,1291.00 2344.00,1281.00 2344.00,1281.00
             2343.96,1277.11 2344.92,1270.81 2342.00,1268.00
             2342.00,1268.00 2342.00,1266.00 2342.00,1266.00
             2352.60,1261.07 2356.07,1258.18 2368.00,1256.00
             2368.00,1256.00 2367.00,1254.00 2367.00,1254.00
             2377.43,1252.00 2379.19,1246.30 2384.88,1239.28
             2388.28,1235.08 2392.15,1232.53 2391.69,1225.99
             2391.27,1220.12 2386.62,1219.79 2384.74,1214.98
             2382.81,1210.05 2385.71,1206.80 2382.00,1198.00
             2384.92,1196.51 2386.90,1194.92 2388.44,1191.91
             2390.03,1188.79 2389.37,1185.31 2393.11,1184.00
             2392.96,1181.38 2392.47,1175.61 2393.11,1173.39
             2394.05,1170.88 2396.42,1168.76 2395.96,1166.09
             2395.53,1163.56 2391.04,1159.91 2389.00,1158.49
             2386.29,1156.62 2384.82,1156.42 2382.00,1155.22
             2373.95,1151.79 2369.06,1150.05 2360.00,1151.00
             2359.31,1147.75 2357.64,1144.26 2358.87,1141.02
             2361.03,1135.34 2367.26,1134.07 2372.00,1131.61
             2375.48,1129.81 2376.94,1127.81 2380.00,1125.68
             2386.05,1121.47 2389.44,1121.60 2392.00,1114.00
             2392.00,1114.00 2386.00,1111.00 2386.00,1111.00
             2386.00,1111.00 2390.00,1106.00 2390.00,1106.00
             2390.00,1106.00 2391.00,1109.00 2391.00,1109.00
             2391.00,1109.00 2392.98,1102.00 2392.98,1102.00
             2396.22,1095.01 2397.96,1099.23 2398.00,1088.00
             2398.00,1088.00 2395.00,1093.00 2395.00,1093.00
             2395.00,1093.00 2387.81,1088.00 2387.81,1088.00
             2392.90,1084.34 2387.27,1081.66 2387.81,1076.99
             2388.11,1070.51 2392.52,1071.90 2391.00,1062.00
             2391.00,1062.00 2394.00,1062.00 2394.00,1062.00
             2394.00,1062.00 2392.00,1057.00 2392.00,1057.00
             2392.00,1057.00 2408.00,1056.00 2408.00,1056.00
             2406.89,1049.45 2403.41,1051.07 2401.61,1045.98
             2400.36,1042.44 2402.59,1028.75 2404.00,1025.00
             2397.84,1021.93 2389.69,1016.65 2390.00,1008.92
             2392.25,1009.44 2394.57,1010.04 2396.73,1008.92
             2398.67,1007.78 2408.94,996.60 2400.00,993.00
             2400.00,993.00 2406.00,992.00 2406.00,992.00
             2406.00,992.00 2404.00,990.00 2404.00,990.00
             2404.00,990.00 2406.00,989.00 2406.00,989.00
             2406.00,989.00 2392.00,985.00 2392.00,985.00
             2392.00,985.00 2398.00,976.00 2398.00,976.00
             2396.05,974.21 2391.86,969.57 2389.77,968.72
             2385.66,967.06 2378.02,968.51 2373.83,969.54
             2373.83,969.54 2361.00,971.28 2361.00,971.28
             2357.12,972.18 2357.11,973.24 2352.00,974.00
             2352.00,974.00 2357.00,970.00 2357.00,970.00
             2357.00,970.00 2351.00,970.00 2351.00,970.00
             2351.00,970.00 2360.00,964.00 2360.00,964.00
             2360.00,964.00 2364.00,965.00 2364.00,965.00
             2361.75,963.57 2359.64,962.59 2358.60,959.94
             2357.39,956.88 2358.96,950.40 2355.84,950.34
             2354.00,950.30 2352.91,952.69 2352.18,954.02
             2349.59,958.72 2349.25,959.37 2344.98,962.96
             2334.55,971.75 2331.07,969.53 2319.00,966.00
             2319.00,966.00 2328.00,954.00 2328.00,954.00
             2328.00,954.00 2323.00,950.00 2323.00,950.00
             2323.00,950.00 2323.00,948.00 2323.00,948.00
             2323.00,948.00 2328.00,948.00 2328.00,948.00
             2328.00,948.00 2329.00,939.00 2329.00,939.00
             2329.00,939.00 2314.00,939.00 2314.00,939.00
             2314.00,939.00 2313.00,936.00 2313.00,936.00
             2313.00,936.00 2305.00,942.00 2305.00,942.00
             2300.16,934.15 2297.84,943.65 2295.44,946.96
             2293.95,949.03 2291.24,951.36 2289.00,952.57
             2287.23,953.53 2280.57,955.41 2280.57,951.66
             2280.57,951.66 2282.00,948.00 2282.00,948.00
             2271.55,939.66 2272.94,927.80 2271.49,923.04
             2270.14,918.59 2266.88,917.42 2266.57,911.00
             2266.57,911.00 2272.83,882.00 2272.83,882.00
             2272.83,882.00 2275.00,849.00 2275.00,849.00
             2274.91,842.75 2273.32,840.10 2272.43,834.00
             2272.43,834.00 2271.07,824.00 2271.07,824.00
             2271.07,824.00 2264.52,806.00 2264.52,806.00
             2263.44,802.20 2263.92,799.62 2262.18,796.00
             2262.18,796.00 2251.18,775.00 2251.18,775.00
             2250.78,773.02 2250.92,771.03 2251.18,769.00
             2251.18,769.00 2247.00,768.00 2247.00,768.00
             2247.00,768.00 2248.00,765.00 2248.00,765.00
             2244.93,763.93 2245.28,761.98 2245.00,759.00
             2239.96,757.47 2237.31,744.94 2236.28,740.00
             2236.28,740.00 2234.27,730.00 2234.27,730.00
             2234.27,730.00 2230.46,716.00 2230.46,716.00
             2230.46,716.00 2228.87,697.00 2228.87,697.00
             2228.41,693.28 2227.13,692.10 2226.41,689.00
             2226.41,689.00 2225.74,682.00 2225.74,682.00
             2225.74,682.00 2224.26,676.00 2224.26,676.00
             2223.70,672.69 2224.22,671.28 2223.07,667.00
             2223.07,667.00 2220.38,659.00 2220.38,659.00
             2220.38,659.00 2218.98,651.00 2218.98,651.00
             2218.98,651.00 2214.47,636.83 2214.47,636.83
             2214.47,636.83 2213.60,626.00 2213.60,626.00
             2213.60,626.00 2209.32,611.00 2209.32,611.00
             2209.32,611.00 2208.18,603.00 2208.18,603.00
             2208.18,603.00 2206.28,596.00 2206.28,596.00
             2206.12,593.34 2206.86,591.75 2206.28,589.00
             2206.28,589.00 2199.62,573.00 2199.62,573.00
             2197.66,566.46 2198.66,561.67 2194.19,550.00
             2194.19,550.00 2186.96,535.00 2186.96,535.00
             2185.52,530.92 2185.40,525.66 2182.41,519.00
             2180.41,514.57 2177.33,511.99 2174.69,507.99
             2174.69,507.99 2168.21,496.00 2168.21,496.00
             2165.21,490.89 2163.23,484.29 2158.00,481.00
             2158.00,481.00 2159.00,479.00 2159.00,479.00
             2159.00,479.00 2144.82,461.74 2144.82,461.74
             2144.82,461.74 2132.36,444.05 2132.36,444.05
             2132.36,444.05 2126.63,439.51 2126.63,439.51
             2124.63,437.47 2124.05,435.11 2120.39,432.07
             2120.39,432.07 2114.00,428.24 2114.00,428.24
             2114.00,428.24 2101.00,417.54 2101.00,417.54
             2101.00,417.54 2087.37,408.32 2087.37,408.32
             2087.37,408.32 2072.96,396.64 2072.96,396.64
             2072.96,396.64 2067.09,394.02 2067.09,394.02
             2062.00,391.03 2062.52,387.87 2055.00,388.00
             2050.86,380.36 2043.00,378.48 2036.04,373.50
             2036.04,373.50 2027.96,367.21 2027.96,367.21
             2027.96,367.21 2018.17,362.21 2018.17,362.21
             2018.17,362.21 2005.91,353.56 2005.91,353.56
             2005.91,353.56 1998.00,350.57 1998.00,350.57
             1998.00,350.57 1991.00,346.35 1991.00,346.35
             1991.00,346.35 1977.58,339.71 1977.58,339.71
             1977.58,339.71 1966.00,331.67 1966.00,331.67
             1961.06,328.82 1958.35,329.86 1950.18,323.41
             1944.34,318.80 1944.66,316.83 1940.87,313.59
             1936.83,310.14 1916.80,298.08 1912.00,296.64
             1909.44,295.88 1899.00,295.02 1896.00,295.00
             1881.13,294.93 1888.02,294.06 1878.00,291.01
             1874.78,290.03 1873.62,290.40 1870.00,288.72
             1870.00,288.72 1861.00,283.98 1861.00,283.98
             1861.00,283.98 1852.00,281.08 1852.00,281.08
             1852.00,281.08 1834.00,273.31 1834.00,273.31
             1834.00,273.31 1826.17,271.09 1826.17,271.09
             1826.17,271.09 1815.00,265.66 1815.00,265.66
             1815.00,265.66 1802.00,261.37 1802.00,261.37
             1802.00,261.37 1794.00,257.63 1794.00,257.63
             1794.00,257.63 1786.00,256.02 1786.00,256.02
             1786.00,256.02 1779.17,254.47 1779.17,254.47
             1779.17,254.47 1773.91,252.29 1773.91,252.29
             1773.91,252.29 1759.00,248.97 1759.00,248.97
             1759.00,248.97 1725.00,238.08 1725.00,238.08
             1725.00,238.08 1717.00,238.08 1717.00,238.08
             1710.87,237.33 1699.36,232.75 1695.00,239.00
             1689.98,235.41 1674.18,235.22 1668.04,236.47
             1668.04,236.47 1661.83,238.55 1661.83,238.55
             1661.83,238.55 1656.00,240.07 1656.00,240.07
             1656.00,240.07 1649.00,243.06 1649.00,243.06
             1649.00,243.06 1640.00,244.59 1640.00,244.59
             1640.00,244.59 1625.00,249.40 1625.00,249.40
             1625.00,249.40 1613.00,252.10 1613.00,252.10
             1613.00,252.10 1606.00,254.88 1606.00,254.88
             1606.00,254.88 1598.00,257.09 1598.00,257.09
             1591.96,259.09 1588.10,261.68 1582.72,264.69
             1582.72,264.69 1562.42,272.77 1562.42,272.77
             1562.42,272.77 1540.96,285.46 1540.96,285.46
             1540.96,285.46 1521.00,295.56 1521.00,295.56
             1521.00,295.56 1504.83,305.95 1504.83,305.95
             1504.83,305.95 1480.00,312.56 1480.00,312.56
             1480.00,312.56 1470.72,319.12 1470.72,319.12
             1466.17,321.70 1462.65,322.06 1458.13,326.33
             1454.49,329.76 1454.09,333.20 1451.21,336.95
             1449.20,339.56 1444.61,342.62 1441.75,344.56
             1441.75,344.56 1435.83,347.66 1435.83,347.66
             1435.83,347.66 1430.00,351.87 1430.00,351.87
             1430.00,351.87 1407.58,364.01 1407.58,364.01
             1407.58,364.01 1380.88,382.22 1380.88,382.22
             1380.88,382.22 1375.14,384.73 1375.14,384.73
             1375.14,384.73 1361.49,395.52 1361.49,395.52
             1359.52,397.53 1359.51,398.82 1356.78,400.90
             1356.78,400.90 1340.37,412.05 1340.37,412.05
             1340.37,412.05 1329.58,421.75 1329.58,421.75
             1329.58,421.75 1323.17,426.46 1323.17,426.46
             1323.17,426.46 1305.99,443.99 1305.99,443.99
             1299.07,449.86 1287.62,454.46 1285.00,464.00 Z
           M 2015.00,357.00
           C 2015.00,357.00 2015.00,358.00 2015.00,358.00
             2015.00,358.00 2016.00,357.00 2016.00,357.00
             2016.00,357.00 2015.00,357.00 2015.00,357.00 Z
           M 2117.00,430.00
           C 2117.00,430.00 2117.00,431.00 2117.00,431.00
             2117.00,431.00 2116.00,430.00 2116.00,430.00
             2116.00,430.00 2117.00,430.00 2117.00,430.00 Z
           M 2321.00,951.00
           C 2321.00,951.00 2321.00,952.00 2321.00,952.00
             2321.00,952.00 2320.00,951.00 2320.00,951.00
             2320.00,951.00 2321.00,951.00 2321.00,951.00 Z
           M 1104.00,1056.00
           C 1104.00,1058.11 1104.46,1063.64 1102.42,1064.83
             1100.30,1066.07 1097.64,1063.15 1098.63,1060.37
             1099.38,1058.28 1102.19,1057.01 1104.00,1056.00 Z
           M 1169.00,1071.00
           C 1169.00,1071.00 1169.00,1072.00 1169.00,1072.00
             1169.00,1072.00 1168.00,1071.00 1168.00,1071.00
             1168.00,1071.00 1169.00,1071.00 1169.00,1071.00 Z
           M 1124.00,1087.00
           C 1124.00,1087.00 1127.00,1089.00 1127.00,1089.00
             1124.82,1089.05 1124.04,1089.46 1124.00,1087.00 Z
           M 1165.00,1146.00
           C 1166.06,1151.23 1164.64,1152.73 1160.00,1155.00
             1160.00,1155.00 1161.00,1159.00 1161.00,1159.00
             1161.00,1159.00 1157.00,1162.00 1157.00,1162.00
             1157.00,1162.00 1153.00,1160.00 1153.00,1160.00
             1150.90,1166.32 1145.67,1170.66 1141.82,1176.00
             1139.88,1178.69 1137.78,1181.65 1134.09,1181.73
             1129.50,1181.83 1127.84,1177.09 1126.28,1173.71
             1121.99,1164.42 1117.29,1161.28 1120.00,1150.00
             1116.77,1147.87 1117.01,1146.59 1116.00,1143.00
             1116.00,1143.00 1120.00,1142.00 1120.00,1142.00
             1116.18,1136.40 1121.80,1130.69 1127.01,1131.89
             1127.01,1131.89 1136.00,1135.00 1136.00,1135.00
             1139.77,1135.93 1150.84,1138.13 1153.75,1139.70
             1159.51,1142.81 1154.25,1148.98 1165.00,1146.00 Z
           M 1151.00,1159.00
           C 1151.00,1159.00 1151.00,1160.00 1151.00,1160.00
             1151.00,1160.00 1152.00,1159.00 1152.00,1159.00
             1152.00,1159.00 1151.00,1159.00 1151.00,1159.00 Z
           M 1165.00,1179.00
           C 1165.00,1179.00 1169.00,1184.00 1169.00,1184.00
             1167.71,1193.50 1165.46,1193.72 1165.36,1198.00
             1165.23,1203.37 1169.82,1210.54 1164.44,1215.25
             1158.89,1220.10 1148.93,1210.65 1145.55,1206.68
             1144.26,1205.16 1142.60,1203.14 1142.62,1201.04
             1142.67,1197.43 1147.29,1195.79 1149.83,1194.13
             1156.31,1189.87 1155.00,1186.97 1165.00,1179.00 Z
           M 2362.00,1195.00
           C 2362.00,1195.00 2361.00,1198.00 2361.00,1198.00
             2361.00,1198.00 2372.00,1198.00 2372.00,1198.00
             2372.00,1198.00 2373.00,1200.00 2373.00,1200.00
             2373.05,1206.12 2375.19,1208.33 2374.73,1211.95
             2374.40,1214.61 2373.16,1215.48 2371.69,1217.45
             2367.76,1222.70 2365.33,1225.73 2358.04,1225.86
             2354.34,1225.93 2353.58,1224.43 2348.99,1224.04
             2343.77,1223.60 2338.28,1224.78 2334.74,1219.81
             2330.27,1213.54 2336.77,1197.94 2344.00,1206.00
             2347.39,1203.90 2348.91,1203.21 2349.00,1199.00
             2349.00,1199.00 2352.00,1197.00 2352.00,1197.00
             2356.19,1197.61 2356.84,1198.02 2360.00,1195.00
             2360.00,1195.00 2362.00,1195.00 2362.00,1195.00 Z
           M 2336.00,1202.00
           C 2336.00,1202.00 2336.00,1203.00 2336.00,1203.00
             2336.00,1203.00 2335.00,1202.00 2335.00,1202.00
             2335.00,1202.00 2336.00,1202.00 2336.00,1202.00 Z
           M 2330.00,1366.00
           C 2330.00,1366.00 2330.00,1367.00 2330.00,1367.00
             2330.00,1367.00 2329.00,1366.00 2329.00,1366.00
             2329.00,1366.00 2330.00,1366.00 2330.00,1366.00 Z
           M 2195.00,1682.00
           C 2195.00,1682.00 2195.00,1688.00 2195.00,1688.00
             2195.00,1688.00 2197.00,1688.00 2197.00,1688.00
             2197.00,1688.00 2195.00,1682.00 2195.00,1682.00 Z
           M 1261.00,2141.00
           C 1261.00,2141.00 1261.00,2142.00 1261.00,2142.00
             1261.00,2142.00 1260.00,2141.00 1260.00,2141.00
             1260.00,2141.00 1261.00,2141.00 1261.00,2141.00 Z
           M 3331.00,2766.00
           C 3331.00,2766.00 3331.00,2767.00 3331.00,2767.00
             3331.00,2767.00 3330.00,2766.00 3330.00,2766.00
             3330.00,2766.00 3331.00,2766.00 3331.00,2766.00 Z
           M 25.00,3502.00
           C 25.00,3502.00 25.00,3503.00 25.00,3503.00
             25.00,3503.00 24.00,3502.00 24.00,3502.00
             24.00,3502.00 25.00,3502.00 25.00,3502.00 Z
           M 2.00,3570.00
           C 2.00,3570.00 2.00,3571.00 2.00,3571.00
             2.00,3571.00 1.00,3570.00 1.00,3570.00
             1.00,3570.00 2.00,3570.00 2.00,3570.00 Z" />
</svg>
