<?xml version="1.0" encoding="UTF-8" standalone="no"?>
<!DOCTYPE svg PUBLIC "-//W3C//DTD SVG 20010904//EN"
              "http://www.w3.org/TR/2001/REC-SVG-20010904/DTD/svg10.dtd">

<svg xmlns="http://www.w3.org/2000/svg"
     width="12.7333in" height="13.96in"
     viewBox="0 0 3820 4188">
  <path id="face"
        fill="none" stroke="black" stroke-width="1"
        d="M 1617.00,525.00
           C 1613.97,528.04 1613.25,528.12 1609.00,528.00
             1609.00,528.00 1607.00,529.00 1607.00,529.00
             1607.00,529.00 1595.00,536.00 1595.00,536.00
             1595.00,536.00 1592.00,535.00 1592.00,535.00
             1592.00,535.00 1584.42,541.26 1584.42,541.26
             1584.42,541.26 1569.88,549.07 1569.88,549.07
             1569.88,549.07 1563.07,553.66 1563.07,553.66
             1563.07,553.66 1552.00,560.00 1552.00,560.00
             1552.00,560.00 1548.00,566.00 1548.00,566.00
             1548.00,566.00 1546.00,564.00 1546.00,564.00
             1546.00,564.00 1542.70,566.36 1542.70,566.36
             1542.70,566.36 1532.00,569.00 1532.00,569.00
             1527.31,572.19 1526.88,573.11 1521.00,573.00
             1519.29,577.63 1515.29,573.44 1513.00,580.00
             1513.00,580.00 1504.00,581.00 1504.00,581.00
             1504.00,581.00 1503.21,582.93 1503.21,582.93
             1503.21,582.93 1497.85,584.99 1497.85,584.99
             1497.85,584.99 1489.00,589.00 1489.00,589.00
             1489.00,589.00 1481.00,593.00 1481.00,593.00
             1481.00,593.00 1483.00,595.00 1483.00,595.00
             1483.00,595.00 1461.00,604.00 1461.00,604.00
             1461.00,604.00 1453.00,611.00 1453.00,611.00
             1447.23,611.29 1446.83,614.18 1442.13,617.40
             1442.13,617.40 1427.01,626.05 1427.01,626.05
             1427.01,626.05 1420.00,631.24 1420.00,631.24
             1416.16,633.77 1413.12,633.87 1412.00,639.00
             1412.00,639.00 1402.00,641.00 1402.00,641.00
             1402.90,642.94 1403.31,643.47 1401.00,644.00
             1399.54,649.83 1388.69,656.75 1384.04,660.76
             1381.39,663.05 1379.37,665.99 1376.00,667.00
             1376.00,667.00 1373.00,673.00 1373.00,673.00
             1373.00,673.00 1370.74,673.77 1370.74,673.77
             1370.74,673.77 1359.54,687.28 1359.54,687.28
             1359.54,687.28 1331.51,716.01 1331.51,716.01
             1331.51,716.01 1318.87,731.89 1318.87,731.89
             1318.87,731.89 1313.00,737.00 1313.00,737.00
             1312.27,741.73 1305.69,750.88 1302.00,754.00
             1301.85,757.70 1300.65,759.89 1297.00,761.00
             1297.00,761.00 1298.00,764.00 1298.00,764.00
             1298.00,764.00 1291.00,775.00 1291.00,775.00
             1290.12,778.73 1285.66,784.11 1283.60,788.00
             1283.60,788.00 1277.84,801.00 1277.84,801.00
             1277.84,801.00 1273.49,810.00 1273.49,810.00
             1273.49,810.00 1270.36,818.00 1270.36,818.00
             1270.36,818.00 1264.04,832.00 1264.04,832.00
             1264.04,832.00 1260.78,844.00 1260.78,844.00
             1259.26,848.28 1254.49,862.36 1254.27,866.28
             1254.27,866.28 1254.27,871.00 1254.27,871.00
             1254.27,871.00 1251.66,896.00 1251.66,896.00
             1251.66,896.00 1251.66,901.91 1251.66,901.91
             1251.66,901.91 1250.74,908.09 1250.74,908.09
             1250.74,908.09 1250.74,915.00 1250.74,915.00
             1250.74,915.00 1249.92,930.00 1249.92,930.00
             1249.92,930.00 1248.24,944.00 1248.24,944.00
             1248.24,944.00 1248.24,955.58 1248.24,955.58
             1248.24,955.58 1246.56,968.00 1246.56,968.00
             1243.89,984.44 1238.85,989.59 1237.18,1013.00
             1237.18,1013.00 1239.02,1035.00 1239.02,1035.00
             1239.02,1035.00 1239.02,1048.00 1239.02,1048.00
             1238.99,1060.33 1240.90,1070.07 1243.51,1082.00
             1245.88,1092.81 1252.86,1101.59 1253.00,1113.00
             1253.03,1115.87 1253.19,1120.36 1252.30,1123.00
             1251.19,1126.30 1247.06,1131.03 1244.85,1134.01
             1244.85,1134.01 1232.83,1152.00 1232.83,1152.00
             1227.55,1160.74 1221.50,1172.40 1218.09,1182.00
             1218.09,1182.00 1213.00,1197.00 1213.00,1197.00
             1211.35,1195.96 1210.13,1194.85 1208.00,1194.93
             1201.54,1195.17 1193.43,1211.25 1192.67,1217.00
             1192.67,1217.00 1190.80,1261.00 1190.80,1261.00
             1190.80,1261.00 1187.04,1284.00 1187.04,1284.00
             1187.04,1284.00 1183.74,1308.00 1183.74,1308.00
             1182.66,1314.44 1180.77,1320.31 1181.04,1327.00
             1181.48,1337.99 1188.91,1358.26 1194.22,1368.00
             1194.22,1368.00 1198.26,1374.00 1198.26,1374.00
             1198.26,1374.00 1202.89,1382.00 1202.89,1382.00
             1202.89,1382.00 1214.83,1400.17 1214.83,1400.17
             1214.83,1400.17 1222.63,1416.00 1222.63,1416.00
             1222.63,1416.00 1230.32,1430.00 1230.32,1430.00
             1230.32,1430.00 1232.81,1438.00 1232.81,1438.00
             1232.81,1438.00 1237.68,1449.00 1237.68,1449.00
             1240.29,1455.82 1242.33,1462.57 1245.92,1469.00
             1248.81,1474.18 1248.02,1474.51 1249.84,1479.00
             1253.34,1487.61 1254.73,1490.01 1259.23,1497.99
             1261.52,1502.04 1264.80,1507.92 1269.00,1510.00
             1268.79,1520.25 1274.47,1518.98 1278.32,1522.46
             1282.16,1525.93 1282.22,1527.45 1288.09,1529.63
             1298.91,1533.64 1321.44,1528.91 1334.00,1531.13
             1336.49,1531.57 1340.83,1532.42 1342.44,1534.46
             1344.49,1537.06 1343.50,1539.92 1347.00,1541.00
             1344.52,1551.20 1347.45,1551.48 1348.26,1558.00
             1348.26,1558.00 1348.26,1564.00 1348.26,1564.00
             1348.26,1564.00 1349.93,1571.00 1349.93,1571.00
             1350.09,1574.25 1348.65,1577.82 1349.31,1580.91
             1350.09,1584.53 1353.14,1586.02 1354.44,1590.00
             1355.25,1592.48 1355.19,1601.79 1355.27,1605.01
             1355.27,1605.01 1356.00,1620.00 1356.00,1620.00
             1356.00,1620.00 1358.46,1626.00 1358.46,1626.00
             1358.46,1626.00 1361.59,1640.00 1361.59,1640.00
             1361.59,1640.00 1364.84,1650.00 1364.84,1650.00
             1364.84,1650.00 1368.54,1669.00 1368.54,1669.00
             1367.19,1664.65 1376.90,1688.29 1375.12,1684.72
             1375.12,1684.72 1378.13,1690.04 1378.13,1690.04
             1379.67,1694.24 1378.23,1697.57 1380.15,1701.96
             1380.15,1701.96 1387.00,1712.00 1387.00,1712.00
             1386.60,1712.44 1386.11,1712.28 1385.91,1713.54
             1385.91,1713.54 1391.15,1729.09 1391.15,1729.09
             1391.15,1729.09 1392.27,1737.00 1392.27,1737.00
             1392.27,1737.00 1417.80,1782.00 1417.80,1782.00
             1417.80,1782.00 1461.74,1837.00 1461.74,1837.00
             1461.74,1837.00 1495.60,1880.00 1495.60,1880.00
             1495.60,1880.00 1508.30,1895.91 1508.30,1895.91
             1508.30,1895.91 1531.00,1916.16 1531.00,1916.16
             1531.00,1916.16 1562.00,1943.57 1562.00,1943.57
             1562.00,1943.57 1585.00,1961.21 1585.00,1961.21
             1585.00,1961.21 1630.00,1995.07 1630.00,1995.07
             1630.00,1995.07 1659.00,2009.25 1659.00,2009.25
             1659.00,2009.25 1687.00,2022.38 1687.00,2022.38
             1687.00,2022.38 1706.00,2025.27 1706.00,2025.27
             1706.00,2025.27 1738.00,2029.00 1738.00,2029.00
             1738.00,2029.00 1748.00,2029.00 1748.00,2029.00
             1748.00,2029.00 1794.00,2023.28 1794.00,2023.28
             1794.00,2023.28 1825.00,2018.96 1825.00,2018.96
             1825.00,2018.96 1861.00,2005.42 1861.00,2005.42
             1861.00,2005.42 1886.96,1995.45 1886.96,1995.45
             1891.07,1993.30 1890.41,1991.54 1903.00,1985.25
             1903.00,1985.25 1953.00,1959.70 1953.00,1959.70
             1953.00,1959.70 1986.00,1930.17 1986.00,1930.17
             1986.00,1930.17 2021.96,1897.00 2021.96,1897.00
             2021.96,1897.00 2064.25,1847.00 2064.25,1847.00
             2064.25,1847.00 2082.00,1820.00 2082.00,1820.00
             2097.93,1796.11 2113.62,1772.25 2127.31,1747.00
             2127.31,1747.00 2143.47,1717.00 2143.47,1717.00
             2145.99,1710.36 2145.75,1706.22 2147.29,1700.04
             2147.29,1700.04 2149.68,1693.87 2149.68,1693.87
             2149.68,1693.87 2151.10,1683.00 2151.10,1683.00
             2152.32,1677.14 2154.77,1675.38 2155.48,1671.00
             2155.48,1671.00 2154.93,1660.92 2154.93,1660.92
             2155.03,1652.09 2156.34,1655.12 2157.51,1649.00
             2157.51,1649.00 2157.51,1643.00 2157.51,1643.00
             2157.51,1643.00 2160.63,1630.00 2160.63,1630.00
             2160.63,1630.00 2161.46,1620.00 2161.46,1620.00
             2161.46,1620.00 2163.68,1611.00 2163.68,1611.00
             2163.68,1611.00 2164.99,1594.42 2164.99,1594.42
             2164.99,1594.42 2166.34,1585.74 2166.34,1585.74
             2166.76,1584.05 2167.56,1583.65 2167.80,1580.91
             2167.80,1580.91 2167.80,1572.04 2167.80,1572.04
             2167.80,1572.04 2169.97,1565.83 2169.97,1565.83
             2169.97,1565.83 2169.97,1555.00 2169.97,1555.00
             2169.97,1555.00 2172.59,1546.00 2172.59,1546.00
             2173.37,1540.97 2171.37,1535.85 2171.22,1531.00
             2171.04,1525.37 2172.47,1518.24 2174.41,1513.00
             2175.30,1510.61 2175.80,1507.36 2177.56,1505.51
             2180.05,1502.89 2186.47,1501.92 2190.00,1501.12
             2190.00,1501.12 2211.00,1496.94 2211.00,1496.94
             2211.00,1496.94 2223.00,1496.94 2223.00,1496.94
             2231.36,1495.61 2231.99,1492.59 2239.00,1493.00
             2245.28,1485.97 2251.13,1489.43 2257.00,1477.00
             2260.29,1476.31 2260.31,1476.29 2261.00,1473.00
             2262.71,1472.19 2264.08,1471.69 2265.51,1470.36
             2265.51,1470.36 2277.70,1455.96 2277.70,1455.96
             2277.70,1455.96 2281.76,1449.01 2281.76,1449.01
             2281.76,1449.01 2291.05,1437.83 2291.05,1437.83
             2291.05,1437.83 2296.19,1427.17 2296.19,1427.17
             2296.19,1427.17 2303.21,1416.00 2303.21,1416.00
             2303.21,1416.00 2309.61,1403.00 2309.61,1403.00
             2309.61,1403.00 2314.28,1395.58 2314.28,1395.58
             2314.28,1395.58 2317.03,1388.00 2317.03,1388.00
             2317.03,1388.00 2336.34,1348.01 2336.34,1348.01
             2336.34,1348.01 2340.83,1341.72 2340.83,1341.72
             2340.83,1341.72 2356.25,1312.00 2356.25,1312.00
             2362.16,1300.15 2367.98,1287.48 2368.00,1274.00
             2368.00,1274.00 2368.00,1269.00 2368.00,1269.00
             2367.93,1263.44 2364.30,1245.26 2362.46,1240.00
             2362.46,1240.00 2358.74,1231.00 2358.74,1231.00
             2358.74,1231.00 2355.69,1220.09 2355.69,1220.09
             2355.69,1220.09 2352.69,1213.91 2352.69,1213.91
             2352.69,1213.91 2351.12,1208.00 2351.12,1208.00
             2351.12,1208.00 2341.00,1177.00 2341.00,1177.00
             2341.00,1177.00 2338.00,1177.00 2338.00,1177.00
             2337.55,1173.54 2336.95,1173.06 2335.53,1170.00
             2330.32,1158.77 2326.39,1156.54 2316.27,1150.27
             2312.15,1147.71 2305.89,1144.25 2301.09,1143.32
             2301.09,1143.32 2295.84,1143.32 2295.84,1143.32
             2292.81,1143.23 2286.87,1143.91 2285.30,1140.69
             2284.21,1138.44 2285.41,1133.38 2286.00,1131.00
             2287.69,1124.25 2287.99,1123.00 2288.00,1116.00
             2288.03,1096.91 2284.84,1090.77 2281.75,1073.00
             2281.75,1073.00 2277.77,1053.00 2277.77,1053.00
             2277.77,1053.00 2276.53,1044.00 2276.53,1044.00
             2276.53,1044.00 2273.81,1035.00 2273.81,1035.00
             2273.81,1035.00 2271.77,1024.00 2271.77,1024.00
             2271.77,1024.00 2269.10,1014.00 2269.10,1014.00
             2269.10,1014.00 2268.18,1008.00 2268.18,1008.00
             2268.18,1008.00 2263.94,998.72 2263.94,998.72
             2263.13,995.54 2264.74,994.86 2261.83,985.00
             2261.83,985.00 2253.39,962.99 2253.39,962.99
             2253.39,962.99 2248.51,943.00 2248.51,943.00
             2248.51,943.00 2247.32,935.00 2247.32,935.00
             2247.32,935.00 2243.30,924.00 2243.30,924.00
             2243.30,924.00 2237.22,900.00 2237.22,900.00
             2237.22,900.00 2229.28,881.00 2229.28,881.00
             2227.45,876.41 2228.12,874.53 2227.20,871.88
             2227.20,871.88 2224.10,864.99 2224.10,864.99
             2224.10,864.99 2221.50,857.00 2221.50,857.00
             2219.65,851.67 2217.35,849.18 2217.00,843.00
             2217.00,843.00 2206.00,821.00 2206.00,821.00
             2206.00,821.00 2207.00,817.00 2207.00,817.00
             2207.00,817.00 2206.00,817.00 2206.00,817.00
             2206.00,817.00 2206.00,819.00 2206.00,819.00
             2206.00,819.00 2198.19,800.77 2198.19,800.77
             2198.19,800.77 2196.00,800.00 2196.00,800.00
             2196.00,800.00 2197.00,797.00 2197.00,797.00
             2193.27,795.68 2192.12,789.38 2189.87,786.17
             2189.87,786.17 2175.31,768.17 2175.31,768.17
             2171.24,763.68 2166.33,759.41 2166.00,753.00
             2161.68,752.12 2160.60,746.61 2159.09,743.00
             2159.09,743.00 2149.48,721.00 2149.48,721.00
             2149.48,721.00 2147.00,713.00 2147.00,713.00
             2147.00,713.00 2145.00,715.00 2145.00,715.00
             2145.00,715.00 2131.00,689.00 2131.00,689.00
             2119.28,684.02 2115.34,667.52 2104.00,662.00
             2104.00,662.00 2106.00,660.00 2106.00,660.00
             2099.51,654.26 2098.37,654.59 2095.00,646.00
             2095.00,646.00 2091.00,647.00 2091.00,647.00
             2091.00,647.00 2092.00,645.00 2092.00,645.00
             2092.00,645.00 2089.00,646.00 2089.00,646.00
             2089.00,646.00 2088.00,641.00 2088.00,641.00
             2088.00,641.00 2077.30,632.45 2077.30,632.45
             2077.30,632.45 2071.70,626.79 2071.70,626.79
             2071.70,626.79 2063.00,619.00 2063.00,619.00
             2059.31,618.85 2058.77,618.18 2057.00,615.00
             2053.03,614.20 2050.17,611.20 2046.77,609.22
             2041.33,606.06 2034.97,603.91 2032.00,598.00
             2032.00,598.00 2028.00,599.00 2028.00,599.00
             2028.00,599.00 2028.00,597.00 2028.00,597.00
             2028.00,597.00 2025.00,598.00 2025.00,598.00
             2023.90,594.52 2014.44,591.69 2011.00,592.00
             2008.91,587.00 2008.34,587.09 2004.00,584.00
             2004.00,584.00 2003.00,584.00 2003.00,584.00
             2003.00,584.00 2001.00,586.00 2001.00,586.00
             1998.57,581.65 1996.39,581.82 1992.00,580.00
             1985.39,577.26 1978.01,575.35 1973.00,570.00
             1968.39,569.65 1967.93,568.20 1963.97,566.72
             1957.67,564.37 1955.86,566.74 1951.00,561.00
             1947.96,560.78 1944.18,560.07 1943.00,557.00
             1934.66,557.28 1929.59,553.84 1922.09,551.72
             1922.09,551.72 1897.01,544.52 1897.01,544.52
             1897.01,544.52 1886.00,540.84 1886.00,540.84
             1886.00,540.84 1879.00,540.03 1879.00,540.03
             1873.31,539.03 1872.34,536.76 1867.00,537.00
             1863.23,531.41 1858.42,533.92 1853.00,533.36
             1847.52,532.78 1833.67,526.72 1828.00,524.48
             1823.20,522.58 1820.19,523.36 1816.00,520.00
             1816.00,520.00 1804.91,517.61 1804.91,517.61
             1804.91,517.61 1791.00,515.28 1791.00,515.28
             1791.00,515.28 1762.00,510.29 1762.00,510.29
             1762.00,510.29 1737.00,507.83 1737.00,507.83
             1737.00,507.83 1720.00,506.59 1720.00,506.59
             1720.00,506.59 1693.00,509.05 1693.00,509.05
             1693.00,509.05 1682.00,509.05 1682.00,509.05
             1682.00,509.05 1658.00,513.37 1658.00,513.37
             1658.00,513.37 1630.00,522.28 1630.00,522.28
             1630.00,522.28 1617.00,525.00 1617.00,525.00 Z
           M 1806.00,518.00
           C 1806.00,518.00 1806.00,519.00 1806.00,519.00
             1806.00,519.00 1805.00,518.00 1805.00,518.00
             1805.00,518.00 1806.00,518.00 1806.00,518.00 Z
           M 1860.00,534.00
           C 1860.00,534.00 1860.00,535.00 1860.00,535.00
             1860.00,535.00 1859.00,534.00 1859.00,534.00
             1859.00,534.00 1860.00,534.00 1860.00,534.00 Z
           M 1960.00,566.00
           C 1960.00,566.00 1960.00,567.00 1960.00,567.00
             1960.00,567.00 1959.00,566.00 1959.00,566.00
             1959.00,566.00 1960.00,566.00 1960.00,566.00 Z
           M 1966.00,568.00
           C 1966.00,568.00 1966.00,569.00 1966.00,569.00
             1966.00,569.00 1965.00,568.00 1965.00,568.00
             1965.00,568.00 1966.00,568.00 1966.00,568.00 Z
           M 1500.00,585.00
           C 1500.00,585.00 1500.00,586.00 1500.00,586.00
             1500.00,586.00 1499.00,585.00 1499.00,585.00
             1499.00,585.00 1500.00,585.00 1500.00,585.00 Z
           M 1498.00,586.00
           C 1498.00,586.00 1498.00,587.00 1498.00,587.00
             1498.00,587.00 1497.00,586.00 1497.00,586.00
             1497.00,586.00 1498.00,586.00 1498.00,586.00 Z
           M 1497.00,587.00
           C 1497.00,587.00 1497.00,588.00 1497.00,588.00
             1497.00,588.00 1496.00,587.00 1496.00,587.00
             1496.00,587.00 1497.00,587.00 1497.00,587.00 Z
           M 2008.00,587.00
           C 2008.00,587.00 2008.00,588.00 2008.00,588.00
             2008.00,588.00 2007.00,587.00 2007.00,587.00
             2007.00,587.00 2008.00,587.00 2008.00,587.00 Z
           M 2009.00,588.00
           C 2009.00,588.00 2009.00,589.00 2009.00,589.00
             2009.00,589.00 2008.00,588.00 2008.00,588.00
             2008.00,588.00 2009.00,588.00 2009.00,588.00 Z
           M 1467.00,602.00
           C 1467.00,602.00 1467.00,603.00 1467.00,603.00
             1467.00,603.00 1466.00,602.00 1466.00,602.00
             1466.00,602.00 1467.00,602.00 1467.00,602.00 Z
           M 1451.00,611.00
           C 1451.00,611.00 1451.00,612.00 1451.00,612.00
             1451.00,612.00 1450.00,611.00 1450.00,611.00
             1450.00,611.00 1451.00,611.00 1451.00,611.00 Z
           M 1450.00,612.00
           C 1450.00,612.00 1450.00,613.00 1450.00,613.00
             1450.00,613.00 1449.00,612.00 1449.00,612.00
             1449.00,612.00 1450.00,612.00 1450.00,612.00 Z
           M 2052.00,613.00
           C 2052.00,613.00 2052.00,614.00 2052.00,614.00
             2052.00,614.00 2051.00,613.00 2051.00,613.00
             2051.00,613.00 2052.00,613.00 2052.00,613.00 Z
           M 1415.00,636.00
           C 1415.00,636.00 1415.00,637.00 1415.00,637.00
             1415.00,637.00 1414.00,636.00 1414.00,636.00
             1414.00,636.00 1415.00,636.00 1415.00,636.00 Z
           M 1413.00,637.00
           C 1413.00,637.00 1413.00,638.00 1413.00,638.00
             1413.00,638.00 1412.00,637.00 1412.00,637.00
             1412.00,637.00 1413.00,637.00 1413.00,637.00 Z
           M 1388.00,659.00
           C 1388.00,659.00 1388.00,660.00 1388.00,660.00
             1388.00,660.00 1387.00,659.00 1387.00,659.00
             1387.00,659.00 1388.00,659.00 1388.00,659.00 Z
           M 1387.00,660.00
           C 1387.00,660.00 1387.00,661.00 1387.00,661.00
             1387.00,661.00 1386.00,660.00 1386.00,660.00
             1386.00,660.00 1387.00,660.00 1387.00,660.00 Z
           M 2147.00,715.00
           C 2147.00,715.00 2147.00,716.00 2147.00,716.00
             2147.00,716.00 2146.00,715.00 2146.00,715.00
             2146.00,715.00 2147.00,715.00 2147.00,715.00 Z
           M 2148.00,717.00
           C 2148.00,717.00 2148.00,718.00 2148.00,718.00
             2148.00,718.00 2147.00,717.00 2147.00,717.00
             2147.00,717.00 2148.00,717.00 2148.00,717.00 Z
           M 2153.00,730.00
           C 2153.00,730.00 2153.00,731.00 2153.00,731.00
             2153.00,731.00 2152.00,730.00 2152.00,730.00
             2152.00,730.00 2153.00,730.00 2153.00,730.00 Z
           M 2227.00,872.00
           C 2227.00,872.00 2227.00,873.00 2227.00,873.00
             2227.00,873.00 2226.00,872.00 2226.00,872.00
             2226.00,872.00 2227.00,872.00 2227.00,872.00 Z" />
  <path id="profile"
        fill="none" stroke="black" stroke-width="1"
        d="M 1617.00,525.00
           C 1613.97,528.04 1613.25,528.12 1609.00,528.00
             1609.00,528.00 1607.00,529.00 1607.00,529.00
             1607.00,529.00 1595.00,536.00 1595.00,536.00
             1595.00,536.00 1592.00,535.00 1592.00,535.00
             1592.00,535.00 1584.42,541.26 1584.42,541.26
             1584.42,541.26 1569.88,549.07 1569.88,549.07
             1569.88,549.07 1563.07,553.66 1563.07,553.66
             1563.07,553.66 1552.00,560.00 1552.00,560.00
             1552.00,560.00 1548.00,566.00 1548.00,566.00
             1548.00,566.00 1546.00,564.00 1546.00,564.00
             1546.00,564.00 1542.70,566.36 1542.70,566.36
             1542.70,566.36 1532.00,569.00 1532.00,569.00
             1527.31,572.19 1526.88,573.11 1521.00,573.00
             1519.29,577.63 1515.29,573.44 1513.00,580.00
             1513.00,580.00 1504.00,581.00 1504.00,581.00
             1504.00,581.00 1503.21,582.93 1503.21,582.93
             1503.21,582.93 1497.85,584.99 1497.85,584.99
             1497.85,584.99 1489.00,589.00 1489.00,589.00
             1489.00,589.00 1481.00,593.00 1481.00,593.00
             1481.00,593.00 1483.00,595.00 1483.00,595.00
             1483.00,595.00 1461.00,604.00 1461.00,604.00
             1461.00,604.00 1453.00,611.00 1453.00,611.00
             1447.23,611.29 1446.83,614.18 1442.13,617.40
             1442.13,617.40 1427.01,626.05 1427.01,626.05
             1427.01,626.05 1420.00,631.24 1420.00,631.24
             1416.16,633.77 1413.12,633.87 1412.00,639.00
             1412.00,639.00 1402.00,641.00 1402.00,641.00
             1402.90,642.94 1403.31,643.47 1401.00,644.00
             1399.54,649.83 1388.69,656.75 1384.04,660.76
             1381.39,663.05 1379.37,665.99 1376.00,667.00
             1376.00,667.00 1373.00,673.00 1373.00,673.00
             1373.00,673.00 1370.74,673.77 1370.74,673.77
             1370.74,673.77 1359.54,687.28 1359.54,687.28
             1359.54,687.28 1331.51,716.01 1331.51,716.01
             1331.51,716.01 1318.87,731.89 1318.87,731.89
             1318.87,731.89 1313.00,737.00 1313.00,737.00
             1312.27,741.73 1305.69,750.88 1302.00,754.00
             1301.85,757.70 1300.65,759.89 1297.00,761.00
             1297.00,761.00 1298.00,764.00 1298.00,764.00
             1298.00,764.00 1291.00,775.00 1291.00,775.00
             1290.12,778.73 1285.66,784.11 1283.60,788.00
             1283.60,788.00 1277.84,801.00 1277.84,801.00
             1277.84,801.00 1273.49,810.00 1273.49,810.00
             1273.49,810.00 1270.36,818.00 1270.36,818.00
             1270.36,818.00 1264.04,832.00 1264.04,832.00
             1264.04,832.00 1260.78,844.00 1260.78,844.00
             1259.26,848.28 1254.49,862.36 1254.27,866.28
             1254.27,866.28 1254.27,871.00 1254.27,871.00
             1254.27,871.00 1251.66,896.00 1251.66,896.00
             1251.66,896.00 1251.66,901.91 1251.66,901.91
             1251.66,901.91 1250.74,908.09 1250.74,908.09
             1250.74,908.09 1250.74,915.00 1250.74,915.00
             1250.74,915.00 1249.92,930.00 1249.92,930.00
             1249.92,930.00 1248.24,944.00 1248.24,944.00
             1248.24,944.00 1248.24,955.58 1248.24,955.58
             1248.24,955.58 1246.56,968.00 1246.56,968.00
             1243.89,984.44 1238.85,989.59 1237.18,1013.00
             1237.18,1013.00 1239.02,1035.00 1239.02,1035.00
             1239.02,1035.00 1239.02,1048.00 1239.02,1048.00
             1238.99,1060.33 1240.90,1070.07 1243.51,1082.00
             1245.88,1092.81 1252.86,1101.59 1253.00,1113.00
             1253.03,1115.87 1253.19,1120.36 1252.30,1123.00
             1251.19,1126.30 1247.06,1131.03 1244.85,1134.01
             1244.85,1134.01 1232.83,1152.00 1232.83,1152.00
             1227.55,1160.74 1221.50,1172.40 1218.09,1182.00
             1218.09,1182.00 1213.00,1197.00 1213.00,1197.00
             1211.35,1195.96 1210.13,1194.85 1208.00,1194.93
             1201.54,1195.17 1193.43,1211.25 1192.67,1217.00
             1192.67,1217.00 1190.80,1261.00 1190.80,1261.00
             1190.80,1261.00 1187.04,1284.00 1187.04,1284.00
             1187.04,1284.00 1183.74,1308.00 1183.74,1308.00
             1182.66,1314.44 1180.77,1320.31 1181.04,1327.00
             1181.48,1337.99 1188.91,1358.26 1194.22,1368.00
             1194.22,1368.00 1198.26,1374.00 1198.26,1374.00
             1198.26,1374.00 1202.89,1382.00 1202.89,1382.00
             1202.89,1382.00 1214.83,1400.17 1214.83,1400.17
             1214.83,1400.17 1222.63,1416.00 1222.63,1416.00
             1222.63,1416.00 1230.32,1430.00 1230.32,1430.00
             1230.32,1430.00 1232.81,1438.00 1232.81,1438.00
             1232.81,1438.00 1237.68,1449.00 1237.68,1449.00
             1240.29,1455.82 1242.33,1462.57 1245.92,1469.00
             1248.81,1474.18 1248.02,1474.51 1249.84,1479.00
             1253.34,1487.61 1254.73,1490.01 1259.23,1497.99
             1261.52,1502.04 1264.80,1507.92 1269.00,1510.00
             1268.79,1520.25 1274.47,1518.98 1278.32,1522.46
             1282.16,1525.93 1282.22,1527.45 1288.09,1529.63
             1298.91,1533.64 1321.44,1528.91 1334.00,1531.13
             1336.49,1531.57 1340.83,1532.42 1342.44,1534.46
             1344.49,1537.06 1343.50,1539.92 1347.00,1541.00
             1344.52,1551.20 1347.45,1551.48 1348.26,1558.00
             1348.26,1558.00 1348.26,1564.00 1348.26,1564.00
             1348.26,1564.00 1349.93,1571.00 1349.93,1571.00
             1350.09,1574.25 1348.65,1577.82 1349.31,1580.91
             1350.09,1584.53 1353.14,1586.02 1354.44,1590.00
             1355.25,1592.48 1355.19,1601.79 1355.27,1605.01
             1355.27,1605.01 1356.00,1620.00 1356.00,1620.00
             1356.00,1620.00 1358.46,1626.00 1358.46,1626.00
             1358.46,1626.00 1361.59,1640.00 1361.59,1640.00
             1361.59,1640.00 1364.84,1650.00 1364.84,1650.00
             1364.84,1650.00 1368.54,1669.00 1368.54,1669.00
             1367.19,1664.65 1376.90,1688.29 1375.12,1684.72
             1375.12,1684.72 1378.13,1690.04 1378.13,1690.04
             1379.67,1694.24 1378.23,1697.57 1380.15,1701.96
             1380.15,1701.96 1387.00,1712.00 1387.00,1712.00
             1384.65,1714.63 1387.03,1718.09 1388.29,1720.99
             1393.04,1731.89 1390.68,1732.25 1392.27,1737.00
             1392.27,1737.00 1395.14,1743.00 1395.14,1743.00
             1396.92,1747.02 1396.05,1748.86 1396.60,1753.00
             1396.60,1753.00 1398.40,1778.00 1398.40,1778.00
             1398.40,1778.00 1398.40,1789.00 1398.40,1789.00
             1398.40,1789.00 1399.21,1795.00 1399.21,1795.00
             1399.21,1795.00 1401.00,1815.00 1401.00,1815.00
             1401.00,1815.00 1402.52,1845.00 1402.52,1845.00
             1402.52,1845.00 1405.36,1860.00 1405.36,1860.00
             1405.36,1860.00 1405.36,1867.00 1405.36,1867.00
             1405.36,1867.00 1405.36,1874.00 1405.36,1874.00
             1405.36,1874.00 1405.36,1883.00 1405.36,1883.00
             1405.48,1889.13 1406.72,1886.19 1407.01,1899.00
             1407.01,1899.00 1409.00,1929.00 1409.00,1929.00
             1409.00,1929.00 1411.04,1963.00 1411.04,1963.00
             1411.04,1963.00 1412.00,1974.00 1412.00,1974.00
             1412.09,1982.37 1413.75,1996.85 1415.52,2005.00
             1415.52,2005.00 1418.54,2017.28 1418.54,2017.28
             1418.54,2017.28 1420.00,2043.00 1420.00,2043.00
             1420.01,2052.22 1420.88,2051.24 1421.85,2059.00
             1421.85,2059.00 1423.09,2077.00 1423.09,2077.00
             1423.09,2077.00 1424.00,2087.00 1424.00,2087.00
             1424.07,2093.02 1424.79,2101.47 1422.26,2106.99
             1422.26,2106.99 1413.51,2119.09 1413.51,2119.09
             1411.65,2121.47 1408.41,2126.23 1405.87,2127.49
             1400.64,2130.09 1385.16,2129.99 1379.00,2130.00
             1364.52,2130.02 1364.51,2133.32 1357.00,2136.19
             1357.00,2136.19 1346.17,2139.73 1346.17,2139.73
             1330.00,2146.82 1326.65,2155.06 1317.69,2169.00
             1315.31,2172.71 1309.41,2183.89 1305.82,2185.40
             1304.10,2186.12 1300.91,2186.00 1299.00,2185.96
             1299.00,2185.96 1281.00,2185.96 1281.00,2185.96
             1281.00,2185.96 1272.00,2185.05 1272.00,2185.05
             1272.00,2185.05 1251.00,2185.05 1251.00,2185.05
             1251.00,2185.05 1241.00,2185.82 1241.00,2185.82
             1241.00,2185.82 1231.00,2185.82 1231.00,2185.82
             1220.63,2184.83 1222.37,2182.83 1211.09,2185.82
             1208.45,2186.29 1206.48,2186.59 1204.00,2187.86
             1204.00,2187.86 1190.92,2196.81 1190.92,2196.81
             1190.92,2196.81 1185.96,2202.68 1185.96,2202.68
             1181.90,2207.00 1174.03,2211.41 1168.00,2211.00
             1162.74,2215.28 1157.84,2215.05 1153.28,2217.23
             1153.28,2217.23 1130.87,2229.00 1130.87,2229.00
             1130.87,2229.00 1124.83,2231.21 1124.83,2231.21
             1124.83,2231.21 1119.00,2234.48 1119.00,2234.48
             1119.00,2234.48 1111.00,2237.89 1111.00,2237.89
             1111.00,2237.89 1102.00,2243.01 1102.00,2243.01
             1102.00,2243.01 1092.04,2246.99 1092.04,2246.99
             1092.04,2246.99 1085.83,2250.87 1085.83,2250.87
             1085.83,2250.87 1074.00,2256.73 1074.00,2256.73
             1074.00,2256.73 1066.00,2259.53 1066.00,2259.53
             1066.00,2259.53 1055.00,2266.47 1055.00,2266.47
             1055.00,2266.47 1043.00,2272.71 1043.00,2272.71
             1043.00,2272.71 1037.28,2274.90 1037.28,2274.90
             1037.28,2274.90 1015.00,2287.21 1015.00,2287.21
             999.70,2295.33 996.31,2294.05 988.04,2298.06
             984.21,2299.91 983.81,2301.33 980.91,2303.10
             980.91,2303.10 974.00,2306.33 974.00,2306.33
             974.00,2306.33 966.00,2311.20 966.00,2311.20
             966.00,2311.20 959.28,2314.30 959.28,2314.30
             959.28,2314.30 954.93,2317.04 954.93,2317.04
             954.93,2317.04 950.51,2318.79 950.51,2318.79
             950.51,2318.79 940.42,2326.16 940.42,2326.16
             932.55,2331.14 927.38,2326.54 928.00,2336.00
             928.00,2336.00 923.00,2339.00 923.00,2339.00
             922.35,2330.81 919.60,2335.98 914.00,2332.00
             909.05,2337.71 902.95,2340.15 896.00,2342.91
             892.57,2344.28 888.08,2345.17 885.74,2348.26
             883.82,2350.79 884.03,2354.00 884.00,2357.22
             881.41,2357.00 875.51,2356.81 873.28,2357.22
             873.28,2357.22 860.00,2364.47 860.00,2364.47
             860.00,2364.47 849.00,2368.68 849.00,2368.68
             849.00,2368.68 834.00,2377.02 834.00,2377.02
             834.00,2377.02 828.04,2379.07 828.04,2379.07
             828.04,2379.07 795.00,2395.69 795.00,2395.69
             795.00,2395.69 783.00,2400.22 783.00,2400.22
             783.00,2400.22 775.00,2404.42 775.00,2404.42
             775.00,2404.42 754.17,2413.63 754.17,2413.63
             754.17,2413.63 742.00,2419.76 742.00,2419.76
             742.00,2419.76 729.00,2425.11 729.00,2425.11
             729.00,2425.11 720.42,2427.64 720.42,2427.64
             720.42,2427.64 708.00,2434.78 708.00,2434.78
             708.00,2434.78 699.96,2437.50 699.96,2437.50
             699.96,2437.50 690.00,2442.49 690.00,2442.49
             690.00,2442.49 666.17,2452.63 666.17,2452.63
             666.17,2452.63 636.09,2469.55 636.09,2469.55
             636.09,2469.55 630.34,2472.61 630.34,2472.61
             630.34,2472.61 621.74,2480.02 621.74,2480.02
             621.74,2480.02 612.04,2486.49 612.04,2486.49
             612.04,2486.49 596.89,2499.09 596.89,2499.09
             596.89,2499.09 585.45,2507.04 585.45,2507.04
             585.45,2507.04 568.82,2522.61 568.82,2522.61
             568.82,2522.61 562.17,2527.46 562.17,2527.46
             562.17,2527.46 556.93,2532.68 556.93,2532.68
             556.93,2532.68 533.49,2554.01 533.49,2554.01
             533.49,2554.01 514.25,2571.60 514.25,2571.60
             514.25,2571.60 499.96,2587.00 499.96,2587.00
             499.96,2587.00 490.04,2595.77 490.04,2595.77
             490.04,2595.77 473.00,2613.83 473.00,2613.83
             473.00,2613.83 456.17,2627.32 456.17,2627.32
             456.17,2627.32 450.13,2633.68 450.13,2633.68
             450.13,2633.68 440.41,2642.51 440.41,2642.51
             440.41,2642.51 410.03,2669.90 410.03,2669.90
             410.03,2669.90 402.91,2674.88 402.91,2674.88
             402.91,2674.88 397.00,2677.11 397.00,2677.11
             390.51,2680.08 378.99,2686.44 374.75,2692.05
             366.22,2703.31 369.03,2705.19 365.29,2710.72
             360.01,2718.53 356.45,2720.45 352.68,2725.29
             352.68,2725.29 340.63,2744.42 340.63,2744.42
             340.63,2744.42 335.19,2755.07 335.19,2755.07
             335.19,2755.07 326.51,2770.17 326.51,2770.17
             326.51,2770.17 321.74,2781.00 321.74,2781.00
             321.74,2781.00 309.69,2805.00 309.69,2805.00
             309.69,2805.00 303.05,2817.00 303.05,2817.00
             303.05,2817.00 293.39,2842.00 293.39,2842.00
             293.39,2842.00 288.60,2851.00 288.60,2851.00
             288.60,2851.00 282.39,2868.00 282.39,2868.00
             282.39,2868.00 278.55,2876.00 278.55,2876.00
             278.55,2876.00 274.76,2888.00 274.76,2888.00
             274.76,2888.00 266.72,2904.00 266.72,2904.00
             266.72,2904.00 263.40,2914.00 263.40,2914.00
             263.40,2914.00 257.51,2926.00 257.51,2926.00
             257.51,2926.00 246.77,2953.00 246.77,2953.00
             246.77,2953.00 242.46,2962.00 242.46,2962.00
             242.46,2962.00 234.25,2985.00 234.25,2985.00
             234.25,2985.00 229.75,2995.00 229.75,2995.00
             229.75,2995.00 221.95,3018.00 221.95,3018.00
             221.95,3018.00 213.23,3040.00 213.23,3040.00
             213.23,3040.00 202.95,3069.00 202.95,3069.00
             202.95,3069.00 194.64,3090.00 194.64,3090.00
             194.64,3090.00 192.56,3097.00 192.56,3097.00
             192.56,3097.00 160.53,3181.00 160.53,3181.00
             160.53,3181.00 154.31,3200.00 154.31,3200.00
             154.31,3200.00 132.60,3259.00 132.60,3259.00
             132.60,3259.00 119.69,3292.00 119.69,3292.00
             119.69,3292.00 84.58,3393.00 84.58,3393.00
             84.58,3393.00 64.42,3442.00 64.42,3442.00
             64.42,3442.00 47.58,3485.00 47.58,3485.00
             47.58,3485.00 41.09,3501.00 41.09,3501.00
             41.09,3501.00 31.98,3531.00 31.98,3531.00
             31.98,3531.00 13.15,3585.00 13.15,3585.00
             9.14,3594.40 0.13,3612.45 0.00,3622.00
             0.00,3622.00 0.00,3789.00 0.00,3789.00
             0.00,3789.00 0.00,4086.00 0.00,4086.00
             0.02,4095.96 0.56,4094.65 15.00,4100.05
             15.00,4100.05 31.00,4106.10 31.00,4106.10
             39.52,4108.69 38.06,4107.34 48.00,4111.58
             48.00,4111.58 76.00,4123.54 76.00,4123.54
             76.00,4123.54 88.00,4127.23 88.00,4127.23
             88.00,4127.23 130.00,4144.42 130.00,4144.42
             130.00,4144.42 179.00,4167.40 179.00,4167.40
             179.00,4167.40 211.00,4187.30 211.00,4187.30
             213.47,4188.13 216.41,4188.00 219.00,4188.00
             219.00,4188.00 813.00,4188.00 813.00,4188.00
             813.00,4188.00 3492.00,4188.00 3492.00,4188.00
             3492.00,4188.00 3481.42,4136.00 3481.42,4136.00
             3481.42,4136.00 3465.87,4062.00 3465.87,4062.00
             3465.87,4062.00 3457.63,4030.00 3457.63,4030.00
             3456.87,4026.98 3454.66,4021.14 3456.69,4018.49
             3457.75,4017.11 3462.25,4014.98 3464.00,4014.00
             3464.00,4014.00 3482.00,4004.75 3482.00,4004.75
             3482.00,4004.75 3542.00,3974.75 3542.00,3974.75
             3542.00,3974.75 3574.00,3958.25 3574.00,3958.25
             3574.00,3958.25 3603.00,3943.57 3603.00,3943.57
             3603.00,3943.57 3704.00,3883.23 3704.00,3883.23
             3712.37,3878.50 3714.50,3879.82 3720.00,3877.47
             3720.00,3877.47 3737.00,3867.60 3737.00,3867.60
             3737.00,3867.60 3800.00,3829.33 3800.00,3829.33
             3805.83,3825.93 3816.55,3822.58 3819.43,3815.71
             3820.13,3814.03 3820.00,3810.87 3820.00,3809.00
             3820.00,3809.00 3820.00,3616.00 3820.00,3616.00
             3819.98,3605.16 3816.80,3602.95 3813.34,3593.00
             3813.34,3593.00 3807.83,3577.00 3807.83,3577.00
             3807.83,3577.00 3780.18,3526.00 3780.18,3526.00
             3780.18,3526.00 3760.62,3486.72 3760.62,3486.72
             3760.62,3486.72 3748.74,3462.00 3748.74,3462.00
             3748.74,3462.00 3741.86,3450.00 3741.86,3450.00
             3741.86,3450.00 3723.14,3411.00 3723.14,3411.00
             3723.14,3411.00 3705.87,3379.00 3705.87,3379.00
             3705.87,3379.00 3685.63,3339.00 3685.63,3339.00
             3685.63,3339.00 3682.11,3331.09 3682.11,3331.09
             3682.11,3331.09 3677.66,3323.96 3677.66,3323.96
             3677.66,3323.96 3673.87,3315.00 3673.87,3315.00
             3673.87,3315.00 3664.28,3298.00 3664.28,3298.00
             3664.28,3298.00 3634.12,3238.00 3634.12,3238.00
             3634.12,3238.00 3621.44,3210.00 3621.44,3210.00
             3621.44,3210.00 3617.88,3201.28 3617.88,3201.28
             3617.88,3201.28 3612.27,3191.00 3612.27,3191.00
             3612.27,3191.00 3604.26,3174.00 3604.26,3174.00
             3598.59,3162.29 3591.65,3145.25 3584.53,3134.83
             3582.07,3131.24 3580.55,3126.62 3577.00,3124.00
             3577.00,3124.00 3578.00,3121.00 3578.00,3121.00
             3578.00,3121.00 3575.00,3120.00 3575.00,3120.00
             3574.82,3117.08 3575.00,3115.88 3572.00,3115.00
             3571.99,3111.45 3572.04,3110.94 3569.00,3109.00
             3569.00,3109.00 3568.00,3103.00 3568.00,3103.00
             3568.00,3103.00 3566.00,3104.00 3566.00,3104.00
             3566.00,3104.00 3567.00,3101.00 3567.00,3101.00
             3567.00,3101.00 3565.00,3102.00 3565.00,3102.00
             3565.00,3102.00 3566.00,3099.00 3566.00,3099.00
             3562.75,3097.91 3561.73,3093.97 3560.25,3091.00
             3555.45,3081.42 3552.82,3079.92 3551.00,3069.00
             3551.00,3069.00 3549.00,3071.00 3549.00,3071.00
             3549.00,3071.00 3547.00,3065.00 3547.00,3065.00
             3547.00,3065.00 3549.00,3066.00 3549.00,3066.00
             3549.00,3066.00 3546.00,3065.00 3546.00,3065.00
             3546.00,3065.00 3547.00,3061.00 3547.00,3061.00
             3547.00,3061.00 3545.00,3063.00 3545.00,3063.00
             3545.00,3063.00 3544.00,3059.00 3544.00,3059.00
             3544.00,3059.00 3545.00,3056.00 3545.00,3056.00
             3545.00,3056.00 3543.00,3057.00 3543.00,3057.00
             3543.00,3057.00 3534.46,3040.00 3534.46,3040.00
             3534.46,3040.00 3529.96,3032.00 3529.96,3032.00
             3529.96,3032.00 3527.54,3025.28 3527.54,3025.28
             3527.54,3025.28 3524.27,3018.99 3524.27,3018.99
             3524.27,3018.99 3517.47,3002.00 3517.47,3002.00
             3517.47,3002.00 3508.50,2984.09 3508.50,2984.09
             3508.50,2984.09 3504.77,2977.91 3504.77,2977.91
             3504.77,2977.91 3497.54,2960.00 3497.54,2960.00
             3497.54,2960.00 3491.25,2948.00 3491.25,2948.00
             3491.25,2948.00 3488.59,2941.00 3488.59,2941.00
             3488.59,2941.00 3484.26,2933.00 3484.26,2933.00
             3484.26,2933.00 3479.49,2923.00 3479.49,2923.00
             3479.49,2923.00 3474.04,2914.00 3474.04,2914.00
             3474.04,2914.00 3466.82,2898.00 3466.82,2898.00
             3466.82,2898.00 3462.64,2891.00 3462.64,2891.00
             3462.64,2891.00 3458.53,2882.17 3458.53,2882.17
             3458.53,2882.17 3451.64,2870.00 3451.64,2870.00
             3451.64,2870.00 3445.97,2857.00 3445.97,2857.00
             3445.97,2857.00 3440.49,2847.00 3440.49,2847.00
             3440.49,2847.00 3436.87,2839.00 3436.87,2839.00
             3436.87,2839.00 3431.74,2830.72 3431.74,2830.72
             3431.74,2830.72 3422.49,2812.00 3422.49,2812.00
             3422.49,2812.00 3410.18,2791.00 3410.18,2791.00
             3410.18,2791.00 3399.83,2770.17 3399.83,2770.17
             3399.83,2770.17 3385.23,2746.00 3385.23,2746.00
             3385.23,2746.00 3379.83,2735.00 3379.83,2735.00
             3379.83,2735.00 3365.77,2710.72 3365.77,2710.72
             3365.77,2710.72 3355.69,2691.00 3355.69,2691.00
             3355.69,2691.00 3345.61,2675.00 3345.61,2675.00
             3345.61,2675.00 3335.78,2657.28 3335.78,2657.28
             3335.78,2657.28 3330.88,2650.00 3330.88,2650.00
             3330.88,2650.00 3326.03,2640.00 3326.03,2640.00
             3326.03,2640.00 3314.26,2623.00 3314.26,2623.00
             3314.26,2623.00 3306.97,2610.17 3306.97,2610.17
             3306.97,2610.17 3301.52,2602.99 3301.52,2602.99
             3301.52,2602.99 3294.77,2591.58 3294.77,2591.58
             3294.77,2591.58 3281.97,2575.00 3281.97,2575.00
             3281.97,2575.00 3270.96,2559.04 3270.96,2559.04
             3270.96,2559.04 3265.01,2551.91 3265.01,2551.91
             3265.01,2551.91 3249.44,2532.73 3249.44,2532.73
             3249.44,2532.73 3239.99,2521.12 3239.99,2521.12
             3239.99,2521.12 3228.87,2510.82 3228.87,2510.82
             3226.21,2509.04 3222.70,2507.89 3220.57,2505.61
             3216.58,2501.34 3219.20,2498.55 3212.70,2492.14
             3203.44,2483.01 3188.98,2480.82 3178.00,2474.54
             3178.00,2474.54 3147.00,2456.20 3147.00,2456.20
             3147.00,2456.20 3126.00,2442.09 3126.00,2442.09
             3126.00,2442.09 3105.00,2430.54 3105.00,2430.54
             3105.00,2430.54 3090.83,2421.30 3090.83,2421.30
             3090.83,2421.30 3072.00,2410.22 3072.00,2410.22
             3072.00,2410.22 3062.00,2402.21 3062.00,2402.21
             3062.00,2402.21 3055.58,2398.14 3055.58,2398.14
             3055.58,2398.14 3040.00,2386.10 3040.00,2386.10
             3040.00,2386.10 3033.00,2381.60 3033.00,2381.60
             3033.00,2381.60 3005.00,2360.67 3005.00,2360.67
             3005.00,2360.67 2994.17,2354.85 2994.17,2354.85
             2994.17,2354.85 2984.00,2348.33 2984.00,2348.33
             2984.00,2348.33 2974.00,2343.28 2974.00,2343.28
             2974.00,2343.28 2964.00,2336.76 2964.00,2336.76
             2964.00,2336.76 2953.00,2333.29 2953.00,2333.29
             2953.00,2333.29 2925.00,2321.71 2925.00,2321.71
             2925.00,2321.71 2913.00,2318.96 2913.00,2318.96
             2904.66,2316.47 2903.75,2313.66 2898.00,2311.94
             2898.00,2311.94 2884.04,2309.45 2884.04,2309.45
             2884.04,2309.45 2877.83,2307.07 2877.83,2307.07
             2877.83,2307.07 2866.00,2304.43 2866.00,2304.43
             2866.00,2304.43 2850.00,2299.04 2850.00,2299.04
             2850.00,2299.04 2840.09,2296.79 2840.09,2296.79
             2840.09,2296.79 2833.91,2294.00 2833.91,2294.00
             2833.91,2294.00 2824.00,2291.07 2824.00,2291.07
             2824.00,2291.07 2813.00,2285.92 2813.00,2285.92
             2813.00,2285.92 2798.00,2280.77 2798.00,2280.77
             2798.00,2280.77 2789.83,2276.72 2789.83,2276.72
             2789.83,2276.72 2765.00,2266.06 2765.00,2266.06
             2765.00,2266.06 2745.01,2256.81 2745.01,2256.81
             2745.01,2256.81 2737.83,2252.84 2737.83,2252.84
             2737.83,2252.84 2725.00,2249.56 2725.00,2249.56
             2712.14,2245.56 2711.54,2240.01 2695.00,2240.00
             2695.00,2240.00 2696.00,2234.00 2696.00,2234.00
             2696.00,2234.00 2695.00,2234.00 2695.00,2234.00
             2695.00,2234.00 2695.00,2236.00 2695.00,2236.00
             2693.01,2231.91 2690.64,2229.46 2692.00,2225.00
             2692.00,2225.00 2690.00,2227.00 2690.00,2227.00
             2690.00,2227.00 2686.00,2223.00 2686.00,2223.00
             2686.00,2223.00 2687.00,2221.00 2687.00,2221.00
             2687.00,2221.00 2686.00,2220.00 2686.00,2220.00
             2686.00,2220.00 2673.28,2215.48 2673.28,2215.48
             2673.28,2215.48 2666.00,2210.98 2666.00,2210.98
             2666.00,2210.98 2654.00,2208.00 2654.00,2208.00
             2654.00,2208.00 2653.00,2215.00 2653.00,2215.00
             2642.12,2207.49 2629.50,2201.83 2617.00,2197.38
             2617.00,2197.38 2602.00,2192.82 2602.00,2192.82
             2602.00,2192.82 2591.00,2188.43 2591.00,2188.43
             2591.00,2188.43 2580.00,2185.57 2580.00,2185.57
             2580.00,2185.57 2566.00,2180.55 2566.00,2180.55
             2566.00,2180.55 2548.00,2175.63 2548.00,2175.63
             2548.00,2175.63 2541.00,2173.20 2541.00,2173.20
             2541.00,2173.20 2533.00,2172.09 2533.00,2172.09
             2533.00,2172.09 2508.91,2165.83 2508.91,2165.83
             2508.91,2165.83 2500.00,2164.49 2500.00,2164.49
             2500.00,2164.49 2474.09,2157.84 2474.09,2157.84
             2474.09,2157.84 2453.00,2153.49 2453.00,2153.49
             2453.00,2153.49 2444.00,2150.57 2444.00,2150.57
             2444.00,2150.57 2436.00,2148.79 2436.00,2148.79
             2436.00,2148.79 2428.00,2145.72 2428.00,2145.72
             2428.00,2145.72 2419.09,2143.99 2419.09,2143.99
             2419.09,2143.99 2411.96,2140.86 2411.96,2140.86
             2411.96,2140.86 2402.17,2139.52 2402.17,2139.52
             2402.17,2139.52 2391.00,2135.04 2391.00,2135.04
             2391.00,2135.04 2375.00,2130.88 2375.00,2130.88
             2367.54,2127.94 2359.33,2117.19 2345.00,2117.00
             2339.31,2116.93 2336.42,2116.94 2331.00,2119.09
             2327.32,2120.55 2323.09,2123.43 2319.00,2122.84
             2315.62,2122.35 2305.54,2115.70 2302.00,2113.60
             2302.00,2113.60 2273.00,2099.34 2273.00,2099.34
             2273.00,2099.34 2238.00,2089.29 2238.00,2089.29
             2234.88,2088.40 2227.46,2086.50 2225.00,2085.07
             2221.71,2083.16 2206.97,2068.37 2204.41,2065.00
             2204.41,2065.00 2199.59,2057.09 2199.59,2057.09
             2197.13,2054.11 2185.64,2046.75 2182.00,2045.74
             2182.00,2045.74 2168.00,2046.29 2168.00,2046.29
             2164.57,2046.72 2164.27,2047.80 2159.00,2047.98
             2156.89,2048.05 2153.09,2048.16 2151.31,2046.98
             2147.98,2044.76 2147.93,2034.14 2147.84,2030.28
             2147.67,2023.15 2146.34,2019.66 2145.13,2013.00
             2145.13,2013.00 2145.13,2005.00 2145.13,2005.00
             2145.13,2005.00 2144.00,1990.00 2144.00,1990.00
             2144.00,1990.00 2144.00,1961.00 2144.00,1961.00
             2143.97,1948.42 2141.03,1954.58 2141.00,1942.00
             2141.00,1942.00 2141.00,1912.00 2141.00,1912.00
             2141.00,1912.00 2139.89,1895.00 2139.89,1895.00
             2139.89,1895.00 2139.89,1848.00 2139.89,1848.00
             2139.89,1848.00 2139.18,1839.00 2139.18,1839.00
             2139.18,1839.00 2139.96,1828.00 2139.96,1828.00
             2139.96,1828.00 2139.01,1814.00 2139.01,1814.00
             2139.01,1814.00 2141.00,1793.00 2141.00,1793.00
             2141.02,1788.00 2140.57,1786.61 2143.00,1782.00
             2143.00,1782.00 2140.00,1779.00 2140.00,1779.00
             2144.62,1771.71 2140.47,1772.67 2141.25,1763.00
             2141.25,1763.00 2141.25,1748.00 2141.25,1748.00
             2141.25,1748.00 2142.87,1741.00 2142.87,1741.00
             2142.87,1741.00 2144.10,1717.00 2144.10,1717.00
             2144.10,1717.00 2147.55,1699.09 2147.55,1699.09
             2147.55,1699.09 2149.68,1693.87 2149.68,1693.87
             2149.68,1693.87 2151.55,1681.00 2151.55,1681.00
             2152.57,1677.53 2154.89,1674.62 2155.48,1671.00
             2155.48,1671.00 2154.93,1660.92 2154.93,1660.92
             2155.03,1652.25 2155.83,1656.03 2157.11,1649.99
             2157.11,1649.99 2157.75,1643.00 2157.75,1643.00
             2157.75,1643.00 2160.47,1631.00 2160.47,1631.00
             2160.47,1631.00 2161.30,1621.00 2161.30,1621.00
             2161.30,1621.00 2163.82,1610.00 2163.82,1610.00
             2163.82,1610.00 2164.99,1594.42 2164.99,1594.42
             2164.99,1594.42 2166.34,1585.74 2166.34,1585.74
             2166.76,1584.05 2167.56,1583.65 2167.80,1580.91
             2167.80,1580.91 2167.80,1572.04 2167.80,1572.04
             2168.16,1569.30 2169.48,1568.40 2170.11,1564.91
             2170.11,1564.91 2170.11,1554.00 2170.11,1554.00
             2170.98,1550.22 2172.70,1547.93 2172.73,1544.00
             2172.73,1544.00 2171.31,1532.00 2171.31,1532.00
             2170.73,1526.65 2172.55,1518.02 2174.41,1513.00
             2175.30,1510.61 2175.80,1507.36 2177.56,1505.51
             2180.05,1502.89 2186.47,1501.92 2190.00,1501.12
             2190.00,1501.12 2211.00,1496.94 2211.00,1496.94
             2211.00,1496.94 2223.00,1496.94 2223.00,1496.94
             2231.36,1495.61 2231.99,1492.59 2239.00,1493.00
             2245.28,1485.97 2251.13,1489.43 2257.00,1477.00
             2260.29,1476.31 2260.31,1476.29 2261.00,1473.00
             2262.71,1472.19 2264.08,1471.69 2265.51,1470.36
             2265.51,1470.36 2277.70,1455.96 2277.70,1455.96
             2277.70,1455.96 2281.76,1449.01 2281.76,1449.01
             2281.76,1449.01 2291.05,1437.83 2291.05,1437.83
             2291.05,1437.83 2296.19,1427.17 2296.19,1427.17
             2296.19,1427.17 2303.21,1416.00 2303.21,1416.00
             2303.21,1416.00 2309.61,1403.00 2309.61,1403.00
             2309.61,1403.00 2314.28,1395.58 2314.28,1395.58
             2314.28,1395.58 2317.03,1388.00 2317.03,1388.00
             2317.03,1388.00 2336.34,1348.01 2336.34,1348.01
             2336.34,1348.01 2340.83,1341.72 2340.83,1341.72
             2340.83,1341.72 2356.25,1312.00 2356.25,1312.00
             2362.16,1300.15 2367.98,1287.48 2368.00,1274.00
             2368.00,1274.00 2368.00,1269.00 2368.00,1269.00
             2367.93,1263.44 2364.30,1245.26 2362.46,1240.00
             2362.46,1240.00 2358.74,1231.00 2358.74,1231.00
             2358.74,1231.00 2355.69,1220.09 2355.69,1220.09
             2355.69,1220.09 2352.69,1213.91 2352.69,1213.91
             2352.69,1213.91 2351.12,1208.00 2351.12,1208.00
             2351.12,1208.00 2341.00,1177.00 2341.00,1177.00
             2341.00,1177.00 2338.00,1177.00 2338.00,1177.00
             2337.55,1173.54 2336.95,1173.06 2335.53,1170.00
             2330.32,1158.77 2326.39,1156.54 2316.27,1150.27
             2312.15,1147.71 2305.89,1144.25 2301.09,1143.32
             2301.09,1143.32 2295.84,1143.32 2295.84,1143.32
             2292.81,1143.23 2286.87,1143.91 2285.30,1140.69
             2284.21,1138.44 2285.41,1133.38 2286.00,1131.00
             2287.69,1124.25 2287.99,1123.00 2288.00,1116.00
             2288.03,1096.91 2284.84,1090.77 2281.75,1073.00
             2281.75,1073.00 2277.77,1053.00 2277.77,1053.00
             2277.77,1053.00 2276.53,1044.00 2276.53,1044.00
             2276.53,1044.00 2273.81,1035.00 2273.81,1035.00
             2273.81,1035.00 2271.77,1024.00 2271.77,1024.00
             2271.77,1024.00 2269.10,1014.00 2269.10,1014.00
             2269.10,1014.00 2268.18,1008.00 2268.18,1008.00
             2268.18,1008.00 2263.94,998.72 2263.94,998.72
             2263.13,995.54 2264.74,994.86 2261.83,985.00
             2261.83,985.00 2253.39,962.99 2253.39,962.99
             2253.39,962.99 2248.51,943.00 2248.51,943.00
             2248.51,943.00 2247.32,935.00 2247.32,935.00
             2247.32,935.00 2243.30,924.00 2243.30,924.00
             2243.30,924.00 2237.22,900.00 2237.22,900.00
             2237.22,900.00 2229.28,881.00 2229.28,881.00
             2227.45,876.41 2228.12,874.53 2227.20,871.88
             2227.20,871.88 2224.10,864.99 2224.10,864.99
             2224.10,864.99 2221.50,857.00 2221.50,857.00
             2219.65,851.67 2217.35,849.18 2217.00,843.00
             2217.00,843.00 2206.00,821.00 2206.00,821.00
             2206.00,821.00 2207.00,817.00 2207.00,817.00
             2207.00,817.00 2206.00,817.00 2206.00,817.00
             2206.00,817.00 2206.00,819.00 2206.00,819.00
             2206.00,819.00 2198.19,800.77 2198.19,800.77
             2198.19,800.77 2196.00,800.00 2196.00,800.00
             2196.00,800.00 2197.00,797.00 2197.00,797.00
             2193.27,795.68 2192.12,789.38 2189.87,786.17
             2189.87,786.17 2175.31,768.17 2175.31,768.17
             2171.24,763.68 2166.33,759.41 2166.00,753.00
             2161.68,752.12 2160.60,746.61 2159.09,743.00
             2159.09,743.00 2149.48,721.00 2149.48,721.00
             2149.48,721.00 2147.00,713.00 2147.00,713.00
             2147.00,713.00 2145.00,715.00 2145.00,715.00
             2145.00,715.00 2131.00,689.00 2131.00,689.00
             2119.28,684.02 2115.34,667.52 2104.00,662.00
             2104.00,662.00 2106.00,660.00 2106.00,660.00
             2099.51,654.26 2098.37,654.59 2095.00,646.00
             2095.00,646.00 2091.00,647.00 2091.00,647.00
             2091.00,647.00 2092.00,645.00 2092.00,645.00
             2092.00,645.00 2089.00,646.00 2089.00,646.00
             2089.00,646.00 2088.00,641.00 2088.00,641.00
             2088.00,641.00 2077.30,632.45 2077.30,632.45
             2077.30,632.45 2071.70,626.79 2071.70,626.79
             2071.70,626.79 2063.00,619.00 2063.00,619.00
             2059.31,618.85 2058.77,618.18 2057.00,615.00
             2053.03,614.20 2050.17,611.20 2046.77,609.22
             2041.33,606.06 2034.97,603.91 2032.00,598.00
             2032.00,598.00 2028.00,599.00 2028.00,599.00
             2028.00,599.00 2028.00,597.00 2028.00,597.00
             2028.00,597.00 2025.00,598.00 2025.00,598.00
             2023.90,594.52 2014.44,591.69 2011.00,592.00
             2008.91,587.00 2008.34,587.09 2004.00,584.00
             2004.00,584.00 2003.00,584.00 2003.00,584.00
             2003.00,584.00 2001.00,586.00 2001.00,586.00
             1998.57,581.65 1996.39,581.82 1992.00,580.00
             1985.39,577.26 1978.01,575.35 1973.00,570.00
             1968.39,569.65 1967.93,568.20 1963.97,566.72
             1957.67,564.37 1955.86,566.74 1951.00,561.00
             1947.96,560.78 1944.18,560.07 1943.00,557.00
             1934.66,557.28 1929.59,553.84 1922.09,551.72
             1922.09,551.72 1897.01,544.52 1897.01,544.52
             1897.01,544.52 1886.00,540.84 1886.00,540.84
             1886.00,540.84 1879.00,540.03 1879.00,540.03
             1873.31,539.03 1872.34,536.76 1867.00,537.00
             1863.23,531.41 1858.42,533.92 1853.00,533.36
             1847.52,532.78 1833.67,526.72 1828.00,524.48
             1823.20,522.58 1820.19,523.36 1816.00,520.00
             1816.00,520.00 1804.91,517.61 1804.91,517.61
             1804.91,517.61 1791.00,515.28 1791.00,515.28
             1791.00,515.28 1762.00,510.29 1762.00,510.29
             1762.00,510.29 1737.00,507.83 1737.00,507.83
             1737.00,507.83 1720.00,506.59 1720.00,506.59
             1720.00,506.59 1693.00,509.05 1693.00,509.05
             1693.00,509.05 1682.00,509.05 1682.00,509.05
             1682.00,509.05 1658.00,513.37 1658.00,513.37
             1658.00,513.37 1630.00,522.28 1630.00,522.28
             1630.00,522.28 1617.00,525.00 1617.00,525.00 Z
           M 1806.00,518.00
           C 1806.00,518.00 1806.00,519.00 1806.00,519.00
             1806.00,519.00 1805.00,518.00 1805.00,518.00
             1805.00,518.00 1806.00,518.00 1806.00,518.00 Z
           M 1860.00,534.00
           C 1860.00,534.00 1860.00,535.00 1860.00,535.00
             1860.00,535.00 1859.00,534.00 1859.00,534.00
             1859.00,534.00 1860.00,534.00 1860.00,534.00 Z
           M 1960.00,566.00
           C 1960.00,566.00 1960.00,567.00 1960.00,567.00
             1960.00,567.00 1959.00,566.00 1959.00,566.00
             1959.00,566.00 1960.00,566.00 1960.00,566.00 Z
           M 1966.00,568.00
           C 1966.00,568.00 1966.00,569.00 1966.00,569.00
             1966.00,569.00 1965.00,568.00 1965.00,568.00
             1965.00,568.00 1966.00,568.00 1966.00,568.00 Z
           M 1500.00,585.00
           C 1500.00,585.00 1500.00,586.00 1500.00,586.00
             1500.00,586.00 1499.00,585.00 1499.00,585.00
             1499.00,585.00 1500.00,585.00 1500.00,585.00 Z
           M 1498.00,586.00
           C 1498.00,586.00 1498.00,587.00 1498.00,587.00
             1498.00,587.00 1497.00,586.00 1497.00,586.00
             1497.00,586.00 1498.00,586.00 1498.00,586.00 Z
           M 1497.00,587.00
           C 1497.00,587.00 1497.00,588.00 1497.00,588.00
             1497.00,588.00 1496.00,587.00 1496.00,587.00
             1496.00,587.00 1497.00,587.00 1497.00,587.00 Z
           M 2008.00,587.00
           C 2008.00,587.00 2008.00,588.00 2008.00,588.00
             2008.00,588.00 2007.00,587.00 2007.00,587.00
             2007.00,587.00 2008.00,587.00 2008.00,587.00 Z
           M 2009.00,588.00
           C 2009.00,588.00 2009.00,589.00 2009.00,589.00
             2009.00,589.00 2008.00,588.00 2008.00,588.00
             2008.00,588.00 2009.00,588.00 2009.00,588.00 Z
           M 1467.00,602.00
           C 1467.00,602.00 1467.00,603.00 1467.00,603.00
             1467.00,603.00 1466.00,602.00 1466.00,602.00
             1466.00,602.00 1467.00,602.00 1467.00,602.00 Z
           M 1451.00,611.00
           C 1451.00,611.00 1451.00,612.00 1451.00,612.00
             1451.00,612.00 1450.00,611.00 1450.00,611.00
             1450.00,611.00 1451.00,611.00 1451.00,611.00 Z
           M 1450.00,612.00
           C 1450.00,612.00 1450.00,613.00 1450.00,613.00
             1450.00,613.00 1449.00,612.00 1449.00,612.00
             1449.00,612.00 1450.00,612.00 1450.00,612.00 Z
           M 2052.00,613.00
           C 2052.00,613.00 2052.00,614.00 2052.00,614.00
             2052.00,614.00 2051.00,613.00 2051.00,613.00
             2051.00,613.00 2052.00,613.00 2052.00,613.00 Z
           M 1415.00,636.00
           C 1415.00,636.00 1415.00,637.00 1415.00,637.00
             1415.00,637.00 1414.00,636.00 1414.00,636.00
             1414.00,636.00 1415.00,636.00 1415.00,636.00 Z
           M 1413.00,637.00
           C 1413.00,637.00 1413.00,638.00 1413.00,638.00
             1413.00,638.00 1412.00,637.00 1412.00,637.00
             1412.00,637.00 1413.00,637.00 1413.00,637.00 Z
           M 1388.00,659.00
           C 1388.00,659.00 1388.00,660.00 1388.00,660.00
             1388.00,660.00 1387.00,659.00 1387.00,659.00
             1387.00,659.00 1388.00,659.00 1388.00,659.00 Z
           M 1387.00,660.00
           C 1387.00,660.00 1387.00,661.00 1387.00,661.00
             1387.00,661.00 1386.00,660.00 1386.00,660.00
             1386.00,660.00 1387.00,660.00 1387.00,660.00 Z
           M 2147.00,715.00
           C 2147.00,715.00 2147.00,716.00 2147.00,716.00
             2147.00,716.00 2146.00,715.00 2146.00,715.00
             2146.00,715.00 2147.00,715.00 2147.00,715.00 Z
           M 2148.00,717.00
           C 2148.00,717.00 2148.00,718.00 2148.00,718.00
             2148.00,718.00 2147.00,717.00 2147.00,717.00
             2147.00,717.00 2148.00,717.00 2148.00,717.00 Z
           M 2153.00,730.00
           C 2153.00,730.00 2153.00,731.00 2153.00,731.00
             2153.00,731.00 2152.00,730.00 2152.00,730.00
             2152.00,730.00 2153.00,730.00 2153.00,730.00 Z
           M 2227.00,872.00
           C 2227.00,872.00 2227.00,873.00 2227.00,873.00
             2227.00,873.00 2226.00,872.00 2226.00,872.00
             2226.00,872.00 2227.00,872.00 2227.00,872.00 Z
           M 923.00,2340.00
           C 923.00,2340.00 923.00,2341.00 923.00,2341.00
             923.00,2341.00 922.00,2340.00 922.00,2340.00
             922.00,2340.00 923.00,2340.00 923.00,2340.00 Z
           M 3549.00,3067.00
           C 3549.00,3067.00 3549.00,3068.00 3549.00,3068.00
             3549.00,3068.00 3550.00,3067.00 3550.00,3067.00
             3550.00,3067.00 3549.00,3067.00 3549.00,3067.00 Z
           M 3551.00,3071.00
           C 3551.00,3071.00 3551.00,3072.00 3551.00,3072.00
             3551.00,3072.00 3550.00,3071.00 3550.00,3071.00
             3550.00,3071.00 3551.00,3071.00 3551.00,3071.00 Z
           M 3572.00,3112.00
           C 3572.00,3112.00 3572.00,3113.00 3572.00,3113.00
             3572.00,3113.00 3571.00,3112.00 3571.00,3112.00
             3571.00,3112.00 3572.00,3112.00 3572.00,3112.00 Z" />
</svg>
