<?xml version="1.0" encoding="UTF-8" standalone="no"?>
<!DOCTYPE svg PUBLIC "-//W3C//DTD SVG 20010904//EN"
              "http://www.w3.org/TR/2001/REC-SVG-20010904/DTD/svg10.dtd">

<svg xmlns="http://www.w3.org/2000/svg"
     width="11.6733in" height="15.2267in"
     viewBox="0 0 3502 4568">
  <path id="face"
        fill="none" stroke="black" stroke-width="1"
        d="M 1786.00,390.00
           C 1786.00,390.00 1788.00,392.00 1788.00,392.00
             1788.00,392.00 1761.00,393.72 1761.00,393.72
             1761.00,393.72 1744.00,397.00 1744.00,397.00
             1744.00,397.00 1743.34,398.61 1743.34,398.61
             1743.34,398.61 1733.00,401.00 1733.00,401.00
             1733.00,401.00 1733.00,402.00 1733.00,402.00
             1733.00,402.00 1735.00,402.00 1735.00,402.00
             1719.94,404.04 1715.36,407.46 1703.00,416.00
             1703.00,416.00 1704.00,419.00 1704.00,419.00
             1704.00,419.00 1703.00,420.00 1703.00,420.00
             1698.69,419.84 1696.91,420.63 1696.00,425.00
             1689.20,428.34 1684.28,430.94 1684.00,439.00
             1684.00,439.00 1680.00,438.00 1680.00,438.00
             1680.00,438.00 1679.00,448.00 1679.00,448.00
             1679.00,448.00 1674.00,450.00 1674.00,450.00
             1674.00,450.00 1675.00,453.00 1675.00,453.00
             1675.00,453.00 1673.00,451.00 1673.00,451.00
             1669.83,456.74 1666.78,457.12 1667.00,463.00
             1667.00,463.00 1661.00,465.00 1661.00,465.00
             1661.00,465.00 1654.00,473.00 1654.00,473.00
             1643.41,473.33 1638.26,479.21 1629.00,481.54
             1629.00,481.54 1601.00,484.36 1601.00,484.36
             1595.32,485.66 1586.29,491.27 1574.00,493.00
             1574.00,493.00 1574.00,494.00 1574.00,494.00
             1574.00,494.00 1576.00,494.00 1576.00,494.00
             1572.23,495.17 1569.02,494.73 1568.00,499.00
             1568.00,499.00 1567.00,500.00 1567.00,500.00
             1560.41,500.01 1550.40,508.60 1544.00,512.10
             1544.00,512.10 1536.09,516.26 1536.09,516.26
             1536.09,516.26 1509.09,538.28 1509.09,538.28
             1509.09,538.28 1502.68,545.63 1502.68,545.63
             1502.68,545.63 1497.28,550.12 1497.28,550.12
             1497.28,550.12 1477.00,569.28 1477.00,569.28
             1477.00,569.28 1468.83,578.72 1468.83,578.72
             1462.80,584.66 1456.82,588.08 1455.00,597.00
             1449.65,597.04 1444.05,601.46 1444.00,607.00
             1439.14,608.81 1439.61,610.20 1435.82,612.82
             1435.82,612.82 1425.07,619.97 1425.07,619.97
             1425.07,619.97 1414.72,628.24 1414.72,628.24
             1410.32,631.23 1405.15,633.30 1404.00,639.00
             1398.51,641.85 1390.28,650.96 1385.85,655.68
             1385.85,655.68 1372.63,668.42 1372.63,668.42
             1372.63,668.42 1362.54,684.72 1362.54,684.72
             1358.89,689.96 1352.03,696.80 1351.00,703.00
             1345.94,706.25 1341.35,719.27 1338.99,725.00
             1337.28,729.14 1335.36,730.88 1338.00,735.00
             1338.00,735.00 1334.00,736.00 1334.00,736.00
             1334.00,736.00 1335.00,742.00 1335.00,742.00
             1333.21,742.35 1332.61,742.38 1334.00,744.00
             1330.57,747.94 1327.67,761.92 1329.00,767.00
             1325.95,769.37 1325.95,770.86 1328.00,774.00
             1328.00,774.00 1325.00,774.00 1325.00,774.00
             1325.00,774.00 1324.29,785.83 1324.29,785.83
             1324.29,785.83 1323.28,791.09 1323.28,791.09
             1323.25,793.70 1324.84,796.69 1322.00,798.00
             1322.00,798.00 1323.00,803.00 1323.00,803.00
             1323.00,803.00 1322.00,801.00 1322.00,801.00
             1322.00,801.00 1320.00,805.00 1320.00,805.00
             1320.00,805.00 1322.00,804.00 1322.00,804.00
             1322.00,804.00 1321.00,808.00 1321.00,808.00
             1321.00,808.00 1320.00,806.00 1320.00,806.00
             1320.00,806.00 1317.00,813.00 1317.00,813.00
             1317.00,813.00 1319.00,812.00 1319.00,812.00
             1319.00,812.00 1318.00,816.00 1318.00,816.00
             1318.00,816.00 1317.00,814.00 1317.00,814.00
             1317.00,814.00 1317.00,819.00 1317.00,819.00
             1317.00,819.00 1315.00,817.00 1315.00,817.00
             1311.11,823.65 1307.41,830.66 1304.97,838.00
             1304.97,838.00 1303.03,844.91 1303.03,844.91
             1300.51,852.17 1298.04,854.63 1300.00,863.00
             1294.77,866.29 1295.25,874.40 1295.00,880.00
             1290.01,881.44 1294.17,885.27 1291.00,887.00
             1291.00,887.00 1288.01,901.00 1288.01,901.00
             1288.01,901.00 1286.00,919.00 1286.00,919.00
             1286.00,919.00 1284.00,918.00 1284.00,918.00
             1284.00,918.00 1280.63,937.00 1280.63,937.00
             1280.63,937.00 1280.01,945.17 1280.01,945.17
             1280.01,945.17 1278.00,956.00 1278.00,956.00
             1278.00,956.00 1276.90,953.00 1276.90,953.00
             1276.90,953.00 1276.90,961.00 1276.90,961.00
             1276.90,961.00 1275.00,976.00 1275.00,976.00
             1275.00,976.00 1274.00,971.00 1274.00,971.00
             1274.00,971.00 1274.00,981.00 1274.00,981.00
             1274.00,981.00 1272.01,980.00 1272.01,980.00
             1272.01,980.00 1272.01,992.58 1272.01,992.58
             1272.01,992.58 1268.00,1004.00 1268.00,1004.00
             1268.00,1004.00 1269.00,1000.00 1269.00,1000.00
             1270.79,1006.31 1270.07,1024.50 1270.00,1032.00
             1269.95,1036.67 1270.68,1044.34 1268.00,1048.00
             1268.00,1048.00 1269.00,1069.00 1269.00,1069.00
             1269.00,1069.00 1268.00,1066.00 1268.00,1066.00
             1266.90,1069.01 1267.00,1069.76 1269.97,1071.00
             1269.97,1071.00 1269.97,1089.39 1269.97,1089.39
             1269.97,1089.39 1269.97,1121.00 1269.97,1121.00
             1269.97,1121.00 1269.22,1129.00 1269.22,1129.00
             1269.22,1129.00 1270.00,1143.00 1270.00,1143.00
             1270.00,1143.00 1272.13,1170.00 1272.13,1170.00
             1272.13,1170.00 1274.00,1187.00 1274.00,1187.00
             1266.65,1185.97 1266.17,1189.69 1261.00,1185.00
             1258.32,1185.25 1255.59,1185.00 1253.00,1185.85
             1245.17,1188.42 1236.12,1197.48 1232.92,1205.00
             1232.92,1205.00 1231.04,1211.00 1231.04,1211.00
             1228.98,1215.70 1226.36,1219.78 1225.14,1225.00
             1225.14,1225.00 1225.14,1236.09 1225.14,1236.09
             1223.90,1242.71 1222.28,1243.96 1222.15,1250.99
             1222.15,1250.99 1221.04,1268.00 1221.04,1268.00
             1221.04,1268.00 1222.00,1282.00 1222.00,1282.00
             1222.13,1293.71 1222.51,1300.46 1225.75,1312.00
             1225.75,1312.00 1228.71,1321.00 1228.71,1321.00
             1228.71,1321.00 1231.04,1332.00 1231.04,1332.00
             1231.04,1332.00 1235.39,1345.00 1235.39,1345.00
             1235.39,1345.00 1237.50,1358.00 1237.50,1358.00
             1237.50,1358.00 1241.30,1370.42 1241.30,1370.42
             1241.30,1370.42 1243.53,1380.91 1243.53,1380.91
             1243.53,1380.91 1247.56,1389.92 1247.56,1389.92
             1247.56,1389.92 1248.55,1396.09 1248.55,1396.09
             1248.55,1396.09 1253.55,1411.00 1253.55,1411.00
             1253.55,1411.00 1254.80,1416.83 1254.80,1416.83
             1254.80,1416.83 1257.78,1426.00 1257.78,1426.00
             1260.98,1437.02 1263.51,1437.02 1263.00,1449.00
             1263.00,1449.00 1269.00,1448.00 1269.00,1448.00
             1269.00,1448.00 1274.00,1458.00 1274.00,1458.00
             1271.65,1462.45 1276.87,1469.93 1278.95,1474.16
             1283.12,1482.65 1283.54,1480.10 1286.23,1485.02
             1286.23,1485.02 1289.01,1492.57 1289.01,1492.57
             1290.64,1494.89 1293.40,1494.89 1295.41,1497.30
             1296.59,1498.72 1296.82,1500.21 1297.48,1501.83
             1300.09,1508.20 1300.35,1506.45 1300.00,1514.00
             1300.00,1514.00 1303.00,1513.00 1303.00,1513.00
             1303.00,1513.00 1303.00,1519.00 1303.00,1519.00
             1306.53,1520.23 1307.54,1527.27 1304.00,1529.00
             1304.00,1529.00 1306.87,1532.27 1306.87,1532.27
             1306.87,1532.27 1311.07,1547.00 1311.07,1547.00
             1311.07,1547.00 1310.00,1552.00 1310.00,1552.00
             1310.00,1552.00 1314.00,1552.00 1314.00,1552.00
             1317.04,1557.43 1318.34,1557.12 1320.78,1561.04
             1323.72,1565.77 1323.78,1568.22 1328.59,1573.83
             1332.16,1577.98 1337.28,1581.02 1341.74,1584.13
             1341.74,1584.13 1347.11,1588.04 1347.11,1588.04
             1358.45,1593.66 1374.03,1593.02 1386.00,1590.00
             1386.00,1590.00 1393.00,1608.00 1393.00,1608.00
             1396.56,1611.83 1397.30,1619.70 1398.67,1625.00
             1401.50,1635.94 1408.54,1655.05 1409.00,1665.00
             1412.15,1666.08 1412.33,1669.02 1413.33,1672.00
             1413.33,1672.00 1419.95,1690.00 1419.95,1690.00
             1419.95,1690.00 1427.95,1710.00 1427.95,1710.00
             1427.95,1710.00 1447.00,1765.00 1447.00,1765.00
             1447.00,1765.00 1452.64,1780.92 1452.64,1780.92
             1452.64,1780.92 1455.03,1792.00 1455.03,1792.00
             1455.03,1792.00 1472.99,1839.00 1472.99,1839.00
             1472.99,1839.00 1492.66,1868.00 1492.66,1868.00
             1492.66,1868.00 1534.29,1928.00 1534.29,1928.00
             1534.29,1928.00 1561.58,1966.00 1561.58,1966.00
             1567.84,1974.76 1573.36,1983.33 1581.00,1991.00
             1581.00,1991.00 1606.00,2015.96 1606.00,2015.96
             1606.00,2015.96 1619.00,2028.00 1619.00,2028.00
             1643.54,2052.50 1639.41,2050.23 1668.00,2070.02
             1668.00,2070.02 1683.00,2080.02 1683.00,2080.02
             1683.00,2080.02 1701.00,2087.20 1701.00,2087.20
             1701.00,2087.20 1730.00,2098.23 1730.00,2098.23
             1730.00,2098.23 1795.00,2112.00 1795.00,2112.00
             1795.00,2112.00 1835.00,2120.40 1835.00,2120.40
             1843.99,2122.20 1848.54,2123.99 1858.00,2124.00
             1858.00,2124.00 1879.00,2124.00 1879.00,2124.00
             1879.00,2124.00 1894.00,2125.00 1894.00,2125.00
             1894.00,2125.00 1949.00,2125.00 1949.00,2125.00
             1959.37,2124.98 1963.34,2122.82 1973.00,2120.37
             1973.00,2120.37 2011.00,2110.37 2011.00,2110.37
             2011.00,2110.37 2068.00,2095.07 2068.00,2095.07
             2068.00,2095.07 2122.00,2065.86 2122.00,2065.86
             2122.00,2065.86 2158.91,2045.39 2158.91,2045.39
             2158.91,2045.39 2181.16,2021.00 2181.16,2021.00
             2181.16,2021.00 2212.39,1986.00 2212.39,1986.00
             2212.39,1986.00 2248.20,1926.00 2248.20,1926.00
             2248.20,1926.00 2265.40,1897.00 2265.40,1897.00
             2265.40,1897.00 2277.22,1877.00 2277.22,1877.00
             2277.22,1877.00 2286.31,1857.00 2286.31,1857.00
             2286.31,1857.00 2301.31,1824.00 2301.31,1824.00
             2301.31,1824.00 2323.00,1775.00 2323.00,1775.00
             2323.00,1775.00 2338.67,1727.00 2338.67,1727.00
             2338.67,1727.00 2352.58,1684.00 2352.58,1684.00
             2352.58,1684.00 2359.91,1658.00 2359.91,1658.00
             2360.87,1652.89 2360.98,1645.08 2364.00,1641.00
             2363.32,1634.87 2366.72,1630.09 2367.74,1624.00
             2367.74,1624.00 2368.44,1617.00 2368.44,1617.00
             2368.44,1617.00 2371.64,1603.00 2371.64,1603.00
             2371.64,1603.00 2375.88,1582.00 2375.88,1582.00
             2377.12,1576.62 2377.56,1569.29 2381.00,1565.00
             2379.57,1555.90 2382.57,1553.65 2383.71,1545.00
             2383.71,1545.00 2387.28,1517.00 2387.28,1517.00
             2387.28,1517.00 2391.00,1499.00 2391.00,1499.00
             2402.79,1498.73 2414.85,1492.75 2423.00,1484.32
             2423.00,1484.32 2431.59,1473.74 2431.59,1473.74
             2442.67,1461.56 2450.58,1454.42 2455.76,1438.00
             2457.52,1431.43 2455.47,1429.47 2455.76,1425.00
             2456.48,1420.63 2459.31,1418.04 2460.06,1415.58
             2460.82,1413.48 2460.18,1410.27 2460.06,1408.00
             2460.06,1408.00 2463.00,1408.00 2463.00,1408.00
             2463.00,1408.00 2464.00,1397.00 2464.00,1397.00
             2464.00,1397.00 2468.00,1399.00 2468.00,1399.00
             2468.00,1399.00 2467.00,1392.00 2467.00,1392.00
             2467.00,1392.00 2471.00,1391.00 2471.00,1391.00
             2471.00,1391.00 2470.00,1386.00 2470.00,1386.00
             2473.78,1384.92 2475.63,1379.45 2477.00,1376.00
             2477.00,1376.00 2479.00,1377.00 2479.00,1377.00
             2479.00,1377.00 2481.22,1370.00 2481.22,1370.00
             2481.22,1370.00 2484.91,1363.00 2484.91,1363.00
             2484.91,1363.00 2500.59,1333.00 2500.59,1333.00
             2500.59,1333.00 2503.20,1326.00 2503.20,1326.00
             2503.20,1326.00 2511.21,1307.00 2511.21,1307.00
             2511.21,1307.00 2513.33,1298.17 2513.33,1298.17
             2513.33,1298.17 2516.52,1291.96 2516.52,1291.96
             2516.52,1291.96 2519.32,1282.00 2519.32,1282.00
             2519.32,1282.00 2527.32,1260.00 2527.32,1260.00
             2527.32,1260.00 2528.20,1253.00 2528.20,1253.00
             2528.20,1253.00 2530.20,1243.00 2530.20,1243.00
             2530.20,1243.00 2532.41,1235.00 2532.41,1235.00
             2532.41,1235.00 2532.41,1229.00 2532.41,1229.00
             2533.06,1216.60 2534.22,1221.15 2533.68,1205.01
             2533.68,1205.01 2533.68,1194.00 2533.68,1194.00
             2533.68,1194.00 2530.04,1183.00 2530.04,1183.00
             2528.31,1175.96 2530.33,1169.23 2523.00,1166.00
             2523.00,1166.00 2523.00,1164.00 2523.00,1164.00
             2523.00,1164.00 2526.00,1163.00 2526.00,1163.00
             2526.00,1163.00 2521.00,1161.00 2521.00,1161.00
             2520.67,1156.60 2518.54,1153.11 2517.05,1149.00
             2514.59,1142.19 2515.39,1141.00 2514.50,1138.28
             2514.50,1138.28 2512.55,1133.91 2512.55,1133.91
             2510.91,1128.95 2512.34,1127.12 2507.00,1124.00
             2507.46,1118.76 2504.65,1107.24 2500.47,1104.17
             2499.30,1103.31 2498.31,1103.30 2497.00,1103.00
             2497.00,1103.00 2495.44,1093.26 2495.44,1093.26
             2495.44,1093.26 2490.74,1087.87 2490.74,1087.87
             2490.74,1087.87 2480.00,1072.00 2480.00,1072.00
             2469.53,1071.86 2472.22,1068.90 2465.00,1066.65
             2465.00,1066.65 2448.00,1065.21 2448.00,1065.21
             2444.52,1064.82 2436.42,1066.39 2438.00,1071.00
             2432.62,1072.47 2421.17,1078.31 2420.00,1084.00
             2420.00,1084.00 2417.00,1083.00 2417.00,1083.00
             2417.00,1083.00 2412.00,1088.00 2412.00,1088.00
             2409.82,1071.49 2412.83,1054.61 2413.00,1038.00
             2413.00,1038.00 2408.68,990.00 2408.68,990.00
             2406.74,978.38 2404.07,966.89 2404.23,955.00
             2404.23,955.00 2402.00,936.00 2402.00,936.00
             2402.00,936.00 2401.00,939.00 2401.00,939.00
             2401.00,939.00 2401.00,929.00 2401.00,929.00
             2401.00,929.00 2400.00,929.00 2400.00,929.00
             2400.00,929.00 2400.00,931.00 2400.00,931.00
             2400.00,931.00 2400.00,927.00 2400.00,927.00
             2397.40,925.96 2397.94,923.62 2397.58,921.00
             2397.58,921.00 2395.00,902.00 2395.00,902.00
             2395.00,902.00 2394.00,902.00 2394.00,902.00
             2394.00,902.00 2394.00,904.00 2394.00,904.00
             2393.45,901.71 2392.55,900.13 2395.00,899.00
             2392.02,890.67 2390.20,889.43 2391.00,880.00
             2388.24,877.22 2387.25,875.73 2389.00,872.00
             2389.00,872.00 2385.18,861.00 2385.18,861.00
             2384.13,856.67 2385.98,853.94 2381.00,852.00
             2381.00,852.00 2382.00,849.00 2382.00,849.00
             2375.74,844.80 2376.53,840.88 2375.66,834.17
             2375.08,829.64 2374.65,831.41 2375.00,826.00
             2375.00,826.00 2374.00,826.00 2374.00,826.00
             2374.00,826.00 2374.00,828.00 2374.00,828.00
             2374.00,828.00 2370.00,817.00 2370.00,817.00
             2370.00,817.00 2364.00,803.00 2364.00,803.00
             2364.00,803.00 2365.00,800.00 2365.00,800.00
             2365.00,800.00 2362.22,790.00 2362.22,790.00
             2362.22,790.00 2356.00,775.00 2356.00,775.00
             2356.00,775.00 2351.00,767.00 2351.00,767.00
             2352.10,762.63 2351.72,762.10 2350.00,758.00
             2350.00,758.00 2348.00,759.00 2348.00,759.00
             2348.00,759.00 2348.00,753.00 2348.00,753.00
             2348.00,753.00 2345.00,748.00 2345.00,748.00
             2345.00,748.00 2347.00,748.00 2347.00,748.00
             2347.00,748.00 2339.00,729.00 2339.00,729.00
             2339.00,729.00 2338.00,729.00 2338.00,729.00
             2338.00,729.00 2338.00,731.00 2338.00,731.00
             2335.90,725.46 2335.83,714.49 2329.00,713.00
             2328.59,709.35 2328.69,705.45 2325.00,704.00
             2325.56,700.49 2324.27,691.49 2322.02,688.72
             2321.05,687.52 2320.26,687.51 2319.00,687.00
             2319.00,687.00 2320.00,682.00 2320.00,682.00
             2320.00,682.00 2314.00,676.00 2314.00,676.00
             2314.00,676.00 2316.00,672.00 2316.00,672.00
             2316.00,672.00 2312.00,672.00 2312.00,672.00
             2312.00,672.00 2312.00,665.00 2312.00,665.00
             2312.00,665.00 2311.00,665.00 2311.00,665.00
             2311.00,665.00 2311.00,667.00 2311.00,667.00
             2309.71,661.81 2309.57,657.74 2304.00,656.00
             2303.79,650.00 2301.01,644.02 2295.00,642.00
             2295.00,642.00 2296.00,639.00 2296.00,639.00
             2296.00,639.00 2293.00,639.00 2293.00,639.00
             2293.00,639.00 2295.00,637.00 2295.00,637.00
             2290.41,633.56 2284.68,630.95 2283.00,625.00
             2281.11,624.27 2277.67,623.32 2278.00,621.00
             2276.68,620.43 2274.77,619.85 2273.78,618.82
             2272.18,617.18 2271.95,612.33 2269.00,614.00
             2269.00,614.00 2268.00,608.00 2268.00,608.00
             2268.00,608.00 2265.00,605.00 2265.00,605.00
             2265.00,605.00 2264.00,605.00 2264.00,605.00
             2264.00,605.00 2264.00,607.00 2264.00,607.00
             2262.94,603.20 2263.18,602.23 2259.00,602.00
             2259.00,602.00 2260.00,599.00 2260.00,599.00
             2260.00,599.00 2257.00,600.00 2257.00,600.00
             2257.00,600.00 2254.00,595.00 2254.00,595.00
             2254.00,595.00 2256.00,595.00 2256.00,595.00
             2253.03,591.73 2252.36,591.51 2248.00,591.00
             2248.00,591.00 2250.00,589.00 2250.00,589.00
             2250.00,589.00 2242.37,583.30 2242.37,583.30
             2237.54,579.06 2237.03,576.09 2230.00,574.00
             2230.00,574.00 2232.00,572.00 2232.00,572.00
             2232.00,572.00 2216.09,561.33 2216.09,561.33
             2216.09,561.33 2205.00,551.89 2205.00,551.89
             2205.00,551.89 2192.00,543.16 2192.00,543.16
             2192.00,543.16 2185.00,539.31 2185.00,539.31
             2185.00,539.31 2174.00,530.91 2174.00,530.91
             2174.00,530.91 2155.00,520.19 2155.00,520.19
             2155.00,520.19 2145.00,516.37 2145.00,516.37
             2145.00,516.37 2133.00,509.78 2133.00,509.78
             2133.00,509.78 2124.04,506.25 2124.04,506.25
             2124.04,506.25 2118.72,503.06 2118.72,503.06
             2118.72,503.06 2103.09,495.74 2103.09,495.74
             2103.09,495.74 2095.96,490.91 2095.96,490.91
             2095.96,490.91 2087.00,487.33 2087.00,487.33
             2087.00,487.33 2076.00,479.95 2076.00,479.95
             2076.00,479.95 2064.00,473.15 2064.00,473.15
             2064.00,473.15 2055.00,465.94 2055.00,465.94
             2055.00,465.94 2047.00,461.49 2047.00,461.49
             2047.00,461.49 2030.00,450.31 2030.00,450.31
             2030.00,450.31 2019.04,444.32 2019.04,444.32
             2019.04,444.32 2012.85,442.34 2012.85,442.34
             2012.85,442.34 2003.96,437.96 2003.96,437.96
             2003.96,437.96 1988.00,432.58 1988.00,432.58
             1988.00,432.58 1978.00,428.89 1978.00,428.89
             1968.64,426.37 1960.49,431.83 1952.00,425.00
             1947.07,425.18 1932.97,421.90 1929.29,419.26
             1929.29,419.26 1922.71,412.69 1922.71,412.69
             1922.71,412.69 1917.00,409.34 1917.00,409.34
             1917.00,409.34 1907.00,402.14 1907.00,402.14
             1896.48,394.78 1894.02,390.98 1881.00,389.00
             1881.00,389.00 1882.00,387.00 1882.00,387.00
             1882.00,387.00 1873.51,385.94 1873.51,385.94
             1869.71,385.12 1872.09,384.05 1864.00,384.00
             1864.00,384.00 1836.00,384.00 1836.00,384.00
             1832.13,384.00 1826.77,382.91 1824.00,386.00
             1824.00,386.00 1808.00,386.00 1808.00,386.00
             1808.00,386.00 1811.00,385.00 1811.00,385.00
             1811.00,385.00 1802.00,386.66 1802.00,386.66
             1802.00,386.66 1786.00,390.00 1786.00,390.00 Z
           M 1812.00,384.00
           C 1812.00,384.00 1812.00,385.00 1812.00,385.00
             1812.00,385.00 1813.00,384.00 1813.00,384.00
             1813.00,384.00 1812.00,384.00 1812.00,384.00 Z
           M 1796.00,388.00
           C 1796.00,388.00 1796.00,389.00 1796.00,389.00
             1796.00,389.00 1795.00,388.00 1795.00,388.00
             1795.00,388.00 1796.00,388.00 1796.00,388.00 Z
           M 1782.00,394.00
           C 1782.00,394.00 1775.00,395.00 1775.00,395.00
             1775.00,395.00 1782.00,394.00 1782.00,394.00 Z
           M 1768.00,395.00
           C 1768.00,395.00 1768.00,396.00 1768.00,396.00
             1768.00,396.00 1767.00,395.00 1767.00,395.00
             1767.00,395.00 1768.00,395.00 1768.00,395.00 Z
           M 1775.00,395.00
           C 1775.00,395.00 1775.00,396.00 1775.00,396.00
             1775.00,396.00 1774.00,395.00 1774.00,395.00
             1774.00,395.00 1775.00,395.00 1775.00,395.00 Z
           M 1901.00,399.00
           C 1901.00,399.00 1901.00,400.00 1901.00,400.00
             1901.00,400.00 1900.00,399.00 1900.00,399.00
             1900.00,399.00 1901.00,399.00 1901.00,399.00 Z
           M 1732.00,403.00
           C 1732.00,403.00 1732.00,404.00 1732.00,404.00
             1732.00,404.00 1731.00,403.00 1731.00,403.00
             1731.00,403.00 1732.00,403.00 1732.00,403.00 Z
           M 1922.00,414.00
           C 1922.00,414.00 1922.00,415.00 1922.00,415.00
             1922.00,415.00 1921.00,414.00 1921.00,414.00
             1921.00,414.00 1922.00,414.00 1922.00,414.00 Z
           M 2028.00,450.00
           C 2028.00,450.00 2028.00,451.00 2028.00,451.00
             2028.00,451.00 2027.00,450.00 2027.00,450.00
             2027.00,450.00 2028.00,450.00 2028.00,450.00 Z
           M 1662.00,467.00
           C 1662.00,467.00 1662.00,468.00 1662.00,468.00
             1662.00,468.00 1661.00,467.00 1661.00,467.00
             1661.00,467.00 1662.00,467.00 1662.00,467.00 Z
           M 1550.00,510.00
           C 1550.00,510.00 1550.00,511.00 1550.00,511.00
             1550.00,511.00 1549.00,510.00 1549.00,510.00
             1549.00,510.00 1550.00,510.00 1550.00,510.00 Z
           M 1549.00,511.00
           C 1549.00,511.00 1549.00,512.00 1549.00,512.00
             1549.00,512.00 1548.00,511.00 1548.00,511.00
             1548.00,511.00 1549.00,511.00 1549.00,511.00 Z
           M 1465.00,584.00
           C 1465.00,584.00 1465.00,585.00 1465.00,585.00
             1465.00,585.00 1464.00,584.00 1464.00,584.00
             1464.00,584.00 1465.00,584.00 1465.00,584.00 Z
           M 2254.00,594.00
           C 2254.00,594.00 2254.00,595.00 2254.00,595.00
             2254.00,595.00 2253.00,594.00 2253.00,594.00
             2253.00,594.00 2254.00,594.00 2254.00,594.00 Z
           M 1446.00,604.00
           C 1446.00,604.00 1446.00,605.00 1446.00,605.00
             1446.00,605.00 1445.00,604.00 1445.00,604.00
             1445.00,604.00 1446.00,604.00 1446.00,604.00 Z
           M 1445.00,605.00
           C 1445.00,605.00 1445.00,606.00 1445.00,606.00
             1445.00,606.00 1444.00,605.00 1444.00,605.00
             1444.00,605.00 1445.00,605.00 1445.00,605.00 Z
           M 2270.00,614.00
           C 2270.00,614.00 2270.00,615.00 2270.00,615.00
             2270.00,615.00 2269.00,614.00 2269.00,614.00
             2269.00,614.00 2270.00,614.00 2270.00,614.00 Z
           M 2272.00,616.00
           C 2272.00,616.00 2272.00,617.00 2272.00,617.00
             2272.00,617.00 2271.00,616.00 2271.00,616.00
             2271.00,616.00 2272.00,616.00 2272.00,616.00 Z
           M 2308.00,659.00
           C 2308.00,659.00 2308.00,660.00 2308.00,660.00
             2308.00,660.00 2307.00,659.00 2307.00,659.00
             2307.00,659.00 2308.00,659.00 2308.00,659.00 Z
           M 2325.00,701.00
           C 2325.00,701.00 2325.00,702.00 2325.00,702.00
             2325.00,702.00 2324.00,701.00 2324.00,701.00
             2324.00,701.00 2325.00,701.00 2325.00,701.00 Z
           M 1327.00,776.00
           C 1327.00,776.00 1327.00,777.00 1327.00,777.00
             1327.00,777.00 1326.00,776.00 1326.00,776.00
             1326.00,776.00 1327.00,776.00 1327.00,776.00 Z
           M 2362.00,791.00
           C 2362.00,791.00 2362.00,792.00 2362.00,792.00
             2362.00,792.00 2361.00,791.00 2361.00,791.00
             2361.00,791.00 2362.00,791.00 2362.00,791.00 Z
           M 1325.00,792.00
           C 1325.00,792.00 1325.00,793.00 1325.00,793.00
             1325.00,793.00 1324.00,792.00 1324.00,792.00
             1324.00,792.00 1325.00,792.00 1325.00,792.00 Z
           M 2365.00,804.00
           C 2365.00,804.00 2365.00,805.00 2365.00,805.00
             2365.00,805.00 2364.00,804.00 2364.00,804.00
             2364.00,804.00 2365.00,804.00 2365.00,804.00 Z
           M 1311.00,829.00
           C 1311.00,829.00 1311.00,830.00 1311.00,830.00
             1311.00,830.00 1310.00,829.00 1310.00,829.00
             1310.00,829.00 1311.00,829.00 1311.00,829.00 Z
           M 2375.00,834.00
           C 2375.00,834.00 2375.00,835.00 2375.00,835.00
             2375.00,835.00 2374.00,834.00 2374.00,834.00
             2374.00,834.00 2375.00,834.00 2375.00,834.00 Z
           M 1303.00,852.00
           C 1303.00,852.00 1303.00,853.00 1303.00,853.00
             1303.00,853.00 1302.00,852.00 1302.00,852.00
             1302.00,852.00 1303.00,852.00 1303.00,852.00 Z
           M 2387.00,870.00
           C 2387.00,870.00 2387.00,871.00 2387.00,871.00
             2387.00,871.00 2386.00,870.00 2386.00,870.00
             2386.00,870.00 2387.00,870.00 2387.00,870.00 Z
           M 2390.00,882.00
           C 2390.00,882.00 2390.00,883.00 2390.00,883.00
             2390.00,883.00 2389.00,882.00 2389.00,882.00
             2389.00,882.00 2390.00,882.00 2390.00,882.00 Z
           M 1294.00,883.00
           C 1294.00,883.00 1294.00,884.00 1294.00,884.00
             1294.00,884.00 1293.00,883.00 1293.00,883.00
             1293.00,883.00 1294.00,883.00 1294.00,883.00 Z
           M 1292.00,892.00
           C 1292.00,892.00 1292.00,893.00 1292.00,893.00
             1292.00,893.00 1291.00,892.00 1291.00,892.00
             1291.00,892.00 1292.00,892.00 1292.00,892.00 Z
           M 2396.00,906.00
           C 2396.00,906.00 2396.00,907.00 2396.00,907.00
             2396.00,907.00 2397.00,906.00 2397.00,906.00
             2397.00,906.00 2396.00,906.00 2396.00,906.00 Z
           M 1268.00,1046.00
           C 1268.00,1046.00 1268.00,1047.00 1268.00,1047.00
             1268.00,1047.00 1269.00,1046.00 1269.00,1046.00
             1269.00,1046.00 1268.00,1046.00 1268.00,1046.00 Z
           M 2365.00,1631.00
           C 2365.00,1631.00 2365.00,1632.00 2365.00,1632.00
             2365.00,1632.00 2364.00,1631.00 2364.00,1631.00
             2364.00,1631.00 2365.00,1631.00 2365.00,1631.00 Z" />
  <path id="profile"
        fill="none" stroke="black" stroke-width="1"
        d="M 1786.00,390.00
           C 1786.00,390.00 1788.00,392.00 1788.00,392.00
             1788.00,392.00 1761.00,393.72 1761.00,393.72
             1761.00,393.72 1744.00,397.00 1744.00,397.00
             1744.00,397.00 1743.34,398.61 1743.34,398.61
             1743.34,398.61 1733.00,401.00 1733.00,401.00
             1733.00,401.00 1733.00,402.00 1733.00,402.00
             1733.00,402.00 1735.00,402.00 1735.00,402.00
             1719.94,404.04 1715.36,407.46 1703.00,416.00
             1703.00,416.00 1704.00,419.00 1704.00,419.00
             1704.00,419.00 1703.00,420.00 1703.00,420.00
             1698.69,419.84 1696.91,420.63 1696.00,425.00
             1689.20,428.34 1684.28,430.94 1684.00,439.00
             1684.00,439.00 1680.00,438.00 1680.00,438.00
             1680.00,438.00 1679.00,448.00 1679.00,448.00
             1679.00,448.00 1674.00,450.00 1674.00,450.00
             1674.00,450.00 1675.00,453.00 1675.00,453.00
             1675.00,453.00 1673.00,451.00 1673.00,451.00
             1669.83,456.74 1666.78,457.12 1667.00,463.00
             1667.00,463.00 1661.00,465.00 1661.00,465.00
             1661.00,465.00 1654.00,473.00 1654.00,473.00
             1643.41,473.33 1638.26,479.21 1629.00,481.54
             1629.00,481.54 1601.00,484.36 1601.00,484.36
             1595.32,485.66 1586.29,491.27 1574.00,493.00
             1574.00,493.00 1574.00,494.00 1574.00,494.00
             1574.00,494.00 1576.00,494.00 1576.00,494.00
             1572.23,495.17 1569.02,494.73 1568.00,499.00
             1568.00,499.00 1567.00,500.00 1567.00,500.00
             1560.41,500.01 1550.40,508.60 1544.00,512.10
             1544.00,512.10 1536.09,516.26 1536.09,516.26
             1536.09,516.26 1509.09,538.28 1509.09,538.28
             1509.09,538.28 1502.68,545.63 1502.68,545.63
             1502.68,545.63 1497.28,550.12 1497.28,550.12
             1497.28,550.12 1477.00,569.28 1477.00,569.28
             1477.00,569.28 1468.83,578.72 1468.83,578.72
             1462.80,584.66 1456.82,588.08 1455.00,597.00
             1449.65,597.04 1444.05,601.46 1444.00,607.00
             1439.14,608.81 1439.61,610.20 1435.82,612.82
             1435.82,612.82 1425.07,619.97 1425.07,619.97
             1425.07,619.97 1414.72,628.24 1414.72,628.24
             1410.32,631.23 1405.15,633.30 1404.00,639.00
             1398.51,641.85 1390.28,650.96 1385.85,655.68
             1385.85,655.68 1372.63,668.42 1372.63,668.42
             1372.63,668.42 1362.54,684.72 1362.54,684.72
             1358.89,689.96 1352.03,696.80 1351.00,703.00
             1345.94,706.25 1341.35,719.27 1338.99,725.00
             1337.28,729.14 1335.36,730.88 1338.00,735.00
             1338.00,735.00 1334.00,736.00 1334.00,736.00
             1334.00,736.00 1335.00,742.00 1335.00,742.00
             1333.21,742.35 1332.61,742.38 1334.00,744.00
             1330.57,747.94 1327.67,761.92 1329.00,767.00
             1325.95,769.37 1325.95,770.86 1328.00,774.00
             1328.00,774.00 1325.00,774.00 1325.00,774.00
             1325.00,774.00 1324.29,785.83 1324.29,785.83
             1324.29,785.83 1323.28,791.09 1323.28,791.09
             1323.25,793.70 1324.84,796.69 1322.00,798.00
             1322.00,798.00 1323.00,803.00 1323.00,803.00
             1323.00,803.00 1322.00,801.00 1322.00,801.00
             1322.00,801.00 1320.00,805.00 1320.00,805.00
             1320.00,805.00 1322.00,804.00 1322.00,804.00
             1322.00,804.00 1321.00,808.00 1321.00,808.00
             1321.00,808.00 1320.00,806.00 1320.00,806.00
             1320.00,806.00 1317.00,813.00 1317.00,813.00
             1317.00,813.00 1319.00,812.00 1319.00,812.00
             1319.00,812.00 1318.00,816.00 1318.00,816.00
             1318.00,816.00 1317.00,814.00 1317.00,814.00
             1317.00,814.00 1317.00,819.00 1317.00,819.00
             1317.00,819.00 1315.00,817.00 1315.00,817.00
             1311.11,823.65 1307.41,830.66 1304.97,838.00
             1304.97,838.00 1303.03,844.91 1303.03,844.91
             1300.51,852.17 1298.04,854.63 1300.00,863.00
             1294.77,866.29 1295.25,874.40 1295.00,880.00
             1290.01,881.44 1294.17,885.27 1291.00,887.00
             1291.00,887.00 1288.01,901.00 1288.01,901.00
             1288.01,901.00 1286.00,919.00 1286.00,919.00
             1286.00,919.00 1284.00,918.00 1284.00,918.00
             1284.00,918.00 1280.63,937.00 1280.63,937.00
             1280.63,937.00 1280.01,945.17 1280.01,945.17
             1280.01,945.17 1278.00,956.00 1278.00,956.00
             1278.00,956.00 1276.90,953.00 1276.90,953.00
             1276.90,953.00 1276.90,961.00 1276.90,961.00
             1276.90,961.00 1275.00,976.00 1275.00,976.00
             1275.00,976.00 1274.00,971.00 1274.00,971.00
             1274.00,971.00 1274.00,981.00 1274.00,981.00
             1274.00,981.00 1272.01,980.00 1272.01,980.00
             1272.01,980.00 1272.01,992.58 1272.01,992.58
             1272.01,992.58 1268.00,1004.00 1268.00,1004.00
             1268.00,1004.00 1269.00,1000.00 1269.00,1000.00
             1270.79,1006.31 1270.07,1024.50 1270.00,1032.00
             1269.95,1036.67 1270.68,1044.34 1268.00,1048.00
             1268.00,1048.00 1269.00,1069.00 1269.00,1069.00
             1269.00,1069.00 1268.00,1066.00 1268.00,1066.00
             1266.90,1069.01 1267.00,1069.76 1269.97,1071.00
             1269.97,1071.00 1269.97,1089.39 1269.97,1089.39
             1269.97,1089.39 1269.97,1121.00 1269.97,1121.00
             1269.97,1121.00 1269.22,1129.00 1269.22,1129.00
             1269.22,1129.00 1270.00,1143.00 1270.00,1143.00
             1270.00,1143.00 1272.13,1170.00 1272.13,1170.00
             1272.13,1170.00 1274.00,1187.00 1274.00,1187.00
             1266.65,1185.97 1266.17,1189.69 1261.00,1185.00
             1258.32,1185.25 1255.59,1185.00 1253.00,1185.85
             1245.17,1188.42 1236.12,1197.48 1232.92,1205.00
             1232.92,1205.00 1231.04,1211.00 1231.04,1211.00
             1228.98,1215.70 1226.36,1219.78 1225.14,1225.00
             1225.14,1225.00 1225.14,1236.09 1225.14,1236.09
             1223.90,1242.71 1222.28,1243.96 1222.15,1250.99
             1222.15,1250.99 1221.04,1268.00 1221.04,1268.00
             1221.04,1268.00 1222.00,1282.00 1222.00,1282.00
             1222.13,1293.71 1222.51,1300.46 1225.75,1312.00
             1225.75,1312.00 1228.71,1321.00 1228.71,1321.00
             1228.71,1321.00 1231.04,1332.00 1231.04,1332.00
             1231.04,1332.00 1235.39,1345.00 1235.39,1345.00
             1235.39,1345.00 1237.50,1358.00 1237.50,1358.00
             1237.50,1358.00 1241.30,1370.42 1241.30,1370.42
             1241.30,1370.42 1243.53,1380.91 1243.53,1380.91
             1243.53,1380.91 1247.56,1389.92 1247.56,1389.92
             1247.56,1389.92 1248.55,1396.09 1248.55,1396.09
             1248.55,1396.09 1253.55,1411.00 1253.55,1411.00
             1253.55,1411.00 1254.80,1416.83 1254.80,1416.83
             1254.80,1416.83 1257.78,1426.00 1257.78,1426.00
             1260.98,1437.02 1263.51,1437.02 1263.00,1449.00
             1263.00,1449.00 1269.00,1448.00 1269.00,1448.00
             1269.00,1448.00 1274.00,1458.00 1274.00,1458.00
             1271.65,1462.45 1276.87,1469.93 1278.95,1474.16
             1283.12,1482.65 1283.54,1480.10 1286.23,1485.02
             1286.23,1485.02 1289.01,1492.57 1289.01,1492.57
             1290.64,1494.89 1293.40,1494.89 1295.41,1497.30
             1296.59,1498.72 1296.82,1500.21 1297.48,1501.83
             1300.09,1508.20 1300.35,1506.45 1300.00,1514.00
             1300.00,1514.00 1303.00,1513.00 1303.00,1513.00
             1303.00,1513.00 1303.00,1519.00 1303.00,1519.00
             1306.53,1520.23 1307.54,1527.27 1304.00,1529.00
             1304.00,1529.00 1306.87,1532.27 1306.87,1532.27
             1306.87,1532.27 1311.07,1547.00 1311.07,1547.00
             1311.07,1547.00 1310.00,1552.00 1310.00,1552.00
             1310.00,1552.00 1314.00,1552.00 1314.00,1552.00
             1317.04,1557.43 1318.34,1557.12 1320.78,1561.04
             1323.72,1565.77 1323.78,1568.22 1328.59,1573.83
             1332.16,1577.98 1337.28,1581.02 1341.74,1584.13
             1341.74,1584.13 1347.11,1588.04 1347.11,1588.04
             1358.45,1593.66 1374.03,1593.02 1386.00,1590.00
             1386.00,1590.00 1393.00,1608.00 1393.00,1608.00
             1396.56,1611.83 1397.30,1619.70 1398.67,1625.00
             1401.50,1635.94 1408.54,1655.05 1409.00,1665.00
             1412.77,1666.29 1414.06,1674.35 1415.42,1678.00
             1415.42,1678.00 1429.69,1715.00 1429.69,1715.00
             1429.69,1715.00 1446.00,1762.00 1446.00,1762.00
             1446.00,1762.00 1453.21,1783.58 1453.21,1783.58
             1453.21,1783.58 1456.00,1829.00 1456.00,1829.00
             1456.00,1829.00 1457.00,1851.00 1457.00,1851.00
             1457.06,1856.12 1459.59,1874.18 1461.00,1879.00
             1461.00,1879.00 1441.00,1888.00 1441.00,1888.00
             1439.71,1892.33 1435.78,1892.62 1432.00,1894.19
             1426.21,1896.59 1413.54,1901.26 1410.00,1906.00
             1403.20,1905.46 1397.15,1910.28 1391.00,1912.63
             1391.00,1912.63 1381.00,1916.49 1381.00,1916.49
             1381.00,1916.49 1374.00,1920.18 1374.00,1920.18
             1374.00,1920.18 1368.00,1921.79 1368.00,1921.79
             1368.00,1921.79 1356.01,1927.04 1356.01,1927.04
             1356.01,1927.04 1348.83,1932.34 1348.83,1932.34
             1348.83,1932.34 1338.83,1938.02 1338.83,1938.02
             1338.83,1938.02 1325.04,1945.35 1325.04,1945.35
             1322.17,1946.52 1318.92,1946.72 1318.00,1950.00
             1318.00,1950.00 1314.00,1949.00 1314.00,1949.00
             1306.78,1957.19 1297.57,1962.79 1289.01,1969.37
             1284.88,1972.56 1281.64,1976.72 1277.00,1979.18
             1277.00,1979.18 1246.00,1991.40 1246.00,1991.40
             1246.00,1991.40 1214.00,2003.49 1214.00,2003.49
             1214.00,2003.49 1181.00,2008.99 1181.00,2008.99
             1181.00,2008.99 1171.00,2008.99 1171.00,2008.99
             1171.00,2008.99 1154.00,2011.51 1154.00,2011.51
             1154.00,2011.51 1135.00,2015.75 1135.00,2015.75
             1135.00,2015.75 1121.00,2020.91 1121.00,2020.91
             1121.00,2020.91 1105.00,2024.66 1105.00,2024.66
             1098.95,2026.02 1093.31,2028.11 1087.00,2028.00
             1083.04,2031.75 1079.21,2031.47 1074.00,2032.85
             1074.00,2032.85 1040.00,2040.00 1040.00,2040.00
             1038.81,2043.18 1035.04,2042.07 1032.00,2042.00
             1032.00,2042.00 1032.00,2043.00 1032.00,2043.00
             1032.00,2043.00 1034.00,2043.00 1034.00,2043.00
             1030.99,2043.96 1027.93,2045.42 1025.00,2044.00
             1025.00,2044.00 1025.00,2047.00 1025.00,2047.00
             1020.46,2047.38 1010.96,2049.55 1008.00,2053.00
             999.72,2052.26 982.80,2058.27 974.00,2060.35
             974.00,2060.35 957.00,2064.76 957.00,2064.76
             957.00,2064.76 944.00,2067.57 944.00,2067.57
             944.00,2067.57 926.09,2073.49 926.09,2073.49
             926.09,2073.49 889.00,2082.37 889.00,2082.37
             889.00,2082.37 861.00,2090.24 861.00,2090.24
             858.12,2091.12 853.02,2091.99 852.00,2095.00
             846.60,2093.18 846.88,2093.85 842.00,2092.83
             827.01,2089.72 817.39,2088.59 802.00,2091.32
             802.00,2091.32 793.09,2092.08 793.09,2092.08
             793.09,2092.08 770.26,2103.66 770.26,2103.66
             770.26,2103.66 763.95,2108.71 763.95,2108.71
             763.95,2108.71 745.00,2121.95 745.00,2121.95
             740.51,2124.79 738.57,2127.93 733.00,2128.00
             729.83,2133.62 712.16,2144.77 706.24,2149.17
             706.24,2149.17 699.81,2155.65 699.81,2155.65
             699.81,2155.65 681.00,2172.00 681.00,2172.00
             681.00,2172.00 681.00,2170.00 681.00,2170.00
             681.00,2170.00 679.00,2174.00 679.00,2174.00
             679.00,2174.00 665.00,2181.79 665.00,2181.79
             665.00,2181.79 656.00,2187.00 656.00,2187.00
             656.00,2187.00 655.00,2188.00 655.00,2188.00
             655.00,2188.00 656.00,2190.00 656.00,2190.00
             656.00,2190.00 646.00,2193.00 646.00,2193.00
             645.05,2198.60 640.18,2199.51 636.21,2202.78
             636.21,2202.78 631.63,2207.30 631.63,2207.30
             631.63,2207.30 612.61,2223.04 612.61,2223.04
             609.14,2226.07 606.53,2230.70 602.00,2232.00
             599.05,2238.51 595.57,2238.90 590.66,2243.09
             590.66,2243.09 576.95,2256.44 576.95,2256.44
             576.95,2256.44 570.63,2263.54 570.63,2263.54
             570.63,2263.54 543.57,2286.66 543.57,2286.66
             543.57,2286.66 535.28,2291.06 535.28,2291.06
             535.28,2291.06 518.21,2303.90 518.21,2303.90
             511.49,2309.46 516.90,2311.82 507.09,2319.00
             507.09,2319.00 507.09,2323.00 507.09,2323.00
             507.09,2323.00 500.00,2337.00 500.00,2337.00
             500.53,2339.39 501.61,2341.79 499.00,2343.00
             499.89,2351.27 497.37,2350.02 496.38,2355.75
             495.83,2358.91 496.30,2361.70 495.13,2365.00
             495.13,2365.00 485.08,2382.00 485.08,2382.00
             485.08,2382.00 479.45,2394.00 479.45,2394.00
             479.45,2394.00 469.36,2412.00 469.36,2412.00
             469.36,2412.00 463.39,2426.00 463.39,2426.00
             463.39,2426.00 458.11,2434.17 458.11,2434.17
             458.11,2434.17 451.68,2449.00 451.68,2449.00
             451.68,2449.00 435.91,2483.00 435.91,2483.00
             435.91,2483.00 427.21,2507.00 427.21,2507.00
             427.21,2507.00 420.37,2521.28 420.37,2521.28
             420.37,2521.28 402.92,2569.99 402.92,2569.99
             402.92,2569.99 401.83,2575.42 401.83,2575.42
             401.83,2575.42 397.90,2585.00 397.90,2585.00
             397.90,2585.00 395.28,2596.00 395.28,2596.00
             395.28,2596.00 390.36,2610.00 390.36,2610.00
             388.89,2615.14 386.49,2617.75 387.00,2623.00
             383.67,2625.57 383.23,2630.36 381.29,2634.00
             381.29,2634.00 373.69,2648.00 373.69,2648.00
             373.69,2648.00 364.60,2669.00 364.60,2669.00
             364.60,2669.00 357.34,2687.00 357.34,2687.00
             357.34,2687.00 353.20,2696.00 353.20,2696.00
             353.20,2696.00 348.63,2709.83 348.63,2709.83
             341.39,2729.79 336.23,2749.32 331.54,2770.00
             331.54,2770.00 328.34,2780.00 328.34,2780.00
             328.34,2780.00 325.91,2807.00 325.91,2807.00
             325.91,2807.00 324.00,2828.00 324.00,2828.00
             324.00,2828.00 324.68,2847.00 324.68,2847.00
             325.06,2853.02 319.68,2877.68 317.66,2884.00
             317.66,2884.00 313.24,2897.00 313.24,2897.00
             313.24,2897.00 310.67,2909.26 310.67,2909.26
             307.28,2917.33 302.92,2920.18 304.00,2930.00
             304.00,2930.00 302.00,2930.00 302.00,2930.00
             302.00,2930.00 303.00,2934.00 303.00,2934.00
             299.03,2935.23 299.67,2940.57 300.00,2944.00
             297.35,2945.84 297.58,2945.84 298.00,2949.00
             294.85,2951.56 294.59,2955.29 293.44,2959.00
             291.57,2965.00 288.70,2968.48 290.00,2975.00
             290.00,2975.00 285.00,2984.00 285.00,2984.00
             283.50,2989.18 282.81,2990.61 284.00,2996.00
             280.47,2998.71 280.62,3001.94 279.67,3006.00
             278.10,3012.67 276.53,3021.86 272.00,3027.00
             272.00,3027.00 273.00,3031.00 273.00,3031.00
             273.00,3031.00 272.00,3029.00 272.00,3029.00
             272.00,3029.00 271.00,3034.00 271.00,3034.00
             271.00,3034.00 270.00,3032.00 270.00,3032.00
             270.00,3032.00 265.68,3044.04 265.68,3044.04
             265.68,3044.04 256.47,3065.00 256.47,3065.00
             256.47,3065.00 254.73,3072.28 254.73,3072.28
             254.73,3072.28 250.92,3080.00 250.92,3080.00
             250.92,3080.00 247.80,3087.96 247.80,3087.96
             247.80,3087.96 246.66,3092.33 246.66,3092.33
             246.66,3092.33 242.00,3100.00 242.00,3100.00
             242.00,3100.00 239.00,3115.00 239.00,3115.00
             239.00,3115.00 238.00,3111.00 238.00,3111.00
             235.50,3114.62 235.24,3115.66 236.00,3120.00
             232.81,3122.84 231.91,3130.96 230.66,3135.00
             230.66,3135.00 225.20,3146.00 225.20,3146.00
             225.20,3146.00 221.86,3156.00 221.86,3156.00
             220.63,3159.58 219.75,3166.57 216.00,3168.00
             215.66,3174.91 212.90,3186.04 208.00,3191.00
             208.42,3197.90 204.13,3204.58 202.01,3211.00
             202.01,3211.00 199.45,3220.16 199.45,3220.16
             199.45,3220.16 193.20,3236.00 193.20,3236.00
             193.20,3236.00 186.76,3256.00 186.76,3256.00
             184.10,3263.82 178.67,3270.53 181.00,3279.00
             177.17,3281.58 176.04,3284.42 175.35,3288.99
             174.92,3291.79 176.13,3294.95 173.00,3296.00
             172.37,3303.49 170.41,3306.25 168.58,3313.00
             167.78,3315.94 168.11,3318.79 165.00,3320.00
             165.00,3320.00 164.00,3324.00 164.00,3324.00
             164.18,3330.87 161.65,3337.40 160.31,3344.00
             157.31,3358.80 150.90,3383.54 151.26,3398.00
             151.26,3398.00 150.69,3409.00 150.69,3409.00
             150.69,3409.00 148.00,3453.00 148.00,3453.00
             147.97,3470.35 148.33,3473.67 144.66,3491.00
             144.18,3493.28 144.01,3495.85 143.16,3498.00
             143.16,3498.00 118.81,3534.09 118.81,3534.09
             109.59,3548.81 111.57,3552.82 108.74,3568.00
             108.09,3571.45 106.36,3579.62 103.00,3581.00
             102.82,3585.63 101.10,3586.94 99.36,3591.00
             95.89,3599.07 94.74,3601.77 89.85,3609.09
             89.85,3609.09 86.46,3614.72 86.46,3614.72
             86.46,3614.72 81.63,3620.04 81.63,3620.04
             77.75,3625.19 69.85,3642.89 68.46,3649.00
             68.46,3649.00 67.70,3659.00 67.70,3659.00
             67.38,3672.00 66.47,3675.19 68.29,3689.00
             69.79,3700.42 74.67,3712.28 78.74,3723.00
             78.74,3723.00 88.89,3750.00 88.89,3750.00
             91.05,3754.04 92.70,3755.60 95.14,3759.09
             106.32,3775.10 114.35,3785.25 129.99,3797.50
             129.99,3797.50 173.00,3823.99 173.00,3823.99
             175.84,3825.65 188.93,3832.29 190.15,3833.99
             192.12,3836.73 187.99,3845.79 187.04,3849.00
             187.04,3849.00 182.08,3875.00 182.08,3875.00
             182.08,3875.00 183.27,3885.00 183.27,3885.00
             183.27,3885.00 186.11,3902.00 186.11,3902.00
             187.54,3906.19 198.32,3923.36 201.33,3927.00
             206.87,3933.72 221.79,3947.01 223.82,3955.00
             225.02,3959.71 219.83,3967.63 217.78,3972.00
             214.35,3979.34 210.10,3993.95 210.00,4002.00
             210.00,4002.00 210.00,4020.00 210.00,4020.00
             210.00,4022.18 209.91,4024.92 210.51,4027.00
             213.55,4037.57 229.56,4051.01 239.00,4056.20
             243.89,4058.89 247.66,4057.85 250.49,4060.56
             252.48,4062.46 253.21,4066.38 254.02,4069.00
             257.54,4080.29 257.57,4080.16 258.84,4092.00
             258.84,4092.00 267.25,4152.00 267.25,4152.00
             267.25,4152.00 269.90,4168.00 269.90,4168.00
             269.90,4168.00 286.58,4212.00 286.58,4212.00
             298.72,4244.20 304.00,4261.90 321.72,4293.00
             334.53,4315.49 334.26,4315.41 351.42,4335.00
             351.42,4335.00 364.44,4348.01 364.44,4348.01
             365.83,4348.85 366.53,4348.76 368.00,4349.00
             369.52,4353.40 375.47,4358.75 379.07,4361.71
             379.07,4361.71 384.42,4366.41 384.42,4366.41
             386.64,4368.03 387.86,4367.85 389.74,4368.96
             389.74,4368.96 394.23,4372.61 394.23,4372.61
             394.23,4372.61 406.39,4379.85 406.39,4379.85
             411.69,4383.33 417.33,4388.52 424.00,4387.00
             425.61,4390.88 428.15,4389.99 432.00,4390.00
             432.20,4390.83 431.75,4390.96 432.77,4392.22
             433.97,4393.70 446.58,4399.94 449.01,4400.82
             456.30,4403.46 457.83,4402.52 462.00,4403.61
             462.00,4403.61 471.00,4406.63 471.00,4406.63
             480.84,4408.71 494.86,4408.89 505.00,4409.00
             520.94,4409.18 521.06,4410.94 535.00,4415.41
             535.00,4415.41 546.99,4418.56 546.99,4418.56
             546.99,4418.56 564.02,4426.46 564.02,4426.46
             564.02,4426.46 610.00,4443.54 610.00,4443.54
             610.00,4443.54 624.39,4448.27 624.39,4448.27
             624.39,4448.27 628.35,4449.34 628.35,4449.34
             628.35,4449.34 633.17,4452.05 633.17,4452.05
             636.83,4453.55 640.85,4453.19 643.53,4456.51
             649.23,4463.58 641.94,4475.95 641.10,4484.00
             641.10,4484.00 639.69,4496.00 639.69,4496.00
             639.69,4496.00 637.46,4505.00 637.46,4505.00
             637.46,4505.00 636.32,4514.00 636.32,4514.00
             636.32,4514.00 632.45,4528.00 632.45,4528.00
             632.45,4528.00 631.68,4536.00 631.68,4536.00
             631.68,4536.00 628.85,4555.00 628.85,4555.00
             628.85,4555.00 627.00,4568.00 627.00,4568.00
             627.00,4568.00 3122.00,4568.00 3122.00,4568.00
             3122.00,4568.00 3123.80,4557.00 3123.80,4557.00
             3123.80,4557.00 3123.80,4548.00 3123.80,4548.00
             3123.80,4548.00 3123.80,4528.00 3123.80,4528.00
             3123.97,4511.55 3118.97,4489.01 3114.75,4473.00
             3114.75,4473.00 3112.95,4465.00 3112.95,4465.00
             3112.95,4465.00 3104.44,4445.83 3104.44,4445.83
             3104.44,4445.83 3097.64,4430.00 3097.64,4430.00
             3092.66,4421.34 3082.08,4403.41 3080.24,4394.00
             3078.83,4386.74 3082.58,4381.50 3085.09,4375.00
             3085.09,4375.00 3091.41,4356.00 3091.41,4356.00
             3093.41,4352.34 3101.62,4343.79 3105.00,4341.00
             3105.00,4341.00 3104.00,4336.00 3104.00,4336.00
             3104.00,4336.00 3109.00,4336.00 3109.00,4336.00
             3110.46,4332.53 3113.86,4323.83 3116.39,4321.55
             3120.51,4317.83 3128.64,4317.83 3134.00,4316.72
             3134.00,4316.72 3149.00,4312.52 3149.00,4312.52
             3149.00,4312.52 3157.83,4311.32 3157.83,4311.32
             3157.83,4311.32 3168.00,4306.88 3168.00,4306.88
             3168.00,4306.88 3174.00,4303.31 3174.00,4303.31
             3174.00,4303.31 3190.72,4295.37 3190.72,4295.37
             3199.17,4289.86 3205.84,4282.72 3216.00,4280.00
             3216.00,4280.00 3222.28,4272.88 3222.28,4272.88
             3222.28,4272.88 3225.55,4267.65 3225.55,4267.65
             3225.55,4267.65 3234.00,4261.82 3234.00,4261.82
             3234.00,4261.82 3269.70,4235.48 3269.70,4235.48
             3269.70,4235.48 3287.37,4213.00 3287.37,4213.00
             3287.37,4213.00 3319.66,4167.00 3319.66,4167.00
             3319.66,4167.00 3330.86,4147.00 3330.86,4147.00
             3330.86,4147.00 3347.22,4117.00 3347.22,4117.00
             3347.22,4117.00 3360.01,4086.00 3360.01,4086.00
             3360.01,4086.00 3379.58,4038.00 3379.58,4038.00
             3379.58,4038.00 3400.42,3980.00 3400.42,3980.00
             3400.42,3980.00 3416.42,3938.00 3416.42,3938.00
             3416.42,3938.00 3424.11,3918.00 3424.11,3918.00
             3424.11,3918.00 3448.72,3837.00 3448.72,3837.00
             3448.72,3837.00 3460.42,3797.00 3460.42,3797.00
             3460.42,3797.00 3467.00,3773.00 3467.00,3773.00
             3474.66,3772.93 3484.20,3769.89 3492.00,3768.12
             3494.25,3767.61 3499.64,3766.97 3501.01,3765.26
             3502.26,3763.71 3502.00,3759.95 3502.00,3758.00
             3502.00,3758.00 3502.00,3686.00 3502.00,3686.00
             3502.00,3686.00 3502.00,3412.00 3502.00,3412.00
             3502.00,3412.00 3502.00,2917.00 3502.00,2917.00
             3502.00,2917.00 3502.00,2679.00 3502.00,2679.00
             3501.98,2667.07 3500.34,2668.62 3497.66,2658.91
             3497.66,2658.91 3493.26,2638.00 3493.26,2638.00
             3493.26,2638.00 3491.68,2625.00 3491.68,2625.00
             3491.68,2625.00 3488.81,2614.00 3488.81,2614.00
             3488.81,2614.00 3481.33,2576.00 3481.33,2576.00
             3481.33,2576.00 3478.66,2566.00 3478.66,2566.00
             3478.66,2566.00 3476.41,2553.00 3476.41,2553.00
             3476.41,2553.00 3469.57,2532.00 3469.57,2532.00
             3469.57,2532.00 3465.44,2513.00 3465.44,2513.00
             3465.44,2513.00 3457.32,2493.00 3457.32,2493.00
             3457.32,2493.00 3455.65,2486.00 3455.65,2486.00
             3455.65,2486.00 3450.39,2470.00 3450.39,2470.00
             3450.39,2470.00 3445.35,2461.00 3445.35,2461.00
             3445.35,2461.00 3435.15,2437.83 3435.15,2437.83
             3435.15,2437.83 3428.03,2420.04 3428.03,2420.04
             3428.03,2420.04 3423.05,2411.96 3423.05,2411.96
             3423.05,2411.96 3415.67,2395.17 3415.67,2395.17
             3415.67,2395.17 3409.27,2383.96 3409.27,2383.96
             3409.27,2383.96 3407.31,2376.42 3407.31,2376.42
             3407.31,2376.42 3402.25,2361.00 3402.25,2361.00
             3402.25,2361.00 3398.72,2353.00 3398.72,2353.00
             3398.72,2353.00 3395.56,2344.00 3395.56,2344.00
             3387.57,2325.68 3373.57,2306.41 3359.04,2292.84
             3349.29,2283.73 3353.81,2286.64 3342.00,2279.63
             3338.71,2277.68 3337.78,2276.61 3334.00,2275.00
             3333.07,2268.08 3325.96,2262.90 3320.00,2260.00
             3319.27,2256.58 3318.98,2256.78 3316.00,2255.00
             3316.00,2255.00 3317.00,2253.00 3317.00,2253.00
             3317.00,2253.00 3316.00,2252.00 3316.00,2252.00
             3316.00,2252.00 3313.00,2253.00 3313.00,2253.00
             3311.07,2247.72 3307.16,2245.70 3302.00,2244.00
             3301.11,2240.39 3299.88,2241.09 3297.54,2238.61
             3293.83,2234.69 3293.55,2231.66 3287.00,2231.00
             3282.76,2222.45 3278.42,2225.30 3273.00,2218.00
             3267.16,2216.92 3255.00,2206.67 3248.83,2203.62
             3248.83,2203.62 3240.00,2200.03 3240.00,2200.03
             3240.00,2200.03 3216.00,2186.35 3216.00,2186.35
             3216.00,2186.35 3208.00,2182.74 3208.00,2182.74
             3208.00,2182.74 3200.00,2177.61 3200.00,2177.61
             3200.00,2177.61 3193.28,2175.08 3193.28,2175.08
             3193.28,2175.08 3187.96,2171.06 3187.96,2171.06
             3187.96,2171.06 3182.17,2168.77 3182.17,2168.77
             3182.17,2168.77 3174.99,2163.27 3174.99,2163.27
             3174.99,2163.27 3161.00,2156.17 3161.00,2156.17
             3157.23,2154.99 3155.61,2156.09 3152.00,2155.45
             3152.00,2155.45 3138.09,2150.32 3138.09,2150.32
             3138.09,2150.32 3131.93,2146.94 3131.93,2146.94
             3131.93,2146.94 3121.99,2142.61 3121.99,2142.61
             3121.99,2142.61 3106.00,2134.70 3106.00,2134.70
             3106.00,2134.70 3065.00,2119.89 3065.00,2119.89
             3065.00,2119.89 3057.17,2117.70 3057.17,2117.70
             3057.17,2117.70 3035.98,2108.65 3035.98,2108.65
             3027.89,2105.37 3019.57,2103.55 3011.09,2101.75
             3011.09,2101.75 3005.83,2100.24 3005.83,2100.24
             3005.83,2100.24 2999.00,2099.40 2999.00,2099.40
             2999.00,2099.40 2978.01,2093.17 2978.01,2093.17
             2969.84,2091.09 2958.12,2089.05 2952.00,2083.00
             2952.00,2083.00 2933.00,2078.28 2933.00,2078.28
             2933.00,2078.28 2921.00,2074.00 2921.00,2074.00
             2921.00,2074.00 2908.00,2071.61 2908.00,2071.61
             2908.00,2071.61 2880.00,2066.52 2880.00,2066.52
             2880.00,2066.52 2826.00,2063.62 2826.00,2063.62
             2826.00,2063.62 2791.00,2054.00 2791.00,2054.00
             2791.00,2054.00 2773.00,2045.00 2773.00,2045.00
             2763.74,2044.36 2762.70,2042.10 2755.00,2038.88
             2755.00,2038.88 2739.13,2033.51 2739.13,2033.51
             2739.13,2033.51 2733.76,2029.63 2733.76,2029.63
             2728.93,2027.02 2725.28,2028.38 2721.00,2025.00
             2721.00,2025.00 2719.00,2026.00 2719.00,2026.00
             2716.91,2023.65 2713.87,2023.62 2711.00,2022.25
             2701.24,2017.58 2692.52,2016.39 2682.00,2015.00
             2682.00,2015.00 2683.00,2013.00 2683.00,2013.00
             2683.00,2013.00 2662.00,2006.68 2662.00,2006.68
             2662.00,2006.68 2653.00,2002.09 2653.00,2002.09
             2653.00,2002.09 2643.00,1999.38 2643.00,1999.38
             2643.00,1999.38 2630.00,1994.54 2630.00,1994.54
             2630.00,1994.54 2602.00,1982.88 2602.00,1982.88
             2602.00,1982.88 2591.00,1982.00 2591.00,1982.00
             2588.82,1976.24 2583.01,1977.15 2578.00,1974.38
             2573.33,1971.79 2571.37,1968.23 2566.00,1968.00
             2565.17,1966.14 2564.81,1964.69 2562.75,1963.81
             2559.94,1962.61 2557.39,1964.45 2556.00,1961.00
             2556.00,1961.00 2553.00,1959.00 2553.00,1959.00
             2550.60,1959.03 2549.64,1959.52 2549.00,1957.00
             2549.00,1957.00 2528.00,1948.10 2528.00,1948.10
             2528.00,1948.10 2521.00,1943.00 2521.00,1943.00
             2516.24,1941.82 2512.12,1937.09 2507.95,1934.38
             2505.67,1932.90 2504.32,1931.19 2502.00,1933.00
             2502.00,1933.00 2487.00,1922.71 2487.00,1922.71
             2487.00,1922.71 2469.72,1915.21 2469.72,1915.21
             2469.72,1915.21 2455.83,1906.51 2455.83,1906.51
             2455.83,1906.51 2433.28,1896.14 2433.28,1896.14
             2433.28,1896.14 2424.00,1889.90 2424.00,1889.90
             2424.00,1889.90 2417.51,1886.71 2417.51,1886.71
             2417.51,1886.71 2412.83,1883.11 2412.83,1883.11
             2412.83,1883.11 2393.00,1873.03 2393.00,1873.03
             2393.00,1873.03 2382.59,1869.69 2382.59,1869.69
             2382.59,1869.69 2379.57,1857.00 2379.57,1857.00
             2379.57,1857.00 2377.70,1842.00 2377.70,1842.00
             2377.70,1842.00 2376.00,1824.00 2376.00,1824.00
             2376.00,1824.00 2375.18,1812.00 2375.18,1812.00
             2375.18,1812.00 2376.00,1798.00 2376.00,1798.00
             2376.00,1798.00 2375.12,1783.00 2375.12,1783.00
             2375.12,1783.00 2373.92,1774.00 2373.92,1774.00
             2373.92,1774.00 2373.92,1762.00 2373.92,1762.00
             2373.92,1762.00 2370.13,1737.00 2370.13,1737.00
             2370.13,1737.00 2367.71,1716.00 2367.71,1716.00
             2367.71,1716.00 2363.80,1684.28 2363.80,1684.28
             2363.80,1684.28 2361.97,1665.00 2361.97,1665.00
             2361.97,1665.00 2363.00,1656.00 2363.00,1656.00
             2363.00,1656.00 2362.00,1656.00 2362.00,1656.00
             2362.00,1656.00 2362.00,1658.00 2362.00,1658.00
             2360.57,1652.95 2360.81,1645.31 2364.00,1641.00
             2363.32,1634.87 2366.72,1630.09 2367.74,1624.00
             2367.74,1624.00 2368.44,1617.00 2368.44,1617.00
             2368.44,1617.00 2371.64,1603.00 2371.64,1603.00
             2371.64,1603.00 2375.88,1582.00 2375.88,1582.00
             2377.12,1576.62 2377.56,1569.29 2381.00,1565.00
             2379.57,1555.90 2382.57,1553.65 2383.71,1545.00
             2383.71,1545.00 2387.28,1517.00 2387.28,1517.00
             2387.28,1517.00 2391.00,1499.00 2391.00,1499.00
             2402.79,1498.73 2414.85,1492.75 2423.00,1484.32
             2423.00,1484.32 2431.59,1473.74 2431.59,1473.74
             2442.67,1461.56 2450.58,1454.42 2455.76,1438.00
             2457.52,1431.43 2455.47,1429.47 2455.76,1425.00
             2456.48,1420.63 2459.31,1418.04 2460.06,1415.58
             2460.82,1413.48 2460.18,1410.27 2460.06,1408.00
             2460.06,1408.00 2463.00,1408.00 2463.00,1408.00
             2463.00,1408.00 2464.00,1397.00 2464.00,1397.00
             2464.00,1397.00 2468.00,1399.00 2468.00,1399.00
             2468.00,1399.00 2467.00,1392.00 2467.00,1392.00
             2467.00,1392.00 2471.00,1391.00 2471.00,1391.00
             2471.00,1391.00 2470.00,1386.00 2470.00,1386.00
             2473.78,1384.92 2475.63,1379.45 2477.00,1376.00
             2477.00,1376.00 2479.00,1377.00 2479.00,1377.00
             2479.00,1377.00 2481.22,1370.00 2481.22,1370.00
             2481.22,1370.00 2484.91,1363.00 2484.91,1363.00
             2484.91,1363.00 2500.59,1333.00 2500.59,1333.00
             2500.59,1333.00 2503.20,1326.00 2503.20,1326.00
             2503.20,1326.00 2511.21,1307.00 2511.21,1307.00
             2511.21,1307.00 2513.33,1298.17 2513.33,1298.17
             2513.33,1298.17 2516.52,1291.96 2516.52,1291.96
             2516.52,1291.96 2519.32,1282.00 2519.32,1282.00
             2519.32,1282.00 2527.32,1260.00 2527.32,1260.00
             2527.32,1260.00 2528.20,1253.00 2528.20,1253.00
             2528.20,1253.00 2530.20,1243.00 2530.20,1243.00
             2530.20,1243.00 2532.41,1235.00 2532.41,1235.00
             2532.41,1235.00 2532.41,1229.00 2532.41,1229.00
             2533.06,1216.60 2534.22,1221.15 2533.68,1205.01
             2533.68,1205.01 2533.68,1194.00 2533.68,1194.00
             2533.68,1194.00 2530.04,1183.00 2530.04,1183.00
             2528.31,1175.96 2530.33,1169.23 2523.00,1166.00
             2523.00,1166.00 2523.00,1164.00 2523.00,1164.00
             2523.00,1164.00 2526.00,1163.00 2526.00,1163.00
             2526.00,1163.00 2521.00,1161.00 2521.00,1161.00
             2520.67,1156.60 2518.54,1153.11 2517.05,1149.00
             2514.59,1142.19 2515.39,1141.00 2514.50,1138.28
             2514.50,1138.28 2512.55,1133.91 2512.55,1133.91
             2510.91,1128.95 2512.34,1127.12 2507.00,1124.00
             2507.46,1118.76 2504.65,1107.24 2500.47,1104.17
             2499.30,1103.31 2498.31,1103.30 2497.00,1103.00
             2497.00,1103.00 2495.44,1093.26 2495.44,1093.26
             2495.44,1093.26 2490.74,1087.87 2490.74,1087.87
             2490.74,1087.87 2480.00,1072.00 2480.00,1072.00
             2469.53,1071.86 2472.22,1068.90 2465.00,1066.65
             2465.00,1066.65 2448.00,1065.21 2448.00,1065.21
             2444.52,1064.82 2436.42,1066.39 2438.00,1071.00
             2432.62,1072.47 2421.17,1078.31 2420.00,1084.00
             2420.00,1084.00 2417.00,1083.00 2417.00,1083.00
             2417.00,1083.00 2412.00,1088.00 2412.00,1088.00
             2409.82,1071.49 2412.83,1054.61 2413.00,1038.00
             2413.00,1038.00 2408.68,990.00 2408.68,990.00
             2406.74,978.38 2404.07,966.89 2404.23,955.00
             2404.23,955.00 2402.00,936.00 2402.00,936.00
             2402.00,936.00 2401.00,939.00 2401.00,939.00
             2401.00,939.00 2401.00,929.00 2401.00,929.00
             2401.00,929.00 2400.00,929.00 2400.00,929.00
             2400.00,929.00 2400.00,931.00 2400.00,931.00
             2400.00,931.00 2400.00,927.00 2400.00,927.00
             2397.40,925.96 2397.94,923.62 2397.58,921.00
             2397.58,921.00 2395.00,902.00 2395.00,902.00
             2395.00,902.00 2394.00,902.00 2394.00,902.00
             2394.00,902.00 2394.00,904.00 2394.00,904.00
             2393.45,901.71 2392.55,900.13 2395.00,899.00
             2392.02,890.67 2390.20,889.43 2391.00,880.00
             2388.24,877.22 2387.25,875.73 2389.00,872.00
             2389.00,872.00 2385.18,861.00 2385.18,861.00
             2384.13,856.67 2385.98,853.94 2381.00,852.00
             2381.00,852.00 2382.00,849.00 2382.00,849.00
             2375.74,844.80 2376.53,840.88 2375.66,834.17
             2375.08,829.64 2374.65,831.41 2375.00,826.00
             2375.00,826.00 2374.00,826.00 2374.00,826.00
             2374.00,826.00 2374.00,828.00 2374.00,828.00
             2374.00,828.00 2370.00,817.00 2370.00,817.00
             2370.00,817.00 2364.00,803.00 2364.00,803.00
             2364.00,803.00 2365.00,800.00 2365.00,800.00
             2365.00,800.00 2362.22,790.00 2362.22,790.00
             2362.22,790.00 2356.00,775.00 2356.00,775.00
             2356.00,775.00 2351.00,767.00 2351.00,767.00
             2352.10,762.63 2351.72,762.10 2350.00,758.00
             2350.00,758.00 2348.00,759.00 2348.00,759.00
             2348.00,759.00 2348.00,753.00 2348.00,753.00
             2348.00,753.00 2345.00,748.00 2345.00,748.00
             2345.00,748.00 2347.00,748.00 2347.00,748.00
             2347.00,748.00 2339.00,729.00 2339.00,729.00
             2339.00,729.00 2338.00,729.00 2338.00,729.00
             2338.00,729.00 2338.00,731.00 2338.00,731.00
             2335.90,725.46 2335.83,714.49 2329.00,713.00
             2328.59,709.35 2328.69,705.45 2325.00,704.00
             2325.56,700.49 2324.27,691.49 2322.02,688.72
             2321.05,687.52 2320.26,687.51 2319.00,687.00
             2319.00,687.00 2320.00,682.00 2320.00,682.00
             2320.00,682.00 2314.00,676.00 2314.00,676.00
             2314.00,676.00 2316.00,672.00 2316.00,672.00
             2316.00,672.00 2312.00,672.00 2312.00,672.00
             2312.00,672.00 2312.00,665.00 2312.00,665.00
             2312.00,665.00 2311.00,665.00 2311.00,665.00
             2311.00,665.00 2311.00,667.00 2311.00,667.00
             2309.71,661.81 2309.57,657.74 2304.00,656.00
             2303.79,650.00 2301.01,644.02 2295.00,642.00
             2295.00,642.00 2296.00,639.00 2296.00,639.00
             2296.00,639.00 2293.00,639.00 2293.00,639.00
             2293.00,639.00 2295.00,637.00 2295.00,637.00
             2290.41,633.56 2284.68,630.95 2283.00,625.00
             2281.11,624.27 2277.67,623.32 2278.00,621.00
             2276.68,620.43 2274.77,619.85 2273.78,618.82
             2272.18,617.18 2271.95,612.33 2269.00,614.00
             2269.00,614.00 2268.00,608.00 2268.00,608.00
             2268.00,608.00 2265.00,605.00 2265.00,605.00
             2265.00,605.00 2264.00,605.00 2264.00,605.00
             2264.00,605.00 2264.00,607.00 2264.00,607.00
             2262.94,603.20 2263.18,602.23 2259.00,602.00
             2259.00,602.00 2260.00,599.00 2260.00,599.00
             2260.00,599.00 2257.00,600.00 2257.00,600.00
             2257.00,600.00 2254.00,595.00 2254.00,595.00
             2254.00,595.00 2256.00,595.00 2256.00,595.00
             2253.03,591.73 2252.36,591.51 2248.00,591.00
             2248.00,591.00 2250.00,589.00 2250.00,589.00
             2250.00,589.00 2242.37,583.30 2242.37,583.30
             2237.54,579.06 2237.03,576.09 2230.00,574.00
             2230.00,574.00 2232.00,572.00 2232.00,572.00
             2232.00,572.00 2216.09,561.33 2216.09,561.33
             2216.09,561.33 2205.00,551.89 2205.00,551.89
             2205.00,551.89 2192.00,543.16 2192.00,543.16
             2192.00,543.16 2185.00,539.31 2185.00,539.31
             2185.00,539.31 2174.00,530.91 2174.00,530.91
             2174.00,530.91 2155.00,520.19 2155.00,520.19
             2155.00,520.19 2145.00,516.37 2145.00,516.37
             2145.00,516.37 2133.00,509.78 2133.00,509.78
             2133.00,509.78 2124.04,506.25 2124.04,506.25
             2124.04,506.25 2118.72,503.06 2118.72,503.06
             2118.72,503.06 2103.09,495.74 2103.09,495.74
             2103.09,495.74 2095.96,490.91 2095.96,490.91
             2095.96,490.91 2087.00,487.33 2087.00,487.33
             2087.00,487.33 2076.00,479.95 2076.00,479.95
             2076.00,479.95 2064.00,473.15 2064.00,473.15
             2064.00,473.15 2055.00,465.94 2055.00,465.94
             2055.00,465.94 2047.00,461.49 2047.00,461.49
             2047.00,461.49 2030.00,450.31 2030.00,450.31
             2030.00,450.31 2019.04,444.32 2019.04,444.32
             2019.04,444.32 2012.85,442.34 2012.85,442.34
             2012.85,442.34 2003.96,437.96 2003.96,437.96
             2003.96,437.96 1988.00,432.58 1988.00,432.58
             1988.00,432.58 1978.00,428.89 1978.00,428.89
             1968.64,426.37 1960.49,431.83 1952.00,425.00
             1947.07,425.18 1932.97,421.90 1929.29,419.26
             1929.29,419.26 1922.71,412.69 1922.71,412.69
             1922.71,412.69 1917.00,409.34 1917.00,409.34
             1917.00,409.34 1907.00,402.14 1907.00,402.14
             1896.48,394.78 1894.02,390.98 1881.00,389.00
             1881.00,389.00 1882.00,387.00 1882.00,387.00
             1882.00,387.00 1873.51,385.94 1873.51,385.94
             1869.71,385.12 1872.09,384.05 1864.00,384.00
             1864.00,384.00 1836.00,384.00 1836.00,384.00
             1832.13,384.00 1826.77,382.91 1824.00,386.00
             1824.00,386.00 1808.00,386.00 1808.00,386.00
             1808.00,386.00 1811.00,385.00 1811.00,385.00
             1811.00,385.00 1802.00,386.66 1802.00,386.66
             1802.00,386.66 1786.00,390.00 1786.00,390.00 Z
           M 1812.00,384.00
           C 1812.00,384.00 1812.00,385.00 1812.00,385.00
             1812.00,385.00 1813.00,384.00 1813.00,384.00
             1813.00,384.00 1812.00,384.00 1812.00,384.00 Z
           M 1796.00,388.00
           C 1796.00,388.00 1796.00,389.00 1796.00,389.00
             1796.00,389.00 1795.00,388.00 1795.00,388.00
             1795.00,388.00 1796.00,388.00 1796.00,388.00 Z
           M 1782.00,394.00
           C 1782.00,394.00 1775.00,395.00 1775.00,395.00
             1775.00,395.00 1782.00,394.00 1782.00,394.00 Z
           M 1768.00,395.00
           C 1768.00,395.00 1768.00,396.00 1768.00,396.00
             1768.00,396.00 1767.00,395.00 1767.00,395.00
             1767.00,395.00 1768.00,395.00 1768.00,395.00 Z
           M 1775.00,395.00
           C 1775.00,395.00 1775.00,396.00 1775.00,396.00
             1775.00,396.00 1774.00,395.00 1774.00,395.00
             1774.00,395.00 1775.00,395.00 1775.00,395.00 Z
           M 1901.00,399.00
           C 1901.00,399.00 1901.00,400.00 1901.00,400.00
             1901.00,400.00 1900.00,399.00 1900.00,399.00
             1900.00,399.00 1901.00,399.00 1901.00,399.00 Z
           M 1732.00,403.00
           C 1732.00,403.00 1732.00,404.00 1732.00,404.00
             1732.00,404.00 1731.00,403.00 1731.00,403.00
             1731.00,403.00 1732.00,403.00 1732.00,403.00 Z
           M 1922.00,414.00
           C 1922.00,414.00 1922.00,415.00 1922.00,415.00
             1922.00,415.00 1921.00,414.00 1921.00,414.00
             1921.00,414.00 1922.00,414.00 1922.00,414.00 Z
           M 2028.00,450.00
           C 2028.00,450.00 2028.00,451.00 2028.00,451.00
             2028.00,451.00 2027.00,450.00 2027.00,450.00
             2027.00,450.00 2028.00,450.00 2028.00,450.00 Z
           M 1662.00,467.00
           C 1662.00,467.00 1662.00,468.00 1662.00,468.00
             1662.00,468.00 1661.00,467.00 1661.00,467.00
             1661.00,467.00 1662.00,467.00 1662.00,467.00 Z
           M 1550.00,510.00
           C 1550.00,510.00 1550.00,511.00 1550.00,511.00
             1550.00,511.00 1549.00,510.00 1549.00,510.00
             1549.00,510.00 1550.00,510.00 1550.00,510.00 Z
           M 1549.00,511.00
           C 1549.00,511.00 1549.00,512.00 1549.00,512.00
             1549.00,512.00 1548.00,511.00 1548.00,511.00
             1548.00,511.00 1549.00,511.00 1549.00,511.00 Z
           M 1465.00,584.00
           C 1465.00,584.00 1465.00,585.00 1465.00,585.00
             1465.00,585.00 1464.00,584.00 1464.00,584.00
             1464.00,584.00 1465.00,584.00 1465.00,584.00 Z
           M 2254.00,594.00
           C 2254.00,594.00 2254.00,595.00 2254.00,595.00
             2254.00,595.00 2253.00,594.00 2253.00,594.00
             2253.00,594.00 2254.00,594.00 2254.00,594.00 Z
           M 1446.00,604.00
           C 1446.00,604.00 1446.00,605.00 1446.00,605.00
             1446.00,605.00 1445.00,604.00 1445.00,604.00
             1445.00,604.00 1446.00,604.00 1446.00,604.00 Z
           M 1445.00,605.00
           C 1445.00,605.00 1445.00,606.00 1445.00,606.00
             1445.00,606.00 1444.00,605.00 1444.00,605.00
             1444.00,605.00 1445.00,605.00 1445.00,605.00 Z
           M 2270.00,614.00
           C 2270.00,614.00 2270.00,615.00 2270.00,615.00
             2270.00,615.00 2269.00,614.00 2269.00,614.00
             2269.00,614.00 2270.00,614.00 2270.00,614.00 Z
           M 2272.00,616.00
           C 2272.00,616.00 2272.00,617.00 2272.00,617.00
             2272.00,617.00 2271.00,616.00 2271.00,616.00
             2271.00,616.00 2272.00,616.00 2272.00,616.00 Z
           M 2308.00,659.00
           C 2308.00,659.00 2308.00,660.00 2308.00,660.00
             2308.00,660.00 2307.00,659.00 2307.00,659.00
             2307.00,659.00 2308.00,659.00 2308.00,659.00 Z
           M 2325.00,701.00
           C 2325.00,701.00 2325.00,702.00 2325.00,702.00
             2325.00,702.00 2324.00,701.00 2324.00,701.00
             2324.00,701.00 2325.00,701.00 2325.00,701.00 Z
           M 1327.00,776.00
           C 1327.00,776.00 1327.00,777.00 1327.00,777.00
             1327.00,777.00 1326.00,776.00 1326.00,776.00
             1326.00,776.00 1327.00,776.00 1327.00,776.00 Z
           M 2362.00,791.00
           C 2362.00,791.00 2362.00,792.00 2362.00,792.00
             2362.00,792.00 2361.00,791.00 2361.00,791.00
             2361.00,791.00 2362.00,791.00 2362.00,791.00 Z
           M 1325.00,792.00
           C 1325.00,792.00 1325.00,793.00 1325.00,793.00
             1325.00,793.00 1324.00,792.00 1324.00,792.00
             1324.00,792.00 1325.00,792.00 1325.00,792.00 Z
           M 2365.00,804.00
           C 2365.00,804.00 2365.00,805.00 2365.00,805.00
             2365.00,805.00 2364.00,804.00 2364.00,804.00
             2364.00,804.00 2365.00,804.00 2365.00,804.00 Z
           M 1311.00,829.00
           C 1311.00,829.00 1311.00,830.00 1311.00,830.00
             1311.00,830.00 1310.00,829.00 1310.00,829.00
             1310.00,829.00 1311.00,829.00 1311.00,829.00 Z
           M 2375.00,834.00
           C 2375.00,834.00 2375.00,835.00 2375.00,835.00
             2375.00,835.00 2374.00,834.00 2374.00,834.00
             2374.00,834.00 2375.00,834.00 2375.00,834.00 Z
           M 1303.00,852.00
           C 1303.00,852.00 1303.00,853.00 1303.00,853.00
             1303.00,853.00 1302.00,852.00 1302.00,852.00
             1302.00,852.00 1303.00,852.00 1303.00,852.00 Z
           M 2387.00,870.00
           C 2387.00,870.00 2387.00,871.00 2387.00,871.00
             2387.00,871.00 2386.00,870.00 2386.00,870.00
             2386.00,870.00 2387.00,870.00 2387.00,870.00 Z
           M 2390.00,882.00
           C 2390.00,882.00 2390.00,883.00 2390.00,883.00
             2390.00,883.00 2389.00,882.00 2389.00,882.00
             2389.00,882.00 2390.00,882.00 2390.00,882.00 Z
           M 1294.00,883.00
           C 1294.00,883.00 1294.00,884.00 1294.00,884.00
             1294.00,884.00 1293.00,883.00 1293.00,883.00
             1293.00,883.00 1294.00,883.00 1294.00,883.00 Z
           M 1292.00,892.00
           C 1292.00,892.00 1292.00,893.00 1292.00,893.00
             1292.00,893.00 1291.00,892.00 1291.00,892.00
             1291.00,892.00 1292.00,892.00 1292.00,892.00 Z
           M 2396.00,906.00
           C 2396.00,906.00 2396.00,907.00 2396.00,907.00
             2396.00,907.00 2397.00,906.00 2397.00,906.00
             2397.00,906.00 2396.00,906.00 2396.00,906.00 Z
           M 1268.00,1046.00
           C 1268.00,1046.00 1268.00,1047.00 1268.00,1047.00
             1268.00,1047.00 1269.00,1046.00 1269.00,1046.00
             1269.00,1046.00 1268.00,1046.00 1268.00,1046.00 Z
           M 2365.00,1631.00
           C 2365.00,1631.00 2365.00,1632.00 2365.00,1632.00
             2365.00,1632.00 2364.00,1631.00 2364.00,1631.00
             2364.00,1631.00 2365.00,1631.00 2365.00,1631.00 Z
           M 2394.00,1875.00
           C 2394.00,1875.00 2394.00,1876.00 2394.00,1876.00
             2394.00,1876.00 2393.00,1875.00 2393.00,1875.00
             2393.00,1875.00 2394.00,1875.00 2394.00,1875.00 Z
           M 2504.00,1934.00
           C 2504.00,1934.00 2504.00,1935.00 2504.00,1935.00
             2504.00,1935.00 2503.00,1934.00 2503.00,1934.00
             2503.00,1934.00 2504.00,1934.00 2504.00,1934.00 Z
           M 796.00,2092.00
           C 796.00,2092.00 796.00,2093.00 796.00,2093.00
             796.00,2093.00 795.00,2092.00 795.00,2092.00
             795.00,2092.00 796.00,2092.00 796.00,2092.00 Z
           M 848.00,2094.00
           C 848.00,2094.00 848.00,2095.00 848.00,2095.00
             848.00,2095.00 847.00,2094.00 847.00,2094.00
             847.00,2094.00 848.00,2094.00 848.00,2094.00 Z
           M 2995.00,2099.00
           C 2995.00,2099.00 2995.00,2100.00 2995.00,2100.00
             2995.00,2100.00 2994.00,2099.00 2994.00,2099.00
             2994.00,2099.00 2995.00,2099.00 2995.00,2099.00 Z
           M 3179.00,2167.00
           C 3179.00,2167.00 3179.00,2168.00 3179.00,2168.00
             3179.00,2168.00 3178.00,2167.00 3178.00,2167.00
             3178.00,2167.00 3179.00,2167.00 3179.00,2167.00 Z
           M 653.00,2191.00
           C 653.00,2191.00 653.00,2192.00 653.00,2192.00
             653.00,2192.00 652.00,2191.00 652.00,2191.00
             652.00,2191.00 653.00,2191.00 653.00,2191.00 Z
           M 3242.00,2202.00
           C 3242.00,2202.00 3242.00,2203.00 3242.00,2203.00
             3242.00,2203.00 3241.00,2202.00 3241.00,2202.00
             3241.00,2202.00 3242.00,2202.00 3242.00,2202.00 Z
           M 3315.00,2253.00
           C 3315.00,2253.00 3315.00,2254.00 3315.00,2254.00
             3315.00,2254.00 3314.00,2253.00 3314.00,2253.00
             3314.00,2253.00 3315.00,2253.00 3315.00,2253.00 Z
           M 515.00,2311.00
           C 515.00,2311.00 515.00,2312.00 515.00,2312.00
             515.00,2312.00 514.00,2311.00 514.00,2311.00
             514.00,2311.00 515.00,2311.00 515.00,2311.00 Z
           M 380.00,2639.00
           C 380.00,2639.00 380.00,2640.00 380.00,2640.00
             380.00,2640.00 379.00,2639.00 379.00,2639.00
             379.00,2639.00 380.00,2639.00 380.00,2639.00 Z
           M 179.00,3282.00
           C 179.00,3282.00 179.00,3283.00 179.00,3283.00
             179.00,3283.00 178.00,3282.00 178.00,3282.00
             178.00,3282.00 179.00,3282.00 179.00,3282.00 Z
           M 92.00,3608.00
           C 92.00,3608.00 92.00,3609.00 92.00,3609.00
             92.00,3609.00 91.00,3608.00 91.00,3608.00
             91.00,3608.00 92.00,3608.00 92.00,3608.00 Z
           M 86.00,3617.00
           C 86.00,3617.00 86.00,3618.00 86.00,3618.00
             86.00,3618.00 85.00,3617.00 85.00,3617.00
             85.00,3617.00 86.00,3617.00 86.00,3617.00 Z" />
</svg>
