<?xml version="1.0" encoding="UTF-8" standalone="no"?>
<!DOCTYPE svg PUBLIC "-//W3C//DTD SVG 20010904//EN"
              "http://www.w3.org/TR/2001/REC-SVG-20010904/DTD/svg10.dtd">

<svg xmlns="http://www.w3.org/2000/svg"
     width="11.2433in" height="15.8067in"
     viewBox="0 0 3373 4742">
  <path id="face"
        fill="none" stroke="black" stroke-width="1"
        d="M 1604.00,415.00
           C 1602.85,418.68 1596.69,421.12 1593.96,424.43
             1593.96,424.43 1590.47,429.83 1590.47,429.83
             1590.47,429.83 1583.13,438.88 1583.13,438.88
             1583.13,438.88 1576.71,444.39 1576.71,444.39
             1572.29,449.04 1570.27,453.04 1563.00,453.00
             1556.41,460.76 1554.55,458.02 1547.58,459.52
             1547.58,459.52 1536.00,463.52 1536.00,463.52
             1536.00,463.52 1528.00,464.76 1528.00,464.76
             1518.06,467.21 1508.38,470.33 1499.00,474.51
             1499.00,474.51 1492.00,478.05 1492.00,478.05
             1492.00,478.05 1481.00,482.26 1481.00,482.26
             1481.00,482.26 1464.59,491.85 1464.59,491.85
             1464.59,491.85 1460.83,494.75 1460.83,494.75
             1454.04,499.01 1443.63,501.66 1439.00,509.00
             1439.00,509.00 1435.00,508.00 1435.00,508.00
             1435.00,508.00 1437.00,510.00 1437.00,510.00
             1437.00,510.00 1413.00,524.00 1413.00,524.00
             1413.00,524.00 1414.00,527.00 1414.00,527.00
             1403.88,529.15 1393.90,540.16 1385.00,540.00
             1385.00,540.00 1386.00,543.00 1386.00,543.00
             1386.00,543.00 1383.00,543.00 1383.00,543.00
             1382.12,547.45 1374.83,550.20 1371.00,552.02
             1362.52,556.07 1364.14,557.24 1358.72,561.42
             1358.72,561.42 1354.37,563.95 1354.37,563.95
             1354.37,563.95 1349.80,568.29 1349.80,568.29
             1346.61,570.96 1344.30,570.42 1344.00,575.00
             1342.29,575.72 1333.77,580.52 1332.68,581.58
             1330.35,583.85 1329.45,588.02 1325.83,591.11
             1316.41,599.14 1316.40,600.28 1309.49,610.00
             1309.49,610.00 1304.28,616.99 1304.28,616.99
             1304.28,616.99 1301.34,622.41 1301.34,622.41
             1301.34,622.41 1295.84,629.17 1295.84,629.17
             1295.84,629.17 1285.64,648.00 1285.64,648.00
             1285.64,648.00 1281.61,660.00 1281.61,660.00
             1281.61,660.00 1276.51,670.00 1276.51,670.00
             1276.51,670.00 1273.81,678.00 1273.81,678.00
             1273.81,678.00 1270.78,685.00 1270.78,685.00
             1270.78,685.00 1269.18,691.00 1269.18,691.00
             1269.18,691.00 1266.57,697.99 1266.57,697.99
             1266.57,697.99 1264.58,708.01 1264.58,708.01
             1264.58,708.01 1260.90,717.00 1260.90,717.00
             1259.12,722.12 1260.25,724.88 1257.00,729.00
             1257.44,734.95 1251.03,747.18 1251.03,757.00
             1251.03,757.00 1252.14,769.00 1252.14,769.00
             1252.14,769.00 1250.98,814.00 1250.98,814.00
             1250.98,814.00 1250.98,822.28 1250.98,822.28
             1250.98,822.28 1254.00,852.00 1254.00,852.00
             1253.88,859.06 1250.53,860.88 1254.00,864.00
             1254.00,864.00 1250.57,888.00 1250.57,888.00
             1250.57,888.00 1248.40,898.00 1248.40,898.00
             1247.79,902.00 1248.16,904.51 1246.90,908.91
             1246.90,908.91 1242.05,923.00 1242.05,923.00
             1239.44,931.32 1240.72,930.48 1239.77,934.28
             1236.75,946.41 1236.78,938.95 1233.81,957.00
             1232.75,963.42 1229.96,967.85 1231.00,975.00
             1227.06,978.06 1227.86,982.47 1227.51,987.00
             1227.51,987.00 1225.02,1000.99 1225.02,1000.99
             1225.02,1000.99 1223.90,1018.00 1223.90,1018.00
             1223.90,1018.00 1222.08,1028.00 1222.08,1028.00
             1222.08,1028.00 1222.91,1036.00 1222.91,1036.00
             1222.91,1036.00 1221.47,1058.00 1221.47,1058.00
             1221.19,1066.88 1223.27,1076.09 1221.47,1085.00
             1221.47,1085.00 1219.90,1095.96 1219.90,1095.96
             1220.69,1093.17 1213.41,1111.25 1214.56,1108.96
             1213.04,1111.99 1209.07,1114.88 1212.00,1118.00
             1212.00,1118.00 1211.00,1127.00 1211.00,1127.00
             1211.00,1127.00 1210.00,1122.00 1210.00,1122.00
             1206.82,1130.23 1217.77,1136.43 1219.36,1143.00
             1221.34,1149.46 1218.92,1161.80 1219.36,1164.91
             1219.41,1168.21 1220.86,1168.82 1221.37,1172.30
             1221.37,1172.30 1224.00,1195.00 1224.00,1195.00
             1220.42,1194.45 1220.09,1193.99 1217.00,1196.00
             1217.00,1196.00 1216.00,1190.00 1216.00,1190.00
             1208.54,1188.60 1208.63,1186.52 1203.83,1185.16
             1198.18,1183.56 1188.15,1183.99 1182.00,1184.00
             1176.97,1184.01 1170.13,1183.52 1168.00,1189.00
             1158.30,1190.15 1160.51,1195.55 1157.93,1202.00
             1157.93,1202.00 1152.80,1213.00 1152.80,1213.00
             1152.80,1213.00 1151.16,1219.96 1151.16,1219.96
             1151.16,1219.96 1148.19,1225.28 1148.19,1225.28
             1146.66,1228.60 1145.31,1238.13 1145.00,1242.00
             1145.00,1242.00 1144.00,1240.00 1144.00,1240.00
             1142.67,1243.40 1143.53,1244.41 1142.83,1247.42
             1141.49,1253.12 1138.57,1256.78 1140.00,1263.00
             1140.00,1263.00 1138.00,1263.00 1138.00,1263.00
             1138.00,1263.00 1136.10,1276.00 1136.10,1276.00
             1136.10,1276.00 1136.10,1310.00 1136.10,1310.00
             1136.10,1310.00 1140.36,1332.91 1140.36,1332.91
             1140.36,1332.91 1143.32,1339.09 1143.32,1339.09
             1143.32,1339.09 1145.44,1350.00 1145.44,1350.00
             1145.44,1350.00 1150.90,1366.00 1150.90,1366.00
             1150.90,1366.00 1161.32,1391.58 1161.32,1391.58
             1161.32,1391.58 1165.00,1399.00 1165.00,1399.00
             1165.00,1399.00 1168.64,1410.17 1168.64,1410.17
             1168.64,1410.17 1173.81,1427.00 1173.81,1427.00
             1173.81,1427.00 1181.25,1452.91 1181.25,1452.91
             1181.25,1452.91 1183.71,1459.09 1183.71,1459.09
             1183.71,1459.09 1184.63,1467.00 1184.63,1467.00
             1184.63,1467.00 1187.50,1475.00 1187.50,1475.00
             1187.50,1475.00 1189.44,1483.00 1189.44,1483.00
             1189.44,1483.00 1196.65,1508.00 1196.65,1508.00
             1196.65,1508.00 1196.00,1513.00 1196.00,1513.00
             1199.64,1514.43 1199.98,1526.15 1200.77,1530.00
             1201.98,1535.88 1203.62,1535.02 1205.15,1540.04
             1207.33,1547.16 1209.61,1557.58 1209.25,1565.00
             1209.25,1565.00 1208.18,1574.00 1208.18,1574.00
             1207.38,1585.30 1213.97,1598.55 1221.42,1606.70
             1221.42,1606.70 1228.86,1613.37 1228.86,1613.37
             1228.86,1613.37 1243.11,1626.51 1243.11,1626.51
             1248.26,1630.44 1254.88,1633.56 1259.00,1638.00
             1259.00,1638.00 1279.00,1643.00 1279.00,1643.00
             1279.00,1643.00 1278.00,1651.00 1278.00,1651.00
             1278.00,1651.00 1283.39,1651.84 1283.39,1651.84
             1283.39,1651.84 1284.00,1664.00 1284.00,1664.00
             1284.00,1664.00 1287.02,1661.00 1287.02,1661.00
             1285.70,1668.62 1287.20,1666.98 1287.02,1670.00
             1286.92,1672.50 1285.27,1673.24 1285.57,1677.01
             1285.97,1682.10 1288.99,1683.84 1287.00,1689.00
             1289.95,1695.10 1293.44,1704.46 1288.00,1710.00
             1288.00,1710.00 1290.00,1715.00 1290.00,1715.00
             1290.00,1715.00 1293.00,1714.00 1293.00,1714.00
             1293.00,1714.00 1291.00,1719.00 1291.00,1719.00
             1294.01,1720.90 1299.93,1724.67 1299.51,1728.83
             1299.51,1728.83 1295.00,1738.00 1295.00,1738.00
             1295.00,1738.00 1299.00,1738.00 1299.00,1738.00
             1299.00,1738.00 1300.00,1745.00 1300.00,1745.00
             1300.00,1745.00 1295.00,1744.00 1295.00,1744.00
             1295.00,1744.00 1299.00,1749.00 1299.00,1749.00
             1299.00,1749.00 1295.00,1749.00 1295.00,1749.00
             1295.00,1749.00 1301.00,1751.00 1301.00,1751.00
             1301.00,1751.00 1296.00,1752.00 1296.00,1752.00
             1296.00,1752.00 1300.00,1755.00 1300.00,1755.00
             1300.00,1755.00 1300.00,1757.00 1300.00,1757.00
             1300.00,1757.00 1297.00,1758.00 1297.00,1758.00
             1297.00,1758.00 1302.00,1760.00 1302.00,1760.00
             1302.00,1760.00 1301.00,1758.00 1301.00,1758.00
             1301.00,1758.00 1303.00,1768.00 1303.00,1768.00
             1303.00,1768.00 1301.00,1771.00 1301.00,1771.00
             1301.00,1771.00 1304.00,1774.00 1304.00,1774.00
             1304.00,1774.00 1308.00,1777.00 1308.00,1777.00
             1308.00,1777.00 1305.00,1778.00 1305.00,1778.00
             1305.00,1778.00 1308.00,1779.00 1308.00,1779.00
             1308.00,1779.00 1307.00,1785.00 1307.00,1785.00
             1307.00,1785.00 1311.00,1792.00 1311.00,1792.00
             1311.00,1792.00 1316.00,1792.00 1316.00,1792.00
             1314.01,1795.91 1313.20,1798.37 1318.00,1800.00
             1317.89,1803.30 1317.62,1804.16 1321.00,1805.00
             1320.94,1807.72 1320.52,1807.83 1323.00,1809.00
             1320.62,1812.60 1319.27,1815.79 1323.00,1819.00
             1319.82,1826.57 1319.44,1828.19 1326.00,1834.00
             1326.00,1834.00 1328.00,1829.00 1328.00,1829.00
             1328.00,1829.00 1327.00,1832.00 1327.00,1832.00
             1331.69,1837.33 1327.94,1838.35 1329.00,1846.00
             1329.00,1846.00 1330.00,1846.00 1330.00,1846.00
             1330.00,1846.00 1332.00,1844.00 1332.00,1844.00
             1332.00,1844.00 1331.00,1853.00 1331.00,1853.00
             1332.13,1854.22 1332.85,1854.63 1333.08,1856.47
             1333.50,1859.80 1327.54,1869.61 1337.00,1867.08
             1337.00,1867.08 1340.00,1866.00 1340.00,1866.00
             1340.00,1866.00 1342.00,1874.00 1342.00,1874.00
             1342.00,1874.00 1336.00,1876.00 1336.00,1876.00
             1336.00,1876.00 1345.00,1881.00 1345.00,1881.00
             1345.00,1881.00 1336.00,1890.00 1336.00,1890.00
             1336.00,1890.00 1345.00,1892.00 1345.00,1892.00
             1345.00,1892.00 1343.00,1897.00 1343.00,1897.00
             1348.65,1896.71 1349.53,1897.25 1350.00,1903.00
             1350.00,1903.00 1354.00,1901.00 1354.00,1901.00
             1354.00,1901.00 1354.71,1912.72 1354.71,1912.72
             1354.71,1912.72 1353.00,1919.00 1353.00,1919.00
             1353.00,1919.00 1354.00,1919.00 1354.00,1919.00
             1354.00,1919.00 1356.00,1917.00 1356.00,1917.00
             1356.00,1917.00 1357.00,1920.00 1357.00,1920.00
             1352.93,1926.05 1360.84,1925.18 1353.00,1932.00
             1360.45,1939.33 1365.85,1932.98 1364.00,1945.00
             1364.00,1945.00 1367.00,1944.00 1367.00,1944.00
             1367.00,1944.00 1363.00,1955.00 1363.00,1955.00
             1363.00,1955.00 1367.00,1961.00 1367.00,1961.00
             1367.00,1961.00 1368.00,1957.00 1368.00,1957.00
             1373.34,1965.64 1371.08,1965.67 1371.00,1975.00
             1371.00,1975.00 1373.00,1968.00 1373.00,1968.00
             1373.00,1968.00 1375.00,1976.00 1375.00,1976.00
             1375.00,1976.00 1377.00,1971.00 1377.00,1971.00
             1377.78,1974.64 1377.93,1975.76 1376.00,1979.00
             1378.00,1984.34 1378.35,1985.39 1377.00,1991.00
             1377.00,1991.00 1381.00,1992.00 1381.00,1992.00
             1381.00,1992.00 1380.00,1990.00 1380.00,1990.00
             1380.00,1990.00 1380.00,1996.00 1380.00,1996.00
             1380.00,1996.00 1384.00,1995.00 1384.00,1995.00
             1384.00,1995.00 1383.00,2000.00 1383.00,2000.00
             1383.00,2000.00 1387.00,2003.00 1387.00,2003.00
             1387.00,2003.00 1391.00,2002.00 1391.00,2002.00
             1393.46,2010.49 1394.34,2010.49 1392.00,2019.00
             1392.00,2019.00 1396.00,2020.00 1396.00,2020.00
             1396.00,2020.00 1393.00,2021.00 1393.00,2021.00
             1393.37,2026.59 1392.07,2028.37 1396.00,2030.00
             1396.00,2030.00 1395.00,2032.00 1395.00,2032.00
             1395.00,2032.00 1398.00,2032.00 1398.00,2032.00
             1398.00,2032.00 1394.00,2033.00 1394.00,2033.00
             1394.00,2033.00 1401.00,2042.00 1401.00,2042.00
             1401.00,2042.00 1398.00,2044.00 1398.00,2044.00
             1398.00,2044.00 1401.00,2044.00 1401.00,2044.00
             1401.00,2044.00 1399.00,2053.00 1399.00,2053.00
             1400.68,2050.23 1403.58,2046.71 1401.00,2044.00
             1401.00,2044.00 1401.00,2042.00 1401.00,2042.00
             1401.00,2042.00 1405.00,2040.00 1405.00,2040.00
             1405.00,2040.00 1407.00,2042.00 1407.00,2042.00
             1405.57,2044.60 1403.81,2047.77 1404.52,2050.87
             1405.06,2053.23 1409.83,2057.36 1412.00,2056.00
             1412.00,2056.00 1414.55,2063.00 1414.55,2063.00
             1414.55,2063.00 1438.00,2099.00 1438.00,2099.00
             1438.00,2099.00 1469.32,2146.00 1469.32,2146.00
             1469.32,2146.00 1481.00,2157.01 1481.00,2157.01
             1481.00,2157.01 1512.00,2186.17 1512.00,2186.17
             1512.00,2186.17 1539.00,2211.91 1539.00,2211.91
             1539.00,2211.91 1564.00,2235.01 1564.00,2235.01
             1564.00,2235.01 1581.00,2251.01 1581.00,2251.01
             1584.26,2254.20 1589.28,2259.76 1593.00,2261.92
             1593.00,2261.92 1626.00,2273.69 1626.00,2273.69
             1626.00,2273.69 1668.00,2288.18 1668.00,2288.18
             1668.00,2288.18 1690.00,2290.17 1690.00,2290.17
             1690.00,2290.17 1745.00,2295.09 1745.00,2295.09
             1745.00,2295.09 1762.00,2296.83 1762.00,2296.83
             1762.00,2296.83 1814.00,2301.17 1814.00,2301.17
             1814.00,2301.17 1844.00,2303.90 1844.00,2303.90
             1844.00,2303.90 1866.00,2299.21 1866.00,2299.21
             1866.00,2299.21 1918.00,2286.88 1918.00,2286.88
             1918.00,2286.88 1980.00,2272.37 1980.00,2272.37
             1980.00,2272.37 2003.00,2267.01 2003.00,2267.01
             2003.00,2267.01 2047.00,2243.26 2047.00,2243.26
             2047.00,2243.26 2065.00,2235.97 2065.00,2235.97
             2065.00,2235.97 2091.00,2214.13 2091.00,2214.13
             2091.00,2214.13 2134.00,2177.42 2134.00,2177.42
             2134.00,2177.42 2145.00,2168.30 2145.00,2168.30
             2148.58,2165.72 2150.49,2165.18 2153.96,2161.90
             2153.96,2161.90 2162.04,2153.00 2162.04,2153.00
             2162.04,2153.00 2204.01,2108.00 2204.01,2108.00
             2204.01,2108.00 2213.00,2099.38 2213.00,2099.38
             2217.51,2095.76 2221.07,2093.71 2225.30,2089.29
             2225.30,2089.29 2249.25,2060.00 2249.25,2060.00
             2249.25,2060.00 2285.78,2015.00 2285.78,2015.00
             2285.78,2015.00 2302.30,1986.00 2302.30,1986.00
             2302.30,1986.00 2320.16,1953.00 2320.16,1953.00
             2320.16,1953.00 2322.31,1930.00 2322.31,1930.00
             2322.31,1930.00 2324.52,1923.00 2324.52,1923.00
             2324.52,1923.00 2325.75,1914.00 2325.75,1914.00
             2327.23,1907.80 2329.60,1905.28 2327.00,1899.00
             2327.00,1899.00 2332.00,1898.00 2332.00,1898.00
             2332.00,1898.00 2328.00,1895.00 2328.00,1895.00
             2328.00,1895.00 2328.00,1892.00 2328.00,1892.00
             2328.00,1892.00 2331.00,1891.00 2331.00,1891.00
             2331.00,1891.00 2329.00,1889.00 2329.00,1889.00
             2329.78,1880.86 2325.84,1878.99 2335.00,1874.00
             2335.00,1874.00 2330.00,1872.00 2330.00,1872.00
             2330.00,1872.00 2333.00,1864.00 2333.00,1864.00
             2333.00,1864.00 2332.00,1861.00 2332.00,1861.00
             2332.00,1861.00 2336.00,1863.00 2336.00,1863.00
             2334.45,1854.34 2334.39,1851.41 2337.00,1843.00
             2337.00,1843.00 2336.00,1837.00 2336.00,1837.00
             2336.00,1837.00 2338.00,1839.00 2338.00,1839.00
             2338.00,1839.00 2339.00,1839.00 2339.00,1839.00
             2339.00,1839.00 2340.00,1835.00 2340.00,1835.00
             2340.00,1835.00 2335.00,1837.00 2335.00,1837.00
             2334.56,1830.28 2330.87,1826.72 2340.00,1824.00
             2340.00,1824.00 2341.00,1819.00 2341.00,1819.00
             2341.00,1819.00 2339.00,1818.00 2339.00,1818.00
             2339.00,1818.00 2338.00,1819.00 2338.00,1819.00
             2338.00,1819.00 2334.00,1808.00 2334.00,1808.00
             2334.00,1808.00 2340.00,1808.00 2340.00,1808.00
             2340.00,1808.00 2341.00,1812.00 2341.00,1812.00
             2339.38,1813.76 2340.21,1813.88 2342.00,1815.00
             2342.00,1815.00 2341.00,1812.00 2341.00,1812.00
             2341.00,1812.00 2344.00,1811.00 2344.00,1811.00
             2344.00,1811.00 2344.00,1809.00 2344.00,1809.00
             2344.00,1809.00 2340.14,1808.00 2340.14,1808.00
             2342.95,1800.53 2340.06,1801.89 2340.14,1795.96
             2340.42,1791.85 2343.05,1783.83 2346.00,1781.00
             2346.00,1781.00 2342.00,1780.00 2342.00,1780.00
             2342.00,1780.00 2342.00,1776.00 2342.00,1776.00
             2342.00,1776.00 2343.46,1774.46 2343.46,1774.46
             2343.46,1774.46 2345.96,1761.54 2345.96,1761.54
             2345.96,1761.54 2345.00,1760.00 2345.00,1760.00
             2345.00,1760.00 2346.12,1750.00 2346.12,1750.00
             2346.12,1750.00 2346.12,1726.00 2346.12,1726.00
             2346.12,1726.00 2346.12,1720.00 2346.12,1720.00
             2346.12,1720.00 2352.00,1719.00 2352.00,1719.00
             2349.47,1714.59 2346.89,1714.52 2345.30,1710.70
             2343.04,1705.27 2345.28,1701.90 2346.97,1697.04
             2348.47,1692.67 2347.02,1693.67 2350.00,1689.00
             2350.00,1689.00 2347.00,1688.00 2347.00,1688.00
             2347.00,1688.00 2347.00,1686.00 2347.00,1686.00
             2350.90,1683.26 2348.64,1681.22 2347.00,1677.00
             2347.00,1677.00 2349.00,1680.00 2349.00,1680.00
             2353.13,1676.98 2350.28,1674.93 2347.00,1673.00
             2347.00,1673.00 2349.00,1659.00 2349.00,1659.00
             2349.00,1659.00 2346.00,1662.00 2346.00,1662.00
             2346.00,1662.00 2347.00,1654.00 2347.00,1654.00
             2347.00,1654.00 2351.00,1654.00 2351.00,1654.00
             2351.00,1654.00 2346.00,1639.00 2346.00,1639.00
             2346.00,1639.00 2350.00,1639.00 2350.00,1639.00
             2350.00,1639.00 2349.00,1631.00 2349.00,1631.00
             2349.00,1631.00 2346.00,1630.00 2346.00,1630.00
             2346.00,1630.00 2350.00,1630.00 2350.00,1630.00
             2350.00,1630.00 2349.00,1619.00 2349.00,1619.00
             2349.00,1619.00 2352.00,1620.00 2352.00,1620.00
             2351.91,1616.06 2352.13,1610.76 2349.00,1608.00
             2356.48,1602.16 2355.57,1605.10 2363.00,1603.62
             2363.00,1603.62 2378.00,1599.05 2378.00,1599.05
             2378.00,1599.05 2399.00,1588.00 2399.00,1588.00
             2399.66,1584.68 2407.13,1578.67 2409.58,1575.72
             2414.18,1570.17 2415.99,1563.00 2415.85,1556.00
             2415.85,1556.00 2415.85,1538.22 2415.85,1538.22
             2414.34,1533.41 2408.30,1534.50 2412.00,1527.00
             2410.02,1523.55 2409.99,1523.86 2411.00,1520.00
             2411.00,1520.00 2413.00,1522.00 2413.00,1522.00
             2417.49,1517.45 2415.48,1513.91 2417.21,1508.04
             2417.21,1508.04 2420.03,1501.83 2420.03,1501.83
             2421.82,1497.08 2422.95,1486.22 2423.00,1481.00
             2423.00,1481.00 2424.96,1480.23 2424.96,1480.23
             2424.96,1480.23 2429.05,1461.01 2429.05,1461.01
             2429.05,1461.01 2431.73,1453.83 2431.73,1453.83
             2431.73,1453.83 2432.90,1443.00 2432.90,1443.00
             2432.90,1443.00 2437.38,1430.00 2437.38,1430.00
             2437.38,1430.00 2444.47,1403.00 2444.47,1403.00
             2444.47,1403.00 2449.26,1380.00 2449.26,1380.00
             2449.26,1380.00 2451.88,1373.00 2451.88,1373.00
             2451.88,1373.00 2458.37,1352.00 2458.37,1352.00
             2458.37,1352.00 2459.76,1346.28 2459.76,1346.28
             2459.76,1346.28 2463.71,1336.72 2463.71,1336.72
             2463.71,1336.72 2465.39,1330.17 2465.39,1330.17
             2465.39,1330.17 2471.62,1316.72 2471.62,1316.72
             2471.62,1316.72 2476.00,1290.00 2476.00,1290.00
             2476.00,1290.00 2476.82,1277.00 2476.82,1277.00
             2476.82,1277.00 2475.00,1253.00 2475.00,1253.00
             2475.00,1253.00 2472.55,1234.00 2472.55,1234.00
             2472.55,1234.00 2470.55,1228.00 2470.55,1228.00
             2470.55,1228.00 2468.76,1218.00 2468.76,1218.00
             2468.76,1218.00 2464.09,1204.00 2464.09,1204.00
             2464.09,1204.00 2462.54,1197.28 2462.54,1197.28
             2462.54,1197.28 2457.62,1189.00 2457.62,1189.00
             2457.62,1189.00 2453.11,1177.00 2453.11,1177.00
             2453.11,1177.00 2447.00,1165.00 2447.00,1165.00
             2447.00,1165.00 2430.00,1160.33 2430.00,1160.33
             2430.00,1160.33 2413.00,1161.10 2413.00,1161.10
             2413.00,1161.10 2397.83,1164.53 2397.83,1164.53
             2397.83,1164.53 2395.00,1163.00 2395.00,1163.00
             2395.00,1163.00 2390.00,1168.00 2390.00,1168.00
             2387.73,1158.55 2390.88,1140.96 2391.00,1131.00
             2391.11,1120.58 2389.87,1122.98 2389.25,1118.00
             2389.25,1118.00 2389.25,1110.00 2389.25,1110.00
             2387.86,1101.62 2385.53,1098.37 2387.00,1089.00
             2380.75,1082.22 2386.86,1076.36 2382.00,1072.00
             2382.73,1065.22 2381.06,1064.53 2380.83,1059.00
             2380.83,1059.00 2380.83,1051.00 2380.83,1051.00
             2380.83,1051.00 2379.00,1037.00 2379.00,1037.00
             2379.00,1037.00 2379.00,1026.00 2379.00,1026.00
             2378.25,1019.94 2376.53,1014.15 2376.74,1008.00
             2376.96,1001.91 2374.57,995.75 2379.00,991.00
             2379.00,991.00 2375.50,985.91 2375.50,985.91
             2375.50,985.91 2372.63,967.00 2372.63,967.00
             2372.63,967.00 2369.04,955.00 2369.04,955.00
             2369.04,955.00 2367.44,941.65 2367.44,941.65
             2367.44,941.65 2365.27,935.91 2365.27,935.91
             2365.27,935.91 2364.25,927.00 2364.25,927.00
             2364.25,927.00 2359.59,914.01 2359.59,914.01
             2359.59,914.01 2358.00,904.00 2358.00,904.00
             2360.80,900.61 2355.15,895.98 2353.52,892.91
             2350.33,886.93 2351.21,884.36 2350.36,882.08
             2349.37,879.47 2346.18,876.99 2344.21,872.00
             2344.21,872.00 2341.25,860.00 2341.25,860.00
             2341.25,860.00 2332.94,833.17 2332.94,833.17
             2332.94,833.17 2329.09,823.00 2329.09,823.00
             2329.09,823.00 2326.30,813.00 2326.30,813.00
             2326.30,813.00 2323.46,803.00 2323.46,803.00
             2322.59,799.45 2322.81,795.66 2321.32,792.09
             2321.32,792.09 2315.71,782.00 2315.71,782.00
             2315.71,782.00 2312.66,770.28 2312.66,770.28
             2312.66,770.28 2305.53,754.91 2305.53,754.91
             2305.53,754.91 2303.14,747.09 2303.14,747.09
             2303.14,747.09 2299.83,740.91 2299.83,740.91
             2299.83,740.91 2294.00,722.00 2294.00,722.00
             2294.00,722.00 2292.00,719.00 2292.00,719.00
             2288.80,717.90 2288.75,714.95 2287.50,712.00
             2287.50,712.00 2280.00,696.00 2280.00,696.00
             2280.00,696.00 2278.00,697.00 2278.00,697.00
             2276.71,692.43 2274.95,689.67 2271.00,687.00
             2272.43,678.04 2263.64,668.52 2259.36,661.00
             2255.42,654.07 2256.70,652.07 2255.09,648.00
             2255.09,648.00 2246.73,631.00 2246.73,631.00
             2244.61,627.04 2241.36,620.27 2240.34,616.00
             2240.34,616.00 2239.11,606.13 2239.11,606.13
             2238.06,602.96 2235.46,602.68 2233.76,597.98
             2233.76,597.98 2231.04,585.91 2231.04,585.91
             2228.45,577.33 2226.33,577.01 2224.66,572.91
             2222.12,566.68 2221.88,562.67 2218.13,556.09
             2213.06,547.20 2202.99,531.16 2196.71,523.51
             2192.35,518.21 2183.74,512.88 2182.00,507.00
             2182.00,507.00 2160.00,494.00 2160.00,494.00
             2159.05,489.74 2154.43,487.16 2151.00,484.69
             2145.50,480.74 2143.55,480.91 2138.17,478.47
             2138.17,478.47 2132.91,475.12 2132.91,475.12
             2132.91,475.12 2116.00,467.82 2116.00,467.82
             2111.58,466.04 2102.61,463.88 2101.00,459.00
             2090.74,458.99 2095.18,458.85 2087.00,455.83
             2087.00,455.83 2080.00,454.25 2080.00,454.25
             2080.00,454.25 2071.58,450.71 2071.58,450.71
             2071.58,450.71 2060.00,448.73 2060.00,448.73
             2053.85,446.86 2051.15,449.01 2048.00,444.00
             2048.00,444.00 2033.00,442.00 2033.00,442.00
             2029.61,435.92 2022.13,435.81 2016.00,434.68
             2016.00,434.68 2001.00,430.51 2001.00,430.51
             2001.00,430.51 1992.00,427.49 1992.00,427.49
             1992.00,427.49 1982.01,425.68 1982.01,425.68
             1982.01,425.68 1974.83,423.23 1974.83,423.23
             1974.83,423.23 1952.00,420.85 1952.00,420.85
             1952.00,420.85 1926.00,420.85 1926.00,420.85
             1918.83,419.68 1914.50,417.42 1908.00,415.00
             1908.00,415.00 1910.00,413.00 1910.00,413.00
             1910.00,413.00 1898.00,409.52 1898.00,409.52
             1898.00,409.52 1886.72,403.12 1886.72,403.12
             1886.72,403.12 1866.00,397.17 1866.00,397.17
             1866.00,397.17 1840.00,394.75 1840.00,394.75
             1840.00,394.75 1830.00,394.75 1830.00,394.75
             1830.00,394.75 1798.00,393.91 1798.00,393.91
             1798.00,393.91 1786.00,392.76 1786.00,392.76
             1786.00,392.76 1760.00,392.76 1760.00,392.76
             1760.00,392.76 1734.00,396.81 1734.00,396.81
             1734.00,396.81 1728.00,396.17 1728.00,396.17
             1728.00,396.17 1708.00,395.04 1708.00,395.04
             1708.00,395.04 1690.17,396.25 1690.17,396.25
             1690.17,396.25 1683.96,398.59 1683.96,398.59
             1683.96,398.59 1665.00,400.00 1665.00,400.00
             1665.00,400.00 1628.00,405.24 1628.00,405.24
             1628.00,405.24 1604.00,415.00 1604.00,415.00 Z
           M 2321.00,792.00
           C 2321.00,792.00 2321.00,793.00 2321.00,793.00
             2321.00,793.00 2320.00,792.00 2320.00,792.00
             2320.00,792.00 2321.00,792.00 2321.00,792.00 Z
           M 2454.00,1363.00
           C 2454.00,1363.00 2454.00,1364.00 2454.00,1364.00
             2454.00,1364.00 2453.00,1363.00 2453.00,1363.00
             2453.00,1363.00 2454.00,1363.00 2454.00,1363.00 Z
           M 1209.00,1547.00
           C 1209.00,1547.00 1209.00,1548.00 1209.00,1548.00
             1209.00,1548.00 1208.00,1547.00 1208.00,1547.00
             1208.00,1547.00 1209.00,1547.00 1209.00,1547.00 Z
           M 2351.00,1690.00
           C 2351.00,1690.00 2351.00,1691.00 2351.00,1691.00
             2351.00,1691.00 2352.00,1690.00 2352.00,1690.00
             2352.00,1690.00 2351.00,1690.00 2351.00,1690.00 Z
           M 2351.00,1693.00
           C 2351.00,1693.00 2351.00,1694.00 2351.00,1694.00
             2351.00,1694.00 2352.00,1693.00 2352.00,1693.00
             2352.00,1693.00 2351.00,1693.00 2351.00,1693.00 Z
           M 2344.00,1736.00
           C 2344.00,1736.00 2344.00,1737.00 2344.00,1737.00
             2344.00,1737.00 2343.00,1736.00 2343.00,1736.00
             2343.00,1736.00 2344.00,1736.00 2344.00,1736.00 Z
           M 2345.00,1758.00
           C 2345.00,1758.00 2345.00,1759.00 2345.00,1759.00
             2345.00,1759.00 2344.00,1758.00 2344.00,1758.00
             2344.00,1758.00 2345.00,1758.00 2345.00,1758.00 Z
           M 1306.00,1765.00
           C 1306.00,1765.00 1303.00,1768.00 1303.00,1768.00
             1303.00,1768.00 1306.00,1765.00 1306.00,1765.00 Z
           M 1307.00,1772.00
           C 1307.00,1772.00 1307.00,1773.00 1307.00,1773.00
             1307.00,1773.00 1306.00,1772.00 1306.00,1772.00
             1306.00,1772.00 1307.00,1772.00 1307.00,1772.00 Z
           M 1308.00,1774.00
           C 1308.00,1774.00 1308.00,1775.00 1308.00,1775.00
             1308.00,1775.00 1307.00,1774.00 1307.00,1774.00
             1307.00,1774.00 1308.00,1774.00 1308.00,1774.00 Z
           M 2336.00,1807.00
           C 2336.00,1807.00 2336.00,1808.00 2336.00,1808.00
             2336.00,1808.00 2335.00,1807.00 2335.00,1807.00
             2335.00,1807.00 2336.00,1807.00 2336.00,1807.00 Z
           M 1319.00,1818.00
           C 1319.00,1818.00 1319.00,1819.00 1319.00,1819.00
             1319.00,1819.00 1320.00,1818.00 1320.00,1818.00
             1320.00,1818.00 1319.00,1818.00 1319.00,1818.00 Z
           M 2339.00,1822.00
           C 2339.00,1822.00 2339.00,1823.00 2339.00,1823.00
             2339.00,1823.00 2338.00,1822.00 2338.00,1822.00
             2338.00,1822.00 2339.00,1822.00 2339.00,1822.00 Z
           M 1331.00,1832.00
           C 1331.00,1832.00 1331.00,1833.00 1331.00,1833.00
             1331.00,1833.00 1330.00,1832.00 1330.00,1832.00
             1330.00,1832.00 1331.00,1832.00 1331.00,1832.00 Z
           M 1329.00,1847.00
           C 1329.00,1847.00 1328.00,1858.00 1328.00,1858.00
             1329.48,1854.55 1330.31,1850.59 1329.00,1847.00 Z
           M 1338.00,1864.00
           C 1338.00,1864.00 1334.00,1867.00 1334.00,1867.00
             1334.00,1867.00 1338.00,1864.00 1338.00,1864.00 Z
           M 1349.00,1878.00
           C 1349.00,1878.00 1349.00,1879.00 1349.00,1879.00
             1349.00,1879.00 1348.00,1878.00 1348.00,1878.00
             1348.00,1878.00 1349.00,1878.00 1349.00,1878.00 Z
           M 1348.00,1880.00
           C 1348.00,1880.00 1348.00,1881.00 1348.00,1881.00
             1348.00,1881.00 1347.00,1880.00 1347.00,1880.00
             1347.00,1880.00 1348.00,1880.00 1348.00,1880.00 Z
           M 1347.00,1881.00
           C 1347.00,1881.00 1347.00,1885.00 1347.00,1885.00
             1347.00,1885.00 1347.00,1881.00 1347.00,1881.00 Z
           M 1349.00,1882.00
           C 1349.00,1882.00 1349.00,1883.00 1349.00,1883.00
             1349.00,1883.00 1348.00,1882.00 1348.00,1882.00
             1348.00,1882.00 1349.00,1882.00 1349.00,1882.00 Z
           M 1348.00,1886.00
           C 1348.00,1886.00 1346.00,1890.00 1346.00,1890.00
             1346.00,1890.00 1343.00,1887.00 1343.00,1887.00
             1343.00,1887.00 1344.00,1890.00 1344.00,1890.00
             1344.00,1890.00 1340.00,1890.00 1340.00,1890.00
             1342.23,1885.95 1343.49,1885.65 1348.00,1886.00 Z
           M 1349.00,1885.00
           C 1349.00,1885.00 1349.00,1886.00 1349.00,1886.00
             1349.00,1886.00 1348.00,1885.00 1348.00,1885.00
             1348.00,1885.00 1349.00,1885.00 1349.00,1885.00 Z
           M 2328.00,1897.00
           C 2328.00,1897.00 2328.00,1898.00 2328.00,1898.00
             2328.00,1898.00 2327.00,1897.00 2327.00,1897.00
             2327.00,1897.00 2328.00,1897.00 2328.00,1897.00 Z
           M 1355.00,1904.00
           C 1355.00,1904.00 1355.00,1905.00 1355.00,1905.00
             1355.00,1905.00 1354.00,1904.00 1354.00,1904.00
             1354.00,1904.00 1355.00,1904.00 1355.00,1904.00 Z
           M 1363.00,1932.00
           C 1363.00,1932.00 1361.00,1935.00 1361.00,1935.00
             1361.00,1935.00 1357.00,1932.00 1357.00,1932.00
             1357.00,1932.00 1363.00,1932.00 1363.00,1932.00 Z
           M 1361.00,1949.00
           C 1361.00,1949.00 1361.00,1950.00 1361.00,1950.00
             1361.00,1950.00 1362.00,1949.00 1362.00,1949.00
             1362.00,1949.00 1361.00,1949.00 1361.00,1949.00 Z
           M 1368.00,1955.00
           C 1368.00,1955.00 1368.00,1956.00 1368.00,1956.00
             1368.00,1956.00 1367.00,1955.00 1367.00,1955.00
             1367.00,1955.00 1368.00,1955.00 1368.00,1955.00 Z
           M 1384.00,2004.00
           C 1384.00,2004.00 1384.00,2010.00 1384.00,2010.00
             1385.87,2007.44 1386.53,2006.31 1384.00,2004.00 Z
           M 1387.00,2005.00
           C 1387.00,2005.00 1387.00,2006.00 1387.00,2006.00
             1387.00,2006.00 1388.00,2005.00 1388.00,2005.00
             1388.00,2005.00 1387.00,2005.00 1387.00,2005.00 Z
           M 1396.00,2011.00
           C 1396.00,2011.00 1396.00,2012.00 1396.00,2012.00
             1396.00,2012.00 1395.00,2011.00 1395.00,2011.00
             1395.00,2011.00 1396.00,2011.00 1396.00,2011.00 Z
           M 1398.00,2030.00
           C 1398.00,2030.00 1398.00,2031.00 1398.00,2031.00
             1398.00,2031.00 1397.00,2030.00 1397.00,2030.00
             1397.00,2030.00 1398.00,2030.00 1398.00,2030.00 Z
           M 1391.00,2030.00
           C 1391.00,2030.00 1391.00,2031.00 1391.00,2031.00
             1391.00,2031.00 1392.00,2030.00 1392.00,2030.00
             1392.00,2030.00 1391.00,2030.00 1391.00,2030.00 Z
           M 1409.00,2042.00
           C 1409.00,2042.00 1409.00,2043.00 1409.00,2043.00
             1409.00,2043.00 1408.00,2042.00 1408.00,2042.00
             1408.00,2042.00 1409.00,2042.00 1409.00,2042.00 Z" />
  <path id="profile"
        fill="none" stroke="black" stroke-width="1"
        d="M 1604.00,415.00
           C 1602.85,418.68 1596.69,421.12 1593.96,424.43
             1593.96,424.43 1590.47,429.83 1590.47,429.83
             1590.47,429.83 1583.13,438.88 1583.13,438.88
             1583.13,438.88 1576.71,444.39 1576.71,444.39
             1572.29,449.04 1570.27,453.04 1563.00,453.00
             1556.41,460.76 1554.55,458.02 1547.58,459.52
             1547.58,459.52 1536.00,463.52 1536.00,463.52
             1536.00,463.52 1528.00,464.76 1528.00,464.76
             1518.06,467.21 1508.38,470.33 1499.00,474.51
             1499.00,474.51 1492.00,478.05 1492.00,478.05
             1492.00,478.05 1481.00,482.26 1481.00,482.26
             1481.00,482.26 1464.59,491.85 1464.59,491.85
             1464.59,491.85 1460.83,494.75 1460.83,494.75
             1454.04,499.01 1443.63,501.66 1439.00,509.00
             1439.00,509.00 1435.00,508.00 1435.00,508.00
             1435.00,508.00 1437.00,510.00 1437.00,510.00
             1437.00,510.00 1413.00,524.00 1413.00,524.00
             1413.00,524.00 1414.00,527.00 1414.00,527.00
             1403.88,529.15 1393.90,540.16 1385.00,540.00
             1385.00,540.00 1386.00,543.00 1386.00,543.00
             1386.00,543.00 1383.00,543.00 1383.00,543.00
             1382.12,547.45 1374.83,550.20 1371.00,552.02
             1362.52,556.07 1364.14,557.24 1358.72,561.42
             1358.72,561.42 1354.37,563.95 1354.37,563.95
             1354.37,563.95 1349.80,568.29 1349.80,568.29
             1346.61,570.96 1344.30,570.42 1344.00,575.00
             1342.29,575.72 1333.77,580.52 1332.68,581.58
             1330.35,583.85 1329.45,588.02 1325.83,591.11
             1316.41,599.14 1316.40,600.28 1309.49,610.00
             1309.49,610.00 1304.28,616.99 1304.28,616.99
             1304.28,616.99 1301.34,622.41 1301.34,622.41
             1301.34,622.41 1295.84,629.17 1295.84,629.17
             1295.84,629.17 1285.64,648.00 1285.64,648.00
             1285.64,648.00 1281.61,660.00 1281.61,660.00
             1281.61,660.00 1276.51,670.00 1276.51,670.00
             1276.51,670.00 1273.81,678.00 1273.81,678.00
             1273.81,678.00 1270.78,685.00 1270.78,685.00
             1270.78,685.00 1269.18,691.00 1269.18,691.00
             1269.18,691.00 1266.57,697.99 1266.57,697.99
             1266.57,697.99 1264.58,708.01 1264.58,708.01
             1264.58,708.01 1260.90,717.00 1260.90,717.00
             1259.12,722.12 1260.25,724.88 1257.00,729.00
             1257.44,734.95 1251.03,747.18 1251.03,757.00
             1251.03,757.00 1252.14,769.00 1252.14,769.00
             1252.14,769.00 1250.98,814.00 1250.98,814.00
             1250.98,814.00 1250.98,822.28 1250.98,822.28
             1250.98,822.28 1254.00,852.00 1254.00,852.00
             1253.88,859.06 1250.53,860.88 1254.00,864.00
             1254.00,864.00 1250.57,888.00 1250.57,888.00
             1250.57,888.00 1248.40,898.00 1248.40,898.00
             1247.79,902.00 1248.16,904.51 1246.90,908.91
             1246.90,908.91 1242.05,923.00 1242.05,923.00
             1239.44,931.32 1240.72,930.48 1239.77,934.28
             1236.75,946.41 1236.78,938.95 1233.81,957.00
             1232.75,963.42 1229.96,967.85 1231.00,975.00
             1227.06,978.06 1227.86,982.47 1227.51,987.00
             1227.51,987.00 1225.02,1000.99 1225.02,1000.99
             1225.02,1000.99 1223.90,1018.00 1223.90,1018.00
             1223.90,1018.00 1222.08,1028.00 1222.08,1028.00
             1222.08,1028.00 1222.91,1036.00 1222.91,1036.00
             1222.91,1036.00 1221.47,1058.00 1221.47,1058.00
             1221.19,1066.88 1223.27,1076.09 1221.47,1085.00
             1221.47,1085.00 1219.90,1095.96 1219.90,1095.96
             1220.69,1093.17 1213.41,1111.25 1214.56,1108.96
             1213.04,1111.99 1209.07,1114.88 1212.00,1118.00
             1212.00,1118.00 1211.00,1127.00 1211.00,1127.00
             1211.00,1127.00 1210.00,1122.00 1210.00,1122.00
             1206.82,1130.23 1217.77,1136.43 1219.36,1143.00
             1221.34,1149.46 1218.92,1161.80 1219.36,1164.91
             1219.41,1168.21 1220.86,1168.82 1221.37,1172.30
             1221.37,1172.30 1224.00,1195.00 1224.00,1195.00
             1220.42,1194.45 1220.09,1193.99 1217.00,1196.00
             1217.00,1196.00 1216.00,1190.00 1216.00,1190.00
             1208.54,1188.60 1208.63,1186.52 1203.83,1185.16
             1198.18,1183.56 1188.15,1183.99 1182.00,1184.00
             1176.97,1184.01 1170.13,1183.52 1168.00,1189.00
             1158.30,1190.15 1160.51,1195.55 1157.93,1202.00
             1157.93,1202.00 1152.80,1213.00 1152.80,1213.00
             1152.80,1213.00 1151.16,1219.96 1151.16,1219.96
             1151.16,1219.96 1148.19,1225.28 1148.19,1225.28
             1146.66,1228.60 1145.31,1238.13 1145.00,1242.00
             1145.00,1242.00 1144.00,1240.00 1144.00,1240.00
             1142.67,1243.40 1143.53,1244.41 1142.83,1247.42
             1141.49,1253.12 1138.57,1256.78 1140.00,1263.00
             1140.00,1263.00 1138.00,1263.00 1138.00,1263.00
             1138.00,1263.00 1136.10,1276.00 1136.10,1276.00
             1136.10,1276.00 1136.10,1310.00 1136.10,1310.00
             1136.10,1310.00 1140.36,1332.91 1140.36,1332.91
             1140.36,1332.91 1143.32,1339.09 1143.32,1339.09
             1143.32,1339.09 1145.44,1350.00 1145.44,1350.00
             1145.44,1350.00 1150.90,1366.00 1150.90,1366.00
             1150.90,1366.00 1161.32,1391.58 1161.32,1391.58
             1161.32,1391.58 1165.00,1399.00 1165.00,1399.00
             1165.00,1399.00 1168.64,1410.17 1168.64,1410.17
             1168.64,1410.17 1173.81,1427.00 1173.81,1427.00
             1173.81,1427.00 1181.25,1452.91 1181.25,1452.91
             1181.25,1452.91 1183.71,1459.09 1183.71,1459.09
             1183.71,1459.09 1184.63,1467.00 1184.63,1467.00
             1184.63,1467.00 1187.50,1475.00 1187.50,1475.00
             1187.50,1475.00 1189.44,1483.00 1189.44,1483.00
             1189.44,1483.00 1196.65,1508.00 1196.65,1508.00
             1196.65,1508.00 1196.00,1513.00 1196.00,1513.00
             1199.64,1514.43 1199.98,1526.15 1200.77,1530.00
             1201.98,1535.88 1203.62,1535.02 1205.15,1540.04
             1207.33,1547.16 1209.61,1557.58 1209.25,1565.00
             1209.25,1565.00 1208.18,1574.00 1208.18,1574.00
             1207.38,1585.30 1213.97,1598.55 1221.42,1606.70
             1221.42,1606.70 1228.86,1613.37 1228.86,1613.37
             1228.86,1613.37 1243.11,1626.51 1243.11,1626.51
             1248.26,1630.44 1254.88,1633.56 1259.00,1638.00
             1259.00,1638.00 1279.00,1643.00 1279.00,1643.00
             1279.00,1643.00 1278.00,1651.00 1278.00,1651.00
             1278.00,1651.00 1283.39,1651.84 1283.39,1651.84
             1283.39,1651.84 1284.00,1664.00 1284.00,1664.00
             1284.00,1664.00 1287.02,1661.00 1287.02,1661.00
             1285.70,1668.62 1287.20,1666.98 1287.02,1670.00
             1286.92,1672.50 1285.27,1673.24 1285.57,1677.01
             1285.97,1682.10 1288.99,1683.84 1287.00,1689.00
             1289.95,1695.10 1293.44,1704.46 1288.00,1710.00
             1288.00,1710.00 1290.00,1715.00 1290.00,1715.00
             1290.00,1715.00 1293.00,1714.00 1293.00,1714.00
             1293.00,1714.00 1291.00,1719.00 1291.00,1719.00
             1294.01,1720.90 1299.93,1724.67 1299.51,1728.83
             1299.51,1728.83 1295.00,1738.00 1295.00,1738.00
             1295.00,1738.00 1299.00,1738.00 1299.00,1738.00
             1299.00,1738.00 1300.00,1745.00 1300.00,1745.00
             1300.00,1745.00 1295.00,1744.00 1295.00,1744.00
             1295.00,1744.00 1299.00,1749.00 1299.00,1749.00
             1299.00,1749.00 1295.00,1749.00 1295.00,1749.00
             1295.00,1749.00 1301.00,1751.00 1301.00,1751.00
             1301.00,1751.00 1296.00,1752.00 1296.00,1752.00
             1296.00,1752.00 1300.00,1755.00 1300.00,1755.00
             1300.00,1755.00 1300.00,1757.00 1300.00,1757.00
             1300.00,1757.00 1297.00,1758.00 1297.00,1758.00
             1297.00,1758.00 1302.00,1760.00 1302.00,1760.00
             1302.00,1760.00 1301.00,1758.00 1301.00,1758.00
             1301.00,1758.00 1303.00,1768.00 1303.00,1768.00
             1303.00,1768.00 1301.00,1771.00 1301.00,1771.00
             1301.00,1771.00 1304.00,1774.00 1304.00,1774.00
             1304.00,1774.00 1308.00,1777.00 1308.00,1777.00
             1308.00,1777.00 1305.00,1778.00 1305.00,1778.00
             1305.00,1778.00 1308.00,1779.00 1308.00,1779.00
             1308.00,1779.00 1307.00,1785.00 1307.00,1785.00
             1307.00,1785.00 1311.00,1792.00 1311.00,1792.00
             1311.00,1792.00 1316.00,1792.00 1316.00,1792.00
             1314.01,1795.91 1313.20,1798.37 1318.00,1800.00
             1317.89,1803.30 1317.62,1804.16 1321.00,1805.00
             1320.94,1807.72 1320.52,1807.83 1323.00,1809.00
             1320.62,1812.60 1319.27,1815.79 1323.00,1819.00
             1319.82,1826.57 1319.44,1828.19 1326.00,1834.00
             1326.00,1834.00 1328.00,1829.00 1328.00,1829.00
             1328.00,1829.00 1327.00,1832.00 1327.00,1832.00
             1331.69,1837.33 1327.94,1838.35 1329.00,1846.00
             1329.00,1846.00 1330.00,1846.00 1330.00,1846.00
             1330.00,1846.00 1332.00,1844.00 1332.00,1844.00
             1332.00,1844.00 1331.00,1853.00 1331.00,1853.00
             1332.13,1854.22 1332.85,1854.63 1333.08,1856.47
             1333.50,1859.80 1327.54,1869.61 1337.00,1867.08
             1337.00,1867.08 1340.00,1866.00 1340.00,1866.00
             1340.00,1866.00 1342.00,1874.00 1342.00,1874.00
             1342.00,1874.00 1336.00,1876.00 1336.00,1876.00
             1336.00,1876.00 1345.00,1881.00 1345.00,1881.00
             1345.00,1881.00 1336.00,1890.00 1336.00,1890.00
             1336.00,1890.00 1345.00,1892.00 1345.00,1892.00
             1345.00,1892.00 1343.00,1897.00 1343.00,1897.00
             1348.65,1896.71 1349.53,1897.25 1350.00,1903.00
             1350.00,1903.00 1354.00,1901.00 1354.00,1901.00
             1354.00,1901.00 1354.71,1912.72 1354.71,1912.72
             1354.71,1912.72 1353.00,1919.00 1353.00,1919.00
             1353.00,1919.00 1354.00,1919.00 1354.00,1919.00
             1354.00,1919.00 1356.00,1917.00 1356.00,1917.00
             1356.00,1917.00 1357.00,1920.00 1357.00,1920.00
             1352.93,1926.05 1360.84,1925.18 1353.00,1932.00
             1360.45,1939.33 1365.85,1932.98 1364.00,1945.00
             1364.00,1945.00 1367.00,1944.00 1367.00,1944.00
             1367.00,1944.00 1363.00,1955.00 1363.00,1955.00
             1363.00,1955.00 1367.00,1961.00 1367.00,1961.00
             1367.00,1961.00 1368.00,1957.00 1368.00,1957.00
             1373.34,1965.64 1371.08,1965.67 1371.00,1975.00
             1371.00,1975.00 1373.00,1968.00 1373.00,1968.00
             1373.00,1968.00 1375.00,1976.00 1375.00,1976.00
             1375.00,1976.00 1377.00,1971.00 1377.00,1971.00
             1377.78,1974.64 1377.93,1975.76 1376.00,1979.00
             1378.00,1984.34 1378.35,1985.39 1377.00,1991.00
             1377.00,1991.00 1381.00,1992.00 1381.00,1992.00
             1381.00,1992.00 1380.00,1990.00 1380.00,1990.00
             1380.00,1990.00 1380.00,1996.00 1380.00,1996.00
             1380.00,1996.00 1384.00,1995.00 1384.00,1995.00
             1384.00,1995.00 1383.00,2000.00 1383.00,2000.00
             1383.00,2000.00 1387.00,2003.00 1387.00,2003.00
             1387.00,2003.00 1391.00,2002.00 1391.00,2002.00
             1393.46,2010.49 1394.34,2010.49 1392.00,2019.00
             1392.00,2019.00 1396.00,2020.00 1396.00,2020.00
             1396.00,2020.00 1393.00,2021.00 1393.00,2021.00
             1393.37,2026.59 1392.07,2028.37 1396.00,2030.00
             1396.00,2030.00 1395.00,2032.00 1395.00,2032.00
             1395.00,2032.00 1398.00,2032.00 1398.00,2032.00
             1398.00,2032.00 1394.00,2033.00 1394.00,2033.00
             1394.00,2033.00 1401.00,2042.00 1401.00,2042.00
             1401.00,2042.00 1398.00,2044.00 1398.00,2044.00
             1398.00,2044.00 1401.00,2044.00 1401.00,2044.00
             1401.00,2044.00 1399.00,2053.00 1399.00,2053.00
             1400.68,2050.23 1403.58,2046.71 1401.00,2044.00
             1401.00,2044.00 1401.00,2042.00 1401.00,2042.00
             1401.00,2042.00 1405.00,2040.00 1405.00,2040.00
             1405.00,2040.00 1407.00,2042.00 1407.00,2042.00
             1405.34,2045.01 1403.56,2048.28 1404.76,2051.83
             1405.58,2054.25 1407.72,2055.67 1408.79,2059.01
             1408.79,2059.01 1408.79,2073.00 1408.79,2073.00
             1408.79,2073.00 1412.00,2072.00 1412.00,2072.00
             1410.20,2062.31 1410.73,2065.37 1412.00,2056.00
             1412.00,2056.00 1415.00,2066.00 1415.00,2066.00
             1415.00,2066.00 1414.00,2064.00 1414.00,2064.00
             1414.00,2064.00 1413.00,2077.00 1413.00,2077.00
             1413.00,2077.00 1418.00,2073.00 1418.00,2073.00
             1418.00,2073.00 1419.00,2078.00 1419.00,2078.00
             1413.80,2079.97 1404.63,2082.56 1401.00,2087.00
             1401.00,2087.00 1398.00,2086.00 1398.00,2086.00
             1393.54,2090.75 1391.06,2091.32 1385.00,2093.00
             1385.00,2093.00 1385.00,2094.00 1385.00,2094.00
             1385.00,2094.00 1387.00,2094.00 1387.00,2094.00
             1387.00,2094.00 1373.00,2101.43 1373.00,2101.43
             1368.57,2103.01 1363.26,2102.05 1360.00,2106.00
             1360.00,2106.00 1341.42,2110.92 1341.42,2110.92
             1341.42,2110.92 1334.00,2112.43 1334.00,2112.43
             1334.00,2112.43 1327.00,2115.09 1327.00,2115.09
             1327.00,2115.09 1321.17,2116.27 1321.17,2116.27
             1321.17,2116.27 1313.00,2119.00 1313.00,2119.00
             1308.43,2123.75 1302.36,2123.71 1296.00,2124.00
             1293.49,2128.47 1291.44,2127.87 1287.00,2129.66
             1287.00,2129.66 1267.09,2137.49 1267.09,2137.49
             1262.30,2139.05 1257.88,2137.79 1256.00,2143.00
             1243.71,2144.11 1241.68,2148.47 1237.72,2149.90
             1237.72,2149.90 1232.00,2150.96 1232.00,2150.96
             1232.00,2150.96 1220.09,2155.22 1220.09,2155.22
             1220.09,2155.22 1213.91,2159.04 1213.91,2159.04
             1213.91,2159.04 1201.00,2164.28 1201.00,2164.28
             1193.10,2167.29 1197.49,2163.27 1186.58,2169.63
             1180.42,2173.21 1169.64,2174.28 1167.00,2182.00
             1160.65,2181.17 1154.19,2185.67 1151.00,2191.00
             1146.43,2190.02 1134.38,2193.42 1130.00,2195.55
             1130.00,2195.55 1124.00,2199.34 1124.00,2199.34
             1124.00,2199.34 1110.18,2205.17 1110.18,2205.17
             1104.10,2208.88 1105.19,2211.99 1093.00,2216.94
             1086.91,2219.41 1074.60,2217.62 1071.00,2223.00
             1063.73,2218.16 1055.09,2223.37 1050.00,2223.89
             1050.00,2223.89 1033.33,2222.33 1033.33,2222.33
             1019.88,2222.32 989.84,2223.75 978.00,2226.53
             972.34,2227.85 967.03,2231.80 964.00,2232.84
             964.00,2232.84 957.05,2233.97 957.05,2233.97
             953.48,2235.21 952.91,2237.94 950.45,2239.78
             950.45,2239.78 933.00,2248.00 933.00,2248.00
             930.94,2254.80 924.82,2255.05 920.00,2257.00
             913.98,2259.44 914.76,2262.35 896.00,2267.00
             896.00,2267.00 897.00,2271.00 897.00,2271.00
             883.58,2271.12 885.25,2274.70 878.72,2277.21
             878.72,2277.21 870.00,2278.70 870.00,2278.70
             870.00,2278.70 861.00,2283.44 861.00,2283.44
             861.00,2283.44 848.00,2285.00 848.00,2285.00
             844.69,2290.52 841.20,2288.43 835.91,2289.78
             835.91,2289.78 827.00,2293.32 827.00,2293.32
             827.00,2293.32 805.00,2298.08 805.00,2298.08
             805.00,2298.08 796.00,2298.08 796.00,2298.08
             796.00,2298.08 786.00,2300.56 786.00,2300.56
             786.00,2300.56 776.00,2301.29 776.00,2301.29
             776.00,2301.29 765.00,2303.63 765.00,2303.63
             765.00,2303.63 758.00,2304.28 758.00,2304.28
             741.43,2306.28 728.85,2309.94 713.00,2314.58
             713.00,2314.58 690.21,2321.92 690.21,2321.92
             690.21,2321.92 684.87,2325.52 684.87,2325.52
             684.87,2325.52 680.71,2326.63 680.71,2326.63
             680.71,2326.63 667.17,2331.81 667.17,2331.81
             667.17,2331.81 661.92,2335.99 661.92,2335.99
             661.92,2335.99 653.84,2341.25 653.84,2341.25
             653.84,2341.25 635.28,2352.90 635.28,2352.90
             635.28,2352.90 629.96,2357.02 629.96,2357.02
             629.96,2357.02 618.29,2363.71 618.29,2363.71
             618.29,2363.71 611.72,2369.35 611.72,2369.35
             611.72,2369.35 604.80,2373.06 604.80,2373.06
             604.80,2373.06 599.83,2377.31 599.83,2377.31
             599.83,2377.31 593.28,2380.78 593.28,2380.78
             584.88,2385.99 571.34,2396.65 563.00,2400.00
             563.00,2400.00 564.00,2402.00 564.00,2402.00
             564.00,2402.00 525.00,2426.21 525.00,2426.21
             521.04,2428.77 513.53,2431.72 512.00,2436.00
             505.50,2434.73 502.93,2437.65 497.09,2439.92
             497.09,2439.92 489.96,2442.43 489.96,2442.43
             489.96,2442.43 473.06,2451.03 473.06,2451.03
             473.06,2451.03 464.00,2460.00 464.00,2460.00
             463.94,2464.51 461.21,2468.96 458.00,2472.00
             458.00,2472.00 458.00,2480.00 458.00,2480.00
             454.01,2481.10 456.20,2483.71 454.98,2486.99
             453.62,2490.63 451.59,2490.62 450.00,2496.00
             450.00,2496.00 453.00,2497.00 453.00,2497.00
             453.00,2497.00 449.67,2504.72 449.67,2504.72
             441.71,2519.34 438.70,2517.91 433.73,2537.00
             431.24,2546.58 431.48,2562.18 430.73,2565.91
             430.73,2565.91 426.87,2576.00 426.87,2576.00
             424.74,2580.77 422.35,2582.43 419.98,2586.28
             419.98,2586.28 408.68,2606.72 408.68,2606.72
             405.00,2611.94 401.55,2613.58 399.00,2620.00
             399.00,2620.00 397.00,2618.00 397.00,2618.00
             394.31,2626.07 395.11,2626.17 388.00,2632.00
             389.63,2638.44 387.99,2638.11 385.04,2644.00
             385.04,2644.00 377.94,2658.00 377.94,2658.00
             376.16,2660.99 374.08,2662.80 372.69,2666.00
             372.69,2666.00 370.59,2671.91 370.59,2671.91
             370.59,2671.91 363.05,2684.00 363.05,2684.00
             363.05,2684.00 354.12,2700.91 354.12,2700.91
             354.12,2700.91 346.75,2712.00 346.75,2712.00
             346.75,2712.00 337.25,2734.00 337.25,2734.00
             337.25,2734.00 331.35,2745.00 331.35,2745.00
             331.35,2745.00 327.87,2755.00 327.87,2755.00
             327.87,2755.00 323.61,2763.00 323.61,2763.00
             323.61,2763.00 320.50,2772.00 320.50,2772.00
             320.50,2772.00 316.54,2780.00 316.54,2780.00
             316.54,2780.00 314.79,2788.00 314.79,2788.00
             314.79,2788.00 307.62,2811.00 307.62,2811.00
             307.62,2811.00 305.66,2818.99 305.66,2818.99
             305.66,2818.99 300.68,2827.46 300.68,2827.46
             300.68,2827.46 298.58,2835.00 298.58,2835.00
             298.58,2835.00 292.31,2849.00 292.31,2849.00
             292.31,2849.00 288.83,2861.00 288.83,2861.00
             288.83,2861.00 283.70,2872.09 283.70,2872.09
             283.70,2872.09 279.35,2885.00 279.35,2885.00
             279.35,2885.00 276.74,2891.00 276.74,2891.00
             276.74,2891.00 271.16,2909.91 271.16,2909.91
             271.16,2909.91 268.52,2916.09 268.52,2916.09
             268.52,2916.09 265.71,2926.00 265.71,2926.00
             265.71,2926.00 259.75,2942.00 259.75,2942.00
             259.75,2942.00 255.55,2957.00 255.55,2957.00
             255.55,2957.00 252.18,2966.00 252.18,2966.00
             252.18,2966.00 238.99,3004.91 238.99,3004.91
             238.99,3004.91 235.81,3011.09 235.81,3011.09
             235.81,3011.09 228.51,3029.01 228.51,3029.01
             228.51,3029.01 219.40,3048.00 219.40,3048.00
             219.40,3048.00 217.24,3054.72 217.24,3054.72
             217.24,3054.72 211.96,3066.00 211.96,3066.00
             211.96,3066.00 210.01,3074.00 210.01,3074.00
             210.01,3074.00 205.37,3087.00 205.37,3087.00
             205.37,3087.00 200.12,3099.09 200.12,3099.09
             200.12,3099.09 197.76,3107.00 197.76,3107.00
             197.76,3107.00 194.39,3115.00 194.39,3115.00
             194.39,3115.00 191.16,3127.96 191.16,3127.96
             191.16,3127.96 188.69,3135.09 188.69,3135.09
             188.69,3135.09 186.91,3146.00 186.91,3146.00
             186.91,3146.00 185.09,3154.00 185.09,3154.00
             185.09,3154.00 182.56,3173.00 182.56,3173.00
             182.56,3173.00 179.31,3188.00 179.31,3188.00
             179.31,3188.00 177.91,3196.00 177.91,3196.00
             177.91,3196.00 174.99,3205.96 174.99,3205.96
             174.99,3205.96 172.50,3211.28 172.50,3211.28
             172.50,3211.28 170.79,3222.00 170.79,3222.00
             169.53,3227.95 167.58,3232.70 167.57,3239.00
             167.56,3247.45 169.19,3264.05 171.48,3272.00
             171.48,3272.00 174.92,3279.99 174.92,3279.99
             176.21,3283.20 179.19,3294.89 178.77,3298.00
             177.99,3303.97 174.11,3304.82 172.01,3310.01
             169.03,3317.41 167.82,3322.76 161.00,3328.00
             161.03,3333.76 159.61,3334.11 157.52,3339.00
             157.52,3339.00 154.87,3347.00 154.87,3347.00
             153.43,3350.58 150.94,3353.65 149.04,3357.00
             149.04,3357.00 141.11,3372.00 141.11,3372.00
             141.11,3372.00 138.44,3379.00 138.44,3379.00
             138.44,3379.00 134.74,3385.00 134.74,3385.00
             134.74,3385.00 128.05,3398.00 128.05,3398.00
             128.05,3398.00 124.44,3404.00 124.44,3404.00
             124.44,3404.00 121.94,3411.83 121.94,3411.83
             121.94,3411.83 113.89,3426.17 113.89,3426.17
             113.89,3426.17 110.17,3436.91 110.17,3436.91
             110.17,3436.91 107.09,3443.09 107.09,3443.09
             107.09,3443.09 103.34,3454.00 103.34,3454.00
             103.34,3454.00 87.15,3498.00 87.15,3498.00
             87.15,3498.00 83.49,3519.00 83.49,3519.00
             83.49,3519.00 80.45,3530.00 80.45,3530.00
             80.45,3530.00 79.72,3540.00 79.72,3540.00
             79.72,3540.00 77.00,3565.00 77.00,3565.00
             77.00,3565.00 77.00,3579.00 77.00,3579.00
             77.00,3579.00 78.00,3596.00 78.00,3596.00
             78.00,3596.00 80.05,3624.96 80.05,3624.96
             80.24,3633.03 77.41,3631.81 72.59,3637.08
             65.39,3644.96 68.17,3643.58 63.92,3649.28
             63.92,3649.28 57.64,3656.28 57.64,3656.28
             57.64,3656.28 48.85,3671.00 48.85,3671.00
             48.85,3671.00 45.76,3680.00 45.76,3680.00
             45.76,3680.00 33.90,3698.00 33.90,3698.00
             33.90,3698.00 29.09,3711.00 29.09,3711.00
             29.09,3711.00 19.96,3725.00 19.96,3725.00
             13.48,3734.05 2.69,3739.39 0.60,3745.00
             -0.11,3746.92 0.00,3749.93 0.00,3752.00
             0.00,3752.00 0.00,4028.00 0.00,4028.00
             0.00,4029.99 -0.12,4033.10 0.60,4034.91
             2.14,4038.82 12.28,4045.75 16.00,4048.34
             16.00,4048.34 36.00,4063.13 36.00,4063.13
             42.54,4068.04 47.83,4070.14 48.00,4079.00
             48.00,4079.00 48.00,4104.00 48.00,4104.00
             47.88,4112.85 43.99,4112.64 47.00,4117.00
             43.56,4121.81 45.01,4131.13 45.00,4137.00
             45.00,4137.00 44.00,4154.00 44.00,4154.00
             44.00,4154.00 44.00,4191.00 44.00,4191.00
             44.00,4191.00 42.96,4207.00 42.96,4207.00
             42.96,4207.00 42.96,4220.00 42.96,4220.00
             42.96,4220.00 42.08,4232.00 42.08,4232.00
             42.08,4232.00 42.08,4271.42 42.08,4271.42
             42.08,4271.42 41.15,4280.00 41.15,4280.00
             41.15,4280.00 41.15,4289.28 41.15,4289.28
             41.15,4289.28 40.10,4299.00 40.10,4299.00
             40.10,4299.00 42.53,4330.00 42.53,4330.00
             42.46,4334.64 40.09,4335.46 40.09,4340.00
             40.09,4340.00 43.03,4355.00 43.03,4355.00
             43.03,4355.00 43.03,4365.83 43.03,4365.83
             43.85,4369.34 45.08,4369.36 44.70,4374.00
             44.51,4376.33 43.88,4378.54 44.14,4380.91
             44.49,4384.07 45.89,4384.87 46.75,4388.00
             46.75,4388.00 48.80,4398.00 48.80,4398.00
             48.80,4398.00 50.09,4414.00 50.09,4414.00
             49.95,4417.08 49.08,4417.64 49.00,4424.00
             49.00,4424.00 51.00,4422.00 51.00,4422.00
             53.97,4431.00 53.68,4437.12 55.14,4446.00
             55.14,4446.00 57.69,4456.00 57.69,4456.00
             57.69,4456.00 59.26,4467.00 59.26,4467.00
             59.26,4467.00 63.21,4477.00 63.21,4477.00
             63.21,4477.00 64.37,4485.00 64.37,4485.00
             66.32,4494.90 67.33,4494.58 67.00,4506.00
             73.13,4509.48 70.53,4512.18 74.98,4522.00
             78.86,4530.56 77.75,4528.77 80.34,4536.72
             80.34,4536.72 85.00,4548.00 85.00,4548.00
             85.00,4548.00 87.21,4557.00 87.21,4557.00
             88.77,4562.56 90.34,4562.08 90.07,4569.28
             90.07,4569.28 90.07,4576.00 90.07,4576.00
             90.07,4576.00 91.00,4573.00 91.00,4573.00
             95.66,4577.53 94.75,4580.07 97.02,4585.29
             97.98,4587.49 98.88,4588.37 99.58,4591.00
             99.58,4591.00 100.72,4596.83 100.72,4596.83
             100.72,4596.83 103.92,4602.09 103.92,4602.09
             103.92,4602.09 107.72,4611.00 107.72,4611.00
             107.72,4611.00 111.02,4618.00 111.02,4618.00
             111.02,4618.00 116.50,4634.00 116.50,4634.00
             116.50,4634.00 128.30,4655.09 128.30,4655.09
             128.30,4655.09 134.69,4671.58 134.69,4671.58
             134.69,4671.58 145.88,4688.44 145.88,4688.44
             149.23,4693.68 150.86,4697.87 155.19,4703.00
             155.19,4703.00 162.82,4711.16 162.82,4711.16
             162.82,4711.16 167.92,4718.06 167.92,4718.06
             167.92,4718.06 174.01,4722.55 174.01,4722.55
             174.01,4722.55 182.42,4730.37 182.42,4730.37
             184.35,4731.96 199.82,4740.70 202.00,4741.35
             204.51,4742.11 207.39,4742.00 210.00,4742.00
             210.00,4742.00 1071.00,4742.00 1071.00,4742.00
             1071.00,4742.00 3373.00,4742.00 3373.00,4742.00
             3373.00,4742.00 3373.00,2415.00 3373.00,2415.00
             3367.54,2413.26 3364.55,2408.17 3360.42,2404.38
             3357.26,2401.47 3355.65,2401.24 3353.13,2399.25
             3349.99,2396.78 3349.61,2394.57 3347.45,2392.82
             3347.45,2392.82 3341.00,2389.48 3341.00,2389.48
             3336.06,2386.30 3336.37,2384.36 3330.00,2383.00
             3329.10,2379.48 3326.90,2379.46 3324.00,2377.52
             3324.00,2377.52 3316.00,2371.43 3316.00,2371.43
             3316.00,2371.43 3307.46,2366.35 3307.46,2366.35
             3305.60,2364.82 3304.86,2363.15 3302.52,2361.72
             3302.52,2361.72 3293.72,2358.51 3293.72,2358.51
             3293.72,2358.51 3279.00,2351.23 3279.00,2351.23
             3279.00,2351.23 3263.72,2342.89 3263.72,2342.89
             3263.72,2342.89 3256.00,2340.87 3256.00,2340.87
             3256.00,2340.87 3246.00,2336.03 3246.00,2336.03
             3246.00,2336.03 3240.00,2334.18 3240.00,2334.18
             3232.30,2331.57 3224.31,2325.53 3216.00,2326.00
             3212.31,2320.12 3199.23,2320.77 3193.00,2314.00
             3184.70,2313.36 3181.12,2309.63 3174.00,2306.50
             3174.00,2306.50 3165.58,2303.71 3165.58,2303.71
             3165.58,2303.71 3158.00,2298.98 3158.00,2298.98
             3153.75,2296.79 3152.24,2297.16 3149.01,2295.78
             3149.01,2295.78 3141.83,2291.68 3141.83,2291.68
             3141.83,2291.68 3123.00,2287.00 3123.00,2287.00
             3121.91,2283.12 3116.34,2283.12 3113.00,2281.65
             3113.00,2281.65 3107.00,2278.80 3107.00,2278.80
             3107.00,2278.80 3086.00,2272.18 3086.00,2272.18
             3086.00,2272.18 3077.00,2270.70 3077.00,2270.70
             3073.71,2269.86 3071.14,2267.53 3068.00,2266.28
             3063.05,2264.31 3060.62,2265.58 3056.00,2264.20
             3056.00,2264.20 3045.72,2259.44 3045.72,2259.44
             3045.72,2259.44 3036.00,2258.30 3036.00,2258.30
             3036.00,2258.30 3020.91,2252.54 3020.91,2252.54
             3020.91,2252.54 3011.00,2251.07 3011.00,2251.07
             3011.00,2251.07 3000.00,2247.91 3000.00,2247.91
             3000.00,2247.91 2991.00,2246.02 2991.00,2246.02
             2991.00,2246.02 2984.00,2243.55 2984.00,2243.55
             2984.00,2243.55 2975.00,2242.42 2975.00,2242.42
             2972.60,2241.63 2969.35,2239.05 2964.00,2237.40
             2964.00,2237.40 2951.00,2234.21 2951.00,2234.21
             2951.00,2234.21 2943.00,2233.59 2943.00,2233.59
             2940.48,2232.98 2939.19,2231.93 2937.00,2231.07
             2932.42,2229.25 2930.76,2230.89 2928.00,2226.00
             2919.68,2226.51 2919.32,2224.09 2912.58,2220.55
             2912.58,2220.55 2904.00,2216.85 2904.00,2216.85
             2904.00,2216.85 2894.58,2212.71 2894.58,2212.71
             2894.58,2212.71 2888.04,2211.01 2888.04,2211.01
             2888.04,2211.01 2878.00,2206.17 2878.00,2206.17
             2878.00,2206.17 2872.01,2202.33 2872.01,2202.33
             2872.01,2202.33 2860.00,2198.29 2860.00,2198.29
             2850.38,2194.47 2841.85,2189.89 2831.00,2191.00
             2827.05,2185.85 2818.31,2186.55 2813.00,2189.00
             2812.40,2185.87 2811.77,2182.95 2808.79,2181.17
             2805.51,2179.23 2800.77,2180.59 2797.01,2179.49
             2794.64,2178.80 2793.58,2177.72 2791.58,2176.72
             2791.58,2176.72 2784.00,2173.97 2784.00,2173.97
             2776.55,2170.63 2775.88,2167.87 2767.00,2170.00
             2764.57,2161.99 2761.72,2164.18 2755.42,2161.02
             2755.42,2161.02 2748.00,2156.07 2748.00,2156.07
             2743.38,2153.55 2742.43,2155.19 2738.00,2151.00
             2730.68,2152.00 2731.67,2149.25 2726.72,2147.51
             2726.72,2147.51 2718.09,2146.01 2718.09,2146.01
             2718.09,2146.01 2709.99,2141.50 2709.99,2141.50
             2709.99,2141.50 2690.00,2135.44 2690.00,2135.44
             2686.02,2134.23 2684.82,2132.32 2682.00,2131.00
             2682.00,2131.00 2674.00,2129.12 2674.00,2129.12
             2666.57,2126.93 2664.69,2122.22 2657.00,2124.00
             2652.80,2118.01 2644.27,2117.58 2638.00,2114.89
             2638.00,2114.89 2624.00,2107.94 2624.00,2107.94
             2624.00,2107.94 2607.00,2101.88 2607.00,2101.88
             2607.00,2101.88 2597.00,2097.20 2597.00,2097.20
             2597.00,2097.20 2583.00,2091.50 2583.00,2091.50
             2580.43,2090.66 2578.08,2090.62 2577.00,2088.00
             2577.00,2088.00 2558.00,2085.00 2558.00,2085.00
             2558.00,2085.00 2560.00,2084.00 2560.00,2084.00
             2560.00,2084.00 2536.00,2080.09 2536.00,2080.09
             2532.49,2079.82 2527.24,2080.71 2524.30,2079.23
             2524.30,2079.23 2510.73,2065.65 2510.73,2065.65
             2503.19,2058.92 2488.78,2051.09 2478.83,2049.39
             2472.00,2048.22 2469.16,2050.90 2463.00,2052.43
             2455.53,2054.05 2440.12,2055.20 2433.00,2052.43
             2428.65,2050.91 2420.01,2043.48 2416.00,2040.52
             2416.00,2040.52 2401.00,2032.00 2401.00,2032.00
             2390.42,2026.34 2387.13,2027.14 2377.00,2023.46
             2377.00,2023.46 2363.00,2017.62 2363.00,2017.62
             2363.00,2017.62 2344.00,2013.96 2344.00,2013.96
             2338.92,2012.75 2329.01,2010.17 2324.00,2010.00
             2324.00,2010.00 2325.00,2006.00 2325.00,2006.00
             2325.00,2006.00 2324.00,2006.00 2324.00,2006.00
             2324.00,2006.00 2324.00,2008.00 2324.00,2008.00
             2321.18,1999.44 2322.35,1993.68 2321.54,1985.00
             2321.54,1985.00 2319.77,1973.28 2319.77,1973.28
             2319.77,1973.28 2319.77,1956.00 2319.77,1956.00
             2319.77,1956.00 2321.81,1941.00 2321.81,1941.00
             2321.81,1941.00 2321.81,1932.00 2321.81,1932.00
             2321.81,1932.00 2324.52,1923.00 2324.52,1923.00
             2324.52,1923.00 2326.01,1913.00 2326.01,1913.00
             2327.56,1907.12 2329.46,1904.95 2327.00,1899.00
             2327.00,1899.00 2332.00,1898.00 2332.00,1898.00
             2332.00,1898.00 2328.00,1895.00 2328.00,1895.00
             2328.00,1895.00 2328.00,1892.00 2328.00,1892.00
             2328.00,1892.00 2331.00,1891.00 2331.00,1891.00
             2331.00,1891.00 2329.00,1889.00 2329.00,1889.00
             2329.78,1880.86 2325.84,1878.99 2335.00,1874.00
             2335.00,1874.00 2330.00,1872.00 2330.00,1872.00
             2330.00,1872.00 2333.00,1864.00 2333.00,1864.00
             2333.00,1864.00 2332.00,1861.00 2332.00,1861.00
             2332.00,1861.00 2336.00,1863.00 2336.00,1863.00
             2334.45,1854.34 2334.39,1851.41 2337.00,1843.00
             2337.00,1843.00 2336.00,1837.00 2336.00,1837.00
             2336.00,1837.00 2338.00,1839.00 2338.00,1839.00
             2338.00,1839.00 2339.00,1839.00 2339.00,1839.00
             2339.00,1839.00 2340.00,1835.00 2340.00,1835.00
             2340.00,1835.00 2335.00,1837.00 2335.00,1837.00
             2334.56,1830.28 2330.87,1826.72 2340.00,1824.00
             2340.00,1824.00 2341.00,1819.00 2341.00,1819.00
             2341.00,1819.00 2340.00,1818.00 2340.00,1818.00
             2340.00,1818.00 2338.00,1819.00 2338.00,1819.00
             2338.00,1819.00 2334.00,1808.00 2334.00,1808.00
             2334.00,1808.00 2340.00,1808.00 2340.00,1808.00
             2340.00,1808.00 2341.00,1812.00 2341.00,1812.00
             2339.38,1813.76 2340.21,1813.88 2342.00,1815.00
             2342.00,1815.00 2341.00,1812.00 2341.00,1812.00
             2341.00,1812.00 2344.00,1811.00 2344.00,1811.00
             2344.00,1811.00 2344.00,1809.00 2344.00,1809.00
             2344.00,1809.00 2340.14,1808.00 2340.14,1808.00
             2342.95,1800.53 2340.06,1801.89 2340.14,1795.96
             2340.42,1791.85 2343.05,1783.83 2346.00,1781.00
             2346.00,1781.00 2342.00,1780.00 2342.00,1780.00
             2342.00,1780.00 2342.00,1776.00 2342.00,1776.00
             2342.00,1776.00 2343.46,1774.46 2343.46,1774.46
             2343.46,1774.46 2345.96,1761.54 2345.96,1761.54
             2345.96,1761.54 2345.00,1760.00 2345.00,1760.00
             2345.00,1760.00 2346.12,1750.00 2346.12,1750.00
             2346.12,1750.00 2346.12,1726.00 2346.12,1726.00
             2346.12,1726.00 2346.12,1720.00 2346.12,1720.00
             2346.12,1720.00 2352.00,1719.00 2352.00,1719.00
             2349.47,1714.59 2346.89,1714.52 2345.30,1710.70
             2343.04,1705.27 2345.28,1701.90 2346.97,1697.04
             2348.47,1692.67 2347.02,1693.67 2350.00,1689.00
             2350.00,1689.00 2347.00,1688.00 2347.00,1688.00
             2347.00,1688.00 2347.00,1686.00 2347.00,1686.00
             2350.90,1683.26 2348.64,1681.22 2347.00,1677.00
             2347.00,1677.00 2349.00,1680.00 2349.00,1680.00
             2353.13,1676.98 2350.28,1674.93 2347.00,1673.00
             2347.00,1673.00 2349.00,1659.00 2349.00,1659.00
             2349.00,1659.00 2346.00,1662.00 2346.00,1662.00
             2346.00,1662.00 2347.00,1654.00 2347.00,1654.00
             2347.00,1654.00 2351.00,1654.00 2351.00,1654.00
             2351.00,1654.00 2346.00,1639.00 2346.00,1639.00
             2346.00,1639.00 2350.00,1639.00 2350.00,1639.00
             2350.00,1639.00 2349.00,1631.00 2349.00,1631.00
             2349.00,1631.00 2346.00,1630.00 2346.00,1630.00
             2346.00,1630.00 2350.00,1630.00 2350.00,1630.00
             2350.00,1630.00 2349.00,1619.00 2349.00,1619.00
             2349.00,1619.00 2352.00,1620.00 2352.00,1620.00
             2351.91,1616.06 2352.13,1610.76 2349.00,1608.00
             2356.48,1602.16 2355.57,1605.10 2363.00,1603.62
             2363.00,1603.62 2378.00,1599.05 2378.00,1599.05
             2378.00,1599.05 2399.00,1588.00 2399.00,1588.00
             2399.66,1584.68 2407.13,1578.67 2409.58,1575.72
             2414.18,1570.17 2415.99,1563.00 2415.85,1556.00
             2415.85,1556.00 2415.85,1538.22 2415.85,1538.22
             2414.34,1533.41 2408.30,1534.50 2412.00,1527.00
             2410.02,1523.55 2409.99,1523.86 2411.00,1520.00
             2411.00,1520.00 2413.00,1522.00 2413.00,1522.00
             2417.49,1517.45 2415.48,1513.91 2417.21,1508.04
             2417.21,1508.04 2420.03,1501.83 2420.03,1501.83
             2421.82,1497.08 2422.95,1486.22 2423.00,1481.00
             2423.00,1481.00 2424.96,1480.23 2424.96,1480.23
             2424.96,1480.23 2429.05,1461.01 2429.05,1461.01
             2429.05,1461.01 2431.73,1453.83 2431.73,1453.83
             2431.73,1453.83 2432.90,1443.00 2432.90,1443.00
             2432.90,1443.00 2437.38,1430.00 2437.38,1430.00
             2437.38,1430.00 2444.47,1403.00 2444.47,1403.00
             2444.47,1403.00 2449.26,1380.00 2449.26,1380.00
             2449.26,1380.00 2451.88,1373.00 2451.88,1373.00
             2451.88,1373.00 2458.37,1352.00 2458.37,1352.00
             2458.37,1352.00 2459.76,1346.28 2459.76,1346.28
             2459.76,1346.28 2463.71,1336.72 2463.71,1336.72
             2463.71,1336.72 2465.39,1330.17 2465.39,1330.17
             2465.39,1330.17 2471.62,1316.72 2471.62,1316.72
             2471.62,1316.72 2476.00,1290.00 2476.00,1290.00
             2476.00,1290.00 2476.82,1277.00 2476.82,1277.00
             2476.82,1277.00 2475.00,1253.00 2475.00,1253.00
             2475.00,1253.00 2472.55,1234.00 2472.55,1234.00
             2472.55,1234.00 2470.55,1228.00 2470.55,1228.00
             2470.55,1228.00 2468.76,1218.00 2468.76,1218.00
             2468.76,1218.00 2464.09,1204.00 2464.09,1204.00
             2464.09,1204.00 2462.54,1197.28 2462.54,1197.28
             2462.54,1197.28 2457.62,1189.00 2457.62,1189.00
             2457.62,1189.00 2453.11,1177.00 2453.11,1177.00
             2453.11,1177.00 2447.00,1165.00 2447.00,1165.00
             2447.00,1165.00 2430.00,1160.33 2430.00,1160.33
             2430.00,1160.33 2413.00,1161.10 2413.00,1161.10
             2413.00,1161.10 2397.83,1164.53 2397.83,1164.53
             2397.83,1164.53 2395.00,1163.00 2395.00,1163.00
             2395.00,1163.00 2390.00,1168.00 2390.00,1168.00
             2387.73,1158.55 2390.88,1140.96 2391.00,1131.00
             2391.11,1120.58 2389.87,1122.98 2389.25,1118.00
             2389.25,1118.00 2389.25,1110.00 2389.25,1110.00
             2387.86,1101.62 2385.53,1098.37 2387.00,1089.00
             2380.75,1082.22 2386.86,1076.36 2382.00,1072.00
             2382.73,1065.22 2381.06,1064.53 2380.83,1059.00
             2380.83,1059.00 2380.83,1051.00 2380.83,1051.00
             2380.83,1051.00 2379.00,1037.00 2379.00,1037.00
             2379.00,1037.00 2379.00,1026.00 2379.00,1026.00
             2378.25,1019.94 2376.53,1014.15 2376.74,1008.00
             2376.96,1001.91 2374.57,995.75 2379.00,991.00
             2379.00,991.00 2375.50,985.91 2375.50,985.91
             2375.50,985.91 2372.63,967.00 2372.63,967.00
             2372.63,967.00 2369.04,955.00 2369.04,955.00
             2369.04,955.00 2367.44,941.65 2367.44,941.65
             2367.44,941.65 2365.27,935.91 2365.27,935.91
             2365.27,935.91 2364.25,927.00 2364.25,927.00
             2364.25,927.00 2359.59,914.01 2359.59,914.01
             2359.59,914.01 2358.00,904.00 2358.00,904.00
             2360.80,900.61 2355.15,895.98 2353.52,892.91
             2350.33,886.93 2351.21,884.36 2350.36,882.08
             2349.37,879.47 2346.18,876.99 2344.21,872.00
             2344.21,872.00 2341.25,860.00 2341.25,860.00
             2341.25,860.00 2332.94,833.17 2332.94,833.17
             2332.94,833.17 2329.09,823.00 2329.09,823.00
             2329.09,823.00 2326.30,813.00 2326.30,813.00
             2326.30,813.00 2323.46,803.00 2323.46,803.00
             2322.59,799.45 2322.81,795.66 2321.32,792.09
             2321.32,792.09 2315.71,782.00 2315.71,782.00
             2315.71,782.00 2312.66,770.28 2312.66,770.28
             2312.66,770.28 2305.53,754.91 2305.53,754.91
             2305.53,754.91 2303.14,747.09 2303.14,747.09
             2303.14,747.09 2299.83,740.91 2299.83,740.91
             2299.83,740.91 2294.00,722.00 2294.00,722.00
             2294.00,722.00 2292.00,719.00 2292.00,719.00
             2288.80,717.90 2288.75,714.95 2287.50,712.00
             2287.50,712.00 2280.00,696.00 2280.00,696.00
             2280.00,696.00 2278.00,697.00 2278.00,697.00
             2276.71,692.43 2274.95,689.67 2271.00,687.00
             2272.43,678.04 2263.64,668.52 2259.36,661.00
             2255.42,654.07 2256.70,652.07 2255.09,648.00
             2255.09,648.00 2246.73,631.00 2246.73,631.00
             2244.96,627.69 2241.17,619.49 2240.34,616.00
             2240.34,616.00 2239.11,606.13 2239.11,606.13
             2238.06,602.96 2235.46,602.68 2233.76,597.98
             2233.76,597.98 2231.04,585.91 2231.04,585.91
             2228.45,577.33 2226.33,577.01 2224.66,572.91
             2222.12,566.68 2221.88,562.67 2218.13,556.09
             2213.06,547.20 2202.99,531.16 2196.71,523.51
             2192.35,518.21 2183.74,512.88 2182.00,507.00
             2182.00,507.00 2160.00,494.00 2160.00,494.00
             2159.05,489.74 2154.43,487.16 2151.00,484.69
             2145.50,480.74 2143.55,480.91 2138.17,478.47
             2138.17,478.47 2132.91,475.12 2132.91,475.12
             2132.91,475.12 2116.00,467.82 2116.00,467.82
             2111.58,466.04 2102.61,463.88 2101.00,459.00
             2090.74,458.99 2095.18,458.85 2087.00,455.83
             2087.00,455.83 2080.00,454.25 2080.00,454.25
             2080.00,454.25 2071.58,450.71 2071.58,450.71
             2071.58,450.71 2060.00,448.73 2060.00,448.73
             2053.85,446.86 2051.15,449.01 2048.00,444.00
             2048.00,444.00 2033.00,442.00 2033.00,442.00
             2029.61,435.92 2022.13,435.81 2016.00,434.68
             2016.00,434.68 2001.00,430.51 2001.00,430.51
             2001.00,430.51 1992.00,427.49 1992.00,427.49
             1992.00,427.49 1982.01,425.68 1982.01,425.68
             1982.01,425.68 1974.83,423.23 1974.83,423.23
             1974.83,423.23 1952.00,420.85 1952.00,420.85
             1952.00,420.85 1926.00,420.85 1926.00,420.85
             1918.83,419.68 1914.50,417.42 1908.00,415.00
             1908.00,415.00 1910.00,413.00 1910.00,413.00
             1910.00,413.00 1898.00,409.52 1898.00,409.52
             1898.00,409.52 1886.72,403.12 1886.72,403.12
             1886.72,403.12 1866.00,397.17 1866.00,397.17
             1866.00,397.17 1840.00,394.75 1840.00,394.75
             1840.00,394.75 1830.00,394.75 1830.00,394.75
             1830.00,394.75 1798.00,393.91 1798.00,393.91
             1798.00,393.91 1786.00,392.76 1786.00,392.76
             1786.00,392.76 1760.00,392.76 1760.00,392.76
             1760.00,392.76 1734.00,396.81 1734.00,396.81
             1734.00,396.81 1728.00,396.17 1728.00,396.17
             1728.00,396.17 1708.00,395.04 1708.00,395.04
             1708.00,395.04 1690.17,396.25 1690.17,396.25
             1690.17,396.25 1683.96,398.59 1683.96,398.59
             1683.96,398.59 1665.00,400.00 1665.00,400.00
             1665.00,400.00 1628.00,405.24 1628.00,405.24
             1628.00,405.24 1604.00,415.00 1604.00,415.00 Z
           M 2321.00,792.00
           C 2321.00,792.00 2321.00,793.00 2321.00,793.00
             2321.00,793.00 2320.00,792.00 2320.00,792.00
             2320.00,792.00 2321.00,792.00 2321.00,792.00 Z
           M 2454.00,1363.00
           C 2454.00,1363.00 2454.00,1364.00 2454.00,1364.00
             2454.00,1364.00 2453.00,1363.00 2453.00,1363.00
             2453.00,1363.00 2454.00,1363.00 2454.00,1363.00 Z
           M 1209.00,1547.00
           C 1209.00,1547.00 1209.00,1548.00 1209.00,1548.00
             1209.00,1548.00 1208.00,1547.00 1208.00,1547.00
             1208.00,1547.00 1209.00,1547.00 1209.00,1547.00 Z
           M 2351.00,1690.00
           C 2351.00,1690.00 2351.00,1691.00 2351.00,1691.00
             2351.00,1691.00 2352.00,1690.00 2352.00,1690.00
             2352.00,1690.00 2351.00,1690.00 2351.00,1690.00 Z
           M 2351.00,1693.00
           C 2351.00,1693.00 2351.00,1694.00 2351.00,1694.00
             2351.00,1694.00 2352.00,1693.00 2352.00,1693.00
             2352.00,1693.00 2351.00,1693.00 2351.00,1693.00 Z
           M 2344.00,1736.00
           C 2344.00,1736.00 2344.00,1737.00 2344.00,1737.00
             2344.00,1737.00 2343.00,1736.00 2343.00,1736.00
             2343.00,1736.00 2344.00,1736.00 2344.00,1736.00 Z
           M 2345.00,1758.00
           C 2345.00,1758.00 2345.00,1759.00 2345.00,1759.00
             2345.00,1759.00 2344.00,1758.00 2344.00,1758.00
             2344.00,1758.00 2345.00,1758.00 2345.00,1758.00 Z
           M 1306.00,1765.00
           C 1306.00,1765.00 1303.00,1768.00 1303.00,1768.00
             1303.00,1768.00 1306.00,1765.00 1306.00,1765.00 Z
           M 1307.00,1772.00
           C 1307.00,1772.00 1307.00,1773.00 1307.00,1773.00
             1307.00,1773.00 1306.00,1772.00 1306.00,1772.00
             1306.00,1772.00 1307.00,1772.00 1307.00,1772.00 Z
           M 1308.00,1774.00
           C 1308.00,1774.00 1308.00,1775.00 1308.00,1775.00
             1308.00,1775.00 1307.00,1774.00 1307.00,1774.00
             1307.00,1774.00 1308.00,1774.00 1308.00,1774.00 Z
           M 2336.00,1807.00
           C 2336.00,1807.00 2336.00,1808.00 2336.00,1808.00
             2336.00,1808.00 2335.00,1807.00 2335.00,1807.00
             2335.00,1807.00 2336.00,1807.00 2336.00,1807.00 Z
           M 1319.00,1818.00
           C 1319.00,1818.00 1319.00,1819.00 1319.00,1819.00
             1319.00,1819.00 1320.00,1818.00 1320.00,1818.00
             1320.00,1818.00 1319.00,1818.00 1319.00,1818.00 Z
           M 2339.00,1822.00
           C 2339.00,1822.00 2339.00,1823.00 2339.00,1823.00
             2339.00,1823.00 2338.00,1822.00 2338.00,1822.00
             2338.00,1822.00 2339.00,1822.00 2339.00,1822.00 Z
           M 1331.00,1832.00
           C 1331.00,1832.00 1331.00,1833.00 1331.00,1833.00
             1331.00,1833.00 1330.00,1832.00 1330.00,1832.00
             1330.00,1832.00 1331.00,1832.00 1331.00,1832.00 Z
           M 1329.00,1847.00
           C 1329.00,1847.00 1328.00,1858.00 1328.00,1858.00
             1329.48,1854.55 1330.31,1850.59 1329.00,1847.00 Z
           M 1338.00,1864.00
           C 1338.00,1864.00 1334.00,1867.00 1334.00,1867.00
             1334.00,1867.00 1338.00,1864.00 1338.00,1864.00 Z
           M 1349.00,1878.00
           C 1349.00,1878.00 1349.00,1879.00 1349.00,1879.00
             1349.00,1879.00 1348.00,1878.00 1348.00,1878.00
             1348.00,1878.00 1349.00,1878.00 1349.00,1878.00 Z
           M 1348.00,1880.00
           C 1348.00,1880.00 1348.00,1881.00 1348.00,1881.00
             1348.00,1881.00 1347.00,1880.00 1347.00,1880.00
             1347.00,1880.00 1348.00,1880.00 1348.00,1880.00 Z
           M 1347.00,1881.00
           C 1347.00,1881.00 1347.00,1885.00 1347.00,1885.00
             1347.00,1885.00 1347.00,1881.00 1347.00,1881.00 Z
           M 1349.00,1882.00
           C 1349.00,1882.00 1349.00,1883.00 1349.00,1883.00
             1349.00,1883.00 1348.00,1882.00 1348.00,1882.00
             1348.00,1882.00 1349.00,1882.00 1349.00,1882.00 Z
           M 1348.00,1886.00
           C 1348.00,1886.00 1346.00,1890.00 1346.00,1890.00
             1346.00,1890.00 1343.00,1887.00 1343.00,1887.00
             1343.00,1887.00 1344.00,1890.00 1344.00,1890.00
             1344.00,1890.00 1340.00,1890.00 1340.00,1890.00
             1342.23,1885.95 1343.49,1885.65 1348.00,1886.00 Z
           M 1349.00,1885.00
           C 1349.00,1885.00 1349.00,1886.00 1349.00,1886.00
             1349.00,1886.00 1348.00,1885.00 1348.00,1885.00
             1348.00,1885.00 1349.00,1885.00 1349.00,1885.00 Z
           M 2328.00,1897.00
           C 2328.00,1897.00 2328.00,1898.00 2328.00,1898.00
             2328.00,1898.00 2327.00,1897.00 2327.00,1897.00
             2327.00,1897.00 2328.00,1897.00 2328.00,1897.00 Z
           M 1355.00,1904.00
           C 1355.00,1904.00 1355.00,1905.00 1355.00,1905.00
             1355.00,1905.00 1354.00,1904.00 1354.00,1904.00
             1354.00,1904.00 1355.00,1904.00 1355.00,1904.00 Z
           M 1363.00,1932.00
           C 1363.00,1932.00 1361.00,1935.00 1361.00,1935.00
             1361.00,1935.00 1357.00,1932.00 1357.00,1932.00
             1357.00,1932.00 1363.00,1932.00 1363.00,1932.00 Z
           M 1361.00,1949.00
           C 1361.00,1949.00 1361.00,1950.00 1361.00,1950.00
             1361.00,1950.00 1362.00,1949.00 1362.00,1949.00
             1362.00,1949.00 1361.00,1949.00 1361.00,1949.00 Z
           M 1368.00,1955.00
           C 1368.00,1955.00 1368.00,1956.00 1368.00,1956.00
             1368.00,1956.00 1367.00,1955.00 1367.00,1955.00
             1367.00,1955.00 1368.00,1955.00 1368.00,1955.00 Z
           M 2323.00,1998.00
           C 2323.00,1998.00 2323.00,1999.00 2323.00,1999.00
             2323.00,1999.00 2324.00,1998.00 2324.00,1998.00
             2324.00,1998.00 2323.00,1998.00 2323.00,1998.00 Z
           M 1384.00,2004.00
           C 1384.00,2004.00 1384.00,2010.00 1384.00,2010.00
             1385.87,2007.44 1386.53,2006.31 1384.00,2004.00 Z
           M 1387.00,2005.00
           C 1387.00,2005.00 1387.00,2006.00 1387.00,2006.00
             1387.00,2006.00 1388.00,2005.00 1388.00,2005.00
             1388.00,2005.00 1387.00,2005.00 1387.00,2005.00 Z
           M 1396.00,2011.00
           C 1396.00,2011.00 1396.00,2012.00 1396.00,2012.00
             1396.00,2012.00 1395.00,2011.00 1395.00,2011.00
             1395.00,2011.00 1396.00,2011.00 1396.00,2011.00 Z
           M 1398.00,2030.00
           C 1398.00,2030.00 1398.00,2031.00 1398.00,2031.00
             1398.00,2031.00 1397.00,2030.00 1397.00,2030.00
             1397.00,2030.00 1398.00,2030.00 1398.00,2030.00 Z
           M 1391.00,2030.00
           C 1391.00,2030.00 1391.00,2031.00 1391.00,2031.00
             1391.00,2031.00 1392.00,2030.00 1392.00,2030.00
             1392.00,2030.00 1391.00,2030.00 1391.00,2030.00 Z
           M 1409.00,2042.00
           C 1409.00,2042.00 1409.00,2043.00 1409.00,2043.00
             1409.00,2043.00 1408.00,2042.00 1408.00,2042.00
             1408.00,2042.00 1409.00,2042.00 1409.00,2042.00 Z
           M 1369.00,2103.00
           C 1369.00,2103.00 1369.00,2104.00 1369.00,2104.00
             1369.00,2104.00 1368.00,2103.00 1368.00,2103.00
             1368.00,2103.00 1369.00,2103.00 1369.00,2103.00 Z
           M 2878.00,2205.00
           C 2878.00,2205.00 2878.00,2206.00 2878.00,2206.00
             2878.00,2206.00 2879.00,2205.00 2879.00,2205.00
             2879.00,2205.00 2878.00,2205.00 2878.00,2205.00 Z
           M 3122.00,2286.00
           C 3122.00,2286.00 3122.00,2287.00 3122.00,2287.00
             3122.00,2287.00 3121.00,2286.00 3121.00,2286.00
             3121.00,2286.00 3122.00,2286.00 3122.00,2286.00 Z
           M 57.00,3660.00
           C 57.00,3660.00 57.00,3661.00 57.00,3661.00
             57.00,3661.00 56.00,3660.00 56.00,3660.00
             56.00,3660.00 57.00,3660.00 57.00,3660.00 Z
           M 65.00,4503.00
           C 65.00,4503.00 65.00,4504.00 65.00,4504.00
             65.00,4504.00 66.00,4503.00 66.00,4503.00
             66.00,4503.00 65.00,4503.00 65.00,4503.00 Z" />
</svg>
