<?xml version="1.0" encoding="UTF-8" standalone="no"?>
<!DOCTYPE svg PUBLIC "-//W3C//DTD SVG 20010904//EN"
              "http://www.w3.org/TR/2001/REC-SVG-20010904/DTD/svg10.dtd">

<svg xmlns="http://www.w3.org/2000/svg"
     width="11.9933in" height="14.82in"
     viewBox="0 0 3598 4446">
  <path id="face"
        fill="none" stroke="black" stroke-width="1"
        d="M 1516.00,336.00
           C 1516.00,336.00 1511.00,350.00 1511.00,350.00
             1511.00,350.00 1513.00,349.00 1513.00,349.00
             1513.00,349.00 1508.00,353.00 1508.00,353.00
             1508.50,362.77 1502.97,359.86 1504.00,370.00
             1497.71,369.71 1487.31,375.15 1482.08,378.70
             1478.48,381.15 1477.71,383.44 1473.00,384.00
             1473.00,384.00 1471.00,390.00 1471.00,390.00
             1465.30,391.08 1459.52,397.87 1457.00,403.00
             1448.67,404.29 1445.34,409.54 1439.87,414.73
             1437.19,417.28 1435.10,417.75 1433.00,421.00
             1427.99,421.93 1426.52,424.74 1422.72,427.72
             1417.02,432.18 1410.77,436.89 1406.06,442.43
             1403.15,445.84 1403.21,447.62 1401.62,449.58
             1399.81,451.81 1392.89,454.53 1392.00,463.00
             1384.42,465.11 1381.00,475.41 1375.85,481.23
             1375.85,481.23 1367.51,489.05 1367.51,489.05
             1367.51,489.05 1358.29,507.96 1358.29,507.96
             1358.29,507.96 1354.05,514.17 1354.05,514.17
             1354.05,514.17 1348.05,525.83 1348.05,525.83
             1344.52,532.41 1337.82,547.88 1338.00,555.00
             1333.00,558.21 1328.19,573.03 1326.04,579.00
             1326.04,579.00 1320.90,599.00 1320.90,599.00
             1320.90,599.00 1316.35,610.00 1316.35,610.00
             1316.35,610.00 1314.05,622.00 1314.05,622.00
             1314.05,622.00 1308.66,635.00 1308.66,635.00
             1305.96,642.39 1304.39,652.28 1306.00,660.00
             1301.74,663.15 1301.82,666.47 1304.00,671.00
             1300.55,672.25 1300.23,673.33 1300.19,677.00
             1300.19,677.00 1300.19,685.83 1300.19,685.83
             1300.19,685.83 1296.76,696.00 1296.76,696.00
             1296.76,696.00 1296.01,703.00 1296.01,703.00
             1295.56,706.28 1294.31,707.54 1297.00,710.00
             1297.00,710.00 1297.00,712.00 1297.00,712.00
             1294.55,714.40 1295.84,715.83 1295.82,719.00
             1295.82,719.00 1294.87,732.96 1294.87,732.96
             1294.87,732.96 1293.23,739.17 1293.23,739.17
             1293.23,739.17 1290.14,769.00 1290.14,769.00
             1290.14,769.00 1290.14,780.28 1290.14,780.28
             1290.04,784.16 1289.08,783.94 1289.00,791.00
             1289.00,791.00 1287.00,790.00 1287.00,790.00
             1287.00,790.00 1285.02,804.00 1285.02,804.00
             1285.02,804.00 1285.02,816.00 1285.02,816.00
             1285.02,816.00 1286.00,816.00 1286.00,816.00
             1286.00,816.00 1286.00,814.00 1286.00,814.00
             1286.64,816.97 1287.26,818.81 1284.00,820.00
             1284.00,820.00 1282.00,854.00 1282.00,854.00
             1282.00,854.00 1280.10,874.00 1280.10,874.00
             1280.10,874.00 1280.10,898.28 1280.10,898.28
             1280.10,898.28 1282.23,914.00 1282.23,914.00
             1281.11,920.21 1275.31,923.20 1270.00,925.00
             1272.80,927.76 1273.12,927.68 1277.00,928.00
             1274.01,931.49 1273.52,932.03 1269.00,933.00
             1269.00,933.00 1269.00,936.00 1269.00,936.00
             1269.00,936.00 1256.00,941.00 1256.00,941.00
             1256.00,941.00 1257.00,944.00 1257.00,944.00
             1257.00,944.00 1248.62,951.12 1248.62,951.12
             1248.62,951.12 1242.24,957.02 1242.24,957.02
             1242.24,957.02 1243.10,963.96 1243.10,963.96
             1243.10,963.96 1241.00,970.00 1241.00,970.00
             1248.59,973.13 1251.50,969.96 1259.00,967.29
             1261.85,966.28 1265.76,964.50 1268.50,966.68
             1269.75,967.67 1270.56,969.54 1271.09,971.00
             1273.75,978.39 1269.89,979.45 1270.35,985.00
             1270.35,985.00 1273.04,997.00 1273.04,997.00
             1273.98,1005.02 1272.73,1013.09 1270.77,1020.91
             1270.77,1020.91 1268.12,1027.09 1268.12,1027.09
             1268.12,1027.09 1265.76,1035.00 1265.76,1035.00
             1262.71,1043.59 1258.31,1052.07 1263.00,1061.00
             1263.00,1061.00 1254.00,1061.00 1254.00,1061.00
             1251.38,1067.32 1253.72,1067.42 1252.12,1070.83
             1252.12,1070.83 1248.39,1076.09 1248.39,1076.09
             1248.39,1076.09 1246.40,1082.00 1246.40,1082.00
             1242.68,1091.68 1242.03,1092.10 1242.00,1103.00
             1242.00,1103.00 1241.00,1098.00 1241.00,1098.00
             1239.16,1102.30 1238.03,1121.58 1238.00,1127.00
             1237.97,1134.26 1238.41,1149.52 1240.85,1155.96
             1242.51,1160.34 1244.21,1161.19 1246.41,1165.01
             1246.41,1165.01 1251.81,1175.58 1251.81,1175.58
             1251.81,1175.58 1258.88,1191.63 1258.88,1191.63
             1258.88,1191.63 1263.30,1196.17 1263.30,1196.17
             1263.30,1196.17 1272.41,1209.28 1272.41,1209.28
             1273.60,1211.08 1274.67,1213.81 1276.42,1214.98
             1277.68,1215.83 1278.62,1215.76 1280.00,1216.00
             1280.00,1216.00 1280.00,1224.00 1280.00,1224.00
             1285.80,1228.19 1294.57,1240.96 1296.00,1248.00
             1299.82,1250.39 1300.89,1255.07 1302.98,1259.00
             1302.98,1259.00 1307.39,1269.00 1307.39,1269.00
             1309.52,1273.28 1310.88,1273.24 1313.23,1279.00
             1316.38,1286.71 1319.09,1298.16 1327.00,1302.00
             1327.00,1302.00 1326.00,1306.00 1326.00,1306.00
             1328.87,1308.18 1329.59,1308.35 1330.00,1312.00
             1334.58,1314.64 1341.92,1326.33 1346.10,1331.00
             1349.41,1334.70 1353.48,1337.81 1354.00,1343.00
             1360.59,1346.00 1371.13,1355.43 1376.45,1360.67
             1379.52,1363.68 1382.39,1364.31 1383.00,1369.00
             1387.65,1369.88 1390.60,1372.50 1392.00,1377.00
             1397.24,1378.56 1396.97,1380.06 1401.09,1382.64
             1406.10,1385.78 1414.08,1388.67 1416.99,1394.17
             1418.64,1397.29 1417.66,1402.37 1418.26,1406.00
             1419.70,1414.80 1422.91,1422.91 1423.00,1432.00
             1423.09,1440.97 1426.69,1445.21 1425.00,1448.00
             1425.00,1448.00 1441.53,1494.00 1441.53,1494.00
             1444.21,1501.28 1448.14,1510.98 1451.77,1517.74
             1451.77,1517.74 1454.88,1522.26 1454.88,1522.26
             1454.88,1522.26 1456.98,1528.72 1456.98,1528.72
             1456.98,1528.72 1465.07,1538.17 1465.07,1538.17
             1467.12,1541.49 1466.54,1545.21 1469.14,1548.78
             1470.93,1551.22 1472.81,1551.71 1474.60,1553.49
             1474.60,1553.49 1479.23,1559.58 1479.23,1559.58
             1479.23,1559.58 1489.51,1569.59 1489.51,1569.59
             1489.51,1569.59 1499.50,1582.55 1499.50,1582.55
             1499.50,1582.55 1539.00,1618.04 1539.00,1618.04
             1539.00,1618.04 1561.00,1639.01 1561.00,1639.01
             1561.00,1639.01 1576.00,1653.71 1576.00,1653.71
             1576.00,1653.71 1613.00,1682.65 1613.00,1682.65
             1613.00,1682.65 1641.00,1704.02 1641.00,1704.02
             1641.00,1704.02 1669.00,1716.86 1669.00,1716.86
             1669.00,1716.86 1704.00,1732.56 1704.00,1732.56
             1704.00,1732.56 1740.00,1742.42 1740.00,1742.42
             1740.00,1742.42 1771.00,1750.71 1771.00,1750.71
             1779.17,1753.03 1788.55,1756.18 1797.00,1755.99
             1797.00,1755.99 1810.00,1754.96 1810.00,1754.96
             1810.00,1754.96 1821.00,1754.96 1821.00,1754.96
             1821.00,1754.96 1831.00,1754.00 1831.00,1754.00
             1831.00,1754.00 1881.00,1751.09 1881.00,1751.09
             1881.00,1751.09 1911.00,1748.96 1911.00,1748.96
             1911.00,1748.96 1920.00,1748.96 1920.00,1748.96
             1920.00,1748.96 1995.00,1735.11 1995.00,1735.11
             1995.00,1735.11 2028.00,1724.33 2028.00,1724.33
             2028.00,1724.33 2066.00,1711.48 2066.00,1711.48
             2066.00,1711.48 2094.00,1692.72 2094.00,1692.72
             2094.00,1692.72 2125.00,1671.26 2125.00,1671.26
             2125.00,1671.26 2141.00,1658.08 2141.00,1658.08
             2141.00,1658.08 2171.00,1632.91 2171.00,1632.91
             2171.00,1632.91 2205.00,1598.00 2205.00,1598.00
             2213.55,1589.41 2240.32,1561.63 2246.37,1553.00
             2246.37,1553.00 2250.64,1545.32 2250.64,1545.32
             2250.64,1545.32 2255.15,1539.82 2255.15,1539.82
             2255.15,1539.82 2261.73,1528.00 2261.73,1528.00
             2261.73,1528.00 2267.40,1515.00 2267.40,1515.00
             2267.40,1515.00 2272.64,1507.04 2272.64,1507.04
             2273.99,1504.38 2273.45,1503.35 2275.65,1499.96
             2278.13,1496.13 2280.00,1495.78 2281.28,1492.87
             2281.28,1492.87 2283.21,1484.00 2283.21,1484.00
             2283.21,1484.00 2286.52,1476.00 2286.52,1476.00
             2286.52,1476.00 2288.62,1467.00 2288.62,1467.00
             2288.62,1467.00 2293.40,1455.00 2293.40,1455.00
             2293.40,1455.00 2297.68,1436.00 2297.68,1436.00
             2297.68,1436.00 2298.48,1429.00 2298.48,1429.00
             2298.48,1429.00 2302.55,1415.00 2302.55,1415.00
             2302.55,1415.00 2305.05,1401.00 2305.05,1401.00
             2305.05,1401.00 2305.05,1395.09 2305.05,1395.09
             2305.05,1395.09 2307.03,1388.91 2307.03,1388.91
             2307.03,1388.91 2307.03,1380.00 2307.03,1380.00
             2307.03,1380.00 2309.68,1360.00 2309.68,1360.00
             2311.10,1353.68 2313.62,1349.79 2312.00,1343.00
             2317.88,1341.37 2326.00,1340.41 2330.99,1337.37
             2336.16,1334.21 2338.45,1328.50 2342.61,1324.21
             2346.44,1320.25 2349.20,1319.81 2351.03,1317.51
             2351.03,1317.51 2354.05,1312.42 2354.05,1312.42
             2354.05,1312.42 2369.45,1291.15 2369.45,1291.15
             2372.63,1286.81 2373.74,1286.60 2376.45,1281.00
             2376.45,1281.00 2379.11,1275.04 2379.11,1275.04
             2379.11,1275.04 2383.14,1268.83 2383.14,1268.83
             2383.14,1268.83 2385.31,1261.04 2385.31,1261.04
             2385.31,1261.04 2390.57,1253.91 2390.57,1253.91
             2390.57,1253.91 2395.49,1241.00 2395.49,1241.00
             2395.49,1241.00 2399.68,1224.00 2399.68,1224.00
             2399.68,1224.00 2400.63,1214.00 2400.63,1214.00
             2401.87,1208.27 2403.38,1209.42 2405.11,1202.00
             2405.11,1202.00 2407.79,1189.00 2407.79,1189.00
             2407.79,1189.00 2408.63,1182.00 2408.63,1182.00
             2408.63,1182.00 2415.24,1161.00 2415.24,1161.00
             2415.24,1161.00 2417.19,1151.17 2417.19,1151.17
             2419.75,1142.71 2421.94,1144.44 2422.00,1134.00
             2422.07,1120.78 2423.16,1125.80 2424.75,1117.00
             2424.75,1117.00 2425.77,1109.01 2425.77,1109.01
             2426.75,1104.18 2428.01,1103.99 2428.71,1100.91
             2430.03,1095.08 2431.92,1076.18 2432.10,1070.00
             2432.10,1070.00 2432.10,1060.00 2432.10,1060.00
             2433.10,1053.55 2433.98,1056.66 2434.00,1047.00
             2434.00,1047.00 2434.00,1030.00 2434.00,1030.00
             2433.92,1023.86 2432.99,1022.40 2432.14,1017.00
             2432.14,1017.00 2432.14,1007.00 2432.14,1007.00
             2431.89,1000.51 2430.02,998.21 2428.66,992.00
             2426.51,982.16 2422.60,968.07 2413.00,963.00
             2413.00,963.00 2415.00,962.00 2415.00,962.00
             2415.00,962.00 2412.00,962.00 2412.00,962.00
             2409.63,958.64 2408.98,958.67 2405.00,958.00
             2405.00,958.00 2406.00,956.00 2406.00,956.00
             2399.95,955.12 2396.35,956.09 2393.00,950.00
             2393.00,950.00 2392.00,954.00 2392.00,954.00
             2388.64,946.90 2387.89,941.63 2387.55,934.00
             2387.55,934.00 2386.71,926.00 2386.71,926.00
             2386.71,926.00 2389.83,894.00 2389.83,894.00
             2389.83,894.00 2390.82,878.00 2390.82,878.00
             2391.33,870.75 2388.59,863.52 2387.92,856.42
             2387.92,856.42 2387.92,844.00 2387.92,844.00
             2387.92,844.00 2386.83,831.00 2386.83,831.00
             2386.83,831.00 2384.72,821.00 2384.72,821.00
             2384.72,821.00 2384.00,805.00 2384.00,805.00
             2384.00,805.00 2381.00,806.00 2381.00,806.00
             2381.00,806.00 2381.00,805.00 2381.00,805.00
             2381.00,805.00 2383.00,804.00 2383.00,804.00
             2383.00,804.00 2383.00,802.00 2383.00,802.00
             2383.00,802.00 2375.36,786.28 2375.36,786.28
             2375.36,786.28 2376.25,771.07 2376.25,771.07
             2376.25,771.07 2378.00,761.00 2378.00,761.00
             2378.00,761.00 2377.00,764.00 2377.00,764.00
             2377.00,764.00 2375.00,754.00 2375.00,754.00
             2375.00,754.00 2376.00,756.00 2376.00,756.00
             2377.05,752.05 2372.70,743.91 2371.36,739.00
             2369.44,731.96 2368.10,730.79 2368.00,723.00
             2367.93,716.65 2367.78,706.04 2366.41,700.00
             2365.34,695.31 2365.30,689.70 2361.00,687.00
             2362.15,681.09 2359.43,675.04 2358.41,669.00
             2358.41,669.00 2354.95,652.04 2354.95,652.04
             2354.95,652.04 2352.58,645.83 2352.58,645.83
             2352.58,645.83 2351.59,627.00 2351.59,627.00
             2351.41,621.98 2353.54,610.30 2348.00,608.00
             2351.42,597.70 2343.14,591.02 2343.00,576.00
             2338.92,574.66 2340.78,571.47 2340.31,568.00
             2339.93,565.20 2335.85,554.52 2334.35,552.00
             2328.19,541.62 2331.65,547.05 2328.44,538.00
             2328.44,538.00 2325.05,531.00 2325.05,531.00
             2325.05,531.00 2321.54,520.00 2321.54,520.00
             2315.44,503.84 2309.72,493.26 2300.56,478.72
             2300.56,478.72 2296.67,472.02 2296.67,472.02
             2294.11,468.43 2292.09,467.34 2290.61,465.55
             2290.61,465.55 2285.87,457.01 2285.87,457.01
             2285.87,457.01 2278.39,447.96 2278.39,447.96
             2278.39,447.96 2273.60,439.00 2273.60,439.00
             2264.74,424.95 2250.97,406.77 2238.57,395.86
             2231.55,389.67 2211.21,374.12 2203.58,369.40
             2203.58,369.40 2196.04,366.01 2196.04,366.01
             2196.04,366.01 2182.80,355.82 2182.80,355.82
             2182.80,355.82 2174.25,350.35 2174.25,350.35
             2174.25,350.35 2160.29,332.08 2160.29,332.08
             2152.00,321.87 2154.08,326.09 2146.09,320.25
             2142.70,317.77 2141.65,315.49 2137.00,312.61
             2126.52,306.13 2123.81,307.56 2114.00,303.90
             2114.00,303.90 2106.00,300.44 2106.00,300.44
             2101.74,299.12 2098.38,298.97 2094.00,296.94
             2085.37,292.94 2082.99,279.38 2076.00,277.00
             2074.41,267.57 2063.64,264.91 2057.17,259.45
             2053.95,256.73 2052.59,253.53 2048.91,251.27
             2048.91,251.27 2042.09,248.32 2042.09,248.32
             2042.09,248.32 2034.96,244.46 2034.96,244.46
             2034.96,244.46 2021.01,238.57 2021.01,238.57
             2021.01,238.57 2013.84,233.29 2013.84,233.29
             2004.91,228.19 1995.16,226.09 1985.00,225.98
             1985.00,225.98 1967.00,225.98 1967.00,225.98
             1963.29,226.02 1958.23,226.97 1955.00,225.98
             1955.00,225.98 1936.42,215.01 1936.42,215.01
             1936.42,215.01 1922.00,209.00 1922.00,209.00
             1922.00,209.00 1904.00,200.67 1904.00,200.67
             1904.00,200.67 1885.00,192.27 1885.00,192.27
             1872.79,189.69 1859.44,189.86 1847.00,190.00
             1840.86,190.08 1839.41,191.01 1834.00,191.71
             1829.39,192.31 1826.97,191.58 1822.00,192.93
             1816.88,194.32 1815.03,196.27 1812.72,197.19
             1812.72,197.19 1805.00,198.81 1805.00,198.81
             1795.92,201.98 1796.98,203.86 1785.00,204.06
             1785.00,204.06 1772.00,204.06 1772.00,204.06
             1765.18,204.88 1760.25,206.74 1753.00,206.32
             1749.51,206.12 1742.41,207.47 1739.00,208.52
             1734.22,209.98 1732.56,212.36 1728.00,213.80
             1728.00,213.80 1709.17,218.99 1709.17,218.99
             1709.17,218.99 1703.54,222.16 1703.54,222.16
             1701.26,223.06 1698.93,222.80 1695.04,224.91
             1695.04,224.91 1688.83,229.31 1688.83,229.31
             1688.83,229.31 1682.26,233.63 1682.26,233.63
             1678.81,236.61 1678.42,240.08 1669.17,246.17
             1661.87,250.97 1660.74,246.95 1653.09,250.27
             1653.09,250.27 1632.03,263.78 1632.03,263.78
             1632.03,263.78 1624.91,266.14 1624.91,266.14
             1624.91,266.14 1617.00,270.88 1617.00,270.88
             1612.93,272.84 1599.61,277.44 1595.00,278.62
             1586.63,280.76 1586.30,279.50 1582.00,280.26
             1582.00,280.26 1575.00,282.45 1575.00,282.45
             1572.14,283.20 1571.08,282.84 1568.28,284.47
             1568.28,284.47 1548.39,297.80 1548.39,297.80
             1548.39,297.80 1543.61,303.19 1543.61,303.19
             1543.61,303.19 1539.13,305.99 1539.13,305.99
             1539.13,305.99 1531.60,314.41 1531.60,314.41
             1531.60,314.41 1528.05,321.00 1528.05,321.00
             1528.05,321.00 1522.00,328.04 1522.00,328.04
             1519.88,331.37 1520.18,334.67 1516.00,336.00 Z
           M 1825.00,193.00
           C 1825.00,193.00 1825.00,194.00 1825.00,194.00
             1825.00,194.00 1824.00,193.00 1824.00,193.00
             1824.00,193.00 1825.00,193.00 1825.00,193.00 Z
           M 1828.00,193.00
           C 1828.00,193.00 1828.00,194.00 1828.00,194.00
             1828.00,194.00 1827.00,193.00 1827.00,193.00
             1827.00,193.00 1828.00,193.00 1828.00,193.00 Z
           M 1805.00,200.00
           C 1805.00,200.00 1805.00,201.00 1805.00,201.00
             1805.00,201.00 1804.00,200.00 1804.00,200.00
             1804.00,200.00 1805.00,200.00 1805.00,200.00 Z
           M 2340.00,568.00
           C 2340.00,568.00 2340.00,569.00 2340.00,569.00
             2340.00,569.00 2339.00,568.00 2339.00,568.00
             2339.00,568.00 2340.00,568.00 2340.00,568.00 Z
           M 2364.00,698.00
           C 2364.00,698.00 2364.00,699.00 2364.00,699.00
             2364.00,699.00 2363.00,698.00 2363.00,698.00
             2363.00,698.00 2364.00,698.00 2364.00,698.00 Z
           M 2365.00,699.00
           C 2365.00,699.00 2365.00,700.00 2365.00,700.00
             2365.00,700.00 2364.00,699.00 2364.00,699.00
             2364.00,699.00 2365.00,699.00 2365.00,699.00 Z
           M 2378.00,791.00
           C 2378.00,791.00 2378.00,792.00 2378.00,792.00
             2378.00,792.00 2379.00,791.00 2379.00,791.00
             2379.00,791.00 2378.00,791.00 2378.00,791.00 Z
           M 2383.00,808.00
           C 2383.00,808.00 2383.00,809.00 2383.00,809.00
             2383.00,809.00 2382.00,808.00 2382.00,808.00
             2382.00,808.00 2383.00,808.00 2383.00,808.00 Z
           M 2386.00,829.00
           C 2386.00,829.00 2386.00,836.00 2386.00,836.00
             2386.00,836.00 2386.00,829.00 2386.00,829.00 Z
           M 2387.00,840.00
           C 2387.00,840.00 2387.00,847.00 2387.00,847.00
             2387.00,847.00 2387.00,840.00 2387.00,840.00 Z
           M 2424.00,979.00
           C 2424.00,979.00 2424.00,980.00 2424.00,980.00
             2424.00,980.00 2423.00,979.00 2423.00,979.00
             2423.00,979.00 2424.00,979.00 2424.00,979.00 Z
           M 1251.00,1075.00
           C 1251.00,1075.00 1251.00,1076.00 1251.00,1076.00
             1251.00,1076.00 1250.00,1075.00 1250.00,1075.00
             1250.00,1075.00 1251.00,1075.00 1251.00,1075.00 Z
           M 1250.00,1076.00
           C 1250.00,1076.00 1250.00,1077.00 1250.00,1077.00
             1250.00,1077.00 1249.00,1076.00 1249.00,1076.00
             1249.00,1076.00 1250.00,1076.00 1250.00,1076.00 Z
           M 1249.00,1077.00
           C 1249.00,1077.00 1249.00,1078.00 1249.00,1078.00
             1249.00,1078.00 1248.00,1077.00 1248.00,1077.00
             1248.00,1077.00 1249.00,1077.00 1249.00,1077.00 Z" />
  <path id="profile"
        fill="none" stroke="black" stroke-width="1"
        d="M 1516.00,336.00
           C 1516.00,336.00 1511.00,350.00 1511.00,350.00
             1511.00,350.00 1513.00,349.00 1513.00,349.00
             1513.00,349.00 1508.00,353.00 1508.00,353.00
             1508.50,362.77 1502.97,359.86 1504.00,370.00
             1497.71,369.71 1487.31,375.15 1482.08,378.70
             1478.48,381.15 1477.71,383.44 1473.00,384.00
             1473.00,384.00 1471.00,390.00 1471.00,390.00
             1465.30,391.08 1459.52,397.87 1457.00,403.00
             1448.67,404.29 1445.34,409.54 1439.87,414.73
             1437.19,417.28 1435.10,417.75 1433.00,421.00
             1427.99,421.93 1426.52,424.74 1422.72,427.72
             1417.02,432.18 1410.77,436.89 1406.06,442.43
             1403.15,445.84 1403.21,447.62 1401.62,449.58
             1399.81,451.81 1392.89,454.53 1392.00,463.00
             1384.42,465.11 1381.00,475.41 1375.85,481.23
             1375.85,481.23 1367.51,489.05 1367.51,489.05
             1367.51,489.05 1358.29,507.96 1358.29,507.96
             1358.29,507.96 1354.05,514.17 1354.05,514.17
             1354.05,514.17 1348.05,525.83 1348.05,525.83
             1344.52,532.41 1337.82,547.88 1338.00,555.00
             1333.00,558.21 1328.19,573.03 1326.04,579.00
             1326.04,579.00 1320.90,599.00 1320.90,599.00
             1320.90,599.00 1316.35,610.00 1316.35,610.00
             1316.35,610.00 1314.05,622.00 1314.05,622.00
             1314.05,622.00 1308.66,635.00 1308.66,635.00
             1305.96,642.39 1304.39,652.28 1306.00,660.00
             1301.74,663.15 1301.82,666.47 1304.00,671.00
             1300.55,672.25 1300.23,673.33 1300.19,677.00
             1300.19,677.00 1300.19,685.83 1300.19,685.83
             1300.19,685.83 1296.76,696.00 1296.76,696.00
             1296.76,696.00 1296.01,703.00 1296.01,703.00
             1295.56,706.28 1294.31,707.54 1297.00,710.00
             1297.00,710.00 1297.00,712.00 1297.00,712.00
             1294.55,714.40 1295.84,715.83 1295.82,719.00
             1295.82,719.00 1294.87,732.96 1294.87,732.96
             1294.87,732.96 1293.23,739.17 1293.23,739.17
             1293.23,739.17 1290.14,769.00 1290.14,769.00
             1290.14,769.00 1290.14,780.28 1290.14,780.28
             1290.04,784.16 1289.08,783.94 1289.00,791.00
             1289.00,791.00 1287.00,790.00 1287.00,790.00
             1287.00,790.00 1285.02,804.00 1285.02,804.00
             1285.02,804.00 1285.02,816.00 1285.02,816.00
             1285.02,816.00 1286.00,816.00 1286.00,816.00
             1286.00,816.00 1286.00,814.00 1286.00,814.00
             1286.64,816.97 1287.26,818.81 1284.00,820.00
             1284.00,820.00 1282.00,854.00 1282.00,854.00
             1282.00,854.00 1280.10,874.00 1280.10,874.00
             1280.10,874.00 1280.10,898.28 1280.10,898.28
             1280.10,898.28 1282.23,914.00 1282.23,914.00
             1281.11,920.21 1275.31,923.20 1270.00,925.00
             1272.80,927.76 1273.12,927.68 1277.00,928.00
             1274.01,931.49 1273.52,932.03 1269.00,933.00
             1269.00,933.00 1269.00,936.00 1269.00,936.00
             1269.00,936.00 1256.00,941.00 1256.00,941.00
             1256.00,941.00 1257.00,944.00 1257.00,944.00
             1257.00,944.00 1248.62,951.12 1248.62,951.12
             1248.62,951.12 1242.24,957.02 1242.24,957.02
             1242.24,957.02 1243.10,963.96 1243.10,963.96
             1243.10,963.96 1241.00,970.00 1241.00,970.00
             1248.59,973.13 1251.50,969.96 1259.00,967.29
             1261.85,966.28 1265.76,964.50 1268.50,966.68
             1269.75,967.67 1270.56,969.54 1271.09,971.00
             1273.75,978.39 1269.89,979.45 1270.35,985.00
             1270.35,985.00 1273.04,997.00 1273.04,997.00
             1273.98,1005.02 1272.73,1013.09 1270.77,1020.91
             1270.77,1020.91 1268.12,1027.09 1268.12,1027.09
             1268.12,1027.09 1265.76,1035.00 1265.76,1035.00
             1262.71,1043.59 1258.31,1052.07 1263.00,1061.00
             1263.00,1061.00 1254.00,1061.00 1254.00,1061.00
             1251.38,1067.32 1253.72,1067.42 1252.12,1070.83
             1252.12,1070.83 1248.39,1076.09 1248.39,1076.09
             1248.39,1076.09 1246.40,1082.00 1246.40,1082.00
             1242.68,1091.68 1242.03,1092.10 1242.00,1103.00
             1242.00,1103.00 1241.00,1098.00 1241.00,1098.00
             1239.16,1102.30 1238.03,1121.58 1238.00,1127.00
             1237.97,1134.26 1238.41,1149.52 1240.85,1155.96
             1242.51,1160.34 1244.21,1161.19 1246.41,1165.01
             1246.41,1165.01 1251.81,1175.58 1251.81,1175.58
             1251.81,1175.58 1258.88,1191.63 1258.88,1191.63
             1258.88,1191.63 1263.30,1196.17 1263.30,1196.17
             1263.30,1196.17 1272.41,1209.28 1272.41,1209.28
             1273.60,1211.08 1274.67,1213.81 1276.42,1214.98
             1277.68,1215.83 1278.62,1215.76 1280.00,1216.00
             1280.00,1216.00 1280.00,1224.00 1280.00,1224.00
             1285.80,1228.19 1294.57,1240.96 1296.00,1248.00
             1299.82,1250.39 1300.89,1255.07 1302.98,1259.00
             1302.98,1259.00 1307.39,1269.00 1307.39,1269.00
             1309.52,1273.28 1310.88,1273.24 1313.23,1279.00
             1316.38,1286.71 1319.09,1298.16 1327.00,1302.00
             1327.00,1302.00 1326.00,1306.00 1326.00,1306.00
             1328.87,1308.18 1329.59,1308.35 1330.00,1312.00
             1334.58,1314.64 1341.92,1326.33 1346.10,1331.00
             1349.41,1334.70 1353.48,1337.81 1354.00,1343.00
             1360.59,1346.00 1371.13,1355.43 1376.45,1360.67
             1379.52,1363.68 1382.39,1364.31 1383.00,1369.00
             1387.66,1369.86 1390.60,1372.50 1392.00,1377.00
             1397.24,1378.56 1396.97,1380.06 1401.09,1382.64
             1406.10,1385.78 1414.08,1388.67 1416.99,1394.17
             1418.64,1397.29 1417.66,1402.37 1418.26,1406.00
             1419.70,1414.80 1422.91,1422.91 1423.00,1432.00
             1423.09,1440.97 1426.69,1445.21 1425.00,1448.00
             1425.00,1448.00 1441.53,1494.00 1441.53,1494.00
             1441.53,1494.00 1451.77,1517.74 1451.77,1517.74
             1451.77,1517.74 1454.88,1522.26 1454.88,1522.26
             1454.88,1522.26 1456.98,1528.72 1456.98,1528.72
             1456.98,1528.72 1465.07,1538.17 1465.07,1538.17
             1465.07,1538.17 1469.80,1549.59 1469.80,1549.59
             1469.80,1549.59 1474.60,1553.49 1474.60,1553.49
             1474.60,1553.49 1478.48,1558.72 1478.48,1558.72
             1478.48,1558.72 1483.42,1564.00 1483.42,1564.00
             1483.42,1564.00 1489.51,1569.59 1489.51,1569.59
             1489.51,1569.59 1499.00,1584.00 1499.00,1584.00
             1505.91,1586.13 1509.91,1594.30 1511.47,1601.00
             1511.47,1601.00 1512.74,1609.00 1512.74,1609.00
             1512.74,1609.00 1515.29,1626.00 1515.29,1626.00
             1515.29,1626.00 1517.04,1635.00 1517.04,1635.00
             1517.04,1635.00 1517.04,1645.00 1517.04,1645.00
             1517.04,1645.00 1519.12,1652.00 1519.12,1652.00
             1519.12,1652.00 1520.11,1662.00 1520.11,1662.00
             1521.93,1673.01 1523.87,1680.53 1524.00,1692.00
             1524.11,1700.97 1527.38,1708.49 1529.18,1717.00
             1529.18,1717.00 1532.29,1746.00 1532.29,1746.00
             1533.58,1755.81 1535.98,1757.62 1536.00,1769.00
             1536.01,1773.93 1535.69,1781.41 1536.63,1786.00
             1536.63,1786.00 1539.78,1796.00 1539.78,1796.00
             1539.78,1796.00 1540.29,1805.00 1540.29,1805.00
             1540.29,1805.00 1543.29,1829.00 1543.29,1829.00
             1543.29,1829.00 1545.13,1838.00 1545.13,1838.00
             1545.13,1838.00 1545.13,1845.00 1545.13,1845.00
             1546.25,1853.06 1548.27,1863.93 1547.96,1872.00
             1547.96,1872.00 1546.29,1884.00 1546.29,1884.00
             1546.29,1884.00 1545.70,1891.00 1545.70,1891.00
             1546.37,1887.97 1538.93,1909.21 1539.93,1906.99
             1539.93,1906.99 1536.77,1912.42 1536.77,1912.42
             1534.50,1917.12 1535.68,1920.25 1530.00,1926.00
             1529.26,1917.11 1524.47,1921.19 1519.00,1923.78
             1511.77,1927.20 1503.18,1934.55 1500.00,1942.00
             1500.00,1942.00 1496.00,1941.00 1496.00,1941.00
             1496.00,1941.00 1497.00,1945.00 1497.00,1945.00
             1494.57,1945.87 1492.36,1946.58 1490.23,1948.12
             1485.03,1951.87 1476.34,1961.83 1475.00,1968.00
             1465.02,1968.50 1466.33,1971.56 1461.72,1973.83
             1457.95,1975.68 1457.67,1973.38 1455.00,1978.00
             1446.71,1976.39 1436.40,1981.83 1429.00,1985.00
             1424.39,1986.98 1422.85,1987.13 1418.09,1989.92
             1404.42,1997.92 1401.89,2004.03 1397.89,2006.99
             1395.11,2009.05 1384.60,2013.15 1381.00,2014.27
             1381.00,2014.27 1357.00,2017.94 1357.00,2017.94
             1357.00,2017.94 1349.00,2020.17 1349.00,2020.17
             1340.48,2021.83 1335.69,2022.02 1327.01,2025.18
             1327.01,2025.18 1317.96,2029.25 1317.96,2029.25
             1314.55,2030.53 1298.45,2037.65 1296.54,2039.55
             1295.31,2040.77 1295.45,2041.19 1295.00,2042.00
             1295.00,2042.00 1280.00,2045.00 1280.00,2045.00
             1279.79,2045.63 1280.14,2046.00 1279.17,2046.88
             1279.17,2046.88 1260.00,2052.03 1260.00,2052.03
             1260.00,2052.03 1227.87,2059.83 1227.87,2059.83
             1224.52,2061.24 1223.87,2063.39 1219.96,2065.39
             1219.96,2065.39 1200.00,2072.39 1200.00,2072.39
             1193.56,2074.68 1192.23,2076.34 1187.00,2079.04
             1187.00,2079.04 1179.01,2082.48 1179.01,2082.48
             1179.01,2082.48 1171.87,2087.89 1171.87,2087.89
             1171.87,2087.89 1162.00,2092.73 1162.00,2092.73
             1149.88,2099.20 1152.45,2101.17 1138.00,2101.00
             1131.33,2100.92 1124.72,2099.24 1118.00,2100.21
             1115.42,2100.58 1096.77,2107.95 1094.00,2109.40
             1094.00,2109.40 1067.00,2130.39 1067.00,2130.39
             1061.48,2133.66 1057.96,2132.33 1051.09,2135.90
             1046.83,2138.11 1046.61,2139.83 1040.00,2142.55
             1040.00,2142.55 1000.00,2154.68 1000.00,2154.68
             1000.00,2154.68 990.00,2159.20 990.00,2159.20
             990.00,2159.20 968.00,2162.00 968.00,2162.00
             968.00,2162.00 969.00,2165.00 969.00,2165.00
             962.70,2164.56 955.16,2168.64 949.00,2170.41
             949.00,2170.41 933.83,2173.84 933.83,2173.84
             933.83,2173.84 926.00,2176.54 926.00,2176.54
             926.00,2176.54 920.00,2177.81 920.00,2177.81
             920.00,2177.81 909.00,2183.48 909.00,2183.48
             902.37,2185.84 892.08,2183.26 889.00,2191.00
             881.19,2190.56 882.20,2193.51 877.80,2196.00
             877.80,2196.00 858.00,2202.46 858.00,2202.46
             854.18,2203.82 853.07,2205.44 849.00,2205.00
             840.86,2214.19 830.51,2214.78 820.24,2219.68
             820.24,2219.68 815.74,2222.74 815.74,2222.74
             815.74,2222.74 802.99,2228.37 802.99,2228.37
             799.26,2229.69 787.02,2233.51 785.02,2236.43
             784.18,2237.66 784.23,2238.65 784.00,2240.00
             784.00,2240.00 772.00,2244.64 772.00,2244.64
             772.00,2244.64 762.00,2247.00 762.00,2247.00
             761.42,2252.93 758.77,2254.83 753.00,2255.00
             750.72,2262.38 745.55,2261.99 740.04,2265.85
             740.04,2265.85 734.72,2270.54 734.72,2270.54
             734.72,2270.54 728.29,2274.72 728.29,2274.72
             723.81,2278.01 724.37,2279.20 718.00,2283.00
             717.28,2288.80 710.32,2291.25 706.00,2294.32
             695.73,2301.63 686.49,2317.05 676.00,2320.00
             673.98,2327.17 665.64,2334.81 659.75,2339.37
             657.72,2340.94 656.57,2341.19 654.51,2343.27
             654.51,2343.27 649.82,2348.68 649.82,2348.68
             649.82,2348.68 644.46,2353.28 644.46,2353.28
             644.46,2353.28 640.30,2358.01 640.30,2358.01
             640.30,2358.01 635.67,2361.68 635.67,2361.68
             635.67,2361.68 631.77,2366.74 631.77,2366.74
             631.77,2366.74 619.89,2378.23 619.89,2378.23
             616.34,2382.38 615.47,2386.00 610.92,2390.81
             606.66,2395.31 604.74,2394.83 601.47,2398.22
             601.47,2398.22 589.10,2415.58 589.10,2415.58
             589.10,2415.58 577.80,2430.70 577.80,2430.70
             577.80,2430.70 571.30,2438.05 571.30,2438.05
             571.30,2438.05 563.44,2450.72 563.44,2450.72
             559.64,2456.15 556.77,2457.11 550.74,2466.28
             550.74,2466.28 545.79,2475.95 545.79,2475.95
             543.48,2479.69 541.88,2479.50 539.51,2483.13
             539.51,2483.13 535.36,2491.00 535.36,2491.00
             535.36,2491.00 524.21,2509.00 524.21,2509.00
             524.21,2509.00 520.59,2516.91 520.59,2516.91
             520.59,2516.91 516.64,2522.15 516.64,2522.15
             516.64,2522.15 511.06,2530.95 511.06,2530.95
             511.06,2530.95 507.07,2536.17 507.07,2536.17
             507.07,2536.17 503.45,2545.00 503.45,2545.00
             500.72,2550.79 498.76,2552.29 497.19,2555.16
             497.19,2555.16 494.40,2562.28 494.40,2562.28
             494.40,2562.28 487.26,2577.00 487.26,2577.00
             487.26,2577.00 479.09,2592.00 479.09,2592.00
             479.09,2592.00 474.87,2601.99 474.87,2601.99
             474.87,2601.99 470.09,2609.17 470.09,2609.17
             470.09,2609.17 467.60,2615.00 467.60,2615.00
             467.60,2615.00 463.11,2624.00 463.11,2624.00
             463.11,2624.00 461.46,2629.83 461.46,2629.83
             459.76,2634.33 458.04,2633.39 459.00,2639.00
             453.57,2641.77 454.07,2644.00 451.51,2649.00
             451.51,2649.00 444.36,2664.00 444.36,2664.00
             444.36,2664.00 442.48,2669.83 442.48,2669.83
             441.10,2673.14 437.35,2676.08 434.07,2684.00
             434.07,2684.00 431.37,2692.00 431.37,2692.00
             431.37,2692.00 428.52,2698.00 428.52,2698.00
             428.52,2698.00 426.34,2707.00 426.34,2707.00
             426.34,2707.00 419.86,2719.96 419.86,2719.96
             418.48,2724.03 420.33,2722.16 416.49,2730.99
             416.49,2730.99 411.58,2740.02 411.58,2740.02
             411.58,2740.02 409.60,2749.21 409.60,2749.21
             407.56,2753.81 405.39,2752.86 406.00,2760.00
             401.81,2762.87 395.71,2778.80 396.00,2784.00
             390.97,2788.06 389.11,2797.84 387.11,2803.58
             387.11,2803.58 383.08,2814.72 383.08,2814.72
             382.07,2816.86 380.25,2818.42 379.05,2822.00
             377.79,2825.73 378.55,2828.20 376.73,2833.00
             376.73,2833.00 372.35,2843.00 372.35,2843.00
             370.83,2848.70 368.92,2861.03 365.00,2865.00
             364.75,2872.97 356.38,2893.60 353.31,2902.00
             353.31,2902.00 351.46,2909.83 351.46,2909.83
             351.46,2909.83 347.86,2918.00 347.86,2918.00
             347.86,2918.00 345.97,2926.58 345.97,2926.58
             345.97,2926.58 342.64,2937.00 342.64,2937.00
             342.64,2937.00 335.75,2953.00 335.75,2953.00
             335.75,2953.00 334.01,2961.00 334.01,2961.00
             334.01,2961.00 330.36,2970.00 330.36,2970.00
             330.36,2970.00 327.90,2980.00 327.90,2980.00
             327.90,2980.00 319.55,3003.96 319.55,3003.96
             319.55,3003.96 316.50,3011.09 316.50,3011.09
             316.50,3011.09 314.56,3019.00 314.56,3019.00
             314.56,3019.00 311.01,3030.00 311.01,3030.00
             311.01,3030.00 309.13,3038.00 309.13,3038.00
             309.13,3038.00 303.98,3048.00 303.98,3048.00
             303.98,3048.00 299.98,3065.00 299.98,3065.00
             299.98,3065.00 295.46,3076.04 295.46,3076.04
             295.46,3076.04 287.46,3103.83 287.46,3103.83
             285.98,3108.11 283.36,3108.93 281.73,3113.00
             281.73,3113.00 276.91,3132.00 276.91,3132.00
             276.91,3132.00 272.09,3148.00 272.09,3148.00
             272.09,3148.00 263.03,3172.00 263.03,3172.00
             263.03,3172.00 260.44,3182.00 260.44,3182.00
             260.44,3182.00 256.60,3194.00 256.60,3194.00
             256.60,3194.00 255.01,3202.00 255.01,3202.00
             255.01,3202.00 249.17,3216.00 249.17,3216.00
             249.17,3216.00 245.68,3227.96 245.68,3227.96
             245.68,3227.96 243.55,3233.20 243.55,3233.20
             243.55,3233.20 240.43,3247.00 240.43,3247.00
             240.43,3247.00 235.54,3260.91 235.54,3260.91
             234.18,3264.28 233.43,3264.00 232.02,3269.01
             232.02,3269.01 227.20,3291.00 227.20,3291.00
             227.20,3291.00 223.88,3302.00 223.88,3302.00
             223.88,3302.00 218.78,3321.00 218.78,3321.00
             218.78,3321.00 212.59,3337.00 212.59,3337.00
             212.59,3337.00 208.61,3350.00 208.61,3350.00
             208.61,3350.00 207.37,3357.00 207.37,3357.00
             207.37,3357.00 202.41,3370.00 202.41,3370.00
             202.41,3370.00 196.47,3392.00 196.47,3392.00
             196.47,3392.00 193.59,3404.00 193.59,3404.00
             193.59,3404.00 189.95,3412.00 189.95,3412.00
             189.95,3412.00 184.72,3428.00 184.72,3428.00
             184.72,3428.00 182.03,3442.00 182.03,3442.00
             182.03,3442.00 175.55,3460.00 175.55,3460.00
             175.55,3460.00 174.32,3467.00 174.32,3467.00
             174.32,3467.00 170.74,3479.00 170.74,3479.00
             170.74,3479.00 166.99,3496.00 166.99,3496.00
             166.99,3496.00 159.59,3520.00 159.59,3520.00
             159.59,3520.00 157.61,3530.00 157.61,3530.00
             157.61,3530.00 154.53,3538.00 154.53,3538.00
             154.53,3538.00 150.81,3552.00 150.81,3552.00
             150.81,3552.00 142.09,3575.00 142.09,3575.00
             142.09,3575.00 136.57,3599.00 136.57,3599.00
             136.57,3599.00 131.48,3616.00 131.48,3616.00
             131.48,3616.00 128.12,3631.00 128.12,3631.00
             128.12,3631.00 123.44,3643.00 123.44,3643.00
             123.44,3643.00 119.06,3664.58 119.06,3664.58
             119.06,3664.58 116.80,3673.00 116.80,3673.00
             116.80,3673.00 111.98,3698.00 111.98,3698.00
             111.98,3698.00 108.51,3709.00 108.51,3709.00
             108.51,3709.00 105.55,3725.00 105.55,3725.00
             105.55,3725.00 102.51,3736.00 102.51,3736.00
             102.51,3736.00 98.49,3762.00 98.49,3762.00
             98.49,3762.00 92.01,3789.00 92.01,3789.00
             92.01,3789.00 89.75,3804.91 89.75,3804.91
             89.75,3804.91 87.40,3813.01 87.40,3813.01
             87.40,3813.01 82.54,3842.00 82.54,3842.00
             82.54,3842.00 80.96,3861.00 80.96,3861.00
             80.96,3861.00 73.28,3905.00 73.28,3905.00
             73.28,3905.00 71.97,3915.00 71.97,3915.00
             71.97,3915.00 71.97,3921.96 71.97,3921.96
             70.88,3927.95 64.59,3928.52 60.99,3933.32
             56.03,3939.94 53.91,3949.91 54.00,3958.00
             54.00,3958.00 55.36,3971.96 55.36,3971.96
             54.58,3975.91 50.72,3978.92 48.93,3983.00
             48.93,3983.00 47.09,3989.00 47.09,3989.00
             47.09,3989.00 43.63,3996.00 43.63,3996.00
             43.63,3996.00 41.79,4003.00 41.79,4003.00
             41.79,4003.00 38.07,4011.00 38.07,4011.00
             38.07,4011.00 35.36,4020.00 35.36,4020.00
             35.36,4020.00 29.57,4037.00 29.57,4037.00
             29.57,4037.00 26.91,4048.00 26.91,4048.00
             22.80,4059.50 16.65,4066.80 16.00,4080.00
             16.00,4080.00 13.00,4080.00 13.00,4080.00
             13.00,4080.00 13.00,4087.00 13.00,4087.00
             13.14,4094.53 17.36,4098.41 22.43,4103.58
             22.43,4103.58 29.42,4110.42 29.42,4110.42
             31.48,4112.00 32.91,4112.12 34.92,4113.29
             34.92,4113.29 41.09,4117.79 41.09,4117.79
             41.09,4117.79 57.00,4125.86 57.00,4125.86
             57.00,4125.86 91.96,4142.09 91.96,4142.09
             91.96,4142.09 98.17,4145.21 98.17,4145.21
             98.17,4145.21 111.00,4149.31 111.00,4149.31
             111.00,4149.31 134.00,4158.90 134.00,4158.90
             134.00,4158.90 141.00,4160.60 141.00,4160.60
             141.00,4160.60 150.00,4164.03 150.00,4164.03
             150.00,4164.03 161.00,4167.05 161.00,4167.05
             161.00,4167.05 171.00,4170.63 171.00,4170.63
             174.43,4172.09 175.84,4173.62 180.00,4174.94
             184.60,4176.41 186.77,4175.64 189.83,4176.48
             189.83,4176.48 204.00,4182.67 204.00,4182.67
             204.00,4182.67 215.00,4186.49 215.00,4186.49
             215.00,4186.49 266.00,4201.74 266.00,4201.74
             275.09,4203.55 283.37,4203.62 283.08,4215.00
             282.85,4223.86 278.44,4237.87 276.51,4247.00
             276.51,4247.00 273.13,4266.00 273.13,4266.00
             273.13,4266.00 271.73,4276.91 271.73,4276.91
             271.73,4276.91 268.35,4285.01 268.35,4285.01
             268.35,4285.01 266.53,4297.00 266.53,4297.00
             266.53,4297.00 263.47,4308.00 263.47,4308.00
             263.47,4308.00 262.71,4318.00 262.71,4318.00
             262.71,4318.00 259.57,4337.00 259.57,4337.00
             259.57,4337.00 257.46,4348.00 257.46,4348.00
             257.46,4348.00 255.26,4355.00 255.26,4355.00
             255.26,4355.00 254.70,4363.96 254.70,4363.96
             254.70,4363.96 252.18,4370.17 252.18,4370.17
             252.18,4370.17 250.45,4379.96 250.45,4379.96
             250.45,4379.96 248.03,4386.17 248.03,4386.17
             248.03,4386.17 248.03,4397.00 248.03,4397.00
             248.03,4397.00 246.36,4405.00 246.36,4405.00
             246.36,4405.00 246.36,4412.00 246.36,4412.00
             246.36,4412.00 242.26,4435.00 242.26,4435.00
             242.26,4435.00 241.00,4446.00 241.00,4446.00
             241.00,4446.00 3598.00,4446.00 3598.00,4446.00
             3598.00,4446.00 3598.00,3577.00 3598.00,3577.00
             3598.00,3577.00 3598.00,3287.00 3598.00,3287.00
             3598.00,3287.00 3598.00,3142.00 3598.00,3142.00
             3597.81,3128.00 3592.35,3124.29 3589.13,3115.96
             3589.13,3115.96 3586.37,3103.00 3586.37,3103.00
             3586.37,3103.00 3582.05,3092.00 3582.05,3092.00
             3582.05,3092.00 3575.39,3073.00 3575.39,3073.00
             3575.39,3073.00 3558.72,3025.00 3558.72,3025.00
             3558.72,3025.00 3551.60,3005.00 3551.60,3005.00
             3551.60,3005.00 3548.64,2998.00 3548.64,2998.00
             3548.64,2998.00 3547.31,2992.42 3547.31,2992.42
             3547.31,2992.42 3537.10,2966.00 3537.10,2966.00
             3537.10,2966.00 3534.76,2958.00 3534.76,2958.00
             3534.76,2958.00 3526.51,2940.91 3526.51,2940.91
             3526.51,2940.91 3520.54,2925.83 3520.54,2925.83
             3520.54,2925.83 3519.28,2920.00 3519.28,2920.00
             3519.28,2920.00 3513.86,2909.00 3513.86,2909.00
             3513.86,2909.00 3510.75,2900.00 3510.75,2900.00
             3510.75,2900.00 3500.63,2873.99 3500.63,2873.99
             3499.27,2870.01 3493.73,2857.11 3490.00,2856.00
             3489.08,2845.02 3485.83,2836.03 3481.12,2826.17
             3481.12,2826.17 3477.64,2819.96 3477.64,2819.96
             3477.64,2819.96 3475.00,2810.00 3475.00,2810.00
             3475.00,2810.00 3474.00,2813.00 3474.00,2813.00
             3474.00,2813.00 3473.00,2807.00 3473.00,2807.00
             3471.07,2804.44 3466.55,2793.51 3465.08,2790.01
             3461.90,2782.49 3460.22,2784.74 3460.00,2775.00
             3460.00,2775.00 3458.20,2774.17 3458.20,2774.17
             3458.20,2774.17 3451.78,2760.00 3451.78,2760.00
             3451.78,2760.00 3443.76,2740.00 3443.76,2740.00
             3443.76,2740.00 3438.51,2730.00 3438.51,2730.00
             3438.51,2730.00 3432.25,2715.00 3432.25,2715.00
             3432.25,2715.00 3421.32,2693.00 3421.32,2693.00
             3421.32,2693.00 3418.37,2685.09 3418.37,2685.09
             3418.37,2685.09 3413.80,2678.68 3413.80,2678.68
             3413.80,2678.68 3411.45,2672.00 3411.45,2672.00
             3411.45,2672.00 3405.98,2662.83 3405.98,2662.83
             3405.98,2662.83 3401.89,2654.72 3401.89,2654.72
             3401.89,2654.72 3399.99,2649.17 3399.99,2649.17
             3399.99,2649.17 3395.97,2643.95 3395.97,2643.95
             3395.97,2643.95 3389.12,2630.83 3389.12,2630.83
             3389.12,2630.83 3387.47,2625.17 3387.47,2625.17
             3387.47,2625.17 3383.35,2617.00 3383.35,2617.00
             3383.35,2617.00 3376.97,2606.00 3376.97,2606.00
             3376.97,2606.00 3375.27,2599.21 3375.27,2599.21
             3375.27,2599.21 3371.21,2593.79 3371.21,2593.79
             3371.21,2593.79 3367.49,2586.00 3367.49,2586.00
             3367.49,2586.00 3362.19,2577.00 3362.19,2577.00
             3362.19,2577.00 3358.88,2566.00 3358.88,2566.00
             3358.88,2566.00 3352.58,2555.00 3352.58,2555.00
             3352.58,2555.00 3347.00,2543.00 3347.00,2543.00
             3347.00,2543.00 3345.00,2544.00 3345.00,2544.00
             3345.00,2544.00 3344.00,2543.00 3344.00,2543.00
             3345.09,2535.75 3340.24,2529.13 3336.92,2523.00
             3336.92,2523.00 3328.64,2508.91 3328.64,2508.91
             3328.64,2508.91 3321.77,2494.00 3321.77,2494.00
             3321.77,2494.00 3319.71,2488.00 3319.71,2488.00
             3319.71,2488.00 3313.32,2477.72 3313.32,2477.72
             3313.32,2477.72 3306.63,2465.00 3306.63,2465.00
             3306.63,2465.00 3303.53,2457.44 3303.53,2457.44
             3303.53,2457.44 3297.22,2448.96 3297.22,2448.96
             3297.22,2448.96 3291.91,2438.00 3291.91,2438.00
             3291.91,2438.00 3280.46,2420.91 3280.46,2420.91
             3280.46,2420.91 3275.11,2410.00 3275.11,2410.00
             3275.11,2410.00 3259.93,2388.96 3259.93,2388.96
             3259.93,2388.96 3253.97,2379.17 3253.97,2379.17
             3253.97,2379.17 3248.88,2373.00 3248.88,2373.00
             3248.88,2373.00 3242.63,2363.00 3242.63,2363.00
             3242.63,2363.00 3236.92,2355.24 3236.92,2355.24
             3236.92,2355.24 3232.76,2350.74 3232.76,2350.74
             3232.76,2350.74 3228.76,2344.09 3228.76,2344.09
             3228.76,2344.09 3216.85,2327.00 3216.85,2327.00
             3216.85,2327.00 3210.45,2319.00 3210.45,2319.00
             3210.45,2319.00 3188.82,2290.23 3188.82,2290.23
             3188.82,2290.23 3183.74,2284.87 3183.74,2284.87
             3179.76,2279.97 3175.59,2270.10 3169.00,2269.00
             3167.18,2263.97 3165.46,2263.90 3161.96,2260.23
             3161.96,2260.23 3155.78,2252.30 3155.78,2252.30
             3155.78,2252.30 3147.21,2245.63 3147.21,2245.63
             3143.19,2241.92 3143.31,2238.77 3137.00,2239.00
             3135.74,2233.36 3133.27,2232.62 3129.00,2228.96
             3129.00,2228.96 3114.00,2216.71 3114.00,2216.71
             3114.00,2216.71 3105.09,2212.30 3105.09,2212.30
             3105.09,2212.30 3100.72,2208.90 3100.72,2208.90
             3100.72,2208.90 3095.17,2206.04 3095.17,2206.04
             3095.17,2206.04 3087.99,2200.48 3087.99,2200.48
             3087.99,2200.48 3075.00,2192.91 3075.00,2192.91
             3075.00,2192.91 3064.00,2187.41 3064.00,2187.41
             3064.00,2187.41 3057.00,2184.97 3057.00,2184.97
             3057.00,2184.97 3041.00,2176.95 3041.00,2176.95
             3041.00,2176.95 3035.00,2174.93 3035.00,2174.93
             3035.00,2174.93 3029.00,2171.95 3029.00,2171.95
             3029.00,2171.95 3019.00,2168.53 3019.00,2168.53
             3014.35,2166.50 3013.83,2164.89 3010.83,2163.28
             3010.83,2163.28 3003.00,2160.39 3003.00,2160.39
             3003.00,2160.39 2990.72,2155.39 2990.72,2155.39
             2990.72,2155.39 2976.28,2151.13 2976.28,2151.13
             2970.19,2148.49 2965.60,2144.69 2959.00,2148.00
             2958.28,2146.47 2958.00,2145.35 2956.49,2144.31
             2956.49,2144.31 2941.91,2138.62 2941.91,2138.62
             2938.99,2138.03 2938.35,2138.92 2934.00,2137.56
             2934.00,2137.56 2925.00,2134.10 2925.00,2134.10
             2925.00,2134.10 2915.09,2132.02 2915.09,2132.02
             2915.09,2132.02 2908.91,2129.69 2908.91,2129.69
             2908.91,2129.69 2900.00,2128.30 2900.00,2128.30
             2900.00,2128.30 2888.00,2124.50 2888.00,2124.50
             2888.00,2124.50 2878.58,2123.00 2878.58,2123.00
             2878.58,2123.00 2871.00,2120.35 2871.00,2120.35
             2862.93,2118.24 2861.38,2118.71 2854.00,2117.82
             2854.00,2117.82 2837.00,2113.51 2837.00,2113.51
             2837.00,2113.51 2821.04,2111.14 2821.04,2111.14
             2815.55,2109.65 2816.06,2107.34 2809.17,2107.17
             2804.00,2107.04 2791.86,2105.21 2787.09,2103.79
             2787.09,2103.79 2779.96,2100.97 2779.96,2100.97
             2779.96,2100.97 2770.00,2099.52 2770.00,2099.52
             2770.00,2099.52 2739.00,2089.69 2739.00,2089.69
             2728.89,2085.11 2729.91,2081.54 2722.57,2075.57
             2719.18,2072.81 2708.23,2067.11 2704.00,2065.46
             2704.00,2065.46 2684.91,2059.91 2684.91,2059.91
             2684.91,2059.91 2674.00,2059.91 2674.00,2059.91
             2665.41,2058.48 2657.30,2056.31 2649.00,2053.90
             2642.02,2051.87 2639.14,2055.10 2633.00,2054.45
             2623.22,2053.42 2614.71,2049.18 2605.83,2045.44
             2605.83,2045.44 2594.00,2041.11 2594.00,2041.11
             2594.00,2041.11 2588.01,2037.40 2588.01,2037.40
             2583.03,2034.56 2577.69,2033.26 2575.00,2028.00
             2568.73,2028.16 2565.59,2024.32 2560.25,2021.47
             2555.05,2018.69 2544.84,2015.60 2539.00,2015.00
             2539.00,2015.00 2540.00,2013.00 2540.00,2013.00
             2540.00,2013.00 2528.00,2010.00 2528.00,2010.00
             2528.00,2010.00 2489.00,2008.01 2489.00,2008.01
             2479.24,2008.22 2469.64,2008.48 2460.00,2006.66
             2451.04,2004.97 2450.29,2000.34 2441.00,1999.00
             2441.00,1999.00 2442.00,1996.00 2442.00,1996.00
             2442.00,1996.00 2419.09,1984.69 2419.09,1984.69
             2419.09,1984.69 2412.87,1979.21 2412.87,1979.21
             2412.87,1979.21 2400.42,1970.93 2400.42,1970.93
             2391.97,1963.91 2385.17,1953.56 2374.00,1951.00
             2374.00,1951.00 2375.00,1948.00 2375.00,1948.00
             2375.00,1948.00 2369.00,1946.46 2369.00,1946.46
             2369.00,1946.46 2351.61,1936.02 2351.61,1936.02
             2351.61,1936.02 2342.71,1927.59 2342.71,1927.59
             2342.71,1927.59 2335.27,1921.74 2335.27,1921.74
             2335.27,1921.74 2331.32,1916.46 2331.32,1916.46
             2329.48,1914.43 2325.86,1912.71 2321.24,1907.56
             2321.24,1907.56 2313.67,1897.33 2313.67,1897.33
             2310.28,1893.96 2307.79,1893.89 2304.28,1891.55
             2294.81,1885.23 2295.90,1883.93 2290.96,1880.31
             2281.33,1873.25 2263.00,1868.90 2262.00,1855.00
             2262.00,1855.00 2257.00,1855.00 2257.00,1855.00
             2257.00,1855.00 2249.80,1827.09 2249.80,1827.09
             2249.80,1827.09 2246.00,1813.00 2246.00,1813.00
             2246.00,1813.00 2241.00,1810.00 2241.00,1810.00
             2241.00,1810.00 2244.00,1809.00 2244.00,1809.00
             2244.00,1809.00 2239.96,1808.00 2239.96,1808.00
             2239.96,1808.00 2239.96,1796.00 2239.96,1796.00
             2239.96,1796.00 2239.00,1784.00 2239.00,1784.00
             2239.00,1784.00 2239.00,1768.00 2239.00,1768.00
             2239.00,1768.00 2236.08,1738.00 2236.08,1738.00
             2236.08,1738.00 2236.08,1714.00 2236.08,1714.00
             2236.08,1714.00 2234.58,1706.00 2234.58,1706.00
             2234.58,1706.00 2236.00,1680.00 2236.00,1680.00
             2236.00,1680.00 2236.00,1640.00 2236.00,1640.00
             2236.00,1640.00 2238.13,1620.00 2238.13,1620.00
             2238.13,1620.00 2236.02,1607.00 2236.02,1607.00
             2236.02,1607.00 2238.23,1595.00 2238.23,1595.00
             2238.23,1595.00 2238.23,1584.00 2238.23,1584.00
             2243.35,1582.11 2240.51,1580.48 2242.43,1573.00
             2242.43,1573.00 2244.34,1562.00 2244.34,1562.00
             2244.34,1562.00 2246.98,1556.01 2246.98,1556.01
             2248.44,1552.01 2247.34,1549.70 2251.21,1544.51
             2251.21,1544.51 2254.55,1540.68 2254.55,1540.68
             2260.34,1532.86 2262.77,1523.32 2267.40,1515.00
             2267.40,1515.00 2272.64,1507.04 2272.64,1507.04
             2273.99,1504.38 2273.45,1503.35 2275.65,1499.96
             2278.13,1496.13 2280.00,1495.78 2281.28,1492.87
             2281.28,1492.87 2283.21,1484.00 2283.21,1484.00
             2283.21,1484.00 2286.52,1476.00 2286.52,1476.00
             2286.52,1476.00 2288.62,1467.00 2288.62,1467.00
             2288.62,1467.00 2293.40,1455.00 2293.40,1455.00
             2293.40,1455.00 2297.68,1436.00 2297.68,1436.00
             2297.68,1436.00 2298.48,1429.00 2298.48,1429.00
             2298.48,1429.00 2302.92,1413.00 2302.92,1413.00
             2302.92,1413.00 2305.05,1401.00 2305.05,1401.00
             2305.05,1401.00 2305.05,1395.09 2305.05,1395.09
             2305.05,1395.09 2306.93,1389.83 2306.93,1389.83
             2306.93,1389.83 2306.93,1381.00 2306.93,1381.00
             2306.93,1381.00 2308.71,1371.00 2308.71,1371.00
             2308.71,1371.00 2309.30,1362.00 2309.30,1362.00
             2310.34,1354.96 2313.82,1350.63 2312.00,1343.00
             2317.88,1341.37 2326.00,1340.41 2330.99,1337.37
             2336.16,1334.21 2338.45,1328.50 2342.61,1324.21
             2346.44,1320.25 2349.20,1319.81 2351.03,1317.51
             2351.03,1317.51 2354.05,1312.42 2354.05,1312.42
             2354.05,1312.42 2369.45,1291.15 2369.45,1291.15
             2372.63,1286.81 2373.74,1286.60 2376.45,1281.00
             2376.45,1281.00 2379.11,1275.04 2379.11,1275.04
             2379.11,1275.04 2383.14,1268.83 2383.14,1268.83
             2383.14,1268.83 2385.31,1261.04 2385.31,1261.04
             2385.31,1261.04 2390.57,1253.91 2390.57,1253.91
             2390.57,1253.91 2395.49,1241.00 2395.49,1241.00
             2395.49,1241.00 2399.68,1224.00 2399.68,1224.00
             2399.68,1224.00 2400.63,1214.00 2400.63,1214.00
             2401.87,1208.27 2403.38,1209.42 2405.11,1202.00
             2405.11,1202.00 2407.79,1189.00 2407.79,1189.00
             2407.79,1189.00 2408.63,1182.00 2408.63,1182.00
             2408.63,1182.00 2415.24,1161.00 2415.24,1161.00
             2415.24,1161.00 2417.19,1151.17 2417.19,1151.17
             2419.75,1142.71 2421.94,1144.44 2422.00,1134.00
             2422.07,1120.78 2423.16,1125.80 2424.75,1117.00
             2424.75,1117.00 2425.77,1109.01 2425.77,1109.01
             2426.75,1104.18 2428.01,1103.99 2428.71,1100.91
             2430.03,1095.08 2431.92,1076.18 2432.10,1070.00
             2432.10,1070.00 2432.10,1060.00 2432.10,1060.00
             2433.10,1053.55 2433.98,1056.66 2434.00,1047.00
             2434.00,1047.00 2434.00,1030.00 2434.00,1030.00
             2433.92,1023.86 2432.99,1022.40 2432.14,1017.00
             2432.14,1017.00 2432.14,1007.00 2432.14,1007.00
             2431.89,1000.51 2430.02,998.21 2428.66,992.00
             2426.51,982.16 2422.60,968.07 2413.00,963.00
             2413.00,963.00 2415.00,962.00 2415.00,962.00
             2415.00,962.00 2412.00,962.00 2412.00,962.00
             2409.63,958.64 2408.98,958.67 2405.00,958.00
             2405.00,958.00 2406.00,956.00 2406.00,956.00
             2399.95,955.12 2396.35,956.09 2393.00,950.00
             2393.00,950.00 2392.00,954.00 2392.00,954.00
             2388.64,946.90 2387.89,941.63 2387.55,934.00
             2387.55,934.00 2386.71,926.00 2386.71,926.00
             2386.71,926.00 2389.83,894.00 2389.83,894.00
             2389.83,894.00 2390.82,878.00 2390.82,878.00
             2391.33,870.75 2388.59,863.52 2387.92,856.42
             2387.92,856.42 2387.92,844.00 2387.92,844.00
             2387.92,844.00 2386.83,831.00 2386.83,831.00
             2386.83,831.00 2384.72,821.00 2384.72,821.00
             2384.72,821.00 2384.00,805.00 2384.00,805.00
             2384.00,805.00 2381.00,806.00 2381.00,806.00
             2381.00,806.00 2381.00,805.00 2381.00,805.00
             2381.00,805.00 2383.00,804.00 2383.00,804.00
             2383.00,804.00 2383.00,802.00 2383.00,802.00
             2383.00,802.00 2375.36,786.28 2375.36,786.28
             2375.36,786.28 2376.25,771.07 2376.25,771.07
             2376.25,771.07 2378.00,761.00 2378.00,761.00
             2378.00,761.00 2377.00,764.00 2377.00,764.00
             2377.00,764.00 2375.00,754.00 2375.00,754.00
             2375.00,754.00 2376.00,756.00 2376.00,756.00
             2377.05,752.05 2372.70,743.91 2371.36,739.00
             2369.44,731.96 2368.10,730.79 2368.00,723.00
             2367.93,716.65 2367.78,706.04 2366.41,700.00
             2365.34,695.31 2365.30,689.70 2361.00,687.00
             2362.15,681.09 2359.43,675.04 2358.41,669.00
             2358.41,669.00 2354.95,652.04 2354.95,652.04
             2354.95,652.04 2352.58,645.83 2352.58,645.83
             2352.58,645.83 2351.59,627.00 2351.59,627.00
             2351.41,621.98 2353.54,610.30 2348.00,608.00
             2351.42,597.70 2343.14,591.02 2343.00,576.00
             2338.92,574.66 2340.78,571.47 2340.31,568.00
             2339.93,565.20 2335.85,554.52 2334.35,552.00
             2328.19,541.62 2331.65,547.05 2328.44,538.00
             2328.44,538.00 2325.05,531.00 2325.05,531.00
             2325.05,531.00 2321.54,520.00 2321.54,520.00
             2315.44,503.84 2309.72,493.26 2300.56,478.72
             2300.56,478.72 2296.67,472.02 2296.67,472.02
             2294.11,468.43 2292.09,467.34 2290.61,465.55
             2290.61,465.55 2285.87,457.01 2285.87,457.01
             2285.87,457.01 2278.39,447.96 2278.39,447.96
             2278.39,447.96 2273.60,439.00 2273.60,439.00
             2264.74,424.95 2250.97,406.77 2238.57,395.86
             2231.55,389.67 2211.21,374.12 2203.58,369.40
             2203.58,369.40 2196.04,366.01 2196.04,366.01
             2196.04,366.01 2182.80,355.82 2182.80,355.82
             2182.80,355.82 2174.25,350.35 2174.25,350.35
             2174.25,350.35 2160.29,332.08 2160.29,332.08
             2152.00,321.87 2154.08,326.09 2146.09,320.25
             2142.70,317.77 2141.65,315.49 2137.00,312.61
             2126.52,306.13 2123.81,307.56 2114.00,303.90
             2114.00,303.90 2106.00,300.44 2106.00,300.44
             2101.74,299.12 2098.38,298.97 2094.00,296.94
             2085.37,292.94 2082.99,279.38 2076.00,277.00
             2074.41,267.57 2063.64,264.91 2057.17,259.45
             2053.95,256.73 2052.59,253.53 2048.91,251.27
             2048.91,251.27 2042.09,248.32 2042.09,248.32
             2042.09,248.32 2034.96,244.46 2034.96,244.46
             2034.96,244.46 2021.01,238.57 2021.01,238.57
             2021.01,238.57 2013.84,233.29 2013.84,233.29
             2004.91,228.19 1995.16,226.09 1985.00,225.98
             1985.00,225.98 1967.00,225.98 1967.00,225.98
             1963.29,226.02 1958.23,226.97 1955.00,225.98
             1955.00,225.98 1936.42,215.01 1936.42,215.01
             1936.42,215.01 1922.00,209.00 1922.00,209.00
             1922.00,209.00 1904.00,200.67 1904.00,200.67
             1904.00,200.67 1885.00,192.27 1885.00,192.27
             1872.79,189.69 1859.44,189.86 1847.00,190.00
             1840.86,190.08 1839.41,191.01 1834.00,191.71
             1829.39,192.31 1826.97,191.58 1822.00,192.93
             1816.88,194.32 1815.03,196.27 1812.72,197.19
             1812.72,197.19 1805.00,198.81 1805.00,198.81
             1795.92,201.98 1796.98,203.86 1785.00,204.06
             1785.00,204.06 1772.00,204.06 1772.00,204.06
             1765.18,204.88 1760.25,206.74 1753.00,206.32
             1749.51,206.12 1742.41,207.47 1739.00,208.52
             1734.22,209.98 1732.56,212.36 1728.00,213.80
             1728.00,213.80 1709.17,218.99 1709.17,218.99
             1709.17,218.99 1703.54,222.16 1703.54,222.16
             1701.26,223.06 1698.93,222.80 1695.04,224.91
             1695.04,224.91 1688.83,229.31 1688.83,229.31
             1688.83,229.31 1682.26,233.63 1682.26,233.63
             1678.81,236.61 1678.42,240.08 1669.17,246.17
             1661.87,250.97 1660.74,246.95 1653.09,250.27
             1653.09,250.27 1632.03,263.78 1632.03,263.78
             1632.03,263.78 1624.91,266.14 1624.91,266.14
             1624.91,266.14 1617.00,270.88 1617.00,270.88
             1612.93,272.84 1599.61,277.44 1595.00,278.62
             1586.63,280.76 1586.30,279.50 1582.00,280.26
             1582.00,280.26 1575.00,282.45 1575.00,282.45
             1572.14,283.20 1571.08,282.84 1568.28,284.47
             1568.28,284.47 1548.39,297.80 1548.39,297.80
             1548.39,297.80 1543.61,303.19 1543.61,303.19
             1543.61,303.19 1539.13,305.99 1539.13,305.99
             1539.13,305.99 1531.60,314.41 1531.60,314.41
             1531.60,314.41 1528.05,321.00 1528.05,321.00
             1528.05,321.00 1522.00,328.04 1522.00,328.04
             1519.88,331.37 1520.18,334.67 1516.00,336.00 Z
           M 1825.00,193.00
           C 1825.00,193.00 1825.00,194.00 1825.00,194.00
             1825.00,194.00 1824.00,193.00 1824.00,193.00
             1824.00,193.00 1825.00,193.00 1825.00,193.00 Z
           M 1828.00,193.00
           C 1828.00,193.00 1828.00,194.00 1828.00,194.00
             1828.00,194.00 1827.00,193.00 1827.00,193.00
             1827.00,193.00 1828.00,193.00 1828.00,193.00 Z
           M 1805.00,200.00
           C 1805.00,200.00 1805.00,201.00 1805.00,201.00
             1805.00,201.00 1804.00,200.00 1804.00,200.00
             1804.00,200.00 1805.00,200.00 1805.00,200.00 Z
           M 2340.00,568.00
           C 2340.00,568.00 2340.00,569.00 2340.00,569.00
             2340.00,569.00 2339.00,568.00 2339.00,568.00
             2339.00,568.00 2340.00,568.00 2340.00,568.00 Z
           M 2364.00,698.00
           C 2364.00,698.00 2364.00,699.00 2364.00,699.00
             2364.00,699.00 2363.00,698.00 2363.00,698.00
             2363.00,698.00 2364.00,698.00 2364.00,698.00 Z
           M 2365.00,699.00
           C 2365.00,699.00 2365.00,700.00 2365.00,700.00
             2365.00,700.00 2364.00,699.00 2364.00,699.00
             2364.00,699.00 2365.00,699.00 2365.00,699.00 Z
           M 2378.00,791.00
           C 2378.00,791.00 2378.00,792.00 2378.00,792.00
             2378.00,792.00 2379.00,791.00 2379.00,791.00
             2379.00,791.00 2378.00,791.00 2378.00,791.00 Z
           M 2383.00,808.00
           C 2383.00,808.00 2383.00,809.00 2383.00,809.00
             2383.00,809.00 2382.00,808.00 2382.00,808.00
             2382.00,808.00 2383.00,808.00 2383.00,808.00 Z
           M 2386.00,829.00
           C 2386.00,829.00 2386.00,836.00 2386.00,836.00
             2386.00,836.00 2386.00,829.00 2386.00,829.00 Z
           M 2387.00,840.00
           C 2387.00,840.00 2387.00,847.00 2387.00,847.00
             2387.00,847.00 2387.00,840.00 2387.00,840.00 Z
           M 2424.00,979.00
           C 2424.00,979.00 2424.00,980.00 2424.00,980.00
             2424.00,980.00 2423.00,979.00 2423.00,979.00
             2423.00,979.00 2424.00,979.00 2424.00,979.00 Z
           M 1251.00,1075.00
           C 1251.00,1075.00 1251.00,1076.00 1251.00,1076.00
             1251.00,1076.00 1250.00,1075.00 1250.00,1075.00
             1250.00,1075.00 1251.00,1075.00 1251.00,1075.00 Z
           M 1250.00,1076.00
           C 1250.00,1076.00 1250.00,1077.00 1250.00,1077.00
             1250.00,1077.00 1249.00,1076.00 1249.00,1076.00
             1249.00,1076.00 1250.00,1076.00 1250.00,1076.00 Z
           M 1249.00,1077.00
           C 1249.00,1077.00 1249.00,1078.00 1249.00,1078.00
             1249.00,1078.00 1248.00,1077.00 1248.00,1077.00
             1248.00,1077.00 1249.00,1077.00 1249.00,1077.00 Z
           M 2466.00,2008.00
           C 2466.00,2008.00 2466.00,2009.00 2466.00,2009.00
             2466.00,2009.00 2465.00,2008.00 2465.00,2008.00
             2465.00,2008.00 2466.00,2008.00 2466.00,2008.00 Z
           M 921.00,2178.00
           C 921.00,2178.00 921.00,2179.00 921.00,2179.00
             921.00,2179.00 920.00,2178.00 920.00,2178.00
             920.00,2178.00 921.00,2178.00 921.00,2178.00 Z
           M 3266.00,2398.00
           C 3266.00,2398.00 3266.00,2399.00 3266.00,2399.00
             3266.00,2399.00 3265.00,2398.00 3265.00,2398.00
             3265.00,2398.00 3266.00,2398.00 3266.00,2398.00 Z
           M 3387.00,2624.00
           C 3387.00,2624.00 3387.00,2625.00 3387.00,2625.00
             3387.00,2625.00 3386.00,2624.00 3386.00,2624.00
             3386.00,2624.00 3387.00,2624.00 3387.00,2624.00 Z" />
</svg>
