<?xml version="1.0" encoding="UTF-8" standalone="no"?>
<!DOCTYPE svg PUBLIC "-//W3C//DTD SVG 20010904//EN"
              "http://www.w3.org/TR/2001/REC-SVG-20010904/DTD/svg10.dtd">

<svg xmlns="http://www.w3.org/2000/svg"
     width="11.92in" height="14.9133in"
     viewBox="0 0 3576 4474">
  <path id="face"
        fill="none" stroke="black" stroke-width="1"
        d="M 1545.00,351.00
           C 1545.00,351.00 1535.00,353.00 1535.00,353.00
             1535.00,353.00 1514.48,362.55 1514.48,362.55
             1514.48,362.55 1506.70,368.47 1506.70,368.47
             1506.70,368.47 1497.00,372.53 1497.00,372.53
             1497.00,372.53 1484.75,378.97 1484.75,378.97
             1484.75,378.97 1474.00,386.25 1474.00,386.25
             1474.00,386.25 1468.28,388.89 1468.28,388.89
             1468.28,388.89 1454.72,398.42 1454.72,398.42
             1454.72,398.42 1449.00,403.00 1449.00,403.00
             1449.00,403.00 1435.26,407.88 1435.26,407.88
             1435.26,407.88 1431.00,412.00 1431.00,412.00
             1431.00,412.00 1432.00,415.00 1432.00,415.00
             1425.12,417.05 1421.75,420.58 1416.00,424.00
             1410.99,426.99 1408.13,427.34 1402.00,431.78
             1402.00,431.78 1392.00,439.74 1392.00,439.74
             1392.00,439.74 1385.37,443.10 1385.37,443.10
             1385.37,443.10 1381.08,446.60 1381.08,446.60
             1381.08,446.60 1375.97,448.59 1375.97,448.59
             1375.97,448.59 1364.00,458.87 1364.00,458.87
             1364.00,458.87 1341.30,475.48 1341.30,475.48
             1341.30,475.48 1334.08,483.57 1334.08,483.57
             1334.08,483.57 1324.04,492.35 1324.04,492.35
             1324.04,492.35 1313.43,510.00 1313.43,510.00
             1309.34,517.07 1307.85,516.13 1305.13,521.04
             1302.66,525.50 1302.37,529.46 1300.74,533.00
             1300.74,533.00 1296.29,541.00 1296.29,541.00
             1296.29,541.00 1289.40,559.00 1289.40,559.00
             1289.40,559.00 1283.71,572.00 1283.71,572.00
             1283.71,572.00 1280.90,582.00 1280.90,582.00
             1280.90,582.00 1276.57,590.00 1276.57,590.00
             1275.73,592.30 1274.28,603.33 1274.24,606.00
             1274.10,614.94 1271.71,612.12 1269.72,619.00
             1269.72,619.00 1268.25,627.00 1268.25,627.00
             1268.25,627.00 1264.62,638.00 1264.62,638.00
             1264.62,638.00 1262.78,645.00 1262.78,645.00
             1259.43,653.01 1256.40,651.75 1252.74,665.00
             1252.74,665.00 1247.91,684.91 1247.91,684.91
             1247.91,684.91 1240.59,702.00 1240.59,702.00
             1240.59,702.00 1236.64,721.00 1236.64,721.00
             1236.64,721.00 1233.69,729.91 1233.69,729.91
             1233.69,729.91 1230.39,745.00 1230.39,745.00
             1230.39,745.00 1228.24,752.00 1228.24,752.00
             1228.24,752.00 1223.52,778.00 1223.52,778.00
             1222.75,781.72 1221.65,782.96 1220.67,786.00
             1220.67,786.00 1216.45,802.58 1216.45,802.58
             1217.54,797.46 1213.28,828.34 1213.68,823.00
             1213.68,823.00 1213.68,829.00 1213.68,829.00
             1213.68,829.00 1212.33,835.00 1212.33,835.00
             1212.33,835.00 1208.75,853.91 1208.75,853.91
             1208.75,853.91 1207.54,866.00 1207.54,866.00
             1207.54,866.00 1204.01,881.00 1204.01,881.00
             1204.01,881.00 1202.52,891.00 1202.52,891.00
             1202.52,891.00 1200.26,899.00 1200.26,899.00
             1200.26,899.00 1199.70,907.00 1199.70,907.00
             1197.96,919.20 1196.04,931.62 1196.00,944.00
             1191.72,945.53 1191.19,948.74 1190.47,953.00
             1189.07,961.26 1193.88,965.16 1191.00,977.00
             1191.00,977.00 1192.21,977.83 1192.21,977.83
             1192.21,977.83 1191.46,990.78 1191.46,990.78
             1191.46,990.78 1190.00,993.00 1190.00,993.00
             1191.46,1001.84 1188.88,1002.35 1188.39,1009.00
             1187.77,1017.26 1193.04,1034.58 1178.00,1032.00
             1178.00,1032.00 1178.00,1036.00 1178.00,1036.00
             1183.74,1037.78 1183.61,1040.53 1184.00,1046.00
             1184.00,1046.00 1179.00,1041.00 1179.00,1041.00
             1179.00,1041.00 1176.00,1043.00 1176.00,1043.00
             1169.91,1042.19 1171.33,1046.65 1172.44,1051.00
             1174.51,1059.12 1178.63,1058.96 1179.21,1065.01
             1179.21,1065.01 1179.21,1070.83 1179.21,1070.83
             1179.21,1070.83 1180.00,1080.00 1180.00,1080.00
             1176.16,1081.50 1176.37,1083.16 1176.00,1087.00
             1176.00,1087.00 1164.00,1079.00 1164.00,1079.00
             1164.00,1079.00 1169.00,1091.00 1169.00,1091.00
             1161.38,1093.49 1162.32,1094.73 1160.00,1102.00
             1160.00,1102.00 1147.00,1096.00 1147.00,1096.00
             1147.00,1096.00 1154.00,1103.00 1154.00,1103.00
             1143.82,1110.26 1142.65,1097.84 1128.00,1102.00
             1132.61,1117.57 1153.40,1112.35 1162.09,1123.04
             1164.47,1125.98 1167.89,1133.21 1167.24,1137.00
             1165.88,1144.84 1159.96,1142.99 1163.00,1154.00
             1163.00,1154.00 1152.00,1160.00 1152.00,1160.00
             1152.23,1168.84 1154.02,1166.47 1155.98,1173.01
             1157.42,1178.11 1155.68,1179.96 1155.98,1184.00
             1155.70,1186.71 1156.74,1188.56 1155.98,1191.00
             1155.08,1197.94 1149.81,1198.97 1144.00,1198.00
             1144.00,1198.00 1123.96,1207.57 1123.96,1207.57
             1123.96,1207.57 1106.00,1208.61 1106.00,1208.61
             1101.73,1208.29 1094.20,1204.92 1091.00,1205.66
             1088.50,1206.24 1086.09,1208.46 1084.00,1209.90
             1078.04,1214.00 1073.78,1213.37 1077.00,1222.00
             1077.00,1222.00 1072.00,1223.00 1072.00,1223.00
             1072.00,1223.00 1072.00,1225.00 1072.00,1225.00
             1076.06,1227.38 1076.93,1227.76 1079.00,1232.00
             1079.00,1232.00 1081.00,1230.00 1081.00,1230.00
             1081.00,1230.00 1080.00,1238.00 1080.00,1238.00
             1080.00,1238.00 1090.17,1241.99 1090.17,1241.99
             1090.17,1241.99 1109.00,1241.99 1109.00,1241.99
             1109.00,1241.99 1116.91,1241.99 1116.91,1241.99
             1116.91,1241.99 1123.00,1244.29 1123.00,1244.29
             1123.00,1244.29 1130.00,1242.00 1130.00,1242.00
             1130.00,1242.00 1119.00,1251.00 1119.00,1251.00
             1119.00,1251.00 1115.00,1248.00 1115.00,1248.00
             1115.00,1248.00 1116.00,1252.00 1116.00,1252.00
             1114.32,1252.46 1108.36,1253.64 1110.00,1256.00
             1106.74,1256.70 1106.75,1256.92 1104.00,1255.00
             1104.00,1255.00 1087.00,1255.00 1087.00,1255.00
             1087.00,1255.00 1087.00,1256.00 1087.00,1256.00
             1087.00,1256.00 1089.00,1258.00 1089.00,1258.00
             1089.00,1258.00 1078.09,1260.58 1078.09,1260.58
             1072.95,1262.45 1074.28,1264.88 1064.68,1264.43
             1059.74,1264.20 1058.22,1261.52 1054.00,1261.51
             1049.80,1261.51 1049.05,1263.89 1040.00,1264.00
             1040.00,1264.00 1040.00,1270.00 1040.00,1270.00
             1036.70,1270.71 1027.61,1273.00 1028.73,1277.78
             1029.04,1279.13 1031.04,1280.95 1032.00,1282.00
             1036.20,1282.39 1044.92,1287.06 1048.00,1290.00
             1048.00,1290.00 1084.00,1291.00 1084.00,1291.00
             1082.12,1293.24 1078.79,1295.59 1079.84,1298.89
             1080.95,1302.32 1098.79,1309.84 1088.00,1316.00
             1088.02,1323.12 1088.39,1325.83 1096.00,1328.00
             1096.10,1337.03 1097.45,1333.59 1099.45,1340.01
             1100.14,1342.23 1100.07,1344.51 1101.74,1346.35
             1104.30,1349.19 1106.67,1347.67 1111.00,1352.00
             1111.00,1352.00 1113.00,1351.00 1113.00,1351.00
             1113.00,1351.00 1114.31,1360.91 1114.31,1360.91
             1114.31,1360.91 1120.49,1372.08 1120.49,1372.08
             1120.49,1372.08 1127.54,1372.08 1127.54,1372.08
             1127.54,1372.08 1132.00,1375.00 1132.00,1375.00
             1132.00,1375.00 1130.00,1378.00 1130.00,1378.00
             1135.27,1381.61 1137.47,1383.71 1144.00,1382.00
             1145.86,1385.70 1147.10,1385.99 1151.00,1387.00
             1151.48,1393.30 1155.37,1397.47 1154.82,1406.00
             1154.13,1416.68 1156.25,1416.73 1161.52,1425.17
             1161.52,1425.17 1164.73,1431.70 1164.73,1431.70
             1164.73,1431.70 1175.00,1440.00 1175.00,1440.00
             1175.00,1440.00 1173.00,1448.00 1173.00,1448.00
             1173.00,1448.00 1171.00,1446.00 1171.00,1446.00
             1167.85,1456.94 1157.04,1456.55 1148.00,1459.00
             1150.71,1467.24 1157.66,1473.16 1162.72,1480.01
             1164.51,1482.45 1166.86,1487.18 1169.38,1488.47
             1172.28,1489.94 1177.62,1489.39 1181.00,1490.13
             1193.95,1492.93 1192.60,1495.14 1198.00,1496.80
             1201.95,1498.02 1203.84,1496.53 1207.98,1497.80
             1213.32,1499.45 1211.72,1501.80 1219.00,1504.00
             1219.00,1504.00 1220.00,1512.00 1220.00,1512.00
             1213.51,1516.70 1218.63,1523.11 1224.00,1526.00
             1224.00,1526.00 1224.00,1527.00 1224.00,1527.00
             1224.00,1527.00 1222.00,1528.00 1222.00,1528.00
             1225.69,1536.08 1214.89,1535.42 1208.00,1538.00
             1208.00,1538.00 1208.00,1541.00 1208.00,1541.00
             1208.00,1541.00 1221.42,1553.40 1221.42,1553.40
             1221.42,1553.40 1228.86,1557.96 1228.86,1557.96
             1232.06,1560.34 1231.88,1562.36 1235.13,1564.16
             1242.89,1568.45 1244.98,1559.68 1246.00,1554.00
             1246.00,1554.00 1246.00,1570.00 1246.00,1570.00
             1246.00,1570.00 1244.00,1568.00 1244.00,1568.00
             1244.00,1568.00 1243.00,1568.00 1243.00,1568.00
             1243.00,1568.00 1251.30,1596.83 1251.30,1596.83
             1251.30,1596.83 1260.00,1605.42 1260.00,1605.42
             1260.00,1605.42 1272.00,1614.70 1272.00,1614.70
             1272.00,1614.70 1293.00,1617.91 1293.00,1617.91
             1293.00,1617.91 1316.00,1613.00 1316.00,1613.00
             1316.00,1613.00 1319.84,1650.00 1319.84,1650.00
             1319.84,1650.00 1326.72,1713.00 1326.72,1713.00
             1326.72,1713.00 1330.72,1750.00 1330.72,1750.00
             1330.72,1750.00 1332.81,1765.00 1332.81,1765.00
             1332.81,1765.00 1345.74,1790.00 1345.74,1790.00
             1345.74,1790.00 1362.09,1821.00 1362.09,1821.00
             1362.09,1821.00 1397.30,1868.00 1397.30,1868.00
             1397.30,1868.00 1408.56,1879.01 1408.56,1879.01
             1408.56,1879.01 1435.46,1913.56 1435.46,1913.56
             1435.46,1913.56 1474.00,1943.42 1474.00,1943.42
             1474.00,1943.42 1522.00,1979.88 1522.00,1979.88
             1522.00,1979.88 1543.00,1988.52 1543.00,1988.52
             1543.00,1988.52 1566.00,2003.48 1566.00,2003.48
             1566.00,2003.48 1615.00,2017.15 1615.00,2017.15
             1615.00,2017.15 1668.00,2031.54 1668.00,2031.54
             1668.00,2031.54 1689.00,2033.00 1689.00,2033.00
             1689.00,2033.00 1708.00,2033.00 1708.00,2033.00
             1708.00,2033.00 1724.00,2034.00 1724.00,2034.00
             1724.00,2034.00 1747.00,2035.00 1747.00,2035.00
             1747.00,2035.00 1761.00,2036.00 1761.00,2036.00
             1761.00,2036.00 1789.00,2037.00 1789.00,2037.00
             1789.00,2037.00 1803.00,2038.00 1803.00,2038.00
             1803.00,2038.00 1819.00,2038.91 1819.00,2038.91
             1819.00,2038.91 1840.00,2037.17 1840.00,2037.17
             1840.00,2037.17 1886.00,2033.17 1886.00,2033.17
             1886.00,2033.17 1926.00,2029.62 1926.00,2029.62
             1926.00,2029.62 1964.00,2015.42 1964.00,2015.42
             1964.00,2015.42 2018.00,1994.68 2018.00,1994.68
             2018.00,1994.68 2063.00,1965.69 2063.00,1965.69
             2063.00,1965.69 2081.00,1957.37 2081.00,1957.37
             2081.00,1957.37 2124.00,1922.08 2124.00,1922.08
             2124.00,1922.08 2155.54,1895.71 2155.54,1895.71
             2155.54,1895.71 2190.46,1850.00 2190.46,1850.00
             2190.46,1850.00 2223.47,1816.00 2223.47,1816.00
             2223.47,1816.00 2238.25,1788.00 2238.25,1788.00
             2238.25,1788.00 2257.54,1749.00 2257.54,1749.00
             2257.54,1749.00 2267.88,1710.00 2267.88,1710.00
             2267.88,1710.00 2277.65,1670.00 2277.65,1670.00
             2277.65,1670.00 2281.75,1652.00 2281.75,1652.00
             2281.75,1652.00 2290.00,1603.00 2290.00,1603.00
             2300.92,1606.81 2297.26,1608.01 2309.00,1607.08
             2312.31,1606.82 2313.66,1607.01 2317.00,1605.90
             2325.79,1602.96 2325.60,1599.92 2329.13,1598.01
             2330.79,1597.11 2341.88,1594.12 2344.00,1594.00
             2344.00,1594.00 2344.00,1589.00 2344.00,1589.00
             2354.77,1591.80 2349.72,1590.47 2360.00,1590.00
             2360.00,1590.00 2357.00,1588.00 2357.00,1588.00
             2357.00,1588.00 2357.00,1586.00 2357.00,1586.00
             2357.00,1586.00 2376.00,1581.00 2376.00,1581.00
             2376.00,1581.00 2374.00,1576.00 2374.00,1576.00
             2374.00,1576.00 2377.00,1577.00 2377.00,1577.00
             2377.00,1577.00 2374.00,1575.00 2374.00,1575.00
             2376.02,1571.40 2379.80,1568.41 2384.00,1568.00
             2384.00,1568.00 2396.68,1557.54 2396.68,1557.54
             2396.68,1557.54 2399.00,1552.00 2399.00,1552.00
             2399.00,1552.00 2395.00,1544.00 2395.00,1544.00
             2395.00,1544.00 2391.00,1545.80 2391.00,1545.80
             2386.43,1543.00 2386.35,1546.20 2382.59,1545.80
             2380.41,1545.23 2379.49,1543.31 2375.00,1542.00
             2375.10,1531.44 2378.50,1532.11 2378.00,1528.01
             2376.79,1517.98 2357.77,1513.69 2350.00,1517.00
             2351.10,1509.95 2350.16,1510.50 2348.00,1504.00
             2348.00,1504.00 2351.00,1505.00 2351.00,1505.00
             2351.00,1505.00 2353.47,1496.00 2353.47,1496.00
             2353.47,1496.00 2357.15,1488.00 2357.15,1488.00
             2357.15,1488.00 2359.46,1478.00 2359.46,1478.00
             2359.46,1478.00 2366.33,1465.58 2366.33,1465.58
             2366.33,1465.58 2369.55,1455.00 2369.55,1455.00
             2369.55,1455.00 2377.09,1444.89 2377.09,1444.89
             2377.09,1444.89 2379.56,1438.00 2379.56,1438.00
             2379.56,1438.00 2384.99,1426.17 2384.99,1426.17
             2384.99,1426.17 2391.41,1418.57 2391.41,1418.57
             2391.41,1418.57 2397.72,1408.42 2397.72,1408.42
             2397.72,1408.42 2404.31,1390.00 2404.31,1390.00
             2404.31,1390.00 2409.00,1371.00 2409.00,1371.00
             2409.00,1371.00 2411.00,1372.00 2411.00,1372.00
             2411.00,1372.00 2417.61,1345.01 2417.61,1345.01
             2417.61,1345.01 2423.00,1333.00 2423.00,1333.00
             2429.49,1337.21 2429.54,1337.75 2437.00,1336.00
             2434.26,1330.28 2432.45,1328.50 2426.00,1328.00
             2426.00,1328.00 2428.00,1319.00 2428.00,1319.00
             2428.00,1319.00 2432.00,1320.00 2432.00,1320.00
             2432.00,1320.00 2433.00,1317.00 2433.00,1317.00
             2434.54,1317.64 2436.12,1318.48 2437.83,1318.48
             2439.64,1318.48 2442.11,1316.97 2444.04,1316.36
             2444.04,1316.36 2456.91,1313.27 2456.91,1313.27
             2459.33,1312.32 2460.50,1310.58 2463.09,1310.01
             2468.62,1308.79 2475.06,1310.75 2480.00,1313.00
             2480.00,1313.00 2480.00,1311.00 2480.00,1311.00
             2483.54,1312.60 2493.47,1315.52 2496.87,1313.56
             2500.03,1311.73 2498.96,1310.13 2504.00,1307.00
             2504.00,1307.00 2504.00,1309.00 2504.00,1309.00
             2504.00,1309.00 2512.00,1306.00 2512.00,1306.00
             2512.00,1306.00 2516.00,1310.00 2516.00,1310.00
             2517.00,1304.19 2513.95,1302.87 2510.00,1299.00
             2510.00,1299.00 2518.00,1297.00 2518.00,1297.00
             2516.34,1288.13 2512.32,1290.46 2509.53,1284.90
             2509.53,1284.90 2506.99,1274.09 2506.99,1274.09
             2506.99,1274.09 2500.07,1263.58 2500.07,1263.58
             2498.10,1259.95 2497.42,1255.85 2496.00,1252.00
             2496.00,1252.00 2501.00,1251.00 2501.00,1251.00
             2501.00,1251.00 2499.35,1246.02 2499.35,1246.02
             2499.35,1246.02 2486.00,1233.00 2486.00,1233.00
             2486.00,1233.00 2484.05,1224.28 2484.05,1224.28
             2484.05,1224.28 2483.00,1216.00 2483.00,1216.00
             2477.87,1214.00 2465.46,1204.82 2463.02,1200.00
             2460.78,1195.56 2463.76,1185.66 2454.00,1184.00
             2454.00,1184.00 2455.53,1176.00 2455.53,1176.00
             2455.53,1176.00 2454.98,1169.96 2454.98,1169.96
             2454.98,1163.30 2444.75,1153.12 2441.97,1146.00
             2438.40,1136.89 2440.98,1132.00 2435.00,1123.00
             2432.78,1129.16 2429.80,1131.85 2433.00,1138.00
             2433.00,1138.00 2429.00,1137.00 2429.00,1137.00
             2430.09,1133.16 2430.83,1126.51 2426.61,1124.11
             2423.53,1122.36 2419.96,1125.61 2416.63,1118.98
             2411.07,1107.87 2411.67,1102.13 2409.62,1097.04
             2409.62,1097.04 2404.18,1087.99 2404.18,1087.99
             2404.18,1087.99 2396.00,1070.00 2396.00,1070.00
             2396.00,1070.00 2394.00,1072.00 2394.00,1072.00
             2389.97,1069.38 2388.65,1068.62 2387.00,1064.00
             2387.00,1064.00 2393.00,1064.00 2393.00,1064.00
             2393.00,1064.00 2390.00,1049.00 2390.00,1049.00
             2383.54,1044.97 2385.03,1031.90 2384.34,1025.00
             2383.65,1018.21 2378.16,1015.23 2377.00,1008.00
             2377.00,1008.00 2378.62,990.00 2378.62,990.00
             2378.62,990.00 2377.00,978.00 2377.00,978.00
             2377.00,978.00 2372.00,977.00 2372.00,977.00
             2375.12,966.33 2375.98,967.39 2376.00,956.00
             2376.00,953.18 2375.79,949.62 2377.17,947.10
             2379.45,942.98 2385.84,940.36 2389.83,938.18
             2391.81,937.10 2400.16,930.44 2401.83,928.82
             2414.05,916.92 2429.38,893.65 2433.53,877.00
             2438.42,857.34 2439.08,841.07 2437.17,821.00
             2436.76,816.74 2437.34,814.64 2436.33,810.00
             2436.33,810.00 2432.97,800.00 2432.97,800.00
             2432.97,800.00 2431.26,792.00 2431.26,792.00
             2431.26,792.00 2428.51,784.00 2428.51,784.00
             2426.92,779.28 2424.48,773.93 2426.00,769.00
             2421.29,768.41 2419.96,765.50 2420.00,761.00
             2420.00,761.00 2415.14,754.00 2415.14,754.00
             2415.14,754.00 2405.00,735.00 2405.00,735.00
             2405.00,735.00 2403.00,736.00 2403.00,736.00
             2403.00,736.00 2400.00,729.00 2400.00,729.00
             2400.00,729.00 2398.00,730.00 2398.00,730.00
             2398.00,730.00 2399.00,727.00 2399.00,727.00
             2396.66,725.01 2394.76,724.18 2396.00,721.00
             2396.00,721.00 2386.00,714.00 2386.00,714.00
             2386.00,714.00 2384.00,707.00 2384.00,707.00
             2384.00,707.00 2382.00,709.00 2382.00,709.00
             2382.00,709.00 2378.00,702.00 2378.00,702.00
             2379.39,700.03 2376.12,697.78 2373.00,699.00
             2372.15,691.42 2370.25,689.38 2363.00,687.00
             2363.00,687.00 2365.00,685.00 2365.00,685.00
             2365.00,685.00 2360.00,685.00 2360.00,685.00
             2360.00,685.00 2359.00,681.00 2359.00,681.00
             2359.00,681.00 2357.00,679.00 2357.00,679.00
             2354.83,678.37 2355.02,678.25 2355.00,676.00
             2355.00,676.00 2352.00,677.00 2352.00,677.00
             2352.00,677.00 2350.00,675.00 2350.00,675.00
             2350.00,675.00 2351.00,673.00 2351.00,673.00
             2351.00,673.00 2350.00,672.00 2350.00,672.00
             2350.00,672.00 2349.00,674.00 2349.00,674.00
             2349.00,674.00 2349.00,671.00 2349.00,671.00
             2349.00,671.00 2346.00,668.00 2346.00,668.00
             2341.59,667.49 2333.19,660.12 2332.00,656.00
             2332.00,656.00 2329.00,656.00 2329.00,656.00
             2329.00,656.00 2330.00,652.00 2330.00,652.00
             2330.00,652.00 2323.00,648.00 2323.00,648.00
             2320.52,648.32 2320.38,644.98 2320.00,643.00
             2320.00,643.00 2316.00,645.00 2316.00,645.00
             2316.00,645.00 2316.00,640.00 2316.00,640.00
             2316.00,640.00 2314.00,640.00 2314.00,640.00
             2314.27,635.10 2309.96,625.21 2305.00,624.00
             2303.32,611.24 2303.18,613.91 2297.31,603.00
             2297.31,603.00 2293.19,595.09 2293.19,595.09
             2293.19,595.09 2288.89,589.83 2288.89,589.83
             2288.89,589.83 2285.25,583.09 2285.25,583.09
             2285.25,583.09 2279.67,576.39 2279.67,576.39
             2279.67,576.39 2268.13,559.00 2268.13,559.00
             2268.13,559.00 2264.76,551.75 2264.76,551.75
             2262.24,547.89 2257.96,545.41 2255.63,542.68
             2255.63,542.68 2250.21,534.32 2250.21,534.32
             2250.21,534.32 2241.36,526.44 2241.36,526.44
             2241.36,526.44 2225.46,509.00 2225.46,509.00
             2222.00,505.12 2220.60,501.63 2215.00,501.00
             2215.00,501.00 2213.00,493.00 2213.00,493.00
             2207.74,492.37 2207.27,489.54 2203.68,486.12
             2203.68,486.12 2194.22,478.48 2194.22,478.48
             2189.84,474.14 2189.02,469.76 2182.00,469.00
             2179.85,463.88 2175.08,460.48 2171.15,456.75
             2171.15,456.75 2152.00,439.74 2152.00,439.74
             2152.00,439.74 2144.59,432.68 2144.59,432.68
             2144.59,432.68 2137.83,427.66 2137.83,427.66
             2137.83,427.66 2126.83,417.37 2126.83,417.37
             2126.83,417.37 2121.00,413.55 2121.00,413.55
             2121.00,413.55 2107.28,403.41 2107.28,403.41
             2107.28,403.41 2090.99,389.45 2090.99,389.45
             2090.99,389.45 2081.17,383.82 2081.17,383.82
             2081.17,383.82 2069.58,373.52 2069.58,373.52
             2069.58,373.52 2060.58,368.39 2060.58,368.39
             2056.18,365.48 2054.67,363.04 2049.00,363.00
             2045.45,357.96 2037.47,353.70 2032.28,350.45
             2026.59,346.89 2018.91,340.77 2013.00,338.17
             2005.01,334.67 1999.30,336.19 1993.00,329.00
             1982.29,328.79 1969.53,320.95 1959.83,316.60
             1959.83,316.60 1935.00,306.56 1935.00,306.56
             1928.86,303.36 1924.08,303.91 1919.00,299.00
             1919.00,299.00 1892.00,291.23 1892.00,291.23
             1892.00,291.23 1876.00,288.16 1876.00,288.16
             1869.29,286.57 1868.77,285.31 1860.00,284.29
             1860.00,284.29 1842.00,283.34 1842.00,283.34
             1842.00,283.34 1831.00,284.04 1831.00,284.04
             1831.00,284.04 1818.00,284.04 1818.00,284.04
             1818.00,284.04 1806.00,285.00 1806.00,285.00
             1787.94,285.03 1769.86,285.31 1752.00,288.32
             1752.00,288.32 1743.01,290.82 1743.01,290.82
             1743.01,290.82 1733.96,291.92 1733.96,291.92
             1733.96,291.92 1715.00,296.91 1715.00,296.91
             1715.00,296.91 1671.00,304.90 1671.00,304.90
             1671.00,304.90 1651.09,311.24 1651.09,311.24
             1651.09,311.24 1644.91,314.02 1644.91,314.02
             1644.91,314.02 1631.00,317.47 1631.00,317.47
             1631.00,317.47 1622.00,322.03 1622.00,322.03
             1615.76,324.93 1597.14,329.54 1590.00,330.57
             1590.00,330.57 1580.00,331.67 1580.00,331.67
             1580.00,331.67 1563.00,337.72 1563.00,337.72
             1556.49,339.75 1544.69,342.65 1545.00,351.00 Z
           M 1778.00,286.00
           C 1778.00,286.00 1778.00,287.00 1778.00,287.00
             1778.00,287.00 1777.00,286.00 1777.00,286.00
             1777.00,286.00 1778.00,286.00 1778.00,286.00 Z
           M 1780.00,286.00
           C 1780.00,286.00 1780.00,287.00 1780.00,287.00
             1780.00,287.00 1779.00,286.00 1779.00,286.00
             1779.00,286.00 1780.00,286.00 1780.00,286.00 Z
           M 1792.00,286.00
           C 1792.00,286.00 1781.00,287.00 1781.00,287.00
             1781.00,287.00 1792.00,286.00 1792.00,286.00 Z
           M 2363.00,685.00
           C 2363.00,685.00 2363.00,686.00 2363.00,686.00
             2363.00,686.00 2362.00,685.00 2362.00,685.00
             2362.00,685.00 2363.00,685.00 2363.00,685.00 Z
           M 2370.00,692.00
           C 2370.00,692.00 2370.00,693.00 2370.00,693.00
             2370.00,693.00 2369.00,692.00 2369.00,692.00
             2369.00,692.00 2370.00,692.00 2370.00,692.00 Z
           M 2384.00,709.00
           C 2384.00,709.00 2384.00,710.00 2384.00,710.00
             2384.00,710.00 2383.00,709.00 2383.00,709.00
             2383.00,709.00 2384.00,709.00 2384.00,709.00 Z
           M 2427.00,775.00
           C 2427.00,775.00 2427.00,776.00 2427.00,776.00
             2427.00,776.00 2428.00,775.00 2428.00,775.00
             2428.00,775.00 2427.00,775.00 2427.00,775.00 Z
           M 2430.00,785.00
           C 2430.00,785.00 2430.00,786.00 2430.00,786.00
             2430.00,786.00 2431.00,785.00 2431.00,785.00
             2431.00,785.00 2430.00,785.00 2430.00,785.00 Z
           M 2447.00,1173.00
           C 2447.00,1173.00 2453.00,1175.00 2453.00,1175.00
             2450.20,1177.76 2449.88,1177.68 2446.00,1178.00
             2446.00,1178.00 2447.00,1173.00 2447.00,1173.00 Z
           M 1112.00,1248.00
           C 1112.00,1248.00 1112.00,1249.00 1112.00,1249.00
             1112.00,1249.00 1113.00,1248.00 1113.00,1248.00
             1113.00,1248.00 1112.00,1248.00 1112.00,1248.00 Z
           M 2497.00,1307.00
           C 2497.00,1307.00 2497.00,1308.00 2497.00,1308.00
             2497.00,1308.00 2496.00,1307.00 2496.00,1307.00
             2496.00,1307.00 2497.00,1307.00 2497.00,1307.00 Z
           M 1238.00,1568.00
           C 1238.00,1568.00 1238.00,1569.00 1238.00,1569.00
             1238.00,1569.00 1239.00,1568.00 1239.00,1568.00
             1239.00,1568.00 1238.00,1568.00 1238.00,1568.00 Z
           M 2344.00,1578.00
           C 2344.00,1578.00 2344.00,1579.00 2344.00,1579.00
             2344.00,1579.00 2343.00,1578.00 2343.00,1578.00
             2343.00,1578.00 2344.00,1578.00 2344.00,1578.00 Z
           M 2343.00,1579.00
           C 2343.00,1579.00 2343.00,1580.00 2343.00,1580.00
             2343.00,1580.00 2342.00,1579.00 2342.00,1579.00
             2342.00,1579.00 2343.00,1579.00 2343.00,1579.00 Z
           M 2342.00,1581.00
           C 2342.00,1581.00 2342.00,1582.00 2342.00,1582.00
             2342.00,1582.00 2341.00,1581.00 2341.00,1581.00
             2341.00,1581.00 2342.00,1581.00 2342.00,1581.00 Z
           M 2342.00,1583.00
           C 2342.00,1583.00 2342.00,1584.00 2342.00,1584.00
             2342.00,1584.00 2341.00,1583.00 2341.00,1583.00
             2341.00,1583.00 2342.00,1583.00 2342.00,1583.00 Z
           M 2344.00,1584.00
           C 2344.00,1584.00 2344.00,1585.00 2344.00,1585.00
             2344.00,1585.00 2343.00,1584.00 2343.00,1584.00
             2343.00,1584.00 2344.00,1584.00 2344.00,1584.00 Z
           M 2339.00,1585.00
           C 2339.00,1585.00 2339.00,1586.00 2339.00,1586.00
             2339.00,1586.00 2338.00,1585.00 2338.00,1585.00
             2338.00,1585.00 2339.00,1585.00 2339.00,1585.00 Z
           M 2341.00,1586.00
           C 2341.00,1586.00 2341.00,1587.00 2341.00,1587.00
             2341.00,1587.00 2340.00,1586.00 2340.00,1586.00
             2340.00,1586.00 2341.00,1586.00 2341.00,1586.00 Z
           M 2352.00,1592.00
           C 2352.00,1592.00 2352.00,1593.00 2352.00,1593.00
             2352.00,1593.00 2353.00,1592.00 2353.00,1592.00
             2353.00,1592.00 2352.00,1592.00 2352.00,1592.00 Z" />
  <path id="profile"
        fill="none" stroke="black" stroke-width="1"
        d="M 1545.00,351.00
           C 1531.13,354.12 1530.69,356.26 1519.12,360.70
             1519.12,360.70 1514.09,362.34 1514.09,362.34
             1511.44,363.84 1511.05,365.67 1506.95,368.04
             1506.95,368.04 1496.00,372.74 1496.00,372.74
             1496.00,372.74 1486.01,378.04 1486.01,378.04
             1478.17,382.00 1477.41,387.02 1467.00,388.00
             1467.00,388.00 1458.51,394.80 1458.51,394.80
             1458.51,394.80 1453.82,399.00 1453.82,399.00
             1453.82,399.00 1449.00,400.82 1449.00,400.82
             1449.00,400.82 1435.26,407.54 1435.26,407.54
             1435.26,407.54 1431.00,412.00 1431.00,412.00
             1431.00,412.00 1432.00,415.00 1432.00,415.00
             1423.19,417.57 1422.44,420.07 1415.96,424.01
             1415.96,424.01 1407.00,428.38 1407.00,428.38
             1401.61,431.65 1399.45,434.32 1395.00,437.58
             1390.84,440.63 1383.81,441.23 1383.00,447.00
             1374.27,447.30 1372.93,451.28 1366.83,456.50
             1366.83,456.50 1350.91,468.49 1350.91,468.49
             1350.91,468.49 1341.30,475.29 1341.30,475.29
             1341.30,475.29 1331.57,485.90 1331.57,485.90
             1331.57,485.90 1323.75,492.38 1323.75,492.38
             1323.75,492.38 1313.15,509.83 1313.15,509.83
             1313.15,509.83 1304.80,521.01 1304.80,521.01
             1302.50,525.01 1302.76,527.95 1301.05,532.00
             1301.05,532.00 1296.71,540.00 1296.71,540.00
             1296.71,540.00 1291.46,553.00 1291.46,553.00
             1288.40,561.55 1280.71,574.57 1282.00,583.00
             1272.07,589.59 1275.18,605.41 1273.98,610.00
             1273.11,613.32 1270.66,614.58 1269.57,617.28
             1269.57,617.28 1268.11,626.00 1268.11,626.00
             1268.11,626.00 1262.89,644.00 1262.89,644.00
             1262.89,644.00 1255.12,657.28 1255.12,657.28
             1252.21,663.56 1252.28,667.92 1250.63,674.00
             1250.63,674.00 1247.53,684.91 1247.53,684.91
             1247.53,684.91 1244.75,690.17 1244.75,690.17
             1244.75,690.17 1240.59,701.00 1240.59,701.00
             1240.59,701.00 1235.71,723.00 1235.71,723.00
             1235.71,723.00 1231.59,737.00 1231.59,737.00
             1231.59,737.00 1230.24,745.00 1230.24,745.00
             1230.24,745.00 1227.01,756.00 1227.01,756.00
             1227.01,756.00 1222.93,778.99 1222.93,778.99
             1222.93,778.99 1220.16,786.17 1220.16,786.17
             1220.16,786.17 1218.54,795.00 1218.54,795.00
             1218.54,795.00 1216.46,802.00 1216.46,802.00
             1216.46,802.00 1215.56,813.00 1215.56,813.00
             1215.56,813.00 1213.50,822.00 1213.50,822.00
             1213.50,822.00 1210.92,843.00 1210.92,843.00
             1210.92,843.00 1208.30,855.00 1208.30,855.00
             1208.30,855.00 1207.54,865.00 1207.54,865.00
             1207.54,865.00 1203.80,881.00 1203.80,881.00
             1203.80,881.00 1202.52,890.99 1202.52,890.99
             1202.52,890.99 1199.31,900.04 1199.31,900.04
             1199.31,900.04 1199.31,908.00 1199.31,908.00
             1199.31,908.00 1197.17,922.00 1197.17,922.00
             1197.17,922.00 1195.87,938.99 1195.87,938.99
             1194.79,945.37 1189.49,946.26 1190.09,957.00
             1190.09,957.00 1191.79,971.00 1191.79,971.00
             1191.79,971.00 1191.08,980.00 1191.08,980.00
             1191.08,980.00 1191.66,988.00 1191.66,988.00
             1191.66,988.00 1190.50,993.00 1190.50,993.00
             1190.50,993.00 1188.30,1011.00 1188.30,1011.00
             1188.31,1019.93 1192.09,1032.72 1178.00,1032.00
             1178.00,1032.00 1178.00,1036.00 1178.00,1036.00
             1183.74,1037.78 1183.61,1040.53 1184.00,1046.00
             1184.00,1046.00 1179.00,1040.00 1179.00,1040.00
             1179.00,1040.00 1171.00,1042.00 1171.00,1042.00
             1171.12,1046.51 1171.51,1051.53 1173.73,1055.58
             1175.33,1058.48 1178.01,1060.61 1178.95,1064.00
             1178.95,1064.00 1180.00,1080.00 1180.00,1080.00
             1175.97,1081.45 1176.18,1083.14 1175.00,1087.00
             1175.00,1087.00 1166.00,1077.00 1166.00,1077.00
             1166.00,1077.00 1164.00,1080.00 1164.00,1080.00
             1167.03,1083.73 1167.74,1087.29 1168.00,1092.00
             1168.00,1092.00 1162.87,1093.60 1162.87,1093.60
             1162.87,1093.60 1158.78,1099.68 1158.78,1099.68
             1158.78,1099.68 1147.00,1096.00 1147.00,1096.00
             1147.00,1096.00 1153.00,1104.00 1153.00,1104.00
             1143.91,1106.91 1143.37,1102.41 1136.96,1100.94
             1134.51,1100.30 1130.67,1100.89 1128.00,1100.94
             1130.81,1117.84 1154.09,1112.61 1162.80,1124.02
             1164.89,1126.75 1167.72,1134.70 1166.90,1138.00
             1165.95,1141.90 1162.38,1144.61 1161.77,1147.17
             1161.26,1149.28 1162.36,1151.99 1163.00,1154.00
             1163.00,1154.00 1151.00,1160.00 1151.00,1160.00
             1151.00,1160.00 1155.75,1173.01 1155.75,1173.01
             1155.75,1173.01 1155.75,1184.00 1155.75,1184.00
             1155.75,1184.00 1155.75,1191.99 1155.75,1191.99
             1155.75,1191.99 1152.00,1199.00 1152.00,1199.00
             1141.07,1195.92 1133.03,1204.68 1124.91,1206.76
             1122.10,1207.48 1106.73,1208.63 1104.00,1208.16
             1100.19,1207.51 1094.59,1204.74 1091.09,1205.34
             1088.21,1205.83 1083.95,1209.58 1081.00,1211.13
             1081.00,1211.13 1074.00,1214.00 1074.00,1214.00
             1074.00,1214.00 1074.00,1219.00 1074.00,1219.00
             1074.00,1219.00 1077.00,1221.00 1077.00,1221.00
             1077.00,1221.00 1072.00,1222.00 1072.00,1222.00
             1072.00,1222.00 1078.00,1232.00 1078.00,1232.00
             1078.00,1232.00 1082.00,1231.00 1082.00,1231.00
             1082.00,1231.00 1080.00,1238.00 1080.00,1238.00
             1080.00,1238.00 1091.09,1241.96 1091.09,1241.96
             1091.09,1241.96 1120.00,1241.96 1120.00,1241.96
             1120.00,1241.96 1123.00,1245.00 1123.00,1245.00
             1123.00,1245.00 1120.00,1251.00 1120.00,1251.00
             1120.00,1251.00 1119.00,1248.00 1119.00,1248.00
             1115.81,1248.04 1114.22,1247.53 1112.00,1250.00
             1112.00,1250.00 1115.00,1249.00 1115.00,1249.00
             1112.65,1253.10 1111.25,1251.82 1106.99,1252.87
             1090.08,1257.06 1093.98,1253.63 1085.00,1255.00
             1085.00,1255.00 1087.00,1257.00 1087.00,1257.00
             1080.80,1259.69 1079.43,1258.90 1076.91,1260.06
             1073.69,1261.56 1073.21,1263.18 1069.00,1263.86
             1060.76,1265.21 1060.09,1261.31 1055.00,1260.89
             1055.00,1260.89 1039.00,1264.00 1039.00,1264.00
             1039.92,1274.62 1026.79,1267.90 1028.00,1280.00
             1028.00,1280.00 1048.00,1290.00 1048.00,1290.00
             1056.89,1289.13 1074.95,1290.58 1084.00,1292.00
             1084.00,1292.00 1078.00,1296.00 1078.00,1296.00
             1078.52,1297.71 1078.77,1299.05 1080.00,1300.48
             1080.78,1301.39 1097.27,1310.20 1088.00,1315.00
             1087.87,1322.03 1087.36,1326.68 1096.00,1328.00
             1096.09,1334.94 1096.43,1333.06 1098.55,1339.00
             1101.03,1345.94 1099.24,1346.34 1106.91,1349.11
             1109.41,1350.00 1110.28,1350.66 1113.00,1351.00
             1113.41,1365.78 1116.23,1362.72 1117.00,1370.00
             1117.00,1370.00 1132.00,1375.00 1132.00,1375.00
             1130.09,1378.70 1132.54,1380.37 1136.00,1381.91
             1140.74,1384.02 1145.76,1382.29 1147.00,1389.00
             1152.98,1390.02 1155.38,1399.56 1154.70,1404.91
             1154.46,1406.77 1153.51,1408.26 1153.62,1410.17
             1153.93,1415.33 1159.02,1421.72 1161.51,1426.00
             1161.51,1426.00 1164.16,1431.70 1164.16,1431.70
             1165.76,1434.01 1167.76,1434.09 1169.71,1435.70
             1173.15,1438.55 1173.46,1441.91 1173.00,1446.00
             1173.00,1446.00 1171.00,1444.00 1171.00,1444.00
             1170.24,1445.84 1169.37,1448.76 1168.25,1450.25
             1162.29,1458.19 1154.97,1455.98 1147.00,1459.00
             1150.12,1467.39 1156.45,1472.37 1161.79,1479.28
             1164.09,1482.27 1166.00,1487.01 1169.18,1488.83
             1169.18,1488.83 1187.00,1492.04 1187.00,1492.04
             1192.20,1493.57 1194.44,1496.20 1198.00,1497.15
             1201.75,1498.14 1204.44,1496.32 1208.96,1498.43
             1212.93,1500.28 1212.45,1502.02 1218.00,1504.00
             1218.00,1504.00 1215.00,1520.00 1215.00,1520.00
             1215.00,1520.00 1224.00,1527.00 1224.00,1527.00
             1224.00,1527.00 1221.00,1529.00 1221.00,1529.00
             1221.00,1529.00 1224.00,1530.00 1224.00,1530.00
             1224.00,1530.00 1224.00,1533.00 1224.00,1533.00
             1213.18,1536.60 1218.27,1536.00 1206.00,1536.00
             1211.14,1544.51 1213.14,1547.24 1221.17,1553.63
             1221.17,1553.63 1228.86,1558.55 1228.86,1558.55
             1233.80,1562.74 1229.91,1563.01 1239.19,1567.00
             1236.67,1575.19 1238.49,1582.00 1239.19,1590.00
             1240.07,1596.14 1240.22,1604.24 1246.00,1608.00
             1244.02,1613.59 1239.93,1621.12 1248.00,1624.00
             1248.00,1624.00 1250.07,1638.71 1250.07,1638.71
             1250.07,1638.71 1266.63,1660.00 1266.63,1660.00
             1266.63,1660.00 1275.80,1675.00 1275.80,1675.00
             1275.80,1675.00 1277.66,1680.91 1277.66,1680.91
             1277.66,1680.91 1282.00,1690.00 1282.00,1690.00
             1282.00,1690.00 1284.00,1688.00 1284.00,1688.00
             1286.83,1694.73 1291.04,1709.87 1291.00,1717.00
             1291.00,1717.00 1296.00,1718.00 1296.00,1718.00
             1296.00,1718.00 1303.00,1736.00 1303.00,1736.00
             1306.58,1737.20 1307.38,1741.87 1309.02,1745.00
             1313.68,1753.94 1317.72,1772.71 1328.00,1776.00
             1328.00,1776.00 1329.90,1788.00 1329.90,1788.00
             1329.90,1788.00 1332.17,1814.00 1332.17,1814.00
             1332.17,1814.00 1333.96,1831.00 1333.96,1831.00
             1333.96,1831.00 1333.37,1856.72 1333.37,1856.72
             1333.37,1856.72 1329.14,1867.07 1329.14,1867.07
             1329.14,1867.07 1331.85,1876.04 1331.85,1876.04
             1331.85,1876.04 1331.85,1886.00 1331.85,1886.00
             1331.85,1886.00 1330.00,1913.00 1330.00,1913.00
             1330.00,1913.00 1330.00,1975.00 1330.00,1975.00
             1330.00,1975.00 1328.05,1990.00 1328.05,1990.00
             1328.05,1990.00 1328.05,2007.00 1328.05,2007.00
             1328.05,2007.00 1329.00,2013.72 1329.00,2013.72
             1329.00,2013.72 1328.00,2023.00 1328.00,2023.00
             1328.00,2023.00 1328.00,2042.00 1328.00,2042.00
             1328.00,2042.00 1325.09,2041.13 1325.09,2041.13
             1325.09,2041.13 1319.83,2044.29 1319.83,2044.29
             1319.83,2044.29 1306.99,2053.44 1306.99,2053.44
             1306.99,2053.44 1289.00,2057.25 1289.00,2057.25
             1289.00,2057.25 1282.00,2056.09 1282.00,2056.09
             1282.00,2056.09 1273.00,2056.09 1273.00,2056.09
             1273.00,2056.09 1274.00,2061.00 1274.00,2061.00
             1274.00,2061.00 1256.00,2064.00 1256.00,2064.00
             1254.91,2067.19 1251.05,2067.72 1248.00,2068.77
             1248.00,2068.77 1241.00,2071.12 1241.00,2071.12
             1235.90,2073.52 1229.73,2078.74 1224.00,2079.00
             1224.00,2079.00 1217.45,2082.59 1217.45,2082.59
             1212.68,2086.48 1209.25,2093.03 1202.00,2092.00
             1202.00,2092.00 1201.00,2095.00 1201.00,2095.00
             1201.00,2095.00 1204.00,2094.00 1204.00,2094.00
             1204.00,2094.00 1184.00,2110.98 1184.00,2110.98
             1184.00,2110.98 1179.00,2112.00 1179.00,2112.00
             1177.68,2116.62 1176.33,2117.98 1172.00,2120.00
             1171.40,2122.71 1170.71,2123.36 1168.00,2124.00
             1167.61,2127.62 1166.35,2127.50 1163.00,2128.00
             1163.00,2128.00 1151.60,2139.14 1151.60,2139.14
             1151.60,2139.14 1135.09,2151.74 1135.09,2151.74
             1135.09,2151.74 1127.00,2156.00 1127.00,2156.00
             1124.97,2159.50 1124.02,2160.01 1120.00,2160.00
             1120.00,2160.00 1120.00,2161.00 1120.00,2161.00
             1120.00,2161.00 1122.00,2163.00 1122.00,2163.00
             1117.01,2162.34 1111.02,2161.41 1106.00,2162.26
             1106.00,2162.26 1088.00,2167.77 1088.00,2167.77
             1088.00,2167.77 1081.00,2171.28 1081.00,2171.28
             1081.00,2171.28 1075.09,2172.54 1075.09,2172.54
             1075.09,2172.54 1062.00,2177.33 1062.00,2177.33
             1062.00,2177.33 1040.00,2189.22 1040.00,2189.22
             1034.69,2191.97 1033.30,2191.58 1031.17,2192.55
             1031.17,2192.55 1022.00,2199.27 1022.00,2199.27
             1013.33,2204.29 1012.37,2202.90 1004.00,2203.44
             994.03,2204.10 988.32,2209.98 980.00,2214.16
             980.00,2214.16 969.00,2218.47 969.00,2218.47
             969.00,2218.47 955.00,2226.33 955.00,2226.33
             946.71,2231.52 938.89,2238.39 930.00,2242.60
             930.00,2242.60 923.00,2245.43 923.00,2245.43
             923.00,2245.43 915.00,2250.44 915.00,2250.44
             915.00,2250.44 909.00,2252.88 909.00,2252.88
             909.00,2252.88 890.00,2262.99 890.00,2262.99
             890.00,2262.99 878.00,2267.38 878.00,2267.38
             878.00,2267.38 853.01,2278.94 853.01,2278.94
             853.01,2278.94 840.00,2283.88 840.00,2283.88
             840.00,2283.88 830.00,2288.71 830.00,2288.71
             830.00,2288.71 818.17,2293.54 818.17,2293.54
             818.17,2293.54 812.91,2296.74 812.91,2296.74
             812.91,2296.74 806.00,2299.34 806.00,2299.34
             806.00,2299.34 796.00,2304.18 796.00,2304.18
             796.00,2304.18 787.09,2307.83 787.09,2307.83
             787.09,2307.83 780.91,2312.04 780.91,2312.04
             780.91,2312.04 773.00,2315.83 773.00,2315.83
             773.00,2315.83 756.99,2326.41 756.99,2326.41
             756.99,2326.41 735.00,2337.02 735.00,2337.02
             735.00,2337.02 723.00,2343.87 723.00,2343.87
             718.10,2346.39 711.46,2348.40 708.00,2353.00
             701.08,2352.99 695.94,2357.50 690.00,2360.33
             690.00,2360.33 678.04,2363.96 678.04,2363.96
             678.04,2363.96 663.91,2372.48 663.91,2372.48
             663.91,2372.48 649.00,2379.10 649.00,2379.10
             649.00,2379.10 642.00,2382.89 642.00,2382.89
             642.00,2382.89 635.00,2385.21 635.00,2385.21
             635.00,2385.21 627.00,2389.16 627.00,2389.16
             627.00,2389.16 614.00,2395.03 614.00,2395.03
             614.00,2395.03 605.09,2400.22 605.09,2400.22
             605.09,2400.22 596.03,2403.65 596.03,2403.65
             596.03,2403.65 590.72,2407.16 590.72,2407.16
             590.72,2407.16 577.00,2413.00 577.00,2413.00
             577.00,2413.00 577.00,2414.00 577.00,2414.00
             577.00,2414.00 579.00,2414.00 579.00,2414.00
             579.00,2414.00 570.28,2417.06 570.28,2417.06
             570.28,2417.06 560.00,2423.70 560.00,2423.70
             556.40,2425.50 553.77,2424.93 547.21,2428.80
             543.63,2430.91 544.09,2432.05 539.96,2434.24
             539.96,2434.24 519.00,2443.85 519.00,2443.85
             519.00,2443.85 507.99,2450.48 507.99,2450.48
             507.99,2450.48 492.15,2458.40 492.15,2458.40
             492.15,2458.40 484.00,2464.55 484.00,2464.55
             480.84,2466.15 475.63,2466.58 468.00,2471.45
             463.76,2474.15 453.39,2481.64 449.00,2482.00
             443.66,2487.73 439.75,2487.53 434.26,2491.89
             434.26,2491.89 428.87,2496.66 428.87,2496.66
             428.87,2496.66 422.04,2500.61 422.04,2500.61
             422.04,2500.61 415.83,2504.92 415.83,2504.92
             415.83,2504.92 410.17,2507.98 410.17,2507.98
             410.17,2507.98 392.00,2520.21 392.00,2520.21
             392.00,2520.21 384.00,2524.14 384.00,2524.14
             384.00,2524.14 372.96,2532.44 372.96,2532.44
             364.54,2537.59 358.25,2543.34 351.71,2550.68
             348.77,2553.97 346.03,2554.30 346.00,2559.00
             339.19,2560.48 337.33,2564.90 335.00,2571.00
             329.72,2572.12 329.83,2576.55 327.18,2580.99
             321.28,2590.85 314.17,2593.92 310.00,2606.00
             310.00,2606.00 308.00,2604.00 308.00,2604.00
             308.00,2604.00 302.00,2617.00 302.00,2617.00
             296.74,2618.10 297.95,2621.30 295.20,2625.17
             291.24,2630.75 282.39,2634.49 283.00,2642.00
             283.00,2642.00 273.00,2652.00 273.00,2652.00
             271.54,2656.90 270.29,2657.49 266.00,2660.00
             265.59,2664.26 260.08,2670.76 256.00,2672.00
             256.00,2672.00 255.00,2678.00 255.00,2678.00
             255.00,2678.00 253.00,2676.00 253.00,2676.00
             253.00,2676.00 252.00,2676.00 252.00,2676.00
             252.00,2676.00 247.24,2687.10 247.24,2687.10
             247.24,2687.10 242.49,2691.74 242.49,2691.74
             242.49,2691.74 233.00,2706.00 233.00,2706.00
             233.00,2706.00 230.00,2705.00 230.00,2705.00
             227.80,2710.08 224.50,2713.48 225.00,2719.00
             225.00,2719.00 221.00,2723.00 221.00,2723.00
             221.00,2723.00 219.00,2721.00 219.00,2721.00
             217.63,2724.84 213.97,2732.53 211.32,2735.46
             207.84,2739.31 204.05,2738.31 204.00,2745.00
             204.00,2745.00 200.00,2746.00 200.00,2746.00
             200.00,2746.00 202.00,2748.00 202.00,2748.00
             197.08,2751.81 192.62,2752.43 191.00,2759.00
             182.40,2758.69 183.93,2764.94 178.93,2769.54
             174.60,2773.52 167.86,2777.25 164.55,2782.05
             159.55,2789.28 158.70,2799.47 157.83,2808.00
             157.83,2808.00 156.08,2818.00 156.08,2818.00
             156.08,2818.00 156.08,2831.00 156.08,2831.00
             147.48,2833.68 146.35,2844.40 139.00,2849.00
             137.95,2852.76 135.71,2853.39 133.10,2856.09
             126.82,2862.62 131.69,2861.47 122.00,2867.00
             122.00,2867.00 121.00,2874.00 121.00,2874.00
             115.23,2875.18 115.08,2880.81 110.63,2885.52
             108.48,2887.80 106.04,2888.70 104.03,2891.38
             104.03,2891.38 95.14,2909.00 95.14,2909.00
             89.62,2917.65 84.98,2921.55 82.00,2932.00
             82.00,2932.00 81.00,2929.00 81.00,2929.00
             76.41,2933.93 72.31,2935.59 74.00,2943.00
             69.34,2945.98 71.37,2945.87 69.04,2949.74
             66.10,2954.62 64.92,2951.31 62.00,2965.00
             52.24,2965.09 57.06,2973.93 51.00,2976.00
             51.00,2976.00 47.00,2988.00 47.00,2988.00
             41.32,2989.17 36.13,2998.76 34.09,3004.00
             32.62,3007.79 33.82,3008.06 30.00,3017.00
             30.00,3017.00 28.00,3015.00 28.00,3015.00
             28.00,3015.00 26.80,3020.39 26.80,3020.39
             25.30,3024.80 16.46,3037.65 13.37,3042.05
             11.12,3045.25 5.62,3048.50 9.00,3052.00
             9.00,3052.00 0.64,3066.00 0.64,3066.00
             0.64,3066.00 0.00,3094.00 0.00,3094.00
             0.00,3094.00 0.00,3156.00 0.00,3156.00
             0.00,3156.00 0.00,3425.00 0.00,3425.00
             0.00,3425.00 0.00,4474.00 0.00,4474.00
             0.00,4474.00 3576.00,4474.00 3576.00,4474.00
             3576.00,4474.00 3576.00,3362.00 3576.00,3362.00
             3576.00,3362.00 3576.00,3095.00 3576.00,3095.00
             3576.00,3095.00 3576.00,3054.00 3576.00,3054.00
             3575.94,3045.57 3573.25,3042.81 3569.39,3035.96
             3569.39,3035.96 3562.31,3022.00 3562.31,3022.00
             3562.31,3022.00 3552.97,3004.83 3552.97,3004.83
             3550.88,3001.07 3550.86,2998.48 3547.00,2996.00
             3547.00,2996.00 3548.00,2993.00 3548.00,2993.00
             3539.65,2986.42 3539.29,2975.93 3533.00,2972.00
             3533.00,2972.00 3531.00,2969.00 3531.00,2969.00
             3531.00,2969.00 3532.00,2966.00 3532.00,2966.00
             3532.00,2966.00 3528.00,2959.00 3528.00,2959.00
             3528.00,2959.00 3524.87,2958.00 3524.87,2958.00
             3524.87,2958.00 3524.87,2955.00 3524.87,2955.00
             3524.87,2955.00 3514.31,2938.29 3514.31,2938.29
             3514.31,2938.29 3511.00,2936.00 3511.00,2936.00
             3510.46,2930.80 3507.52,2928.43 3505.03,2924.00
             3505.03,2924.00 3501.38,2916.30 3501.38,2916.30
             3499.86,2914.08 3497.67,2912.84 3496.28,2910.11
             3493.80,2905.25 3495.02,2900.80 3488.00,2900.00
             3488.00,2900.00 3484.15,2892.17 3484.15,2892.17
             3478.45,2883.21 3470.08,2875.48 3467.00,2865.00
             3463.96,2864.00 3463.34,2861.57 3461.32,2859.17
             3461.32,2859.17 3456.62,2853.91 3456.62,2853.91
             3456.62,2853.91 3446.96,2839.13 3446.96,2839.13
             3446.96,2839.13 3422.08,2807.83 3422.08,2807.83
             3418.11,2799.67 3421.96,2793.75 3420.09,2788.04
             3418.31,2782.62 3410.55,2774.58 3407.00,2769.00
             3401.33,2768.96 3401.40,2767.09 3397.55,2763.67
             3397.55,2763.67 3378.56,2749.45 3378.56,2749.45
             3377.41,2748.11 3377.48,2747.52 3377.00,2746.00
             3368.98,2742.20 3369.80,2738.32 3357.00,2734.00
             3357.00,2734.00 3358.00,2731.00 3358.00,2731.00
             3350.89,2725.74 3342.47,2714.84 3336.68,2708.00
             3336.68,2708.00 3330.49,2701.58 3330.49,2701.58
             3330.49,2701.58 3325.78,2695.44 3325.78,2695.44
             3325.78,2695.44 3319.29,2689.71 3319.29,2689.71
             3319.29,2689.71 3311.72,2681.37 3311.72,2681.37
             3311.72,2681.37 3297.28,2670.57 3297.28,2670.57
             3297.28,2670.57 3276.85,2653.68 3276.85,2653.68
             3276.85,2653.68 3262.42,2642.83 3262.42,2642.83
             3262.42,2642.83 3255.32,2635.54 3255.32,2635.54
             3255.32,2635.54 3247.59,2629.95 3247.59,2629.95
             3247.59,2629.95 3235.83,2618.63 3235.83,2618.63
             3231.95,2615.60 3226.34,2614.29 3225.00,2609.00
             3218.90,2608.07 3212.52,2600.26 3207.85,2596.13
             3204.70,2593.35 3204.28,2593.96 3201.90,2592.29
             3201.90,2592.29 3190.42,2582.98 3190.42,2582.98
             3190.42,2582.98 3183.00,2578.08 3183.00,2578.08
             3183.00,2578.08 3173.72,2570.99 3173.72,2570.99
             3173.72,2570.99 3154.13,2558.81 3154.13,2558.81
             3154.13,2558.81 3149.57,2555.05 3149.57,2555.05
             3149.57,2555.05 3143.09,2551.40 3143.09,2551.40
             3143.09,2551.40 3135.96,2545.90 3135.96,2545.90
             3135.96,2545.90 3129.21,2542.59 3129.21,2542.59
             3129.21,2542.59 3123.79,2538.04 3123.79,2538.04
             3117.36,2533.48 3108.73,2528.46 3101.00,2527.00
             3099.63,2520.71 3089.12,2518.25 3084.28,2514.69
             3077.09,2509.40 3071.47,2507.19 3064.00,2503.00
             3064.00,2503.00 3043.95,2490.59 3043.95,2490.59
             3039.11,2487.94 3026.45,2481.41 3023.00,2478.00
             3018.19,2477.54 3011.14,2472.39 3006.72,2469.86
             3006.72,2469.86 2999.28,2466.30 2999.28,2466.30
             2999.28,2466.30 2989.83,2460.11 2989.83,2460.11
             2989.83,2460.11 2985.01,2457.87 2985.01,2457.87
             2985.01,2457.87 2977.83,2452.70 2977.83,2452.70
             2977.83,2452.70 2971.00,2449.63 2971.00,2449.63
             2971.00,2449.63 2949.00,2436.67 2949.00,2436.67
             2949.00,2436.67 2939.09,2432.05 2939.09,2432.05
             2939.09,2432.05 2931.96,2426.63 2931.96,2426.63
             2931.96,2426.63 2922.00,2422.39 2922.00,2422.39
             2922.00,2422.39 2910.00,2414.12 2910.00,2414.12
             2910.00,2414.12 2891.96,2404.52 2891.96,2404.52
             2891.96,2404.52 2879.58,2396.57 2879.58,2396.57
             2879.58,2396.57 2872.17,2393.16 2872.17,2393.16
             2869.03,2391.42 2868.41,2389.68 2861.00,2386.31
             2854.56,2383.39 2851.79,2383.98 2847.00,2378.00
             2838.66,2378.14 2834.08,2372.94 2827.00,2369.46
             2822.86,2367.42 2822.11,2368.47 2819.09,2367.45
             2819.09,2367.45 2809.00,2362.18 2809.00,2362.18
             2809.00,2362.18 2799.00,2358.58 2799.00,2358.58
             2799.00,2358.58 2791.00,2353.39 2791.00,2353.39
             2791.00,2353.39 2784.00,2350.92 2784.00,2350.92
             2784.00,2350.92 2776.00,2345.91 2776.00,2345.91
             2776.00,2345.91 2768.00,2342.41 2768.00,2342.41
             2768.00,2342.41 2760.00,2337.60 2760.00,2337.60
             2760.00,2337.60 2754.17,2335.07 2754.17,2335.07
             2754.17,2335.07 2745.00,2328.66 2745.00,2328.66
             2745.00,2328.66 2733.42,2323.04 2733.42,2323.04
             2733.42,2323.04 2719.00,2314.88 2719.00,2314.88
             2719.00,2314.88 2703.00,2306.92 2703.00,2306.92
             2703.00,2306.92 2696.04,2305.15 2696.04,2305.15
             2696.04,2305.15 2690.72,2301.89 2690.72,2301.89
             2690.72,2301.89 2674.00,2294.07 2674.00,2294.07
             2674.00,2294.07 2668.00,2292.20 2668.00,2292.20
             2668.00,2292.20 2657.29,2287.24 2657.29,2287.24
             2657.29,2287.24 2650.71,2282.98 2650.71,2282.98
             2650.71,2282.98 2643.09,2279.88 2643.09,2279.88
             2643.09,2279.88 2633.58,2273.58 2633.58,2273.58
             2633.58,2273.58 2627.00,2270.38 2627.00,2270.38
             2627.00,2270.38 2609.00,2259.77 2609.00,2259.77
             2609.00,2259.77 2600.09,2256.08 2600.09,2256.08
             2600.09,2256.08 2593.91,2251.61 2593.91,2251.61
             2588.55,2248.83 2587.58,2252.18 2580.00,2247.53
             2575.03,2244.48 2574.06,2242.27 2570.83,2239.96
             2570.83,2239.96 2562.00,2234.74 2562.00,2234.74
             2562.00,2234.74 2550.71,2225.96 2550.71,2225.96
             2550.71,2225.96 2544.42,2222.87 2544.42,2222.87
             2544.42,2222.87 2536.00,2217.55 2536.00,2217.55
             2536.00,2217.55 2521.09,2211.43 2521.09,2211.43
             2521.09,2211.43 2514.91,2208.12 2514.91,2208.12
             2514.91,2208.12 2506.00,2204.80 2506.00,2204.80
             2506.00,2204.80 2499.17,2201.09 2499.17,2201.09
             2499.17,2201.09 2490.17,2198.04 2490.17,2198.04
             2490.17,2198.04 2470.83,2186.09 2470.83,2186.09
             2470.83,2186.09 2450.14,2174.74 2450.14,2174.74
             2450.14,2174.74 2443.82,2169.31 2443.82,2169.31
             2443.82,2169.31 2424.00,2155.78 2424.00,2155.78
             2424.00,2155.78 2408.96,2148.00 2408.96,2148.00
             2408.96,2148.00 2403.28,2146.01 2403.28,2146.01
             2403.28,2146.01 2396.99,2141.44 2396.99,2141.44
             2396.99,2141.44 2386.00,2136.79 2386.00,2136.79
             2386.00,2136.79 2379.58,2132.00 2379.58,2132.00
             2377.04,2130.62 2375.70,2131.66 2372.00,2130.24
             2372.00,2130.24 2355.00,2122.91 2355.00,2122.91
             2355.00,2122.91 2346.00,2120.23 2346.00,2120.23
             2346.00,2120.23 2337.00,2116.34 2337.00,2116.34
             2324.35,2111.89 2317.84,2113.43 2308.52,2102.04
             2305.65,2098.53 2304.65,2097.47 2304.00,2093.00
             2301.07,2091.97 2299.49,2087.65 2297.89,2085.00
             2297.89,2085.00 2285.02,2063.58 2285.02,2063.58
             2276.08,2051.80 2273.38,2057.03 2268.89,2046.72
             2268.10,2044.91 2268.18,2043.95 2267.78,2042.16
             2267.78,2042.16 2266.41,2036.91 2266.41,2036.91
             2266.02,2033.83 2267.21,2032.52 2266.41,2028.00
             2266.41,2028.00 2262.26,2012.91 2262.26,2012.91
             2262.26,2012.91 2261.00,1994.00 2261.00,1994.00
             2260.85,1981.24 2259.44,1985.19 2259.11,1981.08
             2258.83,1979.36 2259.66,1978.69 2259.11,1976.34
             2259.11,1976.34 2256.08,1965.00 2256.08,1965.00
             2256.08,1965.00 2256.08,1956.00 2256.08,1956.00
             2256.08,1956.00 2254.72,1945.00 2254.72,1945.00
             2253.61,1936.17 2251.90,1936.53 2252.00,1927.00
             2252.00,1927.00 2253.00,1912.00 2253.00,1912.00
             2253.00,1912.00 2252.00,1917.00 2252.00,1917.00
             2250.82,1912.85 2250.02,1893.25 2250.00,1888.00
             2250.00,1888.00 2248.16,1860.04 2248.16,1860.04
             2248.58,1856.38 2250.31,1855.84 2250.86,1851.96
             2251.67,1846.26 2250.28,1840.64 2250.04,1835.00
             2249.83,1830.25 2250.95,1827.01 2248.00,1823.00
             2253.24,1813.06 2248.21,1788.10 2253.51,1777.10
             2254.95,1774.12 2258.13,1772.56 2260.47,1770.07
             2260.47,1770.07 2265.49,1763.67 2265.49,1763.67
             2265.49,1763.67 2270.57,1760.20 2270.57,1760.20
             2273.01,1758.19 2279.34,1749.25 2280.80,1746.42
             2284.04,1740.14 2280.54,1737.68 2288.07,1725.84
             2290.03,1722.75 2289.74,1722.02 2293.00,1720.00
             2293.82,1715.72 2294.13,1714.26 2298.00,1712.00
             2298.00,1701.97 2298.58,1703.71 2299.71,1695.00
             2300.85,1686.24 2298.86,1681.55 2309.00,1678.00
             2309.00,1678.00 2308.00,1675.00 2308.00,1675.00
             2311.09,1673.31 2317.85,1668.09 2319.27,1664.87
             2319.27,1664.87 2321.12,1658.00 2321.12,1658.00
             2323.71,1651.99 2328.89,1647.48 2317.00,1642.00
             2320.57,1637.25 2321.29,1635.86 2320.00,1630.00
             2324.18,1627.97 2324.80,1627.04 2327.00,1623.00
             2332.79,1625.88 2333.88,1626.52 2340.00,1624.00
             2340.00,1624.00 2333.22,1620.27 2333.22,1620.27
             2329.64,1617.47 2329.65,1612.14 2330.00,1608.00
             2319.91,1597.67 2339.21,1594.92 2346.00,1594.00
             2346.00,1594.00 2344.00,1589.00 2344.00,1589.00
             2344.00,1589.00 2352.00,1594.00 2352.00,1594.00
             2352.00,1594.00 2360.00,1593.00 2360.00,1593.00
             2360.00,1593.00 2352.00,1592.00 2352.00,1592.00
             2352.00,1592.00 2360.00,1590.00 2360.00,1590.00
             2360.00,1590.00 2357.00,1587.00 2357.00,1587.00
             2369.50,1579.51 2369.92,1585.56 2379.00,1577.00
             2379.00,1577.00 2376.00,1576.00 2376.00,1576.00
             2376.00,1576.00 2376.00,1571.00 2376.00,1571.00
             2386.87,1568.15 2395.35,1558.36 2405.00,1553.00
             2401.99,1551.90 2401.24,1552.00 2400.00,1555.00
             2398.52,1551.55 2397.63,1546.20 2393.79,1544.68
             2387.66,1542.24 2383.63,1548.22 2378.05,1541.55
             2372.60,1535.44 2379.56,1533.22 2378.05,1527.10
             2376.12,1517.31 2358.05,1514.04 2350.00,1516.00
             2352.79,1509.59 2350.40,1510.54 2351.83,1505.00
             2351.83,1505.00 2354.86,1495.00 2354.86,1495.00
             2354.86,1495.00 2358.16,1488.00 2358.16,1488.00
             2358.16,1488.00 2359.79,1480.00 2359.79,1480.00
             2362.46,1471.60 2364.22,1472.87 2366.00,1468.89
             2366.00,1468.89 2368.91,1457.00 2368.91,1457.00
             2371.25,1451.56 2375.32,1448.68 2377.46,1444.91
             2377.46,1444.91 2385.28,1426.26 2385.28,1426.26
             2385.28,1426.26 2391.25,1419.70 2391.25,1419.70
             2397.00,1411.23 2401.09,1401.80 2403.91,1392.00
             2405.23,1387.42 2406.63,1385.98 2406.00,1381.00
             2406.00,1381.00 2415.00,1360.00 2415.00,1360.00
             2415.00,1360.00 2416.00,1345.00 2416.00,1345.00
             2420.48,1342.10 2422.12,1338.88 2424.00,1334.00
             2430.86,1338.39 2430.23,1337.73 2438.00,1336.00
             2434.48,1330.08 2432.95,1328.20 2426.00,1328.00
             2426.00,1328.00 2429.00,1324.00 2429.00,1324.00
             2429.00,1324.00 2428.00,1321.00 2428.00,1321.00
             2434.66,1318.41 2432.92,1318.24 2440.00,1320.00
             2442.96,1315.29 2448.91,1315.51 2454.00,1314.40
             2460.62,1312.94 2460.22,1311.16 2464.04,1310.30
             2468.87,1309.22 2478.85,1311.39 2483.00,1314.00
             2483.00,1314.00 2496.00,1316.00 2496.00,1316.00
             2496.00,1316.00 2500.00,1308.00 2500.00,1308.00
             2506.19,1308.76 2505.97,1308.94 2512.00,1307.00
             2512.00,1307.00 2516.00,1310.00 2516.00,1310.00
             2517.15,1303.42 2513.94,1304.32 2511.00,1298.00
             2514.67,1298.76 2518.82,1297.95 2517.34,1293.01
             2516.25,1289.34 2512.41,1288.39 2510.74,1286.46
             2509.28,1284.78 2508.69,1281.23 2508.00,1279.00
             2508.00,1279.00 2512.00,1275.00 2512.00,1275.00
             2507.63,1274.78 2508.24,1273.90 2505.58,1270.86
             2499.89,1264.36 2497.73,1259.68 2497.00,1251.00
             2497.00,1251.00 2502.00,1251.00 2502.00,1251.00
             2502.00,1251.00 2497.00,1240.00 2497.00,1240.00
             2497.00,1240.00 2493.00,1241.00 2493.00,1241.00
             2493.00,1241.00 2485.25,1226.99 2485.25,1226.99
             2483.49,1222.62 2484.42,1219.44 2482.15,1216.75
             2481.02,1215.41 2467.56,1206.10 2464.31,1201.96
             2459.39,1195.69 2465.42,1187.96 2454.00,1183.00
             2456.64,1176.75 2455.65,1178.53 2455.02,1172.72
             2454.92,1170.80 2455.46,1168.89 2455.02,1167.00
             2453.99,1163.49 2444.40,1152.02 2441.32,1144.00
             2438.52,1136.71 2441.06,1132.11 2435.00,1123.00
             2435.00,1123.00 2431.00,1135.00 2431.00,1135.00
             2428.56,1126.68 2430.28,1121.57 2419.00,1124.00
             2419.00,1124.00 2412.19,1108.00 2412.19,1108.00
             2412.19,1108.00 2410.09,1098.00 2410.09,1098.00
             2410.09,1098.00 2403.75,1087.00 2403.75,1087.00
             2403.75,1087.00 2395.00,1069.00 2395.00,1069.00
             2395.00,1069.00 2393.00,1072.00 2393.00,1072.00
             2393.00,1072.00 2392.00,1067.00 2392.00,1067.00
             2392.00,1067.00 2389.00,1069.00 2389.00,1069.00
             2389.00,1069.00 2388.00,1064.00 2388.00,1064.00
             2388.00,1064.00 2394.00,1064.00 2394.00,1064.00
             2394.00,1064.00 2390.75,1056.00 2390.75,1056.00
             2390.75,1056.00 2389.52,1050.28 2389.52,1050.28
             2389.52,1050.28 2385.77,1041.00 2385.77,1041.00
             2385.77,1041.00 2384.10,1023.00 2384.10,1023.00
             2384.10,1023.00 2377.10,1007.00 2377.10,1007.00
             2377.10,1007.00 2378.62,990.00 2378.62,990.00
             2378.62,990.00 2376.00,975.00 2376.00,975.00
             2376.00,975.00 2375.00,978.00 2375.00,978.00
             2375.00,978.00 2373.00,978.00 2373.00,978.00
             2373.00,978.00 2372.00,977.00 2372.00,977.00
             2376.05,966.25 2375.98,967.36 2376.00,956.00
             2376.00,953.19 2375.79,949.62 2377.17,947.10
             2379.77,942.39 2386.33,940.47 2390.68,937.89
             2390.68,937.89 2401.54,929.39 2401.54,929.39
             2407.06,924.39 2420.67,905.65 2424.68,898.83
             2426.61,895.54 2432.40,881.83 2433.42,878.00
             2438.76,857.84 2438.49,840.51 2436.88,820.00
             2436.88,820.00 2436.88,811.00 2436.88,811.00
             2436.10,807.53 2434.60,804.32 2433.52,801.00
             2433.52,801.00 2431.41,792.00 2431.41,792.00
             2429.03,782.82 2427.24,785.02 2428.00,774.00
             2428.00,774.00 2424.00,772.00 2424.00,772.00
             2424.00,772.00 2426.00,769.00 2426.00,769.00
             2426.00,769.00 2422.00,769.00 2422.00,769.00
             2422.00,769.00 2420.00,761.00 2420.00,761.00
             2420.00,761.00 2418.00,762.00 2418.00,762.00
             2418.00,762.00 2419.00,759.00 2419.00,759.00
             2415.03,754.90 2406.45,740.48 2405.00,735.00
             2405.00,735.00 2403.00,736.00 2403.00,736.00
             2403.00,736.00 2395.89,723.39 2395.89,723.39
             2395.89,723.39 2395.89,721.00 2395.89,721.00
             2391.12,718.92 2387.47,715.52 2387.00,710.00
             2387.00,710.00 2384.00,707.00 2384.00,707.00
             2384.00,707.00 2383.00,707.00 2383.00,707.00
             2383.00,707.00 2383.00,709.00 2383.00,709.00
             2380.09,703.04 2379.60,698.16 2372.00,697.00
             2372.41,693.58 2372.68,691.93 2369.00,691.00
             2369.00,691.00 2363.00,687.00 2363.00,687.00
             2363.00,687.00 2365.00,685.00 2365.00,685.00
             2365.00,685.00 2358.00,683.00 2358.00,683.00
             2358.00,683.00 2360.00,681.00 2360.00,681.00
             2360.00,681.00 2350.00,675.00 2350.00,675.00
             2350.00,675.00 2351.00,672.00 2351.00,672.00
             2345.49,668.93 2339.69,665.16 2336.00,660.00
             2333.11,659.27 2332.70,658.92 2332.00,656.00
             2332.00,656.00 2329.00,655.00 2329.00,655.00
             2328.95,649.75 2325.68,648.92 2321.00,649.00
             2321.00,649.00 2319.00,641.00 2319.00,641.00
             2319.00,641.00 2317.00,644.00 2317.00,644.00
             2315.23,639.44 2314.34,633.72 2310.00,631.00
             2309.55,627.27 2308.89,624.94 2305.00,624.00
             2304.85,621.48 2304.82,618.39 2304.10,616.00
             2304.10,616.00 2292.93,594.26 2292.93,594.26
             2292.93,594.26 2288.88,589.74 2288.88,589.74
             2288.88,589.74 2284.96,582.28 2284.96,582.28
             2281.58,577.33 2276.32,573.19 2275.00,567.00
             2265.89,559.41 2268.27,555.45 2262.83,549.01
             2262.83,549.01 2255.52,541.90 2255.52,541.90
             2252.72,538.55 2252.32,536.13 2248.79,532.58
             2243.59,527.36 2240.47,526.30 2234.51,518.96
             2232.02,515.89 2221.52,503.29 2218.83,501.79
             2217.06,500.81 2216.77,501.10 2215.00,501.00
             2215.00,501.00 2213.00,493.00 2213.00,493.00
             2213.00,493.00 2210.00,494.00 2210.00,494.00
             2206.32,486.65 2199.84,483.55 2194.26,478.41
             2188.78,473.36 2190.47,469.87 2180.00,467.00
             2179.08,462.91 2174.29,459.33 2171.27,456.49
             2171.27,456.49 2160.21,446.69 2160.21,446.69
             2160.21,446.69 2156.41,442.76 2156.41,442.76
             2153.93,440.62 2153.11,440.91 2149.09,436.97
             2149.09,436.97 2126.84,417.01 2126.84,417.01
             2126.84,417.01 2121.46,413.76 2121.46,413.76
             2121.46,413.76 2115.83,409.16 2115.83,409.16
             2115.83,409.16 2108.26,404.09 2108.26,404.09
             2108.26,404.09 2103.77,399.80 2103.77,399.80
             2103.77,399.80 2091.96,390.04 2091.96,390.04
             2091.96,390.04 2080.28,382.55 2080.28,382.55
             2080.28,382.55 2068.83,372.53 2068.83,372.53
             2068.83,372.53 2062.00,368.87 2062.00,368.87
             2062.00,368.87 2055.00,364.22 2055.00,364.22
             2055.00,364.22 2046.00,359.68 2046.00,359.68
             2046.00,359.68 2038.57,353.66 2038.57,353.66
             2035.09,351.07 2034.34,351.72 2031.00,348.00
             2025.77,346.99 2017.65,339.88 2011.00,337.37
             2011.00,337.37 2000.00,333.87 2000.00,333.87
             2000.00,333.87 1992.28,329.68 1992.28,329.68
             1992.28,329.68 1983.00,326.74 1983.00,326.74
             1983.00,326.74 1960.00,316.60 1960.00,316.60
             1960.00,316.60 1946.00,311.42 1946.00,311.42
             1946.00,311.42 1932.91,305.24 1932.91,305.24
             1932.91,305.24 1924.04,302.21 1924.04,302.21
             1924.04,302.21 1911.00,296.55 1911.00,296.55
             1911.00,296.55 1876.04,288.04 1876.04,288.04
             1870.25,286.75 1868.71,284.68 1860.00,283.85
             1860.00,283.85 1850.00,283.85 1850.00,283.85
             1850.00,283.85 1839.00,283.04 1839.00,283.04
             1839.00,283.04 1803.00,284.83 1803.00,284.83
             1788.53,284.15 1765.29,285.87 1751.00,288.46
             1751.00,288.46 1742.00,290.68 1742.00,290.68
             1742.00,290.68 1735.00,291.67 1735.00,291.67
             1735.00,291.67 1715.00,296.88 1715.00,296.88
             1715.00,296.88 1690.00,300.32 1690.00,300.32
             1682.28,301.59 1657.04,308.43 1650.17,311.37
             1650.17,311.37 1645.83,313.63 1645.83,313.63
             1645.83,313.63 1632.00,316.95 1632.00,316.95
             1632.00,316.95 1620.28,322.78 1620.28,322.78
             1620.28,322.78 1595.96,329.44 1595.96,329.44
             1580.28,333.04 1586.47,328.65 1567.00,336.19
             1560.05,338.88 1544.30,341.46 1545.00,351.00 Z
           M 1782.00,286.00
           C 1782.00,286.00 1782.00,287.00 1782.00,287.00
             1782.00,287.00 1781.00,286.00 1781.00,286.00
             1781.00,286.00 1782.00,286.00 1782.00,286.00 Z
           M 1787.00,286.00
           C 1787.00,286.00 1787.00,287.00 1787.00,287.00
             1787.00,287.00 1786.00,286.00 1786.00,286.00
             1786.00,286.00 1787.00,286.00 1787.00,286.00 Z
           M 1789.00,286.00
           C 1789.00,286.00 1789.00,287.00 1789.00,287.00
             1789.00,287.00 1788.00,286.00 1788.00,286.00
             1788.00,286.00 1789.00,286.00 1789.00,286.00 Z
           M 1791.00,286.00
           C 1791.00,286.00 1791.00,287.00 1791.00,287.00
             1791.00,287.00 1790.00,286.00 1790.00,286.00
             1790.00,286.00 1791.00,286.00 1791.00,286.00 Z
           M 2306.00,621.00
           C 2306.00,621.00 2306.00,622.00 2306.00,622.00
             2306.00,622.00 2307.00,621.00 2307.00,621.00
             2307.00,621.00 2306.00,621.00 2306.00,621.00 Z
           M 2331.00,656.00
           C 2331.00,656.00 2331.00,657.00 2331.00,657.00
             2331.00,657.00 2330.00,656.00 2330.00,656.00
             2330.00,656.00 2331.00,656.00 2331.00,656.00 Z
           M 2349.00,672.00
           C 2349.00,672.00 2349.00,673.00 2349.00,673.00
             2349.00,673.00 2348.00,672.00 2348.00,672.00
             2348.00,672.00 2349.00,672.00 2349.00,672.00 Z
           M 2350.00,673.00
           C 2350.00,673.00 2350.00,674.00 2350.00,674.00
             2350.00,674.00 2349.00,673.00 2349.00,673.00
             2349.00,673.00 2350.00,673.00 2350.00,673.00 Z
           M 2355.00,677.00
           C 2355.00,677.00 2355.00,678.00 2355.00,678.00
             2355.00,678.00 2354.00,677.00 2354.00,677.00
             2354.00,677.00 2355.00,677.00 2355.00,677.00 Z
           M 2358.00,681.00
           C 2358.00,681.00 2358.00,682.00 2358.00,682.00
             2358.00,682.00 2357.00,681.00 2357.00,681.00
             2357.00,681.00 2358.00,681.00 2358.00,681.00 Z
           M 2363.00,685.00
           C 2363.00,685.00 2363.00,686.00 2363.00,686.00
             2363.00,686.00 2362.00,685.00 2362.00,685.00
             2362.00,685.00 2363.00,685.00 2363.00,685.00 Z
           M 2384.00,709.00
           C 2384.00,709.00 2384.00,710.00 2384.00,710.00
             2384.00,710.00 2383.00,709.00 2383.00,709.00
             2383.00,709.00 2384.00,709.00 2384.00,709.00 Z
           M 2430.00,785.00
           C 2430.00,785.00 2430.00,786.00 2430.00,786.00
             2430.00,786.00 2431.00,785.00 2431.00,785.00
             2431.00,785.00 2430.00,785.00 2430.00,785.00 Z
           M 2385.00,1063.00
           C 2385.00,1063.00 2385.00,1064.00 2385.00,1064.00
             2385.00,1064.00 2384.00,1063.00 2384.00,1063.00
             2384.00,1063.00 2385.00,1063.00 2385.00,1063.00 Z
           M 2452.00,1175.00
           C 2452.00,1175.00 2446.00,1178.00 2446.00,1178.00
             2446.00,1178.00 2447.00,1174.00 2447.00,1174.00
             2447.00,1174.00 2452.00,1175.00 2452.00,1175.00 Z
           M 1130.00,1242.00
           C 1130.00,1242.00 1126.00,1246.00 1126.00,1246.00
             1127.07,1242.93 1126.93,1243.07 1130.00,1242.00 Z
           M 1105.00,1255.00
           C 1105.00,1255.00 1105.00,1256.00 1105.00,1256.00
             1105.00,1256.00 1104.00,1255.00 1104.00,1255.00
             1104.00,1255.00 1105.00,1255.00 1105.00,1255.00 Z
           M 2496.00,1312.00
           C 2496.00,1312.00 2496.00,1313.00 2496.00,1313.00
             2496.00,1313.00 2495.00,1312.00 2495.00,1312.00
             2495.00,1312.00 2496.00,1312.00 2496.00,1312.00 Z
           M 2429.00,1319.00
           C 2429.00,1319.00 2429.00,1320.00 2429.00,1320.00
             2429.00,1320.00 2428.00,1319.00 2428.00,1319.00
             2428.00,1319.00 2429.00,1319.00 2429.00,1319.00 Z
           M 2441.00,1321.00
           C 2441.00,1321.00 2444.00,1324.00 2444.00,1324.00
             2444.00,1324.00 2441.00,1321.00 2441.00,1321.00 Z
           M 1151.00,1454.00
           C 1151.00,1454.00 1151.00,1455.00 1151.00,1455.00
             1151.00,1455.00 1152.00,1454.00 1152.00,1454.00
             1152.00,1454.00 1151.00,1454.00 1151.00,1454.00 Z
           M 2360.00,1492.00
           C 2360.00,1492.00 2362.00,1496.00 2362.00,1496.00
             2362.00,1496.00 2360.00,1492.00 2360.00,1492.00 Z
           M 1247.00,1560.00
           C 1246.53,1564.35 1246.41,1566.45 1242.00,1568.00
             1242.00,1568.00 1247.00,1560.00 1247.00,1560.00 Z
           M 2376.00,1576.00
           C 2376.00,1576.00 2376.00,1577.00 2376.00,1577.00
             2376.00,1577.00 2375.00,1576.00 2375.00,1576.00
             2375.00,1576.00 2376.00,1576.00 2376.00,1576.00 Z
           M 2312.00,1671.00
           C 2312.00,1671.00 2312.00,1672.00 2312.00,1672.00
             2312.00,1672.00 2311.00,1671.00 2311.00,1671.00
             2311.00,1671.00 2312.00,1671.00 2312.00,1671.00 Z
           M 1278.00,2059.00
           C 1278.00,2059.00 1278.00,2060.00 1278.00,2060.00
             1278.00,2060.00 1277.00,2059.00 1277.00,2059.00
             1277.00,2059.00 1278.00,2059.00 1278.00,2059.00 Z
           M 1220.00,2082.00
           C 1220.00,2082.00 1220.00,2083.00 1220.00,2083.00
             1220.00,2083.00 1219.00,2082.00 1219.00,2082.00
             1219.00,2082.00 1220.00,2082.00 1220.00,2082.00 Z
           M 1192.00,2096.00
           C 1192.00,2096.00 1192.00,2097.00 1192.00,2097.00
             1192.00,2097.00 1193.00,2096.00 1193.00,2096.00
             1193.00,2096.00 1192.00,2096.00 1192.00,2096.00 Z
           M 2472.00,2187.00
           C 2472.00,2187.00 2472.00,2188.00 2472.00,2188.00
             2472.00,2188.00 2471.00,2187.00 2471.00,2187.00
             2471.00,2187.00 2472.00,2187.00 2472.00,2187.00 Z
           M 996.00,2206.00
           C 996.00,2206.00 996.00,2207.00 996.00,2207.00
             996.00,2207.00 995.00,2206.00 995.00,2206.00
             995.00,2206.00 996.00,2206.00 996.00,2206.00 Z
           M 737.00,2337.00
           C 737.00,2337.00 737.00,2338.00 737.00,2338.00
             737.00,2338.00 736.00,2337.00 736.00,2337.00
             736.00,2337.00 737.00,2337.00 737.00,2337.00 Z
           M 309.00,2606.00
           C 309.00,2606.00 309.00,2607.00 309.00,2607.00
             309.00,2607.00 308.00,2606.00 308.00,2606.00
             308.00,2606.00 309.00,2606.00 309.00,2606.00 Z
           M 3276.00,2654.00
           C 3276.00,2654.00 3276.00,2655.00 3276.00,2655.00
             3276.00,2655.00 3275.00,2654.00 3275.00,2654.00
             3275.00,2654.00 3276.00,2654.00 3276.00,2654.00 Z
           M 268.00,2660.00
           C 268.00,2660.00 268.00,2661.00 268.00,2661.00
             268.00,2661.00 267.00,2660.00 267.00,2660.00
             267.00,2660.00 268.00,2660.00 268.00,2660.00 Z
           M 207.00,2741.00
           C 207.00,2741.00 207.00,2742.00 207.00,2742.00
             207.00,2742.00 206.00,2741.00 206.00,2741.00
             206.00,2741.00 207.00,2741.00 207.00,2741.00 Z
           M 154.00,2827.00
           C 154.00,2827.00 154.00,2828.00 154.00,2828.00
             154.00,2828.00 155.00,2827.00 155.00,2827.00
             155.00,2827.00 154.00,2827.00 154.00,2827.00 Z
           M 3470.00,2865.00
           C 3470.00,2865.00 3470.00,2866.00 3470.00,2866.00
             3470.00,2866.00 3471.00,2865.00 3471.00,2865.00
             3471.00,2865.00 3470.00,2865.00 3470.00,2865.00 Z
           M 3531.00,2967.00
           C 3531.00,2967.00 3531.00,2968.00 3531.00,2968.00
             3531.00,2968.00 3530.00,2967.00 3530.00,2967.00
             3530.00,2967.00 3531.00,2967.00 3531.00,2967.00 Z
           M 3575.00,3041.00
           C 3575.00,3041.00 3575.00,3042.00 3575.00,3042.00
             3575.00,3042.00 3576.00,3041.00 3576.00,3041.00
             3576.00,3041.00 3575.00,3041.00 3575.00,3041.00 Z" />
</svg>
