<?xml version="1.0" encoding="UTF-8" standalone="no"?>
<!DOCTYPE svg PUBLIC "-//W3C//DTD SVG 20010904//EN"
              "http://www.w3.org/TR/2001/REC-SVG-20010904/DTD/svg10.dtd">

<svg xmlns="http://www.w3.org/2000/svg"
     width="11.4667in" height="12.4733in"
     viewBox="0 0 3440 3742">
  <path id="face"
        fill="none" stroke="black" stroke-width="1"
        d="M 1768.00,481.00
           C 1768.00,481.00 1769.00,483.00 1769.00,483.00
             1769.00,483.00 1755.91,482.22 1755.91,482.22
             1749.78,482.41 1749.85,483.98 1740.00,484.00
             1731.05,484.01 1716.60,484.78 1708.00,486.51
             1708.00,486.51 1694.42,489.88 1694.42,489.88
             1694.42,489.88 1688.00,490.47 1688.00,490.47
             1675.95,492.57 1675.28,499.43 1664.00,499.00
             1662.68,503.95 1657.45,505.86 1654.05,509.30
             1654.05,509.30 1648.59,516.68 1648.59,516.68
             1648.59,516.68 1641.47,523.09 1641.47,523.09
             1639.51,525.46 1638.36,528.54 1635.81,530.40
             1631.02,533.92 1625.98,530.35 1622.00,537.00
             1617.11,537.24 1606.71,539.81 1604.00,544.00
             1604.00,544.00 1600.00,543.00 1600.00,543.00
             1596.70,545.44 1591.99,545.69 1588.00,546.86
             1588.00,546.86 1577.72,550.49 1577.72,550.49
             1577.72,550.49 1568.42,551.73 1568.42,551.73
             1564.08,553.41 1561.46,557.33 1557.83,559.90
             1557.83,559.90 1535.01,574.91 1535.01,574.91
             1535.01,574.91 1520.91,584.09 1520.91,584.09
             1517.45,586.35 1514.97,586.68 1514.00,591.00
             1514.00,591.00 1496.17,598.04 1496.17,598.04
             1496.17,598.04 1490.91,601.65 1490.91,601.65
             1482.95,606.29 1480.85,602.44 1477.00,613.00
             1473.31,612.85 1471.57,613.00 1471.00,617.00
             1466.68,617.36 1463.99,617.16 1463.00,622.00
             1459.78,623.15 1454.21,625.62 1451.68,627.84
             1448.06,631.01 1449.32,633.00 1442.00,635.00
             1442.00,635.00 1442.00,640.00 1442.00,640.00
             1434.39,641.21 1430.26,649.06 1426.50,655.00
             1419.90,665.42 1408.19,673.90 1407.00,687.00
             1401.53,687.94 1403.42,689.25 1401.26,693.28
             1401.26,693.28 1394.06,705.01 1394.06,705.01
             1390.47,712.25 1383.99,730.96 1381.71,738.99
             1381.71,738.99 1380.87,744.42 1380.87,744.42
             1379.91,748.46 1377.35,750.85 1376.51,753.28
             1376.51,753.28 1375.00,768.00 1375.00,768.00
             1371.41,768.86 1371.31,770.49 1370.83,774.00
             1369.98,779.16 1371.20,779.82 1370.83,782.72
             1370.54,785.83 1367.51,791.68 1369.00,799.00
             1364.94,802.04 1366.06,804.69 1365.09,809.42
             1363.63,816.56 1362.59,826.03 1358.00,832.00
             1358.63,838.20 1355.08,844.85 1354.08,851.09
             1354.08,851.09 1352.56,863.00 1352.56,863.00
             1352.56,863.00 1350.57,876.91 1350.57,876.91
             1350.57,876.91 1350.57,885.01 1350.57,885.01
             1350.57,885.01 1350.00,899.00 1350.00,899.00
             1350.00,899.00 1350.55,907.00 1350.55,907.00
             1350.55,907.00 1349.91,927.00 1349.91,927.00
             1349.28,936.27 1347.83,943.48 1348.53,953.00
             1348.53,953.00 1347.00,978.00 1347.00,978.00
             1347.00,978.00 1341.00,1044.00 1341.00,1044.00
             1341.01,1047.93 1343.54,1065.43 1344.49,1069.00
             1344.49,1069.00 1354.78,1095.00 1354.78,1095.00
             1358.58,1103.45 1357.66,1111.19 1364.00,1119.00
             1364.00,1119.00 1359.00,1120.00 1359.00,1120.00
             1356.27,1116.07 1346.70,1114.07 1342.00,1113.83
             1342.00,1113.83 1327.00,1113.83 1327.00,1113.83
             1318.58,1114.82 1312.29,1121.37 1307.66,1127.99
             1305.63,1130.88 1302.86,1133.40 1302.47,1137.04
             1302.47,1137.04 1300.45,1152.99 1300.45,1152.99
             1300.45,1152.99 1299.86,1162.04 1299.86,1162.04
             1299.86,1162.04 1296.00,1193.00 1296.00,1193.00
             1296.00,1193.00 1296.00,1214.00 1296.00,1214.00
             1296.02,1224.90 1298.12,1226.21 1300.87,1236.00
             1302.06,1240.26 1305.01,1251.47 1306.96,1254.83
             1306.96,1254.83 1310.30,1259.15 1310.30,1259.15
             1310.30,1259.15 1315.24,1267.09 1315.24,1267.09
             1315.24,1267.09 1324.00,1288.00 1324.00,1288.00
             1324.00,1288.00 1328.00,1288.00 1328.00,1288.00
             1328.00,1288.00 1333.35,1304.05 1333.35,1304.05
             1333.35,1304.05 1338.13,1311.09 1338.13,1311.09
             1338.13,1311.09 1340.00,1318.00 1340.00,1318.00
             1340.00,1318.00 1343.00,1317.00 1343.00,1317.00
             1343.81,1322.75 1348.00,1335.08 1353.00,1338.00
             1353.00,1338.00 1352.00,1341.00 1352.00,1341.00
             1352.00,1341.00 1360.00,1346.00 1360.00,1346.00
             1360.00,1346.00 1359.00,1348.00 1359.00,1348.00
             1359.00,1348.00 1363.00,1353.00 1363.00,1353.00
             1363.00,1353.00 1365.00,1353.00 1365.00,1353.00
             1365.05,1358.99 1368.79,1362.19 1372.00,1367.00
             1376.02,1368.10 1378.23,1372.06 1379.00,1376.00
             1385.30,1379.16 1384.02,1381.85 1387.75,1387.09
             1387.75,1387.09 1399.00,1401.00 1399.00,1401.00
             1399.00,1401.00 1433.00,1408.00 1433.00,1408.00
             1433.89,1411.20 1434.31,1413.25 1438.00,1412.00
             1438.00,1412.00 1439.79,1419.00 1439.79,1419.00
             1439.79,1419.00 1440.56,1427.00 1440.56,1427.00
             1440.56,1427.00 1444.55,1435.17 1444.55,1435.17
             1444.55,1435.17 1447.21,1447.04 1447.21,1447.04
             1447.21,1447.04 1452.42,1461.00 1452.42,1461.00
             1452.42,1461.00 1459.07,1477.23 1459.07,1477.23
             1459.07,1477.23 1461.00,1478.00 1461.00,1478.00
             1461.72,1487.05 1463.71,1490.78 1467.20,1498.99
             1469.42,1504.18 1471.16,1504.26 1471.00,1510.00
             1471.00,1510.00 1473.00,1510.00 1473.00,1510.00
             1471.64,1519.72 1485.23,1539.27 1490.40,1548.00
             1490.40,1548.00 1496.90,1559.00 1496.90,1559.00
             1496.90,1559.00 1517.00,1584.00 1517.00,1584.00
             1517.00,1584.00 1568.85,1645.00 1568.85,1645.00
             1568.85,1645.00 1594.17,1673.83 1594.17,1673.83
             1594.17,1673.83 1626.00,1701.13 1626.00,1701.13
             1626.00,1701.13 1654.00,1724.45 1654.00,1724.45
             1654.00,1724.45 1685.00,1740.25 1685.00,1740.25
             1685.00,1740.25 1710.00,1753.04 1710.00,1753.04
             1714.69,1754.73 1725.64,1755.59 1731.00,1756.16
             1731.00,1756.16 1758.00,1759.16 1758.00,1759.16
             1758.00,1759.16 1786.00,1761.97 1786.00,1761.97
             1786.00,1761.97 1817.00,1761.97 1817.00,1761.97
             1817.00,1761.97 1836.00,1761.97 1836.00,1761.97
             1836.00,1761.97 1843.00,1760.88 1843.00,1760.88
             1843.00,1760.88 1851.00,1760.88 1851.00,1760.88
             1851.00,1760.88 1879.00,1752.34 1879.00,1752.34
             1879.00,1752.34 1905.00,1743.82 1905.00,1743.82
             1905.00,1743.82 1937.00,1727.26 1937.00,1727.26
             1945.05,1723.10 1962.40,1714.33 1969.00,1709.39
             1969.00,1709.39 1990.00,1689.09 1990.00,1689.09
             1990.00,1689.09 2032.00,1650.09 2032.00,1650.09
             2032.00,1650.09 2041.91,1641.00 2041.91,1641.00
             2041.91,1641.00 2060.00,1621.00 2060.00,1621.00
             2060.00,1621.00 2094.48,1585.00 2094.48,1585.00
             2094.48,1585.00 2114.33,1555.00 2114.33,1555.00
             2114.33,1555.00 2128.78,1532.00 2128.78,1532.00
             2128.78,1532.00 2131.44,1523.00 2131.44,1523.00
             2133.19,1518.01 2136.08,1511.19 2136.00,1506.00
             2136.00,1506.00 2139.00,1505.00 2139.00,1505.00
             2138.61,1501.09 2138.53,1500.13 2141.00,1497.00
             2140.99,1492.67 2142.47,1491.87 2143.76,1488.00
             2145.98,1481.32 2144.65,1475.89 2152.00,1472.00
             2150.80,1468.18 2150.30,1467.15 2154.00,1465.00
             2154.00,1465.00 2152.00,1463.00 2152.00,1463.00
             2156.51,1456.34 2153.42,1451.67 2160.00,1448.00
             2160.00,1434.67 2161.72,1424.64 2168.60,1413.00
             2170.26,1410.20 2173.19,1404.76 2176.18,1403.06
             2178.02,1402.66 2181.89,1402.98 2184.00,1403.06
             2184.00,1403.06 2195.00,1403.06 2195.00,1403.06
             2195.00,1403.06 2212.83,1396.28 2212.83,1396.28
             2212.83,1396.28 2229.99,1379.87 2229.99,1379.87
             2233.79,1375.04 2234.42,1369.96 2240.00,1367.00
             2240.41,1362.04 2240.80,1361.64 2245.00,1359.00
             2245.00,1359.00 2244.00,1355.00 2244.00,1355.00
             2247.93,1352.30 2246.91,1349.25 2249.46,1345.42
             2251.95,1341.67 2259.79,1328.70 2261.10,1325.00
             2261.10,1325.00 2262.55,1316.85 2262.55,1316.85
             2265.10,1310.27 2267.66,1312.94 2267.00,1304.00
             2273.20,1302.02 2270.95,1299.95 2272.89,1295.00
             2272.89,1295.00 2277.85,1285.91 2277.85,1285.91
             2278.96,1282.92 2278.40,1281.53 2278.96,1279.00
             2279.75,1275.43 2282.10,1272.70 2283.39,1269.00
             2283.39,1269.00 2287.47,1258.00 2287.47,1258.00
             2287.47,1258.00 2289.03,1251.09 2289.03,1251.09
             2287.31,1255.58 2298.11,1233.70 2296.22,1237.04
             2296.22,1237.04 2299.46,1232.58 2299.46,1232.58
             2301.57,1229.39 2301.17,1225.62 2304.00,1223.00
             2303.02,1213.36 2309.02,1211.31 2309.63,1200.00
             2309.63,1200.00 2312.10,1173.00 2312.10,1173.00
             2312.10,1173.00 2313.20,1166.00 2313.20,1166.00
             2313.20,1166.00 2312.32,1154.00 2312.32,1154.00
             2313.17,1140.55 2310.74,1134.06 2305.46,1122.00
             2302.38,1114.98 2295.24,1107.80 2287.72,1105.47
             2287.72,1105.47 2280.00,1104.42 2280.00,1104.42
             2276.31,1103.94 2270.70,1103.48 2267.28,1105.08
             2267.28,1105.08 2260.99,1108.70 2260.99,1108.70
             2260.99,1108.70 2247.16,1114.43 2247.16,1114.43
             2247.16,1114.43 2239.00,1120.00 2239.00,1120.00
             2239.00,1120.00 2238.20,1119.00 2238.20,1119.00
             2238.20,1119.00 2238.20,1112.00 2238.20,1112.00
             2238.20,1112.00 2240.87,1101.00 2240.87,1101.00
             2240.87,1101.00 2247.63,1081.00 2247.63,1081.00
             2247.63,1081.00 2248.37,1074.00 2248.37,1074.00
             2248.37,1074.00 2252.90,1037.00 2252.90,1037.00
             2252.90,1037.00 2252.90,1026.00 2252.90,1026.00
             2252.90,1026.00 2251.82,1016.51 2251.82,1016.51
             2251.82,1016.51 2251.82,1009.15 2251.82,1009.15
             2251.82,1009.15 2250.03,984.00 2250.03,984.00
             2250.03,984.00 2250.03,975.09 2250.03,975.09
             2250.03,975.09 2248.00,959.00 2248.00,959.00
             2248.00,959.00 2244.77,939.00 2244.77,939.00
             2244.77,939.00 2242.59,909.00 2242.59,909.00
             2242.59,909.00 2239.08,897.00 2239.08,897.00
             2239.08,897.00 2239.08,876.00 2239.08,876.00
             2239.08,876.00 2238.00,880.00 2238.00,880.00
             2228.91,860.45 2232.03,864.34 2226.62,846.00
             2224.81,839.86 2221.77,840.15 2223.00,833.00
             2223.00,833.00 2221.23,832.17 2221.23,832.17
             2221.23,832.17 2217.00,819.00 2217.00,819.00
             2212.61,817.52 2211.52,808.24 2210.32,804.09
             2210.32,804.09 2203.73,784.04 2203.73,784.04
             2201.66,779.33 2195.99,774.82 2196.00,762.00
             2196.00,762.00 2190.00,755.00 2190.00,755.00
             2190.00,755.00 2191.00,752.00 2191.00,752.00
             2191.00,752.00 2190.00,752.00 2190.00,752.00
             2190.00,752.00 2190.00,754.00 2190.00,754.00
             2190.00,754.00 2187.00,743.00 2187.00,743.00
             2187.00,743.00 2180.23,727.96 2180.23,727.96
             2180.23,727.96 2173.91,717.72 2173.91,717.72
             2173.91,717.72 2168.79,706.96 2168.79,706.96
             2168.79,706.96 2164.00,699.00 2164.00,699.00
             2160.21,697.73 2159.56,692.58 2159.00,689.00
             2159.00,689.00 2157.00,691.00 2157.00,691.00
             2157.00,691.00 2154.00,688.00 2154.00,688.00
             2154.00,688.00 2153.00,679.00 2153.00,679.00
             2149.87,675.99 2149.49,673.89 2145.00,673.00
             2145.00,673.00 2132.00,650.00 2132.00,650.00
             2132.00,650.00 2129.00,652.00 2129.00,652.00
             2127.42,642.77 2126.65,645.85 2123.00,639.83
             2123.00,639.83 2119.77,632.00 2119.77,632.00
             2119.77,632.00 2114.86,625.00 2114.86,625.00
             2113.28,622.16 2113.46,618.75 2110.00,612.00
             2110.00,612.00 2110.00,616.00 2110.00,616.00
             2110.00,616.00 2107.00,611.00 2107.00,611.00
             2107.00,611.00 2109.00,611.00 2109.00,611.00
             2105.33,604.20 2101.14,597.80 2095.77,592.25
             2092.99,589.38 2092.15,587.25 2088.00,587.00
             2085.70,581.37 2081.06,576.35 2075.00,575.00
             2075.76,569.17 2072.48,569.61 2068.09,567.30
             2061.84,564.00 2056.75,559.61 2049.00,560.00
             2046.75,553.60 2043.67,553.91 2038.00,551.32
             2038.00,551.32 2022.85,544.72 2022.85,544.72
             2020.21,543.82 2019.74,544.71 2015.00,543.00
             2013.60,536.70 2005.23,537.00 2000.00,537.00
             2000.00,537.00 2001.00,535.00 2001.00,535.00
             2001.00,535.00 2000.00,534.00 2000.00,534.00
             1995.80,534.40 1994.42,534.69 1991.00,532.00
             1984.12,531.04 1978.24,526.37 1972.00,523.64
             1969.08,522.37 1965.79,522.18 1963.09,520.32
             1960.10,518.25 1960.12,517.16 1961.00,514.00
             1961.00,514.00 1936.00,509.80 1936.00,509.80
             1936.00,509.80 1932.04,509.80 1932.04,509.80
             1932.04,509.80 1920.00,506.68 1920.00,506.68
             1920.00,506.68 1899.00,505.83 1899.00,505.83
             1899.00,505.83 1873.00,498.45 1873.00,498.45
             1873.00,498.45 1865.00,494.55 1865.00,494.55
             1865.00,494.55 1839.00,484.31 1839.00,484.31
             1839.00,484.31 1811.09,481.13 1811.09,481.13
             1811.09,481.13 1803.00,483.00 1803.00,483.00
             1803.00,483.00 1804.00,481.00 1804.00,481.00
             1804.00,481.00 1779.99,481.83 1779.99,481.83
             1779.99,481.83 1768.00,481.00 1768.00,481.00 Z
           M 1834.00,484.00
           C 1834.00,484.00 1834.00,485.00 1834.00,485.00
             1834.00,485.00 1833.00,484.00 1833.00,484.00
             1833.00,484.00 1834.00,484.00 1834.00,484.00 Z
           M 1913.00,507.00
           C 1913.00,507.00 1913.00,508.00 1913.00,508.00
             1913.00,508.00 1912.00,507.00 1912.00,507.00
             1912.00,507.00 1913.00,507.00 1913.00,507.00 Z
           M 2034.00,550.00
           C 2034.00,550.00 2034.00,551.00 2034.00,551.00
             2034.00,551.00 2033.00,550.00 2033.00,550.00
             2033.00,550.00 2034.00,550.00 2034.00,550.00 Z
           M 2113.00,621.00
           C 2113.00,621.00 2113.00,622.00 2113.00,622.00
             2113.00,622.00 2112.00,621.00 2112.00,621.00
             2112.00,621.00 2113.00,621.00 2113.00,621.00 Z
           M 2131.00,652.00
           C 2131.00,652.00 2131.00,653.00 2131.00,653.00
             2131.00,653.00 2130.00,652.00 2130.00,652.00
             2130.00,652.00 2131.00,652.00 2131.00,652.00 Z
           M 2202.00,782.00
           C 2202.00,782.00 2202.00,783.00 2202.00,783.00
             2202.00,783.00 2201.00,782.00 2201.00,782.00
             2201.00,782.00 2202.00,782.00 2202.00,782.00 Z
           M 1349.00,960.00
           C 1349.00,960.00 1349.00,961.00 1349.00,961.00
             1349.00,961.00 1348.00,960.00 1348.00,960.00
             1348.00,960.00 1349.00,960.00 1349.00,960.00 Z
           M 1391.00,1386.00
           C 1391.00,1386.00 1391.00,1387.00 1391.00,1387.00
             1391.00,1387.00 1390.00,1386.00 1390.00,1386.00
             1390.00,1386.00 1391.00,1386.00 1391.00,1386.00 Z
           M 1473.00,1508.00
           C 1473.00,1508.00 1473.00,1509.00 1473.00,1509.00
             1473.00,1509.00 1472.00,1508.00 1472.00,1508.00
             1472.00,1508.00 1473.00,1508.00 1473.00,1508.00 Z" />
  <path id="profile"
        fill="none" stroke="black" stroke-width="1"
        d="M 1768.00,481.00
           C 1768.00,481.00 1769.00,483.00 1769.00,483.00
             1769.00,483.00 1757.00,482.08 1757.00,482.08
             1757.00,482.08 1738.00,484.00 1738.00,484.00
             1729.45,484.01 1716.28,484.78 1708.00,486.45
             1708.00,486.45 1696.00,489.33 1696.00,489.33
             1691.00,490.37 1688.50,489.87 1683.00,491.76
             1683.00,491.76 1672.00,497.12 1672.00,497.12
             1672.00,497.12 1664.28,499.98 1664.28,499.98
             1658.60,503.49 1652.15,512.13 1647.70,516.83
             1647.70,516.83 1642.18,522.09 1642.18,522.09
             1638.99,525.48 1637.43,529.34 1632.99,531.30
             1632.99,531.30 1627.00,533.14 1627.00,533.14
             1627.00,533.14 1620.00,536.62 1620.00,536.62
             1620.00,536.62 1612.00,539.09 1612.00,539.09
             1612.00,539.09 1604.00,542.52 1604.00,542.52
             1604.00,542.52 1588.00,546.75 1588.00,546.75
             1588.00,546.75 1579.00,549.91 1579.00,549.91
             1574.34,551.39 1571.01,550.66 1567.00,552.57
             1567.00,552.57 1553.00,562.67 1553.00,562.67
             1553.00,562.67 1531.00,577.31 1531.00,577.31
             1531.00,577.31 1519.01,585.04 1519.01,585.04
             1519.01,585.04 1511.83,591.19 1511.83,591.19
             1511.83,591.19 1497.00,597.69 1497.00,597.69
             1497.00,597.69 1484.00,604.53 1484.00,604.53
             1478.91,607.29 1479.02,609.80 1474.91,612.71
             1464.74,619.93 1453.37,625.41 1444.29,634.14
             1441.68,636.64 1442.11,637.62 1440.42,639.38
             1440.42,639.38 1433.18,645.10 1433.18,645.10
             1433.18,645.10 1423.11,659.00 1423.11,659.00
             1423.11,659.00 1411.09,675.00 1411.09,675.00
             1411.09,675.00 1406.74,684.79 1406.74,684.79
             1406.74,684.79 1403.05,689.37 1403.05,689.37
             1403.05,689.37 1392.01,709.00 1392.01,709.00
             1392.01,709.00 1382.43,736.00 1382.43,736.00
             1382.43,736.00 1380.37,745.00 1380.37,745.00
             1380.37,745.00 1376.55,754.00 1376.55,754.00
             1376.55,754.00 1374.87,764.96 1374.87,764.96
             1374.87,764.96 1371.43,772.09 1371.43,772.09
             1371.43,772.09 1368.51,797.00 1368.51,797.00
             1368.51,797.00 1365.94,804.00 1365.94,804.00
             1365.94,804.00 1362.52,821.00 1362.52,821.00
             1362.52,821.00 1358.48,832.00 1358.48,832.00
             1358.48,832.00 1357.10,839.00 1357.10,839.00
             1354.48,849.92 1352.24,860.77 1351.04,872.00
             1351.04,872.00 1351.04,882.00 1351.04,882.00
             1351.04,882.00 1350.00,892.00 1350.00,892.00
             1350.00,892.00 1350.00,923.00 1350.00,923.00
             1350.00,923.00 1348.13,947.00 1348.13,947.00
             1348.13,947.00 1348.13,961.42 1348.13,961.42
             1348.13,961.42 1347.00,972.00 1347.00,972.00
             1347.00,972.00 1347.00,980.00 1347.00,980.00
             1347.00,980.00 1342.83,1024.00 1342.83,1024.00
             1342.19,1030.63 1340.57,1041.76 1341.17,1048.00
             1343.41,1071.46 1346.77,1074.24 1354.58,1095.00
             1358.09,1104.35 1357.93,1110.49 1364.00,1119.00
             1354.68,1119.18 1354.30,1114.16 1341.00,1114.00
             1336.58,1113.95 1326.84,1113.64 1323.00,1114.80
             1318.42,1116.18 1314.35,1119.51 1311.18,1123.01
             1298.59,1136.95 1301.75,1147.94 1299.42,1165.00
             1296.68,1185.10 1295.97,1192.66 1296.00,1213.00
             1296.02,1222.89 1302.11,1243.80 1306.11,1253.00
             1306.11,1253.00 1314.14,1266.00 1314.14,1266.00
             1314.14,1266.00 1322.68,1284.86 1322.68,1284.86
             1324.67,1288.16 1326.19,1287.86 1327.92,1290.30
             1329.48,1292.49 1331.19,1298.99 1332.46,1302.00
             1335.64,1309.51 1336.90,1307.72 1340.00,1318.00
             1340.00,1318.00 1343.00,1317.00 1343.00,1317.00
             1344.32,1325.54 1346.62,1329.60 1350.90,1336.83
             1350.90,1336.83 1353.65,1341.71 1353.65,1341.71
             1353.65,1341.71 1358.22,1345.92 1358.22,1345.92
             1358.22,1345.92 1364.73,1355.17 1364.73,1355.17
             1365.98,1357.26 1366.42,1359.67 1368.80,1362.99
             1371.33,1366.52 1373.27,1367.47 1375.61,1370.17
             1375.61,1370.17 1379.62,1375.83 1379.62,1375.83
             1379.62,1375.83 1383.38,1380.17 1383.38,1380.17
             1388.26,1386.58 1392.08,1395.68 1399.04,1400.27
             1407.95,1406.14 1427.98,1402.24 1437.32,1413.55
             1440.25,1417.10 1439.57,1422.74 1440.79,1427.00
             1440.79,1427.00 1444.78,1437.00 1444.78,1437.00
             1444.78,1437.00 1449.19,1453.00 1449.19,1453.00
             1449.19,1453.00 1456.28,1471.00 1456.28,1471.00
             1456.28,1471.00 1460.62,1480.00 1460.62,1480.00
             1460.62,1480.00 1464.45,1493.00 1464.45,1493.00
             1464.45,1493.00 1472.27,1511.28 1472.27,1511.28
             1472.27,1511.28 1475.72,1525.00 1475.72,1525.00
             1475.72,1525.00 1482.83,1545.58 1482.83,1545.58
             1482.83,1545.58 1482.83,1569.00 1482.83,1569.00
             1482.83,1569.00 1486.00,1568.00 1486.00,1568.00
             1486.00,1568.00 1488.33,1588.00 1488.33,1588.00
             1488.33,1588.00 1488.33,1595.00 1488.33,1595.00
             1488.33,1595.00 1489.00,1603.00 1489.00,1603.00
             1492.26,1607.25 1492.93,1615.67 1493.00,1621.00
             1493.00,1621.00 1493.69,1633.00 1493.69,1633.00
             1493.69,1633.00 1492.70,1640.00 1492.70,1640.00
             1492.70,1640.00 1496.71,1656.00 1496.71,1656.00
             1496.71,1656.00 1501.73,1698.00 1501.73,1698.00
             1501.73,1698.00 1504.75,1719.00 1504.75,1719.00
             1505.22,1721.87 1506.48,1727.23 1505.40,1729.87
             1503.90,1733.52 1499.37,1733.66 1495.00,1736.05
             1495.00,1736.05 1474.00,1750.05 1474.00,1750.05
             1474.00,1750.05 1448.00,1765.51 1448.00,1765.51
             1448.00,1765.51 1438.00,1770.26 1438.00,1770.26
             1438.00,1770.26 1429.00,1775.10 1429.00,1775.10
             1429.00,1775.10 1407.00,1782.87 1407.00,1782.87
             1407.00,1782.87 1389.00,1792.40 1389.00,1792.40
             1389.00,1792.40 1369.00,1800.60 1369.00,1800.60
             1361.82,1803.56 1361.62,1804.89 1356.00,1807.97
             1356.00,1807.97 1341.00,1814.82 1341.00,1814.82
             1336.04,1817.45 1334.55,1819.94 1331.00,1821.87
             1331.00,1821.87 1322.00,1825.11 1322.00,1825.11
             1314.16,1828.51 1316.26,1831.74 1306.00,1832.00
             1306.00,1832.00 1307.00,1835.00 1307.00,1835.00
             1297.27,1835.34 1290.78,1844.84 1284.00,1850.89
             1277.82,1856.41 1275.81,1854.78 1272.37,1856.97
             1272.37,1856.97 1268.63,1860.30 1268.63,1860.30
             1266.52,1861.93 1258.41,1867.02 1256.00,1868.00
             1256.00,1868.00 1256.00,1869.00 1256.00,1869.00
             1256.00,1869.00 1258.00,1871.00 1258.00,1871.00
             1258.00,1871.00 1239.00,1879.55 1239.00,1879.55
             1239.00,1879.55 1209.00,1889.00 1209.00,1889.00
             1209.00,1889.00 1209.00,1890.00 1209.00,1890.00
             1209.00,1890.00 1211.00,1892.00 1211.00,1892.00
             1211.00,1892.00 1182.00,1903.04 1182.00,1903.04
             1169.41,1907.57 1168.23,1903.76 1160.09,1907.12
             1160.09,1907.12 1149.22,1912.72 1149.22,1912.72
             1146.30,1914.97 1146.39,1917.49 1142.87,1919.12
             1142.87,1919.12 1118.02,1926.97 1118.02,1926.97
             1112.65,1929.47 1113.40,1932.60 1109.78,1934.44
             1109.78,1934.44 1105.00,1936.06 1105.00,1936.06
             1105.00,1936.06 1089.00,1942.43 1089.00,1942.43
             1089.00,1942.43 1072.00,1951.74 1072.00,1951.74
             1072.00,1951.74 1058.00,1957.05 1058.00,1957.05
             1058.00,1957.05 1047.00,1961.73 1047.00,1961.73
             1042.12,1964.79 1037.69,1970.57 1027.00,1975.05
             1022.70,1976.85 1015.81,1977.37 1011.00,1978.00
             1011.00,1978.00 1014.00,1983.00 1014.00,1983.00
             998.89,1985.00 1003.03,1985.72 991.00,1990.96
             991.00,1990.96 982.00,1994.42 982.00,1994.42
             982.00,1994.42 973.00,1999.67 973.00,1999.67
             973.00,1999.67 959.00,2004.34 959.00,2004.34
             959.00,2004.34 945.00,2010.73 945.00,2010.73
             945.00,2010.73 937.28,2012.87 937.28,2012.87
             931.37,2015.32 930.82,2016.63 926.63,2019.04
             924.03,2020.53 915.05,2022.92 912.00,2023.00
             903.99,2031.28 888.52,2037.54 878.00,2042.98
             878.00,2042.98 856.00,2056.82 856.00,2056.82
             856.00,2056.82 845.83,2062.51 845.83,2062.51
             842.64,2063.97 841.69,2063.33 837.00,2066.09
             837.00,2066.09 820.17,2078.66 820.17,2078.66
             820.17,2078.66 814.91,2081.65 814.91,2081.65
             814.91,2081.65 800.00,2093.21 800.00,2093.21
             795.42,2097.15 794.20,2099.93 790.68,2103.58
             790.68,2103.58 781.10,2113.00 781.10,2113.00
             777.30,2117.21 777.36,2118.52 774.61,2122.00
             774.61,2122.00 768.17,2129.00 768.17,2129.00
             768.17,2129.00 761.11,2138.00 761.11,2138.00
             761.11,2138.00 744.42,2156.91 744.42,2156.91
             736.99,2164.76 736.31,2159.81 734.00,2172.00
             734.00,2172.00 731.00,2171.00 731.00,2171.00
             730.21,2177.92 722.97,2182.88 718.58,2188.00
             718.58,2188.00 699.39,2207.58 699.39,2207.58
             696.04,2211.28 695.65,2214.11 693.38,2216.70
             690.69,2219.78 681.67,2226.78 678.00,2229.00
             678.00,2229.00 675.47,2242.00 675.47,2242.00
             675.47,2242.00 676.00,2255.00 676.00,2255.00
             671.85,2256.19 673.14,2261.39 672.96,2265.00
             672.67,2271.05 668.95,2280.07 665.38,2284.91
             665.38,2284.91 648.96,2305.01 648.96,2305.01
             648.96,2305.01 635.53,2328.00 635.53,2328.00
             635.53,2328.00 629.16,2337.00 629.16,2337.00
             627.52,2340.19 628.20,2341.70 625.59,2346.00
             625.59,2346.00 615.88,2361.00 615.88,2361.00
             615.88,2361.00 611.87,2369.79 611.87,2369.79
             609.67,2373.20 606.41,2373.66 604.56,2378.02
             603.19,2381.25 603.58,2386.05 601.73,2390.00
             598.95,2395.90 593.68,2401.35 591.47,2408.00
             590.23,2411.71 589.87,2419.51 586.00,2421.00
             584.16,2428.81 581.82,2430.22 579.23,2437.00
             579.23,2437.00 573.94,2453.00 573.94,2453.00
             573.94,2453.00 563.18,2477.00 563.18,2477.00
             563.18,2477.00 557.78,2488.00 557.78,2488.00
             557.78,2488.00 553.02,2495.00 553.02,2495.00
             551.27,2498.89 553.51,2501.32 551.58,2507.00
             551.58,2507.00 544.89,2521.00 544.89,2521.00
             544.89,2521.00 543.22,2529.00 543.22,2529.00
             543.22,2529.00 538.29,2543.00 538.29,2543.00
             536.01,2548.80 533.60,2549.65 531.65,2554.00
             531.65,2554.00 527.04,2573.00 527.04,2573.00
             527.04,2573.00 521.01,2587.00 521.01,2587.00
             516.15,2598.81 512.68,2611.33 511.00,2624.00
             511.00,2624.00 508.00,2623.00 508.00,2623.00
             508.00,2623.00 501.88,2640.00 501.88,2640.00
             501.88,2640.00 495.46,2662.00 495.46,2662.00
             495.46,2662.00 491.10,2672.00 491.10,2672.00
             491.10,2672.00 489.43,2678.91 489.43,2678.91
             488.23,2681.99 486.25,2682.73 484.56,2687.01
             484.56,2687.01 474.63,2716.00 474.63,2716.00
             474.63,2716.00 473.20,2723.00 473.20,2723.00
             473.20,2723.00 468.80,2733.00 468.80,2733.00
             468.80,2733.00 467.42,2740.00 467.42,2740.00
             467.42,2740.00 463.99,2747.00 463.99,2747.00
             463.99,2747.00 456.55,2769.00 456.55,2769.00
             456.55,2769.00 448.46,2788.00 448.46,2788.00
             448.46,2788.00 445.48,2797.00 445.48,2797.00
             445.48,2797.00 440.46,2807.00 440.46,2807.00
             440.46,2807.00 434.45,2830.00 434.45,2830.00
             434.45,2830.00 423.81,2853.00 423.81,2853.00
             423.81,2853.00 418.30,2872.00 418.30,2872.00
             418.30,2872.00 400.79,2918.00 400.79,2918.00
             400.79,2918.00 398.65,2925.00 398.65,2925.00
             398.65,2925.00 393.75,2936.00 393.75,2936.00
             393.75,2936.00 390.83,2947.00 390.83,2947.00
             390.83,2947.00 385.72,2954.00 385.72,2954.00
             382.76,2958.67 384.19,2961.16 376.98,2967.94
             370.41,2974.14 367.85,2970.14 364.00,2978.00
             364.00,2978.00 372.00,2983.00 372.00,2983.00
             369.19,2984.74 364.87,2986.28 362.90,2988.42
             358.31,2993.41 357.28,2999.92 355.14,3006.00
             349.70,3021.44 344.70,3027.58 347.00,3045.00
             343.62,3045.96 343.84,3048.85 343.20,3052.00
             342.05,3057.70 340.81,3065.84 338.67,3071.00
             338.67,3071.00 319.92,3121.00 319.92,3121.00
             319.92,3121.00 313.00,3157.00 313.00,3157.00
             305.58,3155.56 299.28,3159.33 295.90,3166.00
             295.90,3166.00 291.05,3177.00 291.05,3177.00
             288.88,3180.75 285.69,3183.91 284.14,3188.00
             281.63,3194.65 285.21,3196.00 282.05,3202.00
             282.05,3202.00 277.31,3210.00 277.31,3210.00
             277.31,3210.00 270.14,3224.00 270.14,3224.00
             267.21,3229.29 263.53,3234.80 263.10,3241.00
             262.13,3254.82 276.37,3268.48 284.83,3278.00
             284.83,3278.00 292.80,3288.00 292.80,3288.00
             311.33,3311.24 325.96,3313.65 351.00,3324.62
             351.00,3324.62 358.00,3328.22 358.00,3328.22
             358.00,3328.22 368.00,3331.81 368.00,3331.81
             368.00,3331.81 389.00,3340.42 389.00,3340.42
             389.00,3340.42 426.00,3356.19 426.00,3356.19
             426.00,3356.19 446.00,3362.66 446.00,3362.66
             446.00,3362.66 469.00,3369.20 469.00,3369.20
             469.00,3369.20 483.00,3374.31 483.00,3374.31
             487.79,3376.01 494.27,3377.34 497.72,3381.13
             501.27,3385.02 500.99,3389.13 501.00,3394.00
             501.00,3394.00 501.00,3419.00 501.00,3419.00
             501.02,3429.85 502.39,3427.55 503.04,3433.73
             503.04,3433.73 503.04,3444.00 503.04,3444.00
             503.04,3444.00 503.79,3456.00 503.79,3456.00
             503.79,3456.00 502.49,3465.00 502.49,3465.00
             502.71,3468.99 503.98,3468.37 504.00,3478.00
             504.00,3478.00 504.00,3513.00 504.00,3513.00
             504.00,3513.00 505.00,3528.00 505.00,3528.00
             505.00,3528.00 509.00,3528.00 509.00,3528.00
             509.00,3528.00 506.63,3546.00 506.63,3546.00
             506.63,3546.00 508.30,3576.00 508.30,3576.00
             508.30,3576.00 515.09,3601.00 515.09,3601.00
             518.24,3612.01 517.95,3615.48 523.44,3626.96
             523.44,3626.96 527.12,3633.17 527.12,3633.17
             528.64,3636.22 528.30,3638.26 530.95,3643.00
             538.41,3656.33 539.17,3652.82 545.14,3662.00
             545.14,3662.00 560.68,3688.00 560.68,3688.00
             560.68,3688.00 566.96,3696.00 566.96,3696.00
             566.96,3696.00 574.01,3706.00 574.01,3706.00
             574.01,3706.00 576.92,3711.72 576.92,3711.72
             578.89,3714.62 582.30,3716.59 585.90,3722.00
             591.13,3729.88 590.75,3739.05 602.00,3741.92
             604.02,3742.07 606.89,3742.00 609.00,3741.92
             609.00,3741.92 972.00,3741.92 972.00,3741.92
             972.00,3741.92 2470.00,3741.92 2470.00,3741.92
             2470.00,3741.92 3013.00,3741.92 3013.00,3741.92
             3016.86,3741.99 3021.44,3742.16 3024.79,3739.91
             3028.09,3737.70 3032.49,3727.12 3034.69,3723.00
             3038.34,3716.16 3045.67,3698.42 3047.34,3691.00
             3047.34,3691.00 3050.08,3674.00 3050.08,3674.00
             3051.12,3668.09 3051.92,3667.45 3052.00,3661.00
             3052.00,3661.00 3055.09,3619.00 3055.09,3619.00
             3055.09,3619.00 3056.00,3609.00 3056.00,3609.00
             3056.00,3609.00 3056.00,3594.00 3056.00,3594.00
             3056.04,3585.89 3056.91,3587.41 3057.83,3581.00
             3057.83,3581.00 3059.28,3567.00 3059.28,3567.00
             3059.28,3567.00 3062.00,3543.00 3062.00,3543.00
             3062.00,3543.00 3065.72,3514.00 3065.72,3514.00
             3065.72,3514.00 3068.04,3493.00 3068.04,3493.00
             3068.04,3493.00 3068.04,3483.00 3068.04,3483.00
             3068.04,3483.00 3073.09,3438.00 3073.09,3438.00
             3073.09,3438.00 3074.00,3428.00 3074.00,3428.00
             3074.00,3428.00 3074.83,3402.00 3074.83,3402.00
             3075.10,3399.14 3074.62,3394.59 3076.02,3392.21
             3078.31,3388.33 3092.39,3382.94 3097.00,3380.75
             3097.00,3380.75 3111.00,3374.69 3111.00,3374.69
             3111.00,3374.69 3156.00,3352.75 3156.00,3352.75
             3156.00,3352.75 3178.00,3341.64 3178.00,3341.64
             3178.00,3341.64 3221.00,3321.14 3221.00,3321.14
             3221.00,3321.14 3275.00,3287.86 3275.00,3287.86
             3275.00,3287.86 3321.00,3264.55 3321.00,3264.55
             3330.70,3258.78 3339.41,3251.55 3348.00,3244.29
             3348.00,3244.29 3362.00,3234.11 3362.00,3234.11
             3362.00,3234.11 3373.00,3224.39 3373.00,3224.39
             3373.00,3224.39 3377.92,3220.65 3377.92,3220.65
             3377.92,3220.65 3388.29,3208.00 3388.29,3208.00
             3397.26,3197.62 3403.65,3190.64 3403.99,3176.00
             3404.13,3169.57 3402.16,3159.85 3399.36,3154.09
             3397.96,3151.22 3395.93,3150.20 3395.00,3147.00
             3390.64,3142.61 3381.36,3134.10 3379.23,3129.00
             3377.17,3124.08 3378.72,3117.80 3373.87,3110.00
             3373.87,3110.00 3366.88,3100.00 3366.88,3100.00
             3364.69,3096.25 3362.28,3090.17 3359.61,3087.18
             3355.32,3082.37 3349.41,3081.36 3345.53,3074.00
             3345.53,3074.00 3338.31,3054.00 3338.31,3054.00
             3338.31,3054.00 3332.22,3040.00 3332.22,3040.00
             3332.22,3040.00 3328.14,3025.00 3328.14,3025.00
             3328.14,3025.00 3321.89,3014.00 3321.89,3014.00
             3321.89,3014.00 3311.74,2991.00 3311.74,2991.00
             3311.74,2991.00 3288.24,2942.00 3288.24,2942.00
             3284.93,2935.26 3277.50,2922.93 3277.00,2916.00
             3273.71,2914.79 3271.78,2906.39 3270.89,2903.00
             3268.35,2893.31 3267.79,2897.49 3264.27,2890.99
             3264.27,2890.99 3259.30,2876.00 3259.30,2876.00
             3259.30,2876.00 3254.51,2866.00 3254.51,2866.00
             3254.51,2866.00 3249.68,2853.00 3249.68,2853.00
             3249.68,2853.00 3240.31,2835.00 3240.31,2835.00
             3240.31,2835.00 3221.88,2793.00 3221.88,2793.00
             3221.88,2793.00 3211.92,2775.00 3211.92,2775.00
             3211.92,2775.00 3209.39,2764.01 3209.39,2764.01
             3207.49,2758.82 3205.03,2759.15 3202.36,2753.00
             3202.36,2753.00 3197.29,2738.00 3197.29,2738.00
             3197.29,2738.00 3193.23,2729.00 3193.23,2729.00
             3193.23,2729.00 3189.69,2720.00 3189.69,2720.00
             3189.69,2720.00 3176.27,2695.00 3176.27,2695.00
             3176.27,2695.00 3161.69,2663.00 3161.69,2663.00
             3161.69,2663.00 3154.63,2649.00 3154.63,2649.00
             3154.63,2649.00 3150.83,2639.00 3150.83,2639.00
             3150.83,2639.00 3141.26,2620.00 3141.26,2620.00
             3141.26,2620.00 3133.89,2603.00 3133.89,2603.00
             3133.89,2603.00 3109.19,2553.00 3109.19,2553.00
             3109.19,2553.00 3096.26,2528.00 3096.26,2528.00
             3096.26,2528.00 3089.73,2511.00 3089.73,2511.00
             3086.43,2504.56 3084.09,2503.90 3081.53,2499.00
             3081.53,2499.00 3076.60,2487.00 3076.60,2487.00
             3076.60,2487.00 3064.82,2466.00 3064.82,2466.00
             3064.82,2466.00 3061.08,2456.00 3061.08,2456.00
             3061.08,2456.00 3056.35,2449.00 3056.35,2449.00
             3056.35,2449.00 3043.97,2427.00 3043.97,2427.00
             3043.97,2427.00 3034.01,2405.00 3034.01,2405.00
             3034.01,2405.00 3029.70,2399.00 3029.70,2399.00
             3029.70,2399.00 3025.87,2392.00 3025.87,2392.00
             3025.87,2392.00 3020.34,2384.00 3020.34,2384.00
             3020.34,2384.00 3014.78,2371.00 3014.78,2371.00
             3010.69,2363.89 3010.10,2366.08 3006.00,2356.00
             3006.00,2356.00 3008.00,2356.00 3008.00,2356.00
             3008.00,2356.00 2996.63,2343.00 2996.63,2343.00
             2996.63,2343.00 2992.54,2336.00 2992.54,2336.00
             2992.54,2336.00 2983.19,2321.00 2983.19,2321.00
             2983.19,2321.00 2973.00,2304.00 2973.00,2304.00
             2973.00,2304.00 2970.00,2305.00 2970.00,2305.00
             2967.11,2294.88 2958.12,2283.60 2951.85,2275.00
             2951.85,2275.00 2938.75,2258.00 2938.75,2258.00
             2938.75,2258.00 2932.22,2248.00 2932.22,2248.00
             2932.22,2248.00 2924.25,2238.00 2924.25,2238.00
             2924.25,2238.00 2920.34,2231.00 2920.34,2231.00
             2920.34,2231.00 2913.84,2222.00 2913.84,2222.00
             2911.95,2218.84 2910.57,2214.28 2910.89,2210.58
             2911.74,2204.26 2915.34,2197.35 2910.89,2191.58
             2903.36,2182.19 2901.02,2184.31 2895.00,2180.30
             2895.00,2180.30 2887.00,2173.98 2887.00,2173.98
             2880.19,2170.28 2880.52,2175.21 2874.00,2164.00
             2867.22,2165.66 2868.60,2160.97 2863.67,2156.41
             2860.60,2153.57 2859.01,2154.20 2855.00,2150.00
             2853.21,2149.94 2851.94,2150.12 2850.30,2149.10
             2850.30,2149.10 2839.86,2138.17 2839.86,2138.17
             2833.42,2130.55 2832.09,2132.56 2827.04,2128.59
             2821.99,2124.62 2823.20,2122.59 2816.00,2122.00
             2816.00,2122.00 2817.00,2119.00 2817.00,2119.00
             2817.00,2119.00 2808.00,2116.00 2808.00,2116.00
             2806.95,2111.01 2802.98,2110.23 2799.05,2107.57
             2790.06,2101.47 2791.64,2097.07 2782.00,2095.00
             2780.92,2090.17 2777.80,2091.07 2774.04,2088.78
             2769.45,2085.98 2769.98,2083.50 2764.00,2084.00
             2764.00,2084.00 2765.00,2081.00 2765.00,2081.00
             2765.00,2081.00 2747.09,2069.51 2747.09,2069.51
             2747.09,2069.51 2741.83,2064.80 2741.83,2064.80
             2741.83,2064.80 2736.00,2061.29 2736.00,2061.29
             2727.99,2056.29 2723.91,2052.48 2714.00,2052.00
             2714.00,2052.00 2714.00,2048.00 2714.00,2048.00
             2714.00,2048.00 2697.00,2040.88 2697.00,2040.88
             2697.00,2040.88 2690.09,2038.51 2690.09,2038.51
             2690.09,2038.51 2684.83,2035.40 2684.83,2035.40
             2684.83,2035.40 2678.00,2032.62 2678.00,2032.62
             2678.00,2032.62 2670.00,2027.90 2670.00,2027.90
             2670.00,2027.90 2664.00,2024.93 2664.00,2024.93
             2664.00,2024.93 2657.00,2019.85 2657.00,2019.85
             2657.00,2019.85 2650.00,2016.88 2650.00,2016.88
             2650.00,2016.88 2643.00,2012.64 2643.00,2012.64
             2643.00,2012.64 2627.00,2005.06 2627.00,2005.06
             2627.00,2005.06 2605.00,1989.97 2605.00,1989.97
             2605.00,1989.97 2596.00,1986.11 2596.00,1986.11
             2596.00,1986.11 2574.00,1974.55 2574.00,1974.55
             2574.00,1974.55 2564.00,1968.00 2564.00,1968.00
             2555.47,1966.62 2557.28,1961.30 2544.00,1961.00
             2542.41,1956.55 2539.96,1956.83 2536.00,1954.54
             2532.81,1952.69 2522.27,1946.19 2520.00,1944.00
             2515.27,1943.28 2504.72,1935.94 2500.00,1933.35
             2494.16,1930.13 2491.43,1930.02 2485.00,1930.00
             2485.00,1930.00 2486.00,1928.00 2486.00,1928.00
             2478.98,1927.43 2478.62,1924.95 2473.00,1921.47
             2473.00,1921.47 2460.04,1914.88 2460.04,1914.88
             2460.04,1914.88 2452.91,1909.08 2452.91,1909.08
             2452.91,1909.08 2431.00,1902.00 2431.00,1902.00
             2431.00,1902.00 2432.00,1899.00 2432.00,1899.00
             2425.11,1896.70 2420.33,1894.28 2413.00,1896.00
             2407.63,1886.00 2400.67,1884.56 2391.00,1880.42
             2391.00,1880.42 2364.00,1868.57 2364.00,1868.57
             2364.00,1868.57 2348.00,1861.01 2348.00,1861.01
             2348.00,1861.01 2337.00,1857.08 2337.00,1857.08
             2337.00,1857.08 2330.00,1852.09 2330.00,1852.09
             2330.00,1852.09 2313.00,1841.73 2313.00,1841.73
             2313.00,1841.73 2284.00,1826.23 2284.00,1826.23
             2284.00,1826.23 2276.09,1822.92 2276.09,1822.92
             2276.09,1822.92 2268.96,1817.24 2268.96,1817.24
             2264.32,1814.08 2259.28,1811.42 2255.04,1807.68
             2255.04,1807.68 2249.41,1801.61 2249.41,1801.61
             2246.69,1799.47 2244.62,1801.01 2242.41,1799.81
             2240.73,1798.90 2239.84,1796.63 2239.00,1795.00
             2234.82,1794.01 2231.57,1790.54 2228.00,1788.21
             2223.06,1784.99 2222.71,1785.92 2219.00,1784.06
             2219.00,1784.06 2212.00,1779.91 2212.00,1779.91
             2212.00,1779.91 2205.00,1776.96 2205.00,1776.96
             2200.80,1774.72 2199.05,1772.43 2194.00,1770.78
             2187.97,1768.82 2179.59,1768.15 2174.00,1765.32
             2174.00,1765.32 2145.00,1743.44 2145.00,1743.44
             2145.00,1743.44 2126.00,1731.60 2126.00,1731.60
             2122.60,1729.58 2118.07,1727.58 2116.09,1723.96
             2114.54,1720.85 2115.95,1711.28 2116.09,1707.00
             2116.09,1707.00 2119.29,1669.00 2119.29,1669.00
             2119.29,1669.00 2121.83,1655.00 2121.83,1655.00
             2121.83,1655.00 2124.05,1627.00 2124.05,1627.00
             2124.05,1627.00 2124.05,1618.00 2124.05,1618.00
             2125.16,1609.79 2127.98,1606.94 2128.00,1597.00
             2128.00,1597.00 2128.00,1546.00 2128.00,1546.00
             2128.02,1533.94 2131.75,1520.36 2136.00,1509.09
             2136.00,1509.09 2138.83,1502.91 2138.83,1502.91
             2138.83,1502.91 2146.13,1480.00 2146.13,1480.00
             2146.13,1480.00 2150.88,1472.00 2150.88,1472.00
             2152.41,1468.67 2151.49,1468.94 2154.00,1465.00
             2151.57,1457.18 2158.33,1451.66 2159.69,1446.00
             2159.69,1446.00 2160.42,1439.00 2160.42,1439.00
             2161.83,1428.73 2163.21,1423.23 2168.31,1414.00
             2170.18,1410.62 2173.42,1405.25 2177.09,1403.74
             2179.73,1402.65 2186.83,1403.03 2190.00,1403.00
             2196.33,1402.92 2198.21,1402.01 2204.00,1399.81
             2206.85,1398.72 2210.46,1397.59 2213.00,1396.01
             2221.05,1391.01 2229.16,1380.67 2234.63,1373.00
             2237.70,1368.69 2240.96,1364.72 2243.47,1360.00
             2243.47,1360.00 2249.51,1346.00 2249.51,1346.00
             2249.51,1346.00 2260.12,1327.00 2260.12,1327.00
             2262.06,1322.35 2261.57,1321.27 2262.63,1318.00
             2262.63,1318.00 2267.55,1306.09 2267.55,1306.09
             2267.55,1306.09 2271.04,1300.83 2271.04,1300.83
             2271.04,1300.83 2277.67,1286.00 2277.67,1286.00
             2277.67,1286.00 2279.62,1278.00 2279.62,1278.00
             2279.62,1278.00 2283.94,1268.00 2283.94,1268.00
             2283.94,1268.00 2288.95,1253.00 2288.95,1253.00
             2288.95,1253.00 2303.25,1224.00 2303.25,1224.00
             2303.25,1224.00 2304.78,1217.00 2304.78,1217.00
             2304.78,1217.00 2308.25,1207.00 2308.25,1207.00
             2310.38,1199.42 2310.41,1190.82 2311.17,1183.00
             2311.17,1183.00 2312.99,1165.00 2312.99,1165.00
             2312.99,1165.00 2312.00,1145.00 2312.00,1145.00
             2311.92,1138.79 2310.75,1134.77 2308.58,1129.00
             2306.34,1123.07 2304.09,1117.82 2299.70,1113.09
             2292.94,1105.81 2279.67,1102.30 2270.00,1104.39
             2266.53,1105.14 2260.63,1108.53 2257.00,1110.14
             2247.90,1114.16 2247.53,1113.42 2239.00,1120.00
             2236.14,1108.08 2244.94,1092.73 2247.48,1081.00
             2249.42,1072.08 2253.10,1037.19 2253.00,1028.00
             2253.00,1028.00 2252.00,1012.00 2252.00,1012.00
             2252.00,1012.00 2250.00,982.00 2250.00,982.00
             2249.98,967.27 2247.09,956.17 2245.28,942.00
             2245.28,942.00 2242.83,911.00 2242.83,911.00
             2242.83,911.00 2239.15,896.00 2239.15,896.00
             2239.15,896.00 2239.15,878.00 2239.15,878.00
             2235.71,876.89 2235.00,873.08 2233.81,870.00
             2233.81,870.00 2226.97,847.00 2226.97,847.00
             2226.97,847.00 2217.46,821.00 2217.46,821.00
             2217.46,821.00 2212.56,812.00 2212.56,812.00
             2212.56,812.00 2204.55,786.00 2204.55,786.00
             2204.55,786.00 2198.09,773.00 2198.09,773.00
             2198.09,773.00 2195.42,762.00 2195.42,762.00
             2193.61,757.27 2191.71,758.28 2191.00,752.00
             2191.00,752.00 2180.74,729.00 2180.74,729.00
             2180.74,729.00 2173.31,716.00 2173.31,716.00
             2173.31,716.00 2167.37,704.00 2167.37,704.00
             2163.35,697.34 2160.96,697.23 2159.00,689.00
             2151.81,687.21 2155.01,682.08 2151.42,677.10
             2149.34,674.23 2146.58,673.43 2143.79,669.90
             2143.79,669.90 2132.00,650.00 2132.00,650.00
             2132.00,650.00 2131.00,650.00 2131.00,650.00
             2131.00,650.00 2129.00,652.00 2129.00,652.00
             2127.68,643.65 2125.93,644.54 2122.52,638.00
             2117.25,627.88 2114.68,624.03 2111.00,613.00
             2111.00,613.00 2109.00,615.00 2109.00,615.00
             2109.00,615.00 2107.00,611.00 2107.00,611.00
             2109.01,608.07 2104.99,603.55 2103.25,601.00
             2096.97,591.76 2094.91,592.16 2088.37,585.63
             2084.86,582.12 2085.79,581.11 2080.02,576.95
             2073.11,571.98 2075.55,571.33 2070.94,568.35
             2070.94,568.35 2058.00,561.76 2058.00,561.76
             2058.00,561.76 2051.09,559.49 2051.09,559.49
             2047.54,557.81 2047.08,555.49 2042.00,552.90
             2042.00,552.90 2025.00,545.46 2025.00,545.46
             2025.00,545.46 2018.04,543.31 2018.04,543.31
             2014.57,541.79 2013.66,539.65 2009.96,538.14
             2009.96,538.14 2003.17,536.47 2003.17,536.47
             2003.17,536.47 1998.83,534.52 1998.83,534.52
             1998.83,534.52 1991.00,532.13 1991.00,532.13
             1991.00,532.13 1973.00,523.87 1973.00,523.87
             1966.67,521.20 1962.31,522.04 1961.00,514.00
             1961.00,514.00 1932.00,509.54 1932.00,509.54
             1922.30,507.81 1918.74,506.02 1908.00,506.00
             1897.01,505.98 1886.43,502.41 1876.00,499.11
             1876.00,499.11 1865.00,494.43 1865.00,494.43
             1865.00,494.43 1841.00,485.04 1841.00,485.04
             1835.81,483.52 1830.33,483.37 1825.00,482.86
             1815.52,481.55 1812.45,480.27 1803.00,482.86
             1801.98,480.14 1797.70,480.95 1795.00,481.01
             1795.00,481.01 1781.00,481.99 1781.00,481.99
             1781.00,481.99 1768.00,481.00 1768.00,481.00 Z
           M 1490.00,1610.00
           C 1490.00,1610.00 1490.00,1611.00 1490.00,1611.00
             1490.00,1611.00 1491.00,1610.00 1491.00,1610.00
             1491.00,1610.00 1490.00,1610.00 1490.00,1610.00 Z
           M 1491.00,1615.00
           C 1491.00,1615.00 1491.00,1616.00 1491.00,1616.00
             1491.00,1616.00 1492.00,1615.00 1492.00,1615.00
             1492.00,1615.00 1491.00,1615.00 1491.00,1615.00 Z
           M 1192.00,1897.00
           C 1192.00,1897.00 1192.00,1898.00 1192.00,1898.00
             1192.00,1898.00 1193.00,1897.00 1193.00,1897.00
             1193.00,1897.00 1192.00,1897.00 1192.00,1897.00 Z
           M 285.00,3201.00
           C 285.00,3201.00 285.00,3202.00 285.00,3202.00
             285.00,3202.00 284.00,3201.00 284.00,3201.00
             284.00,3201.00 285.00,3201.00 285.00,3201.00 Z" />
</svg>
