<?xml version="1.0" encoding="UTF-8" standalone="no"?>
<!DOCTYPE svg PUBLIC "-//W3C//DTD SVG 20010904//EN"
              "http://www.w3.org/TR/2001/REC-SVG-20010904/DTD/svg10.dtd">

<svg xmlns="http://www.w3.org/2000/svg"
     width="11.7433in" height="15.1367in"
     viewBox="0 0 3523 4541">
  <path id="face"
        fill="none" stroke="black" stroke-width="1"
        d="M 1199.00,432.00
           C 1195.99,439.59 1194.05,437.29 1191.44,441.27
             1189.90,443.61 1189.50,447.41 1187.24,450.74
             1187.24,450.74 1179.20,461.63 1179.20,461.63
             1179.20,461.63 1173.80,466.27 1173.80,466.27
             1170.64,469.95 1167.04,479.19 1166.00,484.00
             1162.09,484.97 1161.67,487.78 1159.69,491.00
             1155.74,497.44 1152.73,504.08 1149.71,511.00
             1149.71,511.00 1143.87,523.00 1143.87,523.00
             1143.87,523.00 1140.30,532.87 1140.30,532.87
             1140.30,532.87 1136.72,538.24 1136.72,538.24
             1136.72,538.24 1135.20,544.00 1135.20,544.00
             1135.20,544.00 1132.78,550.00 1132.78,550.00
             1132.78,550.00 1126.41,574.00 1126.41,574.00
             1126.41,574.00 1123.61,582.00 1123.61,582.00
             1124.58,578.21 1120.49,602.06 1120.93,598.00
             1120.93,598.00 1120.93,601.00 1120.93,601.00
             1115.75,605.62 1117.05,623.70 1115.52,631.00
             1115.52,631.00 1112.24,641.00 1112.24,641.00
             1112.24,641.00 1112.74,650.00 1112.74,650.00
             1112.74,650.00 1110.39,663.73 1110.39,663.73
             1110.39,663.73 1103.28,689.09 1103.28,689.09
             1103.28,689.09 1098.70,699.00 1098.70,699.00
             1098.70,699.00 1097.23,707.72 1097.23,707.72
             1097.23,707.72 1093.09,718.00 1093.09,718.00
             1093.09,718.00 1088.79,731.96 1088.79,731.96
             1088.79,731.96 1085.38,739.09 1085.38,739.09
             1085.38,739.09 1081.45,756.00 1081.45,756.00
             1081.45,756.00 1072.92,786.00 1072.92,786.00
             1072.92,786.00 1071.30,795.00 1071.30,795.00
             1071.30,795.00 1068.30,804.00 1068.30,804.00
             1068.30,804.00 1066.15,819.72 1066.15,819.72
             1066.15,819.72 1064.91,825.04 1064.91,825.04
             1064.91,825.04 1064.32,832.00 1064.32,832.00
             1064.32,832.00 1060.62,845.00 1060.62,845.00
             1060.62,845.00 1058.83,863.00 1058.83,863.00
             1058.83,863.00 1056.46,876.00 1056.46,876.00
             1056.46,876.00 1055.84,887.00 1055.84,887.00
             1055.84,887.00 1053.26,899.00 1053.26,899.00
             1053.26,899.00 1052.43,924.00 1052.43,924.00
             1052.64,933.16 1051.43,933.89 1050.30,942.01
             1050.30,942.01 1049.59,958.00 1049.59,958.00
             1049.59,958.00 1049.59,965.00 1049.59,965.00
             1049.59,965.00 1048.74,990.00 1048.74,990.00
             1048.74,990.00 1051.00,1014.00 1051.00,1014.00
             1051.00,1014.00 1050.00,1048.00 1050.00,1048.00
             1050.02,1058.59 1051.78,1057.06 1051.90,1063.00
             1051.90,1063.00 1051.90,1075.00 1051.90,1075.00
             1052.31,1080.27 1055.75,1084.21 1056.66,1089.00
             1056.66,1089.00 1057.34,1098.58 1057.34,1098.58
             1057.34,1098.58 1059.95,1111.00 1059.95,1111.00
             1059.95,1111.00 1060.53,1121.46 1060.53,1121.46
             1060.53,1121.46 1065.51,1145.00 1065.51,1145.00
             1068.79,1155.46 1071.99,1156.91 1072.00,1168.00
             1068.81,1168.04 1067.22,1167.53 1065.00,1170.00
             1055.45,1167.29 1044.98,1169.37 1036.17,1173.56
             1031.47,1175.79 1029.67,1179.41 1025.00,1180.00
             1025.00,1180.00 1019.41,1187.13 1019.41,1187.13
             1019.41,1187.13 1008.81,1209.00 1008.81,1209.00
             1008.81,1209.00 1006.20,1220.00 1006.20,1220.00
             1006.20,1220.00 1003.00,1232.00 1003.00,1232.00
             1003.00,1232.00 1005.15,1231.00 1005.15,1231.00
             1005.15,1231.00 1005.15,1245.00 1005.15,1245.00
             1005.15,1245.00 1007.32,1252.00 1007.32,1252.00
             1008.50,1259.88 1006.89,1265.17 1007.32,1270.00
             1007.73,1279.31 1005.65,1279.77 1006.17,1286.00
             1006.17,1286.00 1008.39,1304.00 1008.39,1304.00
             1008.39,1304.00 1010.65,1311.00 1010.65,1311.00
             1010.65,1311.00 1012.81,1320.00 1012.81,1320.00
             1012.81,1320.00 1017.41,1330.00 1017.41,1330.00
             1017.41,1330.00 1020.68,1340.91 1020.68,1340.91
             1020.68,1340.91 1023.10,1345.28 1023.10,1345.28
             1023.10,1345.28 1025.66,1354.00 1025.66,1354.00
             1025.66,1354.00 1033.04,1368.42 1033.04,1368.42
             1035.34,1372.73 1034.49,1374.43 1039.00,1376.00
             1039.05,1380.61 1038.37,1384.64 1044.00,1385.00
             1045.52,1390.57 1048.32,1396.68 1050.95,1401.83
             1052.38,1404.64 1051.77,1406.22 1055.00,1407.00
             1055.00,1407.00 1062.00,1424.00 1062.00,1424.00
             1066.57,1426.44 1071.20,1434.93 1072.00,1440.00
             1076.51,1442.53 1075.37,1443.92 1077.68,1448.00
             1077.68,1448.00 1085.74,1459.21 1085.74,1459.21
             1085.74,1459.21 1089.05,1467.70 1089.05,1467.70
             1090.78,1470.76 1093.06,1471.55 1094.74,1474.26
             1094.74,1474.26 1099.65,1484.79 1099.65,1484.79
             1098.02,1482.03 1108.49,1498.37 1105.73,1494.68
             1105.73,1494.68 1110.97,1500.18 1110.97,1500.18
             1110.97,1500.18 1120.51,1516.87 1120.51,1516.87
             1123.50,1521.68 1124.47,1519.34 1128.00,1527.00
             1128.00,1527.00 1130.00,1526.00 1130.00,1526.00
             1130.00,1526.00 1138.00,1552.00 1138.00,1552.00
             1148.57,1554.82 1142.10,1561.15 1154.00,1567.05
             1157.97,1569.02 1165.42,1567.63 1167.00,1572.00
             1168.68,1572.08 1170.37,1572.09 1172.00,1572.57
             1180.85,1575.15 1178.27,1583.81 1179.39,1589.00
             1179.39,1589.00 1183.57,1601.00 1183.57,1601.00
             1185.69,1609.88 1187.20,1609.45 1188.44,1614.00
             1188.44,1614.00 1190.69,1627.90 1190.69,1627.90
             1191.95,1631.71 1193.60,1631.62 1194.86,1635.10
             1194.86,1635.10 1196.55,1644.91 1196.55,1644.91
             1196.55,1644.91 1203.05,1660.00 1203.05,1660.00
             1203.05,1660.00 1205.55,1668.00 1205.55,1668.00
             1209.50,1678.95 1216.03,1688.06 1217.00,1700.00
             1221.95,1701.40 1222.01,1705.70 1223.81,1709.83
             1226.92,1717.00 1232.72,1725.00 1233.00,1733.00
             1239.68,1738.44 1241.14,1745.58 1244.63,1753.00
             1244.63,1753.00 1250.19,1763.28 1250.19,1763.28
             1251.46,1766.46 1250.55,1768.11 1252.70,1773.00
             1252.70,1773.00 1259.70,1786.00 1259.70,1786.00
             1259.70,1786.00 1266.51,1800.00 1266.51,1800.00
             1270.30,1805.37 1280.82,1813.89 1286.00,1819.00
             1286.00,1819.00 1314.00,1844.15 1314.00,1844.15
             1314.00,1844.15 1343.00,1869.71 1343.00,1869.71
             1343.00,1869.71 1383.00,1898.71 1383.00,1898.71
             1383.00,1898.71 1444.00,1943.15 1444.00,1943.15
             1444.00,1943.15 1484.00,1972.88 1484.00,1972.88
             1484.00,1972.88 1499.00,1984.03 1499.00,1984.03
             1499.00,1984.03 1541.00,2009.81 1541.00,2009.81
             1541.00,2009.81 1574.00,2029.73 1574.00,2029.73
             1574.00,2029.73 1584.00,2033.78 1584.00,2033.78
             1584.00,2033.78 1591.00,2037.22 1591.00,2037.22
             1591.00,2037.22 1614.00,2045.42 1614.00,2045.42
             1614.00,2045.42 1650.00,2058.34 1650.00,2058.34
             1659.72,2061.72 1662.23,2063.98 1673.00,2064.04
             1673.00,2064.04 1688.00,2064.04 1688.00,2064.04
             1688.00,2064.04 1700.00,2065.00 1700.00,2065.00
             1700.00,2065.00 1732.00,2065.00 1732.00,2065.00
             1732.00,2065.00 1749.00,2066.00 1749.00,2066.00
             1749.00,2066.00 1800.00,2066.00 1800.00,2066.00
             1800.00,2066.00 1817.00,2067.00 1817.00,2067.00
             1817.00,2067.00 1848.00,2067.00 1848.00,2067.00
             1857.42,2066.99 1854.92,2066.57 1863.00,2063.80
             1863.00,2063.80 1870.00,2062.04 1870.00,2062.04
             1870.00,2062.04 1884.00,2055.25 1884.00,2055.25
             1884.00,2055.25 1917.00,2039.25 1917.00,2039.25
             1917.00,2039.25 1935.00,2030.55 1935.00,2030.55
             1939.95,2028.78 1945.35,2028.23 1950.00,2025.62
             1950.00,2025.62 1990.00,1998.02 1990.00,1998.02
             1990.00,1998.02 2081.00,1932.87 2081.00,1932.87
             2081.00,1932.87 2109.83,1911.33 2109.83,1911.33
             2109.83,1911.33 2120.00,1901.09 2120.00,1901.09
             2120.00,1901.09 2141.00,1882.17 2141.00,1882.17
             2141.00,1882.17 2174.70,1851.00 2174.70,1851.00
             2174.70,1851.00 2196.87,1822.00 2196.87,1822.00
             2196.87,1822.00 2211.88,1802.00 2211.88,1802.00
             2211.88,1802.00 2223.12,1779.00 2223.12,1779.00
             2223.12,1779.00 2231.45,1767.00 2231.45,1767.00
             2231.45,1767.00 2234.43,1759.00 2234.43,1759.00
             2234.43,1759.00 2238.99,1752.00 2238.99,1752.00
             2238.99,1752.00 2240.98,1746.17 2240.98,1746.17
             2240.98,1746.17 2245.52,1739.96 2245.52,1739.96
             2245.52,1739.96 2249.37,1732.00 2249.37,1732.00
             2253.99,1722.78 2255.48,1723.43 2256.00,1712.00
             2261.36,1710.07 2259.91,1706.34 2261.30,1701.72
             2261.30,1701.72 2264.55,1694.00 2264.55,1694.00
             2266.64,1688.20 2265.91,1683.34 2272.00,1680.00
             2272.27,1669.38 2275.67,1672.91 2278.32,1665.00
             2278.32,1665.00 2279.97,1659.09 2279.97,1659.09
             2279.97,1659.09 2282.59,1652.91 2282.59,1652.91
             2283.31,1650.09 2282.65,1648.53 2284.09,1644.00
             2284.09,1644.00 2289.36,1629.01 2289.36,1629.01
             2289.36,1629.01 2292.92,1621.83 2292.92,1621.83
             2294.37,1617.19 2293.61,1613.52 2294.47,1610.00
             2294.47,1610.00 2297.48,1602.00 2297.48,1602.00
             2297.48,1602.00 2300.92,1589.00 2300.92,1589.00
             2300.92,1589.00 2303.51,1582.00 2303.51,1582.00
             2303.51,1582.00 2304.27,1572.00 2304.27,1572.00
             2304.27,1572.00 2306.59,1565.00 2306.59,1565.00
             2306.59,1565.00 2307.33,1557.00 2307.33,1557.00
             2307.33,1557.00 2309.79,1548.00 2309.79,1548.00
             2310.22,1545.04 2309.73,1541.93 2310.89,1539.04
             2312.49,1535.08 2317.55,1532.27 2320.83,1529.69
             2323.26,1527.78 2328.95,1520.73 2330.07,1517.92
             2330.07,1517.92 2334.89,1500.91 2334.89,1500.91
             2335.56,1495.10 2334.75,1485.71 2336.88,1480.04
             2338.59,1475.46 2342.38,1473.87 2345.98,1467.96
             2350.08,1461.23 2347.56,1459.07 2353.00,1456.00
             2353.00,1456.00 2353.00,1450.00 2353.00,1450.00
             2358.36,1448.30 2358.44,1446.20 2358.00,1441.00
             2364.88,1438.82 2366.13,1430.90 2368.90,1425.17
             2368.90,1425.17 2373.37,1417.99 2373.37,1417.99
             2379.29,1405.96 2381.91,1395.12 2383.97,1382.00
             2385.07,1374.98 2387.99,1377.21 2388.95,1371.95
             2388.95,1371.95 2388.95,1365.00 2388.95,1365.00
             2388.95,1365.00 2390.46,1353.00 2390.46,1353.00
             2390.46,1353.00 2394.57,1336.00 2394.57,1336.00
             2394.57,1336.00 2397.26,1315.00 2397.26,1315.00
             2397.26,1315.00 2399.66,1307.00 2399.66,1307.00
             2399.66,1307.00 2401.12,1296.00 2401.12,1296.00
             2401.12,1296.00 2405.16,1283.00 2405.16,1283.00
             2405.16,1283.00 2407.00,1256.00 2407.00,1256.00
             2407.00,1256.00 2410.86,1219.00 2410.86,1219.00
             2410.86,1219.00 2412.00,1169.00 2412.00,1169.00
             2411.88,1159.73 2409.88,1160.94 2408.41,1155.00
             2407.41,1150.96 2408.41,1150.96 2406.20,1146.00
             2403.96,1140.96 2398.75,1130.83 2393.71,1128.47
             2391.93,1127.63 2389.00,1127.29 2387.00,1126.83
             2383.24,1125.97 2383.00,1125.37 2378.80,1126.00
             2378.40,1122.63 2377.43,1118.33 2378.80,1115.00
             2379.72,1111.77 2382.03,1110.40 2383.47,1106.00
             2383.47,1106.00 2389.45,1075.00 2389.45,1075.00
             2391.30,1068.19 2394.79,1065.93 2394.98,1058.00
             2395.31,1044.64 2388.30,1027.85 2387.02,1020.00
             2387.02,1020.00 2387.02,1010.00 2387.02,1010.00
             2387.02,1010.00 2384.00,983.00 2384.00,983.00
             2383.95,975.20 2379.81,967.09 2379.74,962.09
             2379.74,962.09 2379.74,955.91 2379.74,955.91
             2379.74,955.91 2381.09,936.00 2381.09,936.00
             2381.09,936.00 2382.00,926.00 2382.00,926.00
             2382.18,909.96 2381.23,913.87 2378.62,900.00
             2377.80,895.67 2377.89,891.19 2376.34,887.00
             2373.70,879.81 2368.70,873.60 2367.02,866.00
             2367.02,866.00 2365.63,857.00 2365.63,857.00
             2365.63,857.00 2363.46,849.00 2363.46,849.00
             2363.46,849.00 2362.21,842.00 2362.21,842.00
             2360.71,836.78 2358.80,835.38 2356.67,825.00
             2356.67,825.00 2355.54,816.00 2355.54,816.00
             2355.54,816.00 2352.36,804.00 2352.36,804.00
             2352.36,804.00 2351.20,795.00 2351.20,795.00
             2351.20,795.00 2345.43,773.00 2345.43,773.00
             2345.43,773.00 2342.30,765.00 2342.30,765.00
             2342.30,765.00 2339.69,757.01 2339.69,757.01
             2339.69,757.01 2334.07,744.00 2334.07,744.00
             2334.07,744.00 2329.46,731.00 2329.46,731.00
             2329.46,731.00 2326.32,720.00 2326.32,720.00
             2324.26,714.95 2321.79,713.34 2319.55,709.01
             2319.55,709.01 2311.95,693.00 2311.95,693.00
             2311.95,693.00 2309.78,686.00 2309.78,686.00
             2309.78,686.00 2301.89,670.00 2301.89,670.00
             2301.89,670.00 2299.68,661.00 2299.68,661.00
             2299.68,661.00 2289.59,632.00 2289.59,632.00
             2289.59,632.00 2287.14,621.00 2287.14,621.00
             2287.14,621.00 2280.51,606.00 2280.51,606.00
             2280.51,606.00 2275.32,587.00 2275.32,587.00
             2275.32,587.00 2267.32,570.00 2267.32,570.00
             2267.32,570.00 2263.92,557.00 2263.92,557.00
             2263.92,557.00 2257.45,541.83 2257.45,541.83
             2257.45,541.83 2255.79,536.00 2255.79,536.00
             2255.79,536.00 2252.33,527.18 2252.33,527.18
             2252.33,527.18 2250.92,518.82 2250.92,518.82
             2250.92,518.82 2243.68,505.00 2243.68,505.00
             2241.86,501.16 2242.31,500.22 2241.42,498.04
             2242.76,501.33 2234.11,484.91 2235.70,487.45
             2235.70,487.45 2231.12,481.95 2231.12,481.95
             2228.04,477.18 2226.74,473.02 2222.76,468.04
             2222.76,468.04 2215.97,460.96 2215.97,460.96
             2215.97,460.96 2212.27,454.96 2212.27,454.96
             2207.25,447.81 2201.84,440.88 2195.64,434.72
             2195.64,434.72 2183.00,423.37 2183.00,423.37
             2183.00,423.37 2176.30,418.07 2176.30,418.07
             2176.30,418.07 2168.12,408.59 2168.12,408.59
             2168.12,408.59 2144.00,388.45 2144.00,388.45
             2144.00,388.45 2133.00,381.37 2133.00,381.37
             2133.00,381.37 2120.00,370.99 2120.00,370.99
             2120.00,370.99 2111.00,365.89 2111.00,365.89
             2111.00,365.89 2085.99,345.22 2085.99,345.22
             2085.99,345.22 2071.48,336.02 2071.48,336.02
             2071.48,336.02 2064.00,326.00 2064.00,326.00
             2064.00,326.00 2064.00,330.00 2064.00,330.00
             2064.00,330.00 2058.74,326.49 2058.74,326.49
             2052.97,323.63 2051.72,325.68 2047.00,318.00
             2039.47,317.70 2037.29,314.54 2031.58,310.85
             2031.58,310.85 2015.58,301.51 2015.58,301.51
             2015.58,301.51 1997.00,293.83 1997.00,293.83
             1997.00,293.83 1981.00,285.35 1981.00,285.35
             1981.00,285.35 1956.00,274.77 1956.00,274.77
             1947.82,271.17 1947.16,268.97 1943.96,267.73
             1943.96,267.73 1925.00,264.29 1925.00,264.29
             1925.00,264.29 1914.00,259.32 1914.00,259.32
             1914.00,259.32 1907.00,256.88 1907.00,256.88
             1907.00,256.88 1899.00,252.48 1899.00,252.48
             1899.00,252.48 1886.00,249.06 1886.00,249.06
             1886.00,249.06 1876.00,244.48 1876.00,244.48
             1876.00,244.48 1865.41,241.98 1865.41,241.98
             1865.41,241.98 1854.00,237.34 1854.00,237.34
             1854.00,237.34 1842.00,233.82 1842.00,233.82
             1842.00,233.82 1832.00,229.12 1832.00,229.12
             1832.00,229.12 1813.00,225.72 1813.00,225.72
             1813.00,225.72 1793.00,220.44 1793.00,220.44
             1793.00,220.44 1777.00,217.49 1777.00,217.49
             1777.00,217.49 1754.00,210.92 1754.00,210.92
             1754.00,210.92 1736.00,207.12 1736.00,207.12
             1736.00,207.12 1725.00,204.09 1725.00,204.09
             1721.61,203.56 1712.05,202.26 1709.01,202.54
             1699.41,203.42 1700.59,206.06 1686.00,206.00
             1686.00,206.00 1667.82,205.25 1667.82,205.25
             1667.82,205.25 1651.00,209.91 1651.00,209.91
             1651.00,209.91 1625.00,216.13 1625.00,216.13
             1625.00,216.13 1607.00,219.67 1607.00,219.67
             1607.00,219.67 1596.00,222.83 1596.00,222.83
             1596.00,222.83 1576.00,226.30 1576.00,226.30
             1571.06,227.77 1569.63,230.15 1565.00,231.90
             1565.00,231.90 1553.00,235.41 1553.00,235.41
             1553.00,235.41 1542.00,239.97 1542.00,239.97
             1542.00,239.97 1530.00,243.61 1530.00,243.61
             1530.00,243.61 1520.00,248.73 1520.00,248.73
             1520.00,248.73 1511.00,251.04 1511.00,251.04
             1511.00,251.04 1500.00,255.21 1500.00,255.21
             1500.00,255.21 1493.00,256.63 1493.00,256.63
             1493.00,256.63 1479.00,261.76 1479.00,261.76
             1479.00,261.76 1456.00,272.31 1456.00,272.31
             1456.00,272.31 1450.00,275.70 1450.00,275.70
             1446.18,277.41 1443.62,276.62 1441.37,277.56
             1439.02,278.54 1438.46,280.55 1433.98,282.65
             1433.98,282.65 1417.00,288.96 1417.00,288.96
             1417.00,288.96 1409.00,293.46 1409.00,293.46
             1409.00,293.46 1399.00,297.24 1399.00,297.24
             1399.00,297.24 1390.00,303.03 1390.00,303.03
             1390.00,303.03 1380.04,306.55 1380.04,306.55
             1380.04,306.55 1368.00,312.80 1368.00,312.80
             1368.00,312.80 1358.00,319.46 1358.00,319.46
             1358.00,319.46 1347.09,324.54 1347.09,324.54
             1347.09,324.54 1324.04,338.24 1324.04,338.24
             1324.04,338.24 1314.99,345.44 1314.99,345.44
             1314.99,345.44 1304.17,351.31 1304.17,351.31
             1304.17,351.31 1293.74,359.36 1293.74,359.36
             1293.74,359.36 1286.01,363.56 1286.01,363.56
             1286.01,363.56 1277.91,369.79 1277.91,369.79
             1277.91,369.79 1270.17,373.41 1270.17,373.41
             1270.17,373.41 1264.91,377.07 1264.91,377.07
             1262.32,378.50 1259.58,378.80 1256.11,381.30
             1251.92,384.34 1245.21,393.50 1244.69,393.87
             1242.43,395.48 1237.73,395.92 1233.32,399.47
             1233.32,399.47 1212.15,419.48 1212.15,419.48
             1208.07,423.86 1204.96,430.15 1199.00,432.00 Z
           M 1115.00,637.00
           C 1115.00,637.00 1115.00,638.00 1115.00,638.00
             1115.00,638.00 1114.00,637.00 1114.00,637.00
             1114.00,637.00 1115.00,637.00 1115.00,637.00 Z
           M 2413.00,1182.00
           C 2413.00,1182.00 2413.00,1183.00 2413.00,1183.00
             2413.00,1183.00 2414.00,1182.00 2414.00,1182.00
             2414.00,1182.00 2413.00,1182.00 2413.00,1182.00 Z
           M 1249.00,1763.00
           C 1249.00,1763.00 1249.00,1764.00 1249.00,1764.00
             1249.00,1764.00 1250.00,1763.00 1250.00,1763.00
             1250.00,1763.00 1249.00,1763.00 1249.00,1763.00 Z" />
  <path id="profile"
        fill="none" stroke="black" stroke-width="1"
        d="M 1199.00,432.00
           C 1195.99,439.59 1194.05,437.29 1191.44,441.27
             1189.90,443.61 1189.50,447.41 1187.24,450.74
             1187.24,450.74 1179.20,461.63 1179.20,461.63
             1179.20,461.63 1173.80,466.27 1173.80,466.27
             1170.64,469.95 1167.04,479.19 1166.00,484.00
             1162.09,484.97 1161.67,487.78 1159.69,491.00
             1155.74,497.44 1152.73,504.08 1149.71,511.00
             1149.71,511.00 1143.87,523.00 1143.87,523.00
             1143.87,523.00 1140.30,532.87 1140.30,532.87
             1140.30,532.87 1136.72,538.24 1136.72,538.24
             1136.72,538.24 1135.20,544.00 1135.20,544.00
             1135.20,544.00 1132.78,550.00 1132.78,550.00
             1132.78,550.00 1126.41,574.00 1126.41,574.00
             1126.41,574.00 1123.61,582.00 1123.61,582.00
             1124.58,578.21 1120.49,602.06 1120.93,598.00
             1120.93,598.00 1120.93,601.00 1120.93,601.00
             1115.75,605.62 1117.05,623.70 1115.52,631.00
             1115.52,631.00 1112.24,641.00 1112.24,641.00
             1112.24,641.00 1112.74,650.00 1112.74,650.00
             1112.74,650.00 1110.39,663.73 1110.39,663.73
             1110.39,663.73 1103.28,689.09 1103.28,689.09
             1103.28,689.09 1098.70,699.00 1098.70,699.00
             1098.70,699.00 1097.23,707.72 1097.23,707.72
             1097.23,707.72 1093.09,718.00 1093.09,718.00
             1093.09,718.00 1088.79,731.96 1088.79,731.96
             1088.79,731.96 1085.38,739.09 1085.38,739.09
             1085.38,739.09 1081.45,756.00 1081.45,756.00
             1081.45,756.00 1072.92,786.00 1072.92,786.00
             1072.92,786.00 1071.30,795.00 1071.30,795.00
             1071.30,795.00 1068.30,804.00 1068.30,804.00
             1068.30,804.00 1066.15,819.72 1066.15,819.72
             1066.15,819.72 1064.91,825.04 1064.91,825.04
             1064.91,825.04 1064.32,832.00 1064.32,832.00
             1064.32,832.00 1060.62,845.00 1060.62,845.00
             1060.62,845.00 1058.83,863.00 1058.83,863.00
             1058.83,863.00 1056.46,876.00 1056.46,876.00
             1056.46,876.00 1055.84,887.00 1055.84,887.00
             1055.84,887.00 1053.26,899.00 1053.26,899.00
             1053.26,899.00 1052.43,924.00 1052.43,924.00
             1052.64,933.16 1051.43,933.89 1050.30,942.01
             1050.30,942.01 1049.59,958.00 1049.59,958.00
             1049.59,958.00 1049.59,965.00 1049.59,965.00
             1049.59,965.00 1048.74,990.00 1048.74,990.00
             1048.74,990.00 1051.00,1014.00 1051.00,1014.00
             1051.00,1014.00 1050.00,1048.00 1050.00,1048.00
             1050.02,1058.59 1051.78,1057.06 1051.90,1063.00
             1051.90,1063.00 1051.90,1075.00 1051.90,1075.00
             1052.31,1080.27 1055.75,1084.21 1056.66,1089.00
             1056.66,1089.00 1057.34,1098.58 1057.34,1098.58
             1057.34,1098.58 1059.95,1111.00 1059.95,1111.00
             1059.95,1111.00 1060.53,1121.46 1060.53,1121.46
             1060.53,1121.46 1065.51,1145.00 1065.51,1145.00
             1068.79,1155.46 1071.99,1156.91 1072.00,1168.00
             1068.81,1168.04 1067.22,1167.53 1065.00,1170.00
             1055.45,1167.29 1044.98,1169.37 1036.17,1173.56
             1031.47,1175.79 1029.67,1179.41 1025.00,1180.00
             1025.00,1180.00 1019.41,1187.13 1019.41,1187.13
             1019.41,1187.13 1008.81,1209.00 1008.81,1209.00
             1008.81,1209.00 1006.20,1220.00 1006.20,1220.00
             1006.20,1220.00 1003.00,1232.00 1003.00,1232.00
             1003.00,1232.00 1005.15,1231.00 1005.15,1231.00
             1005.15,1231.00 1005.15,1245.00 1005.15,1245.00
             1005.15,1245.00 1007.32,1252.00 1007.32,1252.00
             1008.50,1259.88 1006.89,1265.17 1007.32,1270.00
             1007.73,1279.31 1005.65,1279.77 1006.17,1286.00
             1006.17,1286.00 1008.39,1304.00 1008.39,1304.00
             1008.39,1304.00 1010.65,1311.00 1010.65,1311.00
             1010.65,1311.00 1012.81,1320.00 1012.81,1320.00
             1012.81,1320.00 1017.41,1330.00 1017.41,1330.00
             1017.41,1330.00 1020.68,1340.91 1020.68,1340.91
             1020.68,1340.91 1023.10,1345.28 1023.10,1345.28
             1023.10,1345.28 1025.66,1354.00 1025.66,1354.00
             1025.66,1354.00 1033.04,1368.42 1033.04,1368.42
             1035.34,1372.73 1034.49,1374.43 1039.00,1376.00
             1039.05,1380.61 1038.37,1384.64 1044.00,1385.00
             1045.52,1390.57 1048.32,1396.68 1050.95,1401.83
             1052.38,1404.64 1051.77,1406.22 1055.00,1407.00
             1055.00,1407.00 1062.00,1424.00 1062.00,1424.00
             1066.57,1426.44 1071.20,1434.93 1072.00,1440.00
             1076.51,1442.53 1075.37,1443.92 1077.68,1448.00
             1077.68,1448.00 1085.74,1459.21 1085.74,1459.21
             1085.74,1459.21 1089.05,1467.70 1089.05,1467.70
             1090.78,1470.76 1093.06,1471.55 1094.74,1474.26
             1094.74,1474.26 1099.65,1484.79 1099.65,1484.79
             1098.02,1482.03 1108.49,1498.37 1105.73,1494.68
             1105.73,1494.68 1110.97,1500.18 1110.97,1500.18
             1110.97,1500.18 1120.51,1516.87 1120.51,1516.87
             1123.50,1521.68 1124.47,1519.34 1128.00,1527.00
             1128.00,1527.00 1130.00,1526.00 1130.00,1526.00
             1130.00,1526.00 1138.00,1552.00 1138.00,1552.00
             1148.57,1554.82 1142.10,1561.15 1154.00,1567.05
             1157.97,1569.02 1165.42,1567.63 1167.00,1572.00
             1168.68,1572.08 1170.37,1572.09 1172.00,1572.57
             1180.85,1575.15 1178.27,1583.81 1179.39,1589.00
             1179.39,1589.00 1183.57,1601.00 1183.57,1601.00
             1185.69,1609.88 1187.20,1609.45 1188.44,1614.00
             1188.44,1614.00 1190.69,1627.90 1190.69,1627.90
             1191.95,1631.71 1193.60,1631.62 1194.86,1635.10
             1194.86,1635.10 1196.55,1644.91 1196.55,1644.91
             1196.55,1644.91 1203.05,1660.00 1203.05,1660.00
             1203.05,1660.00 1205.55,1668.00 1205.55,1668.00
             1209.50,1678.95 1216.03,1688.06 1217.00,1700.00
             1221.95,1701.40 1222.01,1705.70 1223.81,1709.83
             1226.92,1717.00 1232.72,1725.00 1233.00,1733.00
             1239.68,1738.44 1241.14,1745.58 1244.63,1753.00
             1244.63,1753.00 1250.51,1764.17 1250.51,1764.17
             1251.24,1766.51 1250.82,1768.24 1252.28,1772.00
             1252.28,1772.00 1264.25,1796.00 1264.25,1796.00
             1264.25,1796.00 1264.86,1804.00 1264.86,1804.00
             1264.86,1804.00 1267.01,1813.00 1267.01,1813.00
             1267.51,1818.08 1266.31,1822.99 1266.21,1828.00
             1266.21,1828.00 1266.21,1843.17 1266.21,1843.17
             1266.21,1843.17 1266.21,1852.00 1266.21,1852.00
             1267.27,1858.45 1267.99,1856.98 1268.00,1865.00
             1268.00,1865.00 1268.00,1895.00 1268.00,1895.00
             1268.00,1895.00 1269.00,1915.00 1269.00,1915.00
             1269.00,1915.00 1271.05,1966.00 1271.05,1966.00
             1271.05,1966.00 1271.05,1981.00 1271.05,1981.00
             1271.41,1985.70 1273.04,1987.85 1270.00,1992.00
             1272.44,2000.79 1268.02,2014.18 1268.00,2024.00
             1268.00,2024.00 1268.70,2045.00 1268.70,2045.00
             1268.09,2049.47 1265.55,2050.46 1264.44,2057.01
             1263.82,2060.70 1264.48,2067.13 1262.99,2069.74
             1262.18,2071.17 1260.60,2072.33 1259.41,2073.45
             1253.35,2079.18 1247.49,2082.87 1239.00,2084.00
             1239.00,2084.00 1230.00,2091.00 1230.00,2091.00
             1225.19,2089.99 1223.59,2090.04 1222.00,2095.00
             1218.49,2095.30 1216.34,2095.16 1214.00,2098.00
             1214.00,2098.00 1211.00,2097.00 1211.00,2097.00
             1211.00,2097.00 1210.00,2101.00 1210.00,2101.00
             1203.74,2103.43 1200.91,2104.04 1196.00,2109.00
             1196.00,2109.00 1193.00,2107.00 1193.00,2107.00
             1193.00,2107.00 1192.00,2115.00 1192.00,2115.00
             1192.00,2115.00 1186.00,2118.19 1186.00,2118.19
             1183.10,2119.52 1179.93,2119.17 1177.50,2121.51
             1173.41,2125.43 1177.30,2127.08 1166.72,2133.52
             1162.24,2136.24 1153.90,2139.04 1152.00,2144.00
             1152.00,2144.00 1135.00,2151.68 1135.00,2151.68
             1135.00,2151.68 1116.00,2155.90 1116.00,2155.90
             1116.00,2155.90 1103.00,2160.00 1103.00,2160.00
             1100.52,2162.82 1099.87,2163.91 1096.00,2164.00
             1090.83,2168.12 1089.20,2165.31 1084.00,2166.91
             1084.00,2166.91 1071.00,2170.97 1071.00,2170.97
             1071.00,2170.97 1064.42,2174.69 1064.42,2174.69
             1064.42,2174.69 1058.25,2176.43 1058.25,2176.43
             1056.50,2177.37 1054.59,2179.63 1053.00,2181.00
             1053.00,2181.00 1054.00,2179.00 1054.00,2179.00
             1054.00,2179.00 1053.00,2178.00 1053.00,2178.00
             1049.86,2178.43 1049.22,2177.90 1048.00,2181.00
             1048.00,2181.00 1052.00,2180.00 1052.00,2180.00
             1052.00,2180.00 1037.00,2184.73 1037.00,2184.73
             1037.00,2184.73 1026.17,2191.18 1026.17,2191.18
             1026.17,2191.18 1016.10,2193.03 1016.10,2193.03
             1016.10,2193.03 1000.00,2206.00 1000.00,2206.00
             1000.00,2206.00 997.00,2204.00 997.00,2204.00
             997.00,2204.00 1000.00,2206.00 1000.00,2206.00
             993.65,2208.35 990.49,2207.86 988.00,2215.00
             979.08,2210.73 979.86,2217.85 968.00,2218.00
             968.00,2218.00 968.00,2222.00 968.00,2222.00
             968.00,2222.00 953.00,2226.00 953.00,2226.00
             953.00,2226.00 950.00,2232.00 950.00,2232.00
             950.00,2232.00 945.00,2231.00 945.00,2231.00
             939.44,2240.10 931.85,2241.58 922.00,2241.00
             922.00,2241.00 926.00,2242.00 926.00,2242.00
             920.09,2245.88 913.21,2250.06 906.00,2249.00
             906.00,2249.00 902.00,2251.00 902.00,2251.00
             902.00,2251.00 903.00,2254.00 903.00,2254.00
             898.72,2254.83 897.10,2254.97 895.00,2259.00
             890.66,2258.33 883.83,2260.52 881.00,2264.00
             877.26,2263.69 868.18,2264.55 870.00,2270.00
             870.00,2270.00 861.00,2272.56 861.00,2272.56
             861.00,2272.56 847.66,2280.02 847.66,2280.02
             843.36,2282.03 840.11,2281.63 839.00,2287.00
             839.00,2287.00 828.00,2289.00 828.00,2289.00
             826.96,2292.74 819.71,2298.94 816.00,2300.00
             816.00,2300.00 808.37,2304.72 808.37,2304.72
             808.37,2304.72 802.90,2309.69 802.90,2309.69
             802.90,2309.69 796.14,2312.59 796.14,2312.59
             796.14,2312.59 791.46,2318.32 791.46,2318.32
             791.46,2318.32 784.00,2321.00 784.00,2321.00
             784.00,2321.00 785.00,2324.00 785.00,2324.00
             785.00,2324.00 783.00,2326.00 783.00,2326.00
             776.19,2324.46 772.07,2329.96 766.58,2333.46
             762.71,2335.92 760.48,2334.30 757.21,2336.17
             754.80,2337.55 754.03,2339.84 750.90,2341.86
             750.90,2341.86 739.22,2347.51 739.22,2347.51
             734.46,2350.61 735.94,2352.86 728.00,2352.00
             725.84,2354.82 724.18,2357.08 721.00,2358.87
             717.24,2360.98 710.33,2362.13 707.10,2364.56
             702.24,2368.21 703.62,2371.86 697.00,2374.00
             693.91,2379.19 689.49,2376.68 684.04,2378.49
             681.99,2379.18 671.07,2386.27 669.51,2387.89
             669.51,2387.89 661.75,2397.61 661.75,2397.61
             661.75,2397.61 656.68,2401.53 656.68,2401.53
             656.68,2401.53 643.83,2413.57 643.83,2413.57
             643.83,2413.57 630.32,2424.51 630.32,2424.51
             625.03,2429.73 626.82,2434.01 616.00,2442.62
             616.00,2442.62 598.04,2453.50 598.04,2453.50
             598.04,2453.50 591.83,2457.96 591.83,2457.96
             587.40,2460.35 586.87,2459.49 582.00,2463.47
             577.02,2467.54 575.75,2472.21 569.00,2472.00
             569.00,2472.00 565.00,2477.00 565.00,2477.00
             563.68,2481.56 557.70,2482.36 554.00,2484.76
             554.00,2484.76 541.91,2493.46 541.91,2493.46
             539.09,2495.26 537.40,2495.08 535.04,2496.31
             532.11,2497.84 531.15,2499.66 528.83,2501.32
             525.05,2504.02 523.66,2502.39 521.00,2507.00
             521.00,2507.00 518.00,2506.00 518.00,2506.00
             518.00,2506.00 511.00,2514.00 511.00,2514.00
             511.00,2514.00 507.00,2513.00 507.00,2513.00
             507.00,2513.00 495.00,2523.00 495.00,2523.00
             493.74,2527.21 491.55,2525.77 488.23,2527.51
             484.05,2529.70 486.41,2530.96 479.00,2533.00
             477.79,2536.94 472.38,2537.69 469.00,2539.42
             469.00,2539.42 448.41,2551.63 448.41,2551.63
             447.12,2552.84 446.86,2553.58 446.00,2555.00
             446.00,2555.00 440.00,2555.00 440.00,2555.00
             440.00,2555.00 441.00,2559.00 441.00,2559.00
             439.21,2559.44 434.80,2560.10 433.56,2561.02
             431.48,2562.55 431.54,2565.58 427.89,2568.11
             424.65,2570.37 421.97,2569.60 419.21,2571.17
             425.09,2567.83 399.98,2585.09 404.23,2581.78
             404.23,2581.78 399.85,2586.11 399.85,2586.11
             398.20,2587.29 390.59,2588.18 388.00,2595.00
             388.00,2595.00 384.00,2594.00 384.00,2594.00
             382.14,2599.84 379.68,2598.33 374.06,2602.32
             370.45,2604.90 370.33,2606.41 367.79,2608.50
             367.79,2608.50 361.46,2612.41 361.46,2612.41
             361.46,2612.41 357.54,2615.78 357.54,2615.78
             357.54,2615.78 352.68,2618.79 352.68,2618.79
             350.75,2620.49 350.44,2622.49 345.98,2625.62
             345.98,2625.62 334.01,2631.71 334.01,2631.71
             334.01,2631.71 318.63,2644.48 318.63,2644.48
             318.63,2644.48 306.23,2651.39 306.23,2651.39
             306.23,2651.39 301.74,2655.20 301.74,2655.20
             299.07,2657.03 297.61,2656.72 294.42,2659.40
             290.61,2662.60 289.37,2665.54 284.00,2666.00
             284.00,2666.00 272.00,2676.01 272.00,2676.01
             272.00,2676.01 265.78,2680.13 265.78,2680.13
             262.92,2682.70 261.68,2686.45 257.25,2690.45
             257.25,2690.45 241.28,2701.53 241.28,2701.53
             241.28,2701.53 228.72,2711.35 228.72,2711.35
             228.72,2711.35 222.00,2715.12 222.00,2715.12
             222.00,2715.12 206.30,2726.12 206.30,2726.12
             206.30,2726.12 196.27,2738.96 196.27,2738.96
             196.27,2738.96 185.44,2749.09 185.44,2749.09
             182.27,2752.59 179.71,2757.64 175.00,2759.00
             174.13,2762.10 172.00,2763.41 170.17,2766.04
             161.37,2778.68 156.67,2778.31 147.72,2788.69
             143.34,2793.78 142.04,2798.85 135.00,2800.00
             133.62,2808.34 129.34,2811.18 124.78,2817.45
             124.78,2817.45 121.73,2822.70 121.73,2822.70
             121.73,2822.70 114.83,2831.93 114.83,2831.93
             112.23,2835.66 109.91,2836.25 109.00,2841.00
             109.00,2841.00 106.00,2842.00 106.00,2842.00
             106.00,2842.00 107.00,2846.00 107.00,2846.00
             107.00,2846.00 106.00,2847.00 106.00,2847.00
             106.00,2847.00 103.00,2846.00 103.00,2846.00
             103.00,2846.00 104.00,2849.00 104.00,2849.00
             104.00,2849.00 101.00,2851.00 101.00,2851.00
             102.15,2854.85 100.83,2855.60 99.00,2859.00
             99.00,2859.00 95.00,2858.00 95.00,2858.00
             95.00,2858.00 95.00,2864.00 95.00,2864.00
             92.27,2863.29 87.95,2862.52 86.14,2865.50
             84.64,2867.95 87.88,2872.86 80.00,2873.00
             76.95,2883.39 62.78,2890.00 54.00,2895.00
             53.31,2897.89 52.89,2897.83 50.00,2898.00
             45.78,2906.21 44.53,2902.85 41.92,2908.06
             40.38,2911.13 40.73,2912.99 39.96,2915.72
             39.96,2915.72 35.54,2930.17 35.54,2930.17
             35.54,2930.17 37.11,2941.00 37.11,2941.00
             37.39,2945.79 36.90,2947.80 32.00,2949.00
             32.00,2949.00 32.00,2955.00 32.00,2955.00
             32.00,2955.00 24.00,2963.00 24.00,2963.00
             23.17,2970.37 20.46,2972.15 17.59,2978.16
             15.30,2982.96 13.98,2988.38 10.00,2992.00
             9.43,2999.41 7.38,3004.21 3.01,3010.08
             1.30,3012.38 -0.42,3013.76 2.00,3016.00
             2.00,3016.00 0.05,3019.18 0.05,3019.18
             0.05,3019.18 0.05,3046.00 0.05,3046.00
             0.05,3046.00 0.05,3123.00 0.05,3123.00
             0.05,3123.00 0.05,3417.00 0.05,3417.00
             0.05,3417.00 0.05,4541.00 0.05,4541.00
             0.05,4541.00 3098.00,4541.00 3098.00,4541.00
             3098.00,4541.00 3106.19,4504.00 3106.19,4504.00
             3106.19,4504.00 3106.19,4486.00 3106.19,4486.00
             3106.19,4486.00 3111.00,4475.00 3111.00,4475.00
             3111.00,4475.00 3150.00,4492.72 3150.00,4492.72
             3150.00,4492.72 3166.28,4500.41 3166.28,4500.41
             3166.28,4500.41 3171.05,4515.00 3171.05,4515.00
             3171.05,4515.00 3175.76,4525.00 3175.76,4525.00
             3175.76,4525.00 3183.22,4539.40 3183.22,4539.40
             3183.22,4539.40 3192.00,4541.00 3192.00,4541.00
             3192.00,4541.00 3523.00,4541.00 3523.00,4541.00
             3523.00,4541.00 3523.00,3465.00 3523.00,3465.00
             3523.00,3465.00 3523.00,2792.00 3523.00,2792.00
             3522.99,2788.75 3523.21,2786.00 3521.69,2783.00
             3517.76,2775.26 3508.92,2770.03 3508.00,2761.00
             3508.00,2761.00 3507.00,2760.00 3507.00,2760.00
             3507.00,2760.00 3505.00,2761.00 3505.00,2761.00
             3504.19,2751.09 3501.99,2751.62 3494.00,2747.00
             3494.00,2747.00 3495.00,2745.00 3495.00,2745.00
             3495.00,2745.00 3494.00,2744.00 3494.00,2744.00
             3494.00,2744.00 3491.00,2746.00 3491.00,2746.00
             3491.00,2746.00 3482.00,2732.00 3482.00,2732.00
             3476.32,2728.92 3475.68,2728.31 3472.00,2723.00
             3466.15,2724.85 3466.76,2722.18 3462.00,2719.00
             3463.10,2714.63 3462.72,2714.10 3461.00,2710.00
             3461.00,2710.00 3457.00,2711.00 3457.00,2711.00
             3455.30,2702.17 3449.31,2694.42 3440.00,2693.00
             3438.16,2687.22 3434.21,2687.39 3429.01,2685.19
             3429.01,2685.19 3412.00,2676.34 3412.00,2676.34
             3412.00,2676.34 3396.00,2666.75 3396.00,2666.75
             3389.82,2664.09 3387.39,2665.68 3384.21,2663.83
             3384.21,2663.83 3374.55,2653.66 3374.55,2653.66
             3374.55,2653.66 3360.09,2644.30 3360.09,2644.30
             3360.09,2644.30 3351.83,2635.70 3351.83,2635.70
             3349.07,2633.64 3346.95,2633.80 3343.28,2630.89
             3337.01,2625.92 3336.83,2623.28 3328.00,2623.00
             3328.00,2623.00 3328.00,2618.00 3328.00,2618.00
             3328.00,2618.00 3308.01,2609.28 3308.01,2609.28
             3308.01,2609.28 3299.91,2602.87 3299.91,2602.87
             3299.91,2602.87 3293.00,2599.85 3293.00,2599.85
             3293.00,2599.85 3285.00,2594.17 3285.00,2594.17
             3285.00,2594.17 3270.83,2586.74 3270.83,2586.74
             3270.83,2586.74 3270.00,2585.00 3270.00,2585.00
             3264.73,2583.91 3253.99,2577.99 3249.13,2575.07
             3249.13,2575.07 3242.96,2570.95 3242.96,2570.95
             3242.96,2570.95 3226.00,2563.75 3226.00,2563.75
             3226.00,2563.75 3209.00,2554.11 3209.00,2554.11
             3203.24,2551.65 3200.85,2552.95 3196.96,2550.86
             3196.96,2550.86 3186.32,2543.26 3186.32,2543.26
             3186.32,2543.26 3181.68,2538.98 3181.68,2538.98
             3181.68,2538.98 3173.01,2535.12 3173.01,2535.12
             3173.01,2535.12 3164.91,2528.90 3164.91,2528.90
             3164.91,2528.90 3149.04,2521.15 3149.04,2521.15
             3143.94,2517.98 3144.06,2514.34 3137.00,2515.00
             3133.15,2507.76 3123.94,2503.35 3117.00,2499.74
             3111.70,2496.98 3111.24,2495.67 3105.00,2495.00
             3103.51,2488.45 3096.65,2487.43 3091.00,2484.59
             3091.00,2484.59 3079.00,2477.27 3079.00,2477.27
             3071.47,2473.31 3063.68,2471.01 3058.00,2464.00
             3058.00,2464.00 3054.00,2466.00 3054.00,2466.00
             3052.99,2463.82 3052.34,2462.16 3050.61,2460.38
             3047.29,2456.97 3038.69,2453.12 3034.00,2453.00
             3034.00,2453.00 3033.00,2447.00 3033.00,2447.00
             3026.97,2447.46 3024.55,2445.33 3022.00,2440.00
             3022.00,2440.00 3019.00,2441.00 3019.00,2441.00
             3015.10,2435.54 3009.28,2436.39 3004.00,2433.36
             3004.00,2433.36 2991.58,2424.42 2991.58,2424.42
             2991.58,2424.42 2985.00,2420.48 2985.00,2420.48
             2980.79,2417.61 2978.25,2414.70 2973.00,2414.00
             2973.00,2414.00 2970.00,2412.00 2970.00,2412.00
             2970.00,2412.00 2970.00,2408.00 2970.00,2408.00
             2967.05,2407.76 2960.74,2407.07 2958.26,2405.70
             2958.26,2405.70 2952.89,2401.59 2952.89,2401.59
             2952.89,2401.59 2946.80,2399.59 2946.80,2399.59
             2946.80,2399.59 2941.00,2395.32 2941.00,2395.32
             2941.00,2395.32 2932.42,2390.86 2932.42,2390.86
             2932.42,2390.86 2920.00,2383.54 2920.00,2383.54
             2920.00,2383.54 2895.91,2368.80 2895.91,2368.80
             2895.91,2368.80 2863.09,2351.88 2863.09,2351.88
             2863.09,2351.88 2856.68,2346.20 2856.68,2346.20
             2856.68,2346.20 2849.28,2343.20 2849.28,2343.20
             2849.28,2343.20 2841.00,2337.92 2841.00,2337.92
             2841.00,2337.92 2827.61,2328.04 2827.61,2328.04
             2827.61,2328.04 2819.96,2321.38 2819.96,2321.38
             2813.82,2317.06 2814.58,2319.81 2805.58,2312.62
             2803.83,2311.22 2794.71,2305.18 2793.00,2304.58
             2790.67,2303.77 2788.79,2304.24 2786.00,2303.07
             2786.00,2303.07 2775.00,2296.78 2775.00,2296.78
             2767.24,2293.64 2762.34,2296.49 2760.00,2289.00
             2750.54,2283.91 2752.63,2276.12 2739.00,2272.00
             2739.00,2272.00 2740.00,2270.00 2740.00,2270.00
             2740.00,2270.00 2725.00,2262.00 2725.00,2262.00
             2724.31,2257.95 2719.78,2254.10 2715.95,2252.64
             2711.99,2251.13 2712.70,2253.43 2709.00,2249.00
             2698.23,2250.69 2699.23,2246.89 2693.79,2242.98
             2693.79,2242.98 2686.09,2238.46 2686.09,2238.46
             2679.60,2233.45 2673.71,2225.31 2665.00,2225.00
             2663.23,2219.81 2659.42,2219.72 2655.00,2216.90
             2655.00,2216.90 2646.72,2210.09 2646.72,2210.09
             2643.76,2208.18 2638.49,2207.47 2635.00,2207.00
             2633.32,2199.03 2622.42,2201.70 2617.00,2193.00
             2608.04,2192.44 2606.83,2189.66 2599.91,2185.95
             2599.91,2185.95 2582.00,2178.27 2582.00,2178.27
             2582.00,2178.27 2571.96,2170.82 2571.96,2170.82
             2567.83,2168.58 2565.09,2168.53 2562.00,2167.12
             2558.67,2165.60 2555.54,2162.75 2552.17,2161.68
             2549.85,2160.95 2546.47,2161.27 2543.04,2159.86
             2538.89,2158.14 2538.19,2155.62 2533.99,2153.85
             2533.99,2153.85 2525.17,2151.81 2525.17,2151.81
             2525.17,2151.81 2521.00,2149.80 2521.00,2149.80
             2511.34,2145.90 2500.42,2143.23 2490.00,2143.00
             2488.91,2139.20 2484.44,2138.62 2481.00,2137.58
             2473.68,2135.37 2465.80,2130.10 2458.00,2131.00
             2458.00,2131.00 2448.00,2123.00 2448.00,2123.00
             2441.57,2122.51 2441.73,2120.99 2436.00,2119.39
             2436.00,2119.39 2426.00,2117.24 2426.00,2117.24
             2426.00,2117.24 2417.00,2112.70 2417.00,2112.70
             2415.19,2112.02 2412.87,2111.84 2411.27,2110.83
             2407.25,2108.27 2408.28,2103.03 2401.00,2099.99
             2395.86,2097.85 2390.06,2097.85 2387.42,2096.99
             2382.16,2095.28 2383.99,2092.76 2373.00,2093.01
             2365.82,2093.18 2361.67,2095.56 2357.00,2095.74
             2357.00,2095.74 2350.00,2095.24 2350.00,2095.24
             2341.61,2095.11 2344.86,2092.86 2338.56,2088.57
             2334.58,2085.85 2330.69,2085.22 2326.00,2085.00
             2326.00,2085.00 2319.00,2074.00 2319.00,2074.00
             2319.00,2074.00 2302.00,2065.00 2302.00,2065.00
             2302.00,2065.00 2303.00,2061.00 2303.00,2061.00
             2303.00,2061.00 2296.77,2056.25 2296.77,2056.25
             2296.77,2056.25 2286.49,2049.62 2286.49,2049.62
             2286.49,2049.62 2272.00,2042.32 2272.00,2042.32
             2272.00,2042.32 2263.00,2036.95 2263.00,2036.95
             2259.38,2034.83 2249.15,2029.62 2248.00,2026.00
             2248.00,2026.00 2242.00,2020.00 2242.00,2020.00
             2237.21,2021.33 2235.39,2020.35 2233.00,2016.00
             2226.98,2015.51 2220.78,2013.72 2215.00,2016.00
             2212.27,2005.52 2213.06,2003.16 2211.72,1993.00
             2210.72,1985.40 2209.02,1983.84 2209.00,1976.00
             2209.00,1976.00 2207.91,1954.00 2207.91,1954.00
             2207.91,1954.00 2206.76,1938.17 2206.76,1938.17
             2206.76,1938.17 2204.92,1931.41 2204.92,1931.41
             2204.92,1931.41 2204.92,1924.00 2204.92,1924.00
             2204.92,1924.00 2204.01,1914.00 2204.01,1914.00
             2204.01,1914.00 2204.98,1901.00 2204.98,1901.00
             2204.98,1901.00 2204.98,1893.00 2204.98,1893.00
             2205.47,1886.77 2208.80,1879.80 2206.46,1873.45
             2206.46,1873.45 2204.00,1869.00 2204.00,1869.00
             2204.00,1869.00 2207.00,1870.00 2207.00,1870.00
             2207.00,1870.00 2207.00,1860.00 2207.00,1860.00
             2206.87,1857.24 2207.99,1852.07 2205.00,1851.00
             2205.00,1851.00 2207.80,1836.91 2207.80,1836.91
             2207.80,1836.91 2207.17,1829.00 2207.17,1829.00
             2207.17,1829.00 2208.55,1822.00 2208.55,1822.00
             2208.75,1819.60 2208.02,1818.05 2208.55,1815.00
             2208.55,1815.00 2215.25,1795.09 2215.25,1795.09
             2215.25,1795.09 2218.12,1789.83 2218.12,1789.83
             2219.94,1785.86 2221.37,1781.72 2223.72,1778.00
             2223.72,1778.00 2231.45,1767.00 2231.45,1767.00
             2231.45,1767.00 2234.43,1759.00 2234.43,1759.00
             2234.43,1759.00 2238.99,1752.00 2238.99,1752.00
             2238.99,1752.00 2240.98,1746.17 2240.98,1746.17
             2240.98,1746.17 2245.52,1739.96 2245.52,1739.96
             2245.52,1739.96 2249.37,1732.00 2249.37,1732.00
             2253.99,1722.78 2255.48,1723.43 2256.00,1712.00
             2261.36,1710.07 2259.91,1706.34 2261.30,1701.72
             2261.30,1701.72 2264.55,1694.00 2264.55,1694.00
             2266.64,1688.20 2265.91,1683.34 2272.00,1680.00
             2272.27,1669.38 2275.67,1672.91 2278.32,1665.00
             2278.32,1665.00 2279.97,1659.09 2279.97,1659.09
             2279.97,1659.09 2282.59,1652.91 2282.59,1652.91
             2283.31,1650.09 2282.65,1648.53 2284.09,1644.00
             2284.09,1644.00 2289.36,1629.01 2289.36,1629.01
             2289.36,1629.01 2292.92,1621.83 2292.92,1621.83
             2294.37,1617.19 2293.61,1613.52 2294.47,1610.00
             2294.47,1610.00 2297.48,1602.00 2297.48,1602.00
             2297.48,1602.00 2300.92,1589.00 2300.92,1589.00
             2300.92,1589.00 2303.51,1582.00 2303.51,1582.00
             2303.51,1582.00 2304.27,1572.00 2304.27,1572.00
             2304.27,1572.00 2306.59,1565.00 2306.59,1565.00
             2306.59,1565.00 2307.33,1557.00 2307.33,1557.00
             2307.33,1557.00 2309.79,1548.00 2309.79,1548.00
             2310.22,1545.04 2309.73,1541.93 2310.89,1539.04
             2312.49,1535.08 2317.55,1532.27 2320.83,1529.69
             2323.26,1527.78 2328.95,1520.73 2330.07,1517.92
             2330.07,1517.92 2334.89,1500.91 2334.89,1500.91
             2335.56,1495.10 2334.75,1485.71 2336.88,1480.04
             2338.59,1475.46 2342.38,1473.87 2345.98,1467.96
             2350.08,1461.23 2347.56,1459.07 2353.00,1456.00
             2353.00,1456.00 2353.00,1450.00 2353.00,1450.00
             2358.36,1448.30 2358.44,1446.20 2358.00,1441.00
             2364.88,1438.82 2366.13,1430.90 2368.90,1425.17
             2368.90,1425.17 2373.37,1417.99 2373.37,1417.99
             2379.29,1405.96 2381.91,1395.12 2383.97,1382.00
             2385.07,1374.98 2387.99,1377.21 2388.95,1371.95
             2388.95,1371.95 2388.95,1365.00 2388.95,1365.00
             2388.95,1365.00 2390.46,1353.00 2390.46,1353.00
             2390.46,1353.00 2394.57,1336.00 2394.57,1336.00
             2394.57,1336.00 2397.26,1315.00 2397.26,1315.00
             2397.26,1315.00 2399.66,1307.00 2399.66,1307.00
             2399.66,1307.00 2401.12,1296.00 2401.12,1296.00
             2401.12,1296.00 2405.16,1283.00 2405.16,1283.00
             2405.16,1283.00 2407.00,1256.00 2407.00,1256.00
             2407.00,1256.00 2410.86,1219.00 2410.86,1219.00
             2410.86,1219.00 2412.00,1169.00 2412.00,1169.00
             2411.88,1159.73 2409.88,1160.94 2408.41,1155.00
             2407.41,1150.96 2408.41,1150.96 2406.20,1146.00
             2403.96,1140.96 2398.75,1130.83 2393.71,1128.47
             2391.93,1127.63 2389.00,1127.29 2387.00,1126.83
             2383.24,1125.97 2383.00,1125.37 2378.80,1126.00
             2378.40,1122.63 2377.43,1118.33 2378.80,1115.00
             2379.72,1111.77 2382.03,1110.40 2383.47,1106.00
             2383.47,1106.00 2389.45,1075.00 2389.45,1075.00
             2391.30,1068.19 2394.79,1065.93 2394.98,1058.00
             2395.31,1044.64 2388.30,1027.85 2387.02,1020.00
             2387.02,1020.00 2387.02,1010.00 2387.02,1010.00
             2387.02,1010.00 2384.00,983.00 2384.00,983.00
             2383.95,975.20 2379.81,967.09 2379.74,962.09
             2379.74,962.09 2379.74,955.91 2379.74,955.91
             2379.74,955.91 2381.09,936.00 2381.09,936.00
             2381.09,936.00 2382.00,926.00 2382.00,926.00
             2382.18,909.96 2381.23,913.87 2378.62,900.00
             2377.80,895.67 2377.89,891.19 2376.34,887.00
             2373.70,879.81 2368.70,873.60 2367.02,866.00
             2367.02,866.00 2365.63,857.00 2365.63,857.00
             2365.63,857.00 2363.46,849.00 2363.46,849.00
             2363.46,849.00 2362.21,842.00 2362.21,842.00
             2362.21,842.00 2356.67,825.00 2356.67,825.00
             2356.67,825.00 2355.54,816.00 2355.54,816.00
             2355.54,816.00 2352.36,804.00 2352.36,804.00
             2352.36,804.00 2351.20,795.00 2351.20,795.00
             2351.20,795.00 2345.43,773.00 2345.43,773.00
             2345.43,773.00 2342.30,765.00 2342.30,765.00
             2342.30,765.00 2339.69,757.01 2339.69,757.01
             2339.69,757.01 2334.07,744.00 2334.07,744.00
             2334.07,744.00 2329.46,731.00 2329.46,731.00
             2329.46,731.00 2326.32,720.00 2326.32,720.00
             2324.26,714.95 2321.79,713.34 2319.55,709.01
             2319.55,709.01 2311.95,693.00 2311.95,693.00
             2311.95,693.00 2309.78,686.00 2309.78,686.00
             2309.78,686.00 2301.89,670.00 2301.89,670.00
             2301.89,670.00 2299.68,661.00 2299.68,661.00
             2299.68,661.00 2289.59,632.00 2289.59,632.00
             2289.59,632.00 2287.14,621.00 2287.14,621.00
             2287.14,621.00 2280.51,606.00 2280.51,606.00
             2280.51,606.00 2275.32,587.00 2275.32,587.00
             2275.32,587.00 2267.32,570.00 2267.32,570.00
             2267.32,570.00 2263.92,557.00 2263.92,557.00
             2263.92,557.00 2257.45,541.83 2257.45,541.83
             2257.45,541.83 2255.79,536.00 2255.79,536.00
             2255.79,536.00 2252.33,527.18 2252.33,527.18
             2252.33,527.18 2250.92,518.82 2250.92,518.82
             2250.92,518.82 2243.68,505.00 2243.68,505.00
             2241.86,501.16 2242.31,500.22 2241.42,498.04
             2242.76,501.33 2234.11,484.91 2235.70,487.45
             2235.70,487.45 2231.12,481.95 2231.12,481.95
             2228.04,477.18 2226.74,473.02 2222.76,468.04
             2222.76,468.04 2215.97,460.96 2215.97,460.96
             2215.97,460.96 2212.27,454.96 2212.27,454.96
             2207.25,447.81 2201.84,440.88 2195.64,434.72
             2195.64,434.72 2183.00,423.37 2183.00,423.37
             2183.00,423.37 2176.30,418.07 2176.30,418.07
             2176.30,418.07 2168.12,408.59 2168.12,408.59
             2168.12,408.59 2144.00,388.45 2144.00,388.45
             2144.00,388.45 2133.00,381.37 2133.00,381.37
             2133.00,381.37 2120.00,370.99 2120.00,370.99
             2120.00,370.99 2111.00,365.89 2111.00,365.89
             2111.00,365.89 2085.99,345.22 2085.99,345.22
             2085.99,345.22 2071.48,336.02 2071.48,336.02
             2071.48,336.02 2064.00,326.00 2064.00,326.00
             2064.00,326.00 2064.00,330.00 2064.00,330.00
             2064.00,330.00 2058.74,326.49 2058.74,326.49
             2052.97,323.63 2051.72,325.68 2047.00,318.00
             2039.47,317.70 2037.29,314.54 2031.58,310.85
             2031.58,310.85 2015.58,301.51 2015.58,301.51
             2015.58,301.51 1997.00,293.83 1997.00,293.83
             1997.00,293.83 1981.00,285.35 1981.00,285.35
             1981.00,285.35 1956.00,274.77 1956.00,274.77
             1947.82,271.17 1947.16,268.97 1943.96,267.73
             1943.96,267.73 1925.00,264.29 1925.00,264.29
             1925.00,264.29 1914.00,259.32 1914.00,259.32
             1914.00,259.32 1907.00,256.88 1907.00,256.88
             1907.00,256.88 1899.00,252.48 1899.00,252.48
             1899.00,252.48 1886.00,249.06 1886.00,249.06
             1886.00,249.06 1876.00,244.48 1876.00,244.48
             1876.00,244.48 1865.42,241.97 1865.42,241.97
             1865.42,241.97 1854.00,237.34 1854.00,237.34
             1854.00,237.34 1842.00,233.82 1842.00,233.82
             1842.00,233.82 1832.00,229.12 1832.00,229.12
             1832.00,229.12 1813.00,225.72 1813.00,225.72
             1813.00,225.72 1793.00,220.44 1793.00,220.44
             1793.00,220.44 1777.00,217.49 1777.00,217.49
             1777.00,217.49 1754.00,210.92 1754.00,210.92
             1754.00,210.92 1736.00,207.12 1736.00,207.12
             1736.00,207.12 1725.00,204.09 1725.00,204.09
             1721.60,203.55 1712.06,202.26 1709.01,202.54
             1699.46,203.40 1700.71,206.06 1686.00,206.00
             1686.00,206.00 1667.82,205.25 1667.82,205.25
             1667.82,205.25 1651.00,209.91 1651.00,209.91
             1651.00,209.91 1625.00,216.13 1625.00,216.13
             1625.00,216.13 1607.00,219.67 1607.00,219.67
             1607.00,219.67 1596.00,222.83 1596.00,222.83
             1596.00,222.83 1576.00,226.30 1576.00,226.30
             1571.06,227.77 1569.63,230.15 1565.00,231.90
             1565.00,231.90 1553.00,235.41 1553.00,235.41
             1553.00,235.41 1542.00,239.97 1542.00,239.97
             1542.00,239.97 1530.00,243.61 1530.00,243.61
             1530.00,243.61 1520.00,248.73 1520.00,248.73
             1520.00,248.73 1511.00,251.04 1511.00,251.04
             1511.00,251.04 1500.00,255.21 1500.00,255.21
             1500.00,255.21 1493.00,256.63 1493.00,256.63
             1493.00,256.63 1479.00,261.76 1479.00,261.76
             1479.00,261.76 1456.00,272.31 1456.00,272.31
             1456.00,272.31 1450.00,275.70 1450.00,275.70
             1446.18,277.41 1443.62,276.62 1441.37,277.56
             1439.02,278.54 1438.46,280.55 1433.98,282.65
             1433.98,282.65 1417.00,288.96 1417.00,288.96
             1417.00,288.96 1409.00,293.46 1409.00,293.46
             1409.00,293.46 1399.00,297.24 1399.00,297.24
             1399.00,297.24 1390.00,303.03 1390.00,303.03
             1390.00,303.03 1380.04,306.55 1380.04,306.55
             1380.04,306.55 1368.00,312.80 1368.00,312.80
             1368.00,312.80 1358.00,319.46 1358.00,319.46
             1358.00,319.46 1347.09,324.54 1347.09,324.54
             1347.09,324.54 1324.04,338.24 1324.04,338.24
             1324.04,338.24 1314.99,345.44 1314.99,345.44
             1314.99,345.44 1304.17,351.31 1304.17,351.31
             1304.17,351.31 1293.74,359.36 1293.74,359.36
             1293.74,359.36 1286.01,363.56 1286.01,363.56
             1286.01,363.56 1277.91,369.79 1277.91,369.79
             1277.91,369.79 1270.17,373.41 1270.17,373.41
             1270.17,373.41 1264.91,377.07 1264.91,377.07
             1262.32,378.50 1259.58,378.80 1256.11,381.30
             1251.92,384.34 1245.21,393.50 1244.69,393.87
             1242.43,395.48 1237.73,395.92 1233.32,399.47
             1233.32,399.47 1212.15,419.48 1212.15,419.48
             1208.07,423.86 1204.96,430.15 1199.00,432.00 Z
           M 1115.00,637.00
           C 1115.00,637.00 1115.00,638.00 1115.00,638.00
             1115.00,638.00 1114.00,637.00 1114.00,637.00
             1114.00,637.00 1115.00,637.00 1115.00,637.00 Z
           M 2413.00,1182.00
           C 2413.00,1182.00 2413.00,1183.00 2413.00,1183.00
             2413.00,1183.00 2414.00,1182.00 2414.00,1182.00
             2414.00,1182.00 2413.00,1182.00 2413.00,1182.00 Z
           M 1249.00,1763.00
           C 1249.00,1763.00 1249.00,1764.00 1249.00,1764.00
             1249.00,1764.00 1250.00,1763.00 1250.00,1763.00
             1250.00,1763.00 1249.00,1763.00 1249.00,1763.00 Z
           M 2205.00,1858.00
           C 2205.00,1858.00 2205.00,1859.00 2205.00,1859.00
             2205.00,1859.00 2204.00,1858.00 2204.00,1858.00
             2204.00,1858.00 2205.00,1858.00 2205.00,1858.00 Z
           M 2369.00,2094.00
           C 2369.00,2094.00 2369.00,2095.00 2369.00,2095.00
             2369.00,2095.00 2368.00,2094.00 2368.00,2094.00
             2368.00,2094.00 2369.00,2094.00 2369.00,2094.00 Z
           M 1079.00,2167.00
           C 1079.00,2167.00 1079.00,2168.00 1079.00,2168.00
             1079.00,2168.00 1080.00,2167.00 1080.00,2167.00
             1080.00,2167.00 1079.00,2167.00 1079.00,2167.00 Z
           M 1053.00,2181.00
           C 1053.00,2181.00 1053.00,2182.00 1053.00,2182.00
             1053.00,2182.00 1052.00,2181.00 1052.00,2181.00
             1052.00,2181.00 1053.00,2181.00 1053.00,2181.00 Z
           M 1025.00,2188.00
           C 1025.00,2188.00 1025.00,2189.00 1025.00,2189.00
             1025.00,2189.00 1026.00,2188.00 1026.00,2188.00
             1026.00,2188.00 1025.00,2188.00 1025.00,2188.00 Z
           M 993.00,2205.00
           C 993.00,2205.00 993.00,2206.00 993.00,2206.00
             993.00,2206.00 994.00,2205.00 994.00,2205.00
             994.00,2205.00 993.00,2205.00 993.00,2205.00 Z
           M 2664.00,2222.00
           C 2664.00,2222.00 2664.00,2223.00 2664.00,2223.00
             2664.00,2223.00 2663.00,2222.00 2663.00,2222.00
             2663.00,2222.00 2664.00,2222.00 2664.00,2222.00 Z
           M 894.00,2259.00
           C 894.00,2259.00 894.00,2260.00 894.00,2260.00
             894.00,2260.00 893.00,2259.00 893.00,2259.00
             893.00,2259.00 894.00,2259.00 894.00,2259.00 Z
           M 3032.00,2450.00
           C 3032.00,2450.00 3032.00,2451.00 3032.00,2451.00
             3032.00,2451.00 3031.00,2450.00 3031.00,2450.00
             3031.00,2450.00 3032.00,2450.00 3032.00,2450.00 Z
           M 570.00,2473.00
           C 570.00,2473.00 570.00,2474.00 570.00,2474.00
             570.00,2474.00 569.00,2473.00 569.00,2473.00
             569.00,2473.00 570.00,2473.00 570.00,2473.00 Z
           M 563.00,2482.00
           C 563.00,2482.00 563.00,2483.00 563.00,2483.00
             563.00,2483.00 562.00,2482.00 562.00,2482.00
             562.00,2482.00 563.00,2482.00 563.00,2482.00 Z
           M 489.00,2528.00
           C 489.00,2528.00 489.00,2529.00 489.00,2529.00
             489.00,2529.00 488.00,2528.00 488.00,2528.00
             488.00,2528.00 489.00,2528.00 489.00,2528.00 Z
           M 449.00,2552.00
           C 449.00,2552.00 449.00,2553.00 449.00,2553.00
             449.00,2553.00 448.00,2552.00 448.00,2552.00
             448.00,2552.00 449.00,2552.00 449.00,2552.00 Z
           M 217.00,2720.00
           C 217.00,2720.00 217.00,2721.00 217.00,2721.00
             217.00,2721.00 216.00,2720.00 216.00,2720.00
             216.00,2720.00 217.00,2720.00 217.00,2720.00 Z
           M 3493.00,2746.00
           C 3493.00,2746.00 3493.00,2747.00 3493.00,2747.00
             3493.00,2747.00 3492.00,2746.00 3492.00,2746.00
             3492.00,2746.00 3493.00,2746.00 3493.00,2746.00 Z
           M 93.00,2859.00
           C 93.00,2859.00 91.00,2861.00 91.00,2861.00
             91.00,2861.00 91.00,2862.00 91.00,2862.00
             91.00,2862.00 93.00,2859.00 93.00,2859.00 Z" />
</svg>
