<?xml version="1.0" encoding="UTF-8" standalone="no"?>
<!DOCTYPE svg PUBLIC "-//W3C//DTD SVG 20010904//EN"
              "http://www.w3.org/TR/2001/REC-SVG-20010904/DTD/svg10.dtd">

<svg xmlns="http://www.w3.org/2000/svg"
     width="12.4867in" height="14.2367in"
     viewBox="0 0 3746 4271">
  <path id="face"
        fill="none" stroke="black" stroke-width="1"
        d="M 1917.00,401.00
           C 1910.30,404.21 1900.00,408.82 1893.00,410.95
             1887.56,412.60 1885.70,411.41 1882.42,412.85
             1876.99,415.24 1864.36,423.86 1860.95,428.59
             1860.95,428.59 1858.28,433.92 1858.28,433.92
             1855.07,438.77 1851.04,440.65 1850.00,447.00
             1845.07,449.33 1840.87,453.36 1838.00,458.00
             1831.67,458.33 1830.22,460.99 1825.00,463.08
             1821.36,464.54 1818.94,463.55 1816.28,464.56
             1816.28,464.56 1810.96,467.85 1810.96,467.85
             1810.96,467.85 1803.00,470.09 1803.00,470.09
             1797.13,471.94 1790.07,475.40 1784.00,475.00
             1784.00,475.00 1767.00,483.40 1767.00,483.40
             1767.00,483.40 1754.00,489.00 1754.00,489.00
             1754.00,489.00 1756.00,491.00 1756.00,491.00
             1756.00,491.00 1749.95,496.32 1749.95,496.32
             1749.95,496.32 1737.28,503.72 1737.28,503.72
             1737.28,503.72 1726.55,513.75 1726.55,513.75
             1726.55,513.75 1712.58,524.90 1712.58,524.90
             1712.58,524.90 1694.00,540.00 1694.00,540.00
             1694.00,540.00 1691.00,539.00 1691.00,539.00
             1686.93,547.61 1682.03,548.54 1675.22,553.24
             1670.27,556.67 1672.72,558.43 1665.00,559.00
             1665.00,559.00 1667.00,561.00 1667.00,561.00
             1667.00,561.00 1660.28,564.68 1660.28,564.68
             1660.28,564.68 1631.79,591.34 1631.79,591.34
             1631.79,591.34 1615.28,603.32 1615.28,603.32
             1607.00,610.02 1604.90,613.57 1599.29,622.00
             1594.41,629.34 1587.23,632.23 1586.00,641.00
             1586.00,641.00 1580.00,641.00 1580.00,641.00
             1580.00,641.00 1582.00,645.00 1582.00,645.00
             1573.01,649.61 1577.36,650.81 1570.61,658.66
             1570.61,658.66 1562.64,667.32 1562.64,667.32
             1561.09,669.66 1561.09,671.49 1559.93,673.83
             1559.93,673.83 1555.67,681.01 1555.67,681.01
             1555.67,681.01 1551.52,691.96 1551.52,691.96
             1551.52,691.96 1547.04,699.09 1547.04,699.09
             1547.04,699.09 1539.50,719.00 1539.50,719.00
             1539.50,719.00 1534.72,742.00 1534.72,742.00
             1534.36,744.74 1534.75,749.76 1532.00,751.00
             1532.00,751.00 1531.48,771.00 1531.48,771.00
             1531.48,771.00 1528.78,778.00 1528.78,778.00
             1528.78,778.00 1519.00,810.00 1519.00,810.00
             1519.00,810.00 1516.97,810.77 1516.97,810.77
             1516.97,810.77 1513.47,822.72 1513.47,822.72
             1513.47,822.72 1507.00,866.00 1507.00,866.00
             1507.00,866.00 1505.56,878.00 1505.56,878.00
             1505.56,878.00 1502.17,898.00 1502.17,898.00
             1502.17,898.00 1501.57,908.00 1501.57,908.00
             1501.57,908.00 1498.29,927.00 1498.29,927.00
             1498.29,927.00 1497.27,938.00 1497.27,938.00
             1497.27,938.00 1495.29,946.17 1495.29,946.17
             1495.29,946.17 1494.00,963.00 1494.00,963.00
             1494.00,963.00 1494.00,986.00 1494.00,986.00
             1494.00,986.00 1494.82,996.00 1494.82,996.00
             1494.82,996.00 1494.00,1007.00 1494.00,1007.00
             1494.00,1007.00 1494.00,1027.00 1494.00,1027.00
             1494.00,1027.00 1495.10,1046.00 1495.10,1046.00
             1495.10,1046.00 1496.00,1054.00 1496.00,1054.00
             1496.00,1054.00 1498.00,1054.00 1498.00,1054.00
             1495.37,1071.03 1504.28,1085.71 1501.00,1104.00
             1503.35,1107.79 1501.07,1116.61 1500.00,1121.00
             1500.00,1121.00 1504.00,1122.00 1504.00,1122.00
             1504.00,1122.00 1505.74,1132.00 1505.74,1132.00
             1505.74,1132.00 1506.25,1144.00 1506.25,1144.00
             1506.25,1144.00 1508.03,1150.00 1508.03,1150.00
             1510.51,1158.27 1511.35,1163.88 1510.91,1172.58
             1510.91,1172.58 1509.41,1181.99 1509.41,1181.99
             1508.39,1184.77 1506.51,1185.95 1505.78,1188.28
             1503.45,1193.48 1503.86,1200.92 1505.78,1206.00
             1499.40,1207.69 1499.87,1210.70 1496.14,1215.91
             1494.54,1218.15 1492.31,1220.08 1492.41,1223.04
             1492.48,1225.45 1494.89,1229.73 1496.00,1232.00
             1496.00,1232.00 1497.00,1232.00 1497.00,1232.00
             1497.00,1232.00 1499.00,1230.00 1499.00,1230.00
             1500.28,1236.52 1498.94,1235.77 1497.43,1241.28
             1496.84,1243.42 1497.09,1244.50 1496.04,1246.72
             1495.32,1248.23 1494.13,1249.38 1493.70,1251.07
             1492.94,1254.01 1494.25,1261.62 1496.00,1264.00
             1491.68,1272.05 1493.45,1277.66 1486.00,1288.00
             1486.00,1288.00 1484.00,1285.00 1484.00,1285.00
             1481.79,1292.74 1484.69,1293.02 1477.00,1298.00
             1477.00,1298.00 1477.00,1300.00 1477.00,1300.00
             1482.72,1305.50 1478.90,1306.90 1478.80,1313.01
             1478.64,1321.75 1482.46,1323.17 1476.74,1331.27
             1474.83,1333.97 1474.90,1334.30 1472.00,1336.00
             1474.22,1343.79 1480.38,1345.43 1479.99,1351.59
             1479.52,1358.85 1473.85,1359.55 1472.00,1365.00
             1472.00,1365.00 1480.00,1362.00 1480.00,1362.00
             1480.00,1362.00 1486.91,1388.04 1486.91,1388.04
             1486.91,1388.04 1489.96,1416.00 1489.96,1416.00
             1490.32,1423.92 1489.90,1434.33 1491.37,1442.00
             1492.11,1445.81 1493.82,1449.35 1495.05,1453.00
             1495.05,1453.00 1497.88,1463.00 1497.88,1463.00
             1497.88,1463.00 1502.85,1472.42 1502.85,1472.42
             1502.85,1472.42 1505.93,1482.00 1505.93,1482.00
             1505.93,1482.00 1509.13,1492.91 1509.13,1492.91
             1509.13,1492.91 1513.30,1500.04 1513.30,1500.04
             1513.30,1500.04 1517.00,1510.00 1517.00,1510.00
             1519.59,1516.83 1518.29,1518.35 1523.00,1520.00
             1523.28,1523.28 1524.87,1532.16 1526.12,1535.00
             1526.12,1535.00 1529.59,1541.83 1529.59,1541.83
             1529.59,1541.83 1531.81,1550.00 1531.81,1550.00
             1531.81,1550.00 1535.37,1558.00 1535.37,1558.00
             1535.37,1558.00 1537.50,1565.00 1537.50,1565.00
             1540.18,1572.67 1543.35,1574.94 1543.00,1584.00
             1547.41,1585.07 1545.47,1587.64 1547.00,1594.00
             1547.00,1594.00 1550.00,1593.00 1550.00,1593.00
             1552.96,1604.53 1553.93,1599.07 1555.79,1606.00
             1555.79,1606.00 1561.06,1627.95 1561.06,1627.95
             1562.62,1632.42 1564.37,1632.05 1566.15,1636.05
             1566.15,1636.05 1568.17,1642.00 1568.17,1642.00
             1568.17,1642.00 1577.95,1662.49 1577.95,1662.49
             1580.79,1666.60 1597.30,1680.00 1602.01,1681.97
             1605.02,1683.23 1607.86,1683.47 1611.00,1684.04
             1616.34,1685.01 1615.83,1685.89 1622.00,1686.00
             1622.00,1686.00 1645.00,1686.00 1645.00,1686.00
             1645.00,1686.00 1648.49,1706.00 1648.49,1706.00
             1648.49,1706.00 1650.69,1712.00 1650.69,1712.00
             1652.10,1716.33 1653.20,1721.13 1657.00,1724.00
             1656.15,1729.84 1658.52,1729.81 1659.90,1734.72
             1659.90,1734.72 1660.78,1739.09 1660.78,1739.09
             1660.78,1739.09 1663.13,1744.00 1663.13,1744.00
             1663.13,1744.00 1665.41,1750.00 1665.41,1750.00
             1665.41,1750.00 1676.75,1771.00 1676.75,1771.00
             1676.75,1771.00 1699.69,1813.00 1699.69,1813.00
             1699.69,1813.00 1720.45,1851.00 1720.45,1851.00
             1720.45,1851.00 1729.98,1865.00 1729.98,1865.00
             1729.98,1865.00 1746.98,1890.00 1746.98,1890.00
             1746.98,1890.00 1771.26,1926.00 1771.26,1926.00
             1771.26,1926.00 1812.00,1967.00 1812.00,1967.00
             1812.00,1967.00 1842.00,1996.39 1842.00,1996.39
             1842.00,1996.39 1862.00,2008.68 1862.00,2008.68
             1862.00,2008.68 1904.00,2034.03 1904.00,2034.03
             1904.00,2034.03 1943.00,2049.80 1943.00,2049.80
             1943.00,2049.80 1968.00,2060.04 1968.00,2060.04
             1972.06,2061.84 1975.68,2064.68 1980.00,2065.82
             1980.00,2065.82 2005.00,2069.42 2005.00,2069.42
             2005.00,2069.42 2043.00,2074.00 2043.00,2074.00
             2043.00,2074.00 2123.00,2074.00 2123.00,2074.00
             2133.75,2073.98 2135.34,2071.99 2145.00,2070.44
             2145.00,2070.44 2162.00,2068.28 2162.00,2068.28
             2162.00,2068.28 2212.00,2061.76 2212.00,2061.76
             2212.00,2061.76 2258.00,2043.51 2258.00,2043.51
             2268.79,2038.31 2290.82,2019.54 2301.00,2011.40
             2301.00,2011.40 2325.00,1992.02 2325.00,1992.02
             2325.00,1992.02 2335.00,1984.79 2335.00,1984.79
             2335.00,1984.79 2357.00,1964.09 2357.00,1964.09
             2357.00,1964.09 2380.00,1942.99 2380.00,1942.99
             2380.00,1942.99 2422.09,1899.00 2422.09,1899.00
             2422.09,1899.00 2451.18,1868.00 2451.18,1868.00
             2451.18,1868.00 2470.69,1838.00 2470.69,1838.00
             2470.69,1838.00 2491.68,1805.00 2491.68,1805.00
             2491.68,1805.00 2509.05,1758.00 2509.05,1758.00
             2509.05,1758.00 2515.79,1739.00 2515.79,1739.00
             2515.79,1739.00 2517.53,1731.00 2517.53,1731.00
             2518.60,1727.66 2520.73,1725.33 2521.62,1721.00
             2521.62,1721.00 2522.90,1705.27 2522.90,1705.27
             2523.38,1701.99 2527.04,1691.76 2524.91,1689.00
             2524.27,1688.17 2523.45,1688.19 2523.00,1688.00
             2530.43,1677.15 2525.89,1680.20 2527.44,1670.00
             2527.44,1670.00 2531.90,1647.99 2531.90,1647.99
             2532.48,1641.87 2531.11,1634.20 2538.00,1632.00
             2538.96,1625.73 2539.92,1618.13 2548.00,1618.23
             2551.40,1618.27 2555.35,1620.99 2567.00,1620.77
             2570.00,1621.00 2573.04,1621.09 2576.00,1620.77
             2579.69,1619.84 2581.66,1618.70 2585.00,1617.54
             2597.27,1613.28 2609.66,1608.06 2619.56,1599.32
             2622.60,1596.63 2622.95,1595.11 2625.17,1592.55
             2625.17,1592.55 2631.18,1586.87 2631.18,1586.87
             2631.18,1586.87 2637.70,1577.42 2637.70,1577.42
             2640.64,1573.22 2639.46,1569.45 2644.00,1568.00
             2644.00,1568.00 2649.87,1553.01 2649.87,1553.01
             2649.87,1553.01 2651.52,1546.72 2651.52,1546.72
             2651.52,1546.72 2658.31,1533.00 2658.31,1533.00
             2658.31,1533.00 2660.04,1524.00 2660.04,1524.00
             2660.04,1524.00 2665.33,1505.00 2665.33,1505.00
             2665.33,1505.00 2666.46,1496.00 2666.46,1496.00
             2666.46,1496.00 2671.38,1477.00 2671.38,1477.00
             2671.38,1477.00 2671.38,1465.00 2671.38,1465.00
             2671.38,1465.00 2674.56,1454.00 2674.56,1454.00
             2674.56,1454.00 2678.15,1438.00 2678.15,1438.00
             2678.15,1438.00 2680.68,1429.00 2680.68,1429.00
             2680.68,1429.00 2681.29,1416.00 2681.29,1416.00
             2681.29,1416.00 2683.04,1405.00 2683.04,1405.00
             2683.04,1405.00 2683.04,1395.00 2683.04,1395.00
             2683.04,1395.00 2685.04,1375.00 2685.04,1375.00
             2685.04,1375.00 2685.04,1364.00 2685.04,1364.00
             2685.04,1364.00 2686.00,1352.00 2686.00,1352.00
             2686.00,1352.00 2686.00,1304.00 2686.00,1304.00
             2686.17,1295.05 2691.29,1293.30 2688.00,1287.00
             2688.00,1287.00 2692.00,1286.00 2692.00,1286.00
             2692.00,1286.00 2694.00,1296.00 2694.00,1296.00
             2694.00,1296.00 2696.14,1296.00 2696.14,1296.00
             2696.14,1296.00 2696.14,1279.58 2696.14,1279.58
             2698.06,1271.79 2701.21,1273.27 2700.00,1265.00
             2700.00,1265.00 2706.00,1264.00 2706.00,1264.00
             2706.98,1268.46 2707.44,1269.22 2712.00,1270.00
             2713.53,1265.28 2715.26,1264.67 2720.00,1264.00
             2720.00,1264.00 2716.32,1251.11 2716.32,1251.11
             2716.32,1251.11 2706.00,1239.00 2706.00,1239.00
             2706.00,1239.00 2710.00,1238.00 2710.00,1238.00
             2707.49,1232.78 2701.72,1226.45 2696.00,1225.00
             2698.85,1222.14 2699.07,1222.17 2703.00,1223.00
             2702.93,1216.96 2700.44,1216.68 2696.55,1212.97
             2696.55,1212.97 2692.02,1207.69 2692.02,1207.69
             2687.14,1202.60 2681.90,1200.43 2683.00,1192.00
             2687.96,1195.36 2693.12,1198.60 2699.00,1200.00
             2699.00,1200.00 2688.00,1186.00 2688.00,1186.00
             2681.37,1184.54 2682.02,1182.03 2682.00,1176.00
             2682.00,1176.00 2678.00,1177.00 2678.00,1177.00
             2678.00,1177.00 2677.00,1173.00 2677.00,1173.00
             2677.00,1173.00 2674.00,1173.00 2674.00,1173.00
             2676.59,1168.92 2672.68,1166.31 2669.76,1163.07
             2667.77,1160.87 2664.99,1158.83 2664.02,1155.96
             2663.49,1154.38 2663.69,1152.63 2663.48,1151.00
             2663.48,1151.00 2662.21,1145.00 2662.21,1145.00
             2661.51,1140.13 2660.75,1131.43 2655.00,1130.00
             2655.00,1130.00 2654.00,1129.00 2654.00,1129.00
             2654.00,1129.00 2652.00,1120.00 2652.00,1120.00
             2652.00,1120.00 2658.00,1128.00 2658.00,1128.00
             2658.00,1128.00 2658.00,1118.00 2658.00,1118.00
             2654.06,1115.20 2652.10,1113.43 2650.00,1109.00
             2652.45,1110.15 2655.22,1111.68 2658.00,1111.55
             2664.22,1111.27 2666.30,1106.30 2668.41,1105.01
             2670.31,1103.85 2672.86,1104.03 2675.00,1104.00
             2671.64,1101.51 2669.30,1102.31 2665.00,1100.68
             2656.09,1097.29 2644.70,1091.67 2640.00,1083.00
             2643.50,1085.35 2644.25,1084.56 2648.00,1083.00
             2648.00,1083.00 2648.00,1081.00 2648.00,1081.00
             2639.88,1076.09 2643.60,1070.79 2636.00,1066.00
             2637.31,1060.62 2637.58,1038.58 2636.65,1033.04
             2636.65,1033.04 2634.48,1025.91 2634.48,1025.91
             2634.01,1023.02 2635.26,1020.82 2634.48,1017.00
             2634.48,1017.00 2631.64,1006.72 2631.64,1006.72
             2631.64,1006.72 2630.37,997.00 2630.37,997.00
             2630.37,997.00 2626.24,979.00 2626.24,979.00
             2626.24,979.00 2624.54,968.04 2624.54,968.04
             2624.54,968.04 2622.43,960.91 2622.43,960.91
             2622.43,960.91 2622.43,952.00 2622.43,952.00
             2621.75,943.23 2616.66,942.69 2615.90,927.04
             2615.68,924.68 2615.19,923.22 2615.90,921.00
             2612.68,915.08 2614.60,913.66 2612.92,908.00
             2611.32,902.61 2608.63,900.68 2608.19,894.00
             2607.81,888.29 2610.63,886.74 2609.29,882.00
             2609.29,882.00 2606.31,875.00 2606.31,875.00
             2606.31,875.00 2603.63,867.00 2603.63,867.00
             2603.63,867.00 2602.45,861.17 2602.45,861.17
             2602.45,861.17 2599.00,854.96 2599.00,854.96
             2599.00,854.96 2596.60,846.00 2596.60,846.00
             2596.60,846.00 2592.49,838.00 2592.49,838.00
             2590.44,833.00 2590.16,826.80 2589.29,824.43
             2589.29,824.43 2583.77,814.96 2583.77,814.96
             2583.77,814.96 2578.95,804.91 2578.95,804.91
             2578.95,804.91 2576.36,797.09 2576.36,797.09
             2576.36,797.09 2567.67,783.00 2567.67,783.00
             2567.67,783.00 2563.62,771.04 2563.62,771.04
             2563.62,771.04 2560.89,765.72 2560.89,765.72
             2560.89,765.72 2559.02,760.00 2559.02,760.00
             2559.02,760.00 2552.69,748.00 2552.69,748.00
             2550.46,743.14 2543.82,731.56 2544.00,727.00
             2535.42,718.93 2536.90,715.02 2534.11,710.17
             2534.11,710.17 2529.68,703.97 2529.68,703.97
             2529.68,703.97 2523.77,691.87 2523.77,691.87
             2520.48,686.25 2519.66,689.45 2516.00,679.00
             2516.00,679.00 2514.00,680.00 2514.00,680.00
             2512.76,675.97 2509.69,668.55 2507.10,665.32
             2507.10,665.32 2502.80,660.68 2502.80,660.68
             2502.80,660.68 2492.24,647.05 2492.24,647.05
             2492.24,647.05 2487.68,641.83 2487.68,641.83
             2487.68,641.83 2483.39,633.32 2483.39,633.32
             2481.20,630.22 2478.55,628.57 2475.38,622.72
             2475.38,622.72 2472.71,615.66 2472.71,615.66
             2472.71,615.66 2465.78,608.41 2465.78,608.41
             2463.46,605.69 2459.58,599.33 2458.44,596.00
             2457.29,592.66 2458.78,589.10 2455.00,588.00
             2455.00,588.00 2445.00,567.00 2445.00,567.00
             2440.72,563.17 2440.48,561.60 2440.00,556.00
             2436.35,554.44 2432.99,552.33 2430.72,548.96
             2428.83,546.15 2428.74,543.40 2427.61,541.38
             2425.74,538.03 2420.65,533.69 2417.00,533.00
             2414.05,524.71 2404.18,518.64 2397.09,514.08
             2389.19,509.00 2374.78,497.32 2371.00,489.00
             2364.98,489.39 2364.20,487.90 2361.00,483.00
             2350.30,484.14 2349.28,479.42 2341.79,474.35
             2341.79,474.35 2331.58,468.37 2331.58,468.37
             2331.58,468.37 2324.00,465.00 2324.00,465.00
             2324.00,465.00 2305.00,453.09 2305.00,453.09
             2295.70,448.84 2295.45,450.80 2291.17,449.51
             2291.17,449.51 2283.00,445.31 2283.00,445.31
             2276.05,442.14 2264.52,439.04 2261.00,432.00
             2261.00,432.00 2241.28,426.66 2241.28,426.66
             2241.28,426.66 2230.72,419.56 2230.72,419.56
             2230.72,419.56 2209.00,415.00 2209.00,415.00
             2209.00,415.00 2211.00,413.00 2211.00,413.00
             2211.00,413.00 2176.00,412.47 2176.00,412.47
             2169.61,412.55 2159.36,408.50 2153.00,406.75
             2146.64,404.99 2144.65,406.16 2142.17,405.34
             2136.84,403.59 2137.42,398.88 2129.00,401.00
             2129.00,401.00 2128.00,397.00 2128.00,397.00
             2117.88,399.00 2121.41,395.06 2113.96,392.65
             2113.96,392.65 2101.00,390.28 2101.00,390.28
             2095.53,389.16 2082.65,388.70 2077.00,389.09
             2077.00,389.09 2070.00,389.90 2070.00,389.90
             2070.00,389.90 2061.00,389.19 2061.00,389.19
             2061.00,389.19 2051.00,391.23 2051.00,391.23
             2051.00,391.23 2039.00,391.23 2039.00,391.23
             2039.00,391.23 2014.00,394.16 2014.00,394.16
             2014.00,394.16 1995.00,395.30 1995.00,395.30
             1988.49,396.24 1983.07,399.30 1980.00,399.70
             1975.16,400.33 1971.32,397.30 1963.00,398.17
             1963.00,398.17 1955.00,399.74 1955.00,399.74
             1955.00,399.74 1932.00,399.74 1932.00,399.74
             1926.05,400.69 1922.91,403.45 1917.00,401.00 Z
           M 2206.00,414.00
           C 2206.00,414.00 2206.00,415.00 2206.00,415.00
             2206.00,415.00 2205.00,414.00 2205.00,414.00
             2205.00,414.00 2206.00,414.00 2206.00,414.00 Z
           M 2208.00,414.00
           C 2208.00,414.00 2208.00,415.00 2208.00,415.00
             2208.00,415.00 2207.00,414.00 2207.00,414.00
             2207.00,414.00 2208.00,414.00 2208.00,414.00 Z
           M 1583.00,644.00
           C 1583.00,644.00 1583.00,645.00 1583.00,645.00
             1583.00,645.00 1582.00,644.00 1582.00,644.00
             1582.00,644.00 1583.00,644.00 1583.00,644.00 Z
           M 1537.00,736.00
           C 1537.00,736.00 1537.00,737.00 1537.00,737.00
             1537.00,737.00 1536.00,736.00 1536.00,736.00
             1536.00,736.00 1537.00,736.00 1537.00,736.00 Z
           M 2611.00,904.00
           C 2611.00,904.00 2611.00,905.00 2611.00,905.00
             2611.00,905.00 2610.00,904.00 2610.00,904.00
             2610.00,904.00 2611.00,904.00 2611.00,904.00 Z
           M 2656.00,1120.00
           C 2656.00,1120.00 2656.00,1121.00 2656.00,1121.00
             2656.00,1121.00 2655.00,1120.00 2655.00,1120.00
             2655.00,1120.00 2656.00,1120.00 2656.00,1120.00 Z" />
  <path id="profile"
        fill="none" stroke="black" stroke-width="1"
        d="M 1755.00,488.00
           C 1754.08,495.59 1744.73,498.86 1739.00,502.46
             1733.40,505.98 1730.81,509.53 1726.00,513.71
             1726.00,513.71 1707.00,529.00 1707.00,529.00
             1702.08,532.95 1697.50,538.31 1691.00,539.00
             1691.00,539.00 1685.70,545.54 1685.70,545.54
             1685.70,545.54 1666.00,559.00 1666.00,559.00
             1664.91,562.63 1661.88,563.30 1659.00,565.53
             1655.82,567.99 1652.89,571.17 1650.00,573.99
             1650.00,573.99 1631.00,591.49 1631.00,591.49
             1614.82,604.36 1613.29,601.55 1600.28,620.00
             1600.28,620.00 1589.41,633.00 1589.41,633.00
             1585.56,638.08 1587.30,640.39 1580.00,641.00
             1580.00,641.00 1582.00,645.00 1582.00,645.00
             1575.44,648.61 1576.15,650.43 1572.07,656.00
             1564.83,665.91 1566.07,660.84 1559.40,674.00
             1559.40,674.00 1555.17,682.00 1555.17,682.00
             1555.17,682.00 1551.51,691.00 1551.51,691.00
             1551.51,691.00 1546.52,700.00 1546.52,700.00
             1539.96,714.33 1537.35,727.67 1534.71,743.00
             1533.60,749.50 1532.10,749.45 1531.85,757.00
             1531.85,757.00 1531.85,768.00 1531.85,768.00
             1531.04,772.51 1528.46,778.39 1527.02,783.00
             1527.02,783.00 1520.29,805.00 1520.29,805.00
             1517.47,812.28 1515.76,811.67 1513.45,823.00
             1513.45,823.00 1510.58,842.00 1510.58,842.00
             1510.58,842.00 1505.57,877.00 1505.57,877.00
             1505.57,877.00 1502.29,897.00 1502.29,897.00
             1502.29,897.00 1501.71,906.00 1501.71,906.00
             1501.71,906.00 1498.43,926.00 1498.43,926.00
             1498.43,926.00 1497.25,936.00 1497.25,936.00
             1497.25,936.00 1495.17,947.00 1495.17,947.00
             1495.17,947.00 1494.00,986.00 1494.00,986.00
             1494.00,986.00 1494.82,996.00 1494.82,996.00
             1494.82,996.00 1494.00,1008.00 1494.00,1008.00
             1494.00,1008.00 1494.00,1030.00 1494.00,1030.00
             1494.00,1030.00 1495.04,1040.00 1495.04,1040.00
             1495.04,1040.00 1495.04,1048.00 1495.04,1048.00
             1496.04,1055.78 1497.94,1051.58 1498.00,1064.00
             1498.00,1064.00 1501.57,1094.00 1501.57,1094.00
             1502.03,1096.98 1501.53,1098.28 1501.57,1101.00
             1500.63,1110.29 1503.36,1103.16 1500.00,1121.00
             1507.51,1125.69 1505.27,1135.39 1506.18,1143.00
             1507.22,1151.62 1512.05,1159.46 1510.83,1172.00
             1509.53,1185.41 1500.80,1191.75 1506.00,1206.00
             1500.52,1207.89 1494.50,1215.39 1492.97,1221.00
             1491.74,1225.47 1493.96,1230.95 1499.00,1231.00
             1498.75,1241.95 1494.68,1246.64 1493.87,1252.00
             1493.20,1256.41 1495.05,1260.76 1494.88,1264.00
             1494.59,1269.60 1489.32,1281.62 1487.00,1287.00
             1487.00,1287.00 1484.00,1286.00 1484.00,1286.00
             1483.37,1287.96 1482.94,1290.17 1482.00,1292.00
             1480.63,1294.67 1478.27,1296.54 1477.89,1299.00
             1477.53,1301.38 1479.22,1303.14 1479.53,1306.00
             1479.53,1306.00 1479.53,1324.00 1479.53,1324.00
             1478.67,1329.71 1473.48,1333.45 1473.15,1337.00
             1472.74,1341.45 1478.71,1345.49 1479.47,1350.00
             1480.29,1354.85 1474.36,1360.58 1472.00,1365.00
             1472.00,1365.00 1480.00,1362.00 1480.00,1362.00
             1480.00,1362.00 1487.71,1395.00 1487.71,1395.00
             1487.71,1395.00 1490.00,1421.00 1490.00,1421.00
             1490.00,1421.00 1491.32,1442.00 1491.32,1442.00
             1491.32,1442.00 1497.21,1461.00 1497.21,1461.00
             1497.21,1461.00 1503.46,1475.00 1503.46,1475.00
             1503.46,1475.00 1508.81,1492.00 1508.81,1492.00
             1508.81,1492.00 1514.13,1503.00 1514.13,1503.00
             1514.13,1503.00 1518.39,1514.96 1518.39,1514.96
             1518.39,1514.96 1522.98,1523.04 1522.98,1523.04
             1522.98,1523.04 1525.44,1533.00 1525.44,1533.00
             1525.44,1533.00 1529.54,1543.00 1529.54,1543.00
             1529.54,1543.00 1532.46,1552.00 1532.46,1552.00
             1532.46,1552.00 1541.45,1575.00 1541.45,1575.00
             1541.45,1575.00 1543.50,1582.83 1543.50,1582.83
             1543.50,1582.83 1547.00,1594.00 1547.00,1594.00
             1547.00,1594.00 1550.00,1593.00 1550.00,1593.00
             1551.80,1600.59 1554.16,1601.54 1556.09,1608.00
             1556.09,1608.00 1560.79,1627.00 1560.79,1627.00
             1560.79,1627.00 1566.53,1638.00 1566.53,1638.00
             1569.24,1644.24 1574.76,1657.89 1578.49,1663.00
             1581.55,1667.18 1586.92,1671.34 1591.00,1674.60
             1594.15,1677.12 1597.28,1679.82 1601.00,1681.47
             1613.66,1687.10 1631.34,1686.00 1645.00,1686.00
             1645.00,1686.00 1649.09,1708.00 1649.09,1708.00
             1649.09,1708.00 1653.13,1719.00 1653.13,1719.00
             1653.13,1719.00 1656.68,1726.00 1656.68,1726.00
             1656.68,1726.00 1663.37,1746.00 1663.37,1746.00
             1663.37,1746.00 1664.52,1755.00 1664.52,1755.00
             1664.52,1755.00 1666.82,1764.00 1666.82,1764.00
             1666.82,1764.00 1670.00,1800.00 1670.00,1800.00
             1670.00,1800.00 1672.82,1827.00 1672.82,1827.00
             1672.82,1827.00 1672.00,1839.00 1672.00,1839.00
             1672.00,1839.00 1672.00,1869.00 1672.00,1869.00
             1672.00,1869.00 1670.08,1887.00 1670.08,1887.00
             1670.08,1887.00 1670.08,1899.00 1670.08,1899.00
             1670.08,1899.00 1669.00,1914.00 1669.00,1914.00
             1669.00,1914.00 1669.00,1962.00 1669.00,1962.00
             1669.00,1962.00 1668.00,1978.00 1668.00,1978.00
             1668.00,1978.00 1668.00,1997.00 1668.00,1997.00
             1667.99,2002.78 1666.28,2019.73 1662.69,2023.87
             1657.65,2029.67 1652.14,2026.71 1646.00,2029.32
             1646.00,2029.32 1620.00,2038.12 1620.00,2038.12
             1620.00,2038.12 1604.00,2042.26 1604.00,2042.26
             1599.25,2044.04 1598.10,2046.49 1593.00,2048.21
             1593.00,2048.21 1585.00,2050.36 1585.00,2050.36
             1585.00,2050.36 1574.00,2054.32 1574.00,2054.32
             1569.17,2055.43 1567.08,2054.48 1562.00,2056.09
             1550.65,2059.71 1544.17,2065.60 1539.00,2067.39
             1539.00,2067.39 1524.00,2071.15 1524.00,2071.15
             1524.00,2071.15 1497.00,2079.25 1497.00,2079.25
             1497.00,2079.25 1484.00,2082.44 1484.00,2082.44
             1484.00,2082.44 1474.00,2086.54 1474.00,2086.54
             1474.00,2086.54 1465.00,2089.46 1465.00,2089.46
             1465.00,2089.46 1455.00,2093.94 1455.00,2093.94
             1455.00,2093.94 1445.00,2097.21 1445.00,2097.21
             1445.00,2097.21 1438.00,2101.07 1438.00,2101.07
             1438.00,2101.07 1432.00,2102.55 1432.00,2102.55
             1432.00,2102.55 1425.00,2106.16 1425.00,2106.16
             1425.00,2106.16 1419.00,2107.98 1419.00,2107.98
             1419.00,2107.98 1409.00,2113.66 1409.00,2113.66
             1409.00,2113.66 1399.00,2116.71 1399.00,2116.71
             1399.00,2116.71 1387.00,2121.55 1387.00,2121.55
             1387.00,2121.55 1378.00,2124.09 1378.00,2124.09
             1378.00,2124.09 1358.00,2132.56 1358.00,2132.56
             1358.00,2132.56 1338.00,2138.44 1338.00,2138.44
             1330.45,2140.77 1319.75,2147.73 1312.00,2148.00
             1308.35,2151.38 1297.25,2154.05 1292.00,2156.06
             1292.00,2156.06 1278.00,2162.55 1278.00,2162.55
             1278.00,2162.55 1265.00,2167.06 1265.00,2167.06
             1265.00,2167.06 1254.00,2171.85 1254.00,2171.85
             1243.46,2176.36 1235.04,2177.21 1232.00,2190.00
             1226.11,2188.04 1219.51,2191.75 1214.00,2194.01
             1214.00,2194.01 1196.00,2201.31 1196.00,2201.31
             1186.09,2205.78 1184.42,2208.96 1173.00,2209.00
             1171.21,2215.31 1162.24,2215.04 1157.00,2216.79
             1151.14,2218.74 1147.99,2222.99 1143.00,2224.50
             1143.00,2224.50 1138.00,2225.38 1138.00,2225.38
             1138.00,2225.38 1123.00,2231.99 1123.00,2231.99
             1116.71,2234.60 1108.02,2237.64 1102.28,2241.12
             1102.28,2241.12 1091.00,2249.24 1091.00,2249.24
             1091.00,2249.24 1082.00,2253.70 1082.00,2253.70
             1078.69,2255.90 1076.58,2258.85 1071.00,2262.24
             1071.00,2262.24 1060.09,2267.53 1060.09,2267.53
             1056.90,2269.35 1055.66,2271.39 1052.96,2273.68
             1049.20,2276.86 1039.62,2283.47 1035.00,2284.00
             1035.00,2284.00 1036.00,2287.00 1036.00,2287.00
             1026.48,2290.39 1017.48,2297.62 1009.00,2303.04
             1009.00,2303.04 994.00,2311.05 994.00,2311.05
             994.00,2311.05 980.00,2322.96 980.00,2322.96
             980.00,2322.96 971.01,2328.79 971.01,2328.79
             971.01,2328.79 964.72,2334.31 964.72,2334.31
             964.72,2334.31 958.00,2338.25 958.00,2338.25
             958.00,2338.25 945.00,2347.59 945.00,2347.59
             939.60,2351.48 931.99,2357.18 926.00,2359.96
             921.18,2362.19 917.06,2361.02 917.00,2367.00
             907.65,2368.45 902.95,2372.56 895.00,2376.96
             895.00,2376.96 885.00,2381.85 885.00,2381.85
             885.00,2381.85 875.00,2389.30 875.00,2389.30
             875.00,2389.30 856.00,2400.75 856.00,2400.75
             856.00,2400.75 826.00,2425.91 826.00,2425.91
             826.00,2425.91 816.00,2433.19 816.00,2433.19
             816.00,2433.19 800.00,2447.47 800.00,2447.47
             800.00,2447.47 790.02,2454.33 790.02,2454.33
             790.02,2454.33 782.63,2462.32 782.63,2462.32
             782.63,2462.32 774.07,2467.76 774.07,2467.76
             770.04,2470.98 771.10,2472.21 766.92,2475.57
             766.92,2475.57 757.00,2482.37 757.00,2482.37
             757.00,2482.37 730.00,2504.10 730.00,2504.10
             730.00,2504.10 719.00,2511.76 719.00,2511.76
             719.00,2511.76 710.83,2519.48 710.83,2519.48
             710.83,2519.48 693.00,2533.23 693.00,2533.23
             693.00,2533.23 674.00,2546.57 674.00,2546.57
             674.00,2546.57 661.00,2554.63 661.00,2554.63
             661.00,2554.63 651.00,2562.71 651.00,2562.71
             646.47,2565.99 632.21,2576.49 629.12,2580.10
             626.22,2583.49 620.73,2589.66 620.23,2594.00
             619.16,2601.40 624.44,2602.62 620.23,2609.04
             620.23,2609.04 613.30,2618.00 613.30,2618.00
             613.30,2618.00 607.22,2629.00 607.22,2629.00
             607.22,2629.00 594.97,2647.00 594.97,2647.00
             594.97,2647.00 591.78,2655.00 591.78,2655.00
             589.68,2658.67 587.26,2660.53 585.19,2665.00
             585.19,2665.00 581.94,2674.00 581.94,2674.00
             580.54,2677.64 576.56,2685.63 574.55,2689.00
             570.80,2695.28 568.72,2696.74 564.75,2702.00
             564.75,2702.00 550.39,2723.00 550.39,2723.00
             547.14,2728.44 548.06,2730.59 546.07,2733.83
             546.07,2733.83 533.70,2750.00 533.70,2750.00
             533.70,2750.00 526.67,2764.00 526.67,2764.00
             526.67,2764.00 515.88,2781.00 515.88,2781.00
             515.88,2781.00 511.36,2789.83 511.36,2789.83
             506.19,2797.60 497.60,2809.97 493.78,2818.00
             490.62,2824.65 491.44,2826.47 490.42,2828.91
             489.18,2831.83 486.48,2833.40 484.72,2836.04
             482.92,2838.75 482.45,2841.86 482.00,2845.00
             477.36,2846.08 476.70,2851.00 474.74,2855.00
             474.74,2855.00 468.59,2865.17 468.59,2865.17
             468.59,2865.17 467.00,2879.00 467.00,2879.00
             467.00,2879.00 464.00,2878.00 464.00,2878.00
             461.94,2892.25 450.33,2901.03 450.00,2916.00
             450.00,2916.00 447.00,2915.00 447.00,2915.00
             447.00,2915.00 438.76,2937.00 438.76,2937.00
             438.76,2937.00 432.09,2958.00 432.09,2958.00
             432.09,2958.00 426.63,2967.00 426.63,2967.00
             426.63,2967.00 420.45,2988.00 420.45,2988.00
             420.45,2988.00 413.06,3004.00 413.06,3004.00
             413.06,3004.00 407.05,3022.00 407.05,3022.00
             407.05,3022.00 402.75,3032.00 402.75,3032.00
             402.75,3032.00 400.52,3039.99 400.52,3039.99
             400.52,3039.99 394.65,3050.01 394.65,3050.01
             394.65,3050.01 392.28,3064.00 392.28,3064.00
             392.28,3064.00 383.42,3086.00 383.42,3086.00
             383.42,3086.00 378.45,3102.00 378.45,3102.00
             378.45,3102.00 370.73,3120.91 370.73,3120.91
             370.73,3120.91 363.49,3130.00 363.49,3130.00
             363.49,3130.00 358.00,3152.00 358.00,3152.00
             358.00,3152.00 353.00,3149.00 353.00,3149.00
             353.57,3155.27 353.55,3158.88 351.28,3165.00
             349.98,3168.52 347.70,3170.29 346.23,3175.00
             346.23,3175.00 344.56,3185.00 344.56,3185.00
             342.58,3190.73 339.23,3192.20 337.31,3196.04
             337.31,3196.04 333.90,3208.58 333.90,3208.58
             333.90,3208.58 328.04,3221.00 328.04,3221.00
             328.04,3221.00 323.14,3228.00 323.14,3228.00
             323.14,3228.00 320.53,3235.91 320.53,3235.91
             320.53,3235.91 316.76,3242.09 316.76,3242.09
             316.76,3242.09 308.78,3265.00 308.78,3265.00
             307.51,3267.71 306.91,3270.89 304.00,3272.00
             304.00,3272.00 302.98,3277.59 302.98,3277.59
             302.98,3277.59 298.45,3282.96 298.45,3282.96
             298.45,3282.96 297.86,3293.00 297.86,3293.00
             297.86,3293.00 290.67,3306.00 290.67,3306.00
             290.67,3306.00 287.41,3317.00 287.41,3317.00
             287.41,3317.00 279.43,3334.00 279.43,3334.00
             279.43,3334.00 267.40,3365.00 267.40,3365.00
             267.40,3365.00 261.45,3378.00 261.45,3378.00
             261.45,3378.00 240.55,3430.00 240.55,3430.00
             240.55,3430.00 236.45,3439.00 236.45,3439.00
             236.45,3439.00 232.51,3449.00 232.51,3449.00
             232.51,3449.00 226.76,3460.00 226.76,3460.00
             226.76,3460.00 219.58,3481.00 219.58,3481.00
             219.58,3481.00 211.91,3499.00 211.91,3499.00
             211.91,3499.00 208.65,3510.00 208.65,3510.00
             208.65,3510.00 203.37,3521.00 203.37,3521.00
             203.37,3521.00 195.00,3544.00 195.00,3544.00
             195.00,3544.00 191.16,3556.00 191.16,3556.00
             191.16,3556.00 183.45,3571.00 183.45,3571.00
             183.45,3571.00 174.13,3598.00 174.13,3598.00
             174.13,3598.00 167.96,3610.00 167.96,3610.00
             167.96,3610.00 164.45,3626.00 164.45,3626.00
             164.45,3626.00 157.23,3642.00 157.23,3642.00
             157.23,3642.00 153.77,3653.00 153.77,3653.00
             153.77,3653.00 141.55,3684.00 141.55,3684.00
             141.55,3684.00 137.46,3693.00 137.46,3693.00
             137.46,3693.00 131.55,3711.00 131.55,3711.00
             131.55,3711.00 123.69,3728.00 123.69,3728.00
             123.69,3728.00 112.50,3763.00 112.50,3763.00
             112.50,3763.00 108.39,3785.00 108.39,3785.00
             108.39,3785.00 95.66,3809.00 95.66,3809.00
             95.66,3809.00 86.19,3823.00 86.19,3823.00
             86.19,3823.00 82.23,3837.00 82.23,3837.00
             82.23,3837.00 77.00,3849.00 77.00,3849.00
             77.00,3849.00 74.00,3848.00 74.00,3848.00
             72.09,3857.35 62.73,3871.39 57.60,3880.00
             50.72,3891.58 44.32,3907.38 44.01,3921.00
             43.68,3935.63 49.85,3946.77 60.04,3956.96
             60.04,3956.96 70.00,3966.01 70.00,3966.01
             81.27,3977.14 79.71,3977.71 94.00,3988.88
             94.00,3988.88 105.00,3998.54 105.00,3998.54
             105.00,3998.54 128.00,4015.32 128.00,4015.32
             128.00,4015.32 137.00,4020.07 137.00,4020.07
             137.00,4020.07 170.00,4040.57 170.00,4040.57
             170.00,4040.57 187.00,4049.26 187.00,4049.26
             187.00,4049.26 206.00,4059.83 206.00,4059.83
             206.00,4059.83 218.00,4064.78 218.00,4064.78
             218.00,4064.78 261.00,4086.14 261.00,4086.14
             265.96,4088.35 284.01,4095.28 286.57,4098.21
             290.03,4102.16 289.69,4107.19 290.17,4112.00
             290.17,4112.00 293.42,4143.00 293.42,4143.00
             293.42,4143.00 297.91,4188.00 297.91,4188.00
             297.91,4188.00 299.17,4211.00 299.17,4211.00
             299.17,4211.00 307.00,4271.00 307.00,4271.00
             307.00,4271.00 831.92,4271.00 831.92,4271.00
             831.92,4271.00 831.92,4261.00 831.92,4261.00
             831.50,4257.53 830.92,4255.78 831.04,4252.00
             831.04,4252.00 833.39,4236.00 833.39,4236.00
             835.83,4222.44 835.86,4219.47 843.00,4207.00
             844.58,4204.25 846.08,4201.41 848.21,4199.04
             853.27,4193.42 861.14,4191.15 868.00,4188.40
             868.00,4188.40 885.00,4180.17 885.00,4180.17
             885.00,4180.17 897.00,4175.18 897.00,4175.18
             901.57,4172.76 902.48,4171.04 906.00,4168.69
             911.46,4165.06 914.98,4164.82 920.70,4158.83
             924.27,4155.09 925.69,4151.54 927.63,4149.21
             927.63,4149.21 933.20,4143.79 933.20,4143.79
             933.20,4143.79 943.02,4126.00 943.02,4126.00
             943.02,4126.00 949.00,4102.00 949.00,4102.00
             959.39,4107.73 955.02,4115.34 955.00,4125.00
             955.00,4125.00 955.00,4144.00 955.00,4144.00
             955.00,4144.00 955.00,4186.00 955.00,4186.00
             955.00,4186.00 955.96,4198.00 955.96,4198.00
             955.96,4198.00 955.96,4210.00 955.96,4210.00
             955.96,4210.00 957.00,4228.00 957.00,4228.00
             957.00,4228.00 960.00,4271.00 960.00,4271.00
             960.00,4271.00 3155.00,4271.00 3155.00,4271.00
             3155.00,4271.00 3154.09,4260.00 3154.09,4260.00
             3154.09,4260.00 3151.91,4226.00 3151.91,4226.00
             3151.91,4226.00 3151.00,4216.00 3151.00,4216.00
             3159.24,4220.69 3169.70,4224.19 3175.37,4232.00
             3179.58,4237.82 3181.75,4244.73 3184.94,4251.00
             3184.94,4251.00 3190.10,4259.00 3190.10,4259.00
             3195.33,4268.50 3191.21,4270.98 3203.00,4271.00
             3203.00,4271.00 3746.00,4271.00 3746.00,4271.00
             3746.00,4271.00 3746.00,3394.00 3746.00,3394.00
             3746.00,3394.00 3746.00,3102.00 3746.00,3102.00
             3746.00,3102.00 3746.00,2955.00 3746.00,2955.00
             3745.86,2942.95 3740.85,2933.97 3737.08,2923.00
             3737.08,2923.00 3731.60,2908.00 3731.60,2908.00
             3730.56,2904.83 3730.39,2901.15 3728.88,2898.28
             3728.88,2898.28 3718.37,2879.00 3718.37,2879.00
             3718.37,2879.00 3707.57,2851.00 3707.57,2851.00
             3707.57,2851.00 3689.31,2811.00 3689.31,2811.00
             3689.31,2811.00 3684.37,2798.00 3684.37,2798.00
             3684.37,2798.00 3674.40,2779.00 3674.40,2779.00
             3674.40,2779.00 3670.68,2769.00 3670.68,2769.00
             3670.68,2769.00 3662.26,2754.00 3662.26,2754.00
             3662.26,2754.00 3648.49,2728.00 3648.49,2728.00
             3648.49,2728.00 3644.48,2719.00 3644.48,2719.00
             3644.48,2719.00 3635.08,2705.00 3635.08,2705.00
             3635.08,2705.00 3625.92,2690.00 3625.92,2690.00
             3625.92,2690.00 3617.16,2678.00 3617.16,2678.00
             3610.65,2668.89 3612.84,2668.48 3611.83,2659.00
             3611.52,2656.17 3608.90,2644.60 3607.88,2642.00
             3602.99,2629.49 3586.23,2619.09 3575.00,2612.66
             3569.44,2609.48 3569.72,2608.57 3563.00,2606.00
             3562.95,2600.60 3559.71,2600.27 3556.17,2596.82
             3549.84,2590.65 3541.76,2579.03 3532.00,2580.00
             3527.47,2569.32 3523.98,2570.59 3519.17,2566.59
             3515.53,2563.56 3515.82,2562.33 3511.00,2560.00
             3511.00,2560.00 3512.00,2557.00 3512.00,2557.00
             3505.43,2553.26 3498.79,2549.51 3493.04,2544.54
             3488.35,2540.48 3487.67,2537.61 3479.00,2531.30
             3475.26,2528.57 3473.84,2529.35 3471.37,2527.41
             3469.19,2525.70 3468.04,2522.61 3462.00,2518.61
             3459.18,2516.74 3455.88,2515.70 3453.32,2513.45
             3450.71,2511.15 3449.72,2508.53 3445.96,2506.23
             3442.63,2504.18 3440.11,2504.46 3437.00,2502.42
             3431.97,2499.11 3431.78,2495.45 3425.00,2496.00
             3420.54,2487.89 3414.54,2486.52 3407.00,2482.51
             3407.00,2482.51 3382.28,2466.55 3382.28,2466.55
             3382.28,2466.55 3353.00,2447.80 3353.00,2447.80
             3353.00,2447.80 3333.00,2434.76 3333.00,2434.76
             3333.00,2434.76 3322.00,2426.57 3322.00,2426.57
             3322.00,2426.57 3298.00,2411.06 3298.00,2411.06
             3298.00,2411.06 3284.04,2404.79 3284.04,2404.79
             3279.39,2401.94 3279.76,2399.36 3274.96,2396.67
             3274.96,2396.67 3266.00,2392.68 3266.00,2392.68
             3266.00,2392.68 3254.00,2385.66 3254.00,2385.66
             3254.00,2385.66 3245.00,2381.67 3245.00,2381.67
             3245.00,2381.67 3234.00,2374.17 3234.00,2374.17
             3234.00,2374.17 3221.00,2368.01 3221.00,2368.01
             3221.00,2368.01 3211.00,2360.72 3211.00,2360.72
             3211.00,2360.72 3201.00,2356.92 3201.00,2356.92
             3201.00,2356.92 3192.00,2350.53 3192.00,2350.53
             3187.33,2347.89 3184.81,2348.65 3181.00,2346.50
             3181.00,2346.50 3157.00,2329.45 3157.00,2329.45
             3157.00,2329.45 3149.00,2326.58 3149.00,2326.58
             3149.00,2326.58 3142.00,2321.93 3142.00,2321.93
             3142.00,2321.93 3126.00,2313.37 3126.00,2313.37
             3126.00,2313.37 3113.00,2308.18 3113.00,2308.18
             3113.00,2308.18 3088.00,2290.54 3088.00,2290.54
             3088.00,2290.54 3074.00,2282.59 3074.00,2282.59
             3074.00,2282.59 3066.00,2277.08 3066.00,2277.08
             3066.00,2277.08 3059.00,2274.01 3059.00,2274.01
             3059.00,2274.01 3051.00,2269.09 3051.00,2269.09
             3051.00,2269.09 3044.00,2265.59 3044.00,2265.59
             3044.00,2265.59 3035.00,2259.07 3035.00,2259.07
             3035.00,2259.07 3022.00,2253.68 3022.00,2253.68
             3022.00,2253.68 3009.00,2245.63 3009.00,2245.63
             3009.00,2245.63 2992.00,2237.53 2992.00,2237.53
             2983.51,2232.29 2983.03,2227.46 2976.00,2223.36
             2970.98,2220.43 2967.25,2220.38 2963.00,2218.33
             2963.00,2218.33 2948.00,2209.82 2948.00,2209.82
             2948.00,2209.82 2939.00,2206.54 2939.00,2206.54
             2939.00,2206.54 2929.00,2201.96 2929.00,2201.96
             2929.00,2201.96 2919.00,2195.57 2919.00,2195.57
             2919.00,2195.57 2909.00,2192.47 2909.00,2192.47
             2909.00,2192.47 2891.01,2183.10 2891.01,2183.10
             2891.01,2183.10 2882.91,2177.16 2882.91,2177.16
             2879.35,2175.34 2876.63,2176.66 2872.00,2174.78
             2872.00,2174.78 2862.00,2169.22 2862.00,2169.22
             2862.00,2169.22 2853.04,2166.83 2853.04,2166.83
             2850.18,2165.36 2848.94,2163.02 2845.91,2161.72
             2845.91,2161.72 2835.00,2159.38 2835.00,2159.38
             2835.00,2159.38 2824.00,2154.46 2824.00,2154.46
             2824.00,2154.46 2808.00,2148.58 2808.00,2148.58
             2808.00,2148.58 2783.00,2136.87 2783.00,2136.87
             2783.00,2136.87 2766.00,2130.22 2766.00,2130.22
             2766.00,2130.22 2732.00,2113.87 2732.00,2113.87
             2732.00,2113.87 2723.00,2111.11 2723.00,2111.11
             2723.00,2111.11 2693.00,2100.39 2693.00,2100.39
             2685.03,2096.99 2685.05,2095.12 2679.00,2090.39
             2679.00,2090.39 2672.00,2085.91 2672.00,2085.91
             2662.28,2079.68 2662.76,2079.06 2651.00,2079.00
             2639.40,2078.94 2641.81,2076.38 2633.00,2073.93
             2633.00,2073.93 2617.00,2070.44 2617.00,2070.44
             2611.98,2068.52 2610.48,2065.75 2606.00,2063.85
             2606.00,2063.85 2590.00,2058.02 2590.00,2058.02
             2590.00,2058.02 2579.00,2050.55 2579.00,2050.55
             2579.00,2050.55 2554.00,2037.45 2554.00,2037.45
             2544.40,2033.53 2533.83,2033.08 2531.10,2031.97
             2528.30,2030.83 2527.57,2029.24 2525.63,2027.15
             2518.83,2019.81 2518.02,2020.44 2518.00,2010.00
             2518.00,2010.00 2518.00,1950.00 2518.00,1950.00
             2518.00,1950.00 2517.00,1934.00 2517.00,1934.00
             2517.00,1934.00 2517.00,1914.00 2517.00,1914.00
             2517.00,1914.00 2515.00,1893.00 2515.00,1893.00
             2515.00,1893.00 2515.00,1818.00 2515.00,1818.00
             2515.00,1818.00 2514.00,1801.00 2514.00,1801.00
             2514.00,1801.00 2514.00,1776.00 2514.00,1776.00
             2514.00,1776.00 2515.83,1753.00 2515.83,1753.00
             2515.83,1753.00 2517.63,1732.00 2517.63,1732.00
             2518.44,1729.05 2520.13,1726.62 2521.33,1721.00
             2521.33,1721.00 2523.23,1704.00 2523.23,1704.00
             2524.46,1698.45 2526.68,1693.00 2523.23,1688.00
             2528.68,1679.95 2526.12,1679.47 2527.44,1671.00
             2527.44,1671.00 2531.56,1650.00 2531.56,1650.00
             2532.18,1646.02 2531.64,1641.82 2533.14,1638.01
             2534.39,1634.86 2535.67,1634.17 2537.19,1631.72
             2539.89,1627.36 2540.00,1617.62 2550.00,1618.76
             2558.64,1619.74 2561.28,1621.11 2571.00,1621.00
             2579.68,1620.89 2593.10,1615.13 2601.00,1611.24
             2614.95,1604.38 2615.71,1603.39 2626.15,1592.04
             2630.64,1587.16 2631.60,1587.07 2635.64,1581.00
             2635.64,1581.00 2640.79,1572.00 2640.79,1572.00
             2640.79,1572.00 2645.29,1565.00 2645.29,1565.00
             2645.29,1565.00 2651.54,1548.00 2651.54,1548.00
             2651.54,1548.00 2658.23,1533.00 2658.23,1533.00
             2658.23,1533.00 2660.47,1523.00 2660.47,1523.00
             2660.47,1523.00 2665.11,1506.00 2665.11,1506.00
             2665.11,1506.00 2666.67,1496.00 2666.67,1496.00
             2666.67,1496.00 2670.33,1481.00 2670.33,1481.00
             2670.33,1481.00 2671.90,1464.00 2671.90,1464.00
             2671.90,1464.00 2680.88,1429.00 2680.88,1429.00
             2680.88,1429.00 2680.88,1419.00 2680.88,1419.00
             2680.88,1419.00 2682.92,1406.00 2682.92,1406.00
             2682.92,1406.00 2682.92,1397.00 2682.92,1397.00
             2682.92,1397.00 2685.04,1374.00 2685.04,1374.00
             2685.04,1374.00 2685.04,1362.00 2685.04,1362.00
             2685.04,1362.00 2686.00,1350.00 2686.00,1350.00
             2686.00,1350.00 2686.00,1307.00 2686.00,1307.00
             2686.12,1296.99 2690.28,1295.30 2688.00,1287.00
             2688.00,1287.00 2692.00,1286.00 2692.00,1286.00
             2692.55,1290.06 2692.47,1293.55 2696.19,1296.00
             2696.19,1296.00 2696.19,1280.00 2696.19,1280.00
             2696.19,1280.00 2700.00,1265.00 2700.00,1265.00
             2700.00,1265.00 2706.00,1264.00 2706.00,1264.00
             2707.46,1268.05 2707.95,1268.54 2712.00,1270.00
             2714.92,1266.37 2715.55,1265.53 2720.00,1264.00
             2717.07,1251.04 2715.40,1248.61 2706.00,1239.00
             2706.00,1239.00 2710.00,1238.00 2710.00,1238.00
             2706.87,1231.92 2703.83,1227.86 2697.00,1226.00
             2697.00,1226.00 2703.00,1223.00 2703.00,1223.00
             2701.29,1210.90 2683.80,1205.62 2683.00,1192.00
             2683.00,1192.00 2698.00,1200.00 2698.00,1200.00
             2691.18,1184.00 2682.42,1188.18 2682.00,1176.00
             2682.00,1176.00 2678.00,1177.00 2678.00,1177.00
             2676.81,1174.04 2677.01,1174.08 2674.00,1173.00
             2675.37,1164.84 2668.45,1163.40 2665.17,1157.00
             2665.17,1157.00 2660.44,1136.01 2660.44,1136.01
             2657.77,1129.19 2654.02,1130.79 2653.00,1122.00
             2653.00,1122.00 2658.00,1127.00 2658.00,1127.00
             2657.99,1115.93 2657.21,1118.72 2651.00,1110.00
             2651.00,1110.00 2661.00,1110.70 2661.00,1110.70
             2661.00,1110.70 2674.00,1104.00 2674.00,1104.00
             2670.30,1101.49 2666.11,1100.89 2662.00,1099.13
             2653.37,1095.43 2646.83,1091.54 2641.00,1084.00
             2641.00,1084.00 2648.00,1083.00 2648.00,1083.00
             2648.00,1083.00 2637.13,1065.00 2637.13,1065.00
             2637.13,1065.00 2637.13,1041.00 2637.13,1041.00
             2637.13,1041.00 2634.79,1022.00 2634.79,1022.00
             2634.79,1022.00 2631.46,1005.00 2631.46,1005.00
             2631.46,1005.00 2630.20,996.00 2630.20,996.00
             2630.20,996.00 2622.51,960.00 2622.51,960.00
             2622.51,960.00 2621.61,948.00 2621.61,948.00
             2621.61,948.00 2616.67,933.00 2616.67,933.00
             2616.67,933.00 2615.79,922.00 2615.79,922.00
             2615.79,922.00 2613.54,911.00 2613.54,911.00
             2613.54,911.00 2608.50,895.00 2608.50,895.00
             2608.50,895.00 2609.18,882.00 2609.18,882.00
             2609.18,882.00 2602.34,861.00 2602.34,861.00
             2602.34,861.00 2599.12,854.00 2599.12,854.00
             2599.12,854.00 2596.54,846.00 2596.54,846.00
             2596.54,846.00 2591.77,835.00 2591.77,835.00
             2591.77,835.00 2589.02,824.00 2589.02,824.00
             2589.02,824.00 2583.25,813.00 2583.25,813.00
             2583.25,813.00 2575.19,795.00 2575.19,795.00
             2575.19,795.00 2567.78,782.00 2567.78,782.00
             2567.78,782.00 2558.67,759.00 2558.67,759.00
             2558.67,759.00 2549.31,741.00 2549.31,741.00
             2549.31,741.00 2543.08,726.00 2543.08,726.00
             2543.08,726.00 2537.67,718.00 2537.67,718.00
             2537.67,718.00 2534.60,711.00 2534.60,711.00
             2534.60,711.00 2528.98,702.00 2528.98,702.00
             2528.98,702.00 2524.65,693.00 2524.65,693.00
             2524.65,693.00 2516.00,679.00 2516.00,679.00
             2516.00,679.00 2514.00,680.00 2514.00,680.00
             2512.78,676.34 2511.57,672.35 2509.64,669.00
             2509.64,669.00 2489.34,643.00 2489.34,643.00
             2489.34,643.00 2476.03,623.00 2476.03,623.00
             2476.03,623.00 2472.19,615.00 2472.19,615.00
             2472.19,615.00 2463.79,605.00 2463.79,605.00
             2458.42,597.51 2458.78,593.70 2457.04,590.00
             2457.04,590.00 2452.80,583.00 2452.80,583.00
             2452.80,583.00 2446.74,570.00 2446.74,570.00
             2446.74,570.00 2441.81,562.00 2441.81,562.00
             2441.81,562.00 2439.07,556.37 2439.07,556.37
             2439.07,556.37 2431.42,548.98 2431.42,548.98
             2428.78,545.59 2428.81,543.21 2426.49,540.00
             2423.33,535.63 2420.28,534.53 2417.37,531.63
             2414.57,528.83 2413.79,526.17 2408.00,521.32
             2408.00,521.32 2388.00,506.92 2388.00,506.92
             2388.00,506.92 2371.54,490.58 2371.54,490.58
             2371.54,490.58 2365.17,487.29 2365.17,487.29
             2365.17,487.29 2360.83,484.01 2360.83,484.01
             2357.96,482.50 2355.99,483.50 2352.00,481.43
             2352.00,481.43 2340.00,473.05 2340.00,473.05
             2340.00,473.05 2324.00,464.54 2324.00,464.54
             2324.00,464.54 2305.00,452.98 2305.00,452.98
             2298.21,449.68 2295.46,450.61 2291.00,449.04
             2291.00,449.04 2276.00,442.14 2276.00,442.14
             2262.27,436.02 2264.28,433.06 2256.00,430.44
             2256.00,430.44 2242.00,426.25 2242.00,426.25
             2234.55,422.83 2235.08,420.41 2225.00,418.21
             2221.13,417.37 2212.53,416.97 2211.00,413.00
             2197.70,413.00 2184.18,413.66 2171.00,411.70
             2171.00,411.70 2153.00,406.67 2153.00,406.67
             2153.00,406.67 2144.00,405.43 2144.00,405.43
             2146.41,406.10 2128.19,398.87 2130.37,400.03
             2130.37,400.03 2126.63,397.55 2126.63,397.55
             2126.63,397.55 2121.00,396.08 2121.00,396.08
             2121.00,396.08 2114.00,392.79 2114.00,392.79
             2104.45,389.63 2089.13,388.89 2079.00,389.00
             2079.00,389.00 2070.00,389.79 2070.00,389.79
             2070.00,389.79 2061.00,389.21 2061.00,389.21
             2056.55,389.49 2055.43,390.91 2048.00,391.00
             2048.00,391.00 2017.00,393.83 2017.00,393.83
             2017.00,393.83 1996.00,395.17 1996.00,395.17
             1996.00,395.17 1980.00,399.40 1980.00,399.40
             1975.69,400.01 1972.11,398.03 1966.00,398.03
             1966.00,398.03 1949.00,400.04 1949.00,400.04
             1949.00,400.04 1932.00,400.04 1932.00,400.04
             1932.00,400.04 1923.00,401.58 1923.00,401.58
             1923.00,401.58 1917.00,401.58 1917.00,401.58
             1917.00,401.58 1895.00,410.00 1895.00,410.00
             1887.52,412.51 1886.38,411.61 1883.00,412.64
             1878.59,413.99 1869.57,420.21 1866.00,423.30
             1858.82,429.53 1855.27,438.58 1849.37,445.83
             1849.37,445.83 1842.28,452.29 1842.28,452.29
             1840.39,454.11 1839.27,455.67 1836.96,457.16
             1836.96,457.16 1823.00,463.37 1823.00,463.37
             1823.00,463.37 1817.00,464.64 1817.00,464.64
             1817.00,464.64 1808.00,468.54 1808.00,468.54
             1808.00,468.54 1791.00,473.84 1791.00,473.84
             1791.00,473.84 1783.00,475.62 1783.00,475.62
             1783.00,475.62 1755.00,488.00 1755.00,488.00 Z
           M 2653.00,1121.00
           C 2653.00,1121.00 2653.00,1122.00 2653.00,1122.00
             2653.00,1122.00 2652.00,1121.00 2652.00,1121.00
             2652.00,1121.00 2653.00,1121.00 2653.00,1121.00 Z
           M 297.00,3289.00
           C 297.00,3289.00 297.00,3290.00 297.00,3290.00
             297.00,3290.00 298.00,3289.00 298.00,3289.00
             298.00,3289.00 297.00,3289.00 297.00,3289.00 Z
           M 296.00,3292.00
           C 296.00,3292.00 296.00,3293.00 296.00,3293.00
             296.00,3293.00 297.00,3292.00 297.00,3292.00
             297.00,3292.00 296.00,3292.00 296.00,3292.00 Z" />
</svg>
