<?xml version="1.0" encoding="UTF-8" standalone="no"?>
<!DOCTYPE svg PUBLIC "-//W3C//DTD SVG 20010904//EN"
              "http://www.w3.org/TR/2001/REC-SVG-20010904/DTD/svg10.dtd">

<svg xmlns="http://www.w3.org/2000/svg"
     width="12.1433in" height="14.64in"
     viewBox="0 0 3643 4392">
  <path id="face"
        fill="none" stroke="black" stroke-width="1"
        d="M 1769.18,512.00
           C 1763.99,511.88 1759.81,513.64 1755.00,514.42
             1746.68,515.77 1732.40,514.31 1727.00,522.00
             1720.09,521.62 1719.72,524.10 1714.28,526.65
             1711.71,527.86 1704.95,528.76 1702.00,529.00
             1698.77,534.70 1695.46,533.47 1690.00,535.98
             1690.00,535.98 1647.00,549.87 1647.00,549.87
             1638.88,553.35 1638.82,554.80 1633.00,558.16
             1629.35,560.27 1627.23,559.76 1623.00,562.42
             1623.00,562.42 1612.91,569.87 1612.91,569.87
             1612.91,569.87 1606.00,572.37 1606.00,572.37
             1606.00,572.37 1573.12,589.70 1573.12,589.70
             1573.12,589.70 1568.00,591.86 1568.00,591.86
             1568.00,591.86 1558.99,597.83 1558.99,597.83
             1558.99,597.83 1551.01,601.26 1551.01,601.26
             1551.01,601.26 1541.79,607.33 1541.79,607.33
             1541.79,607.33 1506.00,627.33 1506.00,627.33
             1506.00,627.33 1498.00,633.26 1498.00,633.26
             1498.00,633.26 1475.14,647.94 1475.14,647.94
             1472.54,650.10 1472.78,650.82 1471.12,652.90
             1468.43,656.27 1466.00,655.50 1465.00,660.00
             1456.15,664.10 1453.60,670.10 1447.59,676.59
             1442.38,682.21 1437.98,682.72 1434.30,686.26
             1434.30,686.26 1423.12,701.81 1423.12,701.81
             1423.12,701.81 1418.75,705.52 1418.75,705.52
             1418.75,705.52 1409.56,715.46 1409.56,715.46
             1409.56,715.46 1405.59,722.72 1405.59,722.72
             1405.59,722.72 1397.80,733.00 1397.80,733.00
             1397.80,733.00 1391.95,743.99 1391.95,743.99
             1391.95,743.99 1386.33,751.17 1386.33,751.17
             1386.33,751.17 1375.17,774.87 1375.17,774.87
             1373.41,778.40 1371.23,778.80 1369.22,783.02
             1369.22,783.02 1360.59,806.00 1360.59,806.00
             1360.59,806.00 1358.60,813.83 1358.60,813.83
             1355.56,822.22 1351.53,830.08 1347.44,838.00
             1347.44,838.00 1344.79,845.48 1344.79,845.48
             1344.79,845.48 1340.28,851.32 1340.28,851.32
             1340.28,851.32 1336.21,862.00 1336.21,862.00
             1333.29,868.26 1330.91,870.34 1329.88,872.42
             1329.88,872.42 1325.25,885.00 1325.25,885.00
             1323.84,888.91 1323.16,901.59 1320.00,903.00
             1319.70,909.95 1316.78,910.42 1315.34,915.82
             1315.34,915.82 1315.34,921.32 1315.34,921.32
             1314.56,927.05 1313.59,932.81 1311.73,938.28
             1311.73,938.28 1308.84,944.42 1308.84,944.42
             1307.35,948.03 1307.02,955.27 1308.00,959.00
             1308.00,959.00 1304.00,960.00 1304.00,960.00
             1304.00,960.00 1305.00,967.00 1305.00,967.00
             1300.84,968.43 1302.52,977.25 1302.02,980.96
             1302.02,980.96 1299.06,997.00 1299.06,997.00
             1299.06,997.00 1296.18,1005.00 1296.18,1005.00
             1294.72,1010.69 1296.38,1013.55 1291.00,1017.00
             1293.46,1035.63 1290.02,1029.67 1290.00,1045.00
             1289.99,1049.44 1290.73,1052.30 1288.23,1056.00
             1288.23,1056.00 1288.23,1069.83 1288.23,1069.83
             1288.23,1069.83 1287.27,1074.80 1287.27,1074.80
             1287.27,1074.80 1285.08,1101.00 1285.08,1101.00
             1285.08,1101.00 1282.12,1119.78 1282.12,1119.78
             1282.12,1119.78 1283.00,1122.00 1283.00,1122.00
             1278.33,1129.08 1280.45,1132.23 1280.43,1140.00
             1280.20,1142.68 1280.06,1149.55 1280.43,1151.92
             1280.43,1151.92 1282.39,1157.17 1282.39,1157.17
             1282.39,1157.17 1283.21,1165.00 1283.21,1165.00
             1283.21,1165.00 1287.39,1184.00 1287.39,1184.00
             1287.39,1184.00 1288.37,1194.00 1288.37,1194.00
             1288.37,1194.00 1290.61,1208.00 1290.61,1208.00
             1290.61,1208.00 1296.04,1230.00 1296.04,1230.00
             1296.04,1230.00 1298.63,1246.00 1298.63,1246.00
             1298.63,1246.00 1300.70,1252.00 1300.70,1252.00
             1300.70,1252.00 1302.83,1262.91 1302.83,1262.91
             1302.83,1262.91 1306.08,1273.00 1306.08,1273.00
             1308.26,1279.71 1311.63,1288.11 1312.08,1295.00
             1312.48,1301.24 1309.66,1306.89 1308.62,1313.00
             1308.62,1313.00 1308.00,1329.00 1308.00,1329.00
             1308.00,1329.00 1313.00,1330.00 1313.00,1330.00
             1313.00,1330.00 1310.98,1348.00 1310.98,1348.00
             1310.98,1348.00 1312.00,1351.00 1312.00,1351.00
             1312.00,1351.00 1292.00,1346.40 1292.00,1346.40
             1281.29,1343.53 1272.35,1340.05 1261.00,1340.21
             1258.40,1339.99 1252.32,1339.83 1250.09,1340.21
             1250.09,1340.21 1243.92,1343.32 1243.92,1343.32
             1238.20,1345.57 1235.54,1346.45 1230.76,1350.85
             1227.27,1354.05 1224.72,1357.93 1222.33,1362.00
             1218.79,1368.02 1217.47,1368.20 1215.52,1375.00
             1212.91,1384.07 1212.02,1383.91 1212.00,1394.00
             1212.00,1394.00 1212.00,1410.00 1212.00,1410.00
             1212.02,1420.56 1213.43,1419.58 1214.81,1428.00
             1214.81,1428.00 1216.62,1443.91 1216.62,1443.91
             1216.62,1443.91 1219.68,1452.01 1219.68,1452.01
             1220.48,1455.67 1220.35,1458.11 1221.71,1462.00
             1221.71,1462.00 1237.47,1495.00 1237.47,1495.00
             1237.47,1495.00 1243.38,1503.58 1243.38,1503.58
             1243.38,1503.58 1246.56,1510.90 1246.56,1510.90
             1246.56,1510.90 1252.90,1518.10 1252.90,1518.10
             1252.90,1518.10 1258.39,1527.00 1258.39,1527.00
             1258.39,1527.00 1267.98,1541.72 1267.98,1541.72
             1267.98,1541.72 1275.31,1552.72 1275.31,1552.72
             1275.31,1552.72 1277.37,1558.98 1277.37,1558.98
             1277.37,1558.98 1282.97,1570.00 1282.97,1570.00
             1282.97,1570.00 1284.79,1578.00 1284.79,1578.00
             1284.79,1578.00 1287.91,1585.58 1287.91,1585.58
             1287.91,1585.58 1293.72,1608.00 1293.72,1608.00
             1293.72,1608.00 1303.26,1645.00 1303.26,1645.00
             1304.26,1648.97 1305.49,1649.25 1305.96,1654.00
             1307.12,1665.80 1302.14,1670.21 1302.00,1682.00
             1301.91,1689.92 1302.07,1703.51 1303.80,1711.00
             1303.80,1711.00 1306.76,1720.00 1306.76,1720.00
             1306.76,1720.00 1323.55,1746.83 1323.55,1746.83
             1323.55,1746.83 1333.73,1756.92 1333.73,1756.92
             1333.73,1756.92 1346.28,1768.77 1346.28,1768.77
             1350.19,1771.27 1359.68,1776.33 1364.00,1777.80
             1371.04,1780.19 1380.05,1781.74 1385.45,1786.92
             1394.38,1795.50 1391.15,1800.25 1393.54,1806.70
             1393.54,1806.70 1395.79,1810.66 1395.79,1810.66
             1395.79,1810.66 1399.10,1819.00 1399.10,1819.00
             1404.57,1834.96 1401.78,1834.33 1411.38,1851.00
             1413.04,1853.88 1417.79,1863.62 1420.00,1865.00
             1420.00,1865.00 1419.00,1872.00 1419.00,1872.00
             1419.00,1872.00 1424.00,1872.00 1424.00,1872.00
             1424.04,1882.92 1425.78,1879.70 1429.32,1886.00
             1430.19,1887.55 1433.00,1897.18 1433.00,1899.00
             1433.00,1899.00 1440.00,1904.00 1440.00,1904.00
             1440.00,1904.00 1443.00,1917.00 1443.00,1917.00
             1443.00,1917.00 1454.41,1930.17 1454.41,1930.17
             1454.41,1930.17 1460.00,1940.00 1460.00,1940.00
             1458.33,1942.55 1464.51,1946.75 1466.04,1949.17
             1466.04,1949.17 1468.97,1955.00 1468.97,1955.00
             1473.82,1963.25 1478.07,1965.68 1479.00,1976.00
             1487.41,1979.83 1485.38,1985.27 1488.22,1992.00
             1489.67,1995.42 1492.86,1999.07 1495.20,2002.00
             1495.20,2002.00 1530.00,2045.00 1530.00,2045.00
             1530.00,2045.00 1553.44,2073.91 1553.44,2073.91
             1557.22,2078.07 1569.80,2086.97 1575.00,2090.87
             1575.00,2090.87 1617.00,2122.37 1617.00,2122.37
             1617.00,2122.37 1671.00,2162.87 1671.00,2162.87
             1671.00,2162.87 1699.00,2183.45 1699.00,2183.45
             1702.68,2185.42 1715.30,2188.79 1720.00,2190.14
             1720.00,2190.14 1757.00,2201.02 1757.00,2201.02
             1770.00,2205.02 1795.49,2213.98 1808.00,2214.00
             1808.00,2214.00 1826.00,2214.00 1826.00,2214.00
             1826.00,2214.00 1841.00,2213.00 1841.00,2213.00
             1841.00,2213.00 1892.00,2213.00 1892.00,2213.00
             1892.00,2213.00 1909.00,2212.00 1909.00,2212.00
             1909.00,2212.00 1960.00,2212.00 1960.00,2212.00
             1960.00,2212.00 1975.00,2211.00 1975.00,2211.00
             1975.00,2211.00 1993.00,2211.00 1993.00,2211.00
             2003.71,2210.98 2018.22,2206.79 2029.00,2204.42
             2029.00,2204.42 2094.00,2190.42 2094.00,2190.42
             2094.00,2190.42 2146.00,2179.21 2146.00,2179.21
             2146.00,2179.21 2172.00,2173.39 2172.00,2173.39
             2172.00,2173.39 2191.00,2161.69 2191.00,2161.69
             2191.00,2161.69 2228.00,2138.05 2228.00,2138.05
             2228.00,2138.05 2280.00,2104.62 2280.00,2104.62
             2289.48,2097.02 2307.89,2076.56 2317.04,2067.00
             2317.04,2067.00 2336.00,2048.00 2336.00,2048.00
             2336.00,2048.00 2363.00,2021.00 2363.00,2021.00
             2366.56,2017.44 2375.88,2008.47 2378.37,2005.00
             2378.37,2005.00 2386.78,1989.00 2386.78,1989.00
             2386.78,1989.00 2408.31,1947.00 2408.31,1947.00
             2408.31,1947.00 2450.26,1864.00 2450.26,1864.00
             2450.26,1864.00 2462.77,1838.00 2462.77,1838.00
             2462.77,1838.00 2464.23,1829.83 2464.23,1829.83
             2466.14,1822.32 2466.96,1825.51 2467.00,1816.00
             2467.00,1816.00 2468.00,1818.00 2468.00,1818.00
             2468.00,1818.00 2469.53,1811.09 2469.53,1811.09
             2470.60,1808.30 2472.10,1807.77 2473.14,1803.96
             2474.27,1799.81 2473.38,1797.19 2473.86,1795.09
             2474.43,1792.60 2476.09,1791.57 2476.53,1788.91
             2477.27,1786.23 2476.22,1783.35 2476.53,1781.00
             2476.61,1777.93 2477.93,1776.62 2478.88,1774.00
             2480.42,1769.79 2478.48,1761.64 2483.00,1760.00
             2483.00,1760.00 2485.00,1754.00 2485.00,1754.00
             2485.00,1754.00 2486.41,1742.73 2486.41,1742.73
             2486.41,1742.73 2486.41,1736.83 2486.41,1736.83
             2486.41,1736.83 2489.00,1734.00 2489.00,1734.00
             2488.76,1731.31 2488.19,1729.18 2491.00,1728.00
             2490.82,1721.09 2491.47,1711.69 2492.64,1704.91
             2493.04,1702.60 2492.87,1699.33 2494.60,1697.60
             2496.52,1695.68 2500.46,1696.01 2503.00,1696.00
             2508.06,1695.99 2522.76,1696.63 2526.59,1694.52
             2528.06,1693.70 2528.11,1693.20 2529.00,1692.00
             2532.71,1692.12 2532.87,1692.04 2535.00,1689.00
             2535.00,1689.00 2537.00,1690.00 2537.00,1690.00
             2537.00,1690.00 2540.00,1685.00 2540.00,1685.00
             2540.00,1685.00 2543.00,1686.00 2543.00,1686.00
             2543.00,1686.00 2543.00,1685.00 2543.00,1685.00
             2543.00,1685.00 2545.00,1684.00 2545.00,1684.00
             2545.00,1684.00 2544.00,1681.00 2544.00,1681.00
             2544.00,1681.00 2549.00,1681.00 2549.00,1681.00
             2553.43,1672.75 2560.45,1669.16 2566.40,1662.63
             2566.40,1662.63 2574.81,1650.99 2574.81,1650.99
             2574.81,1650.99 2577.90,1644.28 2577.90,1644.28
             2579.21,1642.19 2580.28,1641.62 2581.50,1638.96
             2581.50,1638.96 2583.27,1634.09 2583.27,1634.09
             2584.79,1630.90 2586.46,1630.06 2587.47,1625.99
             2588.93,1620.09 2589.07,1604.55 2589.00,1598.00
             2588.94,1592.86 2587.11,1583.90 2585.48,1579.00
             2585.48,1579.00 2581.73,1569.00 2581.73,1569.00
             2581.52,1567.35 2583.86,1556.33 2584.45,1554.17
             2584.45,1554.17 2591.49,1528.00 2591.49,1528.00
             2591.49,1528.00 2593.22,1513.61 2593.22,1513.61
             2593.22,1513.61 2596.17,1507.83 2596.17,1507.83
             2596.17,1507.83 2598.04,1499.00 2598.04,1499.00
             2598.04,1499.00 2601.61,1485.01 2601.61,1485.01
             2603.63,1479.27 2606.54,1479.73 2605.00,1473.00
             2605.00,1473.00 2612.00,1465.00 2612.00,1465.00
             2612.00,1465.00 2611.00,1462.00 2611.00,1462.00
             2611.00,1462.00 2614.00,1461.00 2614.00,1461.00
             2614.00,1461.00 2616.00,1447.00 2616.00,1447.00
             2616.00,1447.00 2619.00,1446.00 2619.00,1446.00
             2619.00,1446.00 2618.00,1442.00 2618.00,1442.00
             2618.00,1442.00 2620.00,1443.00 2620.00,1443.00
             2619.23,1433.19 2632.09,1409.41 2631.00,1398.00
             2633.94,1395.36 2632.66,1392.19 2633.71,1388.00
             2635.40,1381.23 2637.08,1357.37 2637.00,1350.00
             2636.83,1335.04 2637.11,1320.88 2634.64,1306.00
             2634.64,1306.00 2633.25,1300.04 2633.25,1300.04
             2632.48,1296.06 2634.16,1295.65 2633.25,1291.96
             2633.25,1291.96 2630.75,1285.00 2630.75,1285.00
             2626.28,1271.36 2629.06,1277.75 2620.43,1266.83
             2618.77,1264.73 2617.19,1261.29 2615.39,1259.73
             2613.71,1258.28 2611.97,1258.14 2610.25,1257.04
             2602.19,1251.90 2603.45,1248.02 2592.00,1248.00
             2586.11,1247.99 2571.96,1247.50 2567.00,1248.76
             2567.00,1248.76 2553.17,1253.45 2553.17,1253.45
             2553.17,1253.45 2548.08,1256.41 2548.08,1256.41
             2545.47,1257.58 2537.98,1258.04 2535.00,1258.00
             2535.00,1258.00 2538.00,1255.00 2538.00,1255.00
             2535.74,1249.72 2534.13,1248.39 2534.35,1242.00
             2534.35,1242.00 2538.35,1224.00 2538.35,1224.00
             2539.16,1219.77 2538.18,1218.62 2538.35,1215.00
             2538.35,1215.00 2538.96,1207.00 2538.96,1207.00
             2538.96,1207.00 2537.96,1196.00 2537.96,1196.00
             2537.96,1196.00 2537.96,1186.00 2537.96,1186.00
             2537.96,1186.00 2535.41,1167.00 2535.41,1167.00
             2534.44,1158.50 2536.03,1156.27 2535.41,1153.28
             2535.41,1153.28 2533.10,1146.00 2533.10,1146.00
             2531.98,1140.37 2532.69,1138.63 2532.31,1136.00
             2531.81,1132.63 2530.18,1131.52 2531.00,1128.00
             2531.00,1128.00 2527.75,1112.17 2527.75,1112.17
             2527.75,1112.17 2524.82,1104.00 2524.82,1104.00
             2524.82,1104.00 2522.47,1089.12 2522.47,1089.12
             2522.47,1089.12 2520.12,1080.04 2520.12,1080.04
             2520.12,1080.04 2519.51,1071.96 2519.51,1071.96
             2519.51,1071.96 2517.00,1056.00 2517.00,1056.00
             2513.59,1054.80 2514.60,1052.06 2515.00,1049.00
             2512.17,1047.87 2513.26,1045.77 2512.87,1043.09
             2512.09,1037.72 2510.47,1040.74 2509.96,1031.00
             2509.66,1025.18 2508.38,1023.87 2507.63,1019.00
             2505.65,1006.20 2507.94,1009.51 2502.51,996.00
             2500.93,992.07 2500.78,990.31 2497.00,988.00
             2497.00,988.00 2498.00,985.00 2498.00,985.00
             2491.91,978.19 2498.63,973.45 2493.00,972.00
             2495.81,960.08 2489.23,955.70 2486.17,945.00
             2486.17,945.00 2484.49,934.00 2484.49,934.00
             2484.49,934.00 2481.47,924.83 2481.47,924.83
             2481.47,924.83 2480.39,918.00 2480.39,918.00
             2478.71,911.65 2475.11,905.97 2472.38,900.08
             2472.38,900.08 2467.28,885.00 2467.28,885.00
             2467.28,885.00 2464.76,879.00 2464.76,879.00
             2464.76,879.00 2463.17,873.09 2463.17,873.09
             2460.84,867.35 2456.88,861.43 2457.00,855.00
             2454.18,853.95 2454.75,852.15 2453.42,849.66
             2450.75,844.67 2448.96,845.78 2449.00,839.00
             2446.81,836.21 2446.27,835.22 2448.00,832.00
             2448.00,832.00 2439.19,818.00 2439.19,818.00
             2439.19,818.00 2435.00,809.00 2435.00,809.00
             2435.00,809.00 2436.00,807.00 2436.00,807.00
             2426.44,799.34 2429.52,795.94 2426.76,788.00
             2424.57,781.72 2420.60,774.76 2421.00,768.00
             2417.51,766.86 2418.15,764.17 2417.05,761.00
             2417.05,761.00 2413.20,751.28 2413.20,751.28
             2412.55,748.93 2412.79,746.70 2411.35,744.54
             2410.28,742.95 2409.57,742.79 2408.00,742.00
             2409.35,731.44 2399.19,729.63 2400.00,718.00
             2388.79,711.10 2394.74,712.35 2388.00,703.00
             2388.00,703.00 2386.00,704.00 2386.00,704.00
             2384.36,698.87 2382.80,694.15 2377.00,693.00
             2377.00,693.00 2372.00,687.00 2372.00,687.00
             2372.00,687.00 2369.00,677.00 2369.00,677.00
             2364.66,675.79 2361.01,669.46 2357.76,666.24
             2357.76,666.24 2346.68,657.10 2346.68,657.10
             2346.68,657.10 2339.47,648.48 2339.47,648.48
             2331.73,642.40 2327.01,646.63 2324.00,634.00
             2324.00,634.00 2321.00,636.00 2321.00,636.00
             2321.00,636.00 2318.35,631.56 2318.35,631.56
             2318.35,631.56 2312.01,628.44 2312.01,628.44
             2312.01,628.44 2302.00,623.00 2302.00,623.00
             2301.81,622.03 2302.23,621.87 2301.24,620.21
             2299.56,617.42 2286.73,609.22 2283.28,606.62
             2277.12,601.97 2276.28,603.67 2272.58,601.25
             2272.58,601.25 2267.99,597.64 2267.99,597.64
             2267.99,597.64 2249.71,587.00 2249.71,587.00
             2245.41,585.03 2243.41,585.98 2239.09,583.20
             2239.09,583.20 2230.83,576.58 2230.83,576.58
             2230.83,576.58 2218.28,568.34 2218.28,568.34
             2214.32,565.93 2214.06,564.24 2209.00,564.00
             2205.76,559.19 2197.70,555.53 2192.00,555.00
             2190.05,549.08 2182.88,546.18 2177.00,547.00
             2174.17,543.17 2171.54,543.37 2167.00,543.00
             2165.44,535.29 2152.29,531.55 2146.05,528.36
             2142.72,526.66 2142.40,523.91 2139.00,523.00
             2139.00,523.00 2135.00,519.00 2135.00,519.00
             2125.27,522.46 2122.10,517.02 2115.00,514.94
             2109.69,513.38 2105.89,514.42 2101.00,513.87
             2101.00,513.87 2093.00,512.12 2093.00,512.12
             2086.89,511.37 2083.60,512.83 2079.00,508.00
             2073.16,508.76 2064.60,507.68 2060.27,503.38
             2057.44,500.56 2056.52,496.55 2054.91,493.00
             2054.91,493.00 2046.96,478.17 2046.96,478.17
             2044.34,473.86 2040.90,472.62 2036.00,464.00
             2036.00,464.00 2014.00,456.51 2014.00,456.51
             2009.85,455.55 2005.66,457.04 2001.42,457.35
             1997.14,457.42 1993.45,456.54 1989.00,457.35
             1985.24,458.27 1983.87,459.60 1981.00,460.46
             1981.00,460.46 1967.00,463.56 1967.00,463.56
             1958.47,464.93 1957.51,462.60 1941.00,466.62
             1934.82,468.12 1935.04,470.36 1931.39,471.03
             1931.39,471.03 1915.00,470.29 1915.00,470.29
             1915.00,470.29 1887.43,470.29 1887.43,470.29
             1887.43,470.29 1876.91,470.29 1876.91,470.29
             1876.91,470.29 1870.00,471.59 1870.00,471.59
             1870.00,471.59 1857.00,471.01 1857.00,471.01
             1857.00,471.01 1826.04,473.23 1826.04,473.23
             1820.28,474.07 1804.86,478.84 1800.04,481.64
             1800.04,481.64 1793.20,486.87 1793.20,486.87
             1793.20,486.87 1787.24,490.53 1787.24,490.53
             1787.24,490.53 1781.40,496.15 1781.40,496.15
             1779.32,497.91 1770.06,506.37 1769.18,508.05
             1768.68,509.66 1768.95,510.43 1769.18,512.00 Z
           M 1329.00,870.00
           C 1329.00,870.00 1329.00,871.00 1329.00,871.00
             1329.00,871.00 1330.00,870.00 1330.00,870.00
             1330.00,870.00 1329.00,870.00 1329.00,870.00 Z
           M 2494.00,966.00
           C 2494.00,966.00 2494.00,967.00 2494.00,967.00
             2494.00,967.00 2493.00,966.00 2493.00,966.00
             2493.00,966.00 2494.00,966.00 2494.00,966.00 Z
           M 2519.00,1064.00
           C 2519.00,1064.00 2519.00,1065.00 2519.00,1065.00
             2519.00,1065.00 2520.00,1064.00 2520.00,1064.00
             2520.00,1064.00 2519.00,1064.00 2519.00,1064.00 Z
           M 2618.00,1445.00
           C 2618.00,1445.00 2618.00,1446.00 2618.00,1446.00
             2618.00,1446.00 2617.00,1445.00 2617.00,1445.00
             2617.00,1445.00 2618.00,1445.00 2618.00,1445.00 Z
           M 2472.00,1805.00
           C 2472.00,1805.00 2472.00,1806.00 2472.00,1806.00
             2472.00,1806.00 2471.00,1805.00 2471.00,1805.00
             2471.00,1805.00 2472.00,1805.00 2472.00,1805.00 Z" />
  <path id="profile"
        fill="none" stroke="black" stroke-width="1"
        d="M 1769.18,512.00
           C 1763.99,511.88 1759.81,513.64 1755.00,514.42
             1746.68,515.77 1732.40,514.31 1727.00,522.00
             1720.09,521.62 1719.72,524.10 1714.28,526.65
             1711.71,527.86 1704.95,528.76 1702.00,529.00
             1698.77,534.70 1695.46,533.47 1690.00,535.98
             1690.00,535.98 1647.00,549.87 1647.00,549.87
             1638.88,553.35 1638.82,554.80 1633.00,558.16
             1629.35,560.27 1627.23,559.76 1623.00,562.42
             1623.00,562.42 1612.91,569.87 1612.91,569.87
             1612.91,569.87 1606.00,572.37 1606.00,572.37
             1606.00,572.37 1573.12,589.70 1573.12,589.70
             1573.12,589.70 1568.00,591.86 1568.00,591.86
             1568.00,591.86 1558.99,597.83 1558.99,597.83
             1558.99,597.83 1551.01,601.26 1551.01,601.26
             1551.01,601.26 1541.79,607.33 1541.79,607.33
             1541.79,607.33 1506.00,627.33 1506.00,627.33
             1506.00,627.33 1498.00,633.26 1498.00,633.26
             1498.00,633.26 1475.14,647.94 1475.14,647.94
             1472.54,650.10 1472.78,650.82 1471.12,652.90
             1468.43,656.27 1466.00,655.50 1465.00,660.00
             1456.15,664.10 1453.60,670.10 1447.59,676.59
             1442.38,682.21 1437.98,682.72 1434.30,686.26
             1434.30,686.26 1423.12,701.81 1423.12,701.81
             1423.12,701.81 1418.75,705.52 1418.75,705.52
             1418.75,705.52 1409.56,715.46 1409.56,715.46
             1409.56,715.46 1405.59,722.72 1405.59,722.72
             1405.59,722.72 1397.80,733.00 1397.80,733.00
             1397.80,733.00 1391.95,743.99 1391.95,743.99
             1391.95,743.99 1386.33,751.17 1386.33,751.17
             1386.33,751.17 1375.17,774.87 1375.17,774.87
             1373.41,778.40 1371.23,778.80 1369.22,783.02
             1369.22,783.02 1360.59,806.00 1360.59,806.00
             1360.59,806.00 1358.60,813.83 1358.60,813.83
             1355.56,822.22 1351.53,830.08 1347.44,838.00
             1347.44,838.00 1344.79,845.48 1344.79,845.48
             1344.79,845.48 1340.28,851.32 1340.28,851.32
             1340.28,851.32 1336.21,862.00 1336.21,862.00
             1333.29,868.26 1330.91,870.34 1329.88,872.42
             1329.88,872.42 1325.25,885.00 1325.25,885.00
             1323.84,888.91 1323.16,901.59 1320.00,903.00
             1319.70,909.95 1316.78,910.42 1315.34,915.82
             1315.34,915.82 1315.34,921.32 1315.34,921.32
             1314.56,927.05 1313.59,932.81 1311.73,938.28
             1311.73,938.28 1308.84,944.42 1308.84,944.42
             1307.35,948.03 1307.02,955.27 1308.00,959.00
             1308.00,959.00 1304.00,960.00 1304.00,960.00
             1304.00,960.00 1305.00,967.00 1305.00,967.00
             1300.84,968.43 1302.52,977.25 1302.02,980.96
             1302.02,980.96 1299.06,997.00 1299.06,997.00
             1299.06,997.00 1296.18,1005.00 1296.18,1005.00
             1294.72,1010.69 1296.38,1013.55 1291.00,1017.00
             1293.46,1035.63 1290.02,1029.67 1290.00,1045.00
             1289.99,1049.44 1290.73,1052.30 1288.23,1056.00
             1288.23,1056.00 1288.23,1069.83 1288.23,1069.83
             1288.23,1069.83 1287.27,1074.80 1287.27,1074.80
             1287.27,1074.80 1285.08,1101.00 1285.08,1101.00
             1285.08,1101.00 1282.12,1119.78 1282.12,1119.78
             1282.12,1119.78 1283.00,1122.00 1283.00,1122.00
             1278.33,1129.08 1280.45,1132.23 1280.43,1140.00
             1280.20,1142.68 1280.06,1149.55 1280.43,1151.92
             1280.43,1151.92 1282.39,1157.17 1282.39,1157.17
             1282.39,1157.17 1283.21,1165.00 1283.21,1165.00
             1283.21,1165.00 1287.39,1184.00 1287.39,1184.00
             1287.39,1184.00 1288.37,1194.00 1288.37,1194.00
             1288.37,1194.00 1290.61,1208.00 1290.61,1208.00
             1290.61,1208.00 1296.04,1230.00 1296.04,1230.00
             1296.04,1230.00 1298.63,1246.00 1298.63,1246.00
             1298.63,1246.00 1300.70,1252.00 1300.70,1252.00
             1300.70,1252.00 1302.83,1262.91 1302.83,1262.91
             1302.83,1262.91 1306.08,1273.00 1306.08,1273.00
             1308.26,1279.71 1311.63,1288.11 1312.08,1295.00
             1312.48,1301.24 1309.66,1306.89 1308.62,1313.00
             1308.62,1313.00 1308.00,1329.00 1308.00,1329.00
             1308.00,1329.00 1313.00,1330.00 1313.00,1330.00
             1313.00,1330.00 1310.98,1348.00 1310.98,1348.00
             1310.98,1348.00 1312.00,1351.00 1312.00,1351.00
             1312.00,1351.00 1292.00,1346.40 1292.00,1346.40
             1281.29,1343.53 1272.35,1340.05 1261.00,1340.21
             1258.40,1339.99 1252.32,1339.83 1250.09,1340.21
             1250.09,1340.21 1243.92,1343.32 1243.92,1343.32
             1238.20,1345.57 1235.54,1346.45 1230.76,1350.85
             1227.27,1354.05 1224.72,1357.93 1222.33,1362.00
             1218.79,1368.02 1217.47,1368.20 1215.52,1375.00
             1212.91,1384.07 1212.02,1383.91 1212.00,1394.00
             1212.00,1394.00 1212.00,1410.00 1212.00,1410.00
             1212.02,1420.56 1213.43,1419.58 1214.81,1428.00
             1214.81,1428.00 1216.62,1443.91 1216.62,1443.91
             1216.62,1443.91 1219.68,1452.01 1219.68,1452.01
             1220.48,1455.67 1220.35,1458.11 1221.71,1462.00
             1221.71,1462.00 1237.47,1495.00 1237.47,1495.00
             1237.47,1495.00 1243.38,1503.58 1243.38,1503.58
             1243.38,1503.58 1246.56,1510.90 1246.56,1510.90
             1246.56,1510.90 1252.90,1518.10 1252.90,1518.10
             1252.90,1518.10 1258.39,1527.00 1258.39,1527.00
             1258.39,1527.00 1267.98,1541.72 1267.98,1541.72
             1267.98,1541.72 1275.31,1552.72 1275.31,1552.72
             1275.31,1552.72 1277.37,1558.98 1277.37,1558.98
             1277.37,1558.98 1282.97,1570.00 1282.97,1570.00
             1282.97,1570.00 1284.79,1578.00 1284.79,1578.00
             1284.79,1578.00 1287.91,1585.58 1287.91,1585.58
             1287.91,1585.58 1293.72,1608.00 1293.72,1608.00
             1293.72,1608.00 1303.26,1645.00 1303.26,1645.00
             1304.26,1648.97 1305.49,1649.25 1305.96,1654.00
             1307.12,1665.80 1302.14,1670.21 1302.00,1682.00
             1301.91,1689.92 1302.07,1703.51 1303.80,1711.00
             1303.80,1711.00 1306.76,1720.00 1306.76,1720.00
             1306.76,1720.00 1323.55,1746.83 1323.55,1746.83
             1323.55,1746.83 1333.73,1756.92 1333.73,1756.92
             1333.73,1756.92 1346.28,1768.77 1346.28,1768.77
             1350.19,1771.27 1359.68,1776.33 1364.00,1777.80
             1371.04,1780.19 1380.05,1781.74 1385.45,1786.92
             1394.38,1795.50 1391.15,1800.25 1393.54,1806.70
             1393.54,1806.70 1395.79,1810.66 1395.79,1810.66
             1395.79,1810.66 1399.10,1819.00 1399.10,1819.00
             1404.58,1834.98 1401.76,1834.30 1411.38,1851.00
             1413.04,1853.88 1417.79,1863.62 1420.00,1865.00
             1420.00,1865.00 1419.00,1872.00 1419.00,1872.00
             1419.00,1872.00 1424.00,1872.00 1424.00,1872.00
             1424.04,1882.92 1425.78,1879.70 1429.32,1886.00
             1430.19,1887.55 1433.00,1897.18 1433.00,1899.00
             1433.00,1899.00 1440.00,1904.00 1440.00,1904.00
             1440.00,1904.00 1443.00,1917.00 1443.00,1917.00
             1443.00,1917.00 1454.41,1930.17 1454.41,1930.17
             1454.41,1930.17 1460.00,1940.00 1460.00,1940.00
             1458.33,1942.55 1464.51,1946.75 1466.04,1949.17
             1466.04,1949.17 1468.97,1955.00 1468.97,1955.00
             1473.82,1963.25 1478.07,1965.68 1479.00,1976.00
             1488.74,1980.43 1486.30,1988.67 1487.13,1996.91
             1487.13,1996.91 1488.50,2004.04 1488.50,2004.04
             1488.67,2007.46 1487.74,2010.02 1488.50,2014.00
             1488.50,2014.00 1489.70,2020.00 1489.70,2020.00
             1489.70,2020.00 1489.17,2028.00 1489.17,2028.00
             1489.44,2032.03 1490.89,2032.36 1491.00,2039.00
             1491.00,2039.00 1492.02,2053.00 1492.02,2053.00
             1492.02,2053.00 1492.02,2061.00 1492.02,2061.00
             1492.02,2061.00 1494.02,2069.00 1494.02,2069.00
             1494.02,2069.00 1494.02,2077.00 1494.02,2077.00
             1494.02,2077.00 1495.71,2086.00 1495.71,2086.00
             1495.71,2086.00 1496.58,2096.00 1496.58,2096.00
             1496.58,2096.00 1499.15,2106.26 1499.15,2106.26
             1502.24,2121.36 1497.32,2118.11 1504.00,2135.00
             1498.20,2134.32 1496.37,2131.83 1490.00,2133.36
             1483.51,2134.92 1479.12,2139.76 1472.00,2139.00
             1472.00,2139.00 1472.00,2146.00 1472.00,2146.00
             1472.00,2146.00 1467.00,2144.00 1467.00,2144.00
             1467.00,2144.00 1467.00,2146.00 1467.00,2146.00
             1467.00,2146.00 1464.00,2145.00 1464.00,2145.00
             1462.62,2147.10 1460.79,2150.00 1458.79,2151.50
             1454.34,2154.83 1448.24,2151.82 1451.00,2162.00
             1451.00,2162.00 1442.55,2166.68 1442.55,2166.68
             1442.55,2166.68 1431.00,2179.00 1431.00,2179.00
             1429.69,2175.95 1429.10,2176.45 1426.00,2177.00
             1426.00,2177.00 1427.00,2184.00 1427.00,2184.00
             1427.00,2184.00 1424.00,2186.00 1424.00,2186.00
             1424.00,2186.00 1422.00,2186.00 1422.00,2186.00
             1422.00,2186.00 1420.00,2184.00 1420.00,2184.00
             1420.00,2184.00 1408.00,2201.00 1408.00,2201.00
             1398.23,2201.49 1396.77,2212.40 1392.70,2214.98
             1391.22,2215.92 1389.66,2215.86 1388.00,2216.00
             1384.68,2221.69 1374.19,2223.97 1368.00,2225.53
             1368.00,2225.53 1338.00,2232.56 1338.00,2232.56
             1329.29,2233.89 1331.25,2231.67 1317.00,2235.13
             1311.50,2236.47 1300.78,2239.02 1296.42,2242.26
             1292.57,2245.12 1284.81,2254.62 1281.90,2255.52
             1276.03,2257.34 1272.86,2256.53 1268.00,2257.32
             1268.00,2257.32 1257.00,2259.92 1257.00,2259.92
             1257.00,2259.92 1238.00,2262.83 1238.00,2262.83
             1238.00,2262.83 1208.00,2270.33 1208.00,2270.33
             1208.00,2270.33 1186.00,2274.53 1186.00,2274.53
             1186.00,2274.53 1174.00,2279.36 1174.00,2279.36
             1174.00,2279.36 1152.00,2287.56 1152.00,2287.56
             1152.00,2287.56 1117.83,2302.97 1117.83,2302.97
             1112.13,2305.45 1106.46,2306.95 1101.00,2310.19
             1101.00,2310.19 1087.77,2317.95 1087.77,2317.95
             1086.75,2319.04 1087.21,2319.20 1087.00,2320.00
             1082.02,2321.11 1073.81,2323.90 1072.00,2329.00
             1066.66,2329.26 1058.15,2330.41 1056.00,2336.00
             1048.35,2336.61 1049.20,2339.41 1043.71,2343.12
             1039.13,2346.22 1034.03,2346.15 1032.00,2352.00
             1029.38,2350.81 1026.93,2349.08 1023.99,2348.82
             1016.42,2348.14 1006.98,2356.02 999.91,2358.64
             996.23,2360.01 989.83,2358.11 985.78,2362.55
             983.03,2365.56 984.11,2369.01 983.86,2372.00
             983.30,2378.48 978.80,2378.02 974.01,2380.33
             974.01,2380.33 965.91,2385.19 965.91,2385.19
             965.91,2385.19 949.00,2393.41 949.00,2393.41
             949.00,2393.41 924.00,2406.20 924.00,2406.20
             924.00,2406.20 915.00,2410.10 915.00,2410.10
             915.00,2410.10 910.24,2411.72 910.24,2411.72
             907.11,2413.28 907.28,2415.52 902.00,2418.32
             902.00,2418.32 892.00,2422.63 892.00,2422.63
             892.00,2422.63 884.00,2428.05 884.00,2428.05
             884.00,2428.05 876.00,2430.76 876.00,2430.76
             876.00,2430.76 868.00,2435.59 868.00,2435.59
             868.00,2435.59 860.00,2438.30 860.00,2438.30
             860.00,2438.30 846.72,2447.55 846.72,2447.55
             846.72,2447.55 837.00,2453.14 837.00,2453.14
             837.00,2453.14 796.00,2475.89 796.00,2475.89
             796.00,2475.89 787.09,2480.22 787.09,2480.22
             787.09,2480.22 780.91,2485.37 780.91,2485.37
             780.91,2485.37 769.09,2492.32 769.09,2492.32
             769.09,2492.32 760.99,2499.24 760.99,2499.24
             760.99,2499.24 752.00,2504.38 752.00,2504.38
             752.00,2504.38 743.00,2510.62 743.00,2510.62
             743.00,2510.62 737.17,2513.70 737.17,2513.70
             737.17,2513.70 728.71,2520.53 728.71,2520.53
             728.71,2520.53 718.09,2526.97 718.09,2526.97
             718.09,2526.97 702.54,2540.25 702.54,2540.25
             702.54,2540.25 696.24,2543.41 696.24,2543.41
             696.24,2543.41 690.87,2548.29 690.87,2548.29
             690.87,2548.29 681.28,2554.10 681.28,2554.10
             681.28,2554.10 676.00,2558.46 676.00,2558.46
             676.00,2558.46 657.28,2570.01 657.28,2570.01
             657.28,2570.01 633.00,2588.33 633.00,2588.33
             633.00,2588.33 609.32,2605.67 609.32,2605.67
             609.32,2605.67 602.91,2611.53 602.91,2611.53
             602.91,2611.53 583.00,2626.26 583.00,2626.26
             583.00,2626.26 571.96,2636.25 571.96,2636.25
             571.96,2636.25 564.04,2642.25 564.04,2642.25
             564.04,2642.25 558.72,2647.28 558.72,2647.28
             558.72,2647.28 552.17,2652.30 552.17,2652.30
             552.17,2652.30 545.96,2658.90 545.96,2658.90
             545.96,2658.90 538.00,2665.21 538.00,2665.21
             538.00,2665.21 520.49,2680.82 520.49,2680.82
             520.49,2680.82 501.01,2693.42 501.01,2693.42
             501.01,2693.42 492.91,2700.09 492.91,2700.09
             492.91,2700.09 474.83,2712.38 474.83,2712.38
             474.83,2712.38 461.83,2722.46 461.83,2722.46
             461.83,2722.46 452.04,2728.81 452.04,2728.81
             452.04,2728.81 442.00,2736.66 442.00,2736.66
             442.00,2736.66 431.58,2743.48 431.58,2743.48
             431.58,2743.48 422.72,2751.29 422.72,2751.29
             422.72,2751.29 401.20,2768.02 401.20,2768.02
             401.20,2768.02 390.55,2777.61 390.55,2777.61
             390.55,2777.61 368.71,2797.37 368.71,2797.37
             368.71,2797.37 354.92,2811.86 354.92,2811.86
             354.92,2811.86 346.51,2819.87 346.51,2819.87
             346.51,2819.87 339.82,2828.00 339.82,2828.00
             339.82,2828.00 329.73,2839.17 329.73,2839.17
             329.73,2839.17 316.26,2856.38 316.26,2856.38
             308.84,2864.78 306.17,2862.27 302.73,2865.56
             302.73,2865.56 295.53,2875.82 295.53,2875.82
             295.53,2875.82 289.74,2881.32 289.74,2881.32
             289.74,2881.32 273.68,2902.00 273.68,2902.00
             272.43,2904.18 268.70,2912.70 268.08,2915.00
             268.08,2915.00 268.08,2925.00 268.08,2925.00
             266.98,2929.63 264.98,2929.55 264.00,2936.00
             261.95,2936.67 261.45,2936.70 259.77,2938.29
             259.77,2938.29 246.80,2958.00 246.80,2958.00
             246.80,2958.00 240.21,2969.00 240.21,2969.00
             240.21,2969.00 219.64,3008.42 219.64,3008.42
             215.80,3014.92 215.64,3019.69 209.00,3025.00
             208.93,3031.88 203.72,3037.20 200.72,3043.00
             200.72,3043.00 197.73,3048.91 197.73,3048.91
             197.73,3048.91 191.46,3058.00 191.46,3058.00
             191.46,3058.00 186.61,3068.91 186.61,3068.91
             186.61,3068.91 176.67,3086.00 176.67,3086.00
             176.67,3086.00 166.82,3106.00 166.82,3106.00
             166.82,3106.00 160.83,3116.00 160.83,3116.00
             160.83,3116.00 154.11,3131.00 154.11,3131.00
             154.11,3131.00 149.13,3140.00 149.13,3140.00
             149.13,3140.00 142.90,3153.00 142.90,3153.00
             142.90,3153.00 133.48,3171.00 133.48,3171.00
             133.48,3171.00 126.83,3187.00 126.83,3187.00
             124.23,3192.23 117.22,3205.98 116.00,3211.00
             116.00,3211.00 114.00,3210.00 114.00,3210.00
             114.00,3210.00 113.00,3211.00 113.00,3211.00
             113.00,3211.00 114.00,3214.00 114.00,3214.00
             114.00,3214.00 112.00,3213.00 112.00,3213.00
             112.00,3213.00 113.00,3216.00 113.00,3216.00
             108.55,3218.89 107.45,3226.25 105.27,3231.00
             105.27,3231.00 100.24,3244.00 100.24,3244.00
             100.24,3244.00 93.51,3259.00 93.51,3259.00
             93.51,3259.00 90.95,3267.00 90.95,3267.00
             90.95,3267.00 85.86,3277.00 85.86,3277.00
             85.86,3277.00 73.05,3307.96 73.05,3307.96
             73.05,3307.96 69.09,3315.09 69.09,3315.09
             69.09,3315.09 58.77,3339.96 58.77,3339.96
             58.77,3339.96 55.08,3347.09 55.08,3347.09
             55.08,3347.09 52.05,3355.96 52.05,3355.96
             52.05,3355.96 48.68,3362.17 48.68,3362.17
             48.68,3362.17 44.36,3376.00 44.36,3376.00
             44.36,3376.00 36.31,3394.00 36.31,3394.00
             36.31,3394.00 32.46,3405.00 32.46,3405.00
             32.46,3405.00 26.22,3417.00 26.22,3417.00
             26.22,3417.00 16.80,3442.17 16.80,3442.17
             16.80,3442.17 14.70,3449.00 14.70,3449.00
             14.70,3449.00 10.69,3456.00 10.69,3456.00
             10.69,3456.00 4.68,3474.00 4.68,3474.00
             1.47,3482.61 0.02,3479.54 0.00,3490.00
             0.00,3490.00 0.00,4392.00 0.00,4392.00
             0.00,4392.00 3643.00,4392.00 3643.00,4392.00
             3643.00,4392.00 3643.00,3246.00 3643.00,3246.00
             3643.00,3246.00 3643.00,2673.00 3643.00,2673.00
             3643.00,2673.00 3642.01,2665.63 3642.01,2665.63
             3642.01,2665.63 3633.28,2659.66 3633.28,2659.66
             3633.28,2659.66 3606.00,2641.22 3606.00,2641.22
             3606.00,2641.22 3586.00,2626.26 3586.00,2626.26
             3586.00,2626.26 3572.04,2617.58 3572.04,2617.58
             3572.04,2617.58 3561.00,2609.74 3561.00,2609.74
             3561.00,2609.74 3548.04,2602.10 3548.04,2602.10
             3548.04,2602.10 3541.83,2596.78 3541.83,2596.78
             3541.83,2596.78 3532.00,2590.32 3532.00,2590.32
             3532.00,2590.32 3523.00,2585.74 3523.00,2585.74
             3523.00,2585.74 3502.75,2571.90 3502.75,2571.90
             3502.75,2571.90 3495.54,2566.28 3495.54,2566.28
             3495.54,2566.28 3459.00,2544.77 3459.00,2544.77
             3459.00,2544.77 3442.00,2533.75 3442.00,2533.75
             3442.00,2533.75 3430.17,2527.84 3430.17,2527.84
             3430.17,2527.84 3402.00,2512.17 3402.00,2512.17
             3402.00,2512.17 3388.00,2506.48 3388.00,2506.48
             3388.00,2506.48 3377.72,2499.94 3377.72,2499.94
             3377.72,2499.94 3363.00,2492.64 3363.00,2492.64
             3363.00,2492.64 3349.00,2487.34 3349.00,2487.34
             3349.00,2487.34 3335.00,2480.43 3335.00,2480.43
             3335.00,2480.43 3315.00,2472.35 3315.00,2472.35
             3315.00,2472.35 3292.00,2461.49 3292.00,2461.49
             3292.00,2461.49 3255.00,2446.54 3255.00,2446.54
             3255.00,2446.54 3233.00,2436.86 3233.00,2436.86
             3233.00,2436.86 3219.00,2431.71 3219.00,2431.71
             3219.00,2431.71 3211.00,2427.93 3211.00,2427.93
             3211.00,2427.93 3192.00,2421.49 3192.00,2421.49
             3192.00,2421.49 3182.00,2417.11 3182.00,2417.11
             3182.00,2417.11 3172.00,2413.66 3172.00,2413.66
             3172.00,2413.66 3166.00,2410.86 3166.00,2410.86
             3166.00,2410.86 3156.04,2407.65 3156.04,2407.65
             3156.04,2407.65 3142.00,2401.45 3142.00,2401.45
             3142.00,2401.45 3109.00,2388.88 3109.00,2388.88
             3109.00,2388.88 3102.00,2385.53 3102.00,2385.53
             3102.00,2385.53 3083.09,2378.41 3083.09,2378.41
             3083.09,2378.41 3074.00,2373.59 3074.00,2373.59
             3074.00,2373.59 3056.00,2368.28 3056.00,2368.28
             3056.00,2368.28 3028.00,2358.74 3028.00,2358.74
             3028.00,2358.74 3006.00,2350.54 3006.00,2350.54
             3006.00,2350.54 2998.00,2346.95 2998.00,2346.95
             2998.00,2346.95 2975.00,2339.40 2975.00,2339.40
             2975.00,2339.40 2958.00,2334.00 2958.00,2334.00
             2957.09,2327.60 2951.56,2316.62 2945.90,2313.27
             2938.02,2308.62 2926.44,2307.12 2921.00,2299.00
             2921.00,2299.00 2910.21,2296.77 2910.21,2296.77
             2910.21,2296.77 2903.90,2292.33 2903.90,2292.33
             2903.90,2292.33 2889.00,2292.33 2889.00,2292.33
             2889.00,2292.33 2871.00,2284.57 2871.00,2284.57
             2871.00,2284.57 2857.28,2279.12 2857.28,2279.12
             2857.28,2279.12 2851.96,2275.90 2851.96,2275.90
             2851.96,2275.90 2829.01,2266.19 2829.01,2266.19
             2829.01,2266.19 2821.83,2262.51 2821.83,2262.51
             2821.83,2262.51 2813.01,2260.12 2813.01,2260.12
             2813.01,2260.12 2805.83,2256.80 2805.83,2256.80
             2805.83,2256.80 2797.00,2254.39 2797.00,2254.39
             2797.00,2254.39 2791.00,2251.66 2791.00,2251.66
             2791.00,2251.66 2784.00,2249.52 2784.00,2249.52
             2784.00,2249.52 2776.00,2245.81 2776.00,2245.81
             2776.00,2245.81 2759.00,2239.87 2759.00,2239.87
             2759.00,2239.87 2742.00,2232.76 2742.00,2232.76
             2742.00,2232.76 2733.00,2230.02 2733.00,2230.02
             2733.00,2230.02 2725.00,2225.98 2725.00,2225.98
             2725.00,2225.98 2714.00,2222.80 2714.00,2222.80
             2714.00,2222.80 2707.00,2219.47 2707.00,2219.47
             2707.00,2219.47 2698.00,2216.21 2698.00,2216.21
             2698.00,2216.21 2676.91,2206.20 2676.91,2206.20
             2676.91,2206.20 2665.00,2201.63 2665.00,2201.63
             2665.00,2201.63 2646.00,2196.51 2646.00,2196.51
             2646.00,2196.51 2623.00,2181.80 2623.00,2181.80
             2623.00,2181.80 2590.00,2175.78 2590.00,2175.78
             2590.00,2175.78 2580.00,2171.21 2580.00,2171.21
             2580.00,2171.21 2567.00,2166.51 2567.00,2166.51
             2567.00,2166.51 2548.00,2157.45 2548.00,2157.45
             2548.00,2157.45 2535.00,2153.71 2535.00,2153.71
             2535.00,2153.71 2510.58,2143.76 2510.58,2143.76
             2510.58,2143.76 2499.00,2140.00 2499.00,2140.00
             2499.00,2140.00 2499.00,2144.00 2499.00,2144.00
             2492.48,2137.57 2498.25,2129.76 2488.00,2128.00
             2488.00,2128.00 2488.00,2125.00 2488.00,2125.00
             2482.39,2123.93 2477.03,2119.74 2475.43,2113.99
             2475.43,2113.99 2474.08,2104.00 2474.08,2104.00
             2474.08,2104.00 2470.28,2081.00 2470.28,2081.00
             2470.28,2081.00 2469.68,2073.00 2469.68,2073.00
             2469.68,2073.00 2467.04,2061.00 2467.04,2061.00
             2467.04,2061.00 2467.04,2051.00 2467.04,2051.00
             2467.04,2051.00 2465.73,2043.00 2465.73,2043.00
             2465.73,2043.00 2465.73,2034.00 2465.73,2034.00
             2465.73,2034.00 2463.97,2015.00 2463.97,2015.00
             2463.97,2015.00 2463.97,1998.00 2463.97,1998.00
             2463.97,1998.00 2463.43,1989.00 2463.43,1989.00
             2463.43,1989.00 2463.43,1982.00 2463.43,1982.00
             2463.43,1982.00 2462.01,1962.00 2462.01,1962.00
             2461.76,1951.20 2463.81,1953.31 2463.92,1947.96
             2463.92,1947.96 2463.21,1934.00 2463.21,1934.00
             2463.21,1934.00 2463.97,1925.00 2463.97,1925.00
             2463.97,1925.00 2463.97,1912.00 2463.97,1912.00
             2463.97,1912.00 2463.97,1896.00 2463.97,1896.00
             2463.97,1896.00 2463.00,1879.00 2463.00,1879.00
             2462.84,1870.31 2460.16,1872.69 2460.12,1864.00
             2460.12,1864.00 2460.12,1848.00 2460.12,1848.00
             2460.12,1848.00 2463.19,1839.00 2463.19,1839.00
             2463.19,1839.00 2464.04,1830.71 2464.04,1830.71
             2465.36,1823.82 2466.96,1826.90 2467.00,1816.00
             2467.00,1816.00 2468.00,1818.00 2468.00,1818.00
             2468.00,1818.00 2469.53,1811.09 2469.53,1811.09
             2470.60,1808.30 2472.10,1807.77 2473.14,1803.96
             2474.27,1799.81 2473.38,1797.19 2473.86,1795.09
             2474.43,1792.60 2476.09,1791.57 2476.53,1788.91
             2477.27,1786.23 2476.22,1783.35 2476.53,1781.00
             2476.61,1777.93 2477.93,1776.62 2478.88,1774.00
             2480.42,1769.79 2478.48,1761.64 2483.00,1760.00
             2483.00,1760.00 2485.00,1754.00 2485.00,1754.00
             2485.00,1754.00 2486.41,1742.73 2486.41,1742.73
             2486.41,1742.73 2486.41,1736.83 2486.41,1736.83
             2486.41,1736.83 2489.00,1734.00 2489.00,1734.00
             2488.76,1731.31 2488.19,1729.18 2491.00,1728.00
             2490.82,1721.09 2491.47,1711.69 2492.64,1704.91
             2493.04,1702.60 2492.87,1699.33 2494.60,1697.60
             2496.52,1695.68 2500.46,1696.01 2503.00,1696.00
             2508.06,1695.99 2522.76,1696.63 2526.59,1694.52
             2528.06,1693.70 2528.11,1693.20 2529.00,1692.00
             2532.71,1692.12 2532.87,1692.04 2535.00,1689.00
             2535.00,1689.00 2537.00,1690.00 2537.00,1690.00
             2537.00,1690.00 2540.00,1685.00 2540.00,1685.00
             2540.00,1685.00 2543.00,1686.00 2543.00,1686.00
             2543.00,1686.00 2543.00,1685.00 2543.00,1685.00
             2543.00,1685.00 2545.00,1684.00 2545.00,1684.00
             2545.00,1684.00 2544.00,1681.00 2544.00,1681.00
             2544.00,1681.00 2549.00,1681.00 2549.00,1681.00
             2553.43,1672.75 2560.45,1669.16 2566.40,1662.63
             2566.40,1662.63 2574.81,1650.99 2574.81,1650.99
             2574.81,1650.99 2577.90,1644.28 2577.90,1644.28
             2579.21,1642.20 2580.31,1641.57 2581.50,1638.96
             2581.50,1638.96 2583.27,1634.09 2583.27,1634.09
             2584.79,1630.90 2586.46,1630.06 2587.47,1625.99
             2588.93,1620.09 2589.07,1604.55 2589.00,1598.00
             2588.94,1592.86 2587.11,1583.90 2585.48,1579.00
             2585.48,1579.00 2581.73,1569.00 2581.73,1569.00
             2581.52,1567.35 2583.86,1556.33 2584.45,1554.17
             2584.45,1554.17 2591.49,1528.00 2591.49,1528.00
             2591.49,1528.00 2593.22,1513.61 2593.22,1513.61
             2593.22,1513.61 2596.17,1507.83 2596.17,1507.83
             2596.17,1507.83 2598.04,1499.00 2598.04,1499.00
             2598.04,1499.00 2601.61,1485.01 2601.61,1485.01
             2603.63,1479.27 2606.54,1479.73 2605.00,1473.00
             2605.00,1473.00 2612.00,1465.00 2612.00,1465.00
             2612.00,1465.00 2611.00,1462.00 2611.00,1462.00
             2611.00,1462.00 2614.00,1461.00 2614.00,1461.00
             2614.00,1461.00 2616.00,1447.00 2616.00,1447.00
             2616.00,1447.00 2619.00,1446.00 2619.00,1446.00
             2619.00,1446.00 2618.00,1442.00 2618.00,1442.00
             2618.00,1442.00 2620.00,1443.00 2620.00,1443.00
             2619.23,1433.19 2632.09,1409.41 2631.00,1398.00
             2633.94,1395.36 2632.66,1392.19 2633.71,1388.00
             2635.40,1381.23 2637.08,1357.37 2637.00,1350.00
             2636.83,1335.04 2637.11,1320.88 2634.64,1306.00
             2634.64,1306.00 2633.25,1300.04 2633.25,1300.04
             2632.48,1296.06 2634.16,1295.65 2633.25,1291.96
             2633.25,1291.96 2630.75,1285.00 2630.75,1285.00
             2626.28,1271.36 2629.06,1277.75 2620.43,1266.83
             2618.77,1264.73 2617.19,1261.29 2615.39,1259.73
             2613.71,1258.28 2611.97,1258.14 2610.25,1257.04
             2602.19,1251.90 2603.45,1248.02 2592.00,1248.00
             2586.11,1247.99 2571.96,1247.50 2567.00,1248.76
             2567.00,1248.76 2553.17,1253.45 2553.17,1253.45
             2553.17,1253.45 2548.08,1256.41 2548.08,1256.41
             2545.47,1257.58 2537.98,1258.04 2535.00,1258.00
             2535.00,1258.00 2538.00,1255.00 2538.00,1255.00
             2535.74,1249.72 2534.13,1248.39 2534.35,1242.00
             2534.35,1242.00 2538.35,1224.00 2538.35,1224.00
             2539.16,1219.77 2538.18,1218.62 2538.35,1215.00
             2538.35,1215.00 2538.96,1207.00 2538.96,1207.00
             2538.96,1207.00 2537.96,1196.00 2537.96,1196.00
             2537.96,1196.00 2537.96,1186.00 2537.96,1186.00
             2537.96,1186.00 2535.41,1167.00 2535.41,1167.00
             2534.44,1158.50 2536.03,1156.27 2535.41,1153.28
             2535.41,1153.28 2533.10,1146.00 2533.10,1146.00
             2531.98,1140.37 2532.69,1138.63 2532.31,1136.00
             2531.81,1132.63 2530.18,1131.52 2531.00,1128.00
             2531.00,1128.00 2527.75,1112.17 2527.75,1112.17
             2527.75,1112.17 2524.82,1104.00 2524.82,1104.00
             2524.82,1104.00 2522.47,1089.12 2522.47,1089.12
             2522.47,1089.12 2520.12,1080.04 2520.12,1080.04
             2520.12,1080.04 2519.51,1071.96 2519.51,1071.96
             2519.51,1071.96 2517.00,1056.00 2517.00,1056.00
             2513.59,1054.80 2514.60,1052.06 2515.00,1049.00
             2512.17,1047.87 2513.26,1045.77 2512.87,1043.09
             2512.09,1037.72 2510.47,1040.74 2509.96,1031.00
             2509.66,1025.18 2508.38,1023.87 2507.63,1019.00
             2505.65,1006.20 2507.94,1009.51 2502.51,996.00
             2500.93,992.07 2500.78,990.31 2497.00,988.00
             2497.00,988.00 2498.00,985.00 2498.00,985.00
             2491.91,978.19 2498.63,973.45 2493.00,972.00
             2495.81,960.08 2489.23,955.70 2486.17,945.00
             2486.17,945.00 2484.49,934.00 2484.49,934.00
             2484.49,934.00 2481.47,924.83 2481.47,924.83
             2481.47,924.83 2480.39,918.00 2480.39,918.00
             2478.71,911.65 2475.11,905.97 2472.38,900.08
             2472.38,900.08 2467.28,885.00 2467.28,885.00
             2467.28,885.00 2464.76,879.00 2464.76,879.00
             2464.76,879.00 2463.17,873.09 2463.17,873.09
             2460.84,867.35 2456.88,861.43 2457.00,855.00
             2454.18,853.95 2454.75,852.15 2453.42,849.66
             2450.75,844.67 2448.96,845.78 2449.00,839.00
             2446.81,836.21 2446.27,835.22 2448.00,832.00
             2448.00,832.00 2439.19,818.00 2439.19,818.00
             2439.19,818.00 2435.00,809.00 2435.00,809.00
             2435.00,809.00 2436.00,807.00 2436.00,807.00
             2426.44,799.34 2429.52,795.94 2426.76,788.00
             2424.57,781.72 2420.60,774.76 2421.00,768.00
             2417.51,766.86 2418.15,764.17 2417.05,761.00
             2417.05,761.00 2413.20,751.28 2413.20,751.28
             2412.55,748.93 2412.79,746.70 2411.35,744.54
             2410.28,742.95 2409.57,742.79 2408.00,742.00
             2409.35,731.44 2399.19,729.63 2400.00,718.00
             2388.79,711.10 2394.74,712.35 2388.00,703.00
             2388.00,703.00 2386.00,704.00 2386.00,704.00
             2384.36,698.87 2382.80,694.15 2377.00,693.00
             2377.00,693.00 2372.00,687.00 2372.00,687.00
             2372.00,687.00 2369.00,677.00 2369.00,677.00
             2364.66,675.79 2361.01,669.46 2357.76,666.24
             2357.76,666.24 2346.68,657.10 2346.68,657.10
             2346.68,657.10 2339.47,648.48 2339.47,648.48
             2331.73,642.40 2327.01,646.63 2324.00,634.00
             2324.00,634.00 2321.00,636.00 2321.00,636.00
             2321.00,636.00 2318.35,631.56 2318.35,631.56
             2318.35,631.56 2312.01,628.44 2312.01,628.44
             2312.01,628.44 2302.00,623.00 2302.00,623.00
             2301.81,622.03 2302.23,621.87 2301.24,620.21
             2299.56,617.42 2286.73,609.22 2283.28,606.62
             2277.12,601.97 2276.28,603.67 2272.58,601.25
             2272.58,601.25 2267.99,597.64 2267.99,597.64
             2267.99,597.64 2249.71,587.00 2249.71,587.00
             2245.41,585.03 2243.41,585.98 2239.09,583.20
             2239.09,583.20 2230.83,576.58 2230.83,576.58
             2230.83,576.58 2218.28,568.34 2218.28,568.34
             2214.32,565.93 2214.06,564.24 2209.00,564.00
             2205.76,559.19 2197.70,555.53 2192.00,555.00
             2190.05,549.08 2182.88,546.18 2177.00,547.00
             2174.17,543.17 2171.54,543.37 2167.00,543.00
             2165.44,535.29 2152.29,531.55 2146.05,528.36
             2142.72,526.66 2142.40,523.91 2139.00,523.00
             2139.00,523.00 2135.00,519.00 2135.00,519.00
             2125.27,522.46 2122.10,517.02 2115.00,514.94
             2109.69,513.38 2105.89,514.42 2101.00,513.87
             2101.00,513.87 2093.00,512.12 2093.00,512.12
             2086.89,511.37 2083.60,512.83 2079.00,508.00
             2073.16,508.76 2064.60,507.68 2060.27,503.38
             2057.44,500.56 2056.52,496.55 2054.91,493.00
             2054.91,493.00 2046.96,478.17 2046.96,478.17
             2044.34,473.86 2040.90,472.62 2036.00,464.00
             2036.00,464.00 2014.00,456.51 2014.00,456.51
             2009.85,455.55 2005.66,457.04 2001.42,457.35
             1997.14,457.42 1993.45,456.54 1989.00,457.35
             1985.24,458.27 1983.87,459.60 1981.00,460.46
             1981.00,460.46 1967.00,463.56 1967.00,463.56
             1958.47,464.93 1957.51,462.60 1941.00,466.62
             1934.82,468.12 1935.04,470.36 1931.39,471.03
             1931.39,471.03 1915.00,470.29 1915.00,470.29
             1915.00,470.29 1887.43,470.29 1887.43,470.29
             1887.43,470.29 1876.91,470.29 1876.91,470.29
             1876.91,470.29 1870.00,471.59 1870.00,471.59
             1870.00,471.59 1857.00,471.01 1857.00,471.01
             1857.00,471.01 1826.04,473.23 1826.04,473.23
             1820.28,474.07 1804.86,478.84 1800.04,481.64
             1800.04,481.64 1793.20,486.87 1793.20,486.87
             1793.20,486.87 1787.24,490.53 1787.24,490.53
             1787.24,490.53 1781.40,496.15 1781.40,496.15
             1779.32,497.91 1770.06,506.37 1769.18,508.05
             1768.68,509.66 1768.95,510.43 1769.18,512.00 Z
           M 1329.00,870.00
           C 1329.00,870.00 1329.00,871.00 1329.00,871.00
             1329.00,871.00 1330.00,870.00 1330.00,870.00
             1330.00,870.00 1329.00,870.00 1329.00,870.00 Z
           M 2494.00,966.00
           C 2494.00,966.00 2494.00,967.00 2494.00,967.00
             2494.00,967.00 2493.00,966.00 2493.00,966.00
             2493.00,966.00 2494.00,966.00 2494.00,966.00 Z
           M 2519.00,1064.00
           C 2519.00,1064.00 2519.00,1065.00 2519.00,1065.00
             2519.00,1065.00 2520.00,1064.00 2520.00,1064.00
             2520.00,1064.00 2519.00,1064.00 2519.00,1064.00 Z
           M 2618.00,1445.00
           C 2618.00,1445.00 2618.00,1446.00 2618.00,1446.00
             2618.00,1446.00 2617.00,1445.00 2617.00,1445.00
             2617.00,1445.00 2618.00,1445.00 2618.00,1445.00 Z
           M 2472.00,1805.00
           C 2472.00,1805.00 2472.00,1806.00 2472.00,1806.00
             2472.00,1806.00 2471.00,1805.00 2471.00,1805.00
             2471.00,1805.00 2472.00,1805.00 2472.00,1805.00 Z
           M 1504.00,2136.00
           C 1504.00,2136.00 1504.00,2137.00 1504.00,2137.00
             1504.00,2137.00 1503.00,2136.00 1503.00,2136.00
             1503.00,2136.00 1504.00,2136.00 1504.00,2136.00 Z
           M 985.00,2366.00
           C 985.00,2366.00 985.00,2367.00 985.00,2367.00
             985.00,2367.00 984.00,2366.00 984.00,2366.00
             984.00,2366.00 985.00,2366.00 985.00,2366.00 Z
           M 115.00,3211.00
           C 115.00,3211.00 115.00,3212.00 115.00,3212.00
             115.00,3212.00 114.00,3211.00 114.00,3211.00
             114.00,3211.00 115.00,3211.00 115.00,3211.00 Z" />
</svg>
