<?xml version="1.0" encoding="UTF-8" standalone="no"?>
<!DOCTYPE svg PUBLIC "-//W3C//DTD SVG 20010904//EN"
              "http://www.w3.org/TR/2001/REC-SVG-20010904/DTD/svg10.dtd">

<svg xmlns="http://www.w3.org/2000/svg"
     width="11.43in" height="15.5533in"
     viewBox="0 0 3429 4666">
  <path id="face"
        fill="none" stroke="black" stroke-width="1"
        d="M 1759.00,298.83
           C 1750.62,296.96 1747.58,298.65 1740.00,298.83
             1740.00,298.83 1734.00,298.29 1734.00,298.29
             1734.00,298.29 1728.00,299.26 1728.00,299.26
             1728.00,299.26 1720.00,299.26 1720.00,299.26
             1720.00,299.26 1694.00,302.72 1694.00,302.72
             1694.00,302.72 1667.00,306.38 1667.00,306.38
             1667.00,306.38 1660.00,308.07 1660.00,308.07
             1660.00,308.07 1653.00,308.84 1653.00,308.84
             1653.00,308.84 1645.76,311.37 1645.76,311.37
             1645.76,311.37 1639.48,311.37 1639.48,311.37
             1639.48,311.37 1634.00,314.05 1634.00,314.05
             1634.00,314.05 1628.00,314.05 1628.00,314.05
             1628.00,314.05 1618.80,316.45 1618.80,316.45
             1615.94,317.22 1615.04,318.91 1611.96,319.69
             1611.96,319.69 1607.00,320.38 1607.00,320.38
             1607.00,320.38 1598.00,323.24 1598.00,323.24
             1598.00,323.24 1591.28,324.43 1591.28,324.43
             1591.28,324.43 1581.83,328.52 1581.83,328.52
             1578.98,329.34 1576.57,329.02 1571.00,331.10
             1571.00,331.10 1563.42,335.01 1563.42,335.01
             1563.42,335.01 1554.00,337.46 1554.00,337.46
             1554.00,337.46 1548.42,340.12 1548.42,340.12
             1537.53,344.94 1526.25,348.77 1516.00,354.92
             1507.25,360.16 1504.59,360.50 1496.28,364.30
             1487.15,368.47 1475.46,375.40 1467.85,381.90
             1467.85,381.90 1457.02,389.56 1457.02,389.56
             1456.15,390.75 1456.23,391.68 1456.00,393.00
             1456.00,393.00 1445.00,396.00 1445.00,396.00
             1443.97,399.22 1441.95,399.06 1439.44,401.13
             1439.44,401.13 1431.91,408.73 1431.91,408.73
             1428.06,412.04 1425.73,411.09 1424.00,416.00
             1417.63,417.03 1414.20,421.59 1409.80,425.64
             1405.92,429.21 1403.56,429.94 1401.00,435.00
             1401.00,435.00 1399.00,434.00 1399.00,434.00
             1399.00,434.00 1378.96,453.65 1378.96,453.65
             1378.96,453.65 1371.75,459.47 1371.75,459.47
             1371.75,459.47 1363.22,471.24 1363.22,471.24
             1363.22,471.24 1357.38,475.90 1357.38,475.90
             1355.38,477.71 1354.94,479.00 1353.37,480.89
             1349.35,485.74 1348.21,483.82 1347.00,491.00
             1343.83,491.82 1340.62,496.15 1339.00,499.00
             1333.21,498.23 1335.88,500.44 1330.73,508.00
             1325.78,515.25 1318.55,524.58 1311.00,529.00
             1311.00,529.00 1312.00,531.00 1312.00,531.00
             1306.66,533.67 1307.08,538.09 1304.47,542.99
             1302.58,546.53 1301.04,547.28 1298.91,550.17
             1298.91,550.17 1295.42,555.96 1295.42,555.96
             1293.08,559.69 1291.83,560.14 1289.54,563.09
             1289.54,563.09 1284.09,571.96 1284.09,571.96
             1284.09,571.96 1278.56,578.80 1278.56,578.80
             1275.87,582.94 1275.68,587.70 1271.63,594.00
             1271.63,594.00 1260.18,610.25 1260.18,610.25
             1260.18,610.25 1256.80,618.00 1256.80,618.00
             1254.08,624.72 1252.99,625.49 1249.82,631.28
             1249.82,631.28 1243.26,646.00 1243.26,646.00
             1241.86,649.25 1240.46,654.77 1237.00,656.00
             1237.00,656.00 1238.00,659.00 1238.00,659.00
             1234.42,661.86 1234.51,666.86 1232.83,671.00
             1230.13,677.65 1226.15,683.03 1221.00,688.00
             1221.00,688.00 1222.00,694.00 1222.00,694.00
             1214.37,695.78 1218.13,701.88 1212.00,705.00
             1212.00,705.00 1209.00,711.00 1209.00,711.00
             1209.00,711.00 1210.00,714.00 1210.00,714.00
             1207.61,716.08 1208.16,717.19 1206.42,719.58
             1206.42,719.58 1201.99,725.01 1201.99,725.01
             1201.99,725.01 1192.58,743.00 1192.58,743.00
             1189.59,747.70 1189.65,750.24 1184.00,752.00
             1184.00,752.00 1183.00,758.00 1183.00,758.00
             1178.79,759.05 1179.20,762.59 1177.18,766.00
             1177.18,766.00 1173.00,772.00 1173.00,772.00
             1170.73,775.83 1166.61,785.60 1165.23,790.00
             1165.23,790.00 1156.92,811.00 1156.92,811.00
             1156.92,811.00 1151.15,828.00 1151.15,828.00
             1151.15,828.00 1148.43,834.58 1148.43,834.58
             1148.43,834.58 1143.02,867.17 1143.02,867.17
             1143.02,867.17 1139.00,886.00 1139.00,886.00
             1139.00,886.00 1137.00,885.00 1137.00,885.00
             1135.90,889.51 1134.11,899.58 1134.34,904.00
             1134.66,910.39 1132.73,910.62 1130.53,916.04
             1128.35,921.42 1127.12,927.21 1128.00,933.00
             1123.37,935.88 1123.87,940.92 1122.34,946.00
             1122.34,946.00 1119.49,957.91 1119.49,957.91
             1117.59,963.09 1115.14,964.91 1114.34,973.00
             1114.34,973.00 1115.11,984.00 1115.11,984.00
             1115.11,984.00 1115.11,998.00 1115.11,998.00
             1115.11,998.00 1116.00,1009.00 1116.00,1009.00
             1116.00,1009.00 1114.18,1034.00 1114.18,1034.00
             1114.18,1034.00 1115.00,1047.00 1115.00,1047.00
             1115.00,1047.00 1114.35,1059.00 1114.35,1059.00
             1114.35,1059.00 1114.35,1069.00 1114.35,1069.00
             1114.32,1073.71 1113.61,1078.23 1114.35,1083.00
             1115.10,1090.64 1116.98,1089.09 1117.00,1101.00
             1117.00,1101.00 1118.17,1126.00 1118.17,1126.00
             1118.17,1126.00 1120.13,1141.00 1120.13,1141.00
             1120.13,1141.00 1120.13,1149.83 1120.13,1149.83
             1120.90,1152.70 1122.34,1153.40 1122.86,1157.01
             1122.86,1157.01 1123.43,1166.72 1123.43,1166.72
             1124.46,1170.96 1126.84,1176.54 1127.14,1180.91
             1127.31,1183.35 1126.34,1184.49 1126.13,1187.09
             1126.13,1187.09 1127.55,1205.00 1127.55,1205.00
             1127.55,1205.00 1130.89,1217.00 1130.89,1217.00
             1133.67,1224.18 1135.54,1226.60 1136.00,1235.00
             1136.00,1235.00 1128.00,1235.87 1128.00,1235.87
             1128.00,1235.87 1118.00,1235.87 1118.00,1235.87
             1118.00,1235.87 1108.00,1239.55 1108.00,1239.55
             1104.37,1240.81 1099.69,1241.94 1097.36,1245.25
             1096.19,1246.93 1092.53,1257.85 1092.21,1260.00
             1091.38,1265.54 1093.49,1267.45 1089.00,1272.00
             1090.26,1280.96 1087.51,1289.16 1088.26,1294.00
             1088.26,1294.00 1090.17,1301.00 1090.17,1301.00
             1090.17,1301.00 1092.68,1317.00 1092.68,1317.00
             1092.68,1317.00 1096.85,1333.00 1096.85,1333.00
             1096.85,1333.00 1096.85,1351.00 1096.85,1351.00
             1096.85,1351.00 1097.36,1381.00 1097.36,1381.00
             1097.36,1381.00 1099.71,1393.00 1099.71,1393.00
             1099.71,1393.00 1100.30,1403.00 1100.30,1403.00
             1100.30,1403.00 1103.54,1417.00 1103.54,1417.00
             1103.54,1417.00 1104.58,1425.28 1104.58,1425.28
             1104.58,1425.28 1106.69,1434.00 1106.69,1434.00
             1106.69,1434.00 1110.22,1453.00 1110.22,1453.00
             1110.22,1453.00 1115.49,1474.00 1115.49,1474.00
             1115.49,1474.00 1116.59,1481.00 1116.59,1481.00
             1116.59,1481.00 1120.16,1493.00 1120.16,1493.00
             1120.16,1493.00 1124.33,1517.00 1124.33,1517.00
             1124.33,1517.00 1129.37,1533.00 1129.37,1533.00
             1129.37,1533.00 1130.36,1543.58 1130.36,1543.58
             1130.36,1543.58 1136.22,1566.00 1136.22,1566.00
             1136.22,1566.00 1144.32,1584.00 1144.32,1584.00
             1144.32,1584.00 1151.64,1605.01 1151.64,1605.01
             1151.64,1605.01 1155.52,1613.00 1155.52,1613.00
             1155.52,1613.00 1158.84,1628.00 1158.84,1628.00
             1158.84,1628.00 1161.79,1636.00 1161.79,1636.00
             1161.79,1636.00 1163.58,1644.87 1163.58,1644.87
             1163.58,1644.87 1171.97,1656.00 1171.97,1656.00
             1171.97,1656.00 1177.21,1663.41 1177.21,1663.41
             1182.97,1670.14 1196.89,1680.07 1205.00,1683.53
             1210.96,1686.08 1216.57,1686.92 1223.00,1686.99
             1227.96,1687.04 1233.82,1686.08 1236.88,1691.14
             1238.65,1694.08 1238.02,1698.64 1238.00,1702.00
             1237.93,1713.53 1239.39,1709.77 1240.71,1716.00
             1241.25,1718.57 1240.82,1721.91 1242.03,1724.87
             1243.42,1728.30 1245.71,1728.42 1246.89,1732.05
             1246.89,1732.05 1246.89,1748.00 1246.89,1748.00
             1247.12,1757.87 1249.52,1757.32 1251.53,1762.17
             1251.53,1762.17 1254.01,1772.91 1254.01,1772.91
             1255.86,1777.93 1260.79,1782.38 1260.73,1793.00
             1260.70,1799.03 1264.61,1809.23 1267.59,1814.58
             1272.60,1823.59 1267.84,1830.69 1279.00,1832.00
             1279.68,1847.52 1282.45,1845.55 1285.01,1852.04
             1285.01,1852.04 1286.72,1859.00 1286.72,1859.00
             1286.72,1859.00 1289.91,1868.00 1289.91,1868.00
             1289.91,1868.00 1291.67,1876.91 1291.67,1876.91
             1291.67,1876.91 1298.53,1894.00 1298.53,1894.00
             1298.53,1894.00 1305.31,1905.00 1305.31,1905.00
             1315.50,1920.82 1318.56,1923.89 1330.58,1938.00
             1330.58,1938.00 1357.09,1969.00 1357.09,1969.00
             1357.09,1969.00 1405.00,2016.00 1405.00,2016.00
             1405.00,2016.00 1426.00,2036.71 1426.00,2036.71
             1426.00,2036.71 1448.00,2053.88 1448.00,2053.88
             1448.00,2053.88 1482.00,2079.88 1482.00,2079.88
             1482.00,2079.88 1534.00,2119.42 1534.00,2119.42
             1534.00,2119.42 1570.00,2145.88 1570.00,2145.88
             1570.00,2145.88 1591.00,2160.74 1591.00,2160.74
             1591.00,2160.74 1614.00,2166.87 1614.00,2166.87
             1614.00,2166.87 1661.00,2178.37 1661.00,2178.37
             1661.00,2178.37 1703.00,2188.89 1703.00,2188.89
             1713.12,2191.68 1709.62,2193.98 1722.00,2194.00
             1722.00,2194.00 1781.00,2194.00 1781.00,2194.00
             1781.00,2194.00 1796.00,2193.00 1796.00,2193.00
             1796.00,2193.00 1851.00,2193.00 1851.00,2193.00
             1853.78,2193.00 1856.25,2193.07 1859.00,2192.48
             1859.00,2192.48 1896.00,2178.68 1896.00,2178.68
             1896.00,2178.68 1940.00,2161.68 1940.00,2161.68
             1940.00,2161.68 1980.00,2139.42 1980.00,2139.42
             1980.00,2139.42 2010.00,2122.09 2010.00,2122.09
             2010.00,2122.09 2050.00,2092.37 2050.00,2092.37
             2050.00,2092.37 2074.00,2073.91 2074.00,2073.91
             2074.00,2073.91 2102.17,2043.00 2102.17,2043.00
             2102.17,2043.00 2128.16,2014.00 2128.16,2014.00
             2128.16,2014.00 2142.49,1998.00 2142.49,1998.00
             2142.49,1998.00 2158.02,1976.00 2158.02,1976.00
             2158.02,1976.00 2182.58,1941.00 2182.58,1941.00
             2182.58,1941.00 2212.82,1892.00 2212.82,1892.00
             2215.86,1886.28 2214.46,1884.83 2218.55,1877.58
             2224.26,1867.43 2219.96,1858.70 2230.00,1856.00
             2230.00,1856.00 2230.51,1844.00 2230.51,1844.00
             2230.51,1844.00 2231.79,1838.00 2231.79,1838.00
             2231.79,1838.00 2232.80,1829.01 2232.80,1829.01
             2232.80,1829.01 2238.99,1819.96 2238.99,1819.96
             2238.99,1819.96 2240.58,1810.00 2240.58,1810.00
             2240.58,1810.00 2248.00,1799.00 2248.00,1799.00
             2246.00,1792.65 2249.94,1777.27 2252.75,1771.09
             2252.75,1771.09 2255.67,1765.83 2255.67,1765.83
             2258.00,1760.64 2257.71,1752.55 2258.93,1748.00
             2258.93,1748.00 2265.89,1721.99 2265.89,1721.99
             2265.89,1721.99 2268.34,1714.04 2268.34,1714.04
             2268.34,1714.04 2270.07,1703.00 2270.07,1703.00
             2270.07,1703.00 2271.53,1695.00 2271.53,1695.00
             2272.04,1690.12 2270.96,1684.07 2276.11,1681.17
             2278.57,1679.79 2282.23,1680.00 2285.00,1680.00
             2285.00,1680.00 2293.00,1680.00 2293.00,1680.00
             2305.57,1679.84 2320.18,1670.54 2328.86,1661.90
             2334.62,1656.16 2336.76,1658.30 2337.00,1649.00
             2338.71,1648.86 2340.19,1648.92 2341.74,1647.98
             2344.54,1646.28 2350.06,1635.35 2351.20,1632.00
             2352.83,1627.21 2350.95,1625.03 2356.00,1622.00
             2356.00,1622.00 2362.77,1601.00 2362.77,1601.00
             2362.77,1601.00 2367.02,1592.00 2367.02,1592.00
             2367.02,1592.00 2368.85,1578.00 2368.85,1578.00
             2368.85,1578.00 2372.29,1569.00 2372.29,1569.00
             2372.29,1569.00 2375.92,1551.00 2375.92,1551.00
             2375.92,1551.00 2379.65,1541.00 2379.65,1541.00
             2379.65,1541.00 2382.85,1526.00 2382.85,1526.00
             2382.85,1526.00 2384.34,1514.96 2384.34,1514.96
             2384.34,1514.96 2388.62,1503.00 2388.62,1503.00
             2388.62,1503.00 2391.71,1489.00 2391.71,1489.00
             2391.71,1489.00 2394.67,1479.00 2394.67,1479.00
             2394.67,1479.00 2396.49,1470.00 2396.49,1470.00
             2396.49,1470.00 2399.42,1462.09 2399.42,1462.09
             2399.42,1462.09 2400.35,1453.91 2400.35,1453.91
             2400.35,1453.91 2403.73,1446.01 2403.73,1446.01
             2403.73,1446.01 2407.00,1427.00 2407.00,1427.00
             2407.00,1427.00 2409.00,1428.00 2409.00,1428.00
             2409.00,1428.00 2417.03,1389.09 2417.03,1389.09
             2418.22,1386.10 2419.80,1385.26 2421.00,1382.91
             2421.94,1381.07 2422.12,1378.96 2422.74,1377.00
             2425.93,1366.96 2428.98,1363.23 2429.00,1352.00
             2429.02,1340.97 2429.33,1329.92 2427.56,1319.00
             2427.56,1319.00 2424.41,1305.00 2424.41,1305.00
             2424.41,1305.00 2419.90,1282.17 2419.90,1282.17
             2419.90,1282.17 2417.55,1276.91 2417.55,1276.91
             2416.29,1272.87 2417.67,1264.67 2415.28,1259.17
             2415.28,1259.17 2406.19,1244.27 2406.19,1244.27
             2404.30,1241.90 2402.09,1241.89 2401.00,1239.00
             2394.85,1238.44 2390.46,1233.96 2384.96,1231.85
             2370.77,1225.85 2363.98,1226.16 2350.00,1231.85
             2346.96,1222.85 2348.90,1219.55 2349.00,1211.00
             2349.00,1211.00 2349.00,1185.00 2349.00,1185.00
             2349.00,1185.00 2350.96,1168.00 2350.96,1168.00
             2351.14,1163.37 2350.46,1161.96 2350.18,1158.00
             2350.18,1158.00 2350.95,1138.00 2350.95,1138.00
             2350.95,1138.00 2350.95,1122.00 2350.95,1122.00
             2350.95,1122.00 2350.09,1115.00 2350.09,1115.00
             2350.09,1115.00 2350.96,1104.00 2350.96,1104.00
             2351.29,1095.45 2347.64,1087.45 2347.09,1079.00
             2347.09,1079.00 2348.43,1063.00 2348.43,1063.00
             2348.43,1063.00 2346.59,1044.00 2346.59,1044.00
             2346.59,1044.00 2346.59,1036.00 2346.59,1036.00
             2346.34,1034.02 2341.16,1022.89 2340.17,1013.00
             2338.98,1001.11 2342.39,998.22 2341.85,993.00
             2341.33,987.91 2338.34,987.31 2337.30,982.96
             2337.30,982.96 2334.83,962.00 2334.83,962.00
             2334.83,962.00 2332.59,947.00 2332.59,947.00
             2332.59,947.00 2334.32,927.00 2334.32,927.00
             2334.32,927.00 2335.82,920.00 2335.82,920.00
             2335.82,920.00 2336.71,909.28 2336.71,909.28
             2336.71,909.28 2337.98,901.00 2337.98,901.00
             2337.98,901.00 2337.98,877.00 2337.98,877.00
             2337.98,877.00 2338.66,862.00 2338.66,862.00
             2338.66,862.00 2337.96,852.00 2337.96,852.00
             2337.96,852.00 2337.96,839.00 2337.96,839.00
             2337.96,839.00 2337.00,827.00 2337.00,827.00
             2336.98,812.03 2335.95,819.71 2334.51,810.00
             2334.51,810.00 2333.49,797.28 2333.49,797.28
             2333.49,797.28 2331.71,791.96 2331.71,791.96
             2330.69,788.03 2329.37,774.90 2330.00,771.00
             2330.00,771.00 2327.86,772.00 2327.86,772.00
             2328.42,769.42 2328.31,757.56 2327.86,755.17
             2326.90,751.92 2324.77,751.23 2324.03,747.00
             2323.58,744.41 2324.31,741.75 2322.88,735.00
             2322.88,735.00 2320.41,727.00 2320.41,727.00
             2320.41,727.00 2317.24,712.00 2317.24,712.00
             2317.24,712.00 2314.84,705.00 2314.84,705.00
             2313.00,697.77 2314.65,695.82 2313.15,692.04
             2313.15,692.04 2309.38,685.83 2309.38,685.83
             2309.38,685.83 2305.99,676.00 2305.99,676.00
             2302.58,666.47 2300.47,667.39 2301.00,656.00
             2297.76,652.25 2292.21,638.03 2290.13,632.71
             2290.13,632.71 2282.68,618.00 2282.68,618.00
             2282.68,618.00 2276.87,604.04 2276.87,604.04
             2276.87,604.04 2273.07,597.84 2273.07,597.84
             2271.84,595.23 2271.63,591.94 2268.89,586.99
             2266.34,582.37 2263.99,581.64 2264.00,576.00
             2259.59,573.24 2257.97,566.64 2255.55,562.13
             2255.55,562.13 2251.27,555.96 2251.27,555.96
             2251.27,555.96 2248.65,550.01 2248.65,550.01
             2245.99,544.45 2241.07,539.96 2237.61,534.91
             2234.89,530.93 2235.49,528.78 2234.01,526.37
             2234.01,526.37 2229.90,521.79 2229.90,521.79
             2229.90,521.79 2226.19,516.32 2226.19,516.32
             2226.19,516.32 2220.45,508.98 2220.45,508.98
             2216.36,502.72 2213.76,500.85 2209.55,495.58
             2206.62,491.91 2208.01,490.93 2203.00,489.00
             2202.07,484.98 2199.55,484.55 2196.00,483.00
             2195.58,479.23 2195.29,478.88 2192.00,477.00
             2192.00,477.00 2187.00,468.00 2187.00,468.00
             2187.00,468.00 2186.00,467.00 2186.00,467.00
             2186.00,467.00 2184.00,468.00 2184.00,468.00
             2183.00,462.80 2183.14,459.71 2177.00,461.00
             2177.00,461.00 2175.15,455.22 2175.15,455.22
             2175.15,455.22 2162.00,446.00 2162.00,446.00
             2161.10,438.56 2156.05,438.20 2150.00,436.00
             2150.00,436.00 2149.00,431.00 2149.00,431.00
             2149.00,431.00 2147.00,432.00 2147.00,432.00
             2147.00,432.00 2147.00,428.00 2147.00,428.00
             2141.51,426.55 2134.73,424.02 2133.00,418.00
             2129.71,417.34 2126.66,414.43 2123.91,412.48
             2117.66,408.06 2110.16,401.36 2103.00,399.00
             2102.26,392.66 2097.10,393.70 2091.99,390.28
             2091.99,390.28 2083.04,383.55 2083.04,383.55
             2078.09,380.60 2072.42,373.90 2070.79,372.74
             2070.79,372.74 2057.13,367.42 2057.13,367.42
             2054.00,365.67 2053.58,364.13 2050.89,362.34
             2050.89,362.34 2041.00,358.03 2041.00,358.03
             2041.00,358.03 2031.04,351.65 2031.04,351.65
             2029.45,351.09 2023.97,351.06 2022.00,351.00
             2022.00,351.00 2023.00,348.00 2023.00,348.00
             2018.01,347.80 2015.57,344.23 2011.00,342.07
             2011.00,342.07 1996.00,337.35 1996.00,337.35
             1992.19,335.57 1991.35,334.11 1988.72,332.54
             1985.64,330.71 1978.50,328.66 1975.00,329.00
             1972.91,326.66 1959.67,323.62 1956.00,323.02
             1956.00,323.02 1939.00,319.46 1939.00,319.46
             1939.00,319.46 1933.00,317.12 1933.00,317.12
             1926.64,315.12 1925.16,316.12 1919.00,312.00
             1915.54,313.18 1912.64,311.67 1909.00,310.86
             1909.00,310.86 1895.00,308.15 1895.00,308.15
             1895.00,308.15 1886.00,305.32 1886.00,305.32
             1886.00,305.32 1869.00,303.07 1869.00,303.07
             1869.00,303.07 1860.83,303.07 1860.83,303.07
             1860.83,303.07 1841.00,299.20 1841.00,299.20
             1829.88,297.66 1817.28,297.98 1806.00,298.00
             1806.00,298.00 1773.00,297.14 1773.00,297.14
             1769.00,296.97 1761.75,295.93 1759.00,298.83 Z
           M 1585.00,325.00
           C 1585.00,325.00 1585.00,326.00 1585.00,326.00
             1585.00,326.00 1586.00,325.00 1586.00,325.00
             1586.00,325.00 1585.00,325.00 1585.00,325.00 Z
           M 1570.00,332.00
           C 1570.00,332.00 1570.00,333.00 1570.00,333.00
             1570.00,333.00 1569.00,332.00 1569.00,332.00
             1569.00,332.00 1570.00,332.00 1570.00,332.00 Z
           M 2061.00,371.00
           C 2061.00,371.00 2061.00,372.00 2061.00,372.00
             2061.00,372.00 2060.00,371.00 2060.00,371.00
             2060.00,371.00 2061.00,371.00 2061.00,371.00 Z
           M 2162.00,444.00
           C 2162.00,444.00 2162.00,445.00 2162.00,445.00
             2162.00,445.00 2161.00,444.00 2161.00,444.00
             2161.00,444.00 2162.00,444.00 2162.00,444.00 Z
           M 2179.00,461.00
           C 2179.00,461.00 2179.00,462.00 2179.00,462.00
             2179.00,462.00 2178.00,461.00 2178.00,461.00
             2178.00,461.00 2179.00,461.00 2179.00,461.00 Z
           M 2181.00,462.00
           C 2181.00,462.00 2181.00,463.00 2181.00,463.00
             2181.00,463.00 2180.00,462.00 2180.00,462.00
             2180.00,462.00 2181.00,462.00 2181.00,462.00 Z
           M 2182.00,463.00
           C 2182.00,463.00 2182.00,464.00 2182.00,464.00
             2182.00,464.00 2181.00,463.00 2181.00,463.00
             2181.00,463.00 2182.00,463.00 2182.00,463.00 Z
           M 2186.00,468.00
           C 2186.00,468.00 2186.00,469.00 2186.00,469.00
             2186.00,469.00 2185.00,468.00 2185.00,468.00
             2185.00,468.00 2186.00,468.00 2186.00,468.00 Z
           M 1320.00,524.00
           C 1320.00,524.00 1320.00,525.00 1320.00,525.00
             1320.00,525.00 1319.00,524.00 1319.00,524.00
             1319.00,524.00 1320.00,524.00 1320.00,524.00 Z
           M 1236.00,664.00
           C 1236.00,664.00 1236.00,665.00 1236.00,665.00
             1236.00,665.00 1235.00,664.00 1235.00,664.00
             1235.00,664.00 1236.00,664.00 1236.00,664.00 Z
           M 1134.00,1236.00
           C 1134.00,1236.00 1134.00,1237.00 1134.00,1237.00
             1134.00,1237.00 1133.00,1236.00 1133.00,1236.00
             1133.00,1236.00 1134.00,1236.00 1134.00,1236.00 Z
           M 2408.00,1425.00
           C 2408.00,1425.00 2408.00,1426.00 2408.00,1426.00
             2408.00,1426.00 2407.00,1425.00 2407.00,1425.00
             2407.00,1425.00 2408.00,1425.00 2408.00,1425.00 Z" />
  <path id="profile"
        fill="none" stroke="black" stroke-width="1"
        d="M 1759.00,298.83
           C 1750.62,296.96 1747.58,298.65 1740.00,298.83
             1740.00,298.83 1734.00,298.29 1734.00,298.29
             1734.00,298.29 1728.00,299.26 1728.00,299.26
             1728.00,299.26 1720.00,299.26 1720.00,299.26
             1720.00,299.26 1694.00,302.72 1694.00,302.72
             1694.00,302.72 1667.00,306.38 1667.00,306.38
             1667.00,306.38 1660.00,308.07 1660.00,308.07
             1660.00,308.07 1653.00,308.84 1653.00,308.84
             1653.00,308.84 1645.76,311.37 1645.76,311.37
             1645.76,311.37 1639.48,311.37 1639.48,311.37
             1639.48,311.37 1634.00,314.05 1634.00,314.05
             1634.00,314.05 1628.00,314.05 1628.00,314.05
             1628.00,314.05 1618.80,316.45 1618.80,316.45
             1615.94,317.23 1615.02,318.91 1611.96,319.69
             1611.96,319.69 1607.00,320.38 1607.00,320.38
             1607.00,320.38 1598.00,323.24 1598.00,323.24
             1598.00,323.24 1591.28,324.43 1591.28,324.43
             1591.28,324.43 1581.83,328.52 1581.83,328.52
             1578.98,329.34 1576.57,329.02 1571.00,331.10
             1571.00,331.10 1563.42,335.01 1563.42,335.01
             1563.42,335.01 1554.00,337.46 1554.00,337.46
             1554.00,337.46 1548.42,340.12 1548.42,340.12
             1537.53,344.94 1526.25,348.77 1516.00,354.92
             1507.25,360.16 1504.59,360.50 1496.28,364.30
             1487.15,368.47 1475.46,375.40 1467.85,381.90
             1467.85,381.90 1457.02,389.56 1457.02,389.56
             1456.15,390.75 1456.23,391.68 1456.00,393.00
             1456.00,393.00 1445.00,396.00 1445.00,396.00
             1443.97,399.22 1441.95,399.06 1439.44,401.13
             1439.44,401.13 1431.91,408.73 1431.91,408.73
             1428.06,412.04 1425.73,411.09 1424.00,416.00
             1417.63,417.03 1414.20,421.59 1409.80,425.64
             1405.92,429.21 1403.56,429.94 1401.00,435.00
             1401.00,435.00 1399.00,434.00 1399.00,434.00
             1399.00,434.00 1378.96,453.65 1378.96,453.65
             1378.96,453.65 1371.75,459.47 1371.75,459.47
             1371.75,459.47 1363.22,471.24 1363.22,471.24
             1363.22,471.24 1357.38,475.90 1357.38,475.90
             1355.38,477.71 1354.94,479.00 1353.37,480.89
             1349.35,485.74 1348.21,483.82 1347.00,491.00
             1343.83,491.82 1340.62,496.15 1339.00,499.00
             1333.21,498.23 1335.88,500.44 1330.73,508.00
             1325.78,515.25 1318.55,524.58 1311.00,529.00
             1311.00,529.00 1312.00,531.00 1312.00,531.00
             1306.66,533.67 1307.08,538.09 1304.47,542.99
             1302.58,546.53 1301.04,547.28 1298.91,550.17
             1298.91,550.17 1295.42,555.96 1295.42,555.96
             1293.08,559.69 1291.83,560.14 1289.54,563.09
             1289.54,563.09 1284.09,571.96 1284.09,571.96
             1284.09,571.96 1278.56,578.80 1278.56,578.80
             1275.87,582.94 1275.68,587.70 1271.63,594.00
             1271.63,594.00 1260.18,610.25 1260.18,610.25
             1260.18,610.25 1256.80,618.00 1256.80,618.00
             1254.08,624.72 1252.99,625.49 1249.82,631.28
             1249.82,631.28 1243.26,646.00 1243.26,646.00
             1241.86,649.25 1240.46,654.77 1237.00,656.00
             1237.00,656.00 1238.00,659.00 1238.00,659.00
             1234.42,661.86 1234.51,666.86 1232.83,671.00
             1230.13,677.65 1226.15,683.03 1221.00,688.00
             1221.00,688.00 1222.00,694.00 1222.00,694.00
             1214.37,695.78 1218.13,701.88 1212.00,705.00
             1212.00,705.00 1209.00,711.00 1209.00,711.00
             1209.00,711.00 1210.00,714.00 1210.00,714.00
             1207.61,716.08 1208.16,717.19 1206.42,719.58
             1206.42,719.58 1201.99,725.01 1201.99,725.01
             1201.99,725.01 1192.58,743.00 1192.58,743.00
             1189.59,747.70 1189.65,750.24 1184.00,752.00
             1184.00,752.00 1183.00,758.00 1183.00,758.00
             1178.79,759.05 1179.20,762.59 1177.18,766.00
             1177.18,766.00 1173.00,772.00 1173.00,772.00
             1170.73,775.83 1166.61,785.60 1165.23,790.00
             1165.23,790.00 1156.92,811.00 1156.92,811.00
             1156.92,811.00 1151.15,828.00 1151.15,828.00
             1151.15,828.00 1148.43,834.58 1148.43,834.58
             1148.43,834.58 1143.02,867.17 1143.02,867.17
             1143.02,867.17 1139.00,886.00 1139.00,886.00
             1139.00,886.00 1137.00,885.00 1137.00,885.00
             1135.90,889.51 1134.11,899.58 1134.34,904.00
             1134.66,910.39 1132.73,910.62 1130.53,916.04
             1128.35,921.42 1127.12,927.21 1128.00,933.00
             1123.37,935.88 1123.87,940.92 1122.34,946.00
             1122.34,946.00 1119.49,957.91 1119.49,957.91
             1117.59,963.09 1115.14,964.91 1114.34,973.00
             1114.34,973.00 1115.11,984.00 1115.11,984.00
             1115.11,984.00 1115.11,998.00 1115.11,998.00
             1115.11,998.00 1116.00,1009.00 1116.00,1009.00
             1116.00,1009.00 1114.18,1034.00 1114.18,1034.00
             1114.18,1034.00 1115.00,1047.00 1115.00,1047.00
             1115.00,1047.00 1114.35,1059.00 1114.35,1059.00
             1114.35,1059.00 1114.35,1069.00 1114.35,1069.00
             1114.32,1073.71 1113.61,1078.23 1114.35,1083.00
             1115.10,1090.64 1116.98,1089.09 1117.00,1101.00
             1117.00,1101.00 1118.17,1126.00 1118.17,1126.00
             1118.17,1126.00 1120.13,1141.00 1120.13,1141.00
             1120.13,1141.00 1120.13,1149.83 1120.13,1149.83
             1120.90,1152.70 1122.34,1153.40 1122.86,1157.01
             1122.86,1157.01 1123.43,1166.72 1123.43,1166.72
             1124.46,1170.96 1126.84,1176.54 1127.14,1180.91
             1127.31,1183.35 1126.34,1184.49 1126.13,1187.09
             1126.13,1187.09 1127.55,1205.00 1127.55,1205.00
             1127.55,1205.00 1130.89,1217.00 1130.89,1217.00
             1133.67,1224.18 1135.54,1226.60 1136.00,1235.00
             1136.00,1235.00 1128.00,1235.87 1128.00,1235.87
             1128.00,1235.87 1118.00,1235.87 1118.00,1235.87
             1118.00,1235.87 1108.00,1239.55 1108.00,1239.55
             1104.37,1240.81 1099.69,1241.94 1097.36,1245.25
             1096.19,1246.93 1092.53,1257.85 1092.21,1260.00
             1091.38,1265.54 1093.49,1267.45 1089.00,1272.00
             1090.26,1280.96 1087.51,1289.16 1088.26,1294.00
             1088.26,1294.00 1090.17,1301.00 1090.17,1301.00
             1090.17,1301.00 1092.68,1317.00 1092.68,1317.00
             1092.68,1317.00 1096.85,1333.00 1096.85,1333.00
             1096.85,1333.00 1096.85,1351.00 1096.85,1351.00
             1096.85,1351.00 1097.36,1381.00 1097.36,1381.00
             1097.36,1381.00 1099.71,1393.00 1099.71,1393.00
             1099.71,1393.00 1100.30,1403.00 1100.30,1403.00
             1100.30,1403.00 1103.54,1417.00 1103.54,1417.00
             1103.54,1417.00 1104.58,1425.28 1104.58,1425.28
             1104.58,1425.28 1106.69,1434.00 1106.69,1434.00
             1106.69,1434.00 1110.22,1453.00 1110.22,1453.00
             1110.22,1453.00 1115.49,1474.00 1115.49,1474.00
             1115.49,1474.00 1116.59,1481.00 1116.59,1481.00
             1116.59,1481.00 1120.16,1493.00 1120.16,1493.00
             1120.16,1493.00 1124.33,1517.00 1124.33,1517.00
             1124.33,1517.00 1129.37,1533.00 1129.37,1533.00
             1129.37,1533.00 1130.36,1543.58 1130.36,1543.58
             1130.36,1543.58 1136.22,1566.00 1136.22,1566.00
             1136.22,1566.00 1144.32,1584.00 1144.32,1584.00
             1144.32,1584.00 1151.64,1605.01 1151.64,1605.01
             1151.64,1605.01 1155.52,1613.00 1155.52,1613.00
             1155.52,1613.00 1158.84,1628.00 1158.84,1628.00
             1158.84,1628.00 1161.79,1636.00 1161.79,1636.00
             1161.79,1636.00 1163.58,1644.87 1163.58,1644.87
             1163.58,1644.87 1171.97,1656.00 1171.97,1656.00
             1171.97,1656.00 1177.21,1663.41 1177.21,1663.41
             1182.97,1670.14 1196.89,1680.07 1205.00,1683.53
             1210.96,1686.08 1216.57,1686.92 1223.00,1686.99
             1227.96,1687.04 1233.82,1686.08 1236.88,1691.14
             1238.65,1694.08 1238.02,1698.64 1238.00,1702.00
             1237.93,1713.53 1239.39,1709.77 1240.71,1716.00
             1241.25,1718.57 1240.82,1721.91 1242.03,1724.87
             1243.42,1728.30 1245.71,1728.42 1246.89,1732.05
             1246.89,1732.05 1246.89,1748.00 1246.89,1748.00
             1247.12,1757.87 1249.52,1757.32 1251.53,1762.17
             1251.53,1762.17 1254.01,1772.91 1254.01,1772.91
             1255.86,1777.93 1260.79,1782.38 1260.73,1793.00
             1260.70,1799.03 1264.61,1809.23 1267.59,1814.58
             1272.60,1823.59 1267.84,1830.69 1279.00,1832.00
             1279.17,1835.81 1279.39,1840.37 1280.72,1843.96
             1280.72,1843.96 1285.36,1853.01 1285.36,1853.01
             1285.36,1853.01 1286.72,1859.00 1286.72,1859.00
             1286.72,1859.00 1290.48,1870.00 1290.48,1870.00
             1290.48,1870.00 1292.36,1879.58 1292.36,1879.58
             1292.36,1879.58 1295.38,1886.00 1295.38,1886.00
             1297.10,1890.12 1299.72,1899.16 1300.09,1903.58
             1300.09,1903.58 1297.00,1944.00 1297.00,1944.00
             1297.00,1944.00 1297.92,1962.00 1297.92,1962.00
             1297.92,1962.00 1297.92,1984.00 1297.92,1984.00
             1298.72,1990.65 1300.98,1989.44 1300.74,1999.00
             1300.74,1999.00 1301.96,2021.00 1301.96,2021.00
             1302.24,2028.32 1300.47,2030.14 1300.60,2035.00
             1300.85,2045.14 1303.01,2049.82 1303.10,2054.00
             1303.10,2054.00 1303.10,2060.99 1303.10,2060.99
             1303.10,2060.99 1303.10,2088.00 1303.10,2088.00
             1303.10,2088.00 1304.00,2105.00 1304.00,2105.00
             1304.00,2105.00 1305.00,2155.00 1305.00,2155.00
             1305.00,2155.00 1307.00,2177.00 1307.00,2177.00
             1307.10,2185.94 1309.33,2207.09 1302.57,2213.36
             1297.94,2217.66 1282.80,2221.01 1281.54,2221.96
             1280.29,2222.92 1280.47,2223.29 1280.00,2224.00
             1273.62,2223.49 1270.88,2226.20 1265.00,2227.96
             1265.00,2227.96 1258.00,2229.58 1258.00,2229.58
             1258.00,2229.58 1235.00,2238.00 1235.00,2238.00
             1235.00,2238.00 1233.00,2236.00 1233.00,2236.00
             1233.00,2236.00 1232.00,2237.00 1232.00,2237.00
             1232.00,2237.00 1233.00,2239.00 1233.00,2239.00
             1228.43,2240.39 1223.59,2240.92 1219.21,2242.96
             1215.85,2244.53 1216.10,2245.90 1211.96,2247.60
             1202.24,2251.59 1204.88,2247.77 1195.00,2256.00
             1192.37,2254.04 1189.61,2257.50 1189.00,2260.00
             1179.31,2258.18 1169.67,2266.67 1160.00,2266.00
             1154.34,2273.20 1154.14,2270.46 1149.00,2273.55
             1149.00,2273.55 1132.93,2284.78 1132.93,2284.78
             1129.51,2286.74 1120.34,2291.73 1119.00,2295.00
             1111.98,2294.41 1107.97,2299.75 1102.00,2302.66
             1090.44,2308.30 1079.02,2313.83 1066.00,2315.00
             1066.00,2315.00 1066.00,2318.00 1066.00,2318.00
             1062.14,2318.12 1060.29,2317.64 1060.00,2322.00
             1060.00,2322.00 1056.00,2322.00 1056.00,2322.00
             1056.00,2322.00 1058.00,2321.00 1058.00,2321.00
             1054.31,2320.08 1050.70,2322.26 1047.04,2323.12
             1047.04,2323.12 1031.00,2326.60 1031.00,2326.60
             1024.77,2329.02 1024.35,2331.77 1014.72,2335.24
             1014.72,2335.24 996.05,2340.02 996.05,2340.02
             996.05,2340.02 990.83,2343.02 990.83,2343.02
             984.63,2346.26 977.83,2344.64 974.00,2351.00
             964.91,2350.14 965.92,2354.21 959.00,2356.45
             959.00,2356.45 954.00,2357.82 954.00,2357.82
             950.52,2359.19 948.52,2361.15 944.00,2362.20
             944.00,2362.20 934.01,2363.32 934.01,2363.32
             929.92,2364.46 928.95,2366.39 925.91,2367.45
             925.91,2367.45 918.00,2368.82 918.00,2368.82
             915.41,2369.37 904.18,2373.07 902.77,2374.70
             901.77,2375.84 902.19,2376.20 902.00,2377.00
             888.27,2374.26 885.01,2382.25 880.87,2385.13
             880.87,2385.13 861.00,2397.00 861.00,2397.00
             861.00,2397.00 860.00,2394.00 860.00,2394.00
             853.69,2396.63 851.14,2395.83 846.00,2397.65
             846.00,2397.65 830.00,2404.30 830.00,2404.30
             830.00,2404.30 821.51,2406.81 821.51,2406.81
             818.10,2408.60 816.28,2412.81 811.95,2415.48
             807.31,2418.33 796.45,2422.37 791.08,2423.72
             791.08,2423.72 785.20,2424.50 785.20,2424.50
             778.92,2426.08 781.93,2427.99 768.00,2428.00
             764.58,2434.07 760.80,2431.06 755.00,2432.55
             755.00,2432.55 741.00,2438.56 741.00,2438.56
             734.77,2440.83 733.32,2440.27 728.00,2441.52
             728.00,2441.52 714.77,2445.26 714.77,2445.26
             713.77,2446.11 714.18,2446.43 714.00,2447.00
             714.00,2447.00 698.17,2449.80 698.17,2449.80
             698.17,2449.80 691.96,2452.50 691.96,2452.50
             691.96,2452.50 681.00,2455.78 681.00,2455.78
             681.00,2455.78 670.00,2459.00 670.00,2459.00
             668.93,2461.82 666.28,2461.58 663.58,2462.35
             663.58,2462.35 648.00,2467.90 648.00,2467.90
             638.99,2470.46 633.64,2470.69 625.05,2475.79
             620.13,2478.72 619.83,2481.63 612.99,2484.64
             607.37,2487.11 603.61,2485.98 592.00,2492.00
             592.00,2492.00 593.00,2495.00 593.00,2495.00
             593.00,2495.00 581.00,2497.26 581.00,2497.26
             574.85,2499.47 577.57,2500.87 565.00,2503.00
             565.00,2503.00 566.00,2505.00 566.00,2505.00
             566.00,2505.00 561.00,2504.00 561.00,2504.00
             561.00,2504.00 559.00,2511.00 559.00,2511.00
             550.13,2509.59 544.51,2515.28 537.00,2518.87
             537.00,2518.87 521.04,2524.91 521.04,2524.91
             516.00,2527.45 515.75,2530.68 510.00,2531.00
             508.88,2534.05 499.28,2537.22 496.00,2538.00
             496.00,2538.00 491.00,2545.00 491.00,2545.00
             479.03,2545.00 480.57,2544.87 470.72,2551.55
             466.63,2554.32 464.88,2553.84 464.00,2559.00
             464.00,2559.00 439.00,2569.00 439.00,2569.00
             432.53,2575.61 429.17,2574.94 421.00,2577.00
             421.00,2577.00 422.00,2579.00 422.00,2579.00
             422.00,2579.00 423.00,2579.00 423.00,2579.00
             423.00,2579.00 414.00,2586.00 414.00,2586.00
             407.79,2584.55 405.78,2585.76 400.00,2588.00
             400.00,2588.00 401.00,2591.00 401.00,2591.00
             401.00,2591.00 392.00,2593.00 392.00,2593.00
             392.00,2593.00 363.00,2618.00 363.00,2618.00
             357.23,2618.83 356.51,2621.81 352.39,2625.16
             346.38,2630.03 337.14,2632.97 335.00,2641.00
             335.00,2641.00 332.00,2640.00 332.00,2640.00
             324.55,2649.30 304.88,2659.47 303.00,2671.00
             303.00,2671.00 298.43,2672.13 298.43,2672.13
             298.43,2672.13 288.28,2681.47 288.28,2681.47
             288.28,2681.47 287.00,2687.00 287.00,2687.00
             278.51,2687.80 279.23,2690.21 273.41,2695.22
             273.41,2695.22 266.18,2700.64 266.18,2700.64
             262.13,2704.04 260.69,2707.23 257.38,2710.94
             253.56,2715.24 252.01,2713.92 249.00,2718.00
             249.00,2718.00 247.00,2717.00 247.00,2717.00
             247.00,2717.00 241.84,2723.71 241.84,2723.71
             238.41,2728.41 237.73,2731.29 231.00,2732.00
             231.00,2732.00 229.00,2740.00 229.00,2740.00
             221.72,2740.35 216.02,2749.94 213.00,2756.00
             213.00,2756.00 210.00,2755.00 210.00,2755.00
             205.78,2762.01 192.38,2772.91 185.00,2776.70
             182.17,2778.15 180.07,2780.17 177.00,2781.00
             177.00,2781.00 168.32,2790.22 168.32,2790.22
             168.32,2790.22 163.19,2794.37 163.19,2794.37
             163.19,2794.37 154.71,2802.94 154.71,2802.94
             152.14,2805.22 146.43,2808.73 145.02,2811.18
             144.02,2812.92 144.03,2815.07 143.63,2817.00
             141.25,2828.63 143.39,2825.11 142.98,2835.00
             142.67,2842.56 138.89,2841.74 134.13,2847.44
             128.62,2854.03 125.13,2861.83 120.55,2869.00
             120.55,2869.00 109.00,2885.01 109.00,2885.01
             104.71,2892.30 105.30,2894.37 102.91,2899.96
             100.67,2905.17 98.35,2904.79 99.00,2911.00
             99.00,2911.00 88.00,2929.00 88.00,2929.00
             88.00,2929.00 80.00,2956.00 80.00,2956.00
             73.76,2958.19 73.49,2966.50 71.52,2971.96
             68.74,2979.72 64.29,2978.92 64.00,2992.00
             58.51,2992.94 58.56,2996.30 56.36,3001.00
             56.36,3001.00 46.95,3026.00 46.95,3026.00
             46.95,3026.00 39.46,3044.00 39.46,3044.00
             39.46,3044.00 32.91,3056.00 32.91,3056.00
             32.91,3056.00 31.47,3061.00 31.47,3061.00
             31.47,3061.00 28.48,3068.00 28.48,3068.00
             28.48,3068.00 23.68,3084.00 23.68,3084.00
             23.68,3084.00 17.53,3096.00 17.53,3096.00
             17.53,3096.00 14.90,3104.00 14.90,3104.00
             13.32,3108.05 11.94,3109.13 10.41,3112.17
             10.41,3112.17 5.46,3125.00 5.46,3125.00
             3.65,3129.51 1.83,3130.86 2.00,3136.00
             -0.46,3138.20 0.02,3139.82 0.00,3143.00
             0.00,3143.00 0.00,3161.00 0.00,3161.00
             0.00,3161.00 0.00,3231.00 0.00,3231.00
             0.00,3231.00 0.00,3516.00 0.00,3516.00
             0.00,3516.00 0.00,4666.00 0.00,4666.00
             0.00,4666.00 502.00,4666.00 502.00,4666.00
             512.31,4665.98 514.83,4663.57 524.00,4659.58
             527.55,4658.03 532.51,4656.05 534.74,4652.79
             537.29,4649.07 541.25,4632.04 542.10,4627.00
             542.97,4621.78 542.36,4620.19 544.21,4614.00
             544.21,4614.00 547.24,4605.00 547.24,4605.00
             547.24,4605.00 550.32,4592.00 550.32,4592.00
             550.32,4592.00 553.62,4584.00 553.62,4584.00
             553.62,4584.00 557.26,4567.00 557.26,4567.00
             561.06,4557.98 565.21,4558.94 570.76,4546.00
             570.76,4546.00 576.54,4532.14 576.54,4532.14
             578.06,4529.16 579.46,4529.18 580.89,4525.82
             580.89,4525.82 586.00,4512.00 586.00,4512.00
             586.50,4506.79 588.34,4506.78 590.99,4502.71
             590.99,4502.71 593.56,4498.02 593.56,4498.02
             594.64,4496.21 595.86,4494.29 598.05,4493.74
             600.86,4493.04 602.89,4495.53 609.00,4496.00
             609.00,4496.00 609.78,4503.00 609.78,4503.00
             609.66,4505.54 607.07,4512.08 606.20,4515.00
             606.20,4515.00 603.53,4525.83 603.53,4525.83
             603.53,4525.83 600.83,4531.09 600.83,4531.09
             600.83,4531.09 597.76,4542.00 597.76,4542.00
             597.76,4542.00 596.57,4548.00 596.57,4548.00
             596.57,4548.00 593.48,4558.00 593.48,4558.00
             593.48,4558.00 590.36,4573.00 590.36,4573.00
             590.36,4573.00 587.53,4589.00 587.53,4589.00
             587.53,4589.00 584.47,4597.00 584.47,4597.00
             584.47,4597.00 583.30,4604.00 583.30,4604.00
             583.30,4604.00 580.70,4612.00 580.70,4612.00
             580.70,4612.00 578.76,4622.00 578.76,4622.00
             578.76,4622.00 572.74,4645.00 572.74,4645.00
             572.74,4645.00 571.45,4652.00 571.45,4652.00
             569.58,4658.98 568.10,4656.05 568.00,4666.00
             568.00,4666.00 3429.00,4666.00 3429.00,4666.00
             3429.00,4666.00 3429.00,3255.00 3429.00,3255.00
             3429.00,3255.00 3429.00,2943.00 3429.00,2943.00
             3428.98,2931.73 3426.98,2936.64 3421.72,2929.00
             3421.72,2929.00 3418.24,2922.72 3418.24,2922.72
             3418.24,2922.72 3410.55,2912.58 3410.55,2912.58
             3410.55,2912.58 3406.86,2905.00 3406.86,2905.00
             3401.28,2896.41 3392.15,2887.79 3392.00,2877.00
             3392.00,2877.00 3392.00,2865.00 3392.00,2865.00
             3391.89,2858.33 3387.72,2849.44 3383.28,2844.55
             3383.28,2844.55 3376.02,2838.66 3376.02,2838.66
             3372.46,2834.95 3371.00,2831.18 3365.83,2827.82
             3361.66,2825.11 3358.66,2826.03 3353.09,2822.10
             3346.50,2817.45 3345.51,2815.07 3340.79,2810.90
             3335.81,2806.49 3330.56,2803.32 3325.09,2799.68
             3318.65,2795.37 3317.00,2788.15 3304.00,2783.00
             3304.00,2783.00 3305.00,2781.00 3305.00,2781.00
             3305.00,2781.00 3297.36,2774.46 3297.36,2774.46
             3297.36,2774.46 3292.81,2769.54 3292.81,2769.54
             3285.81,2763.69 3281.61,2765.12 3280.00,2754.00
             3268.61,2750.99 3271.58,2748.97 3263.42,2742.21
             3258.66,2738.26 3253.43,2737.69 3248.00,2728.00
             3248.00,2728.00 3245.00,2729.00 3245.00,2729.00
             3241.26,2722.13 3237.04,2721.38 3232.47,2717.03
             3232.47,2717.03 3223.74,2707.37 3223.74,2707.37
             3223.74,2707.37 3218.17,2703.38 3218.17,2703.38
             3218.17,2703.38 3210.16,2696.45 3210.16,2696.45
             3210.16,2696.45 3200.14,2689.12 3200.14,2689.12
             3200.14,2689.12 3194.74,2683.00 3194.74,2683.00
             3194.74,2683.00 3181.82,2671.96 3181.82,2671.96
             3181.82,2671.96 3177.41,2667.49 3177.41,2667.49
             3174.20,2664.70 3171.70,2665.48 3168.13,2662.59
             3168.13,2662.59 3155.66,2650.03 3155.66,2650.03
             3155.66,2650.03 3133.17,2635.15 3133.17,2635.15
             3129.71,2632.89 3128.76,2630.50 3123.96,2627.58
             3123.96,2627.58 3114.09,2622.87 3114.09,2622.87
             3114.09,2622.87 3099.96,2612.42 3099.96,2612.42
             3096.11,2610.31 3093.01,2611.30 3089.29,2609.15
             3084.92,2606.63 3084.20,2602.63 3079.95,2600.89
             3079.95,2600.89 3073.04,2599.42 3073.04,2599.42
             3071.26,2598.77 3056.50,2589.50 3055.00,2588.00
             3046.91,2587.91 3048.07,2585.00 3042.00,2581.79
             3042.00,2581.79 3033.91,2578.73 3033.91,2578.73
             3026.05,2574.92 3027.37,2574.57 3021.83,2571.04
             3018.46,2568.88 3015.71,2568.65 3013.80,2567.60
             3011.20,2566.17 3007.50,2561.94 2999.56,2558.61
             2999.56,2558.61 2990.17,2555.70 2990.17,2555.70
             2990.17,2555.70 2982.99,2550.53 2982.99,2550.53
             2978.13,2547.74 2975.27,2548.45 2972.09,2547.31
             2967.52,2545.67 2968.95,2544.26 2961.00,2543.00
             2961.00,2543.00 2963.00,2541.00 2963.00,2541.00
             2963.00,2541.00 2944.00,2535.00 2944.00,2535.00
             2942.30,2527.12 2939.33,2528.96 2933.01,2526.25
             2933.01,2526.25 2925.83,2522.86 2925.83,2522.86
             2925.83,2522.86 2916.00,2519.45 2916.00,2519.45
             2908.14,2515.92 2905.28,2512.23 2896.00,2512.00
             2894.27,2502.08 2883.64,2508.08 2876.73,2502.43
             2874.45,2500.57 2872.56,2497.95 2869.83,2496.72
             2867.56,2495.71 2864.82,2495.96 2861.00,2494.17
             2858.08,2492.80 2856.56,2491.34 2853.00,2490.11
             2853.00,2490.11 2843.00,2487.92 2843.00,2487.92
             2843.00,2487.92 2827.83,2479.17 2827.83,2479.17
             2827.83,2479.17 2817.28,2474.48 2817.28,2474.48
             2817.28,2474.48 2808.00,2468.05 2808.00,2468.05
             2808.00,2468.05 2795.09,2463.40 2795.09,2463.40
             2795.09,2463.40 2785.28,2456.58 2785.28,2456.58
             2781.40,2454.45 2780.00,2455.86 2776.00,2453.89
             2776.00,2453.89 2769.28,2449.56 2769.28,2449.56
             2769.28,2449.56 2760.09,2445.74 2760.09,2445.74
             2760.09,2445.74 2754.83,2442.54 2754.83,2442.54
             2754.83,2442.54 2750.00,2440.96 2750.00,2440.96
             2750.00,2440.96 2742.00,2437.03 2742.00,2437.03
             2742.00,2437.03 2712.00,2423.83 2712.00,2423.83
             2712.00,2423.83 2700.09,2416.40 2700.09,2416.40
             2696.74,2413.77 2695.13,2410.97 2691.00,2408.77
             2686.70,2406.47 2684.21,2407.48 2680.00,2406.39
             2677.22,2405.68 2666.75,2401.12 2664.00,2399.68
             2664.00,2399.68 2649.00,2391.63 2649.00,2391.63
             2649.00,2391.63 2639.00,2384.72 2639.00,2384.72
             2639.00,2384.72 2631.00,2380.49 2631.00,2380.49
             2631.00,2380.49 2624.00,2376.12 2624.00,2376.12
             2624.00,2376.12 2609.00,2371.34 2609.00,2371.34
             2609.00,2371.34 2598.00,2365.63 2598.00,2365.63
             2598.00,2365.63 2589.00,2361.88 2589.00,2361.88
             2589.00,2361.88 2581.00,2357.96 2581.00,2357.96
             2581.00,2357.96 2571.00,2355.95 2571.00,2355.95
             2571.00,2355.95 2559.91,2351.94 2559.91,2351.94
             2559.91,2351.94 2552.00,2349.77 2552.00,2349.77
             2542.67,2346.57 2545.72,2344.92 2539.95,2342.06
             2539.95,2342.06 2529.00,2338.34 2529.00,2338.34
             2529.00,2338.34 2516.00,2331.76 2516.00,2331.76
             2516.00,2331.76 2509.61,2329.87 2509.61,2329.87
             2509.61,2329.87 2501.96,2325.33 2501.96,2325.33
             2496.54,2323.11 2493.07,2324.11 2490.00,2323.21
             2485.33,2321.83 2486.93,2320.54 2480.00,2320.00
             2478.41,2315.59 2476.91,2316.67 2473.04,2315.14
             2473.04,2315.14 2467.72,2312.41 2467.72,2312.41
             2467.72,2312.41 2459.00,2309.34 2459.00,2309.34
             2455.29,2308.05 2448.39,2305.44 2445.09,2303.61
             2442.31,2302.06 2441.24,2300.66 2437.96,2299.28
             2437.96,2299.28 2423.00,2294.84 2423.00,2294.84
             2423.00,2294.84 2415.00,2290.88 2415.00,2290.88
             2410.71,2288.98 2400.65,2286.86 2396.00,2287.00
             2394.62,2281.70 2386.43,2281.17 2382.00,2279.56
             2382.00,2279.56 2373.00,2276.00 2373.00,2276.00
             2372.61,2268.23 2359.43,2260.91 2353.29,2257.42
             2348.56,2254.74 2344.97,2249.78 2340.72,2248.42
             2340.72,2248.42 2317.00,2248.42 2317.00,2248.42
             2310.82,2247.86 2297.93,2244.32 2292.00,2242.03
             2292.00,2242.03 2285.00,2238.85 2285.00,2238.85
             2285.00,2238.85 2273.00,2234.89 2273.00,2234.89
             2269.71,2234.26 2265.42,2234.55 2264.00,2231.00
             2264.00,2231.00 2255.00,2229.29 2255.00,2229.29
             2246.29,2227.95 2241.54,2228.09 2235.43,2220.74
             2232.55,2217.28 2232.33,2214.22 2230.57,2211.09
             2228.57,2207.56 2227.02,2207.49 2225.52,2202.99
             2225.52,2202.99 2223.19,2192.00 2223.19,2192.00
             2222.15,2189.04 2219.81,2186.01 2218.04,2180.00
             2216.12,2173.46 2218.42,2172.32 2214.00,2169.00
             2215.47,2162.81 2212.79,2158.05 2211.42,2152.00
             2208.48,2138.91 2209.02,2141.19 2209.00,2128.00
             2209.00,2128.00 2208.18,2116.00 2208.18,2116.00
             2208.18,2116.00 2208.92,2108.00 2208.92,2108.00
             2208.92,2108.00 2208.18,2100.00 2208.18,2100.00
             2208.18,2100.00 2208.96,2084.00 2208.96,2084.00
             2208.96,2084.00 2208.08,2072.00 2208.08,2072.00
             2208.08,2072.00 2209.97,2056.00 2209.97,2056.00
             2209.97,2048.63 2207.75,2048.52 2208.01,2037.00
             2208.01,2037.00 2209.13,2020.00 2209.13,2020.00
             2210.00,2012.28 2211.00,2018.96 2211.00,2003.00
             2211.00,2003.00 2213.00,2004.00 2213.00,2004.00
             2213.00,2004.00 2210.57,1982.00 2210.57,1982.00
             2210.57,1982.00 2212.00,1961.00 2212.00,1961.00
             2212.00,1961.00 2211.05,1943.00 2211.05,1943.00
             2211.05,1943.00 2211.05,1932.00 2211.05,1932.00
             2211.05,1932.00 2211.92,1924.00 2211.92,1924.00
             2211.92,1924.00 2211.21,1915.00 2211.21,1915.00
             2211.21,1915.00 2214.36,1892.04 2214.36,1892.04
             2216.13,1879.03 2218.29,1879.58 2222.04,1868.00
             2224.17,1861.44 2221.68,1858.23 2230.00,1856.00
             2230.00,1856.00 2230.51,1844.00 2230.51,1844.00
             2230.51,1844.00 2231.79,1838.00 2231.79,1838.00
             2231.79,1838.00 2232.80,1829.01 2232.80,1829.01
             2232.80,1829.01 2238.99,1819.96 2238.99,1819.96
             2238.99,1819.96 2240.58,1810.00 2240.58,1810.00
             2240.58,1810.00 2248.00,1799.00 2248.00,1799.00
             2246.00,1792.65 2249.94,1777.27 2252.75,1771.09
             2252.75,1771.09 2255.67,1765.83 2255.67,1765.83
             2258.00,1760.64 2257.71,1752.55 2258.93,1748.00
             2258.93,1748.00 2265.89,1721.99 2265.89,1721.99
             2265.89,1721.99 2268.34,1714.04 2268.34,1714.04
             2268.34,1714.04 2270.07,1703.00 2270.07,1703.00
             2270.07,1703.00 2271.53,1695.00 2271.53,1695.00
             2272.04,1690.12 2270.96,1684.07 2276.11,1681.17
             2278.57,1679.79 2282.23,1680.00 2285.00,1680.00
             2285.00,1680.00 2293.00,1680.00 2293.00,1680.00
             2305.57,1679.84 2320.18,1670.54 2328.86,1661.90
             2334.62,1656.16 2336.76,1658.30 2337.00,1649.00
             2338.71,1648.86 2340.19,1648.92 2341.74,1647.98
             2344.54,1646.28 2350.06,1635.35 2351.20,1632.00
             2352.83,1627.21 2350.95,1625.03 2356.00,1622.00
             2356.00,1622.00 2362.77,1601.00 2362.77,1601.00
             2362.77,1601.00 2367.02,1592.00 2367.02,1592.00
             2367.02,1592.00 2368.85,1578.00 2368.85,1578.00
             2368.85,1578.00 2372.29,1569.00 2372.29,1569.00
             2372.29,1569.00 2375.92,1551.00 2375.92,1551.00
             2375.92,1551.00 2379.65,1541.00 2379.65,1541.00
             2379.65,1541.00 2382.85,1526.00 2382.85,1526.00
             2382.85,1526.00 2384.34,1514.96 2384.34,1514.96
             2384.34,1514.96 2388.62,1503.00 2388.62,1503.00
             2388.62,1503.00 2391.71,1489.00 2391.71,1489.00
             2391.71,1489.00 2394.67,1479.00 2394.67,1479.00
             2394.67,1479.00 2396.49,1470.00 2396.49,1470.00
             2396.49,1470.00 2399.42,1462.09 2399.42,1462.09
             2399.42,1462.09 2400.35,1453.91 2400.35,1453.91
             2400.35,1453.91 2403.73,1446.01 2403.73,1446.01
             2403.73,1446.01 2407.00,1427.00 2407.00,1427.00
             2407.00,1427.00 2409.00,1428.00 2409.00,1428.00
             2409.00,1428.00 2417.03,1389.09 2417.03,1389.09
             2418.22,1386.10 2419.80,1385.26 2421.00,1382.91
             2421.94,1381.07 2422.12,1378.96 2422.74,1377.00
             2425.93,1366.96 2428.98,1363.23 2429.00,1352.00
             2429.02,1340.97 2429.33,1329.92 2427.56,1319.00
             2427.56,1319.00 2424.41,1305.00 2424.41,1305.00
             2424.41,1305.00 2419.90,1282.17 2419.90,1282.17
             2419.90,1282.17 2417.55,1276.91 2417.55,1276.91
             2416.29,1272.87 2417.67,1264.67 2415.28,1259.17
             2415.28,1259.17 2406.19,1244.27 2406.19,1244.27
             2404.30,1241.90 2402.09,1241.89 2401.00,1239.00
             2394.85,1238.44 2390.46,1233.96 2384.96,1231.85
             2370.77,1225.85 2363.98,1226.16 2350.00,1231.85
             2346.96,1222.85 2348.90,1219.55 2349.00,1211.00
             2349.00,1211.00 2349.00,1185.00 2349.00,1185.00
             2349.00,1185.00 2350.96,1168.00 2350.96,1168.00
             2351.14,1163.37 2350.46,1161.96 2350.18,1158.00
             2350.18,1158.00 2350.95,1138.00 2350.95,1138.00
             2350.95,1138.00 2350.95,1122.00 2350.95,1122.00
             2350.95,1122.00 2350.09,1115.00 2350.09,1115.00
             2350.09,1115.00 2350.96,1104.00 2350.96,1104.00
             2351.29,1095.45 2347.64,1087.45 2347.09,1079.00
             2347.09,1079.00 2348.43,1063.00 2348.43,1063.00
             2348.43,1063.00 2346.59,1044.00 2346.59,1044.00
             2346.59,1044.00 2346.59,1036.00 2346.59,1036.00
             2346.34,1034.02 2341.16,1022.89 2340.17,1013.00
             2338.98,1001.11 2342.39,998.22 2341.85,993.00
             2341.33,987.91 2338.34,987.31 2337.30,982.96
             2337.30,982.96 2334.83,962.00 2334.83,962.00
             2334.83,962.00 2332.59,947.00 2332.59,947.00
             2332.59,947.00 2334.32,927.00 2334.32,927.00
             2334.32,927.00 2335.82,920.00 2335.82,920.00
             2335.82,920.00 2336.71,909.28 2336.71,909.28
             2336.71,909.28 2337.98,901.00 2337.98,901.00
             2337.98,901.00 2337.98,877.00 2337.98,877.00
             2337.98,877.00 2338.66,862.00 2338.66,862.00
             2338.66,862.00 2337.96,852.00 2337.96,852.00
             2337.96,852.00 2337.96,839.00 2337.96,839.00
             2337.96,839.00 2337.00,827.00 2337.00,827.00
             2336.98,812.03 2335.95,819.71 2334.51,810.00
             2334.51,810.00 2333.49,797.28 2333.49,797.28
             2333.49,797.28 2331.71,791.96 2331.71,791.96
             2330.69,788.03 2329.37,774.90 2330.00,771.00
             2330.00,771.00 2327.86,772.00 2327.86,772.00
             2328.42,769.42 2328.31,757.56 2327.86,755.17
             2326.90,751.92 2324.77,751.23 2324.03,747.00
             2323.58,744.41 2324.31,741.75 2322.88,735.00
             2322.88,735.00 2320.41,727.00 2320.41,727.00
             2320.41,727.00 2317.24,712.00 2317.24,712.00
             2317.24,712.00 2314.84,705.00 2314.84,705.00
             2313.00,697.77 2314.65,695.82 2313.15,692.04
             2313.15,692.04 2309.38,685.83 2309.38,685.83
             2309.38,685.83 2305.99,676.00 2305.99,676.00
             2302.58,666.47 2300.47,667.39 2301.00,656.00
             2297.76,652.25 2292.21,638.03 2290.13,632.71
             2290.13,632.71 2282.68,618.00 2282.68,618.00
             2282.68,618.00 2276.87,604.04 2276.87,604.04
             2276.87,604.04 2273.07,597.84 2273.07,597.84
             2271.84,595.23 2271.63,591.94 2268.89,586.99
             2266.34,582.37 2263.99,581.64 2264.00,576.00
             2259.59,573.24 2257.97,566.64 2255.55,562.13
             2255.55,562.13 2251.27,555.96 2251.27,555.96
             2251.27,555.96 2248.65,550.01 2248.65,550.01
             2245.99,544.45 2241.07,539.96 2237.61,534.91
             2234.89,530.93 2235.49,528.78 2234.01,526.37
             2234.01,526.37 2229.90,521.79 2229.90,521.79
             2229.90,521.79 2226.19,516.32 2226.19,516.32
             2226.19,516.32 2220.45,508.98 2220.45,508.98
             2216.36,502.72 2213.76,500.85 2209.55,495.58
             2206.62,491.91 2208.01,490.93 2203.00,489.00
             2202.07,484.98 2199.55,484.55 2196.00,483.00
             2195.58,479.23 2195.29,478.88 2192.00,477.00
             2192.00,477.00 2187.00,468.00 2187.00,468.00
             2187.00,468.00 2186.00,467.00 2186.00,467.00
             2186.00,467.00 2184.00,468.00 2184.00,468.00
             2183.00,462.80 2183.14,459.71 2177.00,461.00
             2177.00,461.00 2175.15,455.22 2175.15,455.22
             2175.15,455.22 2162.00,446.00 2162.00,446.00
             2161.10,438.56 2156.05,438.20 2150.00,436.00
             2150.00,436.00 2149.00,431.00 2149.00,431.00
             2149.00,431.00 2147.00,432.00 2147.00,432.00
             2147.00,432.00 2147.00,428.00 2147.00,428.00
             2141.51,426.55 2134.73,424.02 2133.00,418.00
             2129.71,417.34 2126.66,414.43 2123.91,412.48
             2117.66,408.06 2110.16,401.36 2103.00,399.00
             2102.26,392.66 2097.10,393.70 2091.99,390.28
             2091.99,390.28 2083.04,383.55 2083.04,383.55
             2078.09,380.60 2072.42,373.90 2070.79,372.74
             2070.79,372.74 2057.13,367.42 2057.13,367.42
             2054.00,365.67 2053.58,364.13 2050.89,362.34
             2050.89,362.34 2041.00,358.03 2041.00,358.03
             2041.00,358.03 2031.04,351.65 2031.04,351.65
             2029.45,351.09 2023.97,351.06 2022.00,351.00
             2022.00,351.00 2023.00,348.00 2023.00,348.00
             2018.01,347.80 2015.57,344.23 2011.00,342.07
             2011.00,342.07 1996.00,337.35 1996.00,337.35
             1992.19,335.57 1991.35,334.11 1988.72,332.54
             1985.64,330.71 1978.50,328.66 1975.00,329.00
             1972.91,326.66 1959.67,323.62 1956.00,323.02
             1956.00,323.02 1939.00,319.46 1939.00,319.46
             1939.00,319.46 1933.00,317.12 1933.00,317.12
             1926.64,315.12 1925.16,316.12 1919.00,312.00
             1915.54,313.18 1912.64,311.67 1909.00,310.86
             1909.00,310.86 1895.00,308.15 1895.00,308.15
             1895.00,308.15 1886.00,305.32 1886.00,305.32
             1886.00,305.32 1869.00,303.07 1869.00,303.07
             1869.00,303.07 1860.83,303.07 1860.83,303.07
             1860.83,303.07 1841.00,299.20 1841.00,299.20
             1829.88,297.66 1817.28,297.98 1806.00,298.00
             1806.00,298.00 1773.00,297.14 1773.00,297.14
             1769.00,296.97 1761.75,295.93 1759.00,298.83 Z
           M 1585.00,325.00
           C 1585.00,325.00 1585.00,326.00 1585.00,326.00
             1585.00,326.00 1586.00,325.00 1586.00,325.00
             1586.00,325.00 1585.00,325.00 1585.00,325.00 Z
           M 1570.00,332.00
           C 1570.00,332.00 1570.00,333.00 1570.00,333.00
             1570.00,333.00 1569.00,332.00 1569.00,332.00
             1569.00,332.00 1570.00,332.00 1570.00,332.00 Z
           M 2061.00,371.00
           C 2061.00,371.00 2061.00,372.00 2061.00,372.00
             2061.00,372.00 2060.00,371.00 2060.00,371.00
             2060.00,371.00 2061.00,371.00 2061.00,371.00 Z
           M 2162.00,444.00
           C 2162.00,444.00 2162.00,445.00 2162.00,445.00
             2162.00,445.00 2161.00,444.00 2161.00,444.00
             2161.00,444.00 2162.00,444.00 2162.00,444.00 Z
           M 2179.00,461.00
           C 2179.00,461.00 2179.00,462.00 2179.00,462.00
             2179.00,462.00 2178.00,461.00 2178.00,461.00
             2178.00,461.00 2179.00,461.00 2179.00,461.00 Z
           M 2181.00,462.00
           C 2181.00,462.00 2181.00,463.00 2181.00,463.00
             2181.00,463.00 2180.00,462.00 2180.00,462.00
             2180.00,462.00 2181.00,462.00 2181.00,462.00 Z
           M 2182.00,463.00
           C 2182.00,463.00 2182.00,464.00 2182.00,464.00
             2182.00,464.00 2181.00,463.00 2181.00,463.00
             2181.00,463.00 2182.00,463.00 2182.00,463.00 Z
           M 2186.00,468.00
           C 2186.00,468.00 2186.00,469.00 2186.00,469.00
             2186.00,469.00 2185.00,468.00 2185.00,468.00
             2185.00,468.00 2186.00,468.00 2186.00,468.00 Z
           M 1320.00,524.00
           C 1320.00,524.00 1320.00,525.00 1320.00,525.00
             1320.00,525.00 1319.00,524.00 1319.00,524.00
             1319.00,524.00 1320.00,524.00 1320.00,524.00 Z
           M 1236.00,664.00
           C 1236.00,664.00 1236.00,665.00 1236.00,665.00
             1236.00,665.00 1235.00,664.00 1235.00,664.00
             1235.00,664.00 1236.00,664.00 1236.00,664.00 Z
           M 1134.00,1236.00
           C 1134.00,1236.00 1134.00,1237.00 1134.00,1237.00
             1134.00,1237.00 1133.00,1236.00 1133.00,1236.00
             1133.00,1236.00 1134.00,1236.00 1134.00,1236.00 Z
           M 2408.00,1425.00
           C 2408.00,1425.00 2408.00,1426.00 2408.00,1426.00
             2408.00,1426.00 2407.00,1425.00 2407.00,1425.00
             2407.00,1425.00 2408.00,1425.00 2408.00,1425.00 Z
           M 1228.00,2241.00
           C 1228.00,2241.00 1228.00,2242.00 1228.00,2242.00
             1228.00,2242.00 1227.00,2241.00 1227.00,2241.00
             1227.00,2241.00 1228.00,2241.00 1228.00,2241.00 Z
           M 1222.00,2243.00
           C 1222.00,2243.00 1222.00,2244.00 1222.00,2244.00
             1222.00,2244.00 1221.00,2243.00 1221.00,2243.00
             1221.00,2243.00 1222.00,2243.00 1222.00,2243.00 Z
           M 1220.00,2244.00
           C 1220.00,2244.00 1220.00,2245.00 1220.00,2245.00
             1220.00,2245.00 1219.00,2244.00 1219.00,2244.00
             1219.00,2244.00 1220.00,2244.00 1220.00,2244.00 Z
           M 1072.00,2315.00
           C 1072.00,2315.00 1072.00,2316.00 1072.00,2316.00
             1072.00,2316.00 1071.00,2315.00 1071.00,2315.00
             1071.00,2315.00 1072.00,2315.00 1072.00,2315.00 Z
           M 668.00,2459.00
           C 668.00,2459.00 668.00,2460.00 668.00,2460.00
             668.00,2460.00 669.00,2459.00 669.00,2459.00
             669.00,2459.00 668.00,2459.00 668.00,2459.00 Z
           M 404.00,2590.00
           C 404.00,2590.00 404.00,2591.00 404.00,2591.00
             404.00,2591.00 403.00,2590.00 403.00,2590.00
             403.00,2590.00 404.00,2590.00 404.00,2590.00 Z
           M 3070.00,2593.00
           C 3070.00,2593.00 3070.00,2594.00 3070.00,2594.00
             3070.00,2594.00 3071.00,2593.00 3071.00,2593.00
             3071.00,2593.00 3070.00,2593.00 3070.00,2593.00 Z
           M 3267.00,2749.00
           C 3267.00,2749.00 3267.00,2750.00 3267.00,2750.00
             3267.00,2750.00 3266.00,2749.00 3266.00,2749.00
             3266.00,2749.00 3267.00,2749.00 3267.00,2749.00 Z" />
</svg>
