<?xml version="1.0" encoding="UTF-8" standalone="no"?>
<!DOCTYPE svg PUBLIC "-//W3C//DTD SVG 20010904//EN"
              "http://www.w3.org/TR/2001/REC-SVG-20010904/DTD/svg10.dtd">

<svg xmlns="http://www.w3.org/2000/svg"
     width="12.81in" height="13.8733in"
     viewBox="0 0 3843 4162">
  <path id="face"
        fill="none" stroke="black" stroke-width="1"
        d="M 1625.00,256.00
           C 1619.30,265.87 1603.11,262.79 1600.00,272.00
             1592.31,272.38 1587.80,275.65 1581.00,278.78
             1581.00,278.78 1569.17,283.78 1569.17,283.78
             1564.20,286.77 1559.51,290.71 1554.00,292.64
             1554.00,292.64 1540.00,297.95 1540.00,297.95
             1540.00,297.95 1531.00,300.02 1531.00,300.02
             1527.41,301.02 1516.41,305.57 1513.04,307.31
             1513.04,307.31 1505.91,311.82 1505.91,311.82
             1505.91,311.82 1498.28,315.60 1498.28,315.60
             1488.13,322.39 1490.95,322.92 1485.81,327.62
             1485.81,327.62 1476.42,333.79 1476.42,333.79
             1476.42,333.79 1469.71,340.18 1469.71,340.18
             1466.50,342.23 1464.18,341.60 1461.00,342.69
             1461.00,342.69 1450.17,348.11 1450.17,348.11
             1450.17,348.11 1435.96,358.13 1435.96,358.13
             1435.96,358.13 1424.42,363.71 1424.42,363.71
             1424.42,363.71 1402.00,378.63 1402.00,378.63
             1397.20,382.21 1395.27,386.14 1391.96,388.42
             1391.96,388.42 1384.42,391.65 1384.42,391.65
             1384.42,391.65 1372.14,400.17 1372.14,400.17
             1372.14,400.17 1361.50,410.26 1361.50,410.26
             1361.50,410.26 1357.68,414.45 1357.68,414.45
             1357.68,414.45 1348.00,420.04 1348.00,420.04
             1348.00,420.04 1336.42,430.15 1336.42,430.15
             1336.42,430.15 1329.78,434.64 1329.78,434.64
             1329.78,434.64 1326.36,439.84 1326.36,439.84
             1322.91,444.28 1319.50,446.11 1315.46,449.40
             1312.36,451.92 1311.19,454.28 1307.00,455.00
             1299.63,465.80 1290.52,468.36 1284.09,474.21
             1284.09,474.21 1261.69,497.28 1261.69,497.28
             1261.69,497.28 1258.40,503.00 1258.40,503.00
             1258.40,503.00 1247.20,520.00 1247.20,520.00
             1244.32,524.09 1239.53,527.29 1237.24,531.29
             1237.24,531.29 1233.85,540.87 1233.85,540.87
             1232.13,543.95 1230.29,543.85 1228.79,548.05
             1227.67,551.16 1227.71,554.27 1225.95,558.00
             1225.95,558.00 1221.64,565.00 1221.64,565.00
             1221.64,565.00 1218.88,571.91 1218.88,571.91
             1218.88,571.91 1215.76,577.17 1215.76,577.17
             1215.76,577.17 1205.56,610.00 1205.56,610.00
             1205.56,610.00 1201.55,619.96 1201.55,619.96
             1201.55,619.96 1199.48,639.00 1199.48,639.00
             1199.48,639.00 1190.32,667.00 1190.32,667.00
             1190.32,667.00 1187.00,693.00 1187.00,693.00
             1187.00,693.00 1178.31,711.00 1178.31,711.00
             1178.31,711.00 1172.79,725.00 1172.79,725.00
             1172.79,725.00 1171.48,729.91 1171.48,729.91
             1170.09,733.44 1167.95,734.18 1166.25,739.00
             1166.25,739.00 1163.38,750.96 1163.38,750.96
             1163.38,750.96 1158.76,765.00 1158.76,765.00
             1158.76,765.00 1155.57,786.00 1155.57,786.00
             1153.70,797.06 1152.02,800.05 1152.00,812.00
             1152.00,812.00 1152.00,837.00 1152.00,837.00
             1152.00,837.00 1154.32,863.00 1154.32,863.00
             1154.32,863.00 1156.54,872.00 1156.54,872.00
             1156.54,872.00 1157.52,880.00 1157.52,880.00
             1157.52,880.00 1160.63,890.00 1160.63,890.00
             1160.63,890.00 1161.33,901.04 1161.33,901.04
             1161.33,901.04 1162.97,908.58 1162.97,908.58
             1162.97,908.58 1160.00,932.00 1160.00,932.00
             1160.00,932.00 1158.03,953.00 1158.03,953.00
             1158.03,953.00 1158.03,975.00 1158.03,975.00
             1157.99,983.42 1156.48,987.18 1158.03,996.00
             1158.98,1000.80 1160.99,1001.84 1162.37,1006.00
             1162.37,1006.00 1166.58,1025.00 1166.58,1025.00
             1166.58,1025.00 1171.18,1047.00 1171.18,1047.00
             1174.84,1058.65 1184.28,1077.15 1184.00,1089.00
             1191.75,1092.67 1190.35,1096.45 1193.64,1103.04
             1196.54,1108.87 1200.74,1114.33 1201.36,1121.00
             1201.36,1121.00 1201.36,1130.00 1201.36,1130.00
             1202.04,1141.31 1205.30,1137.96 1204.00,1156.00
             1204.00,1156.00 1202.00,1152.00 1202.00,1152.00
             1202.00,1152.00 1201.00,1156.00 1201.00,1156.00
             1189.87,1149.32 1188.56,1152.67 1177.00,1152.99
             1172.03,1153.12 1166.42,1152.76 1162.24,1155.97
             1156.83,1160.12 1160.80,1165.51 1153.00,1168.00
             1153.00,1168.00 1152.40,1216.00 1152.40,1216.00
             1152.80,1221.01 1153.78,1221.86 1154.64,1226.00
             1154.64,1226.00 1156.92,1239.58 1156.92,1239.58
             1156.92,1239.58 1160.75,1266.00 1160.75,1266.00
             1160.75,1266.00 1162.76,1288.00 1162.76,1288.00
             1163.19,1291.42 1163.42,1295.05 1167.00,1296.00
             1167.00,1296.00 1169.00,1308.00 1169.00,1308.00
             1169.00,1308.00 1170.00,1308.00 1170.00,1308.00
             1170.00,1308.00 1170.00,1306.00 1170.00,1306.00
             1170.00,1306.00 1175.48,1323.95 1175.48,1323.95
             1175.48,1323.95 1180.95,1332.05 1180.95,1332.05
             1180.95,1332.05 1186.00,1348.00 1186.00,1348.00
             1186.00,1348.00 1188.00,1346.00 1188.00,1346.00
             1188.00,1346.00 1198.02,1363.00 1198.02,1363.00
             1198.02,1363.00 1201.00,1370.55 1201.00,1370.55
             1201.00,1370.55 1205.71,1374.42 1205.71,1374.42
             1205.71,1374.42 1208.00,1385.00 1208.00,1385.00
             1211.52,1386.17 1211.45,1389.69 1212.00,1393.00
             1212.00,1393.00 1215.00,1392.00 1215.00,1392.00
             1216.94,1401.63 1222.89,1413.62 1222.00,1423.00
             1227.16,1428.36 1224.86,1429.68 1225.14,1436.00
             1225.14,1436.00 1226.41,1443.28 1226.41,1443.28
             1226.41,1443.28 1227.00,1456.00 1227.00,1456.00
             1227.00,1456.00 1231.00,1461.00 1231.00,1461.00
             1231.00,1461.00 1229.11,1459.00 1229.11,1459.00
             1229.11,1459.00 1229.11,1458.00 1229.11,1458.00
             1227.76,1463.09 1228.36,1477.80 1229.11,1483.00
             1230.38,1488.55 1232.53,1488.40 1232.00,1495.00
             1232.00,1495.00 1235.00,1496.00 1235.00,1496.00
             1235.00,1496.00 1234.00,1498.00 1234.00,1498.00
             1234.00,1498.00 1233.00,1498.00 1233.00,1498.00
             1233.00,1498.00 1234.00,1501.00 1234.00,1501.00
             1234.00,1501.00 1235.00,1498.00 1235.00,1498.00
             1238.17,1506.68 1237.00,1519.57 1237.00,1529.00
             1232.91,1529.88 1232.18,1533.75 1232.26,1537.49
             1232.37,1542.94 1235.34,1554.20 1237.55,1559.00
             1240.43,1565.26 1242.04,1565.62 1246.56,1569.67
             1248.71,1571.59 1249.23,1573.05 1252.05,1574.70
             1255.22,1576.56 1260.94,1577.10 1263.57,1582.10
             1263.57,1582.10 1268.38,1596.91 1268.38,1596.91
             1268.38,1596.91 1271.44,1603.09 1271.44,1603.09
             1271.44,1603.09 1272.53,1611.00 1272.53,1611.00
             1273.81,1616.70 1280.22,1636.05 1282.77,1641.00
             1288.40,1651.91 1286.42,1659.89 1292.64,1668.83
             1293.89,1670.62 1298.95,1675.28 1296.00,1677.00
             1296.00,1677.00 1302.34,1692.91 1302.34,1692.91
             1302.34,1692.91 1306.38,1701.01 1306.38,1701.01
             1306.38,1701.01 1312.89,1720.29 1312.89,1720.29
             1316.69,1729.36 1321.08,1730.65 1320.00,1742.00
             1328.62,1746.40 1325.94,1748.01 1331.41,1758.00
             1331.41,1758.00 1340.83,1775.00 1340.83,1775.00
             1340.83,1775.00 1345.33,1790.00 1345.33,1790.00
             1347.33,1795.09 1350.60,1798.69 1353.86,1802.99
             1353.86,1802.99 1359.12,1809.28 1359.12,1809.28
             1359.12,1809.28 1364.30,1817.00 1364.30,1817.00
             1364.30,1817.00 1373.83,1827.00 1373.83,1827.00
             1373.83,1827.00 1394.01,1849.00 1394.01,1849.00
             1394.01,1849.00 1411.00,1865.00 1411.00,1865.00
             1411.00,1865.00 1443.00,1896.17 1443.00,1896.17
             1443.00,1896.17 1451.00,1903.62 1451.00,1903.62
             1451.00,1903.62 1479.00,1920.68 1479.00,1920.68
             1479.00,1920.68 1512.00,1931.69 1512.00,1931.69
             1512.00,1931.69 1561.00,1950.76 1561.00,1950.76
             1561.00,1950.76 1574.00,1954.34 1574.00,1954.34
             1574.00,1954.34 1626.00,1974.32 1626.00,1974.32
             1635.68,1976.63 1659.55,1980.95 1669.00,1981.00
             1669.00,1981.00 1720.00,1988.00 1720.00,1988.00
             1720.00,1988.00 1798.00,1988.00 1798.00,1988.00
             1798.00,1988.00 1813.00,1987.00 1813.00,1987.00
             1813.00,1987.00 1834.00,1987.00 1834.00,1987.00
             1845.83,1986.98 1847.66,1984.56 1858.00,1982.45
             1858.00,1982.45 1910.00,1971.42 1910.00,1971.42
             1910.00,1971.42 1951.00,1962.42 1951.00,1962.42
             1951.00,1962.42 1972.00,1957.75 1972.00,1957.75
             1972.00,1957.75 2014.00,1935.78 2014.00,1935.78
             2014.00,1935.78 2074.00,1903.91 2074.00,1903.91
             2074.00,1903.91 2094.00,1889.37 2094.00,1889.37
             2094.00,1889.37 2126.00,1865.91 2126.00,1865.91
             2136.71,1858.38 2155.08,1854.18 2164.00,1848.45
             2164.00,1848.45 2207.00,1814.25 2207.00,1814.25
             2207.00,1814.25 2237.91,1789.39 2237.91,1789.39
             2237.91,1789.39 2252.00,1775.29 2252.00,1775.29
             2252.00,1775.29 2268.91,1761.70 2268.91,1761.70
             2274.59,1756.45 2285.29,1738.60 2290.88,1731.00
             2290.88,1731.00 2313.43,1704.00 2313.43,1704.00
             2313.43,1704.00 2318.79,1692.00 2318.79,1692.00
             2320.41,1688.09 2319.67,1686.69 2320.61,1683.00
             2320.61,1683.00 2327.27,1662.00 2327.27,1662.00
             2328.64,1656.89 2329.16,1651.84 2333.00,1648.00
             2331.66,1642.23 2333.52,1639.64 2334.28,1634.00
             2334.28,1634.00 2335.44,1622.00 2335.44,1622.00
             2337.21,1610.96 2337.98,1618.25 2338.00,1603.00
             2338.01,1594.35 2339.58,1590.86 2340.70,1583.00
             2340.70,1583.00 2341.22,1573.01 2341.22,1573.01
             2341.22,1573.01 2343.75,1565.83 2343.75,1565.83
             2343.75,1565.83 2344.26,1550.00 2344.26,1550.00
             2344.07,1544.77 2344.61,1531.99 2345.67,1527.00
             2345.67,1527.00 2348.49,1514.09 2348.49,1514.09
             2349.04,1509.53 2348.32,1501.63 2350.89,1498.23
             2351.77,1497.06 2352.75,1496.30 2354.09,1495.74
             2356.15,1494.87 2373.04,1493.01 2376.00,1493.00
             2379.15,1492.99 2384.15,1493.28 2387.00,1492.28
             2394.42,1489.67 2396.96,1486.12 2402.17,1481.37
             2412.40,1472.05 2418.76,1466.78 2418.81,1451.75
             2418.83,1444.30 2417.26,1438.93 2420.00,1432.00
             2414.37,1428.22 2419.42,1426.20 2420.79,1419.71
             2420.79,1419.71 2423.95,1407.00 2423.95,1407.00
             2424.98,1401.59 2425.89,1388.56 2425.70,1383.00
             2425.39,1374.43 2427.98,1379.20 2428.00,1368.00
             2428.00,1368.00 2428.00,1332.00 2428.00,1332.00
             2428.02,1320.12 2430.38,1316.25 2431.22,1309.00
             2431.22,1309.00 2431.22,1286.00 2431.22,1286.00
             2431.22,1286.00 2431.22,1257.00 2431.22,1257.00
             2431.22,1257.00 2432.00,1244.00 2432.00,1244.00
             2432.02,1228.80 2432.37,1228.56 2435.55,1214.00
             2436.67,1208.87 2435.63,1204.50 2439.00,1200.00
             2439.00,1200.00 2438.00,1196.00 2438.00,1196.00
             2438.00,1196.00 2440.00,1197.00 2440.00,1197.00
             2440.00,1197.00 2438.00,1195.00 2438.00,1195.00
             2438.00,1195.00 2439.00,1184.00 2439.00,1184.00
             2439.00,1184.00 2439.94,1188.00 2439.94,1188.00
             2442.62,1181.39 2440.09,1168.29 2439.94,1161.00
             2439.94,1161.00 2439.94,1153.00 2439.94,1153.00
             2439.94,1153.00 2439.94,1144.00 2439.94,1144.00
             2440.10,1132.33 2433.91,1113.21 2431.96,1101.00
             2431.96,1101.00 2431.96,1093.00 2431.96,1093.00
             2431.96,1093.00 2429.00,1079.00 2429.00,1079.00
             2429.00,1079.00 2426.00,1078.00 2426.00,1078.00
             2426.00,1078.00 2428.00,1076.00 2428.00,1076.00
             2423.88,1071.12 2420.90,1065.24 2415.58,1061.47
             2413.43,1059.95 2411.47,1059.44 2409.00,1058.66
             2399.61,1055.70 2401.16,1058.38 2395.00,1059.16
             2395.00,1059.16 2383.00,1060.00 2383.00,1060.00
             2383.00,1060.00 2384.00,1063.00 2384.00,1063.00
             2384.00,1063.00 2381.00,1064.00 2381.00,1064.00
             2380.38,1062.31 2379.74,1060.82 2379.60,1059.00
             2379.60,1059.00 2379.60,1045.01 2379.60,1045.01
             2379.60,1045.01 2384.25,1029.00 2384.25,1029.00
             2385.57,1023.08 2385.90,1017.04 2386.00,1011.00
             2386.15,1002.58 2389.39,1004.00 2389.89,989.83
             2389.89,989.83 2389.09,980.00 2389.09,980.00
             2389.09,980.00 2387.50,950.00 2387.50,950.00
             2387.50,950.00 2386.70,934.00 2386.70,934.00
             2386.70,934.00 2384.17,925.00 2384.17,925.00
             2384.17,925.00 2379.88,898.96 2379.88,898.96
             2379.88,898.96 2378.73,882.00 2378.73,882.00
             2378.73,882.00 2376.41,875.00 2376.41,875.00
             2376.41,875.00 2375.54,868.00 2375.54,868.00
             2375.54,868.00 2371.80,852.00 2371.80,852.00
             2371.80,852.00 2369.15,837.00 2369.15,837.00
             2369.15,837.00 2367.52,824.00 2367.52,824.00
             2367.52,824.00 2364.55,815.00 2364.55,815.00
             2364.55,815.00 2362.71,804.00 2362.71,804.00
             2362.71,804.00 2359.93,795.00 2359.93,795.00
             2359.93,795.00 2351.96,760.91 2351.96,760.91
             2351.96,760.91 2343.79,740.00 2343.79,740.00
             2343.79,740.00 2341.39,730.00 2341.39,730.00
             2341.39,730.00 2338.04,722.04 2338.04,722.04
             2338.04,722.04 2333.92,707.99 2333.92,707.99
             2333.29,705.08 2333.69,703.36 2332.44,700.00
             2330.59,695.06 2328.04,694.49 2326.33,689.96
             2326.33,689.96 2319.33,667.00 2319.33,667.00
             2319.33,667.00 2316.32,659.00 2316.32,659.00
             2316.32,659.00 2314.45,652.00 2314.45,652.00
             2314.45,652.00 2311.48,645.00 2311.48,645.00
             2311.48,645.00 2309.54,639.00 2309.54,639.00
             2309.54,639.00 2305.98,632.00 2305.98,632.00
             2305.98,632.00 2303.22,623.17 2303.22,623.17
             2303.22,623.17 2298.23,615.03 2298.23,615.03
             2298.23,615.03 2291.59,593.28 2291.59,593.28
             2291.59,593.28 2286.30,578.00 2286.30,578.00
             2286.30,578.00 2282.59,561.00 2282.59,561.00
             2282.59,561.00 2278.79,552.00 2278.79,552.00
             2275.89,541.97 2279.62,546.71 2273.08,533.83
             2273.08,533.83 2270.51,526.17 2270.51,526.17
             2270.51,526.17 2266.88,519.96 2266.88,519.96
             2265.01,515.11 2267.23,514.35 2262.00,511.00
             2262.00,511.00 2262.00,506.00 2262.00,506.00
             2255.14,500.76 2252.51,488.37 2248.47,480.83
             2244.05,472.58 2238.18,464.50 2232.17,457.32
             2232.17,457.32 2224.82,449.96 2224.82,449.96
             2220.89,445.21 2215.70,435.51 2209.00,435.00
             2206.83,430.71 2197.05,419.71 2192.99,417.02
             2189.42,414.67 2188.56,415.43 2184.00,411.96
             2184.00,411.96 2172.26,402.55 2172.26,402.55
             2172.26,402.55 2166.70,396.58 2166.70,396.58
             2166.70,396.58 2160.09,392.98 2160.09,392.98
             2160.09,392.98 2151.99,386.49 2151.99,386.49
             2151.99,386.49 2145.85,383.70 2145.85,383.70
             2145.85,383.70 2141.59,378.92 2141.59,378.92
             2141.59,378.92 2135.04,375.35 2135.04,375.35
             2135.04,375.35 2128.83,369.60 2128.83,369.60
             2125.57,367.33 2123.50,368.70 2120.46,366.41
             2120.46,366.41 2113.93,359.89 2113.93,359.89
             2113.93,359.89 2105.91,355.52 2105.91,355.52
             2100.10,351.73 2088.81,343.64 2082.00,343.00
             2079.51,336.77 2063.92,331.65 2058.00,328.77
             2058.00,328.77 2044.43,321.65 2044.43,321.65
             2040.91,319.40 2039.06,317.19 2034.96,315.19
             2034.96,315.19 2015.00,305.63 2015.00,305.63
             2015.00,305.63 1999.83,299.00 1999.83,299.00
             1999.83,299.00 1989.00,291.58 1989.00,291.58
             1981.56,287.22 1973.82,284.79 1966.00,281.41
             1966.00,281.41 1958.00,277.67 1958.00,277.67
             1952.24,275.73 1947.46,276.45 1942.00,275.71
             1942.00,275.71 1920.00,270.32 1920.00,270.32
             1920.00,270.32 1912.00,266.76 1912.00,266.76
             1912.00,266.76 1906.00,265.26 1906.00,265.26
             1906.00,265.26 1889.17,258.92 1889.17,258.92
             1889.17,258.92 1874.00,254.75 1874.00,254.75
             1874.00,254.75 1866.00,250.87 1866.00,250.87
             1866.00,250.87 1857.28,249.23 1857.28,249.23
             1857.28,249.23 1846.01,244.41 1846.01,244.41
             1846.01,244.41 1826.00,240.36 1826.00,240.36
             1821.66,238.97 1819.06,235.86 1813.00,233.97
             1813.00,233.97 1789.00,229.54 1789.00,229.54
             1789.00,229.54 1764.00,225.12 1764.00,225.12
             1764.00,225.12 1750.58,225.12 1750.58,225.12
             1750.58,225.12 1739.83,225.12 1739.83,225.12
             1739.83,225.12 1724.00,227.13 1724.00,227.13
             1724.00,227.13 1710.00,227.13 1710.00,227.13
             1710.00,227.13 1701.00,230.01 1701.00,230.01
             1701.00,230.01 1692.00,230.01 1692.00,230.01
             1692.00,230.01 1672.17,235.63 1672.17,235.63
             1672.17,235.63 1664.99,239.73 1664.99,239.73
             1664.99,239.73 1656.17,242.73 1656.17,242.73
             1656.17,242.73 1647.00,247.21 1647.00,247.21
             1647.00,247.21 1641.00,249.00 1641.00,249.00
             1633.59,252.08 1634.66,255.69 1625.00,256.00 Z
           M 1161.00,1285.00
           C 1161.00,1285.00 1161.00,1286.00 1161.00,1286.00
             1161.00,1286.00 1162.00,1285.00 1162.00,1285.00
             1162.00,1285.00 1161.00,1285.00 1161.00,1285.00 Z
           M 1164.00,1287.00
           C 1164.00,1287.00 1164.00,1288.00 1164.00,1288.00
             1164.00,1288.00 1163.00,1287.00 1163.00,1287.00
             1163.00,1287.00 1164.00,1287.00 1164.00,1287.00 Z
           M 1209.00,1380.00
           C 1209.00,1380.00 1209.00,1381.00 1209.00,1381.00
             1209.00,1381.00 1208.00,1380.00 1208.00,1380.00
             1208.00,1380.00 1209.00,1380.00 1209.00,1380.00 Z
           M 1214.00,1391.00
           C 1214.00,1391.00 1214.00,1392.00 1214.00,1392.00
             1214.00,1392.00 1213.00,1391.00 1213.00,1391.00
             1213.00,1391.00 1214.00,1391.00 1214.00,1391.00 Z
           M 1213.00,1395.00
           C 1213.00,1395.00 1213.00,1396.00 1213.00,1396.00
             1213.00,1396.00 1214.00,1395.00 1214.00,1395.00
             1214.00,1395.00 1213.00,1395.00 1213.00,1395.00 Z
           M 1228.00,1447.00
           C 1228.00,1447.00 1228.00,1448.00 1228.00,1448.00
             1228.00,1448.00 1227.00,1447.00 1227.00,1447.00
             1227.00,1447.00 1228.00,1447.00 1228.00,1447.00 Z
           M 1277.00,1630.00
           C 1277.00,1630.00 1277.00,1631.00 1277.00,1631.00
             1277.00,1631.00 1278.00,1630.00 1278.00,1630.00
             1278.00,1630.00 1277.00,1630.00 1277.00,1630.00 Z
           M 1295.00,1674.00
           C 1295.00,1674.00 1295.00,1675.00 1295.00,1675.00
             1295.00,1675.00 1296.00,1674.00 1296.00,1674.00
             1296.00,1674.00 1295.00,1674.00 1295.00,1674.00 Z
           M 1301.00,1694.00
           C 1301.00,1694.00 1301.00,1695.00 1301.00,1695.00
             1301.00,1695.00 1302.00,1694.00 1302.00,1694.00
             1302.00,1694.00 1301.00,1694.00 1301.00,1694.00 Z" />
  <path id="profile"
        fill="none" stroke="black" stroke-width="1"
        d="M 1567.00,287.00
           C 1561.13,287.02 1561.50,289.12 1556.91,291.46
             1556.91,291.46 1541.00,297.53 1541.00,297.53
             1541.00,297.53 1528.00,300.80 1528.00,300.80
             1524.25,302.11 1515.48,305.86 1512.09,307.78
             1512.09,307.78 1504.96,312.19 1504.96,312.19
             1504.96,312.19 1497.42,315.79 1497.42,315.79
             1489.31,321.30 1489.37,324.13 1485.74,327.39
             1479.94,332.61 1474.17,331.87 1471.00,341.00
             1464.55,341.18 1453.65,345.06 1448.42,348.68
             1448.42,348.68 1436.91,357.54 1436.91,357.54
             1436.91,357.54 1424.42,363.63 1424.42,363.63
             1424.42,363.63 1417.00,368.71 1417.00,368.71
             1417.00,368.71 1402.99,377.68 1402.99,377.68
             1402.99,377.68 1390.72,389.02 1390.72,389.02
             1390.72,389.02 1384.42,391.64 1384.42,391.64
             1384.42,391.64 1371.27,400.80 1371.27,400.80
             1371.27,400.80 1357.90,413.71 1357.90,413.71
             1357.90,413.71 1349.00,419.17 1349.00,419.17
             1342.67,423.59 1342.05,425.37 1337.27,429.45
             1337.27,429.45 1330.47,433.99 1330.47,433.99
             1330.47,433.99 1325.62,440.41 1325.62,440.41
             1325.62,440.41 1307.31,455.80 1307.31,455.80
             1307.31,455.80 1301.82,461.31 1301.82,461.31
             1301.82,461.31 1296.59,464.68 1296.59,464.68
             1296.59,464.68 1291.90,469.04 1291.90,469.04
             1291.90,469.04 1285.04,473.39 1285.04,473.39
             1285.04,473.39 1261.63,497.28 1261.63,497.28
             1261.63,497.28 1247.19,519.97 1247.19,519.97
             1247.19,519.97 1237.15,530.37 1237.15,530.37
             1237.15,530.37 1233.37,540.87 1233.37,540.87
             1231.64,544.22 1229.82,544.19 1228.55,548.05
             1227.72,550.60 1227.85,553.98 1225.98,557.83
             1225.98,557.83 1221.87,564.30 1221.87,564.30
             1221.87,564.30 1218.75,571.83 1218.75,571.83
             1218.75,571.83 1215.78,577.09 1215.78,577.09
             1215.78,577.09 1204.76,611.00 1204.76,611.00
             1204.76,611.00 1201.41,620.00 1201.41,620.00
             1201.41,620.00 1199.75,637.00 1199.75,637.00
             1199.75,637.00 1196.46,649.00 1196.46,649.00
             1194.40,656.06 1190.76,662.60 1189.58,670.00
             1189.58,670.00 1186.65,694.12 1186.65,694.12
             1186.65,694.12 1177.67,712.00 1177.67,712.00
             1177.67,712.00 1175.27,718.72 1175.27,718.72
             1173.22,723.73 1171.53,725.14 1172.00,731.00
             1172.00,731.00 1170.00,731.00 1170.00,731.00
             1170.00,731.00 1171.00,733.00 1171.00,733.00
             1165.33,736.21 1165.96,740.27 1164.56,746.00
             1164.56,746.00 1162.41,753.00 1162.41,753.00
             1162.41,753.00 1158.18,766.00 1158.18,766.00
             1158.18,766.00 1155.56,786.00 1155.56,786.00
             1153.81,796.89 1152.02,800.15 1152.00,812.00
             1152.00,812.00 1152.00,841.00 1152.00,841.00
             1152.00,841.00 1154.06,855.00 1154.06,855.00
             1154.06,855.00 1154.06,863.00 1154.06,863.00
             1154.06,863.00 1157.61,881.00 1157.61,881.00
             1157.61,881.00 1160.48,890.00 1160.48,890.00
             1160.48,890.00 1162.58,908.00 1162.58,908.00
             1162.58,908.00 1160.00,931.00 1160.00,931.00
             1159.98,945.28 1158.37,940.92 1157.79,951.00
             1157.79,951.00 1157.79,976.00 1157.79,976.00
             1157.79,976.00 1157.04,987.00 1157.04,987.00
             1156.56,999.47 1160.94,1000.60 1162.70,1008.00
             1162.70,1008.00 1164.69,1019.17 1164.69,1019.17
             1164.69,1019.17 1168.51,1034.00 1168.51,1034.00
             1168.51,1034.00 1170.83,1046.00 1170.83,1046.00
             1170.83,1046.00 1176.91,1063.00 1176.91,1063.00
             1176.91,1063.00 1182.78,1082.00 1182.78,1082.00
             1183.79,1086.03 1183.47,1089.21 1188.00,1090.00
             1188.00,1090.00 1193.37,1103.00 1193.37,1103.00
             1193.37,1103.00 1199.89,1115.09 1199.89,1115.09
             1199.89,1115.09 1201.09,1130.00 1201.09,1130.00
             1201.09,1130.00 1204.00,1155.00 1204.00,1155.00
             1204.00,1155.00 1203.00,1151.00 1203.00,1151.00
             1203.00,1151.00 1201.00,1155.00 1201.00,1155.00
             1192.66,1149.88 1183.25,1152.28 1174.00,1152.91
             1169.71,1153.21 1165.05,1152.36 1161.64,1155.65
             1159.30,1157.90 1158.61,1161.16 1157.22,1163.95
             1155.41,1167.56 1153.69,1167.97 1152.61,1170.24
             1151.76,1172.54 1152.34,1182.06 1152.61,1185.00
             1152.71,1189.17 1151.64,1192.07 1151.32,1196.00
             1151.07,1199.23 1151.70,1200.90 1151.91,1204.00
             1151.91,1204.00 1152.44,1217.00 1152.44,1217.00
             1152.44,1217.00 1154.63,1226.00 1154.63,1226.00
             1154.63,1226.00 1155.43,1235.00 1155.43,1235.00
             1155.43,1235.00 1158.46,1250.00 1158.46,1250.00
             1158.46,1250.00 1158.46,1259.00 1158.46,1259.00
             1158.46,1259.00 1161.44,1274.00 1161.44,1274.00
             1161.44,1274.00 1161.44,1284.28 1161.44,1284.28
             1161.44,1284.28 1165.00,1298.00 1165.00,1298.00
             1165.00,1298.00 1166.00,1298.00 1166.00,1298.00
             1166.00,1298.00 1166.00,1296.00 1166.00,1296.00
             1166.00,1296.00 1169.33,1306.71 1169.33,1306.71
             1169.33,1306.71 1173.14,1313.29 1173.14,1313.29
             1174.16,1316.32 1173.02,1318.92 1175.27,1323.95
             1177.27,1328.41 1178.72,1327.39 1181.18,1333.02
             1184.17,1339.83 1182.80,1341.24 1184.75,1344.89
             1184.75,1344.89 1193.19,1356.00 1193.19,1356.00
             1193.19,1356.00 1198.36,1363.72 1198.36,1363.72
             1200.72,1368.57 1198.73,1372.19 1206.00,1373.00
             1206.00,1373.00 1208.00,1386.00 1208.00,1386.00
             1208.00,1386.00 1210.00,1384.00 1210.00,1384.00
             1210.00,1384.00 1214.00,1398.00 1214.00,1398.00
             1214.00,1398.00 1215.00,1395.00 1215.00,1395.00
             1217.27,1401.68 1220.54,1408.90 1220.00,1416.00
             1220.00,1416.00 1222.00,1416.00 1222.00,1416.00
             1220.92,1422.75 1223.40,1424.16 1226.03,1430.00
             1221.91,1433.67 1225.08,1438.17 1226.03,1442.42
             1226.03,1442.42 1227.66,1457.00 1227.66,1457.00
             1227.66,1457.00 1229.34,1483.00 1229.34,1483.00
             1229.34,1483.00 1233.09,1498.02 1233.09,1498.02
             1235.45,1505.57 1237.13,1501.18 1237.00,1513.00
             1236.91,1520.77 1235.50,1519.47 1237.00,1528.00
             1237.00,1528.00 1236.00,1526.00 1236.00,1526.00
             1229.96,1534.94 1231.72,1543.52 1235.14,1553.00
             1236.26,1556.11 1236.87,1558.73 1238.67,1561.58
             1241.64,1566.26 1243.16,1566.73 1246.55,1570.17
             1246.55,1570.17 1250.24,1573.97 1250.24,1573.97
             1253.75,1576.62 1258.96,1576.42 1262.42,1580.46
             1264.04,1582.35 1267.12,1593.02 1267.96,1595.96
             1269.18,1600.25 1270.45,1600.30 1271.42,1603.09
             1271.42,1603.09 1273.00,1617.00 1273.00,1617.00
             1273.00,1617.00 1274.00,1623.00 1274.00,1623.00
             1274.00,1623.00 1276.00,1622.00 1276.00,1622.00
             1276.00,1622.00 1276.00,1631.00 1276.00,1631.00
             1280.46,1633.50 1282.40,1640.10 1283.00,1645.00
             1285.95,1646.16 1286.12,1651.12 1286.63,1654.00
             1287.66,1659.86 1289.82,1668.90 1296.00,1671.00
             1294.89,1682.39 1301.72,1684.25 1301.00,1695.00
             1306.39,1698.27 1307.68,1705.23 1309.40,1711.00
             1309.40,1711.00 1312.98,1721.00 1312.98,1721.00
             1317.24,1729.86 1320.42,1730.92 1320.00,1742.00
             1328.20,1746.61 1325.97,1747.93 1330.17,1756.00
             1330.17,1756.00 1340.91,1776.00 1340.91,1776.00
             1340.91,1776.00 1346.28,1793.00 1346.28,1793.00
             1348.70,1797.78 1358.13,1807.80 1358.99,1809.32
             1360.78,1812.48 1359.33,1815.66 1361.39,1820.05
             1361.39,1820.05 1369.04,1833.00 1369.04,1833.00
             1369.04,1833.00 1375.78,1853.00 1375.78,1853.00
             1375.78,1853.00 1376.36,1867.09 1376.36,1867.09
             1377.49,1875.56 1378.98,1869.47 1379.00,1885.00
             1379.02,1898.36 1381.37,1898.98 1382.99,1909.00
             1382.99,1909.00 1384.88,1931.00 1384.88,1931.00
             1386.76,1942.53 1388.70,1942.10 1387.00,1955.00
             1387.00,1955.00 1388.00,1952.00 1388.00,1952.00
             1388.00,1952.00 1389.00,1958.00 1389.00,1958.00
             1389.00,1958.00 1390.00,1952.00 1390.00,1952.00
             1390.00,1952.00 1392.66,1973.00 1392.66,1973.00
             1392.66,1973.00 1395.15,1981.00 1395.15,1981.00
             1395.15,1981.00 1395.15,1990.00 1395.15,1990.00
             1395.15,1990.00 1395.15,2004.00 1395.15,2004.00
             1395.15,2004.00 1399.00,2026.00 1399.00,2026.00
             1399.00,2026.00 1396.00,2025.00 1396.00,2025.00
             1396.00,2025.00 1391.42,2033.00 1391.42,2033.00
             1390.12,2035.83 1390.13,2039.02 1387.57,2041.16
             1385.63,2042.79 1378.76,2044.69 1376.00,2045.69
             1356.63,2052.72 1356.48,2051.27 1337.00,2053.17
             1332.35,2053.62 1316.46,2055.60 1319.00,2063.00
             1312.55,2065.21 1305.26,2074.23 1293.00,2077.20
             1290.11,2077.89 1282.98,2078.25 1282.00,2081.00
             1282.00,2081.00 1279.00,2080.00 1279.00,2080.00
             1279.00,2080.00 1268.00,2085.31 1268.00,2085.31
             1268.00,2085.31 1251.96,2092.74 1251.96,2092.74
             1251.96,2092.74 1241.00,2096.23 1241.00,2096.23
             1241.00,2096.23 1222.00,2105.03 1222.00,2105.03
             1222.00,2105.03 1202.17,2110.80 1202.17,2110.80
             1202.17,2110.80 1177.00,2119.00 1177.00,2119.00
             1177.00,2119.00 1171.08,2123.11 1171.08,2123.11
             1159.43,2131.61 1164.78,2126.86 1153.28,2131.38
             1150.08,2132.64 1149.98,2133.59 1145.00,2135.09
             1145.00,2135.09 1130.00,2139.10 1130.00,2139.10
             1122.55,2141.69 1120.88,2144.78 1116.91,2146.54
             1110.01,2149.61 1095.05,2153.88 1091.00,2160.00
             1082.44,2160.34 1083.83,2163.74 1078.87,2167.27
             1078.87,2167.27 1073.17,2169.97 1073.17,2169.97
             1073.17,2169.97 1067.91,2174.07 1067.91,2174.07
             1067.91,2174.07 1061.23,2176.63 1061.23,2176.63
             1061.23,2176.63 1054.95,2180.96 1054.95,2180.96
             1049.24,2183.85 1046.74,2183.59 1043.00,2185.21
             1043.00,2185.21 1029.00,2192.75 1029.00,2192.75
             1029.00,2192.75 1009.00,2202.87 1009.00,2202.87
             1009.00,2202.87 996.00,2210.91 996.00,2210.91
             996.00,2210.91 986.00,2214.14 986.00,2214.14
             986.00,2214.14 973.72,2221.19 973.72,2221.19
             973.72,2221.19 961.04,2223.62 961.04,2223.62
             956.55,2224.64 956.38,2225.82 952.96,2226.74
             952.96,2226.74 933.83,2231.07 933.83,2231.07
             933.83,2231.07 925.00,2235.80 925.00,2235.80
             925.00,2235.80 912.00,2239.91 912.00,2239.91
             912.00,2239.91 900.00,2246.19 900.00,2246.19
             900.00,2246.19 892.00,2247.47 892.00,2247.47
             884.43,2249.29 883.66,2250.72 874.00,2252.00
             874.00,2252.00 876.00,2254.00 876.00,2254.00
             876.00,2254.00 870.00,2255.00 870.00,2255.00
             870.00,2255.00 858.00,2264.00 858.00,2264.00
             846.91,2265.39 849.61,2267.46 843.00,2271.00
             843.00,2271.00 845.00,2269.00 845.00,2269.00
             845.00,2269.00 845.00,2268.00 845.00,2268.00
             845.00,2268.00 824.00,2277.85 824.00,2277.85
             819.85,2279.29 816.05,2280.02 816.00,2285.00
             816.00,2285.00 814.00,2284.00 814.00,2284.00
             814.00,2284.00 814.00,2283.00 814.00,2283.00
             814.00,2283.00 800.45,2290.21 800.45,2290.21
             800.45,2290.21 795.87,2293.93 795.87,2293.93
             795.87,2293.93 784.42,2297.62 784.42,2297.62
             784.42,2297.62 770.96,2306.93 770.96,2306.93
             770.96,2306.93 759.09,2310.24 759.09,2310.24
             759.09,2310.24 752.00,2313.00 752.00,2313.00
             750.20,2319.43 736.77,2324.82 731.00,2327.56
             731.00,2327.56 720.00,2334.65 720.00,2334.65
             720.00,2334.65 700.01,2345.31 700.01,2345.31
             700.01,2345.31 687.00,2355.00 687.00,2355.00
             687.00,2355.00 685.00,2353.00 685.00,2353.00
             684.16,2355.46 675.59,2360.57 673.00,2361.56
             670.78,2362.42 668.33,2362.61 666.00,2363.00
             666.00,2363.00 667.00,2365.00 667.00,2365.00
             661.44,2366.91 662.22,2368.09 658.12,2370.68
             658.12,2370.68 649.00,2375.62 649.00,2375.62
             644.09,2378.05 636.50,2379.31 635.45,2379.88
             632.89,2381.27 632.34,2384.09 628.81,2385.93
             628.81,2385.93 622.00,2388.14 622.00,2388.14
             622.00,2388.14 615.00,2392.16 615.00,2392.16
             615.00,2392.16 609.28,2393.94 609.28,2393.94
             603.27,2396.71 598.53,2404.05 590.00,2404.00
             585.73,2407.55 576.37,2409.37 575.00,2415.00
             575.00,2415.00 561.49,2417.31 561.49,2417.31
             561.49,2417.31 556.78,2422.00 556.78,2422.00
             556.78,2422.00 543.01,2426.82 543.01,2426.82
             543.01,2426.82 527.00,2434.00 527.00,2434.00
             522.34,2437.76 512.36,2441.01 507.09,2443.82
             507.09,2443.82 496.09,2451.79 496.09,2451.79
             492.65,2453.76 491.47,2453.02 487.99,2454.69
             487.99,2454.69 472.87,2464.46 472.87,2464.46
             472.87,2464.46 466.29,2468.09 466.29,2468.09
             459.05,2473.01 460.60,2476.92 453.98,2482.68
             453.98,2482.68 419.14,2505.21 419.14,2505.21
             414.61,2508.47 418.27,2508.67 408.00,2515.42
             397.25,2522.49 397.28,2519.98 390.00,2523.11
             385.84,2524.89 380.16,2529.49 376.01,2532.03
             376.01,2532.03 361.56,2541.49 361.56,2541.49
             359.32,2543.94 359.79,2546.48 358.77,2549.26
             356.93,2554.29 352.27,2571.18 352.00,2576.00
             352.00,2576.00 349.00,2576.00 349.00,2576.00
             348.90,2580.33 347.43,2590.28 345.07,2593.79
             343.30,2596.41 340.75,2597.08 338.21,2599.38
             333.19,2603.92 336.55,2603.41 328.00,2608.00
             327.93,2613.75 327.30,2614.43 324.00,2619.00
             324.00,2619.00 326.00,2619.00 326.00,2619.00
             324.11,2621.26 320.84,2624.86 319.68,2627.46
             319.68,2627.46 314.94,2642.99 314.94,2642.99
             312.54,2647.84 307.44,2651.81 302.76,2664.00
             300.13,2670.86 299.15,2683.38 293.00,2688.00
             293.00,2688.00 293.00,2704.00 293.00,2704.00
             289.94,2705.86 284.94,2713.41 284.10,2716.97
             283.58,2719.16 284.01,2719.31 285.00,2721.00
             285.00,2721.00 277.00,2732.00 277.00,2732.00
             277.00,2732.00 278.00,2735.00 278.00,2735.00
             273.68,2735.96 271.72,2740.93 275.00,2744.00
             275.00,2744.00 271.00,2748.00 271.00,2748.00
             271.00,2748.00 272.00,2744.00 272.00,2744.00
             266.67,2749.39 267.11,2753.06 268.00,2760.00
             268.00,2760.00 267.00,2758.00 267.00,2758.00
             265.04,2763.09 267.67,2764.91 265.95,2771.00
             265.95,2771.00 259.39,2786.99 259.39,2786.99
             256.54,2792.76 254.03,2791.85 256.00,2799.00
             251.41,2802.34 251.69,2807.79 249.91,2812.91
             247.87,2818.78 244.15,2819.20 243.00,2832.00
             243.00,2832.00 240.00,2832.00 240.00,2832.00
             239.50,2840.62 236.76,2838.96 235.31,2846.00
             235.31,2846.00 229.61,2872.00 229.61,2872.00
             228.37,2876.07 226.33,2877.36 224.94,2882.00
             224.94,2882.00 222.95,2892.00 222.95,2892.00
             222.95,2892.00 220.48,2899.00 220.48,2899.00
             220.48,2899.00 219.11,2906.00 219.11,2906.00
             219.11,2906.00 216.29,2916.00 216.29,2916.00
             216.29,2916.00 213.12,2930.00 213.12,2930.00
             213.12,2930.00 208.90,2945.00 208.90,2945.00
             208.90,2945.00 207.60,2952.00 207.60,2952.00
             206.62,2955.80 204.81,2957.49 203.68,2963.00
             203.68,2963.00 199.94,2990.72 199.94,2990.72
             199.94,2990.72 196.43,3000.00 196.43,3000.00
             196.43,3000.00 191.71,3021.00 191.71,3021.00
             191.71,3021.00 187.81,3030.83 187.81,3030.83
             187.81,3030.83 183.75,3052.00 183.75,3052.00
             182.49,3056.06 180.86,3056.34 179.49,3061.01
             179.49,3061.01 175.44,3085.00 175.44,3085.00
             174.39,3088.31 172.39,3089.61 171.19,3094.00
             171.19,3094.00 169.50,3103.00 169.50,3103.00
             169.50,3103.00 165.44,3120.00 165.44,3120.00
             165.44,3120.00 163.66,3132.00 163.66,3132.00
             163.66,3132.00 155.28,3163.00 155.28,3163.00
             153.57,3171.33 150.66,3192.78 146.00,3199.00
             146.00,3199.00 147.00,3204.00 147.00,3204.00
             147.00,3204.00 146.00,3201.00 146.00,3201.00
             144.21,3205.55 145.88,3208.21 144.42,3214.01
             144.42,3214.01 138.67,3234.00 138.67,3234.00
             138.67,3234.00 136.56,3250.00 136.56,3250.00
             136.56,3250.00 131.51,3272.00 131.51,3272.00
             131.51,3272.00 129.33,3288.00 129.33,3288.00
             129.33,3288.00 126.13,3304.00 126.13,3304.00
             123.55,3313.64 120.19,3314.57 124.00,3325.00
             124.00,3325.00 122.00,3325.00 122.00,3325.00
             122.50,3330.56 120.78,3333.69 119.66,3339.00
             119.66,3339.00 116.77,3355.15 116.77,3355.15
             116.77,3355.15 112.21,3367.00 112.21,3367.00
             112.21,3367.00 108.91,3384.00 108.91,3384.00
             105.11,3394.95 106.12,3389.41 104.94,3401.00
             104.56,3403.88 103.03,3405.67 104.94,3408.00
             100.03,3416.35 103.01,3420.37 101.40,3429.00
             101.40,3429.00 95.46,3448.00 95.46,3448.00
             94.83,3451.46 95.13,3461.58 92.00,3463.00
             92.00,3463.00 91.00,3472.00 91.00,3472.00
             90.22,3472.20 90.01,3471.76 88.88,3472.77
             86.55,3474.84 83.52,3490.31 83.00,3494.00
             83.00,3494.00 87.00,3487.00 87.00,3487.00
             87.19,3493.76 81.21,3501.45 80.25,3506.17
             80.25,3506.17 77.96,3531.00 77.96,3531.00
             77.96,3531.00 75.05,3540.00 75.05,3540.00
             75.05,3540.00 70.04,3561.00 70.04,3561.00
             70.04,3561.00 68.24,3571.00 68.24,3571.00
             68.24,3571.00 64.96,3581.00 64.96,3581.00
             64.96,3581.00 63.93,3591.00 63.93,3591.00
             63.25,3594.29 61.22,3597.87 60.29,3605.00
             60.29,3605.00 56.67,3635.96 56.67,3635.96
             56.67,3635.96 53.68,3643.09 53.68,3643.09
             53.68,3643.09 47.53,3668.00 47.53,3668.00
             47.53,3668.00 41.51,3691.00 41.51,3691.00
             41.51,3691.00 38.40,3711.00 38.40,3711.00
             38.40,3711.00 34.68,3724.96 34.68,3724.96
             34.68,3724.96 32.52,3730.25 32.52,3730.25
             31.92,3732.46 32.55,3734.85 31.29,3739.00
             29.94,3743.50 28.14,3744.02 26.76,3749.01
             25.16,3754.81 25.96,3757.73 25.63,3763.00
             24.65,3778.58 15.12,3808.92 14.20,3815.00
             13.78,3820.22 9.65,3828.10 14.20,3832.00
             14.20,3832.00 10.00,3843.00 10.00,3843.00
             10.00,3843.00 9.33,3849.00 9.33,3849.00
             6.78,3862.82 5.02,3867.57 5.00,3882.00
             5.00,3882.00 4.00,3899.00 4.00,3899.00
             4.00,3899.00 4.00,3915.00 4.00,3915.00
             4.00,3915.00 2.00,3915.00 2.00,3915.00
             2.00,3915.00 1.00,3912.00 1.00,3912.00
             1.00,3912.00 0.00,3936.00 0.00,3936.00
             0.00,3936.00 0.00,3987.00 0.00,3987.00
             0.00,3987.00 0.00,4162.00 0.00,4162.00
             0.00,4162.00 3843.00,4162.00 3843.00,4162.00
             3843.00,4162.00 3843.00,3587.00 3843.00,3587.00
             3843.00,3587.00 3843.00,3395.00 3843.00,3395.00
             3843.00,3395.00 3843.00,3299.00 3843.00,3299.00
             3842.82,3284.47 3829.77,3262.27 3830.00,3249.00
             3830.00,3249.00 3826.00,3249.00 3826.00,3249.00
             3828.16,3239.88 3820.07,3226.59 3816.76,3218.00
             3812.83,3207.83 3814.11,3203.01 3812.10,3195.00
             3810.72,3189.51 3808.53,3186.93 3806.66,3182.00
             3804.40,3176.03 3805.54,3173.93 3804.32,3170.00
             3804.32,3170.00 3800.52,3161.00 3800.52,3161.00
             3800.52,3161.00 3792.90,3136.00 3792.90,3136.00
             3792.90,3136.00 3791.25,3129.00 3791.25,3129.00
             3791.25,3129.00 3788.61,3122.00 3788.61,3122.00
             3788.61,3122.00 3786.87,3113.00 3786.87,3113.00
             3786.87,3113.00 3783.09,3105.00 3783.09,3105.00
             3783.09,3105.00 3779.22,3093.00 3779.22,3093.00
             3779.22,3093.00 3776.32,3086.00 3776.32,3086.00
             3776.32,3086.00 3773.24,3073.00 3773.24,3073.00
             3773.24,3073.00 3768.39,3061.83 3768.39,3061.83
             3768.39,3061.83 3764.91,3050.00 3764.91,3050.00
             3764.91,3050.00 3756.14,3027.00 3756.14,3027.00
             3753.28,3019.04 3749.41,3015.44 3750.00,3006.00
             3750.00,3006.00 3745.85,3001.91 3745.85,3001.91
             3745.85,3001.91 3739.29,2982.00 3739.29,2982.00
             3739.29,2982.00 3735.25,2973.00 3735.25,2973.00
             3735.25,2973.00 3732.96,2964.00 3732.96,2964.00
             3732.96,2964.00 3725.26,2946.17 3725.26,2946.17
             3725.26,2946.17 3721.31,2930.00 3721.31,2930.00
             3721.31,2930.00 3710.89,2908.00 3710.89,2908.00
             3710.89,2908.00 3708.19,2898.17 3708.19,2898.17
             3708.19,2898.17 3705.31,2890.99 3705.31,2890.99
             3705.31,2890.99 3702.58,2881.28 3702.58,2881.28
             3702.58,2881.28 3700.54,2876.91 3700.54,2876.91
             3700.54,2876.91 3698.52,2869.01 3698.52,2869.01
             3698.52,2869.01 3689.99,2854.00 3689.99,2854.00
             3689.99,2854.00 3680.90,2829.00 3680.90,2829.00
             3680.90,2829.00 3676.66,2815.28 3676.66,2815.28
             3676.66,2815.28 3671.68,2806.00 3671.68,2806.00
             3671.68,2806.00 3668.71,2799.00 3668.71,2799.00
             3668.71,2799.00 3660.13,2784.00 3660.13,2784.00
             3660.13,2784.00 3658.08,2775.00 3658.08,2775.00
             3658.08,2775.00 3650.37,2760.00 3650.37,2760.00
             3650.37,2760.00 3644.47,2746.00 3644.47,2746.00
             3644.47,2746.00 3639.00,2735.00 3639.00,2735.00
             3640.68,2727.66 3635.36,2727.43 3631.84,2721.96
             3631.84,2721.96 3625.13,2706.00 3625.13,2706.00
             3624.93,2704.53 3625.01,2703.46 3625.13,2702.00
             3625.13,2702.00 3623.00,2704.00 3623.00,2704.00
             3619.87,2696.19 3615.94,2691.83 3612.26,2684.91
             3609.38,2679.50 3601.44,2661.61 3601.00,2656.00
             3600.32,2655.59 3599.79,2655.65 3598.72,2654.46
             3596.73,2652.25 3593.83,2643.73 3595.00,2641.00
             3595.00,2641.00 3589.89,2639.00 3589.89,2639.00
             3589.89,2639.00 3589.89,2634.09 3589.89,2634.09
             3589.89,2634.09 3585.82,2626.96 3585.82,2626.96
             3585.82,2626.96 3579.15,2611.46 3579.15,2611.46
             3579.15,2611.46 3579.15,2609.00 3579.15,2609.00
             3579.15,2609.00 3575.00,2608.00 3575.00,2608.00
             3575.76,2601.81 3574.83,2601.39 3572.00,2596.00
             3572.00,2596.00 3569.00,2597.00 3569.00,2597.00
             3569.00,2597.00 3568.00,2586.00 3568.00,2586.00
             3562.33,2583.37 3560.34,2577.32 3556.00,2573.00
             3556.00,2573.00 3553.00,2575.00 3553.00,2575.00
             3551.99,2566.25 3547.58,2566.57 3542.71,2560.82
             3540.08,2557.73 3534.64,2548.07 3533.42,2544.17
             3533.42,2544.17 3532.52,2538.91 3532.52,2538.91
             3531.44,2534.75 3528.04,2528.60 3524.00,2527.00
             3524.44,2520.94 3521.86,2521.37 3517.28,2519.23
             3517.28,2519.23 3510.99,2515.95 3510.99,2515.95
             3506.13,2513.94 3503.99,2514.05 3504.00,2508.00
             3504.00,2508.00 3481.00,2491.30 3481.00,2491.30
             3481.00,2491.30 3472.00,2488.77 3472.00,2488.77
             3472.00,2488.77 3456.00,2480.00 3456.00,2480.00
             3455.42,2473.10 3453.96,2475.34 3449.00,2472.83
             3449.00,2472.83 3444.00,2469.42 3444.00,2469.42
             3444.00,2469.42 3434.09,2463.10 3434.09,2463.10
             3434.09,2463.10 3420.00,2452.19 3420.00,2452.19
             3415.66,2449.26 3410.54,2447.73 3407.00,2444.00
             3404.07,2443.70 3400.86,2442.02 3398.00,2441.02
             3392.76,2439.21 3380.09,2433.19 3376.93,2428.73
             3375.97,2427.37 3375.51,2425.57 3375.00,2424.00
             3368.23,2424.86 3368.85,2422.21 3363.91,2418.88
             3363.91,2418.88 3358.18,2415.37 3358.18,2415.37
             3358.18,2415.37 3352.68,2410.87 3352.68,2410.87
             3352.68,2410.87 3346.37,2407.21 3346.37,2407.21
             3346.37,2407.21 3332.74,2396.24 3332.74,2396.24
             3327.84,2393.05 3318.64,2388.13 3315.00,2384.00
             3315.00,2384.00 3312.00,2385.00 3312.00,2385.00
             3308.33,2376.38 3302.25,2377.95 3294.00,2373.99
             3294.00,2373.99 3264.96,2358.42 3264.96,2358.42
             3264.96,2358.42 3249.48,2350.42 3249.48,2350.42
             3248.33,2349.39 3247.79,2348.26 3247.00,2347.00
             3242.21,2346.67 3241.82,2344.29 3237.83,2342.83
             3237.83,2342.83 3231.17,2341.44 3231.17,2341.44
             3231.17,2341.44 3218.16,2332.59 3218.16,2332.59
             3212.43,2327.56 3210.51,2319.87 3201.00,2322.00
             3196.07,2313.90 3184.62,2308.80 3177.21,2303.05
             3177.21,2303.05 3171.79,2297.69 3171.79,2297.69
             3171.79,2297.69 3159.41,2289.25 3159.41,2289.25
             3159.41,2289.25 3154.15,2287.01 3154.15,2287.01
             3154.15,2287.01 3143.28,2280.39 3143.28,2280.39
             3140.91,2278.67 3139.83,2277.28 3136.99,2275.72
             3136.99,2275.72 3131.01,2273.03 3131.01,2273.03
             3127.24,2270.86 3123.91,2265.96 3118.00,2263.12
             3118.00,2263.12 3108.09,2259.61 3108.09,2259.61
             3108.09,2259.61 3103.00,2256.04 3103.00,2256.04
             3103.00,2256.04 3090.99,2249.16 3090.99,2249.16
             3086.46,2247.16 3080.16,2245.49 3079.00,2240.00
             3075.42,2240.03 3073.18,2239.72 3072.00,2236.00
             3064.13,2236.30 3064.84,2233.96 3058.96,2230.53
             3058.96,2230.53 3045.04,2223.87 3045.04,2223.87
             3045.04,2223.87 3038.63,2218.48 3038.63,2218.48
             3038.63,2218.48 3020.04,2211.20 3020.04,2211.20
             3020.04,2211.20 3010.99,2204.81 3010.99,2204.81
             3007.19,2202.68 3004.71,2203.38 3001.17,2201.74
             2995.65,2199.18 2991.53,2194.89 2983.00,2191.54
             2970.36,2186.58 2954.05,2184.53 2944.00,2175.00
             2944.00,2175.00 2933.00,2171.36 2933.00,2171.36
             2933.00,2171.36 2924.00,2168.00 2924.00,2168.00
             2921.40,2167.73 2921.23,2167.23 2918.91,2166.31
             2914.26,2164.46 2913.77,2165.21 2912.00,2160.00
             2908.33,2161.71 2903.91,2159.55 2900.00,2159.00
             2900.00,2159.00 2901.00,2157.00 2901.00,2157.00
             2886.34,2154.70 2889.19,2154.22 2876.04,2148.33
             2876.04,2148.33 2869.87,2145.04 2869.87,2145.04
             2869.87,2145.04 2843.00,2137.60 2843.00,2137.60
             2843.00,2137.60 2822.00,2124.33 2822.00,2124.33
             2817.09,2122.40 2812.88,2122.57 2809.92,2121.79
             2809.92,2121.79 2798.10,2117.27 2798.10,2117.27
             2795.37,2116.10 2794.59,2114.26 2792.67,2113.39
             2790.89,2112.58 2789.73,2113.33 2786.83,2112.13
             2782.98,2110.54 2780.38,2107.91 2777.00,2105.87
             2773.88,2103.99 2772.11,2104.01 2769.00,2102.59
             2762.12,2099.46 2760.22,2096.68 2752.00,2098.00
             2749.96,2091.76 2742.76,2089.54 2737.00,2087.72
             2737.00,2087.72 2720.00,2082.25 2720.00,2082.25
             2720.00,2082.25 2713.29,2078.55 2713.29,2078.55
             2708.85,2076.28 2708.68,2078.42 2705.00,2074.00
             2696.25,2075.39 2689.06,2070.79 2681.00,2068.39
             2676.11,2066.94 2672.81,2067.56 2667.00,2064.57
             2663.69,2062.86 2661.59,2060.51 2658.00,2059.15
             2658.00,2059.15 2641.00,2053.88 2641.00,2053.88
             2641.00,2053.88 2632.57,2052.81 2632.57,2052.81
             2632.57,2052.81 2626.09,2049.75 2626.09,2049.75
             2626.09,2049.75 2608.00,2043.90 2608.00,2043.90
             2608.00,2043.90 2600.17,2040.69 2600.17,2040.69
             2600.17,2040.69 2585.00,2036.40 2585.00,2036.40
             2585.00,2036.40 2576.00,2032.46 2576.00,2032.46
             2576.00,2032.46 2565.58,2029.64 2565.58,2029.64
             2558.15,2027.08 2552.32,2027.51 2547.00,2026.14
             2543.53,2025.25 2540.30,2023.34 2537.00,2021.95
             2532.87,2020.21 2527.26,2017.66 2526.00,2013.00
             2521.36,2012.29 2514.19,2007.69 2513.00,2003.00
             2508.13,2002.38 2504.23,1999.57 2501.00,1996.00
             2496.32,1996.26 2484.73,1993.86 2481.47,1990.58
             2478.52,1987.62 2478.01,1983.76 2476.55,1980.17
             2476.55,1980.17 2474.50,1975.83 2474.50,1975.83
             2474.50,1975.83 2472.47,1969.00 2472.47,1969.00
             2470.37,1964.11 2463.02,1952.54 2458.70,1949.56
             2455.24,1947.17 2452.87,1948.74 2449.28,1947.03
             2449.28,1947.03 2443.96,1943.82 2443.96,1943.82
             2443.96,1943.82 2434.26,1939.86 2434.26,1939.86
             2431.65,1938.29 2431.06,1935.99 2426.98,1934.65
             2426.98,1934.65 2418.00,1932.98 2418.00,1932.98
             2410.56,1931.01 2402.72,1927.84 2395.00,1928.01
             2395.00,1928.01 2382.00,1929.82 2382.00,1929.82
             2382.00,1929.82 2368.00,1929.00 2368.00,1929.00
             2364.56,1919.19 2352.02,1930.94 2343.09,1927.43
             2339.10,1925.86 2331.66,1918.19 2330.69,1913.96
             2329.45,1907.80 2331.06,1904.37 2330.69,1901.00
             2330.32,1898.74 2326.48,1890.18 2325.29,1881.00
             2325.29,1881.00 2323.00,1850.00 2323.00,1850.00
             2322.81,1833.22 2320.41,1835.25 2319.39,1821.00
             2319.39,1821.00 2319.39,1814.00 2319.39,1814.00
             2319.39,1814.00 2318.58,1808.00 2318.58,1808.00
             2318.58,1808.00 2318.58,1802.00 2318.58,1802.00
             2318.58,1802.00 2317.55,1793.00 2317.55,1793.00
             2317.55,1793.00 2316.34,1788.00 2316.34,1788.00
             2316.34,1788.00 2316.92,1780.00 2316.92,1780.00
             2316.92,1780.00 2315.95,1772.00 2315.95,1772.00
             2315.95,1772.00 2315.95,1757.83 2315.95,1757.83
             2315.40,1750.18 2312.84,1752.09 2312.99,1739.00
             2312.99,1739.00 2312.09,1725.01 2312.09,1725.01
             2312.19,1721.45 2313.28,1720.59 2313.76,1717.83
             2314.36,1714.42 2313.44,1709.96 2315.46,1701.00
             2316.61,1695.91 2318.10,1694.55 2319.24,1691.00
             2319.24,1691.00 2320.90,1682.00 2320.90,1682.00
             2320.90,1682.00 2327.41,1663.00 2327.41,1663.00
             2328.80,1657.56 2329.00,1652.32 2333.00,1648.00
             2331.73,1642.01 2333.06,1642.48 2333.91,1637.00
             2333.91,1637.00 2336.25,1619.00 2336.25,1619.00
             2336.25,1619.00 2337.74,1613.00 2337.74,1613.00
             2337.74,1613.00 2339.16,1593.00 2339.16,1593.00
             2339.16,1593.00 2341.07,1582.00 2341.07,1582.00
             2341.07,1582.00 2341.07,1574.00 2341.07,1574.00
             2341.07,1574.00 2343.76,1565.83 2343.76,1565.83
             2343.76,1565.83 2344.57,1556.00 2344.57,1556.00
             2345.43,1548.84 2342.97,1532.47 2347.00,1527.00
             2347.00,1527.00 2348.91,1511.00 2348.91,1511.00
             2349.23,1506.38 2348.01,1501.49 2351.57,1497.86
             2354.71,1494.67 2357.95,1495.16 2362.00,1494.57
             2362.00,1494.57 2371.00,1493.02 2371.00,1493.02
             2375.74,1493.10 2380.21,1493.65 2385.00,1493.02
             2392.46,1491.43 2396.98,1486.16 2402.17,1481.51
             2406.28,1477.84 2410.88,1474.48 2414.01,1469.83
             2419.98,1460.97 2418.94,1450.53 2418.78,1440.47
             2418.78,1440.47 2419.43,1431.00 2419.43,1431.00
             2419.20,1427.12 2419.30,1426.75 2422.00,1424.00
             2421.06,1414.34 2423.37,1413.31 2424.74,1405.00
             2424.74,1405.00 2426.49,1384.00 2426.49,1384.00
             2426.09,1375.02 2429.12,1377.48 2429.24,1372.91
             2429.24,1372.91 2428.51,1368.00 2428.51,1368.00
             2428.51,1368.00 2429.37,1362.00 2429.37,1362.00
             2429.37,1362.00 2428.23,1355.00 2428.23,1355.00
             2428.23,1355.00 2428.23,1341.00 2428.23,1341.00
             2428.23,1341.00 2429.17,1322.00 2429.17,1322.00
             2429.17,1322.00 2431.23,1310.00 2431.23,1310.00
             2431.23,1310.00 2432.00,1281.00 2432.00,1281.00
             2432.00,1281.00 2432.00,1239.00 2432.00,1239.00
             2432.06,1234.50 2432.25,1229.68 2435.00,1226.00
             2435.00,1226.00 2434.00,1216.00 2434.00,1216.00
             2434.00,1216.00 2435.00,1218.00 2435.00,1218.00
             2435.00,1218.00 2436.43,1208.00 2436.43,1208.00
             2436.43,1208.00 2439.21,1197.00 2439.21,1197.00
             2439.21,1197.00 2439.21,1185.00 2439.21,1185.00
             2439.21,1185.00 2440.00,1190.00 2440.00,1190.00
             2440.00,1190.00 2443.00,1169.00 2443.00,1169.00
             2441.89,1167.81 2441.26,1167.47 2440.59,1165.82
             2439.57,1163.25 2440.01,1148.77 2440.00,1145.00
             2439.98,1134.58 2435.93,1116.82 2433.64,1106.00
             2433.64,1106.00 2432.21,1100.00 2432.21,1100.00
             2431.50,1094.94 2432.90,1084.47 2429.00,1081.00
             2429.00,1081.00 2430.00,1079.00 2430.00,1079.00
             2430.00,1079.00 2428.00,1079.00 2428.00,1079.00
             2427.86,1074.20 2426.17,1072.80 2423.50,1069.00
             2418.84,1062.38 2412.42,1057.54 2404.00,1057.14
             2400.51,1056.97 2398.11,1058.11 2395.00,1058.37
             2387.85,1058.98 2391.19,1057.88 2383.00,1060.00
             2383.00,1060.00 2383.00,1064.00 2383.00,1064.00
             2383.00,1064.00 2379.99,1059.00 2379.99,1059.00
             2379.99,1059.00 2379.99,1044.72 2379.99,1044.72
             2379.99,1044.72 2382.23,1038.00 2382.23,1038.00
             2382.23,1038.00 2386.86,1011.00 2386.86,1011.00
             2386.86,1011.00 2390.00,987.00 2390.00,987.00
             2390.00,987.00 2387.59,956.00 2387.59,956.00
             2387.59,956.00 2386.83,934.00 2386.83,934.00
             2386.83,934.00 2384.23,924.91 2384.23,924.91
             2384.23,924.91 2379.09,893.00 2379.09,893.00
             2379.09,893.00 2379.09,883.00 2379.09,883.00
             2379.09,883.00 2376.38,874.00 2376.38,874.00
             2376.38,874.00 2375.33,867.00 2375.33,867.00
             2375.33,867.00 2372.45,855.00 2372.45,855.00
             2372.45,855.00 2371.57,845.00 2371.57,845.00
             2371.57,845.00 2369.52,838.00 2369.52,838.00
             2369.52,838.00 2367.54,824.00 2367.54,824.00
             2367.54,824.00 2364.47,814.00 2364.47,814.00
             2364.47,814.00 2362.59,801.00 2362.59,801.00
             2362.59,801.00 2359.88,793.00 2359.88,793.00
             2359.88,793.00 2355.00,767.00 2355.00,767.00
             2355.00,767.00 2350.32,755.00 2350.32,755.00
             2350.32,755.00 2343.63,739.00 2343.63,739.00
             2343.63,739.00 2341.61,730.00 2341.61,730.00
             2341.61,730.00 2337.93,721.00 2337.93,721.00
             2337.93,721.00 2332.28,698.18 2332.28,698.18
             2332.28,698.18 2326.72,690.91 2326.72,690.91
             2326.72,690.91 2325.29,686.00 2325.29,686.00
             2325.29,686.00 2319.49,667.00 2319.49,667.00
             2319.49,667.00 2316.67,660.00 2316.67,660.00
             2316.67,660.00 2315.22,654.00 2315.22,654.00
             2315.22,654.00 2310.07,640.00 2310.07,640.00
             2310.07,640.00 2306.07,632.00 2306.07,632.00
             2306.07,632.00 2303.72,624.00 2303.72,624.00
             2303.72,624.00 2298.13,614.00 2298.13,614.00
             2298.13,614.00 2292.18,594.00 2292.18,594.00
             2292.18,594.00 2285.85,577.42 2285.85,577.42
             2285.85,577.42 2285.85,571.99 2285.85,571.99
             2285.85,571.99 2283.07,562.00 2283.07,562.00
             2283.07,562.00 2279.13,553.00 2279.13,553.00
             2279.13,553.00 2276.00,536.00 2276.00,536.00
             2271.33,533.20 2272.71,531.51 2270.98,527.09
             2270.98,527.09 2266.89,519.96 2266.89,519.96
             2266.89,519.96 2265.15,512.42 2265.15,512.42
             2265.15,512.42 2256.61,499.00 2256.61,499.00
             2251.75,489.15 2248.88,479.27 2242.25,470.00
             2242.25,470.00 2236.24,462.72 2236.24,462.72
             2236.24,462.72 2231.73,456.17 2231.73,456.17
             2231.73,456.17 2224.27,448.99 2224.27,448.99
             2224.27,448.99 2218.82,441.43 2218.82,441.43
             2218.82,441.43 2205.03,428.90 2205.03,428.90
             2205.03,428.90 2195.00,418.34 2195.00,418.34
             2195.00,418.34 2177.29,406.75 2177.29,406.75
             2169.38,400.53 2169.50,397.89 2166.68,395.86
             2166.68,395.86 2160.58,393.20 2160.58,393.20
             2160.58,393.20 2153.00,387.11 2153.00,387.11
             2153.00,387.11 2146.55,383.80 2146.55,383.80
             2144.68,382.52 2144.08,380.89 2142.53,379.50
             2140.20,377.39 2137.69,377.16 2135.17,375.30
             2135.17,375.30 2128.96,369.60 2128.96,369.60
             2125.95,367.60 2123.91,368.37 2121.13,366.41
             2118.51,364.57 2118.19,362.40 2113.95,359.55
             2113.95,359.55 2107.00,356.05 2107.00,356.05
             2104.00,354.42 2093.68,347.34 2091.00,345.00
             2091.00,345.00 2089.00,346.00 2089.00,346.00
             2089.00,346.00 2088.00,343.00 2088.00,343.00
             2088.00,343.00 2085.00,344.00 2085.00,344.00
             2085.00,344.00 2083.00,340.00 2083.00,340.00
             2077.08,339.06 2074.90,336.11 2069.58,333.61
             2069.58,333.61 2047.00,322.81 2047.00,322.81
             2047.00,322.81 2036.83,315.99 2036.83,315.99
             2036.83,315.99 2028.00,312.08 2028.00,312.08
             2028.00,312.08 2014.00,305.05 2014.00,305.05
             2014.00,305.05 2000.00,298.88 2000.00,298.88
             1995.22,296.49 1990.40,291.26 1980.00,286.81
             1980.00,286.81 1957.00,277.30 1957.00,277.30
             1949.72,275.25 1946.36,276.59 1941.00,275.52
             1941.00,275.52 1918.00,269.20 1918.00,269.20
             1918.00,269.20 1912.00,266.64 1912.00,266.64
             1912.00,266.64 1906.00,265.26 1906.00,265.26
             1906.00,265.26 1889.17,258.86 1889.17,258.86
             1889.17,258.86 1875.00,255.00 1875.00,255.00
             1875.00,255.00 1866.00,250.64 1866.00,250.64
             1866.00,250.64 1856.00,248.37 1856.00,248.37
             1856.00,248.37 1845.00,243.75 1845.00,243.75
             1845.00,243.75 1826.00,240.20 1826.00,240.20
             1826.00,240.20 1813.00,233.96 1813.00,233.96
             1801.43,230.21 1788.94,229.31 1777.00,227.57
             1777.00,227.57 1763.00,224.53 1763.00,224.53
             1763.00,224.53 1715.00,227.00 1715.00,227.00
             1706.16,227.06 1707.53,228.69 1701.00,229.70
             1701.00,229.70 1692.00,230.21 1692.00,230.21
             1692.00,230.21 1674.01,234.71 1674.01,234.71
             1674.01,234.71 1663.99,240.12 1663.99,240.12
             1663.99,240.12 1655.00,243.17 1655.00,243.17
             1655.00,243.17 1647.00,247.05 1647.00,247.05
             1647.00,247.05 1639.00,249.73 1639.00,249.73
             1639.00,249.73 1631.58,254.53 1631.58,254.53
             1628.79,256.22 1627.69,255.73 1625.42,256.95
             1625.42,256.95 1618.00,261.72 1618.00,261.72
             1618.00,261.72 1602.66,267.58 1602.66,267.58
             1602.66,267.58 1597.83,271.09 1597.83,271.09
             1597.83,271.09 1577.00,280.22 1577.00,280.22
             1572.34,282.02 1568.93,282.15 1567.00,287.00 Z
           M 2434.00,1224.00
           C 2434.00,1224.00 2434.00,1225.00 2434.00,1225.00
             2434.00,1225.00 2433.00,1224.00 2433.00,1224.00
             2433.00,1224.00 2434.00,1224.00 2434.00,1224.00 Z
           M 1163.00,1283.00
           C 1163.00,1283.00 1163.00,1284.00 1163.00,1284.00
             1163.00,1284.00 1162.00,1283.00 1162.00,1283.00
             1162.00,1283.00 1163.00,1283.00 1163.00,1283.00 Z
           M 1166.00,1295.00
           C 1166.00,1295.00 1166.00,1296.00 1166.00,1296.00
             1166.00,1296.00 1165.00,1295.00 1165.00,1295.00
             1165.00,1295.00 1166.00,1295.00 1166.00,1295.00 Z
           M 1179.00,1332.00
           C 1179.00,1332.00 1179.00,1333.00 1179.00,1333.00
             1179.00,1333.00 1180.00,1332.00 1180.00,1332.00
             1180.00,1332.00 1179.00,1332.00 1179.00,1332.00 Z
           M 1180.00,1334.00
           C 1180.00,1334.00 1180.00,1335.00 1180.00,1335.00
             1180.00,1335.00 1181.00,1334.00 1181.00,1334.00
             1181.00,1334.00 1180.00,1334.00 1180.00,1334.00 Z
           M 1208.00,1379.00
           C 1208.00,1379.00 1208.00,1380.00 1208.00,1380.00
             1208.00,1380.00 1207.00,1379.00 1207.00,1379.00
             1207.00,1379.00 1208.00,1379.00 1208.00,1379.00 Z
           M 1222.00,1414.00
           C 1222.00,1414.00 1222.00,1415.00 1222.00,1415.00
             1222.00,1415.00 1221.00,1414.00 1221.00,1414.00
             1221.00,1414.00 1222.00,1414.00 1222.00,1414.00 Z
           M 1223.00,1418.00
           C 1223.00,1418.00 1223.00,1419.00 1223.00,1419.00
             1223.00,1419.00 1222.00,1418.00 1222.00,1418.00
             1222.00,1418.00 1223.00,1418.00 1223.00,1418.00 Z
           M 1230.00,1458.00
           C 1230.00,1458.00 1230.00,1459.00 1230.00,1459.00
             1230.00,1459.00 1229.00,1458.00 1229.00,1458.00
             1229.00,1458.00 1230.00,1458.00 1230.00,1458.00 Z
           M 1236.00,1501.00
           C 1236.00,1501.00 1236.00,1502.00 1236.00,1502.00
             1236.00,1502.00 1235.00,1501.00 1235.00,1501.00
             1235.00,1501.00 1236.00,1501.00 1236.00,1501.00 Z
           M 1303.00,1693.00
           C 1303.00,1693.00 1303.00,1694.00 1303.00,1694.00
             1303.00,1694.00 1302.00,1693.00 1302.00,1693.00
             1302.00,1693.00 1303.00,1693.00 1303.00,1693.00 Z
           M 1307.00,1707.00
           C 1307.00,1707.00 1307.00,1708.00 1307.00,1708.00
             1307.00,1708.00 1308.00,1707.00 1308.00,1707.00
             1308.00,1707.00 1307.00,1707.00 1307.00,1707.00 Z
           M 2349.00,1927.00
           C 2349.00,1927.00 2349.00,1928.00 2349.00,1928.00
             2349.00,1928.00 2350.00,1927.00 2350.00,1927.00
             2350.00,1927.00 2349.00,1927.00 2349.00,1927.00 Z
           M 2641.00,2052.00
           C 2641.00,2052.00 2641.00,2053.00 2641.00,2053.00
             2641.00,2053.00 2642.00,2052.00 2642.00,2052.00
             2642.00,2052.00 2641.00,2052.00 2641.00,2052.00 Z
           M 1235.00,2097.00
           C 1235.00,2097.00 1235.00,2098.00 1235.00,2098.00
             1235.00,2098.00 1236.00,2097.00 1236.00,2097.00
             1236.00,2097.00 1235.00,2097.00 1235.00,2097.00 Z
           M 3010.00,2205.00
           C 3010.00,2205.00 3010.00,2206.00 3010.00,2206.00
             3010.00,2206.00 3009.00,2205.00 3009.00,2205.00
             3009.00,2205.00 3010.00,2205.00 3010.00,2205.00 Z
           M 3126.00,2270.00
           C 3126.00,2270.00 3126.00,2271.00 3126.00,2271.00
             3126.00,2271.00 3125.00,2270.00 3125.00,2270.00
             3125.00,2270.00 3126.00,2270.00 3126.00,2270.00 Z
           M 543.00,2428.00
           C 543.00,2428.00 543.00,2429.00 543.00,2429.00
             543.00,2429.00 542.00,2428.00 542.00,2428.00
             542.00,2428.00 543.00,2428.00 543.00,2428.00 Z
           M 313.00,2649.00
           C 313.00,2649.00 313.00,2650.00 313.00,2650.00
             313.00,2650.00 312.00,2649.00 312.00,2649.00
             312.00,2649.00 313.00,2649.00 313.00,2649.00 Z
           M 303.00,2672.00
           C 303.00,2672.00 303.00,2673.00 303.00,2673.00
             303.00,2673.00 302.00,2672.00 302.00,2672.00
             302.00,2672.00 303.00,2672.00 303.00,2672.00 Z
           M 302.00,2674.00
           C 302.00,2674.00 302.00,2675.00 302.00,2675.00
             302.00,2675.00 301.00,2674.00 301.00,2674.00
             301.00,2674.00 302.00,2674.00 302.00,2674.00 Z
           M 291.00,2708.00
           C 291.00,2708.00 291.00,2709.00 291.00,2709.00
             291.00,2709.00 290.00,2708.00 290.00,2708.00
             290.00,2708.00 291.00,2708.00 291.00,2708.00 Z
           M 286.00,2720.00
           C 286.00,2720.00 286.00,2721.00 286.00,2721.00
             286.00,2721.00 285.00,2720.00 285.00,2720.00
             285.00,2720.00 286.00,2720.00 286.00,2720.00 Z
           M 270.00,2750.00
           C 270.00,2750.00 270.00,2751.00 270.00,2751.00
             270.00,2751.00 269.00,2750.00 269.00,2750.00
             269.00,2750.00 270.00,2750.00 270.00,2750.00 Z
           M 3828.00,3250.00
           C 3828.00,3250.00 3828.00,3251.00 3828.00,3251.00
             3828.00,3251.00 3827.00,3250.00 3827.00,3250.00
             3827.00,3250.00 3828.00,3250.00 3828.00,3250.00 Z" />
</svg>
