<?xml version="1.0" encoding="UTF-8" standalone="no"?>
<!DOCTYPE svg PUBLIC "-//W3C//DTD SVG 20010904//EN"
              "http://www.w3.org/TR/2001/REC-SVG-20010904/DTD/svg10.dtd">

<svg xmlns="http://www.w3.org/2000/svg"
     width="11.2333in" height="15.82in"
     viewBox="0 0 3370 4746">
  <path id="face"
        fill="none" stroke="black" stroke-width="1"
        d="M 1532.00,424.00
           C 1524.44,426.96 1521.96,431.76 1516.00,436.67
             1512.95,439.19 1502.72,444.87 1499.00,446.48
             1499.00,446.48 1491.00,449.20 1491.00,449.20
             1491.00,449.20 1482.00,453.55 1482.00,453.55
             1482.00,453.55 1464.00,460.32 1464.00,460.32
             1464.00,460.32 1455.00,464.45 1455.00,464.45
             1455.00,464.45 1448.00,465.61 1448.00,465.61
             1448.00,465.61 1426.00,472.43 1426.00,472.43
             1421.02,473.93 1418.90,473.56 1414.00,476.56
             1414.00,476.56 1377.00,502.01 1377.00,502.01
             1354.17,519.87 1333.30,540.11 1309.00,556.00
             1309.00,556.00 1310.00,559.00 1310.00,559.00
             1310.00,559.00 1304.00,560.00 1304.00,560.00
             1304.00,560.00 1290.00,576.00 1290.00,576.00
             1290.00,576.00 1287.00,575.00 1287.00,575.00
             1277.98,587.69 1279.23,583.30 1270.17,591.75
             1264.36,597.18 1254.47,608.89 1251.00,616.00
             1251.00,616.00 1249.00,615.00 1249.00,615.00
             1249.00,615.00 1237.94,627.51 1237.94,627.51
             1237.94,627.51 1232.97,636.78 1232.97,636.78
             1232.97,636.78 1228.07,641.47 1228.07,641.47
             1228.07,641.47 1221.64,653.00 1221.64,653.00
             1221.64,653.00 1208.45,672.00 1208.45,672.00
             1208.45,672.00 1195.97,698.00 1195.97,698.00
             1195.97,698.00 1191.44,707.00 1191.44,707.00
             1191.44,707.00 1185.04,724.00 1185.04,724.00
             1185.04,724.00 1182.46,734.00 1182.46,734.00
             1182.46,734.00 1178.67,744.00 1178.67,744.00
             1178.67,744.00 1172.33,765.00 1172.33,765.00
             1172.33,765.00 1165.74,785.00 1165.74,785.00
             1165.74,785.00 1162.11,801.00 1162.11,801.00
             1162.11,801.00 1157.88,816.00 1157.88,816.00
             1157.88,816.00 1153.96,833.00 1153.96,833.00
             1153.96,833.00 1146.02,854.00 1146.02,854.00
             1142.62,860.52 1141.22,859.83 1138.08,869.00
             1138.08,869.00 1133.84,888.00 1133.84,888.00
             1133.84,888.00 1130.22,898.00 1130.22,898.00
             1130.22,898.00 1125.26,920.00 1125.26,920.00
             1125.26,920.00 1122.00,967.00 1122.00,967.00
             1122.00,967.00 1124.00,997.00 1124.00,997.00
             1124.00,997.00 1124.00,1023.00 1124.00,1023.00
             1124.00,1023.00 1123.00,1040.00 1123.00,1040.00
             1122.98,1052.26 1123.17,1059.85 1119.85,1072.00
             1119.85,1072.00 1110.97,1101.00 1110.97,1101.00
             1109.18,1106.60 1106.47,1110.95 1106.09,1117.00
             1105.44,1127.64 1110.80,1131.09 1112.47,1138.00
             1112.47,1138.00 1115.30,1162.00 1115.30,1162.00
             1115.30,1162.00 1117.63,1171.00 1117.63,1171.00
             1117.63,1171.00 1118.63,1177.00 1118.63,1177.00
             1118.63,1177.00 1122.64,1187.00 1122.64,1187.00
             1122.64,1187.00 1125.47,1198.00 1125.47,1198.00
             1126.65,1201.11 1128.84,1204.79 1129.43,1208.00
             1130.27,1212.54 1128.16,1215.42 1128.49,1220.00
             1128.50,1231.10 1130.27,1234.49 1128.49,1247.00
             1128.49,1247.00 1123.00,1277.00 1123.00,1277.00
             1122.86,1289.79 1125.29,1288.62 1125.78,1295.00
             1126.09,1299.07 1124.43,1302.98 1124.21,1307.00
             1124.21,1307.00 1125.00,1318.00 1125.00,1318.00
             1125.03,1321.06 1125.34,1326.34 1123.98,1328.98
             1121.40,1333.98 1112.79,1337.59 1108.00,1340.45
             1101.28,1344.47 1085.81,1355.81 1081.70,1362.00
             1079.38,1365.49 1077.22,1374.63 1076.13,1379.00
             1073.20,1390.66 1073.05,1394.18 1073.00,1406.00
             1073.00,1406.00 1071.00,1435.00 1071.00,1435.00
             1071.00,1435.00 1070.00,1457.00 1070.00,1457.00
             1070.00,1457.00 1070.00,1501.00 1070.00,1501.00
             1070.02,1511.12 1074.47,1520.84 1076.39,1531.00
             1076.39,1531.00 1083.29,1570.00 1083.29,1570.00
             1083.29,1570.00 1089.48,1587.00 1089.48,1587.00
             1089.48,1587.00 1095.44,1608.00 1095.44,1608.00
             1095.44,1608.00 1099.24,1619.00 1099.24,1619.00
             1099.24,1619.00 1101.49,1630.00 1101.49,1630.00
             1101.49,1630.00 1103.62,1637.00 1103.62,1637.00
             1103.62,1637.00 1105.32,1653.00 1105.32,1653.00
             1105.32,1653.00 1108.72,1666.00 1108.72,1666.00
             1108.72,1666.00 1115.48,1698.00 1115.48,1698.00
             1115.48,1698.00 1125.39,1725.00 1125.39,1725.00
             1126.72,1730.25 1125.85,1735.73 1126.41,1741.00
             1126.84,1745.05 1130.20,1758.59 1132.22,1762.00
             1134.61,1766.02 1138.70,1769.56 1141.91,1773.00
             1147.56,1779.06 1147.82,1780.09 1155.00,1785.25
             1168.53,1794.99 1194.20,1804.06 1211.00,1802.91
             1217.60,1802.46 1223.00,1801.64 1229.00,1798.74
             1232.17,1797.21 1238.55,1793.19 1241.98,1794.35
             1247.51,1796.22 1247.38,1802.43 1248.53,1807.00
             1250.56,1815.13 1253.98,1813.36 1254.00,1829.00
             1254.00,1829.00 1254.00,1848.00 1254.00,1848.00
             1254.03,1850.01 1254.02,1852.09 1254.74,1854.00
             1254.74,1854.00 1267.78,1874.00 1267.78,1874.00
             1270.50,1878.79 1269.57,1881.11 1270.46,1886.00
             1271.95,1894.19 1274.22,1894.87 1272.00,1904.00
             1276.65,1905.46 1276.84,1907.11 1280.02,1910.58
             1290.80,1922.32 1290.79,1930.11 1289.00,1945.00
             1300.17,1941.70 1294.02,1951.39 1303.00,1956.00
             1302.49,1963.96 1305.56,1962.81 1307.50,1969.00
             1308.16,1971.13 1307.89,1972.57 1308.98,1975.00
             1308.98,1975.00 1330.58,2010.00 1330.58,2010.00
             1330.58,2010.00 1362.50,2059.00 1362.50,2059.00
             1362.50,2059.00 1383.73,2084.00 1383.73,2084.00
             1383.73,2084.00 1440.85,2149.00 1440.85,2149.00
             1440.85,2149.00 1493.96,2208.00 1493.96,2208.00
             1498.89,2213.15 1512.18,2228.44 1517.04,2231.91
             1531.62,2242.30 1572.51,2258.69 1591.00,2266.86
             1591.00,2266.86 1631.00,2284.42 1631.00,2284.42
             1636.06,2286.62 1646.14,2291.48 1651.00,2292.66
             1658.26,2294.43 1663.74,2293.92 1671.00,2294.00
             1671.00,2294.00 1686.00,2295.00 1686.00,2295.00
             1686.00,2295.00 1737.00,2297.00 1737.00,2297.00
             1737.00,2297.00 1747.00,2297.91 1747.00,2297.91
             1747.00,2297.91 1765.00,2296.16 1765.00,2296.16
             1765.00,2296.16 1809.00,2291.16 1809.00,2291.16
             1809.00,2291.16 1853.00,2286.16 1853.00,2286.16
             1853.00,2286.16 1882.00,2282.65 1882.00,2282.65
             1882.00,2282.65 1919.00,2265.31 1919.00,2265.31
             1919.00,2265.31 1963.00,2244.25 1963.00,2244.25
             1970.87,2240.31 1978.80,2237.43 1986.00,2232.22
             1986.00,2232.22 2024.00,2197.04 2024.00,2197.04
             2024.00,2197.04 2050.39,2171.96 2050.39,2171.96
             2050.39,2171.96 2071.81,2138.00 2071.81,2138.00
             2071.81,2138.00 2105.60,2083.00 2105.60,2083.00
             2105.60,2083.00 2121.73,2056.00 2121.73,2056.00
             2121.73,2056.00 2158.05,1963.00 2158.05,1963.00
             2158.05,1963.00 2175.21,1929.00 2175.21,1929.00
             2176.36,1924.95 2176.00,1917.46 2176.00,1913.00
             2176.00,1913.00 2184.00,1913.00 2184.00,1913.00
             2184.00,1913.00 2181.00,1911.00 2181.00,1911.00
             2181.00,1911.00 2182.00,1902.00 2182.00,1902.00
             2182.00,1902.00 2184.00,1904.00 2184.00,1904.00
             2184.00,1904.00 2185.00,1904.00 2185.00,1904.00
             2188.25,1886.72 2186.32,1896.54 2186.00,1882.00
             2186.00,1882.00 2192.00,1887.00 2192.00,1887.00
             2192.00,1887.00 2194.23,1887.00 2194.23,1887.00
             2194.23,1887.00 2194.23,1876.00 2194.23,1876.00
             2194.23,1876.00 2195.46,1871.00 2195.46,1871.00
             2195.46,1871.00 2195.46,1865.00 2195.46,1865.00
             2195.46,1865.00 2197.65,1858.00 2197.65,1858.00
             2197.65,1858.00 2197.65,1851.58 2197.65,1851.58
             2197.65,1851.58 2205.13,1841.00 2205.13,1841.00
             2205.13,1841.00 2208.31,1819.00 2208.31,1819.00
             2208.31,1819.00 2211.66,1810.00 2211.66,1810.00
             2211.66,1810.00 2210.63,1796.00 2210.63,1796.00
             2210.63,1796.00 2212.82,1790.00 2212.82,1790.00
             2212.82,1790.00 2212.82,1782.00 2212.82,1782.00
             2212.82,1782.00 2213.98,1776.00 2213.98,1776.00
             2213.98,1776.00 2213.00,1773.00 2213.00,1773.00
             2221.03,1770.16 2218.82,1765.81 2218.08,1759.00
             2218.08,1759.00 2218.08,1749.00 2218.08,1749.00
             2220.23,1752.29 2221.87,1754.93 2225.04,1757.47
             2231.68,1762.78 2246.56,1764.90 2255.00,1765.00
             2264.70,1765.11 2277.53,1762.61 2286.00,1757.79
             2286.00,1757.79 2294.00,1752.34 2294.00,1752.34
             2297.02,1750.29 2300.20,1748.38 2302.83,1745.82
             2311.31,1737.53 2323.80,1717.64 2326.47,1706.00
             2327.07,1703.38 2327.00,1700.67 2327.00,1698.00
             2327.00,1698.00 2327.00,1672.00 2327.00,1672.00
             2327.00,1672.00 2329.58,1651.00 2329.58,1651.00
             2329.58,1651.00 2330.91,1636.00 2330.91,1636.00
             2330.91,1636.00 2333.00,1607.00 2333.00,1607.00
             2333.00,1607.00 2334.29,1582.00 2334.29,1582.00
             2334.29,1582.00 2337.16,1565.00 2337.16,1565.00
             2337.16,1565.00 2340.53,1554.00 2340.53,1554.00
             2340.53,1554.00 2342.13,1540.00 2342.13,1540.00
             2342.13,1540.00 2346.92,1514.00 2346.92,1514.00
             2346.92,1514.00 2348.46,1501.00 2348.46,1501.00
             2348.46,1501.00 2350.54,1492.00 2350.54,1492.00
             2350.54,1492.00 2355.66,1463.00 2355.66,1463.00
             2357.20,1455.67 2359.63,1448.57 2359.96,1441.00
             2360.43,1430.34 2358.03,1423.07 2356.44,1413.00
             2356.44,1413.00 2354.42,1392.00 2354.42,1392.00
             2354.42,1392.00 2351.28,1367.00 2351.28,1367.00
             2351.28,1367.00 2349.83,1347.00 2349.83,1347.00
             2349.83,1347.00 2347.40,1335.00 2347.40,1335.00
             2344.56,1320.82 2341.45,1311.22 2326.00,1306.57
             2322.19,1305.42 2318.96,1305.05 2315.00,1305.00
             2309.36,1304.94 2302.36,1305.86 2299.40,1299.95
             2296.78,1295.49 2299.92,1283.71 2299.40,1278.00
             2299.40,1278.00 2294.47,1246.00 2294.47,1246.00
             2294.47,1246.00 2291.32,1237.00 2291.32,1237.00
             2289.28,1231.49 2283.65,1223.29 2287.44,1218.02
             2288.81,1216.11 2291.28,1213.81 2293.58,1213.14
             2299.03,1211.55 2315.68,1215.47 2322.00,1216.00
             2323.37,1211.53 2324.27,1210.61 2329.00,1211.00
             2329.00,1211.00 2316.00,1189.00 2316.00,1189.00
             2316.00,1189.00 2325.00,1184.00 2325.00,1184.00
             2325.00,1184.00 2322.00,1173.00 2322.00,1173.00
             2322.00,1173.00 2330.00,1174.15 2330.00,1174.15
             2330.00,1174.15 2355.00,1168.00 2355.00,1168.00
             2355.00,1168.00 2354.00,1164.00 2354.00,1164.00
             2349.54,1165.13 2342.37,1166.79 2338.00,1165.11
             2332.11,1162.84 2331.80,1158.49 2329.01,1154.00
             2329.01,1154.00 2320.66,1143.00 2320.66,1143.00
             2314.98,1135.00 2314.51,1137.66 2310.47,1133.70
             2305.02,1128.38 2303.04,1121.37 2303.00,1114.00
             2303.00,1114.00 2301.14,1082.00 2301.14,1082.00
             2301.14,1082.00 2301.14,1064.00 2301.14,1064.00
             2301.14,1064.00 2296.72,1052.00 2296.72,1052.00
             2296.72,1052.00 2288.89,1027.00 2288.89,1027.00
             2288.89,1027.00 2287.68,1015.00 2287.68,1015.00
             2287.68,1015.00 2285.24,1006.00 2285.24,1006.00
             2285.24,1006.00 2280.67,985.00 2280.67,985.00
             2280.67,985.00 2277.79,967.00 2277.79,967.00
             2277.79,967.00 2272.52,944.00 2272.52,944.00
             2272.52,944.00 2268.30,929.00 2268.30,929.00
             2268.30,929.00 2266.70,912.00 2266.70,912.00
             2266.70,912.00 2263.44,897.00 2263.44,897.00
             2263.44,897.00 2261.54,882.00 2261.54,882.00
             2261.54,882.00 2256.42,860.00 2256.42,860.00
             2256.42,860.00 2254.56,845.00 2254.56,845.00
             2254.56,845.00 2244.25,803.00 2244.25,803.00
             2244.25,803.00 2230.60,774.00 2230.60,774.00
             2225.30,761.00 2225.35,760.50 2217.99,748.00
             2217.99,748.00 2210.52,736.00 2210.52,736.00
             2210.52,736.00 2207.03,727.28 2207.03,727.28
             2207.03,727.28 2194.22,710.00 2194.22,710.00
             2187.42,699.96 2188.39,692.65 2176.00,687.00
             2176.00,687.00 2169.00,673.00 2169.00,673.00
             2165.36,671.82 2165.16,667.39 2164.00,664.00
             2164.00,664.00 2159.13,653.00 2159.13,653.00
             2159.13,653.00 2156.24,641.00 2156.24,641.00
             2154.72,636.58 2152.56,634.02 2150.63,630.00
             2150.63,630.00 2143.69,614.00 2143.69,614.00
             2143.69,614.00 2138.89,606.72 2138.89,606.72
             2137.22,603.54 2137.73,600.82 2134.68,595.00
             2134.68,595.00 2124.45,579.00 2124.45,579.00
             2124.45,579.00 2116.00,563.00 2116.00,563.00
             2116.00,563.00 2113.00,564.00 2113.00,564.00
             2106.23,550.18 2088.74,536.76 2077.00,526.70
             2077.00,526.70 2069.00,519.32 2069.00,519.32
             2069.00,519.32 2051.00,504.72 2051.00,504.72
             2051.00,504.72 2038.00,492.58 2038.00,492.58
             2038.00,492.58 2010.00,477.32 2010.00,477.32
             2010.00,477.32 2003.01,474.21 2003.01,474.21
             1998.88,472.21 1998.35,470.48 1994.91,468.36
             1994.91,468.36 1985.00,463.52 1985.00,463.52
             1980.56,460.85 1979.50,458.26 1974.00,458.00
             1970.71,451.76 1957.58,445.82 1951.00,443.00
             1951.00,443.00 1921.00,430.21 1921.00,430.21
             1921.00,430.21 1893.00,424.27 1893.00,424.27
             1893.00,424.27 1869.00,417.29 1869.00,417.29
             1869.00,417.29 1845.00,411.30 1845.00,411.30
             1845.00,411.30 1834.00,406.47 1834.00,406.47
             1834.00,406.47 1816.00,401.33 1816.00,401.33
             1797.36,395.13 1785.20,390.10 1765.00,390.00
             1765.00,390.00 1742.00,389.32 1742.00,389.32
             1742.00,389.32 1723.00,390.00 1723.00,390.00
             1723.00,390.00 1707.00,388.18 1707.00,388.18
             1707.00,388.18 1679.00,389.09 1679.00,389.09
             1679.00,389.09 1670.00,389.99 1670.00,389.99
             1670.00,389.99 1654.00,388.84 1654.00,388.84
             1654.00,388.84 1637.00,388.84 1637.00,388.84
             1637.00,388.84 1630.00,388.84 1630.00,388.84
             1625.87,388.25 1614.75,390.21 1610.00,390.87
             1610.00,390.87 1596.00,392.52 1596.00,392.52
             1596.00,392.52 1585.00,395.68 1585.00,395.68
             1580.46,396.45 1579.68,395.75 1574.00,397.44
             1574.00,397.44 1562.00,402.20 1562.00,402.20
             1549.88,407.06 1549.87,406.52 1539.00,414.63
             1534.95,417.65 1532.27,418.69 1532.00,424.00 Z
           M 2169.00,675.00
           C 2169.00,675.00 2169.00,676.00 2169.00,676.00
             2169.00,676.00 2168.00,675.00 2168.00,675.00
             2168.00,675.00 2169.00,675.00 2169.00,675.00 Z
           M 2320.00,1172.00
           C 2320.00,1172.00 2320.00,1173.00 2320.00,1173.00
             2320.00,1173.00 2319.00,1172.00 2319.00,1172.00
             2319.00,1172.00 2320.00,1172.00 2320.00,1172.00 Z
           M 2208.00,1815.00
           C 2208.00,1815.00 2208.00,1816.00 2208.00,1816.00
             2208.00,1816.00 2207.00,1815.00 2207.00,1815.00
             2207.00,1815.00 2208.00,1815.00 2208.00,1815.00 Z" />
  <path id="profile"
        fill="none" stroke="black" stroke-width="1"
        d="M 1532.00,424.00
           C 1524.44,426.96 1521.96,431.76 1516.00,436.67
             1512.95,439.19 1502.72,444.87 1499.00,446.48
             1499.00,446.48 1491.00,449.20 1491.00,449.20
             1491.00,449.20 1482.00,453.55 1482.00,453.55
             1482.00,453.55 1464.00,460.32 1464.00,460.32
             1464.00,460.32 1455.00,464.45 1455.00,464.45
             1455.00,464.45 1448.00,465.61 1448.00,465.61
             1448.00,465.61 1426.00,472.43 1426.00,472.43
             1421.02,473.93 1418.90,473.56 1414.00,476.56
             1414.00,476.56 1377.00,502.01 1377.00,502.01
             1354.17,519.87 1333.30,540.11 1309.00,556.00
             1309.00,556.00 1310.00,559.00 1310.00,559.00
             1310.00,559.00 1304.00,560.00 1304.00,560.00
             1304.00,560.00 1290.00,576.00 1290.00,576.00
             1290.00,576.00 1287.00,575.00 1287.00,575.00
             1277.98,587.69 1279.23,583.30 1270.17,591.75
             1264.36,597.18 1254.47,608.89 1251.00,616.00
             1251.00,616.00 1249.00,615.00 1249.00,615.00
             1249.00,615.00 1237.94,627.51 1237.94,627.51
             1237.94,627.51 1232.97,636.78 1232.97,636.78
             1232.97,636.78 1228.07,641.47 1228.07,641.47
             1228.07,641.47 1221.64,653.00 1221.64,653.00
             1221.64,653.00 1208.45,672.00 1208.45,672.00
             1208.45,672.00 1195.97,698.00 1195.97,698.00
             1195.97,698.00 1191.44,707.00 1191.44,707.00
             1191.44,707.00 1185.04,724.00 1185.04,724.00
             1185.04,724.00 1182.46,734.00 1182.46,734.00
             1182.46,734.00 1178.67,744.00 1178.67,744.00
             1178.67,744.00 1172.33,765.00 1172.33,765.00
             1172.33,765.00 1165.74,785.00 1165.74,785.00
             1165.74,785.00 1162.11,801.00 1162.11,801.00
             1162.11,801.00 1157.88,816.00 1157.88,816.00
             1157.88,816.00 1153.96,833.00 1153.96,833.00
             1153.96,833.00 1146.02,854.00 1146.02,854.00
             1142.62,860.52 1141.22,859.83 1138.08,869.00
             1138.08,869.00 1133.84,888.00 1133.84,888.00
             1133.84,888.00 1130.22,898.00 1130.22,898.00
             1130.22,898.00 1125.26,920.00 1125.26,920.00
             1125.26,920.00 1122.00,967.00 1122.00,967.00
             1122.00,967.00 1124.00,997.00 1124.00,997.00
             1124.00,997.00 1124.00,1023.00 1124.00,1023.00
             1124.00,1023.00 1123.00,1040.00 1123.00,1040.00
             1122.98,1052.26 1123.17,1059.85 1119.85,1072.00
             1119.85,1072.00 1110.97,1101.00 1110.97,1101.00
             1109.18,1106.60 1106.47,1110.95 1106.09,1117.00
             1105.44,1127.64 1110.80,1131.09 1112.47,1138.00
             1112.47,1138.00 1115.30,1162.00 1115.30,1162.00
             1115.30,1162.00 1117.63,1171.00 1117.63,1171.00
             1117.63,1171.00 1118.63,1177.00 1118.63,1177.00
             1118.63,1177.00 1122.64,1187.00 1122.64,1187.00
             1122.64,1187.00 1125.47,1198.00 1125.47,1198.00
             1126.65,1201.11 1128.84,1204.79 1129.43,1208.00
             1130.27,1212.54 1128.16,1215.42 1128.49,1220.00
             1128.50,1231.10 1130.27,1234.49 1128.49,1247.00
             1128.49,1247.00 1123.00,1277.00 1123.00,1277.00
             1122.86,1289.79 1125.29,1288.62 1125.78,1295.00
             1126.09,1299.07 1124.43,1302.98 1124.21,1307.00
             1124.21,1307.00 1125.00,1318.00 1125.00,1318.00
             1125.03,1321.06 1125.34,1326.34 1123.98,1328.98
             1121.40,1333.98 1112.79,1337.59 1108.00,1340.45
             1101.28,1344.47 1085.81,1355.81 1081.70,1362.00
             1079.38,1365.49 1077.22,1374.63 1076.13,1379.00
             1073.20,1390.66 1073.05,1394.18 1073.00,1406.00
             1073.00,1406.00 1071.00,1435.00 1071.00,1435.00
             1071.00,1435.00 1070.00,1457.00 1070.00,1457.00
             1070.00,1457.00 1070.00,1501.00 1070.00,1501.00
             1070.02,1511.12 1074.47,1520.84 1076.39,1531.00
             1076.39,1531.00 1083.29,1570.00 1083.29,1570.00
             1083.29,1570.00 1089.48,1587.00 1089.48,1587.00
             1089.48,1587.00 1095.44,1608.00 1095.44,1608.00
             1095.44,1608.00 1099.24,1619.00 1099.24,1619.00
             1099.24,1619.00 1101.49,1630.00 1101.49,1630.00
             1101.49,1630.00 1103.62,1637.00 1103.62,1637.00
             1103.62,1637.00 1105.32,1653.00 1105.32,1653.00
             1105.32,1653.00 1108.72,1666.00 1108.72,1666.00
             1108.72,1666.00 1115.48,1698.00 1115.48,1698.00
             1115.48,1698.00 1125.39,1725.00 1125.39,1725.00
             1126.72,1730.25 1125.85,1735.73 1126.41,1741.00
             1126.84,1745.05 1130.20,1758.59 1132.22,1762.00
             1134.61,1766.02 1138.70,1769.56 1141.91,1773.00
             1147.56,1779.06 1147.82,1780.09 1155.00,1785.25
             1168.53,1794.99 1194.20,1804.06 1211.00,1802.91
             1217.60,1802.46 1223.00,1801.64 1229.00,1798.74
             1232.17,1797.21 1238.55,1793.19 1241.98,1794.35
             1247.51,1796.22 1247.38,1802.43 1248.53,1807.00
             1250.56,1815.13 1253.98,1813.36 1254.00,1829.00
             1254.00,1829.00 1254.00,1848.00 1254.00,1848.00
             1254.03,1850.01 1254.02,1852.09 1254.74,1854.00
             1254.74,1854.00 1267.78,1874.00 1267.78,1874.00
             1270.50,1878.79 1269.57,1881.11 1270.46,1886.00
             1271.95,1894.19 1274.22,1894.87 1272.00,1904.00
             1276.65,1905.46 1276.84,1907.11 1280.02,1910.58
             1290.80,1922.32 1290.79,1930.11 1289.00,1945.00
             1300.17,1941.70 1294.02,1951.39 1303.00,1956.00
             1302.45,1964.57 1306.70,1963.79 1307.69,1970.00
             1308.03,1972.17 1307.39,1974.84 1307.00,1977.00
             1307.00,1977.00 1311.00,1976.00 1311.00,1976.00
             1311.00,1976.00 1317.08,1992.00 1317.08,1992.00
             1318.70,1998.20 1318.54,2004.68 1319.17,2011.00
             1319.17,2011.00 1320.71,2020.00 1320.71,2020.00
             1320.71,2020.00 1322.00,2041.00 1322.00,2041.00
             1322.00,2041.00 1322.00,2067.00 1322.00,2067.00
             1322.01,2074.08 1322.78,2073.85 1323.16,2079.00
             1323.16,2079.00 1323.16,2085.00 1323.16,2085.00
             1323.16,2085.00 1323.98,2094.00 1323.98,2094.00
             1323.98,2094.00 1323.17,2114.00 1323.17,2114.00
             1323.17,2114.00 1327.00,2152.00 1327.00,2152.00
             1327.00,2152.00 1327.83,2185.00 1327.83,2185.00
             1328.00,2187.18 1328.05,2189.60 1326.40,2191.28
             1324.81,2192.90 1321.18,2193.53 1319.00,2194.20
             1314.92,2195.47 1310.77,2197.30 1307.00,2199.31
             1307.00,2199.31 1284.00,2210.97 1284.00,2210.97
             1284.00,2210.97 1275.00,2214.31 1275.00,2214.31
             1275.00,2214.31 1257.00,2223.68 1257.00,2223.68
             1257.00,2223.68 1236.00,2232.20 1236.00,2232.20
             1236.00,2232.20 1224.00,2238.47 1224.00,2238.47
             1224.00,2238.47 1216.28,2240.91 1216.28,2240.91
             1216.28,2240.91 1204.00,2247.61 1204.00,2247.61
             1204.00,2247.61 1184.00,2256.97 1184.00,2256.97
             1184.00,2256.97 1169.00,2264.69 1169.00,2264.69
             1169.00,2264.69 1139.00,2276.86 1139.00,2276.86
             1139.00,2276.86 1122.00,2284.81 1122.00,2284.81
             1122.00,2284.81 1111.00,2290.69 1111.00,2290.69
             1111.00,2290.69 1099.00,2295.37 1099.00,2295.37
             1099.00,2295.37 1089.00,2300.88 1089.00,2300.88
             1089.00,2300.88 1074.00,2306.81 1074.00,2306.81
             1074.00,2306.81 1052.09,2319.32 1052.09,2319.32
             1052.09,2319.32 1044.96,2325.04 1044.96,2325.04
             1044.96,2325.04 1034.17,2330.36 1034.17,2330.36
             1034.17,2330.36 1026.00,2336.65 1026.00,2336.65
             1010.73,2345.94 1006.00,2345.09 1000.00,2348.27
             1000.00,2348.27 988.00,2356.69 988.00,2356.69
             988.00,2356.69 966.00,2369.20 966.00,2369.20
             966.00,2369.20 944.00,2382.03 944.00,2382.03
             944.00,2382.03 931.00,2387.32 931.00,2387.32
             931.00,2387.32 923.00,2391.63 923.00,2391.63
             923.00,2391.63 905.00,2399.69 905.00,2399.69
             905.00,2399.69 884.00,2409.64 884.00,2409.64
             884.00,2409.64 878.00,2414.48 878.00,2414.48
             873.68,2417.77 871.60,2417.80 869.00,2423.00
             869.00,2423.00 857.00,2427.00 857.00,2427.00
             857.00,2427.00 858.00,2430.00 858.00,2430.00
             858.00,2430.00 855.00,2429.00 855.00,2429.00
             854.03,2432.01 846.98,2434.91 844.00,2436.77
             833.47,2443.35 822.30,2450.32 811.00,2455.44
             811.00,2455.44 792.00,2466.91 792.00,2466.91
             792.00,2466.91 770.04,2478.34 770.04,2478.34
             770.04,2478.34 761.96,2484.35 761.96,2484.35
             761.96,2484.35 747.04,2490.47 747.04,2490.47
             747.04,2490.47 729.00,2500.93 729.00,2500.93
             722.52,2505.20 721.95,2507.43 716.99,2511.53
             712.57,2515.18 707.91,2517.21 703.00,2520.00
             703.00,2520.00 704.00,2523.00 704.00,2523.00
             704.00,2523.00 699.00,2522.00 699.00,2522.00
             695.06,2528.94 690.60,2529.07 684.00,2532.37
             684.00,2532.37 659.00,2545.00 659.00,2545.00
             659.00,2545.00 660.00,2548.00 660.00,2548.00
             653.48,2550.18 647.53,2552.32 642.10,2556.76
             642.10,2556.76 635.79,2563.20 635.79,2563.20
             635.79,2563.20 620.53,2573.07 620.53,2573.07
             618.61,2574.73 618.28,2577.33 616.35,2579.96
             613.42,2583.97 609.41,2586.03 605.00,2588.00
             605.00,2588.00 605.00,2589.00 605.00,2589.00
             605.00,2589.00 607.00,2591.00 607.00,2591.00
             598.01,2595.05 584.92,2606.76 581.00,2616.00
             574.11,2615.88 572.87,2620.34 568.00,2624.91
             562.49,2630.07 558.36,2632.33 552.00,2636.00
             552.00,2636.00 553.00,2640.00 553.00,2640.00
             539.70,2643.80 535.77,2650.80 526.58,2659.68
             526.58,2659.68 518.09,2667.04 518.09,2667.04
             518.09,2667.04 506.00,2679.91 506.00,2679.91
             506.00,2679.91 495.10,2689.29 495.10,2689.29
             490.71,2693.53 491.13,2695.47 484.00,2701.71
             484.00,2701.71 471.17,2711.60 471.17,2711.60
             471.17,2711.60 465.91,2716.62 465.91,2716.62
             465.91,2716.62 460.37,2720.63 460.37,2720.63
             460.37,2720.63 454.90,2726.83 454.90,2726.83
             454.90,2726.83 447.00,2734.01 447.00,2734.01
             447.00,2734.01 434.00,2746.90 434.00,2746.90
             434.00,2746.90 426.59,2752.63 426.59,2752.63
             426.59,2752.63 420.96,2758.61 420.96,2758.61
             420.96,2758.61 414.52,2762.96 414.52,2762.96
             414.52,2762.96 410.70,2767.41 410.70,2767.41
             410.70,2767.41 404.17,2772.33 404.17,2772.33
             404.17,2772.33 396.00,2780.91 396.00,2780.91
             396.00,2780.91 388.04,2788.04 388.04,2788.04
             388.04,2788.04 381.83,2794.54 381.83,2794.54
             381.83,2794.54 374.01,2801.09 374.01,2801.09
             374.01,2801.09 364.96,2810.83 364.96,2810.83
             364.96,2810.83 355.00,2819.09 355.00,2819.09
             355.00,2819.09 343.00,2830.82 343.00,2830.82
             343.00,2830.82 332.00,2839.29 332.00,2839.29
             332.00,2839.29 321.09,2849.04 321.09,2849.04
             321.09,2849.04 311.00,2859.99 311.00,2859.99
             311.00,2859.99 302.21,2868.09 302.21,2868.09
             302.21,2868.09 295.47,2877.67 295.47,2877.67
             290.45,2883.05 281.78,2883.80 277.44,2892.00
             274.84,2896.92 275.96,2899.74 275.35,2903.00
             275.35,2903.00 273.74,2909.00 273.74,2909.00
             273.74,2909.00 273.74,2915.00 273.74,2915.00
             273.74,2915.00 273.05,2921.00 273.05,2921.00
             273.05,2921.00 273.05,2932.00 273.05,2932.00
             273.05,2932.00 271.00,2931.00 271.00,2931.00
             271.00,2931.00 270.00,2932.00 270.00,2932.00
             272.17,2935.92 272.00,2936.67 271.00,2941.00
             271.00,2941.00 270.00,2938.00 270.00,2938.00
             266.78,2942.49 266.00,2947.67 265.00,2953.00
             269.90,2960.31 261.03,2965.41 257.84,2970.09
             257.84,2970.09 247.07,2989.67 247.07,2989.67
             241.62,2997.66 234.96,3000.48 234.00,3011.00
             234.00,3011.00 225.00,3020.00 225.00,3020.00
             225.00,3020.00 225.00,3021.00 225.00,3021.00
             225.00,3021.00 227.00,3022.00 227.00,3022.00
             219.25,3029.78 219.96,3030.25 214.10,3037.90
             214.10,3037.90 209.02,3043.37 209.02,3043.37
             207.46,3045.97 208.52,3048.66 206.84,3051.87
             205.49,3054.48 203.14,3055.30 200.54,3061.00
             200.54,3061.00 198.06,3068.00 198.06,3068.00
             198.06,3068.00 190.43,3083.00 190.43,3083.00
             190.43,3083.00 186.18,3093.72 186.18,3093.72
             186.18,3093.72 176.98,3110.00 176.98,3110.00
             176.98,3110.00 172.69,3121.00 172.69,3121.00
             172.69,3121.00 165.90,3134.00 165.90,3134.00
             165.90,3134.00 161.55,3146.00 161.55,3146.00
             161.55,3146.00 155.96,3158.00 155.96,3158.00
             154.45,3162.35 155.46,3164.86 154.44,3167.83
             154.44,3167.83 145.95,3186.00 145.95,3186.00
             145.95,3186.00 143.07,3195.00 143.07,3195.00
             143.07,3195.00 139.45,3203.00 139.45,3203.00
             139.45,3203.00 134.95,3216.00 134.95,3216.00
             134.95,3216.00 129.86,3229.00 129.86,3229.00
             129.86,3229.00 116.78,3273.00 116.78,3273.00
             116.78,3273.00 109.19,3294.00 109.19,3294.00
             109.19,3294.00 100.97,3324.00 100.97,3324.00
             100.97,3324.00 94.93,3340.00 94.93,3340.00
             94.93,3340.00 92.28,3352.00 92.28,3352.00
             92.28,3352.00 80.59,3391.00 80.59,3391.00
             80.59,3391.00 63.28,3454.00 63.28,3454.00
             63.28,3454.00 56.52,3473.00 56.52,3473.00
             56.52,3473.00 50.58,3494.00 50.58,3494.00
             50.58,3494.00 46.43,3507.00 46.43,3507.00
             46.43,3507.00 42.79,3523.00 42.79,3523.00
             42.79,3523.00 36.48,3544.00 36.48,3544.00
             36.48,3544.00 32.92,3554.00 32.92,3554.00
             32.92,3554.00 31.40,3562.00 31.40,3562.00
             31.40,3562.00 29.53,3568.00 29.53,3568.00
             29.53,3568.00 28.42,3576.00 28.42,3576.00
             27.28,3579.34 25.17,3580.46 23.44,3586.00
             23.44,3586.00 20.12,3600.00 20.12,3600.00
             20.12,3600.00 9.58,3641.00 9.58,3641.00
             5.78,3654.67 0.02,3673.07 0.00,3687.00
             0.00,3687.00 0.00,4368.00 0.00,4368.00
             0.00,4371.15 -0.30,4375.83 1.82,4378.36
             4.07,4381.05 10.60,4382.64 14.00,4383.58
             14.00,4383.58 45.00,4390.34 45.00,4390.34
             45.00,4390.34 59.00,4394.64 59.00,4394.64
             62.57,4396.23 64.03,4398.23 68.00,4399.45
             68.00,4399.45 76.00,4401.04 76.00,4401.04
             76.00,4401.04 85.00,4403.96 85.00,4403.96
             85.00,4403.96 98.00,4406.75 98.00,4406.75
             98.00,4406.75 115.00,4412.33 115.00,4412.33
             115.00,4412.33 125.00,4413.59 125.00,4413.59
             125.00,4413.59 138.00,4416.68 138.00,4416.68
             138.00,4416.68 150.00,4418.29 150.00,4418.29
             150.00,4418.29 162.00,4421.68 162.00,4421.68
             162.00,4421.68 179.00,4423.52 179.00,4423.52
             179.00,4423.52 193.00,4427.00 193.00,4427.00
             193.00,4427.00 195.00,4431.00 195.00,4431.00
             195.00,4431.00 195.00,4433.00 195.00,4433.00
             195.00,4433.00 193.00,4435.00 193.00,4435.00
             198.35,4440.56 197.71,4451.56 198.04,4459.00
             198.45,4468.47 199.33,4471.46 203.00,4480.00
             198.58,4481.91 201.76,4486.35 203.00,4490.00
             206.34,4499.84 210.78,4509.71 212.41,4520.00
             212.41,4520.00 214.34,4539.00 214.34,4539.00
             214.34,4539.00 216.67,4546.00 216.67,4546.00
             216.67,4546.00 217.89,4555.00 217.89,4555.00
             221.02,4569.10 223.70,4574.35 224.93,4590.00
             225.15,4594.71 223.63,4596.73 224.93,4600.00
             227.32,4605.25 233.58,4608.19 237.83,4619.00
             240.55,4625.89 237.73,4629.77 243.07,4644.00
             244.56,4647.98 244.09,4648.80 248.00,4651.00
             246.14,4657.30 247.96,4656.57 250.15,4662.00
             250.15,4662.00 252.54,4670.00 252.54,4670.00
             252.54,4670.00 255.25,4677.00 255.25,4677.00
             257.70,4684.46 259.61,4691.89 263.13,4699.00
             265.63,4704.05 268.63,4706.45 270.61,4712.00
             270.61,4712.00 273.43,4727.00 273.43,4727.00
             275.78,4735.33 277.79,4736.57 278.00,4746.00
             278.00,4746.00 3370.00,4746.00 3370.00,4746.00
             3370.00,4746.00 3370.00,3215.00 3370.00,3215.00
             3370.00,3215.00 3370.00,2864.00 3370.00,2864.00
             3370.00,2864.00 3370.00,2791.00 3370.00,2791.00
             3369.98,2775.75 3363.70,2776.17 3354.13,2766.71
             3354.13,2766.71 3347.37,2758.28 3347.37,2758.28
             3347.37,2758.28 3337.21,2748.00 3337.21,2748.00
             3337.21,2748.00 3323.29,2733.00 3323.29,2733.00
             3318.77,2727.81 3316.45,2723.06 3310.00,2720.00
             3310.28,2712.93 3307.39,2712.27 3305.09,2706.00
             3300.75,2694.16 3306.18,2686.78 3298.00,2682.00
             3298.00,2682.00 3299.00,2679.00 3299.00,2679.00
             3294.76,2678.03 3278.38,2673.17 3275.38,2671.03
             3272.88,2669.25 3272.19,2666.59 3268.82,2663.47
             3264.15,2659.15 3256.21,2656.12 3250.00,2655.00
             3250.00,2655.00 3251.00,2652.00 3251.00,2652.00
             3238.69,2645.09 3237.40,2643.00 3223.00,2638.00
             3223.00,2638.00 3224.00,2636.00 3224.00,2636.00
             3224.00,2636.00 3208.00,2628.00 3208.00,2628.00
             3208.00,2628.00 3209.00,2625.00 3209.00,2625.00
             3209.00,2625.00 3201.00,2624.00 3201.00,2624.00
             3198.00,2617.11 3193.07,2616.00 3187.04,2612.62
             3183.12,2610.43 3182.48,2608.26 3178.96,2605.99
             3175.23,2603.58 3171.92,2603.58 3169.28,2602.03
             3172.46,2603.90 3149.00,2587.81 3152.28,2590.58
             3149.15,2587.94 3149.06,2586.64 3144.00,2583.04
             3144.00,2583.04 3131.00,2574.79 3131.00,2574.79
             3131.00,2574.79 3116.00,2563.65 3116.00,2563.65
             3111.96,2561.15 3109.98,2561.25 3105.00,2557.70
             3105.00,2557.70 3086.00,2542.74 3086.00,2542.74
             3081.82,2539.72 3079.29,2537.23 3074.00,2538.00
             3070.74,2530.03 3062.51,2525.53 3056.00,2520.34
             3047.93,2513.90 3037.40,2502.36 3028.00,2498.00
             3027.69,2492.18 3021.48,2488.47 3017.00,2485.42
             3017.00,2485.42 3004.00,2474.93 3004.00,2474.93
             2999.57,2472.26 2994.85,2472.08 2991.00,2469.00
             2986.91,2468.11 2986.47,2467.05 2983.00,2465.26
             2977.24,2462.30 2967.22,2457.05 2961.00,2458.00
             2959.01,2452.47 2956.83,2455.48 2949.00,2450.08
             2942.68,2445.72 2935.09,2443.49 2928.00,2440.65
             2928.00,2440.65 2900.00,2428.85 2900.00,2428.85
             2900.00,2428.85 2881.00,2420.69 2881.00,2420.69
             2881.00,2420.69 2866.00,2413.45 2866.00,2413.45
             2866.00,2413.45 2853.00,2408.94 2853.00,2408.94
             2853.00,2408.94 2843.00,2404.47 2843.00,2404.47
             2843.00,2404.47 2835.28,2402.08 2835.28,2402.08
             2835.28,2402.08 2824.00,2395.26 2824.00,2395.26
             2824.00,2395.26 2801.00,2385.57 2801.00,2385.57
             2801.00,2385.57 2788.00,2379.31 2788.00,2379.31
             2788.00,2379.31 2777.00,2374.69 2777.00,2374.69
             2777.00,2374.69 2767.00,2368.98 2767.00,2368.98
             2767.00,2368.98 2758.00,2366.65 2758.00,2366.65
             2758.00,2366.65 2747.00,2361.31 2747.00,2361.31
             2747.00,2361.31 2733.00,2355.60 2733.00,2355.60
             2733.00,2355.60 2719.00,2351.07 2719.00,2351.07
             2719.00,2351.07 2697.00,2340.60 2697.00,2340.60
             2697.00,2340.60 2673.00,2331.55 2673.00,2331.55
             2673.00,2331.55 2662.00,2326.45 2662.00,2326.45
             2662.00,2326.45 2646.00,2320.69 2646.00,2320.69
             2646.00,2320.69 2628.83,2311.47 2628.83,2311.47
             2628.83,2311.47 2623.00,2309.78 2623.00,2309.78
             2623.00,2309.78 2612.00,2305.72 2612.00,2305.72
             2603.12,2303.06 2602.39,2304.62 2592.00,2299.68
             2592.00,2299.68 2579.00,2291.98 2579.00,2291.98
             2579.00,2291.98 2534.00,2271.99 2534.00,2271.99
             2534.00,2271.99 2520.00,2265.57 2520.00,2265.57
             2520.00,2265.57 2505.00,2262.98 2505.00,2262.98
             2505.00,2262.98 2497.00,2260.93 2497.00,2260.93
             2497.00,2260.93 2486.00,2262.00 2486.00,2262.00
             2468.56,2262.21 2468.56,2260.36 2454.00,2252.17
             2454.00,2252.17 2436.00,2243.42 2436.00,2243.42
             2436.00,2243.42 2419.00,2235.31 2419.00,2235.31
             2419.00,2235.31 2390.00,2221.69 2390.00,2221.69
             2390.00,2221.69 2366.00,2208.69 2366.00,2208.69
             2366.00,2208.69 2357.00,2203.37 2357.00,2203.37
             2357.00,2203.37 2335.00,2194.13 2335.00,2194.13
             2335.00,2194.13 2319.00,2186.31 2319.00,2186.31
             2319.00,2186.31 2296.00,2176.93 2296.00,2176.93
             2296.00,2176.93 2286.00,2175.48 2286.00,2175.48
             2278.15,2173.81 2267.40,2169.80 2260.00,2166.58
             2250.82,2162.58 2244.30,2157.34 2236.00,2152.01
             2236.00,2152.01 2228.17,2147.42 2228.17,2147.42
             2228.17,2147.42 2219.00,2140.97 2219.00,2140.97
             2219.00,2140.97 2212.00,2137.31 2212.00,2137.31
             2212.00,2137.31 2206.00,2132.69 2206.00,2132.69
             2198.35,2127.70 2182.52,2127.26 2177.09,2117.98
             2174.15,2112.96 2175.48,2108.31 2174.70,2103.00
             2173.94,2097.84 2172.16,2095.57 2171.39,2092.00
             2171.39,2092.00 2169.71,2074.00 2169.71,2074.00
             2169.71,2074.00 2167.28,2060.00 2167.28,2060.00
             2165.93,2050.45 2165.04,2040.63 2165.00,2031.00
             2165.00,2031.00 2160.14,1997.00 2160.14,1997.00
             2160.14,1997.00 2160.14,1965.00 2160.14,1965.00
             2160.00,1962.88 2159.92,1960.02 2160.14,1958.00
             2160.14,1958.00 2174.12,1932.00 2174.12,1932.00
             2176.71,1925.81 2176.00,1919.59 2176.00,1913.00
             2176.00,1913.00 2184.00,1913.00 2184.00,1913.00
             2184.00,1913.00 2181.00,1911.00 2181.00,1911.00
             2181.00,1911.00 2182.00,1902.00 2182.00,1902.00
             2182.00,1902.00 2184.00,1904.00 2184.00,1904.00
             2184.00,1904.00 2185.00,1904.00 2185.00,1904.00
             2188.25,1886.72 2186.32,1896.54 2186.00,1882.00
             2186.00,1882.00 2192.00,1887.00 2192.00,1887.00
             2192.00,1887.00 2194.23,1887.00 2194.23,1887.00
             2194.23,1887.00 2194.23,1876.00 2194.23,1876.00
             2194.23,1876.00 2195.46,1871.00 2195.46,1871.00
             2195.46,1871.00 2195.46,1865.00 2195.46,1865.00
             2195.46,1865.00 2197.65,1858.00 2197.65,1858.00
             2197.65,1858.00 2197.65,1851.58 2197.65,1851.58
             2197.65,1851.58 2205.13,1841.00 2205.13,1841.00
             2205.13,1841.00 2208.31,1819.00 2208.31,1819.00
             2208.31,1819.00 2211.66,1810.00 2211.66,1810.00
             2211.66,1810.00 2210.63,1796.00 2210.63,1796.00
             2210.63,1796.00 2212.82,1790.00 2212.82,1790.00
             2212.82,1790.00 2212.82,1782.00 2212.82,1782.00
             2212.82,1782.00 2213.98,1776.00 2213.98,1776.00
             2213.98,1776.00 2213.00,1773.00 2213.00,1773.00
             2221.03,1770.16 2218.82,1765.81 2218.08,1759.00
             2218.08,1759.00 2218.08,1749.00 2218.08,1749.00
             2220.23,1752.29 2221.87,1754.93 2225.04,1757.47
             2231.68,1762.78 2246.56,1764.90 2255.00,1765.00
             2264.70,1765.11 2277.53,1762.61 2286.00,1757.79
             2286.00,1757.79 2294.00,1752.34 2294.00,1752.34
             2297.02,1750.29 2300.20,1748.38 2302.83,1745.82
             2311.31,1737.53 2323.80,1717.64 2326.47,1706.00
             2327.07,1703.38 2327.00,1700.67 2327.00,1698.00
             2327.00,1698.00 2327.00,1672.00 2327.00,1672.00
             2327.00,1672.00 2329.58,1651.00 2329.58,1651.00
             2329.58,1651.00 2330.91,1636.00 2330.91,1636.00
             2330.91,1636.00 2333.00,1607.00 2333.00,1607.00
             2333.00,1607.00 2334.29,1582.00 2334.29,1582.00
             2334.29,1582.00 2337.16,1565.00 2337.16,1565.00
             2337.16,1565.00 2340.53,1554.00 2340.53,1554.00
             2340.53,1554.00 2342.13,1540.00 2342.13,1540.00
             2342.13,1540.00 2346.92,1514.00 2346.92,1514.00
             2346.92,1514.00 2348.46,1501.00 2348.46,1501.00
             2348.46,1501.00 2350.54,1492.00 2350.54,1492.00
             2350.54,1492.00 2355.66,1463.00 2355.66,1463.00
             2357.20,1455.67 2359.63,1448.57 2359.96,1441.00
             2360.43,1430.34 2358.03,1423.07 2356.44,1413.00
             2356.44,1413.00 2354.42,1392.00 2354.42,1392.00
             2354.42,1392.00 2351.28,1367.00 2351.28,1367.00
             2351.28,1367.00 2349.83,1347.00 2349.83,1347.00
             2349.83,1347.00 2347.40,1335.00 2347.40,1335.00
             2344.56,1320.82 2341.45,1311.22 2326.00,1306.57
             2322.19,1305.42 2318.96,1305.05 2315.00,1305.00
             2309.36,1304.94 2302.36,1305.86 2299.40,1299.95
             2296.78,1295.49 2299.92,1283.71 2299.40,1278.00
             2299.40,1278.00 2294.47,1246.00 2294.47,1246.00
             2294.47,1246.00 2291.32,1237.00 2291.32,1237.00
             2289.28,1231.49 2283.65,1223.29 2287.44,1218.02
             2288.81,1216.11 2291.28,1213.81 2293.58,1213.14
             2299.03,1211.55 2315.68,1215.47 2322.00,1216.00
             2323.37,1211.53 2324.27,1210.61 2329.00,1211.00
             2329.00,1211.00 2316.00,1189.00 2316.00,1189.00
             2316.00,1189.00 2325.00,1184.00 2325.00,1184.00
             2325.00,1184.00 2322.00,1173.00 2322.00,1173.00
             2322.00,1173.00 2330.00,1174.15 2330.00,1174.15
             2330.00,1174.15 2355.00,1168.00 2355.00,1168.00
             2355.00,1168.00 2354.00,1164.00 2354.00,1164.00
             2349.54,1165.13 2342.37,1166.79 2338.00,1165.11
             2332.11,1162.84 2331.80,1158.49 2329.01,1154.00
             2329.01,1154.00 2320.66,1143.00 2320.66,1143.00
             2314.98,1135.00 2314.51,1137.66 2310.47,1133.70
             2305.02,1128.38 2303.04,1121.37 2303.00,1114.00
             2303.00,1114.00 2301.14,1082.00 2301.14,1082.00
             2301.14,1082.00 2301.14,1064.00 2301.14,1064.00
             2301.14,1064.00 2296.72,1052.00 2296.72,1052.00
             2296.72,1052.00 2288.89,1027.00 2288.89,1027.00
             2288.89,1027.00 2287.68,1015.00 2287.68,1015.00
             2287.68,1015.00 2285.24,1006.00 2285.24,1006.00
             2285.24,1006.00 2280.67,985.00 2280.67,985.00
             2280.67,985.00 2277.79,967.00 2277.79,967.00
             2277.79,967.00 2272.52,944.00 2272.52,944.00
             2272.52,944.00 2268.30,929.00 2268.30,929.00
             2268.30,929.00 2266.70,912.00 2266.70,912.00
             2266.70,912.00 2263.44,897.00 2263.44,897.00
             2263.44,897.00 2261.54,882.00 2261.54,882.00
             2261.54,882.00 2256.42,860.00 2256.42,860.00
             2256.42,860.00 2254.56,845.00 2254.56,845.00
             2254.56,845.00 2244.25,803.00 2244.25,803.00
             2244.25,803.00 2230.60,774.00 2230.60,774.00
             2225.30,761.00 2225.35,760.50 2217.99,748.00
             2217.99,748.00 2210.52,736.00 2210.52,736.00
             2210.52,736.00 2207.03,727.28 2207.03,727.28
             2207.03,727.28 2194.22,710.00 2194.22,710.00
             2187.42,699.96 2188.39,692.65 2176.00,687.00
             2176.00,687.00 2169.00,673.00 2169.00,673.00
             2165.36,671.82 2165.16,667.39 2164.00,664.00
             2164.00,664.00 2159.13,653.00 2159.13,653.00
             2159.13,653.00 2156.24,641.00 2156.24,641.00
             2154.72,636.58 2152.56,634.02 2150.63,630.00
             2150.63,630.00 2143.69,614.00 2143.69,614.00
             2143.69,614.00 2138.89,606.72 2138.89,606.72
             2137.22,603.54 2137.73,600.82 2134.68,595.00
             2134.68,595.00 2124.45,579.00 2124.45,579.00
             2124.45,579.00 2116.00,563.00 2116.00,563.00
             2116.00,563.00 2113.00,564.00 2113.00,564.00
             2106.23,550.18 2088.74,536.76 2077.00,526.70
             2077.00,526.70 2069.00,519.32 2069.00,519.32
             2069.00,519.32 2051.00,504.72 2051.00,504.72
             2051.00,504.72 2038.00,492.58 2038.00,492.58
             2038.00,492.58 2010.00,477.32 2010.00,477.32
             2010.00,477.32 2003.01,474.21 2003.01,474.21
             1998.88,472.21 1998.35,470.48 1994.91,468.36
             1994.91,468.36 1985.00,463.52 1985.00,463.52
             1980.56,460.85 1979.50,458.26 1974.00,458.00
             1970.71,451.76 1957.58,445.82 1951.00,443.00
             1951.00,443.00 1921.00,430.21 1921.00,430.21
             1921.00,430.21 1893.00,424.27 1893.00,424.27
             1893.00,424.27 1869.00,417.29 1869.00,417.29
             1869.00,417.29 1845.00,411.30 1845.00,411.30
             1845.00,411.30 1834.00,406.47 1834.00,406.47
             1834.00,406.47 1816.00,401.33 1816.00,401.33
             1797.36,395.13 1785.20,390.10 1765.00,390.00
             1765.00,390.00 1742.00,389.32 1742.00,389.32
             1742.00,389.32 1723.00,390.00 1723.00,390.00
             1723.00,390.00 1707.00,388.18 1707.00,388.18
             1707.00,388.18 1679.00,389.09 1679.00,389.09
             1679.00,389.09 1670.00,389.99 1670.00,389.99
             1670.00,389.99 1654.00,388.84 1654.00,388.84
             1654.00,388.84 1637.00,388.84 1637.00,388.84
             1637.00,388.84 1630.00,388.84 1630.00,388.84
             1625.87,388.25 1614.75,390.21 1610.00,390.87
             1610.00,390.87 1596.00,392.52 1596.00,392.52
             1596.00,392.52 1585.00,395.68 1585.00,395.68
             1580.46,396.45 1579.68,395.75 1574.00,397.44
             1574.00,397.44 1562.00,402.20 1562.00,402.20
             1549.88,407.06 1549.87,406.52 1539.00,414.63
             1534.95,417.65 1532.27,418.69 1532.00,424.00 Z
           M 2169.00,675.00
           C 2169.00,675.00 2169.00,676.00 2169.00,676.00
             2169.00,676.00 2168.00,675.00 2168.00,675.00
             2168.00,675.00 2169.00,675.00 2169.00,675.00 Z
           M 2320.00,1172.00
           C 2320.00,1172.00 2320.00,1173.00 2320.00,1173.00
             2320.00,1173.00 2319.00,1172.00 2319.00,1172.00
             2319.00,1172.00 2320.00,1172.00 2320.00,1172.00 Z
           M 2208.00,1815.00
           C 2208.00,1815.00 2208.00,1816.00 2208.00,1816.00
             2208.00,1816.00 2207.00,1815.00 2207.00,1815.00
             2207.00,1815.00 2208.00,1815.00 2208.00,1815.00 Z
           M 2462.00,2258.00
           C 2462.00,2258.00 2462.00,2259.00 2462.00,2259.00
             2462.00,2259.00 2461.00,2258.00 2461.00,2258.00
             2461.00,2258.00 2462.00,2258.00 2462.00,2258.00 Z
           M 750.00,2491.00
           C 750.00,2491.00 750.00,2492.00 750.00,2492.00
             750.00,2492.00 749.00,2491.00 749.00,2491.00
             749.00,2491.00 750.00,2491.00 750.00,2491.00 Z
           M 3083.00,2542.00
           C 3083.00,2542.00 3083.00,2543.00 3083.00,2543.00
             3083.00,2543.00 3082.00,2542.00 3082.00,2542.00
             3082.00,2542.00 3083.00,2542.00 3083.00,2542.00 Z
           M 3128.00,2574.00
           C 3128.00,2574.00 3128.00,2575.00 3128.00,2575.00
             3128.00,2575.00 3127.00,2574.00 3127.00,2574.00
             3127.00,2574.00 3128.00,2574.00 3128.00,2574.00 Z
           M 3262.00,2660.00
           C 3262.00,2660.00 3262.00,2661.00 3262.00,2661.00
             3262.00,2661.00 3261.00,2660.00 3261.00,2660.00
             3261.00,2660.00 3262.00,2660.00 3262.00,2660.00 Z
           M 3268.00,2664.00
           C 3268.00,2664.00 3268.00,2665.00 3268.00,2665.00
             3268.00,2665.00 3267.00,2664.00 3267.00,2664.00
             3267.00,2664.00 3268.00,2664.00 3268.00,2664.00 Z
           M 276.00,2906.00
           C 276.00,2906.00 276.00,2907.00 276.00,2907.00
             276.00,2907.00 275.00,2906.00 275.00,2906.00
             275.00,2906.00 276.00,2906.00 276.00,2906.00 Z
           M 269.00,2949.00
           C 269.00,2949.00 269.00,2950.00 269.00,2950.00
             269.00,2950.00 268.00,2949.00 268.00,2949.00
             268.00,2949.00 269.00,2949.00 269.00,2949.00 Z
           M 268.00,2951.00
           C 268.00,2951.00 268.00,2952.00 268.00,2952.00
             268.00,2952.00 267.00,2951.00 267.00,2951.00
             267.00,2951.00 268.00,2951.00 268.00,2951.00 Z
           M 259.00,2972.00
           C 259.00,2972.00 259.00,2973.00 259.00,2973.00
             259.00,2973.00 258.00,2972.00 258.00,2972.00
             258.00,2972.00 259.00,2972.00 259.00,2972.00 Z
           M 3015.00,4361.00
           C 3015.00,4361.00 3027.16,4377.00 3027.16,4377.00
             3027.16,4377.00 3034.87,4405.00 3034.87,4405.00
             3037.72,4416.40 3045.37,4443.57 3044.96,4454.00
             3044.96,4454.00 3044.04,4462.00 3044.04,4462.00
             3044.04,4462.00 3044.04,4477.00 3044.04,4477.00
             3034.38,4474.94 3032.69,4463.15 3030.00,4455.00
             3030.00,4455.00 3019.85,4419.00 3019.85,4419.00
             3019.85,4419.00 3011.13,4387.00 3011.13,4387.00
             3008.78,4377.61 3004.00,4366.34 3015.00,4361.00 Z
           M 227.00,4599.00
           C 227.00,4599.00 227.00,4600.00 227.00,4600.00
             227.00,4600.00 226.00,4599.00 226.00,4599.00
             226.00,4599.00 227.00,4599.00 227.00,4599.00 Z" />
</svg>
