<?xml version="1.0" encoding="UTF-8" standalone="no"?>
<!DOCTYPE svg PUBLIC "-//W3C//DTD SVG 20010904//EN"
              "http://www.w3.org/TR/2001/REC-SVG-20010904/DTD/svg10.dtd">

<svg xmlns="http://www.w3.org/2000/svg"
     width="12.9433in" height="13.7267in"
     viewBox="0 0 3883 4118">
  <path id="face"
        fill="none" stroke="black" stroke-width="1"
        d="M 1965.00,372.00
           C 1951.37,374.48 1957.36,380.98 1946.00,384.00
             1942.83,396.23 1919.19,395.61 1909.00,397.30
             1903.76,398.17 1902.94,399.77 1897.00,400.12
             1897.00,400.12 1890.00,400.12 1890.00,400.12
             1890.00,400.12 1885.51,401.51 1885.51,401.51
             1884.01,401.65 1884.21,401.11 1884.00,401.00
             1868.13,406.81 1861.55,400.79 1842.00,407.89
             1842.00,407.89 1830.00,413.78 1830.00,413.78
             1830.00,413.78 1822.04,416.31 1822.04,416.31
             1822.04,416.31 1813.96,421.82 1813.96,421.82
             1813.96,421.82 1800.17,427.46 1800.17,427.46
             1797.12,428.98 1795.17,431.54 1790.00,433.79
             1790.00,433.79 1783.09,436.16 1783.09,436.16
             1783.09,436.16 1776.91,440.82 1776.91,440.82
             1776.91,440.82 1763.26,447.74 1763.26,447.74
             1763.26,447.74 1757.87,451.57 1757.87,451.57
             1757.87,451.57 1747.00,454.83 1747.00,454.83
             1747.00,454.83 1734.70,461.50 1734.70,461.50
             1734.70,461.50 1727.04,464.50 1727.04,464.50
             1727.04,464.50 1721.72,468.32 1721.72,468.32
             1721.72,468.32 1715.32,471.04 1715.32,471.04
             1715.32,471.04 1709.82,474.62 1709.82,474.62
             1709.82,474.62 1699.04,478.59 1699.04,478.59
             1694.53,480.67 1685.22,488.69 1683.00,493.00
             1683.00,493.00 1680.00,492.00 1680.00,492.00
             1680.00,492.00 1681.00,495.00 1681.00,495.00
             1674.24,495.40 1674.63,496.57 1669.00,499.43
             1662.83,502.56 1659.96,503.47 1654.00,507.80
             1648.47,511.84 1643.28,517.23 1637.00,520.00
             1637.00,520.00 1637.00,523.00 1637.00,523.00
             1637.00,523.00 1634.00,522.00 1634.00,522.00
             1634.00,522.00 1634.00,523.00 1634.00,523.00
             1634.00,523.00 1636.00,523.00 1636.00,523.00
             1636.00,523.00 1622.56,533.27 1622.56,533.27
             1622.56,533.27 1616.00,543.00 1616.00,543.00
             1616.00,543.00 1615.00,545.00 1615.00,545.00
             1614.04,550.62 1610.87,549.00 1608.12,552.48
             1606.42,554.63 1598.89,569.94 1598.00,573.00
             1598.00,573.00 1596.00,570.00 1596.00,570.00
             1593.08,580.40 1592.89,577.79 1588.73,586.09
             1588.73,586.09 1586.10,591.83 1586.10,591.83
             1586.10,591.83 1581.58,600.00 1581.58,600.00
             1581.58,600.00 1579.37,608.00 1579.37,608.00
             1579.37,608.00 1576.46,615.00 1576.46,615.00
             1576.46,615.00 1574.90,621.91 1574.90,621.91
             1573.12,627.62 1568.63,632.46 1564.00,636.00
             1563.40,640.97 1560.49,642.30 1557.29,646.00
             1553.07,650.87 1548.75,656.46 1548.00,663.00
             1543.33,664.30 1539.55,673.77 1537.30,677.96
             1537.30,677.96 1531.44,686.04 1531.44,686.04
             1529.21,690.11 1528.34,695.62 1526.76,699.96
             1526.76,699.96 1521.54,710.00 1521.54,710.00
             1520.79,712.51 1521.00,717.23 1521.00,720.00
             1516.45,721.78 1517.16,725.57 1515.84,730.00
             1513.35,738.42 1508.33,741.56 1511.00,751.00
             1503.10,755.75 1504.09,762.10 1501.18,769.25
             1501.18,769.25 1494.76,782.00 1494.76,782.00
             1494.76,782.00 1488.24,810.00 1488.24,810.00
             1488.24,810.00 1486.57,820.00 1486.57,820.00
             1486.57,820.00 1482.63,829.00 1482.63,829.00
             1482.63,829.00 1479.62,847.00 1479.62,847.00
             1479.62,847.00 1477.61,854.00 1477.61,854.00
             1477.61,854.00 1476.74,862.00 1476.74,862.00
             1476.74,862.00 1473.57,881.00 1473.57,881.00
             1473.57,881.00 1471.39,895.00 1471.39,895.00
             1470.26,899.44 1468.92,902.05 1468.10,907.00
             1468.10,907.00 1468.10,921.00 1468.10,921.00
             1468.10,921.00 1466.17,934.00 1466.17,934.00
             1466.17,934.00 1465.06,950.00 1465.06,950.00
             1465.06,950.00 1465.06,966.00 1465.06,966.00
             1464.08,973.01 1463.02,971.07 1463.00,981.00
             1463.00,981.00 1462.04,1004.00 1462.04,1004.00
             1461.75,1012.50 1464.07,1012.60 1463.95,1019.00
             1463.83,1024.84 1461.60,1026.35 1462.09,1034.00
             1462.09,1034.00 1463.30,1046.00 1463.30,1046.00
             1463.30,1046.00 1466.30,1054.00 1466.30,1054.00
             1467.53,1058.20 1469.64,1070.51 1470.00,1074.94
             1455.30,1074.99 1447.45,1069.20 1433.00,1074.94
             1426.95,1077.26 1413.85,1091.30 1411.02,1097.00
             1410.02,1099.02 1410.04,1100.82 1409.84,1103.00
             1409.84,1103.00 1409.84,1119.00 1409.84,1119.00
             1409.84,1119.00 1409.84,1128.00 1409.84,1128.00
             1409.84,1128.00 1412.13,1165.00 1412.13,1165.00
             1412.13,1165.00 1413.89,1173.00 1413.89,1173.00
             1413.89,1173.00 1415.61,1189.00 1415.61,1189.00
             1415.61,1189.00 1419.17,1203.00 1419.17,1203.00
             1419.17,1203.00 1420.53,1209.91 1420.53,1209.91
             1420.53,1209.91 1422.92,1215.66 1422.92,1215.66
             1422.92,1215.66 1425.00,1231.00 1425.00,1231.00
             1429.24,1235.54 1428.96,1243.96 1429.87,1250.00
             1429.87,1250.00 1435.56,1281.00 1435.56,1281.00
             1435.56,1281.00 1436.43,1290.00 1436.43,1290.00
             1436.43,1290.00 1438.88,1301.00 1438.88,1301.00
             1438.88,1301.00 1440.45,1311.00 1440.45,1311.00
             1440.45,1311.00 1451.57,1350.00 1451.57,1350.00
             1451.57,1350.00 1456.28,1363.00 1456.28,1363.00
             1456.28,1363.00 1466.34,1405.91 1466.34,1405.91
             1466.34,1405.91 1470.46,1413.04 1470.46,1413.04
             1470.46,1413.04 1472.32,1419.00 1472.32,1419.00
             1476.99,1431.01 1480.09,1434.89 1487.41,1445.00
             1491.79,1451.05 1491.89,1452.33 1498.00,1457.71
             1502.29,1461.49 1507.06,1466.72 1513.00,1467.00
             1516.58,1472.31 1525.90,1475.78 1532.00,1477.23
             1547.40,1480.90 1545.92,1482.00 1563.00,1482.00
             1563.00,1482.00 1564.66,1494.00 1564.66,1494.00
             1564.66,1494.00 1564.00,1501.00 1564.00,1501.00
             1564.00,1501.00 1565.82,1508.00 1565.82,1508.00
             1565.82,1508.00 1567.00,1523.00 1567.00,1523.00
             1569.06,1519.65 1568.58,1518.78 1568.00,1515.00
             1571.79,1522.45 1571.67,1532.72 1571.18,1541.00
             1571.18,1541.00 1571.82,1550.00 1571.82,1550.00
             1571.83,1557.13 1570.20,1555.51 1573.00,1564.00
             1573.00,1564.00 1574.00,1564.00 1574.00,1564.00
             1574.00,1564.00 1576.00,1562.00 1576.00,1562.00
             1576.00,1562.00 1576.98,1578.00 1576.98,1578.00
             1576.73,1585.57 1572.71,1583.94 1578.00,1592.00
             1578.00,1592.00 1583.00,1591.00 1583.00,1591.00
             1580.54,1604.93 1588.19,1607.38 1592.28,1619.00
             1592.28,1619.00 1593.83,1626.99 1593.83,1626.99
             1593.83,1626.99 1597.56,1640.00 1597.56,1640.00
             1597.56,1640.00 1607.43,1662.00 1607.43,1662.00
             1607.43,1662.00 1611.09,1671.00 1611.09,1671.00
             1612.60,1675.64 1611.28,1674.83 1614.00,1680.00
             1614.00,1680.00 1616.00,1679.00 1616.00,1679.00
             1617.37,1684.17 1618.27,1687.91 1617.91,1693.28
             1617.49,1699.63 1622.07,1701.42 1625.02,1707.01
             1625.02,1707.01 1634.37,1730.96 1634.37,1730.96
             1634.37,1730.96 1644.09,1753.00 1644.09,1753.00
             1644.09,1753.00 1649.93,1769.04 1649.93,1769.04
             1649.93,1769.04 1661.60,1789.00 1661.60,1789.00
             1661.60,1789.00 1677.60,1816.00 1677.60,1816.00
             1677.60,1816.00 1698.61,1851.00 1698.61,1851.00
             1698.61,1851.00 1720.91,1875.00 1720.91,1875.00
             1720.91,1875.00 1741.04,1897.00 1741.04,1897.00
             1741.04,1897.00 1773.00,1929.00 1773.00,1929.00
             1773.00,1929.00 1794.00,1949.91 1794.00,1949.91
             1794.00,1949.91 1825.00,1977.15 1825.00,1977.15
             1825.00,1977.15 1855.00,2002.93 1855.00,2002.93
             1855.00,2002.93 1886.00,2016.42 1886.00,2016.42
             1886.00,2016.42 1922.00,2031.64 1922.00,2031.64
             1922.00,2031.64 1965.00,2042.87 1965.00,2042.87
             1977.12,2045.90 1999.75,2052.98 2011.00,2053.00
             2011.00,2053.00 2093.00,2053.00 2093.00,2053.00
             2093.00,2053.00 2151.00,2047.16 2151.00,2047.16
             2151.00,2047.16 2190.00,2042.39 2190.00,2042.39
             2190.00,2042.39 2220.00,2025.85 2220.00,2025.85
             2220.00,2025.85 2250.00,2008.86 2250.00,2008.86
             2250.00,2008.86 2266.00,1999.76 2266.00,1999.76
             2271.28,1996.32 2277.39,1989.61 2282.00,1985.00
             2282.00,1985.00 2307.00,1960.00 2307.00,1960.00
             2307.00,1960.00 2330.83,1936.00 2330.83,1936.00
             2330.83,1936.00 2366.80,1892.00 2366.80,1892.00
             2366.80,1892.00 2386.26,1868.00 2386.26,1868.00
             2386.26,1868.00 2408.33,1835.00 2408.33,1835.00
             2408.33,1835.00 2433.60,1797.09 2433.60,1797.09
             2433.60,1797.09 2439.59,1788.00 2439.59,1788.00
             2443.27,1779.31 2441.80,1765.16 2451.00,1760.00
             2451.08,1754.56 2452.13,1755.86 2453.49,1751.72
             2454.26,1749.40 2453.75,1747.59 2455.00,1745.17
             2455.00,1745.17 2464.07,1732.99 2464.07,1732.99
             2467.02,1727.87 2469.79,1724.63 2467.00,1719.00
             2467.00,1719.00 2470.00,1719.00 2470.00,1719.00
             2470.39,1707.84 2475.99,1710.77 2478.97,1704.90
             2480.10,1702.59 2479.32,1699.48 2478.97,1697.00
             2493.54,1702.69 2480.93,1685.04 2488.00,1680.00
             2488.00,1680.00 2488.00,1677.00 2488.00,1677.00
             2488.00,1677.00 2485.00,1674.00 2485.00,1674.00
             2485.00,1674.00 2491.00,1674.00 2491.00,1674.00
             2492.99,1659.86 2492.81,1664.84 2497.25,1655.00
             2498.40,1652.46 2498.34,1649.15 2501.00,1648.00
             2501.00,1648.00 2500.00,1641.00 2500.00,1641.00
             2500.00,1641.00 2503.49,1624.28 2503.49,1624.28
             2503.49,1624.28 2505.00,1619.00 2505.00,1619.00
             2505.00,1619.00 2507.91,1609.03 2507.91,1609.03
             2509.99,1601.35 2511.45,1600.18 2507.91,1592.00
             2511.43,1589.43 2511.82,1585.96 2513.00,1582.00
             2513.00,1582.00 2515.00,1584.00 2515.00,1584.00
             2515.00,1584.00 2516.00,1584.00 2516.00,1584.00
             2516.00,1584.00 2515.00,1576.00 2515.00,1576.00
             2515.00,1576.00 2512.09,1577.00 2512.09,1577.00
             2512.09,1577.00 2512.09,1566.00 2512.09,1566.00
             2512.09,1566.00 2514.00,1554.00 2514.00,1554.00
             2514.00,1554.00 2517.00,1557.00 2517.00,1557.00
             2517.00,1557.00 2519.11,1536.00 2519.11,1536.00
             2519.11,1536.00 2522.70,1526.00 2522.70,1526.00
             2522.70,1526.00 2524.00,1512.00 2524.00,1512.00
             2524.00,1512.00 2527.00,1515.00 2527.00,1515.00
             2523.57,1506.62 2523.00,1509.31 2526.00,1498.00
             2526.00,1498.00 2527.00,1503.00 2527.00,1503.00
             2527.00,1503.00 2530.01,1503.00 2530.01,1503.00
             2530.01,1503.00 2530.01,1492.83 2530.01,1492.83
             2530.01,1492.83 2531.58,1486.00 2531.58,1486.00
             2531.86,1482.51 2530.13,1477.03 2535.14,1472.27
             2535.14,1472.27 2564.00,1454.08 2564.00,1454.08
             2567.82,1451.32 2570.99,1451.95 2572.00,1447.00
             2576.52,1445.53 2576.15,1444.39 2577.00,1440.00
             2582.41,1439.95 2583.60,1436.75 2582.00,1432.00
             2585.70,1431.81 2585.52,1431.73 2588.00,1429.00
             2588.00,1429.00 2585.00,1429.00 2585.00,1429.00
             2585.00,1429.00 2589.00,1427.00 2589.00,1427.00
             2592.87,1421.14 2591.32,1422.21 2593.53,1418.28
             2593.53,1418.28 2600.32,1407.00 2600.32,1407.00
             2601.97,1403.90 2606.44,1393.24 2607.37,1390.00
             2607.37,1390.00 2608.63,1384.00 2608.63,1384.00
             2608.63,1384.00 2611.23,1377.00 2611.23,1377.00
             2611.23,1377.00 2615.19,1358.00 2615.19,1358.00
             2615.19,1358.00 2618.49,1349.00 2618.49,1349.00
             2618.49,1349.00 2623.91,1329.00 2623.91,1329.00
             2623.91,1329.00 2627.24,1319.00 2627.24,1319.00
             2627.24,1319.00 2630.75,1303.00 2630.75,1303.00
             2630.75,1303.00 2633.80,1293.83 2633.80,1293.83
             2633.80,1293.83 2637.06,1277.00 2637.06,1277.00
             2637.06,1277.00 2637.06,1268.00 2637.06,1268.00
             2637.06,1268.00 2639.68,1257.00 2639.68,1257.00
             2639.68,1257.00 2640.26,1251.00 2640.26,1251.00
             2640.26,1251.00 2643.69,1237.00 2643.69,1237.00
             2643.69,1237.00 2647.71,1216.00 2647.71,1216.00
             2647.71,1216.00 2650.16,1191.00 2650.16,1191.00
             2650.16,1191.00 2651.79,1180.00 2651.79,1180.00
             2651.79,1180.00 2651.22,1171.00 2651.22,1171.00
             2651.22,1171.00 2651.22,1158.00 2651.22,1158.00
             2651.07,1152.75 2650.01,1153.28 2650.00,1144.00
             2650.00,1144.00 2650.00,1126.00 2650.00,1126.00
             2650.00,1126.00 2649.00,1113.00 2649.00,1113.00
             2649.00,1113.00 2650.29,1086.00 2650.29,1086.00
             2650.29,1086.00 2649.16,1077.00 2649.16,1077.00
             2648.87,1074.35 2649.02,1072.61 2648.00,1070.00
             2647.09,1067.70 2644.10,1063.26 2642.49,1061.30
             2637.37,1055.07 2628.67,1053.01 2621.00,1053.00
             2615.86,1052.99 2609.97,1051.37 2608.00,1057.00
             2604.28,1057.13 2603.17,1056.76 2601.00,1060.00
             2601.00,1060.00 2595.00,1060.00 2595.00,1060.00
             2595.00,1060.00 2599.74,1045.00 2599.74,1045.00
             2601.79,1034.70 2600.24,1032.12 2601.32,1027.00
             2603.13,1018.47 2605.51,1009.69 2603.00,1001.00
             2609.82,998.97 2613.93,997.32 2619.82,993.09
             2623.06,990.76 2634.17,977.12 2635.42,973.83
             2635.42,973.83 2637.05,961.00 2637.05,961.00
             2638.44,948.56 2638.13,938.35 2635.69,926.00
             2633.60,915.43 2630.17,912.00 2631.00,899.00
             2627.02,897.74 2626.95,893.68 2627.00,890.00
             2624.00,888.97 2624.91,886.08 2624.00,882.00
             2624.00,882.00 2626.00,884.00 2626.00,884.00
             2626.00,884.00 2627.00,884.00 2627.00,884.00
             2625.85,880.56 2625.65,880.23 2622.00,880.00
             2622.00,880.00 2622.00,874.00 2622.00,874.00
             2622.00,874.00 2621.00,877.00 2621.00,877.00
             2617.93,871.86 2617.74,870.93 2618.00,865.00
             2618.00,865.00 2617.00,864.00 2617.00,864.00
             2617.00,864.00 2615.00,865.00 2615.00,865.00
             2615.00,865.00 2613.00,854.00 2613.00,854.00
             2613.00,854.00 2613.00,858.00 2613.00,858.00
             2613.00,858.00 2612.00,852.00 2612.00,852.00
             2607.64,850.61 2605.91,844.10 2605.00,840.00
             2605.00,840.00 2608.00,843.00 2608.00,843.00
             2608.00,843.00 2604.00,840.00 2604.00,840.00
             2604.00,840.00 2605.00,834.00 2605.00,834.00
             2599.46,830.62 2600.44,826.69 2597.96,821.72
             2594.81,815.38 2593.81,819.01 2591.00,809.00
             2591.00,809.00 2585.00,810.00 2585.00,810.00
             2585.79,805.41 2585.32,804.97 2583.00,801.00
             2577.66,799.34 2581.86,794.60 2577.57,789.09
             2575.42,786.33 2571.85,784.30 2569.26,780.57
             2564.47,773.67 2556.80,755.33 2553.85,747.00
             2552.24,742.48 2549.56,729.36 2544.79,728.00
             2544.79,728.00 2544.79,723.00 2544.79,723.00
             2544.79,723.00 2538.94,708.05 2538.94,708.05
             2538.94,708.05 2534.81,702.53 2534.81,702.53
             2534.81,702.53 2532.84,696.00 2532.84,696.00
             2532.84,696.00 2529.63,690.00 2529.63,690.00
             2529.63,690.00 2527.20,683.00 2527.20,683.00
             2527.20,683.00 2522.40,673.28 2522.40,673.28
             2522.40,673.28 2519.72,666.01 2519.72,666.01
             2519.72,666.01 2513.27,656.96 2513.27,656.96
             2513.27,656.96 2509.90,649.28 2509.90,649.28
             2509.90,649.28 2504.14,640.00 2504.14,640.00
             2504.14,640.00 2498.56,628.00 2498.56,628.00
             2498.56,628.00 2493.80,621.00 2493.80,621.00
             2493.80,621.00 2485.05,606.00 2485.05,606.00
             2485.05,606.00 2476.85,596.72 2476.85,596.72
             2476.85,596.72 2474.01,589.28 2474.01,589.28
             2474.01,589.28 2461.01,572.25 2461.01,572.25
             2461.01,572.25 2449.00,554.00 2449.00,554.00
             2445.06,553.58 2445.11,551.44 2444.00,548.00
             2444.00,548.00 2441.00,548.00 2441.00,548.00
             2439.96,542.68 2435.83,540.87 2432.23,537.25
             2428.92,533.92 2429.18,531.78 2426.40,528.59
             2426.40,528.59 2416.60,519.68 2416.60,519.68
             2413.14,515.86 2412.79,512.35 2407.00,512.00
             2407.00,512.00 2407.00,507.00 2407.00,507.00
             2400.66,503.61 2390.97,500.26 2391.00,492.00
             2391.00,492.00 2370.21,479.47 2370.21,479.47
             2365.13,475.04 2361.71,467.24 2353.00,467.00
             2348.53,460.22 2343.12,457.50 2337.23,452.56
             2337.23,452.56 2331.91,447.67 2331.91,447.67
             2327.91,444.29 2326.39,442.09 2321.00,443.00
             2319.20,440.00 2312.70,434.56 2309.58,432.87
             2306.36,431.12 2304.30,432.07 2303.00,428.00
             2303.00,428.00 2291.09,424.17 2291.09,424.17
             2287.29,422.56 2287.60,421.59 2282.00,420.02
             2282.00,420.02 2274.00,418.54 2274.00,418.54
             2274.00,418.54 2252.00,410.80 2252.00,410.80
             2252.00,410.80 2241.25,403.46 2241.25,403.46
             2241.25,403.46 2232.30,399.16 2232.30,399.16
             2230.05,397.42 2226.12,389.79 2215.00,388.00
             2214.09,384.60 2212.13,385.03 2209.00,383.96
             2204.30,382.36 2199.90,379.86 2195.00,378.95
             2184.97,377.08 2187.03,375.95 2181.00,374.53
             2181.00,374.53 2148.00,370.34 2148.00,370.34
             2148.00,370.34 2142.00,368.49 2142.00,368.49
             2142.00,368.49 2135.00,367.72 2135.00,367.72
             2135.00,367.72 2121.00,366.34 2121.00,366.34
             2117.49,365.63 2114.70,364.04 2112.00,367.00
             2106.08,365.51 2099.10,364.62 2093.00,364.36
             2093.00,364.36 2085.00,364.36 2085.00,364.36
             2085.00,364.36 2078.00,362.28 2078.00,362.28
             2070.38,360.48 2066.77,360.09 2059.00,360.00
             2059.00,360.00 2036.00,358.00 2036.00,358.00
             2036.00,358.00 2018.00,357.09 2018.00,357.09
             2010.48,356.67 2003.31,359.40 1996.00,359.90
             1996.00,359.90 1985.00,359.32 1985.00,359.32
             1978.12,359.87 1966.05,364.26 1965.00,372.00 Z
           M 1785.00,436.00
           C 1785.00,436.00 1785.00,437.00 1785.00,437.00
             1785.00,437.00 1784.00,436.00 1784.00,436.00
             1784.00,436.00 1785.00,436.00 1785.00,436.00 Z
           M 1500.00,766.00
           C 1500.00,766.00 1500.00,767.00 1500.00,767.00
             1500.00,767.00 1501.00,766.00 1501.00,766.00
             1501.00,766.00 1500.00,766.00 1500.00,766.00 Z
           M 2568.00,782.00
           C 2568.00,782.00 2568.00,783.00 2568.00,783.00
             2568.00,783.00 2567.00,782.00 2567.00,782.00
             2567.00,782.00 2568.00,782.00 2568.00,782.00 Z
           M 2578.00,793.00
           C 2578.00,793.00 2578.00,794.00 2578.00,794.00
             2578.00,794.00 2577.00,793.00 2577.00,793.00
             2577.00,793.00 2578.00,793.00 2578.00,793.00 Z
           M 2579.00,797.00
           C 2579.00,797.00 2579.00,798.00 2579.00,798.00
             2579.00,798.00 2578.00,797.00 2578.00,797.00
             2578.00,797.00 2579.00,797.00 2579.00,797.00 Z
           M 2584.00,805.00
           C 2584.00,805.00 2584.00,806.00 2584.00,806.00
             2584.00,806.00 2583.00,805.00 2583.00,805.00
             2583.00,805.00 2584.00,805.00 2584.00,805.00 Z
           M 2590.00,812.00
           C 2590.00,812.00 2590.00,813.00 2590.00,813.00
             2590.00,813.00 2589.00,812.00 2589.00,812.00
             2589.00,812.00 2590.00,812.00 2590.00,812.00 Z
           M 2606.00,834.00
           C 2606.00,834.00 2607.00,838.00 2607.00,838.00
             2607.00,838.00 2606.00,834.00 2606.00,834.00 Z
           M 2603.00,836.00
           C 2603.00,836.00 2603.00,837.00 2603.00,837.00
             2603.00,837.00 2602.00,836.00 2602.00,836.00
             2602.00,836.00 2603.00,836.00 2603.00,836.00 Z
           M 2617.00,866.00
           C 2617.00,866.00 2617.00,867.00 2617.00,867.00
             2617.00,867.00 2616.00,866.00 2616.00,866.00
             2616.00,866.00 2617.00,866.00 2617.00,866.00 Z
           M 2619.00,871.00
           C 2619.00,871.00 2619.00,872.00 2619.00,872.00
             2619.00,872.00 2620.00,871.00 2620.00,871.00
             2620.00,871.00 2619.00,871.00 2619.00,871.00 Z
           M 2622.00,877.00
           C 2622.00,877.00 2622.00,878.00 2622.00,878.00
             2622.00,878.00 2621.00,877.00 2621.00,877.00
             2621.00,877.00 2622.00,877.00 2622.00,877.00 Z
           M 2624.00,880.00
           C 2624.00,880.00 2624.00,881.00 2624.00,881.00
             2624.00,881.00 2623.00,880.00 2623.00,880.00
             2623.00,880.00 2624.00,880.00 2624.00,880.00 Z
           M 2629.00,897.00
           C 2629.00,897.00 2629.00,898.00 2629.00,898.00
             2629.00,898.00 2630.00,897.00 2630.00,897.00
             2630.00,897.00 2629.00,897.00 2629.00,897.00 Z
           M 2632.00,908.00
           C 2632.00,908.00 2632.00,909.00 2632.00,909.00
             2632.00,909.00 2633.00,908.00 2633.00,908.00
             2633.00,908.00 2632.00,908.00 2632.00,908.00 Z
           M 2638.00,934.00
           C 2638.00,934.00 2640.00,939.00 2640.00,939.00
             2640.00,939.00 2640.00,934.00 2640.00,934.00
             2640.00,934.00 2638.00,934.00 2638.00,934.00 Z
           M 2595.00,1061.00
           C 2595.00,1061.00 2595.00,1062.00 2595.00,1062.00
             2595.00,1062.00 2594.00,1061.00 2594.00,1061.00
             2594.00,1061.00 2595.00,1061.00 2595.00,1061.00 Z
           M 2570.00,1449.00
           C 2570.00,1449.00 2570.00,1450.00 2570.00,1450.00
             2570.00,1450.00 2569.00,1449.00 2569.00,1449.00
             2569.00,1449.00 2570.00,1449.00 2570.00,1449.00 Z
           M 2558.00,1459.00
           C 2558.00,1459.00 2557.00,1462.00 2557.00,1462.00
             2557.00,1462.00 2560.00,1460.00 2560.00,1460.00
             2560.00,1460.00 2558.00,1459.00 2558.00,1459.00 Z
           M 2527.00,1504.00
           C 2527.00,1504.00 2527.00,1505.00 2527.00,1505.00
             2527.00,1505.00 2528.00,1504.00 2528.00,1504.00
             2528.00,1504.00 2527.00,1504.00 2527.00,1504.00 Z
           M 1582.00,1585.00
           C 1582.00,1585.00 1583.00,1589.00 1583.00,1589.00
             1583.00,1589.00 1582.00,1585.00 1582.00,1585.00 Z
           M 2507.00,1615.00
           C 2507.00,1615.00 2507.00,1616.00 2507.00,1616.00
             2507.00,1616.00 2508.00,1615.00 2508.00,1615.00
             2508.00,1615.00 2507.00,1615.00 2507.00,1615.00 Z
           M 1614.00,1687.00
           C 1614.00,1687.00 1615.00,1692.00 1615.00,1692.00
             1615.00,1692.00 1614.00,1687.00 1614.00,1687.00 Z
           M 2452.00,1758.00
           C 2452.00,1758.00 2452.00,1759.00 2452.00,1759.00
             2452.00,1759.00 2453.00,1758.00 2453.00,1758.00
             2453.00,1758.00 2452.00,1758.00 2452.00,1758.00 Z
           M 2445.00,1776.00
           C 2445.00,1776.00 2445.00,1777.00 2445.00,1777.00
             2445.00,1777.00 2446.00,1776.00 2446.00,1776.00
             2446.00,1776.00 2445.00,1776.00 2445.00,1776.00 Z" />
  <path id="profile"
        fill="none" stroke="black" stroke-width="1"
        d="M 1965.00,372.00
           C 1951.37,374.48 1957.36,380.98 1946.00,384.00
             1942.83,396.23 1919.19,395.61 1909.00,397.30
             1903.76,398.17 1902.94,399.77 1897.00,400.12
             1897.00,400.12 1890.00,400.12 1890.00,400.12
             1890.00,400.12 1885.51,401.51 1885.51,401.51
             1884.01,401.65 1884.21,401.11 1884.00,401.00
             1868.13,406.81 1861.55,400.79 1842.00,407.89
             1842.00,407.89 1830.00,413.78 1830.00,413.78
             1830.00,413.78 1822.04,416.31 1822.04,416.31
             1822.04,416.31 1813.96,421.82 1813.96,421.82
             1813.96,421.82 1800.17,427.46 1800.17,427.46
             1797.12,428.98 1795.17,431.54 1790.00,433.79
             1790.00,433.79 1783.09,436.16 1783.09,436.16
             1783.09,436.16 1776.91,440.82 1776.91,440.82
             1776.91,440.82 1763.26,447.74 1763.26,447.74
             1763.26,447.74 1757.87,451.57 1757.87,451.57
             1757.87,451.57 1747.00,454.83 1747.00,454.83
             1747.00,454.83 1734.70,461.50 1734.70,461.50
             1734.70,461.50 1727.04,464.50 1727.04,464.50
             1727.04,464.50 1721.72,468.32 1721.72,468.32
             1721.72,468.32 1715.32,471.04 1715.32,471.04
             1715.32,471.04 1709.82,474.62 1709.82,474.62
             1709.82,474.62 1699.04,478.59 1699.04,478.59
             1694.53,480.67 1685.22,488.69 1683.00,493.00
             1683.00,493.00 1680.00,492.00 1680.00,492.00
             1680.00,492.00 1681.00,495.00 1681.00,495.00
             1674.24,495.40 1674.63,496.57 1669.00,499.43
             1662.83,502.56 1659.96,503.47 1654.00,507.80
             1648.47,511.84 1643.28,517.23 1637.00,520.00
             1637.00,520.00 1637.00,523.00 1637.00,523.00
             1637.00,523.00 1634.00,522.00 1634.00,522.00
             1634.00,522.00 1634.00,523.00 1634.00,523.00
             1634.00,523.00 1636.00,523.00 1636.00,523.00
             1636.00,523.00 1622.56,533.27 1622.56,533.27
             1622.56,533.27 1616.00,543.00 1616.00,543.00
             1616.00,543.00 1615.00,545.00 1615.00,545.00
             1614.04,550.62 1610.87,549.00 1608.12,552.48
             1606.42,554.63 1598.89,569.94 1598.00,573.00
             1598.00,573.00 1596.00,570.00 1596.00,570.00
             1593.08,580.40 1592.89,577.79 1588.73,586.09
             1588.73,586.09 1586.10,591.83 1586.10,591.83
             1586.10,591.83 1581.58,600.00 1581.58,600.00
             1581.58,600.00 1579.37,608.00 1579.37,608.00
             1579.37,608.00 1576.46,615.00 1576.46,615.00
             1576.46,615.00 1574.90,621.91 1574.90,621.91
             1573.12,627.62 1568.63,632.46 1564.00,636.00
             1563.40,640.97 1560.49,642.30 1557.29,646.00
             1553.07,650.87 1548.75,656.46 1548.00,663.00
             1543.33,664.30 1539.55,673.77 1537.30,677.96
             1537.30,677.96 1531.44,686.04 1531.44,686.04
             1529.21,690.11 1528.34,695.62 1526.76,699.96
             1526.76,699.96 1521.54,710.00 1521.54,710.00
             1520.79,712.51 1521.00,717.23 1521.00,720.00
             1516.45,721.78 1517.16,725.57 1515.84,730.00
             1513.35,738.42 1508.33,741.56 1511.00,751.00
             1503.10,755.75 1504.09,762.10 1501.18,769.25
             1501.18,769.25 1494.76,782.00 1494.76,782.00
             1494.76,782.00 1488.24,810.00 1488.24,810.00
             1488.24,810.00 1486.57,820.00 1486.57,820.00
             1486.57,820.00 1482.63,829.00 1482.63,829.00
             1482.63,829.00 1479.62,847.00 1479.62,847.00
             1479.62,847.00 1477.61,854.00 1477.61,854.00
             1477.61,854.00 1476.74,862.00 1476.74,862.00
             1476.74,862.00 1473.57,881.00 1473.57,881.00
             1473.57,881.00 1471.39,895.00 1471.39,895.00
             1470.26,899.44 1468.92,902.05 1468.10,907.00
             1468.10,907.00 1468.10,921.00 1468.10,921.00
             1468.10,921.00 1466.17,934.00 1466.17,934.00
             1466.17,934.00 1465.06,950.00 1465.06,950.00
             1465.06,950.00 1465.06,966.00 1465.06,966.00
             1464.08,973.01 1463.02,971.07 1463.00,981.00
             1463.00,981.00 1462.04,1004.00 1462.04,1004.00
             1461.75,1012.50 1464.07,1012.60 1463.95,1019.00
             1463.83,1024.84 1461.60,1026.35 1462.09,1034.00
             1462.09,1034.00 1463.30,1046.00 1463.30,1046.00
             1463.30,1046.00 1466.30,1054.00 1466.30,1054.00
             1467.53,1058.20 1469.64,1070.51 1470.00,1074.94
             1455.30,1074.99 1447.45,1069.20 1433.00,1074.94
             1426.95,1077.26 1413.85,1091.30 1411.02,1097.00
             1410.02,1099.02 1410.04,1100.82 1409.84,1103.00
             1409.84,1103.00 1409.84,1119.00 1409.84,1119.00
             1409.84,1119.00 1409.84,1128.00 1409.84,1128.00
             1409.84,1128.00 1412.13,1165.00 1412.13,1165.00
             1412.13,1165.00 1413.89,1173.00 1413.89,1173.00
             1413.89,1173.00 1415.61,1189.00 1415.61,1189.00
             1415.61,1189.00 1419.17,1203.00 1419.17,1203.00
             1419.17,1203.00 1420.53,1209.91 1420.53,1209.91
             1420.53,1209.91 1422.92,1215.66 1422.92,1215.66
             1422.92,1215.66 1425.00,1231.00 1425.00,1231.00
             1429.24,1235.54 1428.96,1243.96 1429.87,1250.00
             1429.87,1250.00 1435.56,1281.00 1435.56,1281.00
             1435.56,1281.00 1436.43,1290.00 1436.43,1290.00
             1436.43,1290.00 1438.88,1301.00 1438.88,1301.00
             1438.88,1301.00 1440.45,1311.00 1440.45,1311.00
             1440.45,1311.00 1451.57,1350.00 1451.57,1350.00
             1451.57,1350.00 1456.28,1363.00 1456.28,1363.00
             1456.28,1363.00 1466.34,1405.91 1466.34,1405.91
             1466.34,1405.91 1470.46,1413.04 1470.46,1413.04
             1470.46,1413.04 1472.32,1419.00 1472.32,1419.00
             1476.99,1431.01 1480.09,1434.89 1487.41,1445.00
             1491.79,1451.05 1491.89,1452.33 1498.00,1457.71
             1502.29,1461.49 1507.06,1466.72 1513.00,1467.00
             1516.58,1472.31 1525.90,1475.78 1532.00,1477.23
             1547.40,1480.90 1545.92,1482.00 1563.00,1482.00
             1563.00,1482.00 1564.66,1494.00 1564.66,1494.00
             1564.66,1494.00 1564.00,1501.00 1564.00,1501.00
             1564.00,1501.00 1565.82,1508.00 1565.82,1508.00
             1565.82,1508.00 1567.00,1523.00 1567.00,1523.00
             1569.06,1519.65 1568.58,1518.78 1568.00,1515.00
             1571.79,1522.45 1571.67,1532.72 1571.18,1541.00
             1571.18,1541.00 1571.82,1550.00 1571.82,1550.00
             1571.83,1557.13 1570.20,1555.51 1573.00,1564.00
             1573.00,1564.00 1574.00,1564.00 1574.00,1564.00
             1574.00,1564.00 1576.00,1562.00 1576.00,1562.00
             1576.00,1562.00 1576.98,1578.00 1576.98,1578.00
             1576.73,1585.57 1572.71,1583.94 1578.00,1592.00
             1578.00,1592.00 1583.00,1591.00 1583.00,1591.00
             1580.54,1604.93 1588.19,1607.38 1592.28,1619.00
             1592.28,1619.00 1593.83,1626.99 1593.83,1626.99
             1593.83,1626.99 1597.56,1640.00 1597.56,1640.00
             1597.56,1640.00 1607.43,1662.00 1607.43,1662.00
             1607.43,1662.00 1611.09,1671.00 1611.09,1671.00
             1612.60,1675.64 1611.28,1674.83 1614.00,1680.00
             1614.00,1680.00 1616.00,1679.00 1616.00,1679.00
             1617.37,1684.17 1618.27,1687.91 1617.91,1693.28
             1617.49,1699.63 1622.07,1701.42 1625.02,1707.01
             1625.02,1707.01 1635.73,1734.58 1635.73,1734.58
             1638.36,1740.55 1647.37,1759.08 1647.88,1764.58
             1648.02,1766.09 1647.33,1768.46 1647.00,1770.00
             1647.00,1770.00 1648.00,1770.00 1648.00,1770.00
             1648.00,1770.00 1648.00,1768.00 1648.00,1768.00
             1650.68,1777.75 1645.65,1771.69 1652.00,1785.00
             1652.00,1785.00 1648.00,1782.00 1648.00,1782.00
             1648.00,1782.00 1648.00,1792.00 1648.00,1792.00
             1648.00,1792.00 1651.00,1791.00 1651.00,1791.00
             1651.00,1791.00 1649.00,1795.00 1649.00,1795.00
             1649.00,1795.00 1650.21,1809.00 1650.21,1809.00
             1650.21,1809.00 1652.04,1815.58 1652.04,1815.58
             1652.04,1815.58 1652.04,1821.01 1652.04,1821.01
             1652.04,1821.01 1652.96,1828.00 1652.96,1828.00
             1652.96,1828.00 1652.96,1842.00 1652.96,1842.00
             1652.96,1842.00 1654.96,1861.00 1654.96,1861.00
             1654.96,1861.00 1654.96,1881.00 1654.96,1881.00
             1655.21,1882.69 1655.54,1884.26 1654.96,1885.90
             1653.07,1889.78 1642.13,1894.29 1638.00,1895.40
             1638.00,1895.40 1631.00,1896.88 1631.00,1896.88
             1631.00,1896.88 1624.00,1900.62 1624.00,1900.62
             1619.09,1902.71 1618.05,1900.13 1615.00,1906.00
             1608.96,1904.85 1604.27,1908.10 1599.00,1910.68
             1599.00,1910.68 1588.00,1915.87 1588.00,1915.87
             1588.00,1915.87 1581.00,1918.35 1581.00,1918.35
             1581.00,1918.35 1571.00,1923.00 1571.00,1923.00
             1571.00,1923.00 1573.00,1925.00 1573.00,1925.00
             1573.00,1925.00 1562.16,1927.56 1562.16,1927.56
             1559.40,1928.77 1558.55,1930.69 1554.99,1932.35
             1554.99,1932.35 1530.00,1941.09 1530.00,1941.09
             1522.84,1943.60 1520.23,1945.80 1512.00,1946.00
             1506.64,1951.44 1489.41,1956.31 1481.01,1960.71
             1481.01,1960.71 1467.56,1967.92 1467.56,1967.92
             1467.56,1967.92 1460.04,1969.91 1460.04,1969.91
             1460.04,1969.91 1448.28,1975.19 1448.28,1975.19
             1448.28,1975.19 1442.96,1978.21 1442.96,1978.21
             1442.96,1978.21 1436.28,1981.03 1436.28,1981.03
             1436.28,1981.03 1428.00,1985.96 1428.00,1985.96
             1428.00,1985.96 1419.09,1989.24 1419.09,1989.24
             1419.09,1989.24 1413.20,1992.53 1413.20,1992.53
             1413.20,1992.53 1405.17,1995.27 1405.17,1995.27
             1400.39,1997.98 1401.16,2000.16 1393.00,2002.00
             1391.65,2005.82 1381.09,2010.06 1377.00,2010.00
             1377.00,2010.00 1380.00,2011.00 1380.00,2011.00
             1380.00,2011.00 1372.00,2012.00 1372.00,2012.00
             1372.00,2012.00 1374.00,2015.00 1374.00,2015.00
             1370.13,2015.82 1356.77,2021.98 1353.29,2024.06
             1353.29,2024.06 1345.83,2029.01 1345.83,2029.01
             1345.83,2029.01 1326.01,2041.05 1326.01,2041.05
             1326.01,2041.05 1314.37,2047.20 1314.37,2047.20
             1308.30,2051.43 1312.99,2052.18 1298.00,2058.00
             1298.00,2058.00 1299.00,2060.00 1299.00,2060.00
             1288.11,2065.20 1286.67,2067.87 1277.99,2075.00
             1272.98,2079.11 1270.59,2082.52 1264.00,2083.00
             1264.00,2083.00 1263.00,2090.00 1263.00,2090.00
             1263.00,2090.00 1260.00,2089.00 1260.00,2089.00
             1254.13,2098.16 1242.43,2098.02 1233.00,2101.38
             1233.00,2101.38 1216.00,2109.43 1216.00,2109.43
             1216.00,2109.43 1200.00,2115.24 1200.00,2115.24
             1200.00,2115.24 1192.00,2117.10 1192.00,2117.10
             1182.29,2120.36 1184.47,2121.74 1170.00,2125.00
             1170.00,2125.00 1171.00,2127.00 1171.00,2127.00
             1171.00,2127.00 1162.00,2130.79 1162.00,2130.79
             1162.00,2130.79 1143.83,2136.99 1143.83,2136.99
             1143.83,2136.99 1125.00,2145.62 1125.00,2145.62
             1125.00,2145.62 1117.00,2147.58 1117.00,2147.58
             1117.00,2147.58 1097.00,2155.00 1097.00,2155.00
             1097.00,2155.00 1098.00,2157.00 1098.00,2157.00
             1092.54,2157.73 1084.51,2159.70 1079.58,2162.08
             1079.58,2162.08 1068.00,2168.34 1068.00,2168.34
             1068.00,2168.34 1053.00,2172.39 1053.00,2172.39
             1053.00,2172.39 1044.01,2177.06 1044.01,2177.06
             1044.01,2177.06 1036.83,2179.12 1036.83,2179.12
             1036.83,2179.12 1030.00,2183.98 1030.00,2183.98
             1027.22,2185.39 1024.60,2184.87 1021.09,2186.55
             1018.08,2188.00 1016.87,2189.94 1013.07,2191.45
             1013.07,2191.45 1003.00,2193.78 1003.00,2193.78
             994.37,2196.78 990.46,2201.54 981.00,2202.00
             981.00,2202.00 982.00,2205.00 982.00,2205.00
             982.00,2205.00 976.00,2204.00 976.00,2204.00
             976.00,2204.00 979.00,2206.00 979.00,2206.00
             979.00,2206.00 971.00,2207.91 971.00,2207.91
             971.00,2207.91 958.00,2213.00 958.00,2213.00
             958.00,2213.00 958.00,2211.00 958.00,2211.00
             958.00,2211.00 929.00,2228.00 929.00,2228.00
             929.00,2228.00 909.00,2245.14 909.00,2245.14
             909.00,2245.14 897.87,2255.71 897.87,2255.71
             897.87,2255.71 885.20,2264.75 885.20,2264.75
             885.20,2264.75 880.00,2270.00 880.00,2270.00
             880.00,2270.00 868.00,2275.00 868.00,2275.00
             868.00,2275.00 869.00,2277.00 869.00,2277.00
             855.97,2277.73 857.13,2285.74 848.00,2289.00
             846.83,2292.40 843.23,2292.50 840.00,2293.00
             840.00,2293.00 840.00,2296.00 840.00,2296.00
             832.69,2297.12 829.43,2302.23 823.72,2306.20
             823.72,2306.20 817.42,2309.67 817.42,2309.67
             813.63,2312.03 812.70,2313.44 808.00,2314.00
             804.20,2321.29 800.97,2318.53 796.09,2321.00
             792.95,2322.59 789.62,2325.95 788.00,2329.00
             783.47,2329.22 780.83,2332.29 777.00,2334.79
             777.00,2334.79 762.24,2343.86 762.24,2343.86
             762.24,2343.86 756.89,2349.89 756.89,2349.89
             754.35,2352.50 753.33,2352.44 752.00,2356.00
             745.46,2356.34 746.95,2359.64 743.49,2363.68
             743.49,2363.68 730.34,2376.18 730.34,2376.18
             730.34,2376.18 721.79,2384.47 721.79,2384.47
             721.79,2384.47 715.61,2389.38 715.61,2389.38
             715.61,2389.38 711.47,2394.72 711.47,2394.72
             711.47,2394.72 704.00,2401.97 704.00,2401.97
             704.00,2401.97 696.72,2408.70 696.72,2408.70
             696.72,2408.70 690.68,2413.39 690.68,2413.39
             690.68,2413.39 685.68,2419.71 685.68,2419.71
             679.48,2427.04 667.38,2439.69 659.00,2444.00
             659.00,2444.00 660.00,2447.00 660.00,2447.00
             654.67,2448.80 653.13,2454.73 648.00,2458.31
             648.00,2458.31 642.46,2461.69 642.46,2461.69
             642.46,2461.69 630.33,2474.12 630.33,2474.12
             630.33,2474.12 621.01,2479.02 621.01,2479.02
             612.75,2484.41 610.41,2490.41 610.04,2500.00
             609.86,2504.63 610.54,2506.04 610.82,2510.00
             611.25,2516.19 607.00,2526.91 603.49,2531.96
             603.49,2531.96 597.75,2539.09 597.75,2539.09
             597.75,2539.09 593.54,2545.96 593.54,2545.96
             593.54,2545.96 586.55,2554.04 586.55,2554.04
             586.55,2554.04 579.00,2567.00 579.00,2567.00
             579.00,2567.00 566.45,2586.00 566.45,2586.00
             566.45,2586.00 559.89,2597.83 559.89,2597.83
             559.89,2597.83 547.05,2617.58 547.05,2617.58
             547.05,2617.58 540.51,2630.00 540.51,2630.00
             540.51,2630.00 537.60,2636.91 537.60,2636.91
             537.60,2636.91 530.79,2647.00 530.79,2647.00
             530.79,2647.00 527.78,2654.49 527.78,2654.49
             527.78,2654.49 523.99,2659.18 523.99,2659.18
             523.99,2659.18 516.75,2671.09 516.75,2671.09
             516.75,2671.09 511.30,2682.28 511.30,2682.28
             511.30,2682.28 508.71,2689.58 508.71,2689.58
             508.71,2689.58 499.73,2705.00 499.73,2705.00
             499.73,2705.00 493.91,2717.83 493.91,2717.83
             493.91,2717.83 489.37,2724.04 489.37,2724.04
             489.37,2724.04 476.00,2750.00 476.00,2750.00
             476.00,2750.00 478.00,2747.00 478.00,2747.00
             477.58,2750.41 475.29,2758.77 472.00,2760.00
             472.00,2760.00 472.00,2767.00 472.00,2767.00
             464.68,2769.47 462.91,2774.93 461.00,2782.00
             461.00,2782.00 462.00,2782.00 462.00,2782.00
             462.00,2782.00 462.00,2780.00 462.00,2780.00
             461.05,2785.60 457.01,2785.19 458.00,2793.00
             448.53,2796.07 448.46,2810.67 446.04,2816.00
             442.78,2823.17 439.32,2822.73 439.00,2832.00
             435.44,2833.40 435.56,2834.37 436.00,2838.00
             436.00,2838.00 427.00,2849.00 427.00,2849.00
             427.00,2849.00 426.00,2856.00 426.00,2856.00
             426.00,2856.00 424.00,2855.00 424.00,2855.00
             422.06,2858.56 421.46,2858.91 422.00,2863.00
             418.48,2865.45 416.79,2873.82 415.03,2878.00
             412.83,2883.21 410.26,2884.94 407.90,2889.00
             404.40,2895.03 402.47,2901.52 399.90,2907.91
             398.27,2911.94 392.54,2916.78 394.00,2921.00
             394.00,2921.00 391.00,2921.00 391.00,2921.00
             388.12,2927.17 388.67,2931.40 388.00,2938.00
             388.00,2938.00 384.00,2938.00 384.00,2938.00
             384.12,2943.75 382.93,2946.75 379.00,2951.00
             379.00,2951.00 378.00,2960.00 378.00,2960.00
             378.00,2960.00 376.00,2959.00 376.00,2959.00
             373.39,2967.15 368.09,2974.29 368.00,2983.00
             368.00,2983.00 365.00,2982.00 365.00,2982.00
             365.00,2982.00 362.05,2993.00 362.05,2993.00
             362.05,2993.00 357.70,3001.00 357.70,3001.00
             356.27,3005.34 357.42,3010.29 352.00,3012.00
             352.00,3012.00 348.00,3016.00 348.00,3016.00
             349.29,3021.99 343.97,3033.84 343.00,3040.00
             343.00,3040.00 341.00,3038.00 341.00,3038.00
             341.00,3038.00 337.53,3049.20 337.53,3049.20
             337.53,3049.20 336.60,3053.29 336.60,3053.29
             336.60,3053.29 332.92,3061.00 332.92,3061.00
             332.92,3061.00 331.42,3069.00 331.42,3069.00
             331.42,3069.00 324.07,3083.99 324.07,3083.99
             324.07,3083.99 322.49,3090.28 322.49,3090.28
             322.49,3090.28 318.44,3099.00 318.44,3099.00
             318.44,3099.00 315.95,3107.00 315.95,3107.00
             315.95,3107.00 313.13,3113.00 313.13,3113.00
             313.13,3113.00 309.40,3126.99 309.40,3126.99
             307.90,3130.90 306.53,3131.53 305.27,3134.17
             305.27,3134.17 303.16,3142.00 303.16,3142.00
             303.16,3142.00 298.45,3152.00 298.45,3152.00
             298.45,3152.00 295.02,3164.00 295.02,3164.00
             295.02,3164.00 287.85,3180.00 287.85,3180.00
             285.65,3186.88 284.83,3194.06 280.00,3200.00
             279.92,3205.82 277.72,3204.24 275.94,3210.01
             273.99,3216.34 272.89,3222.96 269.91,3229.00
             269.91,3229.00 262.55,3241.00 262.55,3241.00
             259.83,3246.93 260.63,3251.58 258.85,3255.58
             255.79,3262.45 248.55,3275.77 249.00,3283.00
             241.99,3287.72 241.07,3297.67 238.45,3305.00
             238.45,3305.00 232.23,3318.00 232.23,3318.00
             232.23,3318.00 226.52,3332.00 226.52,3332.00
             226.52,3332.00 219.82,3344.99 219.82,3344.99
             219.82,3344.99 200.37,3374.00 200.37,3374.00
             200.37,3374.00 193.11,3383.09 193.11,3383.09
             193.11,3383.09 185.74,3400.00 185.74,3400.00
             185.74,3400.00 172.93,3428.00 172.93,3428.00
             172.93,3428.00 170.60,3440.00 170.60,3440.00
             170.60,3440.00 162.95,3477.00 162.95,3477.00
             160.52,3486.24 152.38,3508.25 152.00,3516.00
             151.30,3516.19 150.96,3515.77 149.96,3516.77
             149.96,3516.77 145.16,3528.00 145.16,3528.00
             143.61,3531.00 139.96,3538.94 139.04,3542.00
             139.04,3542.00 137.47,3549.00 137.47,3549.00
             137.47,3549.00 134.83,3555.00 134.83,3555.00
             134.83,3555.00 130.33,3568.96 130.33,3568.96
             130.33,3568.96 125.66,3581.00 125.66,3581.00
             124.15,3585.53 123.39,3591.27 119.52,3594.58
             114.66,3598.73 106.70,3595.49 103.56,3600.29
             103.56,3600.29 96.33,3620.00 96.33,3620.00
             94.30,3623.96 89.41,3629.18 88.67,3633.00
             87.95,3636.81 90.78,3644.61 90.16,3647.91
             89.48,3651.49 82.93,3657.84 80.81,3661.28
             79.18,3663.94 78.09,3673.67 78.00,3677.00
             78.00,3677.00 74.00,3679.00 74.00,3679.00
             73.94,3684.53 70.93,3687.08 69.13,3692.00
             67.65,3696.06 66.81,3703.64 67.04,3708.00
             67.45,3715.57 70.85,3719.81 74.19,3726.00
             74.19,3726.00 77.12,3733.82 77.12,3733.82
             77.12,3733.82 84.48,3742.73 84.48,3742.73
             84.48,3742.73 96.00,3755.00 96.00,3755.00
             96.00,3755.00 107.00,3759.00 107.00,3759.00
             108.74,3764.10 111.72,3763.73 116.04,3766.11
             119.86,3768.22 123.15,3770.71 126.00,3774.00
             126.00,3774.00 128.00,3772.00 128.00,3772.00
             128.00,3772.00 141.83,3779.09 141.83,3779.09
             141.83,3779.09 155.96,3786.51 155.96,3786.51
             155.96,3786.51 162.16,3790.47 162.16,3790.47
             162.16,3790.47 169.25,3793.99 169.25,3793.99
             169.25,3793.99 188.00,3806.50 188.00,3806.50
             188.00,3806.50 217.00,3821.31 217.00,3821.31
             217.00,3821.31 255.00,3840.60 255.00,3840.60
             255.00,3840.60 285.00,3855.73 285.00,3855.73
             285.00,3855.73 296.00,3859.77 296.00,3859.77
             296.00,3859.77 331.00,3878.69 331.00,3878.69
             331.00,3878.69 401.00,3916.31 401.00,3916.31
             401.00,3916.31 445.00,3940.00 445.00,3940.00
             445.00,3940.00 441.72,3965.00 441.72,3965.00
             441.72,3965.00 435.84,4014.00 435.84,4014.00
             435.84,4014.00 426.84,4093.00 426.84,4093.00
             426.84,4093.00 424.00,4118.00 424.00,4118.00
             424.00,4118.00 952.00,4118.00 952.00,4118.00
             952.00,4118.00 955.00,4088.00 955.00,4088.00
             955.00,4088.00 957.85,4072.29 957.85,4072.29
             957.85,4072.29 967.00,4064.20 967.00,4064.20
             967.00,4064.20 986.00,4049.00 986.00,4049.00
             986.00,4049.00 986.00,4070.00 986.00,4070.00
             986.00,4070.00 985.00,4085.00 985.00,4085.00
             985.00,4085.00 985.00,4118.00 985.00,4118.00
             985.00,4118.00 3150.00,4118.00 3150.00,4118.00
             3150.00,4118.00 3149.00,4095.00 3149.00,4095.00
             3149.00,4095.00 3148.00,4080.00 3148.00,4080.00
             3148.00,4080.00 3147.00,4060.00 3147.00,4060.00
             3147.00,4060.00 3146.00,4043.00 3146.00,4043.00
             3146.00,4043.00 3146.00,4031.00 3146.00,4031.00
             3146.00,4031.00 3162.00,4038.42 3162.00,4038.42
             3162.00,4038.42 3169.98,4043.39 3169.98,4043.39
             3169.98,4043.39 3172.00,4061.00 3172.00,4061.00
             3172.00,4061.00 3174.00,4101.00 3174.00,4101.00
             3174.00,4101.00 3175.00,4118.00 3175.00,4118.00
             3175.00,4118.00 3714.00,4118.00 3714.00,4118.00
             3714.00,4118.00 3714.00,4097.00 3714.00,4097.00
             3714.00,4097.00 3712.09,4070.00 3712.09,4070.00
             3712.09,4070.00 3709.91,4031.00 3709.91,4031.00
             3709.91,4031.00 3707.91,4001.00 3707.91,4001.00
             3707.91,4001.00 3707.00,3989.00 3707.00,3989.00
             3707.00,3989.00 3707.00,3916.00 3707.00,3916.00
             3707.00,3916.00 3708.00,3899.00 3708.00,3899.00
             3708.00,3899.00 3708.00,3871.00 3708.00,3871.00
             3708.00,3871.00 3709.96,3844.00 3709.96,3844.00
             3710.13,3840.11 3710.22,3830.35 3712.02,3827.17
             3713.50,3824.56 3719.40,3820.58 3722.00,3818.63
             3722.00,3818.63 3744.00,3802.12 3744.00,3802.12
             3744.00,3802.12 3826.00,3742.02 3826.00,3742.02
             3826.00,3742.02 3868.00,3712.42 3868.00,3712.42
             3871.22,3710.12 3881.07,3703.99 3882.40,3700.82
             3883.12,3699.09 3883.00,3695.91 3883.00,3694.00
             3883.00,3694.00 3883.00,3206.00 3883.00,3206.00
             3882.99,3198.19 3879.77,3188.82 3875.93,3182.00
             3873.18,3177.10 3868.06,3174.68 3868.00,3169.00
             3868.00,3169.00 3864.29,3160.42 3864.29,3160.42
             3864.29,3160.42 3861.27,3154.00 3861.27,3154.00
             3861.27,3154.00 3853.58,3141.00 3853.58,3141.00
             3853.58,3141.00 3846.33,3123.00 3846.33,3123.00
             3846.33,3123.00 3841.87,3115.00 3841.87,3115.00
             3841.87,3115.00 3833.37,3098.00 3833.37,3098.00
             3833.37,3098.00 3824.60,3083.09 3824.60,3083.09
             3824.60,3083.09 3821.08,3072.96 3821.08,3072.96
             3821.08,3072.96 3814.03,3058.96 3814.03,3058.96
             3814.03,3058.96 3810.49,3049.42 3810.49,3049.42
             3810.49,3049.42 3803.93,3038.75 3803.93,3038.75
             3803.93,3038.75 3802.05,3032.87 3802.05,3032.87
             3802.05,3032.87 3796.86,3023.57 3796.86,3023.57
             3796.86,3023.57 3790.00,3008.00 3790.00,3008.00
             3787.75,3005.18 3784.74,2997.78 3782.87,2994.09
             3782.87,2994.09 3777.68,2983.17 3777.68,2983.17
             3777.68,2983.17 3773.04,2975.99 3773.04,2975.99
             3773.04,2975.99 3767.59,2962.00 3767.59,2962.00
             3767.59,2962.00 3762.43,2954.00 3762.43,2954.00
             3758.04,2946.74 3753.47,2936.53 3753.00,2928.00
             3749.69,2926.19 3746.24,2921.54 3744.59,2918.08
             3744.59,2918.08 3742.97,2913.20 3742.97,2913.20
             3742.97,2913.20 3739.84,2907.96 3739.84,2907.96
             3737.94,2903.66 3738.46,2901.69 3734.00,2899.00
             3733.28,2889.77 3728.88,2887.26 3725.58,2880.00
             3723.00,2874.31 3721.51,2864.70 3716.00,2861.00
             3716.00,2861.00 3710.00,2847.00 3710.00,2847.00
             3710.00,2847.00 3708.00,2848.00 3708.00,2848.00
             3708.56,2845.01 3709.39,2842.98 3706.00,2842.00
             3705.87,2834.24 3697.62,2823.29 3694.31,2816.00
             3691.87,2810.64 3693.47,2809.35 3688.00,2806.00
             3688.00,2806.00 3681.00,2785.00 3681.00,2785.00
             3681.00,2785.00 3672.00,2774.00 3672.00,2774.00
             3672.71,2769.89 3672.43,2769.35 3669.00,2767.00
             3670.27,2761.43 3666.77,2755.03 3662.00,2752.00
             3662.51,2745.38 3660.21,2745.60 3657.99,2740.00
             3656.77,2736.93 3655.51,2730.44 3653.91,2728.16
             3652.28,2725.83 3651.50,2726.03 3649.00,2726.00
             3649.00,2726.00 3641.89,2704.28 3641.89,2704.28
             3640.50,2701.66 3638.89,2698.80 3636.00,2698.00
             3636.87,2689.38 3633.16,2689.12 3629.86,2682.00
             3629.86,2682.00 3624.19,2669.83 3624.19,2669.83
             3622.55,2665.93 3623.31,2665.11 3620.49,2660.00
             3616.06,2651.98 3609.28,2644.32 3608.00,2635.00
             3608.00,2635.00 3607.00,2635.00 3607.00,2635.00
             3607.00,2635.00 3607.00,2637.00 3607.00,2637.00
             3607.00,2637.00 3599.70,2620.00 3599.70,2620.00
             3599.70,2620.00 3593.19,2609.00 3593.19,2609.00
             3590.50,2603.37 3587.15,2594.59 3582.00,2591.00
             3581.52,2586.14 3578.87,2583.35 3576.78,2579.00
             3576.78,2579.00 3568.97,2561.28 3568.97,2561.28
             3566.04,2556.86 3560.21,2549.31 3560.00,2544.00
             3556.56,2541.87 3547.40,2527.05 3547.00,2523.00
             3544.22,2522.05 3541.28,2514.92 3541.00,2512.00
             3541.00,2512.00 3540.00,2511.00 3540.00,2511.00
             3540.00,2511.00 3538.00,2512.00 3538.00,2512.00
             3536.00,2506.38 3532.05,2495.65 3528.97,2490.99
             3528.97,2490.99 3521.41,2481.92 3521.41,2481.92
             3518.26,2476.75 3511.65,2466.42 3507.00,2463.00
             3507.00,2463.00 3508.00,2460.00 3508.00,2460.00
             3502.66,2456.47 3499.29,2450.91 3495.24,2446.01
             3493.83,2444.29 3492.29,2440.68 3490.00,2442.00
             3488.18,2438.05 3482.57,2431.26 3479.00,2429.00
             3478.73,2424.40 3477.49,2423.62 3473.00,2424.00
             3472.17,2418.88 3467.15,2412.57 3462.91,2409.59
             3462.91,2409.59 3457.37,2407.04 3457.37,2407.04
             3457.37,2407.04 3446.78,2397.74 3446.78,2397.74
             3443.04,2392.98 3440.96,2384.69 3435.00,2383.00
             3433.69,2376.02 3428.77,2376.78 3429.00,2369.00
             3429.00,2369.00 3430.00,2371.00 3430.00,2371.00
             3432.00,2366.62 3432.20,2361.75 3427.87,2358.60
             3424.19,2355.92 3421.50,2358.15 3415.58,2355.55
             3409.07,2352.69 3409.27,2350.99 3404.67,2346.49
             3399.91,2341.83 3393.81,2337.63 3392.00,2331.00
             3392.00,2331.00 3376.00,2320.00 3376.00,2320.00
             3376.36,2313.21 3371.61,2308.68 3367.04,2304.17
             3356.08,2293.35 3354.09,2291.86 3341.58,2283.29
             3337.48,2280.49 3333.54,2275.86 3329.00,2275.00
             3329.00,2275.00 3325.00,2269.00 3325.00,2269.00
             3325.00,2269.00 3323.00,2270.00 3323.00,2270.00
             3321.44,2265.27 3315.75,2261.84 3311.00,2261.00
             3308.96,2257.09 3308.05,2256.61 3304.00,2255.00
             3304.00,2255.00 3305.00,2252.00 3305.00,2252.00
             3305.00,2252.00 3282.96,2239.37 3282.96,2239.37
             3282.96,2239.37 3277.74,2235.19 3277.74,2235.19
             3277.74,2235.19 3268.29,2230.41 3268.29,2230.41
             3268.29,2230.41 3257.96,2222.65 3257.96,2222.65
             3254.32,2220.58 3252.52,2221.39 3249.17,2219.35
             3246.49,2217.72 3245.74,2215.98 3240.17,2212.95
             3240.17,2212.95 3225.17,2206.70 3225.17,2206.70
             3225.17,2206.70 3217.99,2201.89 3217.99,2201.89
             3217.99,2201.89 3209.00,2198.33 3209.00,2198.33
             3209.00,2198.33 3198.83,2191.24 3198.83,2191.24
             3198.83,2191.24 3188.04,2186.92 3188.04,2186.92
             3188.04,2186.92 3181.83,2182.37 3181.83,2182.37
             3181.83,2182.37 3171.00,2177.14 3171.00,2177.14
             3171.00,2177.14 3160.01,2170.25 3160.01,2170.25
             3160.01,2170.25 3148.17,2164.24 3148.17,2164.24
             3148.17,2164.24 3140.00,2158.74 3140.00,2158.74
             3140.00,2158.74 3130.00,2154.37 3130.00,2154.37
             3130.00,2154.37 3111.09,2142.55 3111.09,2142.55
             3111.09,2142.55 3102.00,2135.19 3102.00,2135.19
             3097.65,2132.36 3096.49,2133.40 3093.17,2131.31
             3093.17,2131.31 3082.91,2122.98 3082.91,2122.98
             3082.91,2122.98 3077.04,2119.94 3077.04,2119.94
             3077.04,2119.94 3070.83,2115.76 3070.83,2115.76
             3070.83,2115.76 3059.17,2110.05 3059.17,2110.05
             3059.17,2110.05 3053.91,2106.07 3053.91,2106.07
             3053.91,2106.07 3038.72,2098.47 3038.72,2098.47
             3038.72,2098.47 3019.00,2096.83 3019.00,2096.83
             3010.47,2095.98 2999.32,2093.83 2991.00,2091.71
             2985.03,2090.19 2981.28,2092.23 2976.00,2088.00
             2967.43,2088.32 2968.16,2086.33 2961.00,2084.68
             2961.00,2084.68 2953.00,2083.37 2953.00,2083.37
             2953.00,2083.37 2946.00,2080.96 2946.00,2080.96
             2946.00,2080.96 2938.00,2079.81 2938.00,2079.81
             2938.00,2079.81 2932.00,2077.54 2932.00,2077.54
             2932.00,2077.54 2922.00,2074.78 2922.00,2074.78
             2922.00,2074.78 2913.00,2071.36 2913.00,2071.36
             2913.00,2071.36 2891.00,2064.32 2891.00,2064.32
             2878.46,2059.71 2865.13,2053.47 2852.00,2051.08
             2852.00,2051.08 2836.04,2047.14 2836.04,2047.14
             2836.04,2047.14 2830.72,2044.50 2830.72,2044.50
             2826.98,2043.24 2827.27,2044.85 2818.00,2040.92
             2815.22,2039.74 2809.16,2038.67 2808.00,2036.00
             2801.98,2036.11 2789.21,2030.86 2783.00,2028.52
             2783.00,2028.52 2764.00,2022.56 2764.00,2022.56
             2764.00,2022.56 2742.00,2013.42 2742.00,2013.42
             2742.00,2013.42 2688.00,1995.91 2688.00,1995.91
             2675.68,1991.00 2676.41,1989.11 2672.59,1987.00
             2672.59,1987.00 2660.32,1982.20 2660.32,1982.20
             2660.32,1982.20 2654.82,1978.30 2654.82,1978.30
             2654.82,1978.30 2630.00,1966.18 2630.00,1966.18
             2630.00,1966.18 2622.00,1963.40 2622.00,1963.40
             2622.00,1963.40 2615.00,1959.20 2615.00,1959.20
             2615.00,1959.20 2604.00,1954.78 2604.00,1954.78
             2604.00,1954.78 2592.00,1948.52 2592.00,1948.52
             2592.00,1948.52 2586.04,1946.20 2586.04,1946.20
             2586.04,1946.20 2577.96,1941.21 2577.96,1941.21
             2572.31,1938.66 2563.18,1937.66 2560.00,1932.00
             2560.00,1932.00 2549.00,1928.20 2549.00,1928.20
             2549.00,1928.20 2542.00,1925.81 2542.00,1925.81
             2542.00,1925.81 2529.00,1919.71 2529.00,1919.71
             2529.00,1919.71 2505.00,1911.00 2505.00,1911.00
             2505.00,1911.00 2489.83,1904.67 2489.83,1904.67
             2489.83,1904.67 2481.45,1901.39 2481.45,1901.39
             2481.45,1901.39 2466.72,1889.02 2466.72,1889.02
             2466.72,1889.02 2463.00,1888.00 2463.00,1888.00
             2462.08,1883.88 2459.01,1882.68 2456.00,1879.91
             2443.22,1868.14 2448.82,1874.82 2438.00,1868.05
             2433.52,1865.25 2432.28,1863.25 2427.00,1861.00
             2427.00,1861.00 2427.00,1851.00 2427.00,1851.00
             2427.00,1851.00 2428.38,1813.00 2428.38,1813.00
             2428.38,1813.00 2430.66,1806.00 2430.66,1806.00
             2430.66,1806.00 2436.00,1794.00 2436.00,1794.00
             2436.00,1794.00 2436.00,1798.00 2436.00,1798.00
             2438.16,1796.72 2442.76,1793.35 2443.30,1790.85
             2443.94,1787.81 2441.05,1786.65 2440.98,1782.96
             2440.94,1780.86 2442.35,1777.13 2442.96,1775.00
             2444.80,1768.58 2444.39,1763.71 2451.00,1760.00
             2451.08,1754.56 2452.13,1755.86 2453.49,1751.72
             2454.26,1749.40 2453.75,1747.59 2455.00,1745.17
             2455.00,1745.17 2464.07,1732.99 2464.07,1732.99
             2467.02,1727.87 2469.79,1724.63 2467.00,1719.00
             2467.00,1719.00 2470.00,1719.00 2470.00,1719.00
             2470.39,1707.84 2475.99,1710.77 2478.97,1704.90
             2480.10,1702.59 2479.32,1699.48 2478.97,1697.00
             2493.54,1702.69 2480.93,1685.04 2488.00,1680.00
             2488.00,1680.00 2488.00,1677.00 2488.00,1677.00
             2488.00,1677.00 2485.00,1674.00 2485.00,1674.00
             2485.00,1674.00 2491.00,1674.00 2491.00,1674.00
             2492.99,1659.86 2492.81,1664.84 2497.25,1655.00
             2498.40,1652.46 2498.34,1649.15 2501.00,1648.00
             2501.00,1648.00 2500.00,1641.00 2500.00,1641.00
             2500.00,1641.00 2503.49,1624.28 2503.49,1624.28
             2503.49,1624.28 2505.00,1619.00 2505.00,1619.00
             2505.00,1619.00 2507.91,1609.03 2507.91,1609.03
             2509.99,1601.35 2511.45,1600.18 2507.91,1592.00
             2511.43,1589.43 2511.82,1585.96 2513.00,1582.00
             2513.00,1582.00 2515.00,1584.00 2515.00,1584.00
             2515.00,1584.00 2516.00,1584.00 2516.00,1584.00
             2516.00,1584.00 2515.00,1576.00 2515.00,1576.00
             2515.00,1576.00 2512.09,1577.00 2512.09,1577.00
             2512.09,1577.00 2512.09,1566.00 2512.09,1566.00
             2512.09,1566.00 2514.00,1554.00 2514.00,1554.00
             2514.00,1554.00 2517.00,1557.00 2517.00,1557.00
             2517.00,1557.00 2519.11,1536.00 2519.11,1536.00
             2519.11,1536.00 2522.70,1526.00 2522.70,1526.00
             2522.70,1526.00 2524.00,1512.00 2524.00,1512.00
             2524.00,1512.00 2527.00,1515.00 2527.00,1515.00
             2523.57,1506.62 2523.00,1509.31 2526.00,1498.00
             2526.00,1498.00 2527.00,1503.00 2527.00,1503.00
             2527.00,1503.00 2530.01,1503.00 2530.01,1503.00
             2530.01,1503.00 2530.01,1492.83 2530.01,1492.83
             2530.01,1492.83 2531.58,1486.00 2531.58,1486.00
             2531.86,1482.51 2530.13,1477.03 2535.14,1472.27
             2535.14,1472.27 2564.00,1454.08 2564.00,1454.08
             2567.82,1451.32 2570.99,1451.95 2572.00,1447.00
             2576.52,1445.53 2576.15,1444.39 2577.00,1440.00
             2582.41,1439.95 2583.60,1436.75 2582.00,1432.00
             2585.70,1431.81 2585.52,1431.73 2588.00,1429.00
             2588.00,1429.00 2585.00,1429.00 2585.00,1429.00
             2585.00,1429.00 2589.00,1427.00 2589.00,1427.00
             2592.87,1421.14 2591.32,1422.21 2593.53,1418.28
             2593.53,1418.28 2600.32,1407.00 2600.32,1407.00
             2601.97,1403.90 2606.44,1393.24 2607.37,1390.00
             2607.37,1390.00 2608.63,1384.00 2608.63,1384.00
             2608.63,1384.00 2611.23,1377.00 2611.23,1377.00
             2611.23,1377.00 2615.19,1358.00 2615.19,1358.00
             2615.19,1358.00 2618.49,1349.00 2618.49,1349.00
             2618.49,1349.00 2623.91,1329.00 2623.91,1329.00
             2623.91,1329.00 2627.24,1319.00 2627.24,1319.00
             2627.24,1319.00 2630.75,1303.00 2630.75,1303.00
             2630.75,1303.00 2633.80,1293.83 2633.80,1293.83
             2633.80,1293.83 2637.06,1277.00 2637.06,1277.00
             2637.06,1277.00 2637.06,1268.00 2637.06,1268.00
             2637.06,1268.00 2639.68,1257.00 2639.68,1257.00
             2639.68,1257.00 2640.26,1251.00 2640.26,1251.00
             2640.26,1251.00 2643.69,1237.00 2643.69,1237.00
             2643.69,1237.00 2647.71,1216.00 2647.71,1216.00
             2647.71,1216.00 2650.16,1191.00 2650.16,1191.00
             2650.16,1191.00 2651.79,1180.00 2651.79,1180.00
             2651.79,1180.00 2651.22,1171.00 2651.22,1171.00
             2651.22,1171.00 2651.22,1158.00 2651.22,1158.00
             2651.07,1152.75 2650.01,1153.28 2650.00,1144.00
             2650.00,1144.00 2650.00,1126.00 2650.00,1126.00
             2650.00,1126.00 2649.00,1113.00 2649.00,1113.00
             2649.00,1113.00 2650.29,1086.00 2650.29,1086.00
             2650.29,1086.00 2649.16,1077.00 2649.16,1077.00
             2648.87,1074.35 2649.02,1072.61 2648.00,1070.00
             2647.09,1067.70 2644.10,1063.26 2642.49,1061.30
             2637.37,1055.07 2628.67,1053.01 2621.00,1053.00
             2615.86,1052.99 2609.97,1051.37 2608.00,1057.00
             2604.28,1057.13 2603.17,1056.76 2601.00,1060.00
             2601.00,1060.00 2595.00,1060.00 2595.00,1060.00
             2595.00,1060.00 2599.74,1045.00 2599.74,1045.00
             2601.79,1034.70 2600.24,1032.12 2601.32,1027.00
             2603.13,1018.47 2605.51,1009.69 2603.00,1001.00
             2609.82,998.97 2613.93,997.32 2619.82,993.09
             2623.06,990.76 2634.17,977.12 2635.42,973.83
             2635.42,973.83 2637.05,961.00 2637.05,961.00
             2638.44,948.56 2638.13,938.35 2635.69,926.00
             2633.60,915.43 2630.17,912.00 2631.00,899.00
             2627.02,897.74 2626.95,893.68 2627.00,890.00
             2624.00,888.97 2624.91,886.08 2624.00,882.00
             2624.00,882.00 2626.00,884.00 2626.00,884.00
             2626.00,884.00 2627.00,884.00 2627.00,884.00
             2625.85,880.56 2625.65,880.23 2622.00,880.00
             2622.00,880.00 2622.00,874.00 2622.00,874.00
             2622.00,874.00 2621.00,877.00 2621.00,877.00
             2617.93,871.86 2617.74,870.93 2618.00,865.00
             2618.00,865.00 2617.00,864.00 2617.00,864.00
             2617.00,864.00 2615.00,865.00 2615.00,865.00
             2615.00,865.00 2613.00,854.00 2613.00,854.00
             2613.00,854.00 2613.00,858.00 2613.00,858.00
             2613.00,858.00 2612.00,852.00 2612.00,852.00
             2607.64,850.61 2605.91,844.10 2605.00,840.00
             2605.00,840.00 2608.00,843.00 2608.00,843.00
             2608.00,843.00 2604.00,840.00 2604.00,840.00
             2604.00,840.00 2605.00,834.00 2605.00,834.00
             2599.46,830.62 2600.44,826.69 2597.96,821.72
             2594.81,815.38 2593.81,819.01 2591.00,809.00
             2591.00,809.00 2585.00,810.00 2585.00,810.00
             2585.79,805.41 2585.32,804.97 2583.00,801.00
             2577.66,799.34 2581.86,794.60 2577.57,789.09
             2575.42,786.33 2571.85,784.30 2569.26,780.57
             2564.47,773.67 2556.80,755.33 2553.85,747.00
             2552.24,742.48 2549.56,729.36 2544.79,728.00
             2544.79,728.00 2544.79,723.00 2544.79,723.00
             2544.79,723.00 2538.94,708.05 2538.94,708.05
             2538.94,708.05 2534.81,702.53 2534.81,702.53
             2534.81,702.53 2532.84,696.00 2532.84,696.00
             2532.84,696.00 2529.63,690.00 2529.63,690.00
             2529.63,690.00 2527.20,683.00 2527.20,683.00
             2527.20,683.00 2522.40,673.28 2522.40,673.28
             2522.40,673.28 2519.72,666.01 2519.72,666.01
             2519.72,666.01 2513.27,656.96 2513.27,656.96
             2513.27,656.96 2509.90,649.28 2509.90,649.28
             2509.90,649.28 2504.14,640.00 2504.14,640.00
             2504.14,640.00 2498.56,628.00 2498.56,628.00
             2498.56,628.00 2493.80,621.00 2493.80,621.00
             2493.80,621.00 2485.05,606.00 2485.05,606.00
             2485.05,606.00 2476.85,596.72 2476.85,596.72
             2476.85,596.72 2474.01,589.28 2474.01,589.28
             2474.01,589.28 2461.01,572.25 2461.01,572.25
             2461.01,572.25 2449.00,554.00 2449.00,554.00
             2445.06,553.58 2445.11,551.44 2444.00,548.00
             2444.00,548.00 2441.00,548.00 2441.00,548.00
             2439.96,542.68 2435.83,540.87 2432.23,537.25
             2428.92,533.92 2429.18,531.78 2426.40,528.59
             2426.40,528.59 2416.60,519.68 2416.60,519.68
             2413.14,515.86 2412.79,512.35 2407.00,512.00
             2407.00,512.00 2407.00,507.00 2407.00,507.00
             2400.66,503.61 2390.97,500.26 2391.00,492.00
             2391.00,492.00 2370.21,479.47 2370.21,479.47
             2365.13,475.04 2361.71,467.24 2353.00,467.00
             2348.53,460.22 2343.12,457.50 2337.23,452.56
             2337.23,452.56 2331.91,447.67 2331.91,447.67
             2327.91,444.29 2326.39,442.09 2321.00,443.00
             2319.20,440.00 2312.70,434.56 2309.58,432.87
             2306.36,431.12 2304.30,432.07 2303.00,428.00
             2303.00,428.00 2291.09,424.17 2291.09,424.17
             2287.29,422.56 2287.60,421.59 2282.00,420.02
             2282.00,420.02 2274.00,418.54 2274.00,418.54
             2274.00,418.54 2252.00,410.80 2252.00,410.80
             2252.00,410.80 2241.25,403.46 2241.25,403.46
             2241.25,403.46 2232.30,399.16 2232.30,399.16
             2230.05,397.42 2226.12,389.79 2215.00,388.00
             2214.09,384.60 2212.13,385.03 2209.00,383.96
             2204.30,382.36 2199.90,379.86 2195.00,378.95
             2184.97,377.08 2187.03,375.95 2181.00,374.53
             2181.00,374.53 2148.00,370.34 2148.00,370.34
             2148.00,370.34 2142.00,368.49 2142.00,368.49
             2142.00,368.49 2135.00,367.72 2135.00,367.72
             2135.00,367.72 2121.00,366.34 2121.00,366.34
             2117.49,365.63 2114.70,364.04 2112.00,367.00
             2106.08,365.51 2099.10,364.62 2093.00,364.36
             2093.00,364.36 2085.00,364.36 2085.00,364.36
             2085.00,364.36 2078.00,362.28 2078.00,362.28
             2070.38,360.48 2066.77,360.09 2059.00,360.00
             2059.00,360.00 2036.00,358.00 2036.00,358.00
             2036.00,358.00 2018.00,357.09 2018.00,357.09
             2010.48,356.67 2003.31,359.40 1996.00,359.90
             1996.00,359.90 1985.00,359.32 1985.00,359.32
             1978.12,359.87 1966.05,364.26 1965.00,372.00 Z
           M 1785.00,436.00
           C 1785.00,436.00 1785.00,437.00 1785.00,437.00
             1785.00,437.00 1784.00,436.00 1784.00,436.00
             1784.00,436.00 1785.00,436.00 1785.00,436.00 Z
           M 1500.00,766.00
           C 1500.00,766.00 1500.00,767.00 1500.00,767.00
             1500.00,767.00 1501.00,766.00 1501.00,766.00
             1501.00,766.00 1500.00,766.00 1500.00,766.00 Z
           M 2568.00,782.00
           C 2568.00,782.00 2568.00,783.00 2568.00,783.00
             2568.00,783.00 2567.00,782.00 2567.00,782.00
             2567.00,782.00 2568.00,782.00 2568.00,782.00 Z
           M 2578.00,793.00
           C 2578.00,793.00 2578.00,794.00 2578.00,794.00
             2578.00,794.00 2577.00,793.00 2577.00,793.00
             2577.00,793.00 2578.00,793.00 2578.00,793.00 Z
           M 2579.00,797.00
           C 2579.00,797.00 2579.00,798.00 2579.00,798.00
             2579.00,798.00 2578.00,797.00 2578.00,797.00
             2578.00,797.00 2579.00,797.00 2579.00,797.00 Z
           M 2584.00,805.00
           C 2584.00,805.00 2584.00,806.00 2584.00,806.00
             2584.00,806.00 2583.00,805.00 2583.00,805.00
             2583.00,805.00 2584.00,805.00 2584.00,805.00 Z
           M 2590.00,812.00
           C 2590.00,812.00 2590.00,813.00 2590.00,813.00
             2590.00,813.00 2589.00,812.00 2589.00,812.00
             2589.00,812.00 2590.00,812.00 2590.00,812.00 Z
           M 2606.00,834.00
           C 2606.00,834.00 2607.00,838.00 2607.00,838.00
             2607.00,838.00 2606.00,834.00 2606.00,834.00 Z
           M 2603.00,836.00
           C 2603.00,836.00 2603.00,837.00 2603.00,837.00
             2603.00,837.00 2602.00,836.00 2602.00,836.00
             2602.00,836.00 2603.00,836.00 2603.00,836.00 Z
           M 2617.00,866.00
           C 2617.00,866.00 2617.00,867.00 2617.00,867.00
             2617.00,867.00 2616.00,866.00 2616.00,866.00
             2616.00,866.00 2617.00,866.00 2617.00,866.00 Z
           M 2619.00,871.00
           C 2619.00,871.00 2619.00,872.00 2619.00,872.00
             2619.00,872.00 2620.00,871.00 2620.00,871.00
             2620.00,871.00 2619.00,871.00 2619.00,871.00 Z
           M 2622.00,877.00
           C 2622.00,877.00 2622.00,878.00 2622.00,878.00
             2622.00,878.00 2621.00,877.00 2621.00,877.00
             2621.00,877.00 2622.00,877.00 2622.00,877.00 Z
           M 2624.00,880.00
           C 2624.00,880.00 2624.00,881.00 2624.00,881.00
             2624.00,881.00 2623.00,880.00 2623.00,880.00
             2623.00,880.00 2624.00,880.00 2624.00,880.00 Z
           M 2629.00,897.00
           C 2629.00,897.00 2629.00,898.00 2629.00,898.00
             2629.00,898.00 2630.00,897.00 2630.00,897.00
             2630.00,897.00 2629.00,897.00 2629.00,897.00 Z
           M 2632.00,908.00
           C 2632.00,908.00 2632.00,909.00 2632.00,909.00
             2632.00,909.00 2633.00,908.00 2633.00,908.00
             2633.00,908.00 2632.00,908.00 2632.00,908.00 Z
           M 2638.00,934.00
           C 2638.00,934.00 2640.00,939.00 2640.00,939.00
             2640.00,939.00 2640.00,934.00 2640.00,934.00
             2640.00,934.00 2638.00,934.00 2638.00,934.00 Z
           M 2595.00,1061.00
           C 2595.00,1061.00 2595.00,1062.00 2595.00,1062.00
             2595.00,1062.00 2594.00,1061.00 2594.00,1061.00
             2594.00,1061.00 2595.00,1061.00 2595.00,1061.00 Z
           M 2570.00,1449.00
           C 2570.00,1449.00 2570.00,1450.00 2570.00,1450.00
             2570.00,1450.00 2569.00,1449.00 2569.00,1449.00
             2569.00,1449.00 2570.00,1449.00 2570.00,1449.00 Z
           M 2558.00,1459.00
           C 2558.00,1459.00 2557.00,1462.00 2557.00,1462.00
             2557.00,1462.00 2560.00,1460.00 2560.00,1460.00
             2560.00,1460.00 2558.00,1459.00 2558.00,1459.00 Z
           M 2527.00,1504.00
           C 2527.00,1504.00 2527.00,1505.00 2527.00,1505.00
             2527.00,1505.00 2528.00,1504.00 2528.00,1504.00
             2528.00,1504.00 2527.00,1504.00 2527.00,1504.00 Z
           M 1582.00,1585.00
           C 1582.00,1585.00 1583.00,1589.00 1583.00,1589.00
             1583.00,1589.00 1582.00,1585.00 1582.00,1585.00 Z
           M 2507.00,1615.00
           C 2507.00,1615.00 2507.00,1616.00 2507.00,1616.00
             2507.00,1616.00 2508.00,1615.00 2508.00,1615.00
             2508.00,1615.00 2507.00,1615.00 2507.00,1615.00 Z
           M 1614.00,1687.00
           C 1614.00,1687.00 1615.00,1692.00 1615.00,1692.00
             1615.00,1692.00 1614.00,1687.00 1614.00,1687.00 Z
           M 2452.00,1758.00
           C 2452.00,1758.00 2452.00,1759.00 2452.00,1759.00
             2452.00,1759.00 2453.00,1758.00 2453.00,1758.00
             2453.00,1758.00 2452.00,1758.00 2452.00,1758.00 Z
           M 2445.00,1776.00
           C 2445.00,1776.00 2445.00,1777.00 2445.00,1777.00
             2445.00,1777.00 2446.00,1776.00 2446.00,1776.00
             2446.00,1776.00 2445.00,1776.00 2445.00,1776.00 Z
           M 1590.00,1917.00
           C 1590.00,1917.00 1590.00,1918.00 1590.00,1918.00
             1590.00,1918.00 1589.00,1917.00 1589.00,1917.00
             1589.00,1917.00 1590.00,1917.00 1590.00,1917.00 Z
           M 1369.00,2017.00
           C 1369.00,2017.00 1369.00,2018.00 1369.00,2018.00
             1369.00,2018.00 1368.00,2017.00 1368.00,2017.00
             1368.00,2017.00 1369.00,2017.00 1369.00,2017.00 Z
           M 1281.00,2074.00
           C 1281.00,2074.00 1281.00,2075.00 1281.00,2075.00
             1281.00,2075.00 1280.00,2074.00 1280.00,2074.00
             1280.00,2074.00 1281.00,2074.00 1281.00,2074.00 Z
           M 3288.00,2243.00
           C 3288.00,2243.00 3288.00,2244.00 3288.00,2244.00
             3288.00,2244.00 3287.00,2243.00 3287.00,2243.00
             3287.00,2243.00 3288.00,2243.00 3288.00,2243.00 Z
           M 3304.00,2252.00
           C 3304.00,2252.00 3304.00,2253.00 3304.00,2253.00
             3304.00,2253.00 3303.00,2252.00 3303.00,2252.00
             3303.00,2252.00 3304.00,2252.00 3304.00,2252.00 Z
           M 527.00,2658.00
           C 527.00,2658.00 527.00,2659.00 527.00,2659.00
             527.00,2659.00 526.00,2658.00 526.00,2658.00
             526.00,2658.00 527.00,2658.00 527.00,2658.00 Z
           M 3639.00,2702.00
           C 3639.00,2702.00 3639.00,2703.00 3639.00,2703.00
             3639.00,2703.00 3638.00,2702.00 3638.00,2702.00
             3638.00,2702.00 3639.00,2702.00 3639.00,2702.00 Z
           M 3640.00,2703.00
           C 3640.00,2703.00 3640.00,2704.00 3640.00,2704.00
             3640.00,2704.00 3639.00,2703.00 3639.00,2703.00
             3639.00,2703.00 3640.00,2703.00 3640.00,2703.00 Z
           M 468.00,2771.00
           C 468.00,2771.00 468.00,2772.00 468.00,2772.00
             468.00,2772.00 467.00,2771.00 467.00,2771.00
             467.00,2771.00 468.00,2771.00 468.00,2771.00 Z
           M 467.00,2773.00
           C 467.00,2773.00 467.00,2774.00 467.00,2774.00
             467.00,2774.00 466.00,2773.00 466.00,2773.00
             466.00,2773.00 467.00,2773.00 467.00,2773.00 Z
           M 462.00,2784.00
           C 462.00,2784.00 462.00,2785.00 462.00,2785.00
             462.00,2785.00 461.00,2784.00 461.00,2784.00
             461.00,2784.00 462.00,2784.00 462.00,2784.00 Z
           M 3688.00,2803.00
           C 3688.00,2803.00 3688.00,2804.00 3688.00,2804.00
             3688.00,2804.00 3687.00,2803.00 3687.00,2803.00
             3687.00,2803.00 3688.00,2803.00 3688.00,2803.00 Z
           M 3711.00,2849.00
           C 3711.00,2849.00 3711.00,2850.00 3711.00,2850.00
             3711.00,2850.00 3712.00,2849.00 3712.00,2849.00
             3712.00,2849.00 3711.00,2849.00 3711.00,2849.00 Z
           M 341.00,3043.00
           C 341.00,3043.00 341.00,3044.00 341.00,3044.00
             341.00,3044.00 340.00,3043.00 340.00,3043.00
             340.00,3043.00 341.00,3043.00 341.00,3043.00 Z
           M 161.00,3793.00
           C 161.00,3793.00 161.00,3794.00 161.00,3794.00
             161.00,3794.00 162.00,3793.00 162.00,3793.00
             162.00,3793.00 161.00,3793.00 161.00,3793.00 Z" />
</svg>
