<?xml version="1.0" encoding="UTF-8" standalone="no"?>
<!DOCTYPE svg PUBLIC "-//W3C//DTD SVG 20010904//EN"
              "http://www.w3.org/TR/2001/REC-SVG-20010904/DTD/svg10.dtd">

<svg xmlns="http://www.w3.org/2000/svg"
     width="11.7433in" height="15.1367in"
     viewBox="0 0 3523 4541">
  <path id="face"
        fill="none" stroke="black" stroke-width="1"
        d="M 1632.00,316.00
           C 1627.98,313.92 1624.19,312.92 1625.00,319.00
             1625.00,319.00 1608.00,330.00 1608.00,330.00
             1608.00,330.00 1609.00,334.00 1609.00,334.00
             1609.00,334.00 1603.00,336.00 1603.00,336.00
             1603.59,345.78 1598.62,345.65 1593.75,353.04
             1591.28,356.77 1589.56,361.61 1585.00,363.00
             1583.93,368.22 1572.51,368.79 1568.00,369.00
             1568.00,369.00 1568.00,373.00 1568.00,373.00
             1568.00,373.00 1559.00,375.00 1559.00,375.00
             1556.69,377.29 1550.05,381.65 1546.99,382.61
             1546.99,382.61 1540.00,384.40 1540.00,384.40
             1540.00,384.40 1533.00,387.49 1533.00,387.49
             1533.00,387.49 1524.04,390.15 1524.04,390.15
             1524.04,390.15 1514.99,393.95 1514.99,393.95
             1511.89,394.97 1509.23,395.19 1506.17,396.68
             1506.17,396.68 1488.42,406.14 1488.42,406.14
             1480.87,411.84 1481.98,415.59 1472.00,420.00
             1472.00,420.00 1472.00,424.00 1472.00,424.00
             1466.20,425.90 1460.33,433.93 1455.41,438.02
             1455.41,438.02 1436.39,453.37 1436.39,453.37
             1436.39,453.37 1430.47,461.63 1430.47,461.63
             1424.35,468.12 1416.75,473.62 1409.00,478.00
             1409.00,478.00 1410.00,482.00 1410.00,482.00
             1403.75,484.39 1395.39,491.52 1391.15,496.66
             1391.15,496.66 1386.52,502.87 1386.52,502.87
             1383.60,506.05 1381.71,506.16 1379.34,508.41
             1379.34,508.41 1374.53,514.68 1374.53,514.68
             1374.53,514.68 1368.47,520.18 1368.47,520.18
             1368.47,520.18 1364.46,525.74 1364.46,525.74
             1364.46,525.74 1353.36,537.61 1353.36,537.61
             1353.36,537.61 1351.03,542.02 1351.03,542.02
             1346.47,549.43 1338.25,550.52 1337.00,559.00
             1337.00,559.00 1335.00,557.00 1335.00,557.00
             1335.00,557.00 1334.00,562.00 1334.00,562.00
             1334.00,562.00 1332.00,560.00 1332.00,560.00
             1332.00,560.00 1323.00,579.00 1323.00,579.00
             1323.00,579.00 1322.00,580.00 1322.00,580.00
             1322.00,580.00 1320.00,579.00 1320.00,579.00
             1317.06,584.70 1315.43,583.78 1315.00,591.00
             1315.00,591.00 1308.00,593.00 1308.00,593.00
             1308.00,593.00 1310.00,595.00 1310.00,595.00
             1310.00,595.00 1296.99,615.00 1296.99,615.00
             1294.13,619.98 1296.02,621.77 1290.00,624.00
             1290.18,628.43 1285.96,636.59 1283.92,641.00
             1282.59,643.88 1282.13,645.95 1279.00,647.00
             1279.00,647.00 1280.00,651.00 1280.00,651.00
             1280.00,651.00 1277.00,652.00 1277.00,652.00
             1277.00,652.00 1280.00,655.00 1280.00,655.00
             1280.00,655.00 1276.00,654.00 1276.00,654.00
             1276.38,655.15 1277.07,656.82 1277.03,658.01
             1276.99,659.47 1276.15,660.78 1275.76,662.17
             1274.17,667.71 1275.99,668.47 1271.00,673.00
             1271.00,673.00 1270.00,680.00 1270.00,680.00
             1273.45,684.13 1267.25,692.59 1265.85,697.00
             1265.85,697.00 1263.48,718.00 1263.48,718.00
             1262.23,723.61 1260.26,724.66 1258.99,728.17
             1258.99,728.17 1255.81,738.17 1255.81,738.17
             1255.81,738.17 1251.17,770.83 1251.17,770.83
             1251.17,770.83 1247.96,783.00 1247.96,783.00
             1247.96,783.00 1246.83,794.00 1246.83,794.00
             1246.83,794.00 1244.55,805.00 1244.55,805.00
             1244.55,805.00 1241.08,817.00 1241.08,817.00
             1241.08,817.00 1241.08,825.00 1241.08,825.00
             1241.08,825.00 1239.19,835.00 1239.19,835.00
             1239.19,835.00 1237.80,852.00 1237.80,852.00
             1237.80,852.00 1234.50,863.00 1234.50,863.00
             1234.50,863.00 1232.42,871.72 1232.42,871.72
             1232.42,871.72 1231.54,877.85 1231.54,877.85
             1231.54,877.85 1225.27,892.00 1225.27,892.00
             1221.95,901.00 1226.95,898.11 1219.00,908.00
             1223.18,915.65 1217.14,919.41 1216.80,931.00
             1216.80,931.00 1216.80,944.00 1216.80,944.00
             1216.80,944.00 1217.96,960.00 1217.96,960.00
             1217.96,960.00 1215.77,978.00 1215.77,978.00
             1215.77,978.00 1215.77,996.00 1215.77,996.00
             1215.77,996.00 1215.77,1004.00 1215.77,1004.00
             1215.77,1004.00 1215.77,1041.00 1215.77,1041.00
             1215.77,1041.00 1215.77,1051.00 1215.77,1051.00
             1215.77,1051.00 1217.17,1062.00 1217.17,1062.00
             1217.17,1062.00 1217.17,1074.00 1217.17,1074.00
             1217.17,1074.00 1220.43,1096.00 1220.43,1096.00
             1220.43,1096.00 1225.11,1116.91 1225.11,1116.91
             1227.52,1122.93 1231.63,1129.62 1232.00,1136.00
             1232.00,1136.00 1234.00,1134.00 1234.00,1134.00
             1235.14,1140.04 1242.10,1146.66 1245.99,1151.66
             1248.06,1154.33 1248.33,1156.78 1250.31,1158.40
             1252.11,1159.87 1253.84,1159.83 1256.00,1160.00
             1256.85,1165.60 1259.38,1170.25 1265.00,1172.00
             1266.26,1179.63 1273.29,1181.09 1269.98,1188.00
             1269.22,1189.58 1268.10,1190.69 1267.00,1192.00
             1267.00,1192.00 1266.00,1189.00 1266.00,1189.00
             1266.00,1189.00 1258.31,1192.70 1258.31,1192.70
             1258.31,1192.70 1251.00,1209.00 1251.00,1209.00
             1251.00,1209.00 1249.00,1208.00 1249.00,1208.00
             1249.00,1208.00 1247.83,1221.00 1247.83,1221.00
             1247.83,1221.00 1246.18,1234.00 1246.18,1234.00
             1246.18,1234.00 1250.47,1264.00 1250.47,1264.00
             1250.47,1264.00 1253.81,1275.83 1253.81,1275.83
             1253.81,1275.83 1257.55,1295.00 1257.55,1295.00
             1257.55,1295.00 1272.54,1327.00 1272.54,1327.00
             1272.54,1327.00 1277.37,1347.00 1277.37,1347.00
             1277.37,1347.00 1285.46,1372.00 1285.46,1372.00
             1285.46,1372.00 1287.51,1382.00 1287.51,1382.00
             1287.51,1382.00 1294.68,1396.01 1294.68,1396.01
             1294.68,1396.01 1298.30,1407.00 1298.30,1407.00
             1298.30,1407.00 1301.69,1415.00 1301.69,1415.00
             1301.69,1415.00 1308.03,1432.00 1308.03,1432.00
             1308.03,1432.00 1316.02,1442.26 1316.02,1442.26
             1316.02,1442.26 1320.67,1451.00 1320.67,1451.00
             1320.67,1451.00 1325.29,1458.00 1325.29,1458.00
             1325.29,1458.00 1328.98,1465.63 1328.98,1465.63
             1328.98,1465.63 1343.00,1479.00 1343.00,1479.00
             1343.00,1479.00 1340.00,1480.00 1340.00,1480.00
             1340.00,1480.00 1350.00,1485.00 1350.00,1485.00
             1350.00,1485.00 1348.00,1487.00 1348.00,1487.00
             1348.00,1487.00 1354.00,1493.00 1354.00,1493.00
             1354.00,1493.00 1358.00,1492.00 1358.00,1492.00
             1361.58,1497.79 1364.27,1497.02 1370.00,1499.51
             1370.00,1499.51 1383.00,1506.00 1383.00,1506.00
             1383.00,1506.00 1382.00,1508.00 1382.00,1508.00
             1382.00,1508.00 1387.00,1511.00 1387.00,1511.00
             1391.09,1510.99 1391.94,1512.48 1396.04,1513.62
             1396.04,1513.62 1410.00,1517.38 1410.00,1517.38
             1422.66,1522.30 1417.47,1524.02 1433.00,1524.00
             1442.74,1523.98 1443.49,1523.26 1452.04,1519.37
             1455.07,1517.99 1458.39,1515.74 1461.63,1517.75
             1468.52,1522.04 1471.71,1533.42 1472.94,1535.41
             1472.94,1535.41 1476.82,1540.10 1476.82,1540.10
             1476.82,1540.10 1484.39,1552.00 1484.39,1552.00
             1484.39,1552.00 1489.60,1564.25 1489.60,1564.25
             1490.76,1565.20 1491.22,1564.83 1492.00,1565.00
             1494.61,1573.37 1496.77,1578.14 1500.67,1586.00
             1500.67,1586.00 1503.87,1592.00 1503.87,1592.00
             1505.40,1595.74 1504.07,1596.70 1505.77,1601.00
             1505.77,1601.00 1515.32,1622.00 1515.32,1622.00
             1515.32,1622.00 1520.95,1632.00 1520.95,1632.00
             1520.95,1632.00 1529.73,1656.00 1529.73,1656.00
             1529.73,1656.00 1545.60,1676.00 1545.60,1676.00
             1545.60,1676.00 1564.17,1699.00 1564.17,1699.00
             1564.17,1699.00 1601.00,1733.28 1601.00,1733.28
             1601.00,1733.28 1622.00,1752.54 1622.00,1752.54
             1622.00,1752.54 1654.00,1776.37 1654.00,1776.37
             1654.00,1776.37 1677.00,1793.39 1677.00,1793.39
             1677.00,1793.39 1704.00,1805.42 1704.00,1805.42
             1704.00,1805.42 1739.00,1820.25 1739.00,1820.25
             1739.00,1820.25 1780.00,1830.37 1780.00,1830.37
             1780.00,1830.37 1819.00,1839.87 1819.00,1839.87
             1827.84,1842.08 1836.82,1845.19 1846.00,1844.99
             1846.00,1844.99 1860.00,1844.00 1860.00,1844.00
             1860.00,1844.00 1889.00,1843.00 1889.00,1843.00
             1889.00,1843.00 1904.00,1842.00 1904.00,1842.00
             1904.00,1842.00 1923.00,1841.00 1923.00,1841.00
             1923.00,1841.00 1951.00,1840.00 1951.00,1840.00
             1951.00,1840.00 1966.00,1839.00 1966.00,1839.00
             1966.00,1839.00 2022.00,1832.15 2022.00,1832.15
             2022.00,1832.15 2066.00,1826.28 2066.00,1826.28
             2066.00,1826.28 2095.00,1821.63 2095.00,1821.63
             2095.00,1821.63 2132.00,1806.81 2132.00,1806.81
             2132.00,1806.81 2182.00,1787.02 2182.00,1787.02
             2182.00,1787.02 2208.00,1769.67 2208.00,1769.67
             2208.00,1769.67 2243.00,1745.68 2243.00,1745.68
             2243.00,1745.68 2280.17,1706.00 2280.17,1706.00
             2280.17,1706.00 2299.70,1685.00 2299.70,1685.00
             2299.70,1685.00 2329.12,1645.00 2329.12,1645.00
             2329.12,1645.00 2333.09,1636.04 2333.09,1636.04
             2335.95,1629.47 2340.23,1623.28 2341.00,1616.00
             2348.50,1614.68 2344.20,1611.20 2345.74,1606.00
             2346.77,1602.52 2349.82,1600.24 2351.13,1596.91
             2351.13,1596.91 2354.00,1584.00 2354.00,1584.00
             2358.56,1582.97 2357.87,1580.13 2358.34,1576.09
             2358.34,1576.09 2359.46,1567.00 2359.46,1567.00
             2359.46,1567.00 2361.61,1559.00 2361.61,1559.00
             2361.61,1559.00 2362.30,1554.00 2362.30,1554.00
             2363.75,1547.78 2366.69,1545.42 2368.33,1537.00
             2368.33,1537.00 2370.09,1514.00 2370.09,1514.00
             2370.09,1514.00 2373.42,1500.00 2373.42,1500.00
             2373.42,1500.00 2373.42,1487.00 2373.42,1487.00
             2373.42,1487.00 2373.42,1478.17 2373.42,1478.17
             2373.42,1478.17 2374.43,1473.83 2374.43,1473.83
             2374.43,1473.83 2374.43,1468.00 2374.43,1468.00
             2374.43,1468.00 2375.00,1460.00 2375.00,1460.00
             2375.00,1460.00 2376.10,1464.00 2376.10,1464.00
             2378.01,1458.92 2376.00,1456.04 2376.10,1451.00
             2376.10,1451.00 2377.19,1439.83 2377.19,1439.83
             2377.66,1426.56 2375.23,1429.62 2381.00,1416.00
             2386.02,1417.43 2394.09,1417.81 2398.68,1414.86
             2398.68,1414.86 2404.18,1409.79 2404.18,1409.79
             2408.89,1406.17 2409.54,1407.21 2412.00,1401.00
             2412.00,1401.00 2415.00,1402.00 2415.00,1402.00
             2417.98,1395.75 2420.85,1395.49 2425.20,1390.82
             2425.20,1390.82 2433.49,1380.02 2433.49,1380.02
             2438.33,1373.82 2440.63,1373.83 2444.00,1365.00
             2444.00,1365.00 2447.00,1366.00 2447.00,1366.00
             2448.28,1357.76 2456.07,1346.34 2461.89,1340.40
             2461.89,1340.40 2469.67,1333.59 2469.67,1333.59
             2469.67,1333.59 2472.00,1320.00 2472.00,1320.00
             2470.23,1316.24 2474.37,1308.47 2476.41,1305.00
             2478.28,1301.83 2485.57,1283.31 2486.00,1280.00
             2486.00,1280.00 2489.00,1280.00 2489.00,1280.00
             2489.03,1270.66 2490.07,1271.28 2490.35,1266.00
             2490.35,1266.00 2490.35,1258.00 2490.35,1258.00
             2490.97,1250.99 2492.55,1244.10 2491.90,1237.00
             2491.90,1237.00 2489.96,1229.00 2489.96,1229.00
             2489.96,1229.00 2489.96,1217.00 2489.96,1217.00
             2489.96,1217.00 2486.09,1199.00 2486.09,1199.00
             2486.09,1199.00 2484.56,1186.84 2484.56,1186.84
             2483.42,1183.20 2481.23,1184.12 2479.98,1178.98
             2478.28,1171.21 2479.84,1170.52 2479.98,1164.04
             2479.98,1164.04 2479.44,1155.96 2479.44,1155.96
             2479.44,1155.96 2479.44,1150.01 2479.44,1150.01
             2479.24,1145.34 2477.25,1145.20 2477.02,1139.00
             2477.02,1139.00 2481.00,1110.00 2481.00,1110.00
             2481.00,1110.00 2480.00,1092.00 2480.00,1092.00
             2479.98,1082.45 2477.23,1069.87 2473.73,1061.00
             2472.23,1057.19 2471.98,1052.14 2469.43,1049.49
             2464.97,1044.87 2457.70,1043.13 2452.00,1041.00
             2452.00,1041.00 2451.00,1044.00 2451.00,1044.00
             2448.93,1036.44 2452.06,1034.88 2454.09,1028.00
             2456.25,1020.66 2455.26,1019.59 2456.11,1016.00
             2456.11,1016.00 2459.41,1005.00 2459.41,1005.00
             2459.41,1005.00 2460.26,995.00 2460.26,995.00
             2461.56,987.06 2463.99,984.12 2464.00,975.00
             2464.02,964.77 2463.24,951.81 2465.00,942.00
             2465.00,942.00 2466.00,957.00 2466.00,957.00
             2467.19,954.01 2467.85,944.19 2466.00,941.54
             2465.16,940.34 2464.62,940.42 2464.00,940.00
             2465.68,932.95 2463.23,927.57 2461.41,921.04
             2460.48,917.66 2461.08,916.66 2460.68,913.91
             2460.68,913.91 2459.20,908.04 2459.20,908.04
             2459.20,908.04 2458.05,899.96 2458.05,899.96
             2457.27,895.15 2455.77,892.90 2456.00,888.00
             2453.79,885.56 2449.10,875.25 2448.39,872.00
             2448.39,872.00 2447.73,866.17 2447.73,866.17
             2447.08,863.26 2445.66,862.58 2445.14,858.99
             2445.14,858.99 2444.54,848.00 2444.54,848.00
             2442.88,838.83 2439.98,838.37 2438.08,833.28
             2436.13,828.06 2436.34,822.75 2435.70,820.09
             2434.97,817.05 2433.24,816.04 2432.43,812.96
             2432.43,812.96 2431.31,802.01 2431.31,802.01
             2431.31,802.01 2422.28,772.00 2422.28,772.00
             2422.28,772.00 2419.02,752.13 2419.02,752.13
             2418.17,749.38 2416.38,748.93 2414.92,746.74
             2413.67,744.85 2412.45,740.31 2411.90,738.00
             2409.31,727.20 2410.58,721.45 2409.79,716.00
             2409.79,716.00 2406.26,705.00 2406.26,705.00
             2406.26,705.00 2401.78,678.00 2401.78,678.00
             2401.78,678.00 2395.76,663.58 2395.76,663.58
             2395.76,663.58 2391.21,657.00 2391.21,657.00
             2391.21,657.00 2387.41,649.00 2387.41,649.00
             2387.41,649.00 2380.88,638.72 2380.88,638.72
             2380.88,638.72 2378.15,632.28 2378.15,632.28
             2378.15,632.28 2367.80,620.90 2367.80,620.90
             2367.80,620.90 2358.11,603.63 2358.11,603.63
             2356.45,601.63 2352.41,599.88 2348.59,594.83
             2348.59,594.83 2343.10,586.13 2343.10,586.13
             2340.20,582.41 2331.39,575.78 2327.00,574.00
             2327.00,574.00 2328.00,571.00 2328.00,571.00
             2320.32,565.93 2309.37,559.80 2303.48,552.91
             2303.48,552.91 2287.76,526.00 2287.76,526.00
             2283.06,518.80 2276.73,514.36 2276.00,505.00
             2271.20,502.77 2266.27,494.22 2266.00,489.00
             2266.00,489.00 2265.00,488.00 2265.00,488.00
             2265.00,488.00 2263.00,489.00 2263.00,489.00
             2259.99,475.86 2255.18,481.87 2252.00,471.00
             2247.69,469.70 2244.74,461.99 2243.00,458.00
             2243.00,458.00 2241.00,459.00 2241.00,459.00
             2235.34,449.09 2232.31,448.60 2225.24,441.41
             2222.54,438.67 2221.08,435.13 2217.90,432.88
             2217.90,432.88 2212.05,429.46 2212.05,429.46
             2212.05,429.46 2206.55,425.25 2206.55,425.25
             2202.17,422.63 2197.42,421.00 2193.33,417.70
             2197.93,421.41 2174.05,398.90 2177.54,402.57
             2177.54,402.57 2174.46,398.98 2174.46,398.98
             2174.46,398.98 2168.01,396.08 2168.01,396.08
             2162.57,393.13 2164.39,392.67 2155.04,388.17
             2155.04,388.17 2144.00,382.34 2144.00,382.34
             2138.38,378.83 2136.22,375.29 2129.00,375.00
             2125.83,368.80 2120.05,368.04 2114.17,365.56
             2114.17,365.56 2093.00,354.02 2093.00,354.02
             2093.00,354.02 2083.00,348.72 2083.00,348.72
             2080.80,347.92 2076.15,347.58 2070.01,345.12
             2065.34,343.26 2065.18,341.96 2061.91,340.28
             2061.91,340.28 2053.04,336.80 2053.04,336.80
             2048.28,334.42 2048.52,332.81 2044.82,330.66
             2040.19,327.99 2037.87,328.58 2034.00,327.12
             2034.00,327.12 2020.91,320.50 2020.91,320.50
             2020.91,320.50 2015.00,319.02 2015.00,319.02
             2007.16,316.51 2010.15,315.79 1999.00,314.28
             1993.02,313.47 1980.63,312.43 1976.00,309.00
             1966.92,310.63 1951.86,308.87 1944.00,304.08
             1941.35,305.83 1939.06,304.47 1936.00,304.08
             1931.45,303.72 1929.06,304.38 1924.04,303.16
             1924.04,303.16 1916.91,300.94 1916.91,300.94
             1901.17,297.33 1900.66,294.08 1892.00,291.48
             1876.00,286.68 1862.79,284.73 1846.00,285.00
             1838.37,285.13 1836.31,287.98 1823.00,288.00
             1823.00,288.00 1796.00,289.07 1796.00,289.07
             1789.55,288.94 1782.42,288.31 1776.00,289.07
             1776.00,289.07 1764.00,292.63 1764.00,292.63
             1764.00,292.63 1753.00,293.46 1753.00,293.46
             1753.00,293.46 1735.00,297.57 1735.00,297.57
             1735.00,297.57 1709.00,299.00 1709.00,299.00
             1703.22,299.03 1687.32,302.68 1681.00,304.11
             1664.85,307.78 1664.61,304.87 1643.00,311.96
             1639.61,313.07 1633.50,312.79 1632.00,316.00 Z
           M 1596.00,344.00
           C 1596.00,344.00 1599.00,345.00 1599.00,345.00
             1599.00,345.00 1596.00,344.00 1596.00,344.00 Z
           M 2310.00,557.00
           C 2310.00,557.00 2310.00,558.00 2310.00,558.00
             2310.00,558.00 2311.00,557.00 2311.00,557.00
             2311.00,557.00 2310.00,557.00 2310.00,557.00 Z
           M 1251.00,776.00
           C 1251.00,776.00 1251.00,777.00 1251.00,777.00
             1251.00,777.00 1250.00,776.00 1250.00,776.00
             1250.00,776.00 1251.00,776.00 1251.00,776.00 Z
           M 2434.00,818.00
           C 2434.00,818.00 2434.00,819.00 2434.00,819.00
             2434.00,819.00 2433.00,818.00 2433.00,818.00
             2433.00,818.00 2434.00,818.00 2434.00,818.00 Z
           M 1234.00,856.00
           C 1234.00,856.00 1234.00,857.00 1234.00,857.00
             1234.00,857.00 1235.00,856.00 1235.00,856.00
             1235.00,856.00 1234.00,856.00 1234.00,856.00 Z
           M 2466.00,938.00
           C 2466.00,938.00 2466.00,939.00 2466.00,939.00
             2466.00,939.00 2467.00,938.00 2467.00,938.00
             2467.00,938.00 2466.00,938.00 2466.00,938.00 Z
           M 2465.00,941.00
           C 2465.00,941.00 2465.00,942.00 2465.00,942.00
             2465.00,942.00 2464.00,941.00 2464.00,941.00
             2464.00,941.00 2465.00,941.00 2465.00,941.00 Z
           M 1356.00,1491.00
           C 1356.00,1491.00 1356.00,1492.00 1356.00,1492.00
             1356.00,1492.00 1355.00,1491.00 1355.00,1491.00
             1355.00,1491.00 1356.00,1491.00 1356.00,1491.00 Z" />
  <path id="profile"
        fill="none" stroke="black" stroke-width="1"
        d="M 1632.00,316.00
           C 1627.98,313.92 1624.19,312.92 1625.00,319.00
             1625.00,319.00 1608.00,330.00 1608.00,330.00
             1608.00,330.00 1609.00,334.00 1609.00,334.00
             1609.00,334.00 1603.00,336.00 1603.00,336.00
             1603.59,345.78 1598.62,345.65 1593.75,353.04
             1591.28,356.77 1589.56,361.61 1585.00,363.00
             1583.93,368.22 1572.51,368.79 1568.00,369.00
             1568.00,369.00 1568.00,373.00 1568.00,373.00
             1568.00,373.00 1559.00,375.00 1559.00,375.00
             1556.69,377.29 1550.05,381.65 1546.99,382.61
             1546.99,382.61 1540.00,384.40 1540.00,384.40
             1540.00,384.40 1533.00,387.49 1533.00,387.49
             1533.00,387.49 1524.04,390.15 1524.04,390.15
             1524.04,390.15 1514.99,393.95 1514.99,393.95
             1511.89,394.97 1509.23,395.19 1506.17,396.68
             1506.17,396.68 1488.42,406.14 1488.42,406.14
             1480.87,411.84 1481.98,415.59 1472.00,420.00
             1472.00,420.00 1472.00,424.00 1472.00,424.00
             1466.20,425.90 1460.33,433.93 1455.41,438.02
             1455.41,438.02 1436.39,453.37 1436.39,453.37
             1436.39,453.37 1430.47,461.63 1430.47,461.63
             1424.35,468.12 1416.75,473.62 1409.00,478.00
             1409.00,478.00 1410.00,482.00 1410.00,482.00
             1403.75,484.39 1395.39,491.52 1391.15,496.66
             1391.15,496.66 1386.52,502.87 1386.52,502.87
             1383.60,506.05 1381.71,506.16 1379.34,508.41
             1379.34,508.41 1374.53,514.68 1374.53,514.68
             1374.53,514.68 1368.47,520.18 1368.47,520.18
             1368.47,520.18 1364.46,525.74 1364.46,525.74
             1364.46,525.74 1353.36,537.61 1353.36,537.61
             1353.36,537.61 1351.03,542.02 1351.03,542.02
             1346.47,549.43 1338.25,550.52 1337.00,559.00
             1337.00,559.00 1335.00,557.00 1335.00,557.00
             1335.00,557.00 1334.00,562.00 1334.00,562.00
             1334.00,562.00 1332.00,560.00 1332.00,560.00
             1332.00,560.00 1323.00,579.00 1323.00,579.00
             1323.00,579.00 1322.00,580.00 1322.00,580.00
             1322.00,580.00 1320.00,579.00 1320.00,579.00
             1317.06,584.70 1315.43,583.78 1315.00,591.00
             1315.00,591.00 1308.00,593.00 1308.00,593.00
             1308.00,593.00 1310.00,595.00 1310.00,595.00
             1310.00,595.00 1296.99,615.00 1296.99,615.00
             1294.13,619.98 1296.02,621.77 1290.00,624.00
             1290.18,628.43 1285.96,636.59 1283.92,641.00
             1282.59,643.88 1282.13,645.95 1279.00,647.00
             1279.00,647.00 1280.00,651.00 1280.00,651.00
             1280.00,651.00 1277.00,652.00 1277.00,652.00
             1277.00,652.00 1280.00,655.00 1280.00,655.00
             1280.00,655.00 1276.00,654.00 1276.00,654.00
             1276.38,655.15 1277.07,656.82 1277.03,658.01
             1276.99,659.47 1276.15,660.78 1275.76,662.17
             1274.17,667.71 1275.99,668.47 1271.00,673.00
             1271.00,673.00 1270.00,680.00 1270.00,680.00
             1273.45,684.13 1267.25,692.59 1265.85,697.00
             1265.85,697.00 1263.48,718.00 1263.48,718.00
             1262.23,723.61 1260.26,724.66 1258.99,728.17
             1258.99,728.17 1255.81,738.17 1255.81,738.17
             1255.81,738.17 1251.17,770.83 1251.17,770.83
             1251.17,770.83 1247.96,783.00 1247.96,783.00
             1247.96,783.00 1246.83,794.00 1246.83,794.00
             1246.83,794.00 1244.55,805.00 1244.55,805.00
             1244.55,805.00 1241.08,817.00 1241.08,817.00
             1241.08,817.00 1241.08,825.00 1241.08,825.00
             1241.08,825.00 1239.19,835.00 1239.19,835.00
             1239.19,835.00 1237.80,852.00 1237.80,852.00
             1237.80,852.00 1234.50,863.00 1234.50,863.00
             1234.50,863.00 1232.42,871.72 1232.42,871.72
             1232.42,871.72 1231.54,877.85 1231.54,877.85
             1231.54,877.85 1225.27,892.00 1225.27,892.00
             1221.95,901.00 1226.95,898.11 1219.00,908.00
             1223.18,915.65 1217.14,919.41 1216.80,931.00
             1216.80,931.00 1216.80,944.00 1216.80,944.00
             1216.80,944.00 1217.96,960.00 1217.96,960.00
             1217.96,960.00 1215.77,978.00 1215.77,978.00
             1215.77,978.00 1215.77,996.00 1215.77,996.00
             1215.77,996.00 1215.77,1004.00 1215.77,1004.00
             1215.77,1004.00 1215.77,1041.00 1215.77,1041.00
             1215.77,1041.00 1215.77,1051.00 1215.77,1051.00
             1215.77,1051.00 1217.17,1062.00 1217.17,1062.00
             1217.17,1062.00 1217.17,1074.00 1217.17,1074.00
             1217.17,1074.00 1220.43,1096.00 1220.43,1096.00
             1220.43,1096.00 1225.11,1116.91 1225.11,1116.91
             1227.52,1122.93 1231.63,1129.62 1232.00,1136.00
             1232.00,1136.00 1234.00,1134.00 1234.00,1134.00
             1235.14,1140.04 1242.10,1146.66 1245.99,1151.66
             1248.06,1154.33 1248.33,1156.78 1250.31,1158.40
             1252.11,1159.87 1253.84,1159.83 1256.00,1160.00
             1256.85,1165.60 1259.38,1170.25 1265.00,1172.00
             1266.26,1179.63 1273.29,1181.09 1269.98,1188.00
             1269.22,1189.58 1268.10,1190.69 1267.00,1192.00
             1267.00,1192.00 1266.00,1189.00 1266.00,1189.00
             1266.00,1189.00 1258.31,1192.70 1258.31,1192.70
             1258.31,1192.70 1251.00,1209.00 1251.00,1209.00
             1251.00,1209.00 1249.00,1208.00 1249.00,1208.00
             1249.00,1208.00 1247.83,1221.00 1247.83,1221.00
             1247.83,1221.00 1246.18,1234.00 1246.18,1234.00
             1246.18,1234.00 1250.47,1264.00 1250.47,1264.00
             1250.47,1264.00 1253.81,1275.83 1253.81,1275.83
             1253.81,1275.83 1257.55,1295.00 1257.55,1295.00
             1257.55,1295.00 1272.54,1327.00 1272.54,1327.00
             1272.54,1327.00 1277.37,1347.00 1277.37,1347.00
             1277.37,1347.00 1285.46,1372.00 1285.46,1372.00
             1285.46,1372.00 1287.51,1382.00 1287.51,1382.00
             1287.51,1382.00 1294.68,1396.01 1294.68,1396.01
             1294.68,1396.01 1298.30,1407.00 1298.30,1407.00
             1298.30,1407.00 1301.69,1415.00 1301.69,1415.00
             1301.69,1415.00 1308.03,1432.00 1308.03,1432.00
             1308.03,1432.00 1316.02,1442.26 1316.02,1442.26
             1316.02,1442.26 1320.67,1451.00 1320.67,1451.00
             1320.67,1451.00 1325.29,1458.00 1325.29,1458.00
             1325.29,1458.00 1328.98,1465.63 1328.98,1465.63
             1328.98,1465.63 1343.00,1479.00 1343.00,1479.00
             1343.00,1479.00 1340.00,1480.00 1340.00,1480.00
             1340.00,1480.00 1350.00,1485.00 1350.00,1485.00
             1350.00,1485.00 1348.00,1487.00 1348.00,1487.00
             1348.00,1487.00 1354.00,1493.00 1354.00,1493.00
             1354.00,1493.00 1358.00,1492.00 1358.00,1492.00
             1361.58,1497.79 1364.27,1497.02 1370.00,1499.51
             1370.00,1499.51 1383.00,1506.00 1383.00,1506.00
             1383.00,1506.00 1382.00,1508.00 1382.00,1508.00
             1382.00,1508.00 1387.00,1511.00 1387.00,1511.00
             1391.09,1510.99 1391.94,1512.48 1396.04,1513.62
             1396.04,1513.62 1410.00,1517.38 1410.00,1517.38
             1422.66,1522.30 1417.47,1524.02 1433.00,1524.00
             1442.74,1523.98 1443.49,1523.26 1452.04,1519.37
             1455.07,1517.99 1458.39,1515.74 1461.63,1517.75
             1468.52,1522.04 1471.71,1533.42 1472.94,1535.41
             1472.94,1535.41 1476.82,1540.10 1476.82,1540.10
             1476.82,1540.10 1484.39,1552.00 1484.39,1552.00
             1484.39,1552.00 1489.60,1564.25 1489.60,1564.25
             1490.76,1565.20 1491.22,1564.83 1492.00,1565.00
             1494.61,1573.37 1496.77,1578.14 1500.67,1586.00
             1500.67,1586.00 1503.87,1592.00 1503.87,1592.00
             1505.16,1595.17 1504.44,1596.32 1505.09,1599.00
             1505.09,1599.00 1509.85,1610.99 1509.85,1610.99
             1509.85,1610.99 1520.95,1632.00 1520.95,1632.00
             1520.95,1632.00 1526.59,1647.58 1526.59,1647.58
             1530.13,1657.06 1526.20,1656.19 1533.08,1669.00
             1534.49,1671.63 1535.05,1674.12 1538.00,1675.00
             1538.00,1675.00 1537.00,1680.00 1537.00,1680.00
             1537.00,1680.00 1539.48,1683.11 1539.48,1683.11
             1539.48,1683.11 1542.79,1699.00 1542.79,1699.00
             1542.79,1699.00 1547.90,1722.00 1547.90,1722.00
             1547.90,1722.00 1550.64,1731.00 1550.64,1731.00
             1550.64,1731.00 1552.68,1746.08 1552.68,1746.08
             1552.68,1746.08 1557.03,1753.04 1557.03,1753.04
             1557.03,1753.04 1561.76,1768.00 1561.76,1768.00
             1561.76,1768.00 1565.80,1803.00 1565.80,1803.00
             1565.80,1803.00 1567.66,1810.00 1567.66,1810.00
             1567.66,1810.00 1569.86,1828.00 1569.86,1828.00
             1569.86,1828.00 1572.94,1843.00 1572.94,1843.00
             1572.94,1843.00 1572.94,1853.00 1572.94,1853.00
             1572.94,1853.00 1575.16,1872.00 1575.16,1872.00
             1575.16,1872.00 1575.16,1887.00 1575.16,1887.00
             1575.16,1887.00 1579.00,1908.00 1579.00,1908.00
             1579.00,1908.00 1580.33,1926.58 1580.33,1926.58
             1580.33,1926.58 1583.98,1939.09 1583.98,1939.09
             1583.98,1939.09 1583.98,1956.00 1583.98,1956.00
             1583.98,1956.00 1582.98,1969.90 1582.98,1969.90
             1582.98,1969.90 1569.42,1979.59 1569.42,1979.59
             1569.42,1979.59 1558.98,1988.17 1558.98,1988.17
             1558.98,1988.17 1545.00,1994.78 1545.00,1994.78
             1545.00,1994.78 1530.00,2001.00 1530.00,2001.00
             1530.00,2001.00 1532.00,2003.00 1532.00,2003.00
             1527.66,2005.65 1521.17,2011.21 1516.00,2010.00
             1516.00,2010.00 1505.00,2018.00 1505.00,2018.00
             1505.00,2018.00 1506.00,2016.00 1506.00,2016.00
             1506.00,2016.00 1502.00,2016.00 1502.00,2016.00
             1502.00,2016.00 1505.00,2018.00 1505.00,2018.00
             1505.00,2018.00 1485.91,2029.59 1485.91,2029.59
             1485.91,2029.59 1472.00,2033.50 1472.00,2033.50
             1472.00,2033.50 1456.00,2042.00 1456.00,2042.00
             1456.00,2042.00 1457.00,2040.00 1457.00,2040.00
             1457.00,2040.00 1444.09,2047.28 1444.09,2047.28
             1444.09,2047.28 1424.00,2057.00 1424.00,2057.00
             1419.75,2053.72 1413.74,2060.40 1412.00,2064.00
             1407.29,2064.99 1407.72,2067.37 1403.90,2069.62
             1403.90,2069.62 1398.00,2072.67 1398.00,2072.67
             1386.54,2079.40 1392.49,2078.25 1378.00,2083.00
             1378.00,2083.00 1379.00,2085.00 1379.00,2085.00
             1372.85,2088.00 1367.60,2092.44 1362.00,2096.29
             1353.58,2102.06 1353.32,2098.51 1348.00,2109.00
             1348.00,2109.00 1347.00,2106.00 1347.00,2106.00
             1347.00,2106.00 1337.00,2115.00 1337.00,2115.00
             1332.99,2115.92 1325.06,2123.63 1321.00,2126.36
             1321.00,2126.36 1302.00,2135.02 1302.00,2135.02
             1302.00,2135.02 1284.00,2139.46 1284.00,2139.46
             1284.00,2139.46 1252.04,2151.22 1252.04,2151.22
             1252.04,2151.22 1245.83,2152.78 1245.83,2152.78
             1245.83,2152.78 1240.00,2155.17 1240.00,2155.17
             1240.00,2155.17 1234.17,2156.84 1234.17,2156.84
             1234.17,2156.84 1228.91,2159.47 1228.91,2159.47
             1228.91,2159.47 1224.00,2160.84 1224.00,2160.84
             1224.00,2160.84 1209.00,2169.02 1209.00,2169.02
             1209.00,2169.02 1194.00,2173.25 1194.00,2173.25
             1186.62,2176.51 1184.15,2180.16 1175.00,2180.00
             1175.00,2180.00 1165.00,2188.00 1165.00,2188.00
             1161.92,2185.84 1161.60,2186.06 1158.00,2187.00
             1158.00,2187.00 1161.00,2189.00 1161.00,2189.00
             1152.47,2194.27 1153.43,2191.81 1148.00,2194.00
             1148.00,2194.00 1139.00,2199.02 1139.00,2199.02
             1139.00,2199.02 1129.00,2202.67 1129.00,2202.67
             1129.00,2202.67 1119.00,2207.55 1119.00,2207.55
             1119.00,2207.55 1110.00,2210.63 1110.00,2210.63
             1110.00,2210.63 1101.01,2216.17 1101.01,2216.17
             1097.24,2218.48 1090.87,2221.60 1086.75,2223.28
             1086.75,2223.28 1076.17,2226.78 1076.17,2226.78
             1076.17,2226.78 1067.00,2231.30 1067.00,2231.30
             1067.00,2231.30 1055.00,2235.23 1055.00,2235.23
             1055.00,2235.23 1038.00,2245.98 1038.00,2245.98
             1029.21,2250.17 1020.46,2251.58 1018.29,2252.52
             1015.88,2253.55 1012.01,2257.36 1006.00,2259.68
             1006.00,2259.68 999.96,2261.69 999.96,2261.69
             999.96,2261.69 988.74,2268.98 988.74,2268.98
             988.74,2268.98 980.00,2273.32 980.00,2273.32
             973.40,2276.39 972.39,2274.15 963.00,2279.57
             959.09,2281.83 952.15,2282.36 951.00,2287.00
             937.50,2287.66 936.32,2292.85 930.91,2295.75
             926.47,2298.14 922.07,2296.56 922.00,2303.00
             922.00,2303.00 911.00,2306.00 911.00,2306.00
             908.11,2311.83 905.95,2311.58 901.21,2315.03
             901.21,2315.03 895.79,2319.91 895.79,2319.91
             895.79,2319.91 882.05,2329.18 882.05,2329.18
             878.15,2331.94 876.00,2335.25 871.00,2336.00
             871.00,2336.00 870.00,2337.00 870.00,2337.00
             870.00,2337.00 871.00,2339.00 871.00,2339.00
             865.77,2341.10 858.19,2344.56 859.00,2351.00
             859.00,2351.00 852.00,2352.00 852.00,2352.00
             849.60,2360.85 838.50,2358.23 838.00,2366.00
             830.72,2368.24 821.47,2372.08 819.00,2380.00
             819.00,2380.00 818.00,2379.00 818.00,2379.00
             818.00,2379.00 816.00,2380.00 816.00,2380.00
             816.00,2380.00 817.00,2383.00 817.00,2383.00
             817.00,2383.00 809.00,2384.00 809.00,2384.00
             807.84,2387.19 807.02,2390.38 803.94,2392.32
             800.70,2394.36 793.30,2392.72 796.00,2399.00
             796.00,2399.00 777.00,2411.00 777.00,2411.00
             777.00,2411.00 778.00,2413.00 778.00,2413.00
             774.58,2414.62 764.11,2421.99 762.61,2425.11
             761.81,2426.76 762.05,2427.35 762.00,2429.00
             762.00,2429.00 754.83,2434.94 754.83,2434.94
             754.83,2434.94 742.00,2443.00 742.00,2443.00
             742.00,2443.00 743.00,2447.00 743.00,2447.00
             743.00,2447.00 728.44,2457.82 728.44,2457.82
             728.44,2457.82 724.58,2462.92 724.58,2462.92
             724.58,2462.92 712.00,2472.00 712.00,2472.00
             710.82,2476.04 704.43,2480.30 701.01,2482.74
             696.71,2485.82 690.30,2492.25 688.00,2497.00
             688.00,2497.00 685.00,2496.00 685.00,2496.00
             677.64,2505.56 668.29,2512.30 659.04,2519.88
             659.04,2519.88 648.99,2528.68 648.99,2528.68
             648.11,2529.90 648.23,2530.66 648.00,2532.00
             648.00,2532.00 638.00,2536.00 638.00,2536.00
             637.13,2538.80 636.84,2538.54 634.00,2539.00
             634.00,2539.00 633.00,2545.00 633.00,2545.00
             619.38,2549.48 623.53,2555.58 615.00,2563.00
             615.00,2563.00 611.00,2562.00 611.00,2562.00
             611.00,2562.00 610.00,2571.00 610.00,2571.00
             605.33,2569.55 604.57,2569.83 602.00,2574.00
             602.00,2574.00 600.00,2573.00 600.00,2573.00
             595.16,2578.10 592.58,2576.66 591.00,2584.00
             591.00,2584.00 588.00,2586.00 588.00,2586.00
             588.00,2586.00 586.00,2587.00 586.00,2587.00
             577.91,2587.09 571.47,2596.95 565.91,2601.74
             560.76,2606.18 555.18,2607.66 553.00,2615.00
             549.22,2615.43 549.05,2615.85 547.00,2619.00
             547.00,2619.00 549.00,2619.00 549.00,2619.00
             549.00,2619.00 542.00,2627.00 542.00,2627.00
             542.00,2627.00 541.00,2624.00 541.00,2624.00
             536.97,2626.79 534.57,2627.83 534.00,2633.00
             528.54,2635.74 523.22,2645.73 522.70,2651.83
             522.70,2651.83 522.70,2660.00 522.70,2660.00
             522.70,2660.00 520.90,2679.00 520.90,2679.00
             519.29,2689.28 521.32,2689.25 514.21,2697.98
             510.09,2703.05 510.91,2702.30 505.00,2705.00
             504.81,2711.08 501.31,2714.45 496.00,2717.00
             496.00,2717.00 489.90,2724.98 489.90,2724.98
             489.90,2724.98 484.37,2734.99 484.37,2734.99
             484.37,2734.99 476.43,2744.30 476.43,2744.30
             476.43,2744.30 472.66,2751.54 472.66,2751.54
             472.66,2751.54 465.45,2759.04 465.45,2759.04
             465.45,2759.04 456.00,2772.00 456.00,2772.00
             452.36,2780.09 451.00,2777.55 449.00,2788.00
             449.00,2788.00 448.00,2786.00 448.00,2786.00
             448.00,2786.00 446.00,2792.00 446.00,2792.00
             446.00,2792.00 442.00,2792.00 442.00,2792.00
             442.00,2792.00 438.00,2806.00 438.00,2806.00
             432.93,2807.71 427.25,2816.64 427.00,2822.00
             422.59,2823.70 416.60,2835.36 416.00,2840.00
             411.18,2841.87 409.15,2850.30 410.00,2855.00
             407.10,2856.74 406.85,2857.68 404.76,2860.19
             404.76,2860.19 399.42,2866.21 399.42,2866.21
             399.42,2866.21 394.81,2877.92 394.81,2877.92
             390.90,2884.66 387.19,2885.99 388.00,2895.00
             388.00,2895.00 382.00,2896.00 382.00,2896.00
             380.42,2904.38 379.29,2906.76 374.68,2914.00
             372.78,2916.98 369.69,2919.59 371.00,2923.00
             371.00,2923.00 368.00,2924.00 368.00,2924.00
             368.00,2924.00 361.15,2942.46 361.15,2942.46
             361.15,2942.46 359.00,2944.00 359.00,2944.00
             359.00,2944.00 360.00,2948.00 360.00,2948.00
             360.00,2948.00 351.00,2961.00 351.00,2961.00
             351.00,2961.00 348.00,2976.00 348.00,2976.00
             348.00,2976.00 344.00,2977.00 344.00,2977.00
             343.76,2983.06 340.50,2989.04 336.00,2993.00
             336.00,2993.00 337.00,2996.00 337.00,2996.00
             328.18,3000.42 331.48,3006.13 327.88,3014.00
             327.88,3014.00 311.85,3041.28 311.85,3041.28
             309.28,3046.70 310.68,3051.14 306.00,3057.00
             306.24,3067.70 299.03,3071.76 298.00,3079.00
             292.25,3082.82 292.96,3088.00 290.97,3094.00
             290.97,3094.00 284.46,3108.00 284.46,3108.00
             283.21,3111.28 280.41,3114.73 282.00,3118.00
             278.25,3122.86 275.71,3125.74 275.00,3132.00
             271.54,3132.91 271.48,3137.87 271.00,3141.00
             271.00,3141.00 268.00,3140.00 268.00,3140.00
             265.40,3151.63 260.13,3170.23 252.00,3179.00
             252.00,3179.00 244.00,3208.00 244.00,3208.00
             238.63,3209.94 240.91,3212.59 239.42,3217.00
             239.42,3217.00 232.43,3230.46 232.43,3230.46
             231.26,3231.67 230.78,3231.56 230.00,3232.00
             229.17,3241.90 227.53,3242.20 223.88,3250.17
             223.88,3250.17 220.50,3260.28 220.50,3260.28
             220.50,3260.28 216.09,3269.00 216.09,3269.00
             213.45,3274.53 213.72,3278.95 208.00,3282.00
             208.00,3282.00 202.80,3298.17 202.80,3298.17
             202.80,3298.17 198.96,3311.00 198.96,3311.00
             198.96,3311.00 193.33,3325.00 193.33,3325.00
             193.33,3325.00 189.09,3334.00 189.09,3334.00
             189.09,3334.00 184.26,3350.41 184.26,3350.41
             184.26,3350.41 181.00,3352.00 181.00,3352.00
             178.53,3362.97 178.20,3367.61 172.90,3378.00
             170.44,3382.83 167.22,3384.48 164.93,3390.00
             162.82,3395.08 163.34,3397.22 162.45,3399.91
             162.45,3399.91 154.71,3416.42 154.71,3416.42
             154.71,3416.42 152.78,3426.00 152.78,3426.00
             152.78,3426.00 144.27,3448.28 144.27,3448.28
             144.27,3448.28 141.25,3459.00 141.25,3459.00
             141.25,3459.00 125.11,3491.09 125.11,3491.09
             125.11,3491.09 122.89,3498.00 122.89,3498.00
             122.89,3498.00 111.43,3525.91 111.43,3525.91
             111.43,3525.91 106.61,3533.04 106.61,3533.04
             106.61,3533.04 101.72,3543.00 101.72,3543.00
             98.40,3549.93 99.81,3555.17 94.00,3561.00
             92.51,3567.07 88.26,3566.31 90.00,3575.00
             90.00,3575.00 85.00,3582.00 85.00,3582.00
             85.00,3582.00 86.00,3585.00 86.00,3585.00
             78.51,3589.27 80.50,3592.11 77.73,3598.96
             75.90,3603.50 74.06,3603.67 75.00,3609.00
             71.79,3611.41 72.13,3612.11 72.00,3616.00
             66.44,3617.90 64.14,3626.58 64.00,3632.00
             64.00,3632.00 60.00,3632.00 60.00,3632.00
             59.17,3637.74 53.53,3651.22 51.14,3657.28
             49.98,3660.22 50.18,3663.77 47.00,3665.00
             45.83,3669.72 44.30,3676.42 40.00,3679.00
             40.00,3679.00 42.00,3681.00 42.00,3681.00
             42.00,3681.00 30.95,3706.99 30.95,3706.99
             30.95,3706.99 19.27,3732.00 19.27,3732.00
             19.27,3732.00 16.56,3740.99 16.56,3740.99
             16.56,3740.99 11.87,3749.09 11.87,3749.09
             11.87,3749.09 7.16,3764.91 7.16,3764.91
             3.86,3774.38 0.02,3780.41 0.00,3791.00
             0.00,3791.00 0.00,3875.00 0.00,3875.00
             0.00,3875.00 0.00,4093.00 0.00,4093.00
             0.00,4095.17 -0.23,4098.68 1.02,4100.50
             2.33,4102.40 5.88,4103.55 8.00,4104.31
             8.00,4104.31 24.00,4109.81 24.00,4109.81
             24.00,4109.81 43.00,4116.45 43.00,4116.45
             43.00,4116.45 64.00,4125.77 64.00,4125.77
             64.00,4125.77 103.00,4139.81 103.00,4139.81
             123.49,4147.57 126.98,4147.69 148.00,4150.28
             148.00,4150.28 164.00,4152.00 164.00,4152.00
             164.00,4152.00 182.00,4153.00 182.00,4153.00
             182.00,4153.00 193.00,4153.00 193.00,4153.00
             193.00,4153.00 204.00,4153.91 204.00,4153.91
             204.00,4153.91 237.00,4156.00 237.00,4156.00
             237.00,4156.00 254.00,4157.00 254.00,4157.00
             254.00,4157.00 290.00,4158.00 290.00,4158.00
             302.51,4158.02 320.15,4161.58 333.00,4163.58
             333.00,4163.58 381.00,4169.72 381.00,4169.72
             391.78,4171.05 401.53,4171.35 409.98,4179.17
             417.03,4185.70 417.15,4194.20 418.43,4203.00
             418.43,4203.00 424.00,4240.00 424.00,4240.00
             424.00,4240.00 427.09,4240.00 427.09,4240.00
             427.09,4240.00 427.09,4254.00 427.09,4254.00
             427.09,4254.00 429.03,4263.00 429.03,4263.00
             429.03,4263.00 429.03,4269.83 429.03,4269.83
             429.03,4269.83 431.66,4277.01 431.66,4277.01
             431.66,4277.01 432.37,4288.00 432.37,4288.00
             432.37,4288.00 434.56,4297.00 434.56,4297.00
             434.56,4297.00 435.32,4308.00 435.32,4308.00
             435.32,4308.00 437.90,4317.91 437.90,4317.91
             437.90,4317.91 438.51,4324.09 438.51,4324.09
             438.51,4324.09 442.76,4346.00 442.76,4346.00
             442.76,4346.00 445.33,4363.96 445.33,4363.96
             445.33,4363.96 450.30,4380.04 450.30,4380.04
             450.30,4380.04 451.95,4388.91 451.95,4388.91
             451.95,4388.91 453.92,4394.66 453.92,4394.66
             453.92,4394.66 454.46,4398.75 454.46,4398.75
             454.46,4398.75 455.87,4404.04 455.87,4404.04
             455.87,4404.04 456.63,4416.00 456.63,4416.00
             456.63,4416.00 463.23,4430.55 463.23,4430.55
             463.23,4430.55 467.10,4436.05 467.10,4436.05
             467.10,4436.05 472.24,4446.75 472.24,4446.75
             472.24,4446.75 471.00,4448.00 471.00,4448.00
             471.00,4448.00 476.85,4456.00 476.85,4456.00
             476.85,4456.00 476.85,4459.83 476.85,4459.83
             476.85,4459.83 484.59,4471.02 484.59,4471.02
             484.59,4471.02 488.00,4472.00 488.00,4472.00
             488.79,4483.57 494.32,4489.06 499.99,4498.17
             499.99,4498.17 510.24,4515.95 510.24,4515.95
             510.24,4515.95 514.29,4521.45 514.29,4521.45
             514.29,4521.45 518.14,4528.03 518.14,4528.03
             526.09,4538.35 521.78,4540.98 534.00,4541.00
             534.00,4541.00 656.00,4541.00 656.00,4541.00
             656.00,4541.00 1198.00,4541.00 1198.00,4541.00
             1198.00,4541.00 3523.00,4541.00 3523.00,4541.00
             3523.00,4541.00 3523.00,2994.00 3523.00,2994.00
             3523.00,2994.00 3523.00,2618.00 3523.00,2618.00
             3522.98,2604.53 3517.53,2605.65 3511.80,2599.59
             3511.80,2599.59 3506.67,2593.90 3506.67,2593.90
             3506.67,2593.90 3501.61,2589.59 3501.61,2589.59
             3499.80,2587.59 3499.16,2585.56 3496.79,2583.41
             3494.38,2581.23 3492.87,2581.27 3489.42,2577.88
             3489.42,2577.88 3476.55,2564.58 3476.55,2564.58
             3474.20,2562.60 3471.93,2562.98 3469.69,2560.57
             3469.69,2560.57 3465.59,2554.30 3465.59,2554.30
             3465.59,2554.30 3460.59,2550.55 3460.59,2550.55
             3460.59,2550.55 3448.52,2537.63 3448.52,2537.63
             3446.59,2535.30 3446.49,2534.16 3445.11,2532.09
             3445.11,2532.09 3438.55,2524.42 3438.55,2524.42
             3438.55,2524.42 3426.37,2513.63 3426.37,2513.63
             3426.37,2513.63 3411.55,2497.59 3411.55,2497.59
             3410.11,2496.42 3409.60,2496.50 3408.00,2496.00
             3408.00,2496.00 3399.00,2481.00 3399.00,2481.00
             3399.00,2481.00 3398.00,2480.00 3398.00,2480.00
             3393.22,2479.50 3394.11,2476.60 3391.44,2473.46
             3388.92,2470.50 3383.97,2468.32 3379.33,2462.57
             3379.33,2462.57 3374.59,2455.51 3374.59,2455.51
             3374.59,2455.51 3362.14,2444.80 3362.14,2444.80
             3362.14,2444.80 3357.48,2439.03 3357.48,2439.03
             3357.48,2439.03 3349.43,2433.54 3349.43,2433.54
             3349.43,2433.54 3336.54,2419.97 3336.54,2419.97
             3332.71,2416.07 3322.67,2412.30 3321.00,2407.00
             3303.18,2397.86 3309.44,2397.64 3295.00,2386.18
             3295.00,2386.18 3288.26,2381.55 3288.26,2381.55
             3285.29,2379.10 3283.43,2376.27 3279.58,2373.78
             3279.58,2373.78 3273.00,2370.53 3273.00,2370.53
             3273.00,2370.53 3263.04,2363.25 3263.04,2363.25
             3259.01,2360.01 3259.10,2358.74 3256.63,2356.39
             3254.56,2354.42 3253.29,2354.19 3251.17,2352.79
             3246.03,2349.42 3246.07,2346.50 3239.00,2347.00
             3237.92,2343.99 3237.96,2344.19 3235.00,2343.00
             3235.00,2343.00 3237.00,2342.00 3237.00,2342.00
             3237.00,2342.00 3232.00,2338.00 3232.00,2338.00
             3225.47,2337.35 3228.22,2332.35 3220.00,2327.87
             3212.45,2323.77 3211.69,2321.77 3208.83,2320.17
             3206.54,2318.89 3204.71,2319.16 3202.26,2317.46
             3202.26,2317.46 3189.75,2305.94 3189.75,2305.94
             3189.75,2305.94 3184.75,2303.49 3184.75,2303.49
             3184.75,2303.49 3175.12,2296.45 3175.12,2296.45
             3175.12,2296.45 3168.87,2290.13 3168.87,2290.13
             3168.87,2290.13 3163.17,2286.52 3163.17,2286.52
             3163.17,2286.52 3158.84,2282.71 3158.84,2282.71
             3158.84,2282.71 3153.59,2279.48 3153.59,2279.48
             3151.08,2277.36 3149.19,2274.18 3145.80,2272.24
             3145.80,2272.24 3141.12,2270.32 3141.12,2270.32
             3141.12,2270.32 3114.00,2257.03 3114.00,2257.03
             3114.00,2257.03 3106.00,2254.25 3106.00,2254.25
             3106.00,2254.25 3088.04,2244.60 3088.04,2244.60
             3088.04,2244.60 3082.72,2240.94 3082.72,2240.94
             3080.22,2239.53 3075.03,2238.39 3071.09,2235.79
             3067.28,2233.27 3067.14,2231.06 3062.91,2228.85
             3057.06,2225.79 3055.19,2227.51 3050.00,2225.55
             3039.44,2221.55 3042.44,2221.15 3036.87,2218.19
             3036.87,2218.19 3025.00,2213.02 3025.00,2213.02
             3019.66,2210.24 3019.42,2208.35 3013.00,2207.00
             3013.00,2207.00 3015.00,2206.00 3015.00,2206.00
             3015.00,2206.00 2988.04,2195.12 2988.04,2195.12
             2988.04,2195.12 2983.00,2190.00 2983.00,2190.00
             2979.88,2189.88 2967.55,2184.01 2963.96,2182.29
             2963.96,2182.29 2947.21,2174.72 2947.21,2174.72
             2947.21,2174.72 2942.63,2171.10 2942.63,2171.10
             2942.63,2171.10 2935.00,2167.17 2935.00,2167.17
             2935.00,2167.17 2926.00,2163.72 2926.00,2163.72
             2926.00,2163.72 2916.00,2157.81 2916.00,2157.81
             2916.00,2157.81 2892.05,2151.32 2892.05,2151.32
             2892.05,2151.32 2875.07,2138.59 2875.07,2138.59
             2875.07,2138.59 2862.00,2131.26 2862.00,2131.26
             2862.00,2131.26 2854.00,2128.47 2854.00,2128.47
             2854.00,2128.47 2836.00,2118.85 2836.00,2118.85
             2836.00,2118.85 2827.00,2116.43 2827.00,2116.43
             2827.00,2116.43 2814.00,2111.63 2814.00,2111.63
             2814.00,2111.63 2803.00,2106.14 2803.00,2106.14
             2797.91,2104.73 2795.54,2106.87 2787.17,2102.58
             2783.71,2100.81 2777.82,2095.18 2774.58,2092.69
             2768.82,2088.27 2755.90,2081.32 2749.00,2079.00
             2749.00,2079.00 2751.00,2077.00 2751.00,2077.00
             2751.00,2077.00 2735.00,2070.00 2735.00,2070.00
             2731.33,2069.81 2731.53,2069.64 2729.00,2067.00
             2725.11,2066.29 2721.68,2063.86 2719.00,2061.00
             2714.57,2060.77 2714.01,2060.18 2711.00,2057.00
             2711.00,2057.00 2705.00,2052.00 2705.00,2052.00
             2705.00,2052.00 2700.46,2052.51 2700.46,2052.51
             2700.46,2052.51 2685.00,2044.51 2685.00,2044.51
             2685.00,2044.51 2678.00,2040.00 2678.00,2040.00
             2673.21,2040.19 2668.60,2037.02 2665.00,2034.00
             2661.19,2034.15 2654.36,2032.72 2651.32,2030.43
             2649.12,2028.77 2647.98,2026.19 2644.91,2024.86
             2642.09,2023.65 2640.13,2024.67 2637.00,2023.63
             2637.00,2023.63 2630.96,2021.05 2630.96,2021.05
             2630.96,2021.05 2625.17,2019.53 2625.17,2019.53
             2625.17,2019.53 2618.96,2016.77 2618.96,2016.77
             2615.34,2015.34 2607.91,2013.60 2604.00,2013.00
             2604.00,2013.00 2606.00,2011.00 2606.00,2011.00
             2599.78,2008.53 2595.55,2008.18 2591.00,2003.00
             2585.64,2002.97 2581.85,2001.80 2579.00,1997.00
             2579.00,1997.00 2577.00,1999.00 2577.00,1999.00
             2577.00,1999.00 2577.00,1996.00 2577.00,1996.00
             2577.00,1996.00 2561.47,1983.82 2561.47,1983.82
             2561.47,1983.82 2550.30,1969.26 2550.30,1969.26
             2550.30,1969.26 2543.77,1964.60 2543.77,1964.60
             2543.77,1964.60 2538.55,1958.37 2538.55,1958.37
             2538.55,1958.37 2530.17,1951.56 2530.17,1951.56
             2530.17,1951.56 2521.00,1941.29 2521.00,1941.29
             2521.00,1941.29 2511.00,1933.00 2511.00,1933.00
             2511.00,1933.00 2509.00,1934.00 2509.00,1934.00
             2509.00,1934.00 2505.00,1928.00 2505.00,1928.00
             2505.00,1928.00 2503.00,1929.00 2503.00,1929.00
             2502.47,1928.24 2502.88,1928.19 2501.57,1927.20
             2501.57,1927.20 2488.83,1918.84 2488.83,1918.84
             2484.51,1917.06 2476.89,1917.36 2475.00,1909.00
             2475.00,1909.00 2465.00,1907.00 2465.00,1907.00
             2463.40,1902.42 2461.47,1903.06 2457.00,1903.00
             2457.00,1903.00 2459.00,1901.00 2459.00,1901.00
             2452.18,1896.94 2446.94,1897.33 2441.00,1891.00
             2432.93,1892.57 2427.36,1888.04 2420.00,1885.77
             2415.03,1884.24 2412.22,1884.64 2408.00,1881.00
             2403.46,1881.01 2403.70,1879.40 2399.91,1878.41
             2399.91,1878.41 2394.00,1877.44 2394.00,1877.44
             2394.00,1877.44 2386.00,1873.42 2386.00,1873.42
             2386.00,1873.42 2379.00,1871.83 2379.00,1871.83
             2379.00,1871.83 2372.00,1869.45 2372.00,1869.45
             2368.52,1868.27 2361.91,1866.44 2359.60,1863.61
             2356.63,1859.97 2357.47,1848.78 2356.84,1844.09
             2356.31,1840.06 2353.82,1839.39 2352.57,1835.00
             2352.57,1835.00 2351.00,1815.00 2351.00,1815.00
             2343.95,1807.84 2344.98,1792.81 2343.58,1783.00
             2343.58,1783.00 2337.92,1757.00 2337.92,1757.00
             2337.92,1757.00 2337.92,1750.00 2337.92,1750.00
             2337.92,1750.00 2336.04,1741.00 2336.04,1741.00
             2336.04,1741.00 2336.04,1724.04 2336.04,1724.04
             2336.04,1724.04 2335.00,1718.72 2335.00,1718.72
             2335.00,1718.72 2335.00,1709.00 2335.00,1709.00
             2335.00,1709.00 2335.00,1699.00 2335.00,1699.00
             2333.77,1693.08 2332.72,1694.76 2332.85,1685.72
             2332.91,1681.73 2334.04,1674.73 2331.00,1672.00
             2331.00,1672.00 2331.00,1670.00 2331.00,1670.00
             2334.14,1667.16 2332.21,1657.88 2331.00,1654.01
             2330.47,1652.31 2329.31,1650.28 2329.25,1648.58
             2329.00,1641.64 2340.03,1625.19 2341.00,1616.00
             2348.50,1614.68 2344.20,1611.20 2345.74,1606.00
             2346.77,1602.52 2349.82,1600.24 2351.13,1596.91
             2351.13,1596.91 2354.00,1584.00 2354.00,1584.00
             2358.56,1582.97 2357.87,1580.13 2358.34,1576.09
             2358.34,1576.09 2359.46,1567.00 2359.46,1567.00
             2359.46,1567.00 2361.61,1559.00 2361.61,1559.00
             2361.61,1559.00 2362.30,1554.00 2362.30,1554.00
             2363.75,1547.78 2366.69,1545.42 2368.33,1537.00
             2368.33,1537.00 2370.09,1514.00 2370.09,1514.00
             2370.09,1514.00 2373.42,1500.00 2373.42,1500.00
             2373.42,1500.00 2373.42,1487.00 2373.42,1487.00
             2373.42,1487.00 2373.42,1478.17 2373.42,1478.17
             2373.42,1478.17 2374.43,1473.83 2374.43,1473.83
             2374.43,1473.83 2374.43,1468.00 2374.43,1468.00
             2374.43,1468.00 2375.00,1460.00 2375.00,1460.00
             2375.00,1460.00 2376.10,1464.00 2376.10,1464.00
             2378.01,1458.92 2376.00,1456.04 2376.10,1451.00
             2376.10,1451.00 2377.19,1439.83 2377.19,1439.83
             2377.66,1426.56 2375.23,1429.62 2381.00,1416.00
             2386.02,1417.43 2394.09,1417.81 2398.68,1414.86
             2398.68,1414.86 2404.18,1409.79 2404.18,1409.79
             2408.89,1406.17 2409.54,1407.21 2412.00,1401.00
             2412.00,1401.00 2415.00,1402.00 2415.00,1402.00
             2417.98,1395.75 2420.85,1395.49 2425.20,1390.82
             2425.20,1390.82 2433.49,1380.02 2433.49,1380.02
             2438.33,1373.82 2440.63,1373.83 2444.00,1365.00
             2444.00,1365.00 2447.00,1366.00 2447.00,1366.00
             2448.28,1357.76 2456.07,1346.34 2461.89,1340.40
             2461.89,1340.40 2469.67,1333.59 2469.67,1333.59
             2469.67,1333.59 2472.00,1320.00 2472.00,1320.00
             2470.23,1316.24 2474.37,1308.47 2476.41,1305.00
             2478.28,1301.83 2485.57,1283.31 2486.00,1280.00
             2486.00,1280.00 2489.00,1280.00 2489.00,1280.00
             2489.03,1270.66 2490.07,1271.28 2490.35,1266.00
             2490.35,1266.00 2490.35,1258.00 2490.35,1258.00
             2490.97,1250.99 2492.55,1244.10 2491.90,1237.00
             2491.90,1237.00 2489.96,1229.00 2489.96,1229.00
             2489.96,1229.00 2489.96,1217.00 2489.96,1217.00
             2489.96,1217.00 2486.09,1199.00 2486.09,1199.00
             2486.09,1199.00 2484.56,1186.84 2484.56,1186.84
             2483.42,1183.20 2481.23,1184.12 2479.98,1178.98
             2478.28,1171.21 2479.84,1170.52 2479.98,1164.04
             2479.98,1164.04 2479.44,1155.96 2479.44,1155.96
             2479.44,1155.96 2479.44,1150.01 2479.44,1150.01
             2479.24,1145.34 2477.25,1145.20 2477.02,1139.00
             2477.02,1139.00 2481.00,1110.00 2481.00,1110.00
             2481.00,1110.00 2480.00,1092.00 2480.00,1092.00
             2479.98,1082.45 2477.23,1069.87 2473.73,1061.00
             2472.23,1057.19 2471.98,1052.14 2469.43,1049.49
             2464.97,1044.87 2457.70,1043.13 2452.00,1041.00
             2452.00,1041.00 2451.00,1044.00 2451.00,1044.00
             2448.93,1036.44 2452.06,1034.88 2454.09,1028.00
             2456.25,1020.66 2455.26,1019.59 2456.11,1016.00
             2456.11,1016.00 2459.41,1005.00 2459.41,1005.00
             2459.41,1005.00 2460.26,995.00 2460.26,995.00
             2461.56,987.06 2463.99,984.12 2464.00,975.00
             2464.02,964.77 2463.24,951.81 2465.00,942.00
             2465.00,942.00 2466.00,957.00 2466.00,957.00
             2467.19,954.01 2467.85,944.19 2466.00,941.54
             2465.16,940.34 2464.62,940.42 2464.00,940.00
             2465.68,932.95 2463.23,927.57 2461.41,921.04
             2460.48,917.66 2461.08,916.66 2460.68,913.91
             2460.68,913.91 2459.20,908.04 2459.20,908.04
             2459.20,908.04 2458.05,899.96 2458.05,899.96
             2457.27,895.15 2455.77,892.90 2456.00,888.00
             2453.79,885.56 2449.10,875.25 2448.39,872.00
             2448.39,872.00 2447.73,866.17 2447.73,866.17
             2447.08,863.26 2445.66,862.58 2445.14,858.99
             2445.14,858.99 2444.54,848.00 2444.54,848.00
             2442.88,838.83 2439.98,838.37 2438.08,833.28
             2436.13,828.06 2436.34,822.75 2435.70,820.09
             2434.97,817.05 2433.24,816.04 2432.43,812.96
             2432.43,812.96 2431.31,802.01 2431.31,802.01
             2431.31,802.01 2422.28,772.00 2422.28,772.00
             2422.28,772.00 2419.02,752.13 2419.02,752.13
             2418.17,749.38 2416.38,748.93 2414.92,746.74
             2413.67,744.85 2412.45,740.31 2411.90,738.00
             2409.31,727.20 2410.58,721.45 2409.79,716.00
             2409.79,716.00 2406.26,705.00 2406.26,705.00
             2406.26,705.00 2401.78,678.00 2401.78,678.00
             2400.94,675.33 2397.14,665.76 2395.76,663.58
             2395.76,663.58 2391.21,657.00 2391.21,657.00
             2391.21,657.00 2387.41,649.00 2387.41,649.00
             2387.41,649.00 2380.88,638.72 2380.88,638.72
             2380.88,638.72 2378.15,632.28 2378.15,632.28
             2378.15,632.28 2367.80,620.90 2367.80,620.90
             2367.80,620.90 2358.11,603.63 2358.11,603.63
             2356.45,601.63 2352.41,599.88 2348.59,594.83
             2348.59,594.83 2343.10,586.13 2343.10,586.13
             2340.20,582.41 2331.39,575.78 2327.00,574.00
             2327.00,574.00 2328.00,571.00 2328.00,571.00
             2320.32,565.93 2309.37,559.80 2303.48,552.91
             2303.48,552.91 2287.76,526.00 2287.76,526.00
             2283.06,518.80 2276.73,514.36 2276.00,505.00
             2271.20,502.77 2266.27,494.22 2266.00,489.00
             2266.00,489.00 2265.00,488.00 2265.00,488.00
             2265.00,488.00 2263.00,489.00 2263.00,489.00
             2259.99,475.86 2255.18,481.87 2252.00,471.00
             2247.69,469.70 2244.74,461.99 2243.00,458.00
             2243.00,458.00 2241.00,459.00 2241.00,459.00
             2235.34,449.09 2232.31,448.60 2225.24,441.41
             2222.54,438.67 2221.08,435.13 2217.90,432.88
             2217.90,432.88 2212.05,429.46 2212.05,429.46
             2212.05,429.46 2206.55,425.25 2206.55,425.25
             2202.17,422.63 2197.42,421.00 2193.33,417.70
             2197.93,421.41 2174.05,398.90 2177.54,402.57
             2177.54,402.57 2174.46,398.98 2174.46,398.98
             2174.46,398.98 2168.01,396.08 2168.01,396.08
             2162.57,393.13 2164.39,392.67 2155.04,388.17
             2155.04,388.17 2144.00,382.34 2144.00,382.34
             2138.38,378.83 2136.22,375.29 2129.00,375.00
             2125.83,368.80 2120.05,368.04 2114.17,365.56
             2114.17,365.56 2093.00,354.02 2093.00,354.02
             2093.00,354.02 2083.00,348.72 2083.00,348.72
             2080.80,347.92 2076.15,347.58 2070.01,345.12
             2065.34,343.26 2065.18,341.96 2061.91,340.28
             2061.91,340.28 2053.04,336.80 2053.04,336.80
             2048.28,334.42 2048.52,332.81 2044.82,330.66
             2040.19,327.99 2037.87,328.58 2034.00,327.12
             2034.00,327.12 2020.91,320.50 2020.91,320.50
             2020.91,320.50 2015.00,319.02 2015.00,319.02
             2007.16,316.51 2010.15,315.79 1999.00,314.28
             1993.02,313.47 1980.63,312.43 1976.00,309.00
             1966.92,310.63 1951.86,308.87 1944.00,304.08
             1941.35,305.83 1939.06,304.47 1936.00,304.08
             1931.45,303.72 1929.06,304.38 1924.04,303.16
             1924.04,303.16 1916.91,300.94 1916.91,300.94
             1901.17,297.33 1900.66,294.08 1892.00,291.48
             1876.00,286.68 1862.79,284.73 1846.00,285.00
             1838.37,285.13 1836.31,287.98 1823.00,288.00
             1823.00,288.00 1796.00,289.07 1796.00,289.07
             1789.55,288.94 1782.42,288.31 1776.00,289.07
             1776.00,289.07 1764.00,292.63 1764.00,292.63
             1764.00,292.63 1753.00,293.46 1753.00,293.46
             1753.00,293.46 1735.00,297.57 1735.00,297.57
             1735.00,297.57 1709.00,299.00 1709.00,299.00
             1703.22,299.03 1687.32,302.68 1681.00,304.11
             1664.85,307.78 1664.61,304.87 1643.00,311.96
             1639.61,313.07 1633.50,312.79 1632.00,316.00 Z
           M 1596.00,344.00
           C 1596.00,344.00 1599.00,345.00 1599.00,345.00
             1599.00,345.00 1596.00,344.00 1596.00,344.00 Z
           M 2310.00,557.00
           C 2310.00,557.00 2310.00,558.00 2310.00,558.00
             2310.00,558.00 2311.00,557.00 2311.00,557.00
             2311.00,557.00 2310.00,557.00 2310.00,557.00 Z
           M 1251.00,776.00
           C 1251.00,776.00 1251.00,777.00 1251.00,777.00
             1251.00,777.00 1250.00,776.00 1250.00,776.00
             1250.00,776.00 1251.00,776.00 1251.00,776.00 Z
           M 2434.00,818.00
           C 2434.00,818.00 2434.00,819.00 2434.00,819.00
             2434.00,819.00 2433.00,818.00 2433.00,818.00
             2433.00,818.00 2434.00,818.00 2434.00,818.00 Z
           M 1234.00,856.00
           C 1234.00,856.00 1234.00,857.00 1234.00,857.00
             1234.00,857.00 1235.00,856.00 1235.00,856.00
             1235.00,856.00 1234.00,856.00 1234.00,856.00 Z
           M 2466.00,938.00
           C 2466.00,938.00 2466.00,939.00 2466.00,939.00
             2466.00,939.00 2467.00,938.00 2467.00,938.00
             2467.00,938.00 2466.00,938.00 2466.00,938.00 Z
           M 2465.00,941.00
           C 2465.00,941.00 2465.00,942.00 2465.00,942.00
             2465.00,942.00 2464.00,941.00 2464.00,941.00
             2464.00,941.00 2465.00,941.00 2465.00,941.00 Z
           M 1356.00,1491.00
           C 1356.00,1491.00 1356.00,1492.00 1356.00,1492.00
             1356.00,1492.00 1355.00,1491.00 1355.00,1491.00
             1355.00,1491.00 1356.00,1491.00 1356.00,1491.00 Z
           M 1553.00,1735.00
           C 1553.00,1735.00 1553.00,1736.00 1553.00,1736.00
             1553.00,1736.00 1552.00,1735.00 1552.00,1735.00
             1552.00,1735.00 1553.00,1735.00 1553.00,1735.00 Z
           M 2486.00,1916.00
           C 2486.00,1916.00 2486.00,1917.00 2486.00,1917.00
             2486.00,1917.00 2487.00,1916.00 2487.00,1916.00
             2487.00,1916.00 2486.00,1916.00 2486.00,1916.00 Z
           M 2545.00,1964.00
           C 2545.00,1964.00 2545.00,1965.00 2545.00,1965.00
             2545.00,1965.00 2546.00,1964.00 2546.00,1964.00
             2546.00,1964.00 2545.00,1964.00 2545.00,1964.00 Z
           M 1538.00,1996.00
           C 1538.00,1996.00 1538.00,1997.00 1538.00,1997.00
             1538.00,1997.00 1539.00,1996.00 1539.00,1996.00
             1539.00,1996.00 1538.00,1996.00 1538.00,1996.00 Z
           M 1527.00,2004.00
           C 1527.00,2004.00 1527.00,2005.00 1527.00,2005.00
             1527.00,2005.00 1528.00,2004.00 1528.00,2004.00
             1528.00,2004.00 1527.00,2004.00 1527.00,2004.00 Z
           M 818.00,2380.00
           C 818.00,2380.00 818.00,2381.00 818.00,2381.00
             818.00,2381.00 817.00,2380.00 817.00,2380.00
             817.00,2380.00 818.00,2380.00 818.00,2380.00 Z
           M 3394.00,2475.00
           C 3394.00,2475.00 3394.00,2476.00 3394.00,2476.00
             3394.00,2476.00 3395.00,2475.00 3395.00,2475.00
             3395.00,2475.00 3394.00,2475.00 3394.00,2475.00 Z
           M 436.00,2803.00
           C 436.00,2803.00 436.00,2804.00 436.00,2804.00
             436.00,2804.00 437.00,2803.00 437.00,2803.00
             437.00,2803.00 436.00,2803.00 436.00,2803.00 Z" />
</svg>
