<?xml version="1.0" encoding="UTF-8" standalone="no"?>
<!DOCTYPE svg PUBLIC "-//W3C//DTD SVG 20010904//EN"
              "http://www.w3.org/TR/2001/REC-SVG-20010904/DTD/svg10.dtd">

<svg xmlns="http://www.w3.org/2000/svg"
     width="12.2167in" height="14.5467in"
     viewBox="0 0 3665 4364">
  <path id="face"
        fill="none" stroke="black" stroke-width="1"
        d="M 1839.00,546.00
           C 1832.37,544.29 1825.71,547.78 1823.00,554.00
             1815.15,553.25 1813.21,556.17 1806.83,558.95
             1806.83,558.95 1786.00,565.45 1786.00,565.45
             1780.95,567.03 1782.05,567.94 1776.00,568.00
             1776.00,568.00 1775.17,569.89 1775.17,569.89
             1775.17,569.89 1762.83,574.55 1762.83,574.55
             1762.83,574.55 1755.00,576.76 1755.00,576.76
             1755.00,576.76 1740.91,583.40 1740.91,583.40
             1740.91,583.40 1725.00,589.40 1725.00,589.40
             1725.00,589.40 1712.00,595.05 1712.00,595.05
             1712.00,595.05 1705.04,597.28 1705.04,597.28
             1705.04,597.28 1697.91,601.17 1697.91,601.17
             1697.91,601.17 1689.00,604.76 1689.00,604.76
             1689.00,604.76 1680.00,610.36 1680.00,610.36
             1680.00,610.36 1669.26,615.61 1669.26,615.61
             1669.26,615.61 1651.96,627.67 1651.96,627.67
             1651.96,627.67 1642.04,634.09 1642.04,634.09
             1642.04,634.09 1631.58,642.69 1631.58,642.69
             1631.58,642.69 1614.82,655.49 1614.82,655.49
             1614.82,655.49 1609.04,659.53 1609.04,659.53
             1609.04,659.53 1600.00,669.00 1600.00,669.00
             1600.00,669.00 1601.00,671.00 1601.00,671.00
             1591.60,674.88 1586.86,683.34 1580.99,690.91
             1580.99,690.91 1571.65,702.83 1571.65,702.83
             1571.65,702.83 1562.68,715.00 1562.68,715.00
             1562.68,715.00 1558.44,723.00 1558.44,723.00
             1558.44,723.00 1553.45,730.00 1553.45,730.00
             1549.32,736.43 1545.58,743.11 1542.26,750.00
             1542.26,750.00 1536.77,765.00 1536.77,765.00
             1536.77,765.00 1533.10,772.00 1533.10,772.00
             1533.10,772.00 1529.49,780.91 1529.49,780.91
             1529.49,780.91 1526.01,787.09 1526.01,787.09
             1526.01,787.09 1519.77,810.00 1519.77,810.00
             1516.54,818.40 1510.35,825.42 1506.10,833.30
             1503.86,837.46 1503.54,841.45 1502.58,843.83
             1502.58,843.83 1498.65,850.73 1498.65,850.73
             1498.65,850.73 1490.23,880.00 1490.23,880.00
             1490.23,880.00 1480.83,913.96 1480.83,913.96
             1480.83,913.96 1479.17,923.01 1479.17,923.01
             1479.17,923.01 1476.54,930.83 1476.54,930.83
             1476.54,930.83 1472.72,959.00 1472.72,959.00
             1472.72,959.00 1468.90,993.00 1468.90,993.00
             1468.90,993.00 1468.90,1004.00 1468.90,1004.00
             1467.97,1009.96 1466.82,1008.25 1467.01,1017.00
             1467.01,1017.00 1467.96,1027.00 1467.96,1027.00
             1467.96,1027.00 1467.22,1037.83 1467.22,1037.83
             1467.22,1037.83 1466.00,1077.00 1466.00,1077.00
             1466.00,1077.00 1470.16,1126.00 1470.16,1126.00
             1470.16,1126.00 1471.43,1136.00 1471.43,1136.00
             1471.43,1136.00 1471.43,1143.00 1471.43,1143.00
             1471.43,1143.00 1472.29,1158.44 1472.29,1158.44
             1472.29,1158.44 1472.29,1166.72 1472.29,1166.72
             1472.29,1166.72 1480.51,1208.00 1480.51,1208.00
             1480.51,1208.00 1484.19,1219.09 1484.19,1219.09
             1484.19,1219.09 1485.43,1227.72 1485.43,1227.72
             1485.43,1227.72 1487.45,1233.04 1487.45,1233.04
             1487.45,1233.04 1488.68,1239.00 1488.68,1239.00
             1488.68,1239.00 1493.31,1252.00 1493.31,1252.00
             1493.31,1252.00 1494.00,1275.00 1494.00,1275.00
             1484.81,1277.10 1482.16,1278.35 1476.59,1286.00
             1474.64,1288.68 1473.52,1289.83 1472.22,1293.00
             1472.22,1293.00 1469.00,1307.00 1469.00,1307.00
             1469.00,1307.00 1465.00,1307.00 1465.00,1307.00
             1465.00,1307.00 1464.00,1310.00 1464.00,1310.00
             1464.00,1310.00 1461.68,1331.00 1461.68,1331.00
             1461.68,1331.00 1465.80,1347.00 1465.80,1347.00
             1465.80,1347.00 1468.01,1357.17 1468.01,1357.17
             1468.01,1357.17 1467.00,1358.00 1467.00,1358.00
             1467.00,1358.00 1472.24,1370.99 1472.24,1370.99
             1475.89,1377.89 1479.90,1377.60 1481.00,1391.00
             1485.71,1392.42 1484.66,1397.40 1483.00,1401.00
             1488.58,1405.45 1493.74,1413.00 1495.54,1420.00
             1495.54,1420.00 1496.51,1426.00 1496.51,1426.00
             1497.18,1429.24 1497.84,1430.40 1497.96,1434.00
             1498.14,1439.63 1496.51,1440.91 1496.71,1444.00
             1496.92,1447.08 1499.31,1450.41 1499.57,1454.00
             1499.57,1454.00 1499.00,1463.00 1499.00,1463.00
             1499.00,1463.00 1499.00,1482.00 1499.00,1482.00
             1499.00,1482.00 1500.00,1476.00 1500.00,1476.00
             1507.56,1482.39 1501.51,1484.98 1506.00,1489.00
             1506.00,1489.00 1506.00,1491.00 1506.00,1491.00
             1506.00,1491.00 1504.00,1491.00 1504.00,1491.00
             1504.00,1491.00 1504.00,1493.00 1504.00,1493.00
             1504.00,1493.00 1506.00,1493.00 1506.00,1493.00
             1506.00,1493.00 1506.00,1495.00 1506.00,1495.00
             1503.40,1497.33 1503.67,1501.64 1503.35,1505.00
             1503.35,1505.00 1503.35,1515.00 1503.35,1515.00
             1503.16,1521.79 1501.84,1532.00 1505.00,1538.00
             1505.00,1538.00 1506.00,1538.00 1506.00,1538.00
             1506.00,1538.00 1508.00,1536.00 1508.00,1536.00
             1508.00,1540.77 1507.71,1547.49 1508.63,1552.00
             1509.40,1555.78 1511.66,1558.36 1510.00,1562.00
             1510.00,1562.00 1513.00,1564.00 1513.00,1564.00
             1513.00,1564.00 1513.00,1571.00 1513.00,1571.00
             1513.00,1571.00 1515.00,1571.00 1515.00,1571.00
             1513.95,1577.92 1516.03,1576.21 1517.32,1581.09
             1518.62,1586.01 1517.31,1602.49 1519.30,1605.43
             1520.14,1606.67 1520.83,1606.57 1522.00,1607.00
             1522.00,1607.00 1520.00,1613.00 1520.00,1613.00
             1520.00,1613.00 1524.00,1615.00 1524.00,1615.00
             1524.00,1615.00 1525.00,1618.00 1525.00,1618.00
             1525.00,1618.00 1521.00,1619.00 1521.00,1619.00
             1521.00,1619.00 1523.00,1629.00 1523.00,1629.00
             1523.00,1629.00 1524.00,1629.00 1524.00,1629.00
             1524.00,1629.00 1524.00,1627.00 1524.00,1627.00
             1524.00,1627.00 1525.00,1632.00 1525.00,1632.00
             1525.00,1632.00 1521.00,1632.00 1521.00,1632.00
             1521.00,1632.00 1523.00,1637.00 1523.00,1637.00
             1523.00,1637.00 1520.00,1638.00 1520.00,1638.00
             1520.52,1642.69 1518.35,1651.92 1525.00,1652.00
             1525.00,1652.00 1523.00,1660.00 1523.00,1660.00
             1523.00,1660.00 1526.00,1660.00 1526.00,1660.00
             1525.93,1664.26 1528.18,1668.07 1530.98,1671.26
             1533.51,1674.13 1536.80,1675.79 1536.00,1680.00
             1536.00,1680.00 1540.00,1682.00 1540.00,1682.00
             1540.00,1682.00 1540.00,1684.00 1540.00,1684.00
             1540.00,1684.00 1536.00,1685.00 1536.00,1685.00
             1536.00,1685.00 1543.00,1690.00 1543.00,1690.00
             1543.00,1690.00 1540.00,1694.00 1540.00,1694.00
             1540.00,1694.00 1545.00,1696.00 1545.00,1696.00
             1545.00,1696.00 1544.00,1703.00 1544.00,1703.00
             1544.00,1703.00 1550.00,1712.00 1550.00,1712.00
             1545.01,1720.54 1552.84,1715.99 1551.00,1728.00
             1555.11,1731.81 1555.34,1733.56 1555.00,1739.00
             1555.00,1739.00 1560.00,1740.00 1560.00,1740.00
             1560.00,1740.00 1558.00,1751.00 1558.00,1751.00
             1558.00,1751.00 1562.00,1753.00 1562.00,1753.00
             1562.00,1753.00 1561.00,1756.00 1561.00,1756.00
             1567.07,1760.01 1562.09,1760.93 1564.65,1765.83
             1564.65,1765.83 1568.48,1771.09 1568.48,1771.09
             1571.57,1776.19 1577.29,1791.22 1577.00,1797.00
             1579.27,1799.43 1581.34,1803.80 1582.38,1807.00
             1583.31,1809.83 1581.91,1812.02 1585.00,1813.00
             1584.59,1817.11 1584.30,1817.85 1588.00,1820.00
             1588.00,1820.00 1586.00,1824.00 1586.00,1824.00
             1592.84,1828.16 1592.68,1835.94 1594.97,1840.96
             1594.97,1840.96 1599.02,1847.17 1599.02,1847.17
             1599.02,1847.17 1601.47,1854.00 1601.47,1854.00
             1601.47,1854.00 1609.28,1866.72 1609.28,1866.72
             1611.70,1871.28 1611.37,1875.61 1615.00,1880.00
             1613.83,1881.70 1615.37,1883.93 1616.13,1885.87
             1616.13,1885.87 1619.68,1893.01 1619.68,1893.01
             1619.68,1893.01 1623.27,1903.58 1623.27,1903.58
             1623.27,1903.58 1625.36,1912.00 1625.36,1912.00
             1625.36,1912.00 1640.69,1941.00 1640.69,1941.00
             1646.10,1951.00 1650.61,1961.38 1658.15,1970.00
             1658.15,1970.00 1688.85,2005.00 1688.85,2005.00
             1688.85,2005.00 1703.01,2021.00 1703.01,2021.00
             1703.01,2021.00 1750.00,2063.16 1750.00,2063.16
             1750.00,2063.16 1776.00,2086.16 1776.00,2086.16
             1776.00,2086.16 1796.00,2103.50 1796.00,2103.50
             1796.00,2103.50 1829.00,2125.72 1829.00,2125.72
             1829.00,2125.72 1886.00,2163.81 1886.00,2163.81
             1886.00,2163.81 1907.00,2170.72 1907.00,2170.72
             1907.00,2170.72 1947.00,2183.02 1947.00,2183.02
             1947.00,2183.02 1985.00,2194.54 1985.00,2194.54
             1985.00,2194.54 2001.00,2196.28 2001.00,2196.28
             2001.00,2196.28 2046.00,2201.16 2046.00,2201.16
             2046.00,2201.16 2096.00,2205.96 2096.00,2205.96
             2096.00,2205.96 2139.00,2197.21 2139.00,2197.21
             2139.00,2197.21 2187.00,2186.45 2187.00,2186.45
             2187.00,2186.45 2234.00,2165.30 2234.00,2165.30
             2234.00,2165.30 2265.00,2151.03 2265.00,2151.03
             2265.00,2151.03 2306.00,2115.28 2306.00,2115.28
             2306.00,2115.28 2352.82,2073.91 2352.82,2073.91
             2352.82,2073.91 2382.42,2033.00 2382.42,2033.00
             2382.42,2033.00 2420.92,1979.00 2420.92,1979.00
             2420.92,1979.00 2438.00,1951.00 2438.00,1951.00
             2438.00,1951.00 2465.20,1906.00 2465.20,1906.00
             2465.20,1906.00 2476.69,1887.00 2476.69,1887.00
             2476.69,1887.00 2489.25,1861.00 2489.25,1861.00
             2493.83,1851.84 2506.25,1827.58 2508.00,1819.00
             2505.94,1818.24 2507.89,1817.62 2509.00,1817.00
             2509.00,1817.00 2510.00,1804.00 2510.00,1804.00
             2510.00,1804.00 2515.00,1801.00 2515.00,1801.00
             2509.25,1791.23 2522.55,1790.26 2519.00,1779.00
             2519.00,1779.00 2521.00,1780.00 2521.00,1780.00
             2520.89,1775.07 2522.54,1770.39 2527.00,1768.00
             2527.00,1768.00 2527.00,1767.00 2527.00,1767.00
             2527.00,1767.00 2525.00,1765.00 2525.00,1765.00
             2525.00,1765.00 2528.00,1764.00 2528.00,1764.00
             2527.33,1753.17 2529.69,1754.84 2532.21,1746.00
             2532.21,1746.00 2534.21,1733.93 2534.21,1733.93
             2534.21,1733.93 2537.41,1728.67 2537.41,1728.67
             2539.15,1724.68 2537.07,1726.46 2541.00,1722.00
             2536.34,1716.85 2538.71,1712.32 2544.00,1709.00
             2543.26,1707.32 2542.26,1705.40 2542.02,1703.58
             2541.30,1698.13 2545.55,1687.21 2549.00,1683.00
             2549.00,1683.00 2546.00,1682.00 2546.00,1682.00
             2552.09,1675.00 2546.51,1670.88 2552.00,1667.00
             2551.70,1658.36 2555.75,1660.87 2552.00,1652.00
             2552.00,1652.00 2556.00,1651.00 2556.00,1651.00
             2556.00,1651.00 2553.00,1638.00 2553.00,1638.00
             2553.00,1638.00 2561.00,1635.00 2561.00,1635.00
             2561.00,1635.00 2558.00,1634.00 2558.00,1634.00
             2558.48,1633.03 2558.95,1632.74 2559.34,1631.00
             2559.34,1631.00 2560.58,1611.11 2560.58,1611.11
             2561.29,1607.18 2564.25,1607.81 2566.15,1603.87
             2567.41,1601.27 2569.68,1589.01 2569.66,1586.00
             2569.66,1586.00 2568.97,1580.29 2568.97,1580.29
             2568.89,1575.58 2572.59,1575.75 2568.00,1572.00
             2568.00,1572.00 2571.00,1571.00 2571.00,1571.00
             2570.65,1566.85 2570.60,1565.36 2568.00,1562.00
             2568.00,1562.00 2570.01,1558.89 2570.01,1558.89
             2570.01,1558.89 2570.01,1546.00 2570.01,1546.00
             2570.01,1546.00 2574.00,1545.00 2574.00,1545.00
             2574.00,1545.00 2572.00,1543.00 2572.00,1543.00
             2572.00,1543.00 2577.00,1537.00 2577.00,1537.00
             2575.89,1528.46 2583.42,1522.06 2584.63,1518.83
             2584.63,1518.83 2587.54,1506.00 2587.54,1506.00
             2587.54,1506.00 2592.84,1488.00 2592.84,1488.00
             2593.89,1482.62 2591.21,1475.20 2596.00,1472.00
             2596.00,1472.00 2596.00,1447.00 2596.00,1447.00
             2596.00,1447.00 2594.82,1436.00 2594.82,1436.00
             2594.82,1436.00 2594.82,1424.00 2594.82,1424.00
             2594.82,1424.00 2593.00,1425.00 2593.00,1425.00
             2591.51,1418.80 2593.07,1412.38 2593.00,1406.00
             2592.92,1399.45 2590.30,1396.04 2595.00,1391.00
             2593.19,1383.69 2595.65,1384.85 2596.81,1378.00
             2598.35,1368.85 2599.89,1360.31 2600.00,1351.00
             2600.00,1351.00 2601.21,1337.00 2601.21,1337.00
             2601.03,1329.34 2600.33,1321.63 2601.21,1314.00
             2601.21,1314.00 2604.52,1299.83 2604.52,1299.83
             2604.52,1299.83 2606.13,1284.00 2606.13,1284.00
             2606.13,1284.00 2607.70,1276.42 2607.70,1276.42
             2608.58,1269.41 2608.25,1251.98 2607.00,1245.00
             2607.00,1245.00 2604.00,1246.00 2604.00,1246.00
             2604.00,1246.00 2604.00,1238.00 2604.00,1238.00
             2604.00,1238.00 2600.00,1240.00 2600.00,1240.00
             2600.00,1240.00 2596.00,1232.00 2596.00,1232.00
             2590.55,1231.98 2588.59,1229.60 2584.00,1227.43
             2584.00,1227.43 2569.00,1221.80 2569.00,1221.80
             2562.92,1219.25 2563.73,1218.22 2557.00,1217.00
             2557.00,1217.00 2558.80,1205.01 2558.80,1205.01
             2558.80,1205.01 2562.41,1195.96 2562.41,1195.96
             2562.41,1195.96 2560.37,1187.00 2560.37,1187.00
             2560.37,1187.00 2561.74,1178.00 2561.74,1178.00
             2561.74,1178.00 2560.93,1171.00 2560.93,1171.00
             2560.93,1171.00 2560.93,1162.00 2560.93,1162.00
             2560.93,1162.00 2559.66,1143.00 2559.66,1143.00
             2559.66,1143.00 2560.72,1134.00 2560.72,1134.00
             2560.72,1134.00 2560.14,1125.00 2560.14,1125.00
             2560.14,1125.00 2561.58,1118.00 2561.58,1118.00
             2561.58,1118.00 2560.71,1100.00 2560.71,1100.00
             2560.71,1100.00 2561.38,1089.00 2561.38,1089.00
             2561.38,1089.00 2561.38,1059.00 2561.38,1059.00
             2561.38,1059.00 2562.12,1047.00 2562.12,1047.00
             2562.12,1047.00 2562.12,1030.00 2562.12,1030.00
             2562.12,1030.00 2559.93,1019.00 2559.93,1019.00
             2559.93,1019.00 2559.93,1010.00 2559.93,1010.00
             2559.93,1010.00 2558.05,1004.00 2558.05,1004.00
             2558.05,1004.00 2557.11,997.00 2557.11,997.00
             2557.11,997.00 2555.00,982.00 2555.00,982.00
             2549.30,975.84 2551.27,965.65 2549.54,958.00
             2549.54,958.00 2544.25,943.17 2544.25,943.17
             2544.25,943.17 2542.40,930.83 2542.40,930.83
             2542.40,930.83 2536.74,912.00 2536.74,912.00
             2535.10,905.44 2533.59,893.13 2528.00,889.00
             2528.47,884.07 2528.21,881.87 2524.00,879.00
             2525.30,873.07 2519.66,855.60 2516.59,850.26
             2515.25,847.92 2513.73,847.45 2512.55,844.87
             2512.55,844.87 2506.44,826.00 2506.44,826.00
             2506.44,826.00 2502.27,817.00 2502.27,817.00
             2502.27,817.00 2500.30,811.24 2500.30,811.24
             2498.92,808.57 2496.77,807.96 2494.93,804.95
             2494.93,804.95 2491.92,798.04 2491.92,798.04
             2491.92,798.04 2487.31,791.83 2487.31,791.83
             2487.31,791.83 2485.03,785.45 2485.03,785.45
             2482.26,780.81 2477.64,777.32 2475.63,771.96
             2475.63,771.96 2472.75,762.85 2472.75,762.85
             2470.83,759.37 2467.77,757.91 2465.56,754.91
             2463.09,751.58 2464.31,750.91 2459.14,744.58
             2455.51,740.12 2454.95,737.01 2449.00,736.00
             2449.00,736.00 2447.56,728.28 2447.56,728.28
             2447.56,728.28 2432.00,699.00 2432.00,699.00
             2425.36,694.85 2424.39,684.55 2421.82,678.02
             2420.77,675.34 2416.39,669.61 2414.46,666.98
             2414.46,666.98 2408.40,660.17 2408.40,660.17
             2408.40,660.17 2399.04,647.18 2399.04,647.18
             2399.04,647.18 2386.09,632.59 2386.09,632.59
             2386.09,632.59 2371.62,616.52 2371.62,616.52
             2371.62,616.52 2352.58,600.44 2352.58,600.44
             2349.24,597.72 2345.28,596.33 2344.00,592.00
             2336.42,591.77 2331.09,580.47 2321.00,580.00
             2319.14,575.25 2315.88,574.24 2311.00,574.00
             2311.00,574.00 2304.51,570.01 2304.51,570.01
             2304.51,570.01 2297.96,565.05 2297.96,565.05
             2297.96,565.05 2289.00,561.57 2289.00,561.57
             2289.00,561.57 2277.00,556.65 2277.00,556.65
             2277.00,556.65 2258.13,551.56 2258.13,551.56
             2258.13,551.56 2242.17,545.13 2242.17,545.13
             2242.17,545.13 2232.00,540.02 2232.00,540.02
             2232.00,540.02 2210.42,536.11 2210.42,536.11
             2210.42,536.11 2204.99,534.60 2204.99,534.60
             2204.99,534.60 2192.00,532.39 2192.00,532.39
             2192.00,532.39 2176.00,529.28 2176.00,529.28
             2176.00,529.28 2156.00,526.98 2156.00,526.98
             2156.00,526.98 2148.04,526.98 2148.04,526.98
             2148.04,526.98 2138.99,524.10 2138.99,524.10
             2138.99,524.10 2112.00,521.00 2112.00,521.00
             2111.98,520.73 2112.42,519.21 2111.17,517.95
             2110.51,517.29 2100.42,513.83 2099.04,513.52
             2099.04,513.52 2084.04,510.96 2084.04,510.96
             2084.04,510.96 2077.83,509.20 2077.83,509.20
             2071.93,507.88 2061.15,507.07 2055.00,506.96
             2055.00,506.96 2041.00,506.96 2041.00,506.96
             2041.00,506.96 2031.00,505.29 2031.00,505.29
             2031.00,505.29 2023.00,504.57 2023.00,504.57
             2023.00,504.57 2003.99,501.47 2003.99,501.47
             2003.99,501.47 1993.00,502.08 1993.00,502.08
             1993.00,502.08 1956.00,502.08 1956.00,502.08
             1956.00,502.08 1942.00,504.68 1942.00,504.68
             1942.00,504.68 1934.00,505.90 1934.00,505.90
             1917.60,509.88 1902.46,522.46 1886.72,529.12
             1886.72,529.12 1881.17,530.68 1881.17,530.68
             1878.46,531.67 1876.58,533.61 1873.00,534.53
             1873.00,534.53 1865.00,535.63 1865.00,535.63
             1865.00,535.63 1853.00,539.64 1853.00,539.64
             1847.77,541.16 1842.39,541.33 1839.00,546.00 Z
           M 2561.00,1198.00
           C 2561.00,1198.00 2561.00,1199.00 2561.00,1199.00
             2561.00,1199.00 2560.00,1198.00 2560.00,1198.00
             2560.00,1198.00 2561.00,1198.00 2561.00,1198.00 Z
           M 2584.00,1516.00
           C 2584.00,1516.00 2582.00,1520.00 2582.00,1520.00
             2582.00,1520.00 2584.00,1516.00 2584.00,1516.00 Z
           M 1507.00,1524.00
           C 1507.00,1524.00 1507.00,1525.00 1507.00,1525.00
             1507.00,1525.00 1506.00,1524.00 1506.00,1524.00
             1506.00,1524.00 1507.00,1524.00 1507.00,1524.00 Z
           M 2580.00,1528.00
           C 2580.00,1528.00 2580.00,1532.00 2580.00,1532.00
             2580.00,1532.00 2582.00,1528.00 2582.00,1528.00
             2582.00,1528.00 2580.00,1528.00 2580.00,1528.00 Z
           M 2579.00,1533.00
           C 2579.00,1533.00 2579.00,1534.00 2579.00,1534.00
             2579.00,1534.00 2580.00,1533.00 2580.00,1533.00
             2580.00,1533.00 2579.00,1533.00 2579.00,1533.00 Z
           M 2575.00,1543.00
           C 2575.00,1543.00 2575.00,1544.00 2575.00,1544.00
             2575.00,1544.00 2576.00,1543.00 2576.00,1543.00
             2576.00,1543.00 2575.00,1543.00 2575.00,1543.00 Z
           M 2568.00,1561.00
           C 2568.00,1561.00 2568.00,1562.00 2568.00,1562.00
             2568.00,1562.00 2567.00,1561.00 2567.00,1561.00
             2567.00,1561.00 2568.00,1561.00 2568.00,1561.00 Z
           M 1508.00,1562.00
           C 1508.00,1562.00 1508.00,1563.00 1508.00,1563.00
             1508.00,1563.00 1509.00,1562.00 1509.00,1562.00
             1509.00,1562.00 1508.00,1562.00 1508.00,1562.00 Z
           M 1523.00,1600.00
           C 1523.00,1600.00 1523.00,1601.00 1523.00,1601.00
             1523.00,1601.00 1522.00,1600.00 1522.00,1600.00
             1522.00,1600.00 1523.00,1600.00 1523.00,1600.00 Z
           M 1526.00,1625.00
           C 1526.00,1625.00 1526.00,1626.00 1526.00,1626.00
             1526.00,1626.00 1525.00,1625.00 1525.00,1625.00
             1525.00,1625.00 1526.00,1625.00 1526.00,1625.00 Z
           M 2559.00,1631.00
           C 2559.00,1631.00 2559.00,1632.00 2559.00,1632.00
             2559.00,1632.00 2558.00,1631.00 2558.00,1631.00
             2558.00,1631.00 2559.00,1631.00 2559.00,1631.00 Z
           M 2558.00,1632.00
           C 2558.00,1632.00 2558.00,1633.00 2558.00,1633.00
             2558.00,1633.00 2557.00,1632.00 2557.00,1632.00
             2557.00,1632.00 2558.00,1632.00 2558.00,1632.00 Z
           M 2552.00,1657.00
           C 2552.00,1657.00 2552.00,1658.00 2552.00,1658.00
             2552.00,1658.00 2551.00,1657.00 2551.00,1657.00
             2551.00,1657.00 2552.00,1657.00 2552.00,1657.00 Z
           M 1561.00,1744.00
           C 1561.00,1744.00 1561.00,1745.00 1561.00,1745.00
             1561.00,1745.00 1560.00,1744.00 1560.00,1744.00
             1560.00,1744.00 1561.00,1744.00 1561.00,1744.00 Z
           M 2507.00,1815.00
           C 2507.00,1815.00 2507.00,1816.00 2507.00,1816.00
             2507.00,1816.00 2506.00,1815.00 2506.00,1815.00
             2506.00,1815.00 2507.00,1815.00 2507.00,1815.00 Z" />
  <path id="profile"
        fill="none" stroke="black" stroke-width="1"
        d="M 1839.00,546.00
           C 1832.37,544.29 1825.71,547.78 1823.00,554.00
             1815.15,553.25 1813.21,556.17 1806.83,558.95
             1806.83,558.95 1786.00,565.45 1786.00,565.45
             1780.95,567.03 1782.05,567.94 1776.00,568.00
             1776.00,568.00 1775.17,569.89 1775.17,569.89
             1775.17,569.89 1762.83,574.55 1762.83,574.55
             1762.83,574.55 1755.00,576.76 1755.00,576.76
             1755.00,576.76 1740.91,583.40 1740.91,583.40
             1740.91,583.40 1725.00,589.40 1725.00,589.40
             1725.00,589.40 1712.00,595.05 1712.00,595.05
             1712.00,595.05 1705.04,597.28 1705.04,597.28
             1705.04,597.28 1697.91,601.17 1697.91,601.17
             1697.91,601.17 1689.00,604.76 1689.00,604.76
             1689.00,604.76 1680.00,610.36 1680.00,610.36
             1680.00,610.36 1669.26,615.61 1669.26,615.61
             1669.26,615.61 1651.96,627.67 1651.96,627.67
             1651.96,627.67 1642.04,634.09 1642.04,634.09
             1642.04,634.09 1631.58,642.69 1631.58,642.69
             1631.58,642.69 1614.82,655.49 1614.82,655.49
             1614.82,655.49 1609.04,659.53 1609.04,659.53
             1609.04,659.53 1600.00,669.00 1600.00,669.00
             1600.00,669.00 1601.00,671.00 1601.00,671.00
             1591.60,674.88 1586.86,683.34 1580.99,690.91
             1580.99,690.91 1571.65,702.83 1571.65,702.83
             1571.65,702.83 1562.68,715.00 1562.68,715.00
             1562.68,715.00 1558.44,723.00 1558.44,723.00
             1558.44,723.00 1553.45,730.00 1553.45,730.00
             1549.32,736.43 1545.58,743.11 1542.26,750.00
             1542.26,750.00 1536.77,765.00 1536.77,765.00
             1536.77,765.00 1533.10,772.00 1533.10,772.00
             1533.10,772.00 1529.49,780.91 1529.49,780.91
             1529.49,780.91 1526.01,787.09 1526.01,787.09
             1526.01,787.09 1519.77,810.00 1519.77,810.00
             1516.54,818.40 1510.35,825.42 1506.10,833.30
             1503.86,837.46 1503.54,841.45 1502.58,843.83
             1502.58,843.83 1498.65,850.73 1498.65,850.73
             1498.65,850.73 1490.23,880.00 1490.23,880.00
             1490.23,880.00 1480.83,913.96 1480.83,913.96
             1480.83,913.96 1479.17,923.01 1479.17,923.01
             1479.17,923.01 1476.54,930.83 1476.54,930.83
             1476.54,930.83 1472.72,959.00 1472.72,959.00
             1472.72,959.00 1468.90,993.00 1468.90,993.00
             1468.90,993.00 1468.90,1004.00 1468.90,1004.00
             1467.97,1009.96 1466.82,1008.25 1467.01,1017.00
             1467.01,1017.00 1467.96,1027.00 1467.96,1027.00
             1467.96,1027.00 1467.22,1037.83 1467.22,1037.83
             1467.22,1037.83 1466.00,1077.00 1466.00,1077.00
             1466.00,1077.00 1470.16,1126.00 1470.16,1126.00
             1470.16,1126.00 1471.43,1136.00 1471.43,1136.00
             1471.43,1136.00 1471.43,1143.00 1471.43,1143.00
             1471.43,1143.00 1472.29,1158.44 1472.29,1158.44
             1472.29,1158.44 1472.29,1166.72 1472.29,1166.72
             1472.29,1166.72 1480.51,1208.00 1480.51,1208.00
             1480.51,1208.00 1484.19,1219.09 1484.19,1219.09
             1484.19,1219.09 1485.43,1227.72 1485.43,1227.72
             1485.43,1227.72 1487.45,1233.04 1487.45,1233.04
             1487.45,1233.04 1488.68,1239.00 1488.68,1239.00
             1488.68,1239.00 1493.31,1252.00 1493.31,1252.00
             1493.31,1252.00 1494.00,1275.00 1494.00,1275.00
             1484.81,1277.10 1482.16,1278.35 1476.59,1286.00
             1474.64,1288.68 1473.52,1289.83 1472.22,1293.00
             1472.22,1293.00 1469.00,1307.00 1469.00,1307.00
             1469.00,1307.00 1465.00,1307.00 1465.00,1307.00
             1465.00,1307.00 1464.00,1310.00 1464.00,1310.00
             1464.00,1310.00 1461.68,1331.00 1461.68,1331.00
             1461.68,1331.00 1465.80,1347.00 1465.80,1347.00
             1465.80,1347.00 1468.01,1357.17 1468.01,1357.17
             1468.01,1357.17 1467.00,1358.00 1467.00,1358.00
             1467.00,1358.00 1472.24,1370.99 1472.24,1370.99
             1476.39,1378.83 1479.90,1377.53 1481.00,1391.00
             1485.71,1392.42 1484.66,1397.40 1483.00,1401.00
             1488.58,1405.45 1493.74,1413.00 1495.54,1420.00
             1495.54,1420.00 1496.51,1426.00 1496.51,1426.00
             1497.18,1429.24 1497.84,1430.40 1497.96,1434.00
             1498.14,1439.63 1496.51,1440.91 1496.71,1444.00
             1496.92,1447.08 1499.31,1450.41 1499.57,1454.00
             1499.57,1454.00 1499.00,1463.00 1499.00,1463.00
             1499.00,1463.00 1499.00,1482.00 1499.00,1482.00
             1499.00,1482.00 1500.00,1476.00 1500.00,1476.00
             1507.54,1482.37 1501.51,1484.98 1506.00,1489.00
             1506.00,1489.00 1506.00,1491.00 1506.00,1491.00
             1506.00,1491.00 1504.00,1491.00 1504.00,1491.00
             1504.00,1491.00 1504.00,1493.00 1504.00,1493.00
             1504.00,1493.00 1506.00,1493.00 1506.00,1493.00
             1506.00,1493.00 1506.00,1495.00 1506.00,1495.00
             1503.40,1497.33 1503.67,1501.64 1503.35,1505.00
             1503.35,1505.00 1503.35,1515.00 1503.35,1515.00
             1503.16,1521.79 1501.84,1532.00 1505.00,1538.00
             1505.00,1538.00 1506.00,1538.00 1506.00,1538.00
             1506.00,1538.00 1508.00,1536.00 1508.00,1536.00
             1508.00,1540.77 1507.71,1547.49 1508.63,1552.00
             1509.40,1555.78 1511.66,1558.36 1510.00,1562.00
             1510.00,1562.00 1513.00,1564.00 1513.00,1564.00
             1513.00,1564.00 1513.00,1571.00 1513.00,1571.00
             1513.00,1571.00 1515.00,1571.00 1515.00,1571.00
             1513.95,1577.92 1516.03,1576.21 1517.32,1581.09
             1518.62,1586.01 1517.31,1602.49 1519.30,1605.43
             1520.14,1606.67 1520.83,1606.57 1522.00,1607.00
             1522.00,1607.00 1520.00,1613.00 1520.00,1613.00
             1520.00,1613.00 1524.00,1615.00 1524.00,1615.00
             1524.00,1615.00 1525.00,1618.00 1525.00,1618.00
             1525.00,1618.00 1521.00,1619.00 1521.00,1619.00
             1521.00,1619.00 1523.00,1629.00 1523.00,1629.00
             1523.00,1629.00 1524.00,1629.00 1524.00,1629.00
             1524.00,1629.00 1524.00,1627.00 1524.00,1627.00
             1524.00,1627.00 1525.00,1632.00 1525.00,1632.00
             1525.00,1632.00 1521.00,1632.00 1521.00,1632.00
             1521.00,1632.00 1523.00,1637.00 1523.00,1637.00
             1523.00,1637.00 1520.00,1638.00 1520.00,1638.00
             1520.52,1642.69 1518.35,1651.92 1525.00,1652.00
             1525.00,1652.00 1523.00,1660.00 1523.00,1660.00
             1523.00,1660.00 1526.00,1660.00 1526.00,1660.00
             1525.93,1664.26 1528.18,1668.07 1530.98,1671.26
             1533.51,1674.13 1536.80,1675.79 1536.00,1680.00
             1536.00,1680.00 1540.00,1682.00 1540.00,1682.00
             1540.00,1682.00 1540.00,1684.00 1540.00,1684.00
             1540.00,1684.00 1536.00,1685.00 1536.00,1685.00
             1536.00,1685.00 1543.00,1690.00 1543.00,1690.00
             1543.00,1690.00 1540.00,1694.00 1540.00,1694.00
             1540.00,1694.00 1545.00,1696.00 1545.00,1696.00
             1545.00,1696.00 1544.00,1703.00 1544.00,1703.00
             1544.00,1703.00 1550.00,1712.00 1550.00,1712.00
             1545.01,1720.54 1552.84,1715.99 1551.00,1728.00
             1555.11,1731.81 1555.34,1733.56 1555.00,1739.00
             1555.00,1739.00 1560.00,1740.00 1560.00,1740.00
             1560.00,1740.00 1558.00,1751.00 1558.00,1751.00
             1558.00,1751.00 1562.00,1753.00 1562.00,1753.00
             1562.00,1753.00 1561.00,1756.00 1561.00,1756.00
             1567.07,1760.01 1562.09,1760.93 1564.65,1765.83
             1564.65,1765.83 1568.48,1771.09 1568.48,1771.09
             1571.57,1776.19 1577.29,1791.22 1577.00,1797.00
             1579.27,1799.43 1581.34,1803.80 1582.38,1807.00
             1583.31,1809.83 1581.91,1812.02 1585.00,1813.00
             1584.59,1817.11 1584.30,1817.85 1588.00,1820.00
             1588.00,1820.00 1586.00,1824.00 1586.00,1824.00
             1592.84,1828.16 1592.68,1835.94 1594.97,1840.96
             1594.97,1840.96 1599.02,1847.17 1599.02,1847.17
             1599.02,1847.17 1601.47,1854.00 1601.47,1854.00
             1601.47,1854.00 1609.28,1866.72 1609.28,1866.72
             1611.70,1871.28 1611.37,1875.61 1615.00,1880.00
             1613.37,1882.37 1618.53,1890.32 1619.68,1893.01
             1619.68,1893.01 1624.12,1905.28 1624.12,1905.28
             1624.12,1905.28 1624.12,1913.00 1624.12,1913.00
             1624.12,1913.00 1626.91,1928.00 1626.91,1928.00
             1626.91,1928.00 1626.08,1940.00 1626.08,1940.00
             1626.08,1940.00 1626.74,1948.99 1626.74,1948.99
             1625.92,1955.40 1623.05,1951.72 1623.68,1962.00
             1623.68,1962.00 1623.17,1979.00 1623.17,1979.00
             1623.17,1979.00 1622.51,1985.00 1622.51,1985.00
             1621.89,1988.65 1622.75,1990.66 1622.51,1994.00
             1622.51,1994.00 1622.51,2010.00 1622.51,2010.00
             1622.71,2015.64 1624.60,2017.45 1623.91,2028.00
             1623.91,2028.00 1622.96,2056.00 1622.96,2056.00
             1622.66,2061.96 1620.89,2062.74 1620.69,2065.28
             1620.57,2066.85 1621.63,2070.24 1622.00,2072.00
             1622.00,2072.00 1621.00,2069.00 1621.00,2069.00
             1608.44,2069.04 1609.27,2071.97 1598.00,2074.34
             1598.00,2074.34 1589.01,2076.02 1589.01,2076.02
             1589.01,2076.02 1581.83,2078.54 1581.83,2078.54
             1581.83,2078.54 1576.00,2079.55 1576.00,2079.55
             1576.00,2079.55 1562.17,2084.77 1562.17,2084.77
             1562.17,2084.77 1554.99,2088.64 1554.99,2088.64
             1554.99,2088.64 1547.17,2090.73 1547.17,2090.73
             1544.04,2092.06 1542.37,2095.06 1539.12,2096.71
             1539.12,2096.71 1520.00,2105.01 1520.00,2105.01
             1520.00,2105.01 1512.54,2106.82 1512.54,2106.82
             1510.26,2108.04 1509.89,2110.17 1505.95,2112.65
             1505.95,2112.65 1482.57,2125.93 1482.57,2125.93
             1482.57,2125.93 1474.00,2128.38 1474.00,2128.38
             1474.00,2128.38 1466.00,2131.33 1466.00,2131.33
             1466.00,2131.33 1441.87,2139.78 1441.87,2139.78
             1441.87,2139.78 1425.96,2148.17 1425.96,2148.17
             1421.54,2150.37 1413.09,2154.00 1412.00,2159.00
             1401.56,2162.07 1391.57,2174.28 1381.00,2179.45
             1381.00,2179.45 1340.04,2194.29 1340.04,2194.29
             1340.04,2194.29 1331.96,2196.22 1331.96,2196.22
             1331.96,2196.22 1300.00,2209.11 1300.00,2209.11
             1284.61,2215.54 1285.28,2218.76 1276.91,2223.69
             1276.91,2223.69 1260.00,2232.52 1260.00,2232.52
             1260.00,2232.52 1251.09,2235.37 1251.09,2235.37
             1251.09,2235.37 1243.96,2238.76 1243.96,2238.76
             1243.96,2238.76 1225.00,2245.04 1225.00,2245.04
             1225.00,2245.04 1212.00,2250.17 1212.00,2250.17
             1212.00,2250.17 1203.09,2252.13 1203.09,2252.13
             1203.09,2252.13 1196.91,2254.71 1196.91,2254.71
             1196.91,2254.71 1190.00,2255.90 1190.00,2255.90
             1190.00,2255.90 1151.00,2269.95 1151.00,2269.95
             1151.00,2269.95 1135.00,2275.32 1135.00,2275.32
             1128.81,2276.79 1127.31,2275.31 1122.00,2280.00
             1120.07,2278.72 1119.00,2280.51 1116.91,2281.30
             1116.91,2281.30 1105.29,2283.88 1105.29,2283.88
             1094.24,2285.97 1096.71,2288.48 1089.91,2291.45
             1089.91,2291.45 1067.09,2298.22 1067.09,2298.22
             1063.07,2300.21 1061.12,2304.76 1052.00,2305.00
             1049.26,2307.23 1041.49,2310.52 1038.00,2311.45
             1038.00,2311.45 1032.00,2312.89 1032.00,2312.89
             1032.00,2312.89 1023.00,2316.77 1023.00,2316.77
             1023.00,2316.77 1015.00,2319.21 1015.00,2319.21
             1015.00,2319.21 1003.00,2324.76 1003.00,2324.76
             1003.00,2324.76 993.00,2327.40 993.00,2327.40
             984.83,2330.12 985.96,2331.90 976.00,2332.00
             976.00,2332.00 976.00,2335.00 976.00,2335.00
             976.00,2335.00 962.00,2338.95 962.00,2338.95
             962.00,2338.95 955.00,2340.87 955.00,2340.87
             955.00,2340.87 947.00,2345.20 947.00,2345.20
             947.00,2345.20 939.00,2347.80 939.00,2347.80
             939.00,2347.80 924.91,2354.16 924.91,2354.16
             924.91,2354.16 898.00,2361.98 898.00,2361.98
             898.00,2361.98 888.91,2367.05 888.91,2367.05
             888.91,2367.05 874.00,2372.73 874.00,2372.73
             874.00,2372.73 853.83,2386.18 853.83,2386.18
             853.83,2386.18 841.09,2394.08 841.09,2394.08
             841.09,2394.08 835.83,2398.34 835.83,2398.34
             835.83,2398.34 821.29,2407.52 821.29,2407.52
             821.29,2407.52 809.71,2418.53 809.71,2418.53
             809.71,2418.53 800.71,2423.71 800.71,2423.71
             800.71,2423.71 792.79,2430.94 792.79,2430.94
             792.79,2430.94 782.00,2436.86 782.00,2436.86
             782.00,2436.86 730.00,2472.29 730.00,2472.29
             730.00,2472.29 691.83,2502.67 691.83,2502.67
             691.83,2502.67 683.17,2507.76 683.17,2507.76
             683.17,2507.76 651.00,2530.00 651.00,2530.00
             651.00,2530.00 651.00,2528.00 651.00,2528.00
             651.00,2528.00 640.00,2536.00 640.00,2536.00
             636.52,2539.23 630.87,2544.44 627.00,2546.78
             621.78,2549.94 618.16,2549.78 613.64,2555.29
             607.97,2562.19 609.44,2570.82 607.01,2574.59
             607.01,2574.59 602.31,2579.25 602.31,2579.25
             602.31,2579.25 591.98,2594.17 591.98,2594.17
             586.30,2603.39 587.78,2605.46 584.86,2610.83
             582.74,2614.75 580.11,2616.31 577.69,2619.42
             577.69,2619.42 573.67,2625.83 573.67,2625.83
             573.67,2625.83 566.81,2633.00 566.81,2633.00
             566.81,2633.00 557.12,2644.05 557.12,2644.05
             557.12,2644.05 539.45,2668.00 539.45,2668.00
             539.45,2668.00 534.94,2675.58 534.94,2675.58
             531.60,2680.37 521.25,2695.27 520.00,2700.00
             520.00,2700.00 516.00,2700.00 516.00,2700.00
             515.79,2708.27 514.06,2707.16 511.00,2714.00
             505.79,2715.12 507.22,2717.85 505.34,2721.91
             505.34,2721.91 499.21,2732.91 499.21,2732.91
             499.21,2732.91 472.14,2767.87 472.14,2767.87
             467.80,2773.80 463.94,2774.88 463.00,2783.00
             455.98,2785.17 453.51,2793.07 449.65,2798.71
             449.65,2798.71 441.51,2810.09 441.51,2810.09
             441.51,2810.09 435.33,2822.00 435.33,2822.00
             435.33,2822.00 428.61,2830.42 428.61,2830.42
             428.61,2830.42 418.51,2847.00 418.51,2847.00
             418.51,2847.00 411.73,2857.42 411.73,2857.42
             411.73,2857.42 408.02,2867.00 408.02,2867.00
             408.02,2867.00 402.95,2876.91 402.95,2876.91
             402.95,2876.91 396.29,2887.00 396.29,2887.00
             396.29,2887.00 392.09,2896.00 392.09,2896.00
             392.09,2896.00 375.84,2921.99 375.84,2921.99
             375.84,2921.99 373.46,2927.42 373.46,2927.42
             373.46,2927.42 366.50,2940.91 366.50,2940.91
             366.50,2940.91 361.95,2949.01 361.95,2949.01
             361.95,2949.01 358.63,2956.91 358.63,2956.91
             358.63,2956.91 341.17,2987.00 341.17,2987.00
             341.17,2987.00 336.47,2997.00 336.47,2997.00
             335.10,3000.36 334.89,3002.35 332.96,3005.83
             332.96,3005.83 317.53,3032.00 317.53,3032.00
             317.53,3032.00 313.64,3043.00 313.64,3043.00
             313.64,3043.00 306.31,3060.00 306.31,3060.00
             306.21,3060.26 299.19,3078.14 299.90,3075.09
             299.47,3076.74 299.88,3077.08 299.90,3078.00
             299.90,3078.00 295.00,3085.00 295.00,3085.00
             294.39,3089.93 292.51,3093.52 289.00,3097.00
             289.16,3102.42 282.80,3117.20 279.00,3121.00
             278.84,3126.44 274.37,3131.98 272.01,3136.83
             272.01,3136.83 259.55,3166.00 259.55,3166.00
             259.55,3166.00 255.53,3179.82 255.53,3179.82
             255.53,3179.82 251.64,3186.09 251.64,3186.09
             251.64,3186.09 250.54,3190.29 250.54,3190.29
             250.54,3190.29 241.33,3212.00 241.33,3212.00
             241.33,3212.00 239.54,3218.00 239.54,3218.00
             239.54,3218.00 235.52,3227.00 235.52,3227.00
             235.52,3227.00 233.50,3236.00 233.50,3236.00
             233.50,3236.00 230.56,3244.72 230.56,3244.72
             228.70,3250.48 229.46,3250.52 228.48,3255.00
             228.48,3255.00 225.51,3266.00 225.51,3266.00
             225.51,3266.00 219.85,3280.83 219.85,3280.83
             219.85,3280.83 212.35,3309.00 212.35,3309.00
             212.35,3309.00 208.89,3319.08 208.89,3319.08
             208.89,3319.08 207.52,3325.09 207.52,3325.09
             207.52,3325.09 204.78,3331.00 204.78,3331.00
             204.78,3331.00 196.87,3351.00 196.87,3351.00
             196.87,3351.00 170.26,3432.00 170.26,3432.00
             170.26,3432.00 166.90,3441.00 166.90,3441.00
             166.90,3441.00 159.08,3473.00 159.08,3473.00
             159.08,3473.00 154.88,3485.00 154.88,3485.00
             154.88,3485.00 148.62,3504.00 148.62,3504.00
             148.62,3504.00 143.14,3523.00 143.14,3523.00
             143.14,3523.00 138.95,3534.00 138.95,3534.00
             138.95,3534.00 131.27,3559.00 131.27,3559.00
             131.27,3559.00 128.44,3567.00 128.44,3567.00
             128.44,3567.00 125.91,3577.00 125.91,3577.00
             125.91,3577.00 121.04,3589.00 121.04,3589.00
             121.04,3589.00 119.01,3595.96 119.01,3595.96
             119.01,3595.96 111.16,3615.00 111.16,3615.00
             107.78,3624.01 102.69,3641.25 96.00,3648.00
             96.00,3648.00 93.00,3666.00 93.00,3666.00
             93.00,3666.00 87.79,3675.00 87.79,3675.00
             87.79,3675.00 79.56,3699.00 79.56,3699.00
             79.56,3699.00 69.62,3726.00 69.62,3726.00
             69.62,3726.00 64.00,3763.00 64.00,3763.00
             64.00,3763.00 64.00,3771.00 64.00,3771.00
             64.00,3771.00 65.34,3790.00 65.34,3790.00
             65.34,3790.00 58.08,3802.00 58.08,3802.00
             58.08,3802.00 52.78,3811.96 52.78,3811.96
             52.78,3811.96 41.45,3827.09 41.45,3827.09
             41.45,3827.09 37.91,3839.96 37.91,3839.96
             37.91,3839.96 21.28,3859.31 21.28,3859.31
             21.28,3859.31 13.00,3870.00 13.00,3870.00
             12.27,3876.62 6.23,3883.01 0.00,3885.00
             0.00,3885.00 0.00,3933.00 0.00,3933.00
             0.00,3935.08 -0.11,3938.07 0.60,3940.00
             2.47,3945.06 10.49,3950.23 15.00,3953.05
             15.00,3953.05 30.00,3960.94 30.00,3960.94
             30.00,3960.94 60.00,3977.42 60.00,3977.42
             60.00,3977.42 107.00,4006.44 107.00,4006.44
             107.00,4006.44 171.99,4040.79 171.99,4040.79
             171.99,4040.79 179.08,4045.62 179.08,4045.62
             179.08,4045.62 187.01,4049.11 187.01,4049.11
             187.01,4049.11 218.00,4064.69 218.00,4064.69
             218.00,4064.69 258.00,4084.00 258.00,4084.00
             254.48,4089.02 256.62,4096.19 255.68,4102.00
             255.68,4102.00 254.27,4109.00 254.27,4109.00
             254.27,4109.00 254.83,4119.00 254.83,4119.00
             254.83,4119.00 250.87,4157.00 250.87,4157.00
             250.87,4157.00 244.16,4214.00 244.16,4214.00
             244.16,4214.00 241.68,4237.00 241.68,4237.00
             241.68,4237.00 239.43,4247.00 239.43,4247.00
             236.77,4262.76 231.02,4299.42 231.00,4314.00
             231.00,4314.00 230.00,4364.00 230.00,4364.00
             230.00,4364.00 693.00,4364.00 693.00,4364.00
             693.00,4364.00 816.00,4364.00 816.00,4364.00
             816.00,4364.00 824.23,4362.40 824.23,4362.40
             824.23,4362.40 828.47,4350.00 828.47,4350.00
             828.47,4350.00 836.00,4320.00 836.00,4320.00
             839.27,4317.19 839.96,4310.16 841.15,4306.00
             841.15,4306.00 843.77,4295.00 843.77,4295.00
             843.77,4295.00 847.25,4284.00 847.25,4284.00
             847.25,4284.00 850.55,4269.00 850.55,4269.00
             850.55,4269.00 854.27,4257.00 854.27,4257.00
             854.27,4257.00 865.27,4214.00 865.27,4214.00
             866.51,4209.29 869.02,4195.22 870.93,4192.04
             873.33,4188.05 883.58,4181.23 887.54,4177.80
             887.54,4177.80 901.00,4164.00 901.00,4164.00
             900.99,4177.56 898.62,4180.13 896.46,4192.00
             896.46,4192.00 891.43,4226.00 891.43,4226.00
             891.43,4226.00 885.91,4284.00 885.91,4284.00
             885.91,4284.00 884.00,4316.00 884.00,4316.00
             884.00,4316.00 884.85,4329.00 884.85,4329.00
             884.85,4329.00 884.85,4338.00 884.85,4338.00
             884.85,4338.00 886.06,4348.00 886.06,4348.00
             886.06,4348.00 886.06,4356.00 886.06,4356.00
             886.06,4356.00 888.00,4364.00 888.00,4364.00
             888.00,4364.00 3246.00,4364.00 3246.00,4364.00
             3246.00,4348.02 3240.57,4326.79 3236.63,4311.00
             3236.63,4311.00 3232.34,4294.00 3232.34,4294.00
             3232.34,4294.00 3234.00,4271.00 3234.00,4271.00
             3234.09,4262.64 3234.14,4254.28 3235.44,4246.00
             3237.17,4234.94 3240.86,4224.35 3241.00,4213.00
             3241.21,4195.15 3238.58,4180.20 3233.99,4163.00
             3233.99,4163.00 3228.08,4139.00 3228.08,4139.00
             3228.08,4139.00 3225.17,4121.00 3225.17,4121.00
             3225.17,4121.00 3224.57,4108.00 3224.57,4108.00
             3224.57,4108.00 3219.00,4081.00 3219.00,4081.00
             3217.61,4071.30 3215.89,4063.74 3224.00,4056.00
             3224.00,4056.00 3229.64,4080.00 3229.64,4080.00
             3229.64,4080.00 3233.80,4087.00 3233.80,4087.00
             3236.19,4091.18 3237.35,4094.01 3240.52,4098.00
             3246.98,4106.13 3260.22,4113.54 3270.00,4116.90
             3270.00,4116.90 3289.00,4121.66 3289.00,4121.66
             3289.00,4121.66 3299.00,4124.42 3299.00,4124.42
             3304.14,4125.61 3310.06,4126.05 3313.02,4131.04
             3315.07,4134.50 3317.92,4146.59 3319.15,4151.00
             3319.15,4151.00 3329.93,4191.00 3329.93,4191.00
             3329.93,4191.00 3333.29,4201.00 3333.29,4201.00
             3333.29,4201.00 3335.46,4210.00 3335.46,4210.00
             3335.46,4210.00 3341.33,4228.04 3341.33,4228.04
             3341.33,4228.04 3344.51,4240.00 3344.51,4240.00
             3344.51,4240.00 3349.10,4253.00 3349.10,4253.00
             3349.10,4253.00 3351.18,4261.00 3351.18,4261.00
             3351.18,4261.00 3366.05,4309.00 3366.05,4309.00
             3366.05,4309.00 3377.50,4345.00 3377.50,4345.00
             3378.37,4348.67 3379.22,4360.35 3380.98,4362.40
             3382.69,4364.39 3386.60,4364.00 3389.00,4364.00
             3389.00,4364.00 3665.00,4364.00 3665.00,4364.00
             3665.00,4364.00 3665.00,2768.00 3665.00,2768.00
             3664.98,2756.51 3660.69,2753.76 3654.46,2744.91
             3654.46,2744.91 3648.28,2734.91 3648.28,2734.91
             3648.28,2734.91 3634.65,2717.71 3634.65,2717.71
             3634.65,2717.71 3629.20,2707.04 3629.20,2707.04
             3629.20,2707.04 3623.55,2700.85 3623.55,2700.85
             3618.37,2694.72 3612.35,2687.89 3608.27,2681.00
             3608.27,2681.00 3594.43,2652.17 3594.43,2652.17
             3594.43,2652.17 3589.10,2645.96 3589.10,2645.96
             3589.10,2645.96 3583.19,2636.00 3583.19,2636.00
             3583.19,2636.00 3570.17,2615.00 3570.17,2615.00
             3570.17,2615.00 3557.00,2594.00 3557.00,2594.00
             3552.46,2592.50 3549.04,2586.09 3545.67,2582.28
             3537.07,2572.60 3537.54,2571.38 3526.58,2562.21
             3521.38,2557.85 3516.18,2555.36 3513.70,2548.00
             3512.93,2545.72 3511.76,2524.41 3507.51,2517.89
             3504.89,2513.88 3501.62,2513.91 3497.93,2511.50
             3493.41,2508.55 3489.19,2503.15 3482.00,2500.09
             3478.05,2498.40 3474.37,2499.47 3470.17,2497.66
             3470.17,2497.66 3463.96,2493.64 3463.96,2493.64
             3463.96,2493.64 3456.00,2490.28 3456.00,2490.28
             3456.00,2490.28 3448.00,2485.07 3448.00,2485.07
             3448.00,2485.07 3439.42,2481.70 3439.42,2481.70
             3439.42,2481.70 3432.00,2476.13 3432.00,2476.13
             3432.00,2476.13 3423.10,2473.02 3423.10,2473.02
             3418.76,2470.49 3417.07,2464.15 3403.00,2463.00
             3403.00,2463.00 3404.00,2460.00 3404.00,2460.00
             3393.43,2452.34 3395.41,2455.62 3390.00,2452.29
             3390.00,2452.29 3379.72,2444.49 3379.72,2444.49
             3376.78,2442.65 3374.93,2443.11 3372.04,2441.27
             3372.04,2441.27 3365.83,2436.31 3365.83,2436.31
             3362.97,2434.77 3361.31,2435.58 3357.02,2432.94
             3351.83,2429.77 3351.60,2427.43 3347.95,2425.30
             3347.95,2425.30 3341.00,2422.20 3341.00,2422.20
             3341.00,2422.20 3333.00,2416.80 3333.00,2416.80
             3333.00,2416.80 3321.00,2410.02 3321.00,2410.02
             3321.00,2410.02 3314.00,2404.91 3314.00,2404.91
             3314.00,2404.91 3304.00,2399.10 3304.00,2399.10
             3304.00,2399.10 3277.42,2381.14 3277.42,2381.14
             3277.42,2381.14 3258.05,2368.54 3258.05,2368.54
             3258.05,2368.54 3251.33,2362.31 3251.33,2362.31
             3251.33,2362.31 3243.58,2356.66 3243.58,2356.66
             3237.90,2352.36 3235.10,2353.55 3231.00,2347.00
             3231.00,2347.00 3219.00,2343.30 3219.00,2343.30
             3219.00,2343.30 3198.00,2339.88 3198.00,2339.88
             3198.00,2339.88 3182.00,2335.75 3182.00,2335.75
             3182.00,2335.75 3175.00,2334.39 3175.00,2334.39
             3175.00,2334.39 3167.00,2331.45 3167.00,2331.45
             3167.00,2331.45 3139.00,2324.33 3139.00,2324.33
             3139.00,2324.33 3131.00,2320.76 3131.00,2320.76
             3131.00,2320.76 3123.09,2319.15 3123.09,2319.15
             3123.09,2319.15 3116.91,2316.11 3116.91,2316.11
             3116.91,2316.11 3108.04,2313.07 3108.04,2313.07
             3108.04,2313.07 3101.83,2309.95 3101.83,2309.95
             3101.83,2309.95 3088.04,2306.60 3088.04,2306.60
             3082.72,2305.16 3083.94,2303.11 3072.00,2303.00
             3072.00,2303.00 3072.00,2300.00 3072.00,2300.00
             3072.00,2300.00 3055.00,2296.09 3055.00,2296.09
             3055.00,2296.09 3041.00,2292.96 3041.00,2292.96
             3041.00,2292.96 3031.00,2288.69 3031.00,2288.69
             3031.00,2288.69 3022.17,2286.79 3022.17,2286.79
             3022.17,2286.79 3015.96,2283.32 3015.96,2283.32
             3015.96,2283.32 2999.00,2275.96 2999.00,2275.96
             2999.00,2275.96 2987.00,2272.73 2987.00,2272.73
             2987.00,2272.73 2976.00,2266.78 2976.00,2266.78
             2976.00,2266.78 2962.28,2263.26 2962.28,2263.26
             2962.28,2263.26 2954.00,2258.34 2954.00,2258.34
             2954.00,2258.34 2947.09,2257.28 2947.09,2257.28
             2947.09,2257.28 2940.00,2255.00 2940.00,2255.00
             2940.00,2255.00 2941.00,2252.00 2941.00,2252.00
             2941.00,2252.00 2922.01,2246.78 2922.01,2246.78
             2918.42,2245.20 2917.23,2243.23 2914.83,2241.97
             2914.83,2241.97 2907.09,2239.45 2907.09,2239.45
             2903.38,2237.66 2902.09,2234.97 2895.00,2232.77
             2895.00,2232.77 2883.66,2229.96 2883.66,2229.96
             2883.66,2229.96 2874.00,2225.14 2874.00,2225.14
             2869.13,2223.15 2866.89,2223.53 2864.00,2219.00
             2853.37,2219.61 2850.04,2208.83 2842.00,2204.35
             2842.00,2204.35 2819.00,2196.24 2819.00,2196.24
             2814.12,2194.20 2811.45,2191.20 2804.00,2188.55
             2795.13,2185.39 2783.82,2183.00 2777.00,2176.00
             2777.00,2176.00 2769.00,2176.00 2769.00,2176.00
             2766.99,2170.09 2761.11,2169.96 2756.04,2167.46
             2756.04,2167.46 2749.83,2163.95 2749.83,2163.95
             2749.83,2163.95 2739.09,2161.28 2739.09,2161.28
             2739.09,2161.28 2730.99,2156.47 2730.99,2156.47
             2730.99,2156.47 2720.09,2153.16 2720.09,2153.16
             2716.61,2151.80 2715.83,2149.96 2712.82,2148.66
             2707.26,2146.26 2704.55,2147.79 2697.92,2143.51
             2697.92,2143.51 2691.91,2139.21 2691.91,2139.21
             2691.91,2139.21 2686.28,2136.19 2686.28,2136.19
             2681.95,2133.10 2681.64,2131.27 2675.00,2128.24
             2660.69,2121.72 2655.98,2123.29 2650.00,2120.74
             2650.00,2120.74 2630.72,2109.17 2630.72,2109.17
             2630.72,2109.17 2619.00,2105.79 2619.00,2105.79
             2619.00,2105.79 2602.00,2096.88 2602.00,2096.88
             2602.00,2096.88 2594.17,2094.13 2594.17,2094.13
             2594.17,2094.13 2586.00,2089.63 2586.00,2089.63
             2586.00,2089.63 2577.00,2086.54 2577.00,2086.54
             2577.00,2086.54 2568.00,2082.21 2568.00,2082.21
             2564.16,2080.55 2557.58,2080.43 2556.00,2076.00
             2553.72,2075.59 2545.81,2073.73 2544.00,2072.83
             2544.00,2072.83 2538.00,2068.92 2538.00,2068.92
             2533.52,2066.51 2525.59,2065.84 2521.00,2068.00
             2518.24,2053.32 2517.52,2051.18 2518.24,2036.00
             2518.24,2036.00 2518.24,2024.00 2518.24,2024.00
             2518.24,2024.00 2514.33,1993.00 2514.33,1993.00
             2514.33,1993.00 2514.33,1984.00 2514.33,1984.00
             2514.33,1984.00 2512.00,1968.00 2512.00,1968.00
             2511.59,1964.92 2512.09,1960.20 2510.00,1958.00
             2514.01,1954.42 2519.47,1950.95 2519.67,1945.00
             2519.67,1945.00 2518.00,1936.00 2518.00,1936.00
             2518.00,1936.00 2512.00,1936.00 2512.00,1936.00
             2512.00,1936.00 2508.17,1914.00 2508.17,1914.00
             2508.17,1914.00 2506.21,1890.00 2506.21,1890.00
             2506.21,1890.00 2504.25,1863.00 2504.25,1863.00
             2504.25,1863.00 2504.25,1854.00 2504.25,1854.00
             2504.25,1854.00 2504.25,1835.04 2504.25,1835.04
             2504.25,1835.04 2508.13,1827.91 2508.13,1827.91
             2508.13,1827.91 2508.13,1819.00 2508.13,1819.00
             2505.94,1818.24 2507.89,1817.62 2509.00,1817.00
             2509.00,1817.00 2510.00,1804.00 2510.00,1804.00
             2510.00,1804.00 2515.00,1801.00 2515.00,1801.00
             2509.25,1791.23 2522.55,1790.26 2519.00,1779.00
             2519.00,1779.00 2521.00,1780.00 2521.00,1780.00
             2520.89,1775.07 2522.54,1770.39 2527.00,1768.00
             2527.00,1768.00 2527.00,1767.00 2527.00,1767.00
             2527.00,1767.00 2525.00,1765.00 2525.00,1765.00
             2525.00,1765.00 2528.00,1764.00 2528.00,1764.00
             2527.33,1753.17 2529.69,1754.84 2532.21,1746.00
             2532.21,1746.00 2534.21,1733.93 2534.21,1733.93
             2534.21,1733.93 2537.41,1728.67 2537.41,1728.67
             2539.15,1724.68 2537.07,1726.46 2541.00,1722.00
             2536.34,1716.85 2538.71,1712.32 2544.00,1709.00
             2543.26,1707.32 2542.26,1705.40 2542.02,1703.58
             2541.30,1698.13 2545.55,1687.21 2549.00,1683.00
             2549.00,1683.00 2546.00,1682.00 2546.00,1682.00
             2552.09,1675.00 2546.51,1670.88 2552.00,1667.00
             2551.70,1658.36 2555.75,1660.87 2552.00,1652.00
             2552.00,1652.00 2556.00,1651.00 2556.00,1651.00
             2556.00,1651.00 2553.00,1638.00 2553.00,1638.00
             2553.00,1638.00 2561.00,1635.00 2561.00,1635.00
             2561.00,1635.00 2558.00,1634.00 2558.00,1634.00
             2558.48,1633.03 2558.95,1632.74 2559.34,1631.00
             2559.34,1631.00 2560.58,1611.11 2560.58,1611.11
             2561.29,1607.18 2564.25,1607.81 2566.15,1603.87
             2567.41,1601.27 2569.68,1589.01 2569.66,1586.00
             2569.66,1586.00 2568.98,1580.30 2568.98,1580.30
             2568.90,1575.56 2572.58,1575.75 2568.00,1572.00
             2568.00,1572.00 2571.00,1571.00 2571.00,1571.00
             2570.65,1566.85 2570.60,1565.36 2568.00,1562.00
             2568.00,1562.00 2570.01,1558.89 2570.01,1558.89
             2570.01,1558.89 2570.01,1546.00 2570.01,1546.00
             2570.01,1546.00 2574.00,1545.00 2574.00,1545.00
             2574.00,1545.00 2572.00,1543.00 2572.00,1543.00
             2572.00,1543.00 2577.00,1537.00 2577.00,1537.00
             2575.89,1528.46 2583.42,1522.06 2584.63,1518.83
             2584.63,1518.83 2587.54,1506.00 2587.54,1506.00
             2587.54,1506.00 2592.84,1488.00 2592.84,1488.00
             2593.89,1482.62 2591.21,1475.20 2596.00,1472.00
             2596.00,1472.00 2596.00,1447.00 2596.00,1447.00
             2596.00,1447.00 2594.82,1436.00 2594.82,1436.00
             2594.82,1436.00 2594.82,1424.00 2594.82,1424.00
             2594.82,1424.00 2593.00,1425.00 2593.00,1425.00
             2591.51,1418.80 2593.07,1412.38 2593.00,1406.00
             2592.92,1399.45 2590.30,1396.04 2595.00,1391.00
             2593.19,1383.69 2595.65,1384.85 2596.81,1378.00
             2598.35,1368.85 2599.89,1360.31 2600.00,1351.00
             2600.00,1351.00 2601.21,1337.00 2601.21,1337.00
             2601.03,1329.34 2600.33,1321.63 2601.21,1314.00
             2601.21,1314.00 2604.53,1299.83 2604.53,1299.83
             2604.53,1299.83 2606.13,1284.00 2606.13,1284.00
             2606.13,1284.00 2607.70,1276.42 2607.70,1276.42
             2608.58,1269.41 2608.25,1251.98 2607.00,1245.00
             2607.00,1245.00 2604.00,1246.00 2604.00,1246.00
             2604.00,1246.00 2604.00,1238.00 2604.00,1238.00
             2604.00,1238.00 2600.00,1240.00 2600.00,1240.00
             2600.00,1240.00 2596.00,1232.00 2596.00,1232.00
             2590.55,1231.98 2588.59,1229.60 2584.00,1227.43
             2584.00,1227.43 2569.00,1221.80 2569.00,1221.80
             2562.92,1219.25 2563.73,1218.22 2557.00,1217.00
             2557.00,1217.00 2558.80,1205.01 2558.80,1205.01
             2558.80,1205.01 2562.41,1195.96 2562.41,1195.96
             2562.41,1195.96 2560.37,1187.00 2560.37,1187.00
             2560.37,1187.00 2561.74,1178.00 2561.74,1178.00
             2561.74,1178.00 2560.93,1171.00 2560.93,1171.00
             2560.93,1171.00 2560.93,1162.00 2560.93,1162.00
             2560.93,1162.00 2559.66,1143.00 2559.66,1143.00
             2559.66,1143.00 2560.72,1134.00 2560.72,1134.00
             2560.72,1134.00 2560.14,1125.00 2560.14,1125.00
             2560.14,1125.00 2561.58,1118.00 2561.58,1118.00
             2561.58,1118.00 2560.71,1100.00 2560.71,1100.00
             2560.71,1100.00 2561.38,1089.00 2561.38,1089.00
             2561.38,1089.00 2561.38,1059.00 2561.38,1059.00
             2561.38,1059.00 2562.12,1047.00 2562.12,1047.00
             2562.12,1047.00 2562.12,1030.00 2562.12,1030.00
             2562.12,1030.00 2559.93,1019.00 2559.93,1019.00
             2559.93,1019.00 2559.93,1010.00 2559.93,1010.00
             2559.93,1010.00 2558.05,1004.00 2558.05,1004.00
             2558.05,1004.00 2557.11,997.00 2557.11,997.00
             2557.11,997.00 2555.00,982.00 2555.00,982.00
             2549.30,975.84 2551.27,965.65 2549.54,958.00
             2549.54,958.00 2544.25,943.17 2544.25,943.17
             2544.25,943.17 2542.40,930.83 2542.40,930.83
             2542.40,930.83 2536.74,912.00 2536.74,912.00
             2535.10,905.44 2533.59,893.13 2528.00,889.00
             2528.47,884.07 2528.21,881.87 2524.00,879.00
             2525.30,873.07 2519.66,855.60 2516.59,850.26
             2515.25,847.92 2513.73,847.45 2512.55,844.87
             2512.55,844.87 2506.44,826.00 2506.44,826.00
             2506.44,826.00 2502.27,817.00 2502.27,817.00
             2502.27,817.00 2500.30,811.24 2500.30,811.24
             2498.92,808.57 2496.77,807.96 2494.93,804.95
             2494.93,804.95 2491.92,798.04 2491.92,798.04
             2491.92,798.04 2487.31,791.83 2487.31,791.83
             2487.31,791.83 2485.03,785.45 2485.03,785.45
             2482.26,780.81 2477.64,777.32 2475.63,771.96
             2475.63,771.96 2472.75,762.85 2472.75,762.85
             2470.83,759.37 2467.77,757.91 2465.56,754.91
             2463.09,751.58 2464.31,750.91 2459.14,744.58
             2455.51,740.12 2454.95,737.01 2449.00,736.00
             2449.00,736.00 2447.56,728.28 2447.56,728.28
             2447.56,728.28 2432.00,699.00 2432.00,699.00
             2425.36,694.85 2424.39,684.55 2421.82,678.02
             2420.77,675.34 2416.39,669.61 2414.46,666.98
             2414.46,666.98 2408.40,660.17 2408.40,660.17
             2408.40,660.17 2399.04,647.18 2399.04,647.18
             2399.04,647.18 2386.09,632.59 2386.09,632.59
             2386.09,632.59 2371.62,616.52 2371.62,616.52
             2371.62,616.52 2352.58,600.44 2352.58,600.44
             2349.24,597.72 2345.28,596.33 2344.00,592.00
             2336.42,591.77 2331.09,580.47 2321.00,580.00
             2319.14,575.25 2315.88,574.24 2311.00,574.00
             2311.00,574.00 2304.51,570.01 2304.51,570.01
             2304.51,570.01 2297.96,565.05 2297.96,565.05
             2297.96,565.05 2289.00,561.57 2289.00,561.57
             2289.00,561.57 2277.00,556.65 2277.00,556.65
             2277.00,556.65 2258.13,551.56 2258.13,551.56
             2258.13,551.56 2242.17,545.13 2242.17,545.13
             2242.17,545.13 2232.00,540.02 2232.00,540.02
             2232.00,540.02 2210.42,536.11 2210.42,536.11
             2210.42,536.11 2204.99,534.60 2204.99,534.60
             2204.99,534.60 2192.00,532.39 2192.00,532.39
             2192.00,532.39 2176.00,529.28 2176.00,529.28
             2176.00,529.28 2156.00,526.98 2156.00,526.98
             2156.00,526.98 2148.04,526.98 2148.04,526.98
             2148.04,526.98 2138.99,524.10 2138.99,524.10
             2138.99,524.10 2112.00,521.00 2112.00,521.00
             2111.98,520.73 2112.42,519.21 2111.17,517.95
             2110.51,517.29 2100.42,513.83 2099.04,513.52
             2099.04,513.52 2084.04,510.96 2084.04,510.96
             2084.04,510.96 2077.83,509.20 2077.83,509.20
             2071.93,507.88 2061.15,507.07 2055.00,506.96
             2055.00,506.96 2041.00,506.96 2041.00,506.96
             2041.00,506.96 2031.00,505.29 2031.00,505.29
             2031.00,505.29 2023.00,504.57 2023.00,504.57
             2023.00,504.57 2003.99,501.47 2003.99,501.47
             2003.99,501.47 1993.00,502.08 1993.00,502.08
             1993.00,502.08 1956.00,502.08 1956.00,502.08
             1956.00,502.08 1942.00,504.68 1942.00,504.68
             1942.00,504.68 1934.00,505.90 1934.00,505.90
             1917.60,509.88 1902.46,522.46 1886.72,529.12
             1886.72,529.12 1881.17,530.68 1881.17,530.68
             1878.46,531.67 1876.58,533.61 1873.00,534.53
             1873.00,534.53 1865.00,535.63 1865.00,535.63
             1865.00,535.63 1853.00,539.64 1853.00,539.64
             1847.77,541.16 1842.39,541.33 1839.00,546.00 Z
           M 2561.00,1198.00
           C 2561.00,1198.00 2561.00,1199.00 2561.00,1199.00
             2561.00,1199.00 2560.00,1198.00 2560.00,1198.00
             2560.00,1198.00 2561.00,1198.00 2561.00,1198.00 Z
           M 2584.00,1516.00
           C 2584.00,1516.00 2582.00,1520.00 2582.00,1520.00
             2582.00,1520.00 2584.00,1516.00 2584.00,1516.00 Z
           M 1507.00,1524.00
           C 1507.00,1524.00 1507.00,1525.00 1507.00,1525.00
             1507.00,1525.00 1506.00,1524.00 1506.00,1524.00
             1506.00,1524.00 1507.00,1524.00 1507.00,1524.00 Z
           M 2580.00,1528.00
           C 2580.00,1528.00 2580.00,1532.00 2580.00,1532.00
             2580.00,1532.00 2582.00,1528.00 2582.00,1528.00
             2582.00,1528.00 2580.00,1528.00 2580.00,1528.00 Z
           M 2579.00,1533.00
           C 2579.00,1533.00 2579.00,1534.00 2579.00,1534.00
             2579.00,1534.00 2580.00,1533.00 2580.00,1533.00
             2580.00,1533.00 2579.00,1533.00 2579.00,1533.00 Z
           M 2575.00,1543.00
           C 2575.00,1543.00 2575.00,1544.00 2575.00,1544.00
             2575.00,1544.00 2576.00,1543.00 2576.00,1543.00
             2576.00,1543.00 2575.00,1543.00 2575.00,1543.00 Z
           M 2568.00,1561.00
           C 2568.00,1561.00 2568.00,1562.00 2568.00,1562.00
             2568.00,1562.00 2567.00,1561.00 2567.00,1561.00
             2567.00,1561.00 2568.00,1561.00 2568.00,1561.00 Z
           M 1508.00,1562.00
           C 1508.00,1562.00 1508.00,1563.00 1508.00,1563.00
             1508.00,1563.00 1509.00,1562.00 1509.00,1562.00
             1509.00,1562.00 1508.00,1562.00 1508.00,1562.00 Z
           M 1523.00,1600.00
           C 1523.00,1600.00 1523.00,1601.00 1523.00,1601.00
             1523.00,1601.00 1522.00,1600.00 1522.00,1600.00
             1522.00,1600.00 1523.00,1600.00 1523.00,1600.00 Z
           M 1526.00,1625.00
           C 1526.00,1625.00 1526.00,1626.00 1526.00,1626.00
             1526.00,1626.00 1525.00,1625.00 1525.00,1625.00
             1525.00,1625.00 1526.00,1625.00 1526.00,1625.00 Z
           M 2559.00,1631.00
           C 2559.00,1631.00 2559.00,1632.00 2559.00,1632.00
             2559.00,1632.00 2558.00,1631.00 2558.00,1631.00
             2558.00,1631.00 2559.00,1631.00 2559.00,1631.00 Z
           M 2558.00,1632.00
           C 2558.00,1632.00 2558.00,1633.00 2558.00,1633.00
             2558.00,1633.00 2557.00,1632.00 2557.00,1632.00
             2557.00,1632.00 2558.00,1632.00 2558.00,1632.00 Z
           M 2552.00,1657.00
           C 2552.00,1657.00 2552.00,1658.00 2552.00,1658.00
             2552.00,1658.00 2551.00,1657.00 2551.00,1657.00
             2551.00,1657.00 2552.00,1657.00 2552.00,1657.00 Z
           M 1561.00,1744.00
           C 1561.00,1744.00 1561.00,1745.00 1561.00,1745.00
             1561.00,1745.00 1560.00,1744.00 1560.00,1744.00
             1560.00,1744.00 1561.00,1744.00 1561.00,1744.00 Z
           M 2507.00,1815.00
           C 2507.00,1815.00 2507.00,1816.00 2507.00,1816.00
             2507.00,1816.00 2506.00,1815.00 2506.00,1815.00
             2506.00,1815.00 2507.00,1815.00 2507.00,1815.00 Z
           M 1628.00,1952.00
           C 1628.00,1952.00 1628.00,1953.00 1628.00,1953.00
             1628.00,1953.00 1627.00,1952.00 1627.00,1952.00
             1627.00,1952.00 1628.00,1952.00 1628.00,1952.00 Z
           M 1625.00,1987.00
           C 1625.00,1987.00 1625.00,2000.00 1625.00,2000.00
             1623.52,1996.28 1623.52,1990.72 1625.00,1987.00 Z
           M 1625.00,2008.00
           C 1625.00,2008.00 1625.00,2015.00 1625.00,2015.00
             1625.00,2015.00 1625.00,2008.00 1625.00,2008.00 Z
           M 2694.00,2141.00
           C 2694.00,2141.00 2694.00,2142.00 2694.00,2142.00
             2694.00,2142.00 2693.00,2141.00 2693.00,2141.00
             2693.00,2141.00 2694.00,2141.00 2694.00,2141.00 Z
           M 510.00,2715.00
           C 510.00,2715.00 510.00,2716.00 510.00,2716.00
             510.00,2716.00 509.00,2715.00 509.00,2715.00
             509.00,2715.00 510.00,2715.00 510.00,2715.00 Z
           M 291.00,3097.00
           C 291.00,3097.00 291.00,3098.00 291.00,3098.00
             291.00,3098.00 290.00,3097.00 290.00,3097.00
             290.00,3097.00 291.00,3097.00 291.00,3097.00 Z
           M 75.00,3988.00
           C 75.00,3988.00 75.00,3989.00 75.00,3989.00
             75.00,3989.00 76.00,3988.00 76.00,3988.00
             76.00,3988.00 75.00,3988.00 75.00,3988.00 Z
           M 80.00,3991.00
           C 80.00,3991.00 80.00,3992.00 80.00,3992.00
             80.00,3992.00 81.00,3991.00 81.00,3991.00
             81.00,3991.00 80.00,3991.00 80.00,3991.00 Z" />
</svg>
