<?xml version="1.0" encoding="UTF-8" standalone="no"?>
<!DOCTYPE svg PUBLIC "-//W3C//DTD SVG 20010904//EN"
              "http://www.w3.org/TR/2001/REC-SVG-20010904/DTD/svg10.dtd">

<svg xmlns="http://www.w3.org/2000/svg"
     width="11.2967in" height="15.7333in"
     viewBox="0 0 3389 4720">
  <path id="face"
        fill="none" stroke="black" stroke-width="1"
        d="M 1616.00,536.00
           C 1616.00,536.00 1609.00,538.00 1609.00,538.00
             1609.00,538.00 1611.00,540.00 1611.00,540.00
             1606.50,540.97 1601.76,542.40 1600.00,547.00
             1592.58,547.23 1580.39,552.54 1573.00,555.31
             1569.87,556.48 1565.07,557.59 1564.00,561.00
             1564.00,561.00 1561.00,560.00 1561.00,560.00
             1561.00,560.00 1558.00,562.00 1558.00,562.00
             1558.00,562.00 1560.00,564.00 1560.00,564.00
             1560.00,564.00 1552.00,565.00 1552.00,565.00
             1551.02,567.98 1549.97,567.64 1547.00,568.00
             1547.00,568.00 1547.00,571.17 1547.00,571.17
             1544.85,570.87 1544.18,570.72 1542.00,571.17
             1542.00,571.17 1527.80,578.20 1527.80,578.20
             1526.09,579.62 1525.51,581.26 1524.20,582.74
             1524.20,582.74 1516.63,589.30 1516.63,589.30
             1516.63,589.30 1509.29,593.48 1509.29,593.48
             1509.29,593.48 1497.91,603.38 1497.91,603.38
             1497.91,603.38 1486.04,611.63 1486.04,611.63
             1486.04,611.63 1474.28,621.55 1474.28,621.55
             1468.83,625.93 1456.49,637.14 1451.00,639.00
             1451.00,639.00 1450.17,640.95 1450.17,640.95
             1450.17,640.95 1438.20,649.86 1438.20,649.86
             1438.20,649.86 1430.21,656.21 1430.21,656.21
             1430.21,656.21 1425.23,662.79 1425.23,662.79
             1425.23,662.79 1411.00,675.59 1411.00,675.59
             1411.00,675.59 1402.00,681.00 1402.00,681.00
             1397.99,691.01 1395.91,690.22 1389.63,697.37
             1389.63,697.37 1385.08,703.96 1385.08,703.96
             1385.08,703.96 1378.94,710.80 1378.94,710.80
             1375.27,715.06 1375.61,718.16 1370.00,720.00
             1370.00,720.00 1370.00,721.00 1370.00,721.00
             1370.00,721.00 1372.00,722.00 1372.00,722.00
             1364.40,730.28 1362.18,735.15 1356.95,744.58
             1356.95,744.58 1352.21,751.58 1352.21,751.58
             1352.21,751.58 1349.17,757.97 1349.17,757.97
             1349.17,757.97 1345.08,764.17 1345.08,764.17
             1345.08,764.17 1340.50,773.00 1340.50,773.00
             1340.50,773.00 1326.90,804.00 1326.90,804.00
             1326.90,804.00 1319.91,825.00 1319.91,825.00
             1319.91,825.00 1316.81,832.00 1316.81,832.00
             1316.81,832.00 1315.15,839.00 1315.15,839.00
             1315.15,839.00 1311.50,847.00 1311.50,847.00
             1311.50,847.00 1307.52,858.00 1307.52,858.00
             1306.23,861.97 1303.19,880.27 1303.47,884.01
             1303.47,884.01 1304.00,889.00 1304.00,889.00
             1304.00,889.00 1303.00,886.00 1303.00,886.00
             1303.00,886.00 1302.00,891.00 1302.00,891.00
             1304.49,892.17 1302.92,896.64 1302.58,899.00
             1299.81,918.15 1301.87,909.74 1302.00,924.00
             1302.00,924.00 1301.00,921.00 1301.00,921.00
             1298.53,925.25 1299.00,928.25 1299.00,933.00
             1299.00,933.00 1301.00,932.00 1301.00,932.00
             1301.00,932.00 1301.00,942.00 1301.00,942.00
             1301.00,942.00 1296.00,981.00 1296.00,981.00
             1296.00,981.00 1296.00,1013.00 1296.00,1013.00
             1299.20,1017.35 1298.78,1023.17 1295.00,1027.00
             1295.00,1027.00 1296.00,1030.00 1296.00,1030.00
             1290.94,1033.41 1291.23,1041.46 1291.19,1047.00
             1291.19,1047.00 1290.21,1063.00 1290.21,1063.00
             1290.21,1063.00 1291.00,1075.00 1291.00,1075.00
             1291.00,1075.00 1291.00,1088.00 1291.00,1088.00
             1291.00,1088.00 1290.00,1081.00 1290.00,1081.00
             1287.73,1086.73 1289.92,1101.28 1290.00,1108.00
             1290.01,1109.54 1289.09,1121.18 1292.00,1119.00
             1292.00,1119.00 1293.00,1129.00 1293.00,1129.00
             1295.88,1130.15 1297.47,1140.87 1297.00,1144.00
             1298.59,1147.27 1298.81,1157.33 1298.00,1161.00
             1299.20,1162.18 1299.79,1162.41 1300.53,1164.11
             1301.35,1166.01 1303.90,1183.89 1303.48,1186.00
             1302.96,1188.65 1301.13,1190.65 1299.93,1193.00
             1298.39,1196.00 1298.45,1198.76 1295.00,1200.00
             1295.00,1200.00 1296.00,1206.00 1296.00,1206.00
             1288.51,1209.48 1287.00,1218.38 1283.00,1220.00
             1282.09,1229.88 1274.40,1230.78 1272.00,1238.00
             1272.00,1238.00 1266.00,1239.00 1266.00,1239.00
             1264.69,1246.27 1258.53,1250.68 1255.29,1257.00
             1252.79,1261.86 1251.07,1275.34 1251.00,1281.00
             1250.79,1299.55 1254.55,1299.01 1259.87,1314.00
             1260.98,1317.12 1260.85,1318.96 1261.51,1322.00
             1263.32,1330.36 1265.01,1334.96 1264.00,1344.00
             1268.36,1346.92 1266.71,1351.15 1267.28,1356.00
             1267.28,1356.00 1270.84,1391.00 1270.84,1391.00
             1270.84,1391.00 1270.84,1405.00 1270.84,1405.00
             1270.84,1405.00 1269.34,1418.00 1269.34,1418.00
             1269.34,1418.00 1270.99,1432.00 1270.99,1432.00
             1270.99,1432.00 1272.31,1454.00 1272.31,1454.00
             1272.99,1457.76 1274.58,1464.56 1276.17,1467.91
             1277.39,1470.48 1280.43,1474.40 1280.81,1476.72
             1281.47,1480.69 1275.44,1489.66 1275.04,1497.00
             1274.84,1500.74 1276.46,1516.68 1277.56,1520.00
             1278.42,1522.60 1282.44,1528.29 1284.12,1531.00
             1284.12,1531.00 1292.00,1545.00 1292.00,1545.00
             1292.00,1545.00 1295.00,1547.00 1295.00,1547.00
             1298.29,1547.85 1311.97,1557.48 1320.00,1557.94
             1331.49,1558.60 1337.17,1551.29 1343.00,1550.00
             1343.00,1550.00 1345.00,1542.00 1345.00,1542.00
             1345.00,1542.00 1349.00,1543.00 1349.00,1543.00
             1349.00,1543.00 1348.00,1540.00 1348.00,1540.00
             1349.86,1541.71 1352.48,1544.09 1353.79,1546.21
             1357.12,1551.55 1361.69,1568.34 1363.26,1575.00
             1363.26,1575.00 1364.68,1581.83 1364.68,1581.83
             1364.68,1581.83 1367.19,1587.09 1367.19,1587.09
             1367.19,1587.09 1374.25,1608.00 1374.25,1608.00
             1374.25,1608.00 1377.22,1621.00 1377.22,1621.00
             1378.38,1624.85 1380.03,1625.71 1381.01,1629.83
             1381.01,1629.83 1382.80,1652.00 1382.80,1652.00
             1382.80,1652.00 1390.58,1671.00 1390.58,1671.00
             1395.00,1681.37 1402.79,1702.47 1410.02,1710.00
             1410.02,1710.00 1428.00,1727.04 1428.00,1727.04
             1428.00,1727.04 1444.00,1742.91 1444.00,1742.91
             1444.00,1742.91 1470.61,1768.42 1470.61,1768.42
             1470.61,1768.42 1478.04,1778.00 1478.04,1778.00
             1478.04,1778.00 1515.00,1813.00 1515.00,1813.00
             1515.00,1813.00 1544.00,1840.04 1544.00,1840.04
             1544.00,1840.04 1593.00,1865.25 1593.00,1865.25
             1593.00,1865.25 1623.00,1880.38 1623.00,1880.38
             1623.00,1880.38 1671.00,1886.16 1671.00,1886.16
             1671.00,1886.16 1726.00,1892.17 1726.00,1892.17
             1726.00,1892.17 1754.00,1894.96 1754.00,1894.96
             1754.00,1894.96 1766.00,1894.96 1766.00,1894.96
             1766.00,1894.96 1776.00,1894.00 1776.00,1894.00
             1776.00,1894.00 1796.00,1894.00 1796.00,1894.00
             1796.00,1894.00 1812.00,1893.00 1812.00,1893.00
             1812.00,1893.00 1833.00,1893.00 1833.00,1893.00
             1833.00,1893.00 1848.00,1892.00 1848.00,1892.00
             1848.00,1892.00 1853.00,1892.00 1853.00,1892.00
             1860.45,1891.91 1866.93,1889.17 1874.00,1887.14
             1874.00,1887.14 1913.00,1875.42 1913.00,1875.42
             1913.00,1875.42 1942.00,1866.72 1942.00,1866.72
             1946.08,1865.50 1954.65,1863.28 1958.00,1861.37
             1958.00,1861.37 1988.00,1840.14 1988.00,1840.14
             1988.00,1840.14 2028.00,1811.68 2028.00,1811.68
             2028.00,1811.68 2067.00,1773.00 2067.00,1773.00
             2067.00,1773.00 2108.39,1731.00 2108.39,1731.00
             2108.39,1731.00 2142.25,1688.00 2142.25,1688.00
             2147.27,1680.54 2148.94,1672.18 2155.00,1665.00
             2153.23,1659.51 2156.15,1651.06 2160.00,1647.00
             2160.18,1642.32 2161.51,1642.79 2162.78,1638.91
             2162.78,1638.91 2167.70,1623.42 2167.70,1623.42
             2167.70,1623.42 2173.20,1606.00 2173.20,1606.00
             2173.20,1606.00 2179.17,1591.00 2179.17,1591.00
             2179.17,1591.00 2183.89,1575.00 2183.89,1575.00
             2183.89,1575.00 2188.48,1565.00 2188.48,1565.00
             2191.01,1558.88 2194.94,1543.64 2195.00,1537.00
             2202.08,1545.93 2202.16,1552.26 2213.01,1558.57
             2217.76,1561.33 2219.56,1561.92 2225.00,1562.00
             2243.63,1562.24 2253.88,1557.56 2265.75,1542.91
             2267.40,1540.87 2269.80,1538.22 2271.03,1536.00
             2274.14,1530.43 2280.10,1511.55 2280.83,1505.00
             2280.83,1505.00 2282.19,1488.00 2282.19,1488.00
             2282.19,1488.00 2287.38,1467.96 2287.38,1467.96
             2287.38,1467.96 2291.06,1450.00 2291.06,1450.00
             2291.06,1450.00 2292.22,1443.00 2292.22,1443.00
             2292.22,1443.00 2295.06,1436.00 2295.06,1436.00
             2295.12,1435.65 2295.20,1418.94 2296.67,1412.00
             2298.66,1402.58 2301.18,1395.62 2305.51,1387.00
             2305.51,1387.00 2310.37,1377.00 2310.37,1377.00
             2310.37,1377.00 2312.32,1369.88 2312.32,1369.88
             2312.32,1369.88 2316.56,1360.00 2316.56,1360.00
             2319.30,1352.19 2320.96,1340.31 2321.00,1332.00
             2321.07,1318.63 2324.86,1320.44 2325.00,1310.00
             2325.00,1310.00 2324.00,1285.00 2324.00,1285.00
             2323.96,1275.88 2322.59,1275.69 2321.17,1268.00
             2319.80,1260.55 2318.98,1253.17 2316.50,1246.00
             2315.19,1242.20 2311.76,1230.94 2309.35,1228.51
             2304.00,1223.11 2277.20,1222.65 2273.30,1221.02
             2270.25,1219.74 2269.10,1216.68 2267.62,1214.00
             2263.07,1205.72 2262.82,1206.66 2261.00,1197.00
             2261.00,1197.00 2264.00,1198.00 2264.00,1198.00
             2266.46,1188.13 2266.05,1166.74 2266.00,1156.00
             2265.96,1147.90 2265.01,1149.61 2264.68,1145.00
             2264.68,1145.00 2264.68,1136.00 2264.68,1136.00
             2264.68,1136.00 2264.04,1129.00 2264.04,1129.00
             2264.04,1129.00 2264.04,1113.00 2264.04,1113.00
             2264.04,1113.00 2263.00,1116.00 2263.00,1116.00
             2263.00,1116.00 2262.48,1105.28 2262.48,1105.28
             2262.48,1105.28 2261.13,1099.96 2261.13,1099.96
             2261.13,1099.96 2259.08,1067.00 2259.08,1067.00
             2259.08,1067.00 2260.73,1057.00 2260.73,1057.00
             2260.73,1057.00 2259.08,1044.00 2259.08,1044.00
             2259.08,1044.00 2259.08,1033.00 2259.08,1033.00
             2259.08,1033.00 2258.00,1033.00 2258.00,1033.00
             2258.00,1033.00 2258.00,1035.00 2258.00,1035.00
             2258.00,1035.00 2259.00,1031.00 2259.00,1031.00
             2259.00,1031.00 2256.54,1020.91 2256.54,1020.91
             2256.54,1020.91 2256.54,1015.00 2256.54,1015.00
             2256.54,1015.00 2254.28,999.00 2254.28,999.00
             2254.28,999.00 2251.79,980.00 2251.79,980.00
             2250.66,974.12 2248.41,975.08 2248.58,968.00
             2248.69,963.30 2248.26,964.11 2247.64,960.00
             2247.64,960.00 2246.06,948.91 2246.06,948.91
             2243.86,938.90 2241.01,930.40 2241.00,920.00
             2237.64,918.85 2236.59,914.29 2236.11,911.00
             2235.19,904.63 2235.32,893.99 2230.00,890.00
             2230.81,882.10 2223.01,860.32 2220.07,852.00
             2220.07,852.00 2215.65,839.00 2215.65,839.00
             2215.65,839.00 2193.97,796.00 2193.97,796.00
             2193.97,796.00 2184.54,775.00 2184.54,775.00
             2184.54,775.00 2172.75,757.00 2172.75,757.00
             2172.75,757.00 2161.31,733.83 2161.31,733.83
             2159.51,729.84 2156.28,721.45 2153.00,719.00
             2153.48,713.01 2149.96,708.19 2147.22,703.00
             2140.40,690.07 2133.02,676.61 2122.19,666.67
             2116.06,661.04 2115.94,655.78 2109.00,656.00
             2109.00,656.00 2110.00,653.00 2110.00,653.00
             2102.84,651.09 2103.50,648.47 2098.98,643.45
             2098.98,643.45 2089.34,634.35 2089.34,634.35
             2089.34,634.35 2085.41,628.19 2085.41,628.19
             2085.41,628.19 2069.02,618.00 2069.02,618.00
             2063.96,614.71 2064.08,613.80 2064.00,608.00
             2060.08,607.81 2055.01,607.55 2054.00,603.00
             2045.05,601.54 2046.11,599.27 2039.96,594.55
             2039.96,594.55 2034.18,590.96 2034.18,590.96
             2034.18,590.96 2029.49,586.84 2029.49,586.84
             2029.49,586.84 2014.17,578.58 2014.17,578.58
             2014.17,578.58 1990.83,562.11 1990.83,562.11
             1990.83,562.11 1985.28,559.40 1985.28,559.40
             1985.28,559.40 1968.96,548.70 1968.96,548.70
             1968.96,548.70 1940.83,541.79 1940.83,541.79
             1934.99,540.34 1933.24,538.65 1929.00,537.24
             1929.00,537.24 1921.00,535.41 1921.00,535.41
             1921.00,535.41 1908.00,531.05 1908.00,531.05
             1908.00,531.05 1870.00,512.39 1870.00,512.39
             1870.00,512.39 1861.00,510.40 1861.00,510.40
             1861.00,510.40 1854.00,508.33 1854.00,508.33
             1854.00,508.33 1846.00,507.39 1846.00,507.39
             1846.00,507.39 1832.00,504.71 1832.00,504.71
             1832.00,504.71 1816.00,503.79 1816.00,503.79
             1816.00,503.79 1806.00,501.00 1806.00,501.00
             1806.00,501.00 1799.00,501.00 1799.00,501.00
             1799.00,501.00 1793.00,499.72 1793.00,499.72
             1793.00,499.72 1760.00,499.72 1760.00,499.72
             1755.89,499.79 1754.99,501.61 1751.58,502.04
             1745.88,502.76 1737.58,501.26 1732.00,501.04
             1732.00,501.04 1721.00,501.91 1721.00,501.91
             1721.00,501.91 1699.28,502.48 1699.28,502.48
             1693.52,502.13 1690.34,504.54 1685.00,505.71
             1676.00,507.68 1657.17,511.53 1650.00,516.51
             1650.00,516.51 1633.28,529.40 1633.28,529.40
             1633.28,529.40 1626.99,532.14 1626.99,532.14
             1622.34,534.47 1621.53,535.96 1616.00,536.00 Z
           M 1301.00,896.00
           C 1301.00,896.00 1301.00,897.00 1301.00,897.00
             1301.00,897.00 1302.00,896.00 1302.00,896.00
             1302.00,896.00 1301.00,896.00 1301.00,896.00 Z
           M 1303.00,912.00
           C 1303.00,912.00 1303.00,913.00 1303.00,913.00
             1303.00,913.00 1302.00,912.00 1302.00,912.00
             1302.00,912.00 1303.00,912.00 1303.00,912.00 Z
           M 1302.00,928.00
           C 1302.00,928.00 1302.00,929.00 1302.00,929.00
             1302.00,929.00 1301.00,928.00 1301.00,928.00
             1301.00,928.00 1302.00,928.00 1302.00,928.00 Z
           M 1299.00,935.00
           C 1299.00,935.00 1299.00,936.00 1299.00,936.00
             1299.00,936.00 1300.00,935.00 1300.00,935.00
             1300.00,935.00 1299.00,935.00 1299.00,935.00 Z
           M 1289.00,1060.00
           C 1289.00,1060.00 1289.00,1061.00 1289.00,1061.00
             1289.00,1061.00 1290.00,1060.00 1290.00,1060.00
             1290.00,1060.00 1289.00,1060.00 1289.00,1060.00 Z
           M 1291.00,1089.00
           C 1291.00,1089.00 1291.00,1090.00 1291.00,1090.00
             1291.00,1090.00 1290.00,1089.00 1290.00,1089.00
             1290.00,1089.00 1291.00,1089.00 1291.00,1089.00 Z
           M 1293.00,1117.00
           C 1293.00,1117.00 1293.00,1118.00 1293.00,1118.00
             1293.00,1118.00 1292.00,1117.00 1292.00,1117.00
             1292.00,1117.00 1293.00,1117.00 1293.00,1117.00 Z
           M 1292.00,1126.00
           C 1292.00,1126.00 1292.00,1127.00 1292.00,1127.00
             1292.00,1127.00 1293.00,1126.00 1293.00,1126.00
             1293.00,1126.00 1292.00,1126.00 1292.00,1126.00 Z
           M 2265.00,1143.00
           C 2265.00,1143.00 2265.00,1144.00 2265.00,1144.00
             2265.00,1144.00 2266.00,1143.00 2266.00,1143.00
             2266.00,1143.00 2265.00,1143.00 2265.00,1143.00 Z
           M 2267.00,1173.00
           C 2267.00,1173.00 2267.00,1178.00 2267.00,1178.00
             2267.00,1178.00 2267.00,1173.00 2267.00,1173.00 Z
           M 1293.00,1205.00
           C 1293.00,1205.00 1293.00,1206.00 1293.00,1206.00
             1293.00,1206.00 1294.00,1205.00 1294.00,1205.00
             1294.00,1205.00 1293.00,1205.00 1293.00,1205.00 Z
           M 1272.00,1232.00
           C 1272.00,1232.00 1272.00,1233.00 1272.00,1233.00
             1272.00,1233.00 1273.00,1232.00 1273.00,1232.00
             1273.00,1232.00 1272.00,1232.00 1272.00,1232.00 Z
           M 1346.00,1543.00
           C 1346.00,1543.00 1346.00,1544.00 1346.00,1544.00
             1346.00,1544.00 1347.00,1543.00 1347.00,1543.00
             1347.00,1543.00 1346.00,1543.00 1346.00,1543.00 Z
           M 1380.00,1623.00
           C 1380.00,1623.00 1380.00,1624.00 1380.00,1624.00
             1380.00,1624.00 1379.00,1623.00 1379.00,1623.00
             1379.00,1623.00 1380.00,1623.00 1380.00,1623.00 Z" />
  <path id="profile"
        fill="none" stroke="black" stroke-width="1"
        d="M 1616.00,536.00
           C 1616.00,536.00 1609.00,538.00 1609.00,538.00
             1609.00,538.00 1611.00,540.00 1611.00,540.00
             1606.50,540.97 1601.76,542.40 1600.00,547.00
             1592.58,547.23 1580.39,552.54 1573.00,555.31
             1569.87,556.48 1565.07,557.59 1564.00,561.00
             1564.00,561.00 1561.00,560.00 1561.00,560.00
             1561.00,560.00 1558.00,562.00 1558.00,562.00
             1558.00,562.00 1560.00,564.00 1560.00,564.00
             1560.00,564.00 1552.00,565.00 1552.00,565.00
             1551.02,567.98 1549.97,567.64 1547.00,568.00
             1547.00,568.00 1547.00,571.17 1547.00,571.17
             1544.85,570.87 1544.18,570.72 1542.00,571.17
             1542.00,571.17 1527.80,578.20 1527.80,578.20
             1526.09,579.62 1525.51,581.26 1524.20,582.74
             1524.20,582.74 1516.63,589.30 1516.63,589.30
             1516.63,589.30 1509.29,593.48 1509.29,593.48
             1509.29,593.48 1497.91,603.38 1497.91,603.38
             1497.91,603.38 1486.04,611.63 1486.04,611.63
             1486.04,611.63 1474.28,621.55 1474.28,621.55
             1468.83,625.93 1456.49,637.14 1451.00,639.00
             1451.00,639.00 1450.17,640.95 1450.17,640.95
             1450.17,640.95 1438.20,649.86 1438.20,649.86
             1438.20,649.86 1430.21,656.21 1430.21,656.21
             1430.21,656.21 1425.23,662.79 1425.23,662.79
             1425.23,662.79 1411.00,675.59 1411.00,675.59
             1411.00,675.59 1402.00,681.00 1402.00,681.00
             1397.99,691.01 1395.91,690.22 1389.63,697.37
             1389.63,697.37 1385.08,703.96 1385.08,703.96
             1385.08,703.96 1378.94,710.80 1378.94,710.80
             1375.27,715.06 1375.61,718.16 1370.00,720.00
             1370.00,720.00 1370.00,721.00 1370.00,721.00
             1370.00,721.00 1372.00,722.00 1372.00,722.00
             1364.40,730.28 1362.18,735.15 1356.95,744.58
             1356.95,744.58 1352.21,751.58 1352.21,751.58
             1352.21,751.58 1349.17,757.97 1349.17,757.97
             1349.17,757.97 1345.08,764.17 1345.08,764.17
             1345.08,764.17 1340.50,773.00 1340.50,773.00
             1340.50,773.00 1326.90,804.00 1326.90,804.00
             1326.90,804.00 1319.91,825.00 1319.91,825.00
             1319.91,825.00 1316.81,832.00 1316.81,832.00
             1316.81,832.00 1315.15,839.00 1315.15,839.00
             1315.15,839.00 1311.50,847.00 1311.50,847.00
             1311.50,847.00 1307.52,858.00 1307.52,858.00
             1306.22,862.00 1303.19,880.23 1303.47,884.01
             1303.47,884.01 1304.00,889.00 1304.00,889.00
             1304.00,889.00 1303.00,886.00 1303.00,886.00
             1303.00,886.00 1302.00,891.00 1302.00,891.00
             1304.49,892.17 1302.92,896.64 1302.58,899.00
             1299.81,918.15 1301.87,909.74 1302.00,924.00
             1302.00,924.00 1301.00,921.00 1301.00,921.00
             1298.53,925.25 1299.00,928.25 1299.00,933.00
             1299.00,933.00 1301.00,932.00 1301.00,932.00
             1301.00,932.00 1301.00,942.00 1301.00,942.00
             1301.00,942.00 1296.00,981.00 1296.00,981.00
             1296.00,981.00 1296.00,1013.00 1296.00,1013.00
             1299.20,1017.35 1298.78,1023.17 1295.00,1027.00
             1295.00,1027.00 1296.00,1030.00 1296.00,1030.00
             1290.94,1033.41 1291.23,1041.46 1291.19,1047.00
             1291.19,1047.00 1290.21,1063.00 1290.21,1063.00
             1290.21,1063.00 1291.00,1075.00 1291.00,1075.00
             1291.00,1075.00 1291.00,1088.00 1291.00,1088.00
             1291.00,1088.00 1290.00,1081.00 1290.00,1081.00
             1287.73,1086.73 1289.92,1101.28 1290.00,1108.00
             1290.01,1109.54 1289.09,1121.18 1292.00,1119.00
             1292.00,1119.00 1293.00,1129.00 1293.00,1129.00
             1295.88,1130.15 1297.47,1140.87 1297.00,1144.00
             1298.59,1147.27 1298.81,1157.33 1298.00,1161.00
             1299.20,1162.18 1299.79,1162.41 1300.53,1164.11
             1301.35,1166.01 1303.90,1183.89 1303.48,1186.00
             1302.96,1188.65 1301.13,1190.65 1299.93,1193.00
             1298.39,1196.00 1298.45,1198.76 1295.00,1200.00
             1295.00,1200.00 1296.00,1206.00 1296.00,1206.00
             1288.51,1209.48 1287.00,1218.38 1283.00,1220.00
             1282.09,1229.88 1274.40,1230.78 1272.00,1238.00
             1272.00,1238.00 1266.00,1239.00 1266.00,1239.00
             1264.69,1246.27 1258.53,1250.68 1255.29,1257.00
             1252.79,1261.86 1251.07,1275.34 1251.00,1281.00
             1250.79,1299.55 1254.55,1299.01 1259.87,1314.00
             1260.98,1317.12 1260.85,1318.96 1261.51,1322.00
             1263.32,1330.36 1265.01,1334.96 1264.00,1344.00
             1268.36,1346.92 1266.71,1351.15 1267.28,1356.00
             1267.28,1356.00 1270.84,1391.00 1270.84,1391.00
             1270.84,1391.00 1270.84,1405.00 1270.84,1405.00
             1270.84,1405.00 1269.34,1418.00 1269.34,1418.00
             1269.34,1418.00 1270.99,1432.00 1270.99,1432.00
             1270.99,1432.00 1272.31,1454.00 1272.31,1454.00
             1272.99,1457.76 1274.58,1464.56 1276.17,1467.91
             1277.39,1470.48 1280.43,1474.40 1280.81,1476.72
             1281.47,1480.69 1275.44,1489.66 1275.04,1497.00
             1274.84,1500.74 1276.46,1516.68 1277.56,1520.00
             1278.42,1522.60 1282.44,1528.29 1284.12,1531.00
             1284.12,1531.00 1292.00,1545.00 1292.00,1545.00
             1292.00,1545.00 1295.00,1547.00 1295.00,1547.00
             1298.29,1547.85 1311.97,1557.48 1320.00,1557.94
             1331.49,1558.60 1337.17,1551.29 1343.00,1550.00
             1343.00,1550.00 1345.00,1542.00 1345.00,1542.00
             1345.00,1542.00 1349.00,1543.00 1349.00,1543.00
             1349.00,1543.00 1348.00,1540.00 1348.00,1540.00
             1349.86,1541.71 1352.48,1544.09 1353.79,1546.21
             1359.33,1555.12 1361.60,1570.92 1364.40,1580.91
             1364.40,1580.91 1367.54,1588.04 1367.54,1588.04
             1367.54,1588.04 1373.92,1607.00 1373.92,1607.00
             1373.92,1607.00 1377.22,1621.00 1377.22,1621.00
             1377.22,1621.00 1380.78,1628.91 1380.78,1628.91
             1381.72,1631.98 1382.52,1645.96 1382.15,1649.00
             1381.75,1652.29 1379.99,1653.82 1379.50,1657.00
             1378.62,1660.14 1378.74,1678.14 1379.50,1681.00
             1381.83,1687.32 1389.62,1694.96 1394.00,1700.00
             1394.00,1700.00 1395.00,1700.00 1395.00,1700.00
             1395.00,1700.00 1394.00,1698.00 1394.00,1698.00
             1396.19,1698.83 1402.06,1700.41 1403.41,1701.73
             1405.56,1703.85 1406.78,1712.86 1407.07,1716.00
             1407.07,1716.00 1408.00,1737.00 1408.00,1737.00
             1408.00,1737.00 1409.00,1750.00 1409.00,1750.00
             1409.00,1750.00 1409.00,1797.00 1409.00,1797.00
             1409.00,1797.00 1410.00,1816.00 1410.00,1816.00
             1410.00,1816.00 1410.92,1828.01 1410.92,1828.01
             1410.92,1828.01 1413.04,1866.00 1413.04,1866.00
             1413.04,1866.00 1414.00,1877.00 1414.00,1877.00
             1414.00,1877.00 1412.09,1905.00 1412.09,1905.00
             1412.09,1905.00 1411.00,1937.00 1411.00,1937.00
             1411.00,1937.00 1410.00,1954.00 1410.00,1954.00
             1410.00,1954.00 1408.16,1977.00 1408.16,1977.00
             1407.78,1980.63 1407.53,1986.80 1405.83,1989.96
             1402.50,1996.15 1394.44,1998.28 1388.91,2001.77
             1388.91,2001.77 1374.92,2013.40 1374.92,2013.40
             1371.96,2015.59 1371.11,2014.83 1368.58,2016.14
             1368.58,2016.14 1363.71,2019.80 1363.71,2019.80
             1357.63,2023.30 1354.88,2016.26 1351.00,2019.80
             1354.02,2020.90 1352.87,2022.54 1352.00,2025.00
             1352.00,2025.00 1349.02,2024.01 1349.02,2024.01
             1342.64,2022.73 1345.43,2028.15 1341.69,2031.03
             1338.19,2033.73 1334.14,2032.83 1332.00,2039.00
             1332.00,2039.00 1328.00,2038.00 1328.00,2038.00
             1328.00,2038.00 1320.29,2041.15 1320.29,2041.15
             1320.29,2041.15 1314.86,2047.49 1314.86,2047.49
             1314.86,2047.49 1305.13,2051.46 1305.13,2051.46
             1305.13,2051.46 1297.99,2055.94 1297.99,2055.94
             1297.99,2055.94 1289.13,2058.72 1289.13,2058.72
             1289.13,2058.72 1281.00,2064.00 1281.00,2064.00
             1281.00,2064.00 1281.00,2067.04 1281.00,2067.04
             1279.28,2066.87 1278.81,2066.68 1277.00,2067.04
             1277.00,2067.04 1259.17,2074.59 1259.17,2074.59
             1259.17,2074.59 1248.41,2083.30 1248.41,2083.30
             1243.61,2086.37 1238.53,2086.93 1235.00,2092.00
             1235.00,2092.00 1232.00,2091.00 1232.00,2091.00
             1230.61,2095.81 1220.77,2099.72 1216.00,2100.00
             1213.39,2104.68 1211.23,2103.93 1207.00,2106.56
             1203.47,2108.75 1201.28,2111.50 1197.00,2112.00
             1197.00,2112.00 1183.77,2121.55 1183.77,2121.55
             1183.77,2121.55 1183.00,2124.00 1183.00,2124.00
             1183.00,2124.00 1178.00,2125.00 1178.00,2125.00
             1177.10,2127.75 1173.32,2129.56 1171.00,2131.45
             1164.98,2136.36 1161.61,2139.48 1154.00,2142.29
             1154.00,2142.29 1146.00,2144.44 1146.00,2144.44
             1146.00,2144.44 1121.00,2155.22 1121.00,2155.22
             1121.00,2155.22 1102.00,2158.34 1102.00,2158.34
             1102.00,2158.34 1089.00,2162.52 1089.00,2162.52
             1089.00,2162.52 1083.28,2163.51 1083.28,2163.51
             1083.28,2163.51 1076.99,2165.96 1076.99,2165.96
             1076.99,2165.96 1057.00,2170.62 1057.00,2170.62
             1057.00,2170.62 1045.00,2175.49 1045.00,2175.49
             1045.00,2175.49 1007.00,2183.74 1007.00,2183.74
             1007.00,2183.74 957.00,2199.57 957.00,2199.57
             957.00,2199.57 920.00,2208.51 920.00,2208.51
             920.00,2208.51 889.00,2216.63 889.00,2216.63
             889.00,2216.63 856.00,2223.89 856.00,2223.89
             856.00,2223.89 841.72,2227.99 841.72,2227.99
             841.72,2227.99 820.00,2232.65 820.00,2232.65
             820.00,2232.65 810.00,2235.64 810.00,2235.64
             810.00,2235.64 800.00,2237.47 800.00,2237.47
             800.00,2237.47 780.00,2243.11 780.00,2243.11
             780.00,2243.11 768.00,2244.51 768.00,2244.51
             768.00,2244.51 757.00,2247.55 757.00,2247.55
             757.00,2247.55 749.00,2248.46 749.00,2248.46
             737.07,2250.56 733.27,2252.74 720.00,2252.26
             707.48,2251.80 713.14,2253.69 703.00,2256.97
             703.00,2256.97 690.21,2260.00 690.21,2260.00
             687.05,2261.28 687.42,2262.61 683.00,2264.00
             681.91,2267.25 676.92,2268.98 674.00,2270.74
             674.00,2270.74 656.00,2281.40 656.00,2281.40
             656.00,2281.40 647.00,2284.59 647.00,2284.59
             642.49,2286.77 640.77,2289.26 636.91,2291.67
             636.91,2291.67 623.00,2299.54 623.00,2299.54
             623.00,2299.54 614.00,2307.33 614.00,2307.33
             614.00,2307.33 590.08,2325.59 590.08,2325.59
             590.08,2325.59 573.83,2338.79 573.83,2338.79
             573.83,2338.79 568.00,2341.55 568.00,2341.55
             564.43,2343.58 564.29,2344.32 560.00,2346.00
             559.33,2351.58 554.73,2350.88 547.17,2356.30
             547.17,2356.30 536.00,2363.66 536.00,2363.66
             536.00,2363.66 528.42,2367.52 528.42,2367.52
             516.51,2375.32 516.73,2377.28 502.00,2382.00
             502.00,2382.00 504.00,2384.00 504.00,2384.00
             502.57,2384.14 500.36,2384.25 499.07,2384.83
             497.49,2385.55 496.14,2387.16 494.83,2388.32
             486.27,2395.87 486.10,2396.88 479.60,2406.00
             476.58,2410.24 475.06,2414.36 470.00,2416.00
             468.11,2419.35 467.76,2419.37 464.00,2420.00
             459.45,2428.77 453.40,2424.98 453.00,2433.00
             450.56,2434.84 450.89,2434.98 451.00,2438.00
             446.60,2440.95 447.94,2447.29 446.32,2452.00
             444.91,2456.08 441.45,2462.65 438.56,2465.83
             434.08,2470.76 429.06,2473.62 429.00,2481.00
             429.00,2481.00 426.00,2481.00 426.00,2481.00
             426.00,2481.00 427.00,2483.00 427.00,2483.00
             423.29,2485.79 413.16,2500.68 411.15,2505.00
             408.61,2510.48 411.44,2512.96 403.00,2520.00
             403.53,2529.48 396.04,2536.31 392.52,2544.00
             392.52,2544.00 376.29,2587.00 376.29,2587.00
             376.29,2587.00 370.71,2613.00 370.71,2613.00
             370.71,2613.00 368.53,2620.00 368.53,2620.00
             368.53,2620.00 367.16,2628.00 367.16,2628.00
             365.90,2631.42 364.49,2632.25 363.25,2637.00
             363.25,2637.00 358.54,2663.00 358.54,2663.00
             358.54,2663.00 353.53,2684.00 353.53,2684.00
             353.53,2684.00 343.77,2726.00 343.77,2726.00
             341.79,2734.52 339.07,2743.15 340.00,2752.00
             334.75,2756.70 340.25,2771.04 331.97,2776.00
             331.97,2776.00 331.97,2783.00 331.97,2783.00
             331.97,2783.00 331.00,2794.00 331.00,2794.00
             331.00,2794.00 327.00,2796.00 327.00,2796.00
             326.99,2805.10 326.86,2801.66 324.45,2809.28
             324.45,2809.28 323.03,2816.00 323.03,2816.00
             323.03,2816.00 320.05,2824.00 320.05,2824.00
             320.05,2824.00 318.51,2831.83 318.51,2831.83
             318.51,2831.83 315.90,2838.04 315.90,2838.04
             315.90,2838.04 313.61,2847.41 313.61,2847.41
             313.61,2847.41 309.66,2857.01 309.66,2857.01
             309.66,2857.01 307.20,2868.72 307.20,2868.72
             307.20,2868.72 301.32,2883.00 301.32,2883.00
             301.32,2883.00 297.14,2896.00 297.14,2896.00
             297.14,2896.00 291.25,2907.99 291.25,2907.99
             291.25,2907.99 289.40,2915.17 289.40,2915.17
             289.40,2915.17 284.56,2924.00 284.56,2924.00
             284.56,2924.00 282.64,2936.00 282.64,2936.00
             282.64,2936.00 276.23,2952.00 276.23,2952.00
             276.23,2952.00 271.32,2967.00 271.32,2967.00
             271.32,2967.00 268.00,2974.00 268.00,2974.00
             268.00,2974.00 265.48,2983.96 265.48,2983.96
             265.48,2983.96 262.24,2991.09 262.24,2991.09
             262.24,2991.09 259.09,3000.00 259.09,3000.00
             259.09,3000.00 256.96,3009.00 256.96,3009.00
             256.96,3009.00 252.58,3020.00 252.58,3020.00
             250.03,3025.99 245.11,3033.64 246.00,3040.00
             246.00,3040.00 243.00,3041.00 243.00,3041.00
             243.33,3047.06 238.98,3059.50 235.00,3064.00
             234.82,3070.72 231.21,3076.88 228.83,3083.00
             228.83,3083.00 222.63,3098.96 222.63,3098.96
             222.63,3098.96 219.76,3105.17 219.76,3105.17
             218.79,3108.15 219.70,3108.21 217.04,3114.99
             214.19,3122.24 209.75,3126.62 211.00,3135.00
             207.30,3138.00 203.84,3149.24 202.33,3154.00
             202.33,3154.00 195.31,3170.00 195.31,3170.00
             195.31,3170.00 191.62,3181.83 191.62,3181.83
             189.36,3186.79 185.00,3193.42 186.00,3199.00
             182.42,3201.68 183.16,3202.98 181.69,3207.00
             181.69,3207.00 175.79,3227.00 175.79,3227.00
             175.40,3228.62 175.72,3229.49 175.79,3231.00
             175.79,3231.00 173.00,3231.00 173.00,3231.00
             173.00,3231.00 164.77,3257.99 164.77,3257.99
             164.77,3257.99 161.65,3272.00 161.65,3272.00
             159.13,3279.21 152.97,3293.64 154.00,3301.00
             150.31,3304.31 150.41,3318.62 149.16,3324.00
             148.52,3326.76 147.76,3330.82 145.00,3332.00
             145.00,3332.00 143.00,3350.00 143.00,3350.00
             143.00,3350.00 142.00,3348.00 142.00,3348.00
             142.00,3348.00 142.00,3353.00 142.00,3353.00
             139.93,3354.41 139.09,3354.95 141.00,3357.00
             140.09,3359.98 139.98,3365.71 137.00,3367.00
             137.00,3367.00 138.00,3371.00 138.00,3371.00
             138.00,3371.00 136.00,3370.00 136.00,3370.00
             136.78,3379.43 132.61,3384.64 129.00,3393.00
             129.00,3393.00 112.63,3427.00 112.63,3427.00
             112.63,3427.00 111.00,3441.00 111.00,3441.00
             111.00,3441.00 108.00,3440.00 108.00,3440.00
             108.00,3440.00 107.00,3441.00 107.00,3441.00
             107.00,3441.00 108.00,3444.00 108.00,3444.00
             108.00,3444.00 104.00,3445.00 104.00,3445.00
             104.00,3445.00 105.00,3448.00 105.00,3448.00
             102.08,3449.73 101.13,3451.31 98.93,3453.84
             89.27,3464.97 86.50,3471.69 83.92,3486.00
             83.92,3486.00 80.08,3508.42 80.08,3508.42
             80.08,3508.42 79.08,3516.00 79.08,3516.00
             79.08,3516.00 80.06,3524.00 80.06,3524.00
             80.06,3524.00 80.06,3534.00 80.06,3534.00
             81.30,3541.89 84.91,3551.29 87.09,3559.00
             90.18,3569.90 91.41,3575.75 97.34,3586.00
             97.34,3586.00 103.07,3594.17 103.07,3594.17
             112.39,3607.46 118.43,3614.37 129.11,3626.42
             129.11,3626.42 153.26,3654.24 153.26,3654.24
             163.78,3663.87 175.30,3672.38 188.00,3678.89
             188.00,3678.89 208.00,3688.02 208.00,3688.02
             208.00,3688.02 255.00,3711.06 255.00,3711.06
             255.00,3711.06 305.00,3725.63 305.00,3725.63
             305.00,3725.63 331.87,3732.98 331.87,3732.98
             338.60,3737.22 336.90,3747.65 339.01,3754.00
             339.01,3754.00 344.83,3765.91 344.83,3765.91
             346.55,3769.85 345.91,3770.55 346.87,3772.95
             346.87,3772.95 352.20,3782.00 352.20,3782.00
             352.20,3782.00 354.80,3788.87 354.80,3788.87
             357.37,3794.02 361.90,3794.25 363.00,3804.00
             374.89,3806.21 372.17,3821.06 373.54,3830.00
             374.97,3839.31 376.14,3835.64 376.00,3848.00
             376.00,3848.00 371.00,3883.00 371.00,3883.00
             371.00,3883.00 371.00,3907.00 371.00,3907.00
             371.01,3912.70 373.53,3932.49 375.00,3938.00
             376.93,3945.24 381.14,3955.58 380.00,3963.00
             380.00,3963.00 384.00,3963.00 384.00,3963.00
             383.89,3966.02 383.56,3966.16 386.00,3968.00
             385.20,3976.77 396.58,3989.43 400.93,3997.00
             404.50,4003.21 406.45,4015.82 408.54,4023.00
             408.54,4023.00 410.33,4028.00 410.33,4028.00
             410.33,4028.00 411.04,4033.00 411.04,4033.00
             412.08,4036.89 414.88,4039.07 415.74,4043.09
             415.74,4043.09 416.46,4049.00 416.46,4049.00
             416.46,4049.00 418.71,4059.00 418.71,4059.00
             418.71,4059.00 418.71,4066.00 418.71,4066.00
             418.71,4066.00 421.05,4079.96 421.05,4079.96
             421.05,4079.96 428.54,4099.00 428.54,4099.00
             428.54,4099.00 431.46,4105.00 431.46,4105.00
             431.46,4105.00 432.68,4110.00 432.68,4110.00
             432.68,4110.00 437.82,4123.00 437.82,4123.00
             437.82,4123.00 440.68,4133.00 440.68,4133.00
             440.68,4133.00 444.58,4141.00 444.58,4141.00
             444.58,4141.00 447.72,4152.00 447.72,4152.00
             447.72,4152.00 452.28,4161.00 452.28,4161.00
             452.28,4161.00 455.09,4169.00 455.09,4169.00
             455.09,4169.00 459.01,4176.00 459.01,4176.00
             459.01,4176.00 461.52,4183.83 461.52,4183.83
             461.52,4183.83 482.44,4214.02 482.44,4214.02
             482.44,4214.02 504.89,4268.00 504.89,4268.00
             504.89,4268.00 528.15,4308.00 528.15,4308.00
             538.74,4326.44 541.64,4327.65 555.91,4343.00
             560.75,4348.20 566.23,4355.23 572.00,4359.37
             572.00,4359.37 594.00,4370.25 594.00,4370.25
             594.00,4370.25 619.00,4381.87 619.00,4381.87
             621.12,4382.07 623.81,4382.00 626.00,4381.87
             626.00,4381.87 683.00,4381.87 683.00,4381.87
             683.00,4381.87 730.00,4388.00 730.00,4388.00
             730.00,4388.00 728.85,4401.00 728.85,4401.00
             728.85,4401.00 728.85,4417.00 728.85,4417.00
             728.85,4417.00 728.85,4425.00 728.85,4425.00
             728.85,4425.00 728.03,4448.00 728.03,4448.00
             728.03,4448.00 729.00,4460.00 729.00,4460.00
             729.00,4460.00 729.00,4480.00 729.00,4480.00
             729.00,4480.00 730.00,4492.00 730.00,4492.00
             730.00,4492.00 730.00,4501.00 730.00,4501.00
             730.00,4501.00 732.00,4534.00 732.00,4534.00
             732.00,4534.00 732.66,4544.00 732.66,4544.00
             732.66,4544.00 732.09,4553.00 732.09,4553.00
             732.09,4553.00 733.04,4563.00 733.04,4563.00
             733.04,4563.00 733.04,4574.00 733.04,4574.00
             733.04,4574.00 734.00,4584.00 734.00,4584.00
             734.00,4584.00 731.09,4635.00 731.09,4635.00
             731.09,4635.00 729.83,4658.00 729.83,4658.00
             729.83,4658.00 728.00,4675.00 728.00,4675.00
             728.00,4675.00 728.00,4685.00 728.00,4685.00
             728.00,4685.00 726.96,4695.00 726.96,4695.00
             726.96,4695.00 726.96,4708.00 726.96,4708.00
             726.96,4708.00 726.00,4720.00 726.00,4720.00
             726.00,4720.00 2817.00,4720.00 2817.00,4720.00
             2817.00,4720.00 2814.91,4696.00 2814.91,4696.00
             2814.91,4696.00 2813.17,4680.00 2813.17,4680.00
             2813.17,4680.00 2811.72,4663.00 2811.72,4663.00
             2811.72,4663.00 2805.17,4611.00 2805.17,4611.00
             2805.17,4611.00 2801.91,4563.00 2801.91,4563.00
             2801.91,4563.00 2799.00,4537.00 2799.00,4537.00
             2799.00,4537.00 2799.00,4491.00 2799.00,4491.00
             2799.00,4491.00 2823.00,4494.00 2823.00,4494.00
             2823.00,4494.00 2868.00,4494.00 2868.00,4494.00
             2868.00,4494.00 2909.00,4499.42 2909.00,4499.42
             2909.00,4499.42 2926.00,4502.66 2926.00,4502.66
             2926.00,4502.66 2935.00,4505.32 2935.00,4505.32
             2935.00,4505.32 2953.00,4508.44 2953.00,4508.44
             2960.38,4509.74 2958.14,4511.87 2966.00,4512.00
             2972.00,4512.09 2978.00,4511.66 2983.58,4509.20
             2983.58,4509.20 2989.01,4506.32 2989.01,4506.32
             2993.55,4504.44 2995.22,4504.74 3000.00,4501.77
             3000.00,4501.77 3009.83,4495.60 3009.83,4495.60
             3016.12,4491.25 3015.34,4488.81 3024.00,4488.00
             3024.00,4488.00 3024.00,4484.00 3024.00,4484.00
             3035.60,4483.43 3033.80,4478.20 3038.41,4475.00
             3038.41,4475.00 3042.84,4473.04 3042.84,4473.04
             3044.98,4471.84 3051.91,4465.37 3053.57,4463.42
             3058.16,4458.08 3055.36,4454.97 3064.00,4452.00
             3064.99,4445.88 3072.82,4437.79 3077.05,4433.00
             3077.05,4433.00 3099.01,4405.05 3099.01,4405.05
             3102.91,4400.08 3105.48,4400.01 3107.02,4397.53
             3107.02,4397.53 3113.69,4377.00 3113.69,4377.00
             3113.69,4377.00 3123.66,4350.00 3123.66,4350.00
             3123.66,4350.00 3131.71,4326.00 3131.71,4326.00
             3131.71,4326.00 3142.81,4306.17 3142.81,4306.17
             3142.81,4306.17 3148.79,4298.00 3148.79,4298.00
             3154.97,4286.71 3154.68,4273.18 3157.92,4261.00
             3158.92,4257.26 3160.29,4249.46 3164.00,4248.00
             3164.00,4248.00 3166.00,4232.00 3166.00,4232.00
             3166.00,4232.00 3169.00,4232.00 3169.00,4232.00
             3169.00,4232.00 3171.71,4220.00 3171.71,4220.00
             3171.71,4220.00 3173.37,4210.00 3173.37,4210.00
             3173.37,4210.00 3176.00,4195.00 3176.00,4195.00
             3176.00,4195.00 3176.00,4180.00 3176.00,4180.00
             3176.00,4180.00 3180.40,4161.99 3180.40,4161.99
             3180.40,4161.99 3184.63,4143.00 3184.63,4143.00
             3184.63,4143.00 3192.51,4131.00 3192.51,4131.00
             3192.51,4131.00 3207.25,4100.00 3207.25,4100.00
             3207.25,4100.00 3212.20,4073.00 3212.20,4073.00
             3212.20,4073.00 3210.61,4052.00 3210.61,4052.00
             3210.61,4052.00 3210.61,4037.01 3210.61,4037.01
             3210.61,4037.01 3219.74,4024.42 3219.74,4024.42
             3219.74,4024.42 3223.91,4011.00 3223.91,4011.00
             3223.91,4011.00 3227.04,3995.00 3227.04,3995.00
             3227.04,3995.00 3229.82,3982.00 3229.82,3982.00
             3229.82,3982.00 3228.88,3974.00 3228.88,3974.00
             3228.88,3974.00 3228.16,3965.00 3228.16,3965.00
             3228.16,3965.00 3222.75,3944.00 3222.75,3944.00
             3222.75,3944.00 3219.00,3927.00 3219.00,3927.00
             3226.19,3923.30 3222.41,3920.64 3225.30,3915.09
             3226.75,3912.29 3231.01,3908.40 3232.30,3904.83
             3232.30,3904.83 3235.12,3884.00 3235.12,3884.00
             3235.74,3879.03 3236.89,3879.63 3237.12,3873.00
             3237.12,3873.00 3237.12,3854.00 3237.12,3854.00
             3236.61,3849.79 3233.97,3847.08 3234.26,3842.99
             3234.75,3836.00 3240.07,3826.95 3241.55,3820.00
             3244.75,3804.99 3243.19,3808.83 3244.09,3796.00
             3244.09,3796.00 3245.53,3785.00 3245.53,3785.00
             3245.53,3785.00 3243.87,3774.72 3243.87,3774.72
             3243.87,3774.72 3243.37,3758.00 3243.37,3758.00
             3242.49,3753.53 3238.55,3744.58 3241.73,3740.49
             3243.47,3738.26 3252.01,3735.31 3255.00,3734.13
             3255.00,3734.13 3292.00,3722.26 3292.00,3722.26
             3292.00,3722.26 3314.00,3714.85 3314.00,3714.85
             3314.00,3714.85 3324.00,3710.23 3324.00,3710.23
             3324.00,3710.23 3333.00,3706.63 3333.00,3706.63
             3333.00,3706.63 3342.00,3701.29 3342.00,3701.29
             3342.00,3701.29 3362.00,3690.39 3362.00,3690.39
             3362.00,3690.39 3373.00,3685.77 3373.00,3685.77
             3379.06,3682.70 3382.12,3680.31 3389.00,3678.00
             3389.00,3678.00 3389.00,3304.00 3389.00,3304.00
             3389.00,3304.00 3385.00,3287.00 3385.00,3287.00
             3381.69,3285.78 3381.19,3278.32 3379.76,3275.00
             3375.69,3265.54 3365.68,3242.62 3366.00,3233.00
             3366.00,3233.00 3365.00,3232.00 3365.00,3232.00
             3365.00,3232.00 3363.00,3233.00 3363.00,3233.00
             3363.00,3233.00 3355.32,3198.17 3355.32,3198.17
             3355.32,3198.17 3354.26,3192.39 3354.26,3192.39
             3354.26,3192.39 3351.83,3186.99 3351.83,3186.99
             3351.83,3186.99 3345.88,3171.00 3345.88,3171.00
             3345.88,3171.00 3332.67,3133.00 3332.67,3133.00
             3332.67,3133.00 3327.07,3118.99 3327.07,3118.99
             3327.07,3118.99 3323.00,3112.00 3323.00,3112.00
             3323.00,3112.00 3319.00,3095.00 3319.00,3095.00
             3315.69,3090.89 3312.78,3079.43 3311.26,3074.00
             3311.26,3074.00 3303.50,3052.99 3303.50,3052.99
             3301.86,3048.82 3302.01,3041.33 3297.00,3040.00
             3295.80,3031.15 3289.50,3017.36 3285.80,3009.00
             3283.21,3003.17 3285.09,3004.39 3280.92,2996.04
             3280.92,2996.04 3276.84,2984.73 3276.84,2984.73
             3275.98,2983.79 3275.68,2984.19 3275.00,2984.00
             3274.06,2973.51 3268.56,2965.39 3264.81,2955.91
             3264.81,2955.91 3261.89,2946.00 3261.89,2946.00
             3261.89,2946.00 3259.10,2939.32 3259.10,2939.32
             3259.10,2939.32 3257.96,2934.69 3257.96,2934.69
             3257.96,2934.69 3250.20,2917.83 3250.20,2917.83
             3250.20,2917.83 3245.14,2903.00 3245.14,2903.00
             3245.14,2903.00 3240.19,2892.96 3240.19,2892.96
             3240.19,2892.96 3235.31,2878.99 3235.31,2878.99
             3235.31,2878.99 3229.76,2867.00 3229.76,2867.00
             3229.76,2867.00 3226.85,2858.01 3226.85,2858.01
             3226.85,2858.01 3222.81,2849.91 3222.81,2849.91
             3222.81,2849.91 3219.29,2840.00 3219.29,2840.00
             3219.29,2840.00 3215.16,2830.42 3215.16,2830.42
             3215.16,2830.42 3211.55,2819.00 3211.55,2819.00
             3211.55,2819.00 3200.81,2797.00 3200.81,2797.00
             3200.81,2797.00 3197.80,2788.00 3197.80,2788.00
             3197.80,2788.00 3192.61,2775.00 3192.61,2775.00
             3191.38,2770.93 3192.04,2769.28 3189.20,2762.00
             3189.20,2762.00 3181.79,2748.00 3181.79,2748.00
             3181.79,2748.00 3168.06,2718.00 3168.06,2718.00
             3168.06,2718.00 3163.11,2701.00 3163.11,2701.00
             3161.34,2695.54 3159.27,2692.16 3158.16,2686.17
             3158.16,2686.17 3156.24,2671.00 3156.24,2671.00
             3156.24,2671.00 3151.34,2656.00 3151.34,2656.00
             3151.34,2656.00 3144.61,2633.28 3144.61,2633.28
             3144.61,2633.28 3140.41,2621.00 3140.41,2621.00
             3138.78,2615.52 3134.43,2606.05 3135.00,2601.00
             3131.25,2596.59 3132.80,2594.80 3130.55,2589.72
             3130.55,2589.72 3121.37,2570.00 3121.37,2570.00
             3121.37,2570.00 3114.21,2548.00 3114.21,2548.00
             3114.21,2548.00 3106.63,2536.00 3106.63,2536.00
             3106.63,2536.00 3102.19,2525.00 3102.19,2525.00
             3102.19,2525.00 3094.71,2511.00 3094.71,2511.00
             3094.71,2511.00 3087.40,2494.00 3087.40,2494.00
             3087.40,2494.00 3082.32,2486.00 3082.32,2486.00
             3082.32,2486.00 3078.32,2478.09 3078.32,2478.09
             3074.69,2472.20 3072.04,2472.15 3070.00,2463.00
             3070.00,2463.00 3063.00,2457.00 3063.00,2457.00
             3063.00,2457.00 3064.00,2455.00 3064.00,2455.00
             3054.56,2449.34 3057.51,2445.46 3055.47,2436.58
             3055.47,2436.58 3051.80,2425.00 3051.80,2425.00
             3045.49,2404.58 3028.52,2379.53 3005.00,2379.00
             3005.00,2379.00 2998.00,2371.00 2998.00,2371.00
             2990.40,2370.21 2988.95,2368.18 2982.72,2365.17
             2982.72,2365.17 2958.72,2353.19 2958.72,2353.19
             2958.72,2353.19 2944.04,2346.03 2944.04,2346.03
             2944.04,2346.03 2935.96,2340.58 2935.96,2340.58
             2935.96,2340.58 2926.13,2335.34 2926.13,2335.34
             2926.13,2335.34 2920.76,2331.51 2920.76,2331.51
             2920.76,2331.51 2900.00,2319.86 2900.00,2319.86
             2890.07,2314.01 2880.63,2307.26 2870.00,2302.68
             2870.00,2302.68 2861.00,2299.45 2861.00,2299.45
             2861.00,2299.45 2846.72,2292.48 2846.72,2292.48
             2846.72,2292.48 2835.00,2290.04 2835.00,2290.04
             2835.00,2290.04 2826.00,2286.32 2826.00,2286.32
             2826.00,2286.32 2818.00,2283.90 2818.00,2283.90
             2818.00,2283.90 2809.00,2280.36 2809.00,2280.36
             2809.00,2280.36 2791.00,2275.31 2791.00,2275.31
             2791.00,2275.31 2765.00,2265.43 2765.00,2265.43
             2765.00,2265.43 2747.00,2257.24 2747.00,2257.24
             2742.94,2255.83 2742.16,2256.37 2739.00,2255.59
             2739.00,2255.59 2732.00,2252.99 2732.00,2252.99
             2732.00,2252.99 2725.00,2251.51 2725.00,2251.51
             2725.00,2251.51 2719.00,2248.82 2719.00,2248.82
             2719.00,2248.82 2707.00,2244.36 2707.00,2244.36
             2707.00,2244.36 2684.00,2238.12 2684.00,2238.12
             2684.00,2238.12 2671.00,2233.69 2671.00,2233.69
             2671.00,2233.69 2661.00,2229.63 2661.00,2229.63
             2661.00,2229.63 2654.00,2228.24 2654.00,2228.24
             2654.00,2228.24 2641.00,2223.67 2641.00,2223.67
             2641.00,2223.67 2629.00,2220.31 2629.00,2220.31
             2617.24,2216.28 2617.43,2214.63 2612.99,2212.96
             2607.55,2210.92 2603.87,2212.39 2599.00,2210.88
             2599.00,2210.88 2591.00,2207.93 2591.00,2207.93
             2591.00,2207.93 2581.00,2205.77 2581.00,2205.77
             2581.00,2205.77 2558.58,2197.84 2558.58,2197.84
             2552.69,2196.20 2540.21,2193.63 2536.00,2190.00
             2530.74,2189.50 2531.30,2187.82 2527.00,2186.50
             2527.00,2186.50 2521.00,2185.40 2521.00,2185.40
             2521.00,2185.40 2507.00,2181.42 2507.00,2181.42
             2507.00,2181.42 2492.00,2177.77 2492.00,2177.77
             2492.00,2177.77 2472.00,2170.47 2472.00,2170.47
             2472.00,2170.47 2437.00,2161.07 2437.00,2161.07
             2432.71,2159.17 2428.42,2154.34 2424.00,2152.49
             2424.00,2152.49 2410.00,2149.02 2410.00,2149.02
             2410.00,2149.02 2382.04,2137.25 2382.04,2137.25
             2382.04,2137.25 2358.00,2124.20 2358.00,2124.20
             2349.16,2120.72 2339.38,2121.28 2331.00,2116.76
             2319.49,2110.56 2311.01,2097.78 2296.00,2090.25
             2296.00,2090.25 2283.00,2084.77 2283.00,2084.77
             2283.00,2084.77 2265.00,2075.33 2265.00,2075.33
             2265.00,2075.33 2255.00,2071.12 2255.00,2071.12
             2255.00,2071.12 2248.42,2068.86 2248.42,2068.86
             2248.42,2068.86 2236.00,2061.55 2236.00,2061.55
             2236.00,2061.55 2222.00,2054.93 2222.00,2054.93
             2219.66,2053.89 2217.03,2053.41 2216.00,2051.00
             2216.00,2051.00 2213.00,2049.00 2213.00,2049.00
             2213.00,2049.00 2209.00,2050.00 2209.00,2050.00
             2207.84,2045.60 2201.77,2044.65 2198.00,2042.96
             2194.23,2041.27 2181.10,2032.44 2178.17,2029.74
             2178.17,2029.74 2157.08,2005.09 2157.08,2005.09
             2157.08,2005.09 2141.00,1991.37 2141.00,1991.37
             2136.65,1987.91 2122.29,1980.17 2120.61,1975.83
             2119.84,1973.82 2121.28,1958.23 2121.24,1955.00
             2121.24,1955.00 2121.24,1943.00 2121.24,1943.00
             2120.99,1935.62 2121.70,1931.20 2123.00,1924.00
             2123.00,1924.00 2127.00,1925.00 2127.00,1925.00
             2126.53,1918.38 2124.68,1917.98 2124.51,1914.00
             2124.51,1914.00 2125.86,1902.00 2125.86,1902.00
             2125.86,1902.00 2125.86,1893.00 2125.86,1893.00
             2125.86,1893.00 2127.35,1881.00 2127.35,1881.00
             2127.35,1881.00 2127.35,1875.00 2127.35,1875.00
             2127.63,1871.68 2128.97,1870.06 2129.81,1867.00
             2130.22,1864.12 2129.95,1858.23 2129.81,1855.00
             2130.11,1848.64 2131.28,1849.28 2131.83,1845.83
             2131.83,1845.83 2131.83,1836.00 2131.83,1836.00
             2131.83,1836.00 2134.00,1814.00 2134.00,1814.00
             2134.00,1814.00 2136.32,1784.00 2136.32,1784.00
             2136.32,1784.00 2139.59,1767.00 2139.59,1767.00
             2139.59,1767.00 2139.09,1753.00 2139.09,1753.00
             2139.09,1753.00 2139.88,1743.43 2139.88,1743.43
             2139.88,1743.43 2139.88,1730.00 2139.88,1730.00
             2139.88,1730.00 2142.83,1705.00 2142.83,1705.00
             2144.18,1690.87 2142.37,1686.86 2149.74,1673.42
             2152.16,1669.01 2151.37,1669.30 2155.00,1665.00
             2153.23,1659.51 2156.15,1651.06 2160.00,1647.00
             2160.18,1642.32 2161.51,1642.79 2162.78,1638.91
             2162.78,1638.91 2167.70,1623.42 2167.70,1623.42
             2167.70,1623.42 2173.20,1606.00 2173.20,1606.00
             2173.20,1606.00 2179.17,1591.00 2179.17,1591.00
             2179.17,1591.00 2183.89,1575.00 2183.89,1575.00
             2183.89,1575.00 2188.48,1565.00 2188.48,1565.00
             2191.01,1558.88 2194.94,1543.64 2195.00,1537.00
             2202.08,1545.93 2202.16,1552.26 2213.01,1558.57
             2217.76,1561.33 2219.56,1561.92 2225.00,1562.00
             2243.63,1562.24 2253.88,1557.56 2265.75,1542.91
             2267.40,1540.87 2269.80,1538.22 2271.03,1536.00
             2274.14,1530.43 2280.10,1511.55 2280.83,1505.00
             2280.83,1505.00 2282.19,1488.00 2282.19,1488.00
             2282.19,1488.00 2287.38,1467.96 2287.38,1467.96
             2287.38,1467.96 2291.06,1450.00 2291.06,1450.00
             2291.06,1450.00 2292.22,1443.00 2292.22,1443.00
             2292.22,1443.00 2295.06,1436.00 2295.06,1436.00
             2295.12,1435.65 2295.20,1418.94 2296.67,1412.00
             2298.66,1402.58 2301.18,1395.62 2305.51,1387.00
             2305.51,1387.00 2310.37,1377.00 2310.37,1377.00
             2310.37,1377.00 2312.32,1369.88 2312.32,1369.88
             2312.32,1369.88 2316.56,1360.00 2316.56,1360.00
             2319.30,1352.19 2320.96,1340.31 2321.00,1332.00
             2321.07,1318.63 2324.86,1320.44 2325.00,1310.00
             2325.00,1310.00 2324.00,1285.00 2324.00,1285.00
             2323.96,1275.88 2322.59,1275.69 2321.17,1268.00
             2319.80,1260.55 2318.98,1253.17 2316.50,1246.00
             2315.19,1242.20 2311.76,1230.94 2309.35,1228.51
             2304.00,1223.11 2277.20,1222.65 2273.30,1221.02
             2270.25,1219.74 2269.10,1216.68 2267.62,1214.00
             2263.07,1205.72 2262.82,1206.66 2261.00,1197.00
             2261.00,1197.00 2264.00,1198.00 2264.00,1198.00
             2266.46,1188.13 2266.05,1166.74 2266.00,1156.00
             2265.96,1147.90 2265.01,1149.61 2264.68,1145.00
             2264.68,1145.00 2264.68,1136.00 2264.68,1136.00
             2264.68,1136.00 2264.04,1129.00 2264.04,1129.00
             2264.04,1129.00 2264.04,1113.00 2264.04,1113.00
             2264.04,1113.00 2263.00,1116.00 2263.00,1116.00
             2263.00,1116.00 2262.48,1105.28 2262.48,1105.28
             2262.48,1105.28 2261.13,1099.96 2261.13,1099.96
             2261.13,1099.96 2259.08,1067.00 2259.08,1067.00
             2259.08,1067.00 2260.73,1057.00 2260.73,1057.00
             2260.73,1057.00 2259.08,1044.00 2259.08,1044.00
             2259.08,1044.00 2259.08,1033.00 2259.08,1033.00
             2259.08,1033.00 2258.00,1033.00 2258.00,1033.00
             2258.00,1033.00 2258.00,1035.00 2258.00,1035.00
             2258.00,1035.00 2259.00,1031.00 2259.00,1031.00
             2259.00,1031.00 2256.54,1020.91 2256.54,1020.91
             2256.54,1020.91 2256.54,1015.00 2256.54,1015.00
             2256.54,1015.00 2254.28,999.00 2254.28,999.00
             2254.28,999.00 2251.79,980.00 2251.79,980.00
             2250.66,974.12 2248.41,975.08 2248.58,968.00
             2248.69,963.30 2248.26,964.11 2247.64,960.00
             2247.64,960.00 2246.06,948.91 2246.06,948.91
             2243.86,938.90 2241.01,930.40 2241.00,920.00
             2237.64,918.85 2236.59,914.29 2236.11,911.00
             2235.19,904.63 2235.32,893.99 2230.00,890.00
             2230.81,882.10 2223.01,860.32 2220.07,852.00
             2220.07,852.00 2215.65,839.00 2215.65,839.00
             2215.65,839.00 2193.97,796.00 2193.97,796.00
             2193.97,796.00 2184.54,775.00 2184.54,775.00
             2184.54,775.00 2172.75,757.00 2172.75,757.00
             2172.75,757.00 2161.31,733.83 2161.31,733.83
             2159.51,729.84 2156.28,721.45 2153.00,719.00
             2153.48,713.01 2149.96,708.19 2147.22,703.00
             2140.40,690.07 2133.02,676.61 2122.19,666.67
             2116.06,661.04 2115.94,655.78 2109.00,656.00
             2109.00,656.00 2110.00,653.00 2110.00,653.00
             2102.84,651.09 2103.50,648.47 2098.98,643.45
             2098.98,643.45 2089.34,634.35 2089.34,634.35
             2089.34,634.35 2085.41,628.19 2085.41,628.19
             2085.41,628.19 2069.02,618.00 2069.02,618.00
             2063.96,614.71 2064.08,613.80 2064.00,608.00
             2060.08,607.81 2055.01,607.55 2054.00,603.00
             2045.05,601.54 2046.11,599.27 2039.96,594.55
             2039.96,594.55 2034.18,590.96 2034.18,590.96
             2034.18,590.96 2029.49,586.84 2029.49,586.84
             2029.49,586.84 2014.17,578.58 2014.17,578.58
             2014.17,578.58 1990.83,562.11 1990.83,562.11
             1990.83,562.11 1985.28,559.40 1985.28,559.40
             1985.28,559.40 1968.96,548.70 1968.96,548.70
             1968.96,548.70 1940.83,541.79 1940.83,541.79
             1934.99,540.34 1933.24,538.65 1929.00,537.24
             1929.00,537.24 1921.00,535.41 1921.00,535.41
             1921.00,535.41 1908.00,531.05 1908.00,531.05
             1908.00,531.05 1870.00,512.39 1870.00,512.39
             1870.00,512.39 1861.00,510.40 1861.00,510.40
             1861.00,510.40 1854.00,508.33 1854.00,508.33
             1854.00,508.33 1846.00,507.39 1846.00,507.39
             1846.00,507.39 1832.00,504.71 1832.00,504.71
             1832.00,504.71 1816.00,503.79 1816.00,503.79
             1816.00,503.79 1806.00,501.00 1806.00,501.00
             1806.00,501.00 1799.00,501.00 1799.00,501.00
             1799.00,501.00 1793.00,499.72 1793.00,499.72
             1793.00,499.72 1760.00,499.72 1760.00,499.72
             1755.89,499.79 1754.99,501.61 1751.58,502.04
             1745.88,502.76 1737.58,501.26 1732.00,501.04
             1732.00,501.04 1721.00,501.91 1721.00,501.91
             1721.00,501.91 1699.28,502.48 1699.28,502.48
             1693.52,502.13 1690.34,504.54 1685.00,505.71
             1676.00,507.68 1657.17,511.53 1650.00,516.51
             1650.00,516.51 1633.28,529.40 1633.28,529.40
             1633.28,529.40 1626.99,532.14 1626.99,532.14
             1622.34,534.47 1621.53,535.96 1616.00,536.00 Z
           M 1301.00,896.00
           C 1301.00,896.00 1301.00,897.00 1301.00,897.00
             1301.00,897.00 1302.00,896.00 1302.00,896.00
             1302.00,896.00 1301.00,896.00 1301.00,896.00 Z
           M 1303.00,912.00
           C 1303.00,912.00 1303.00,913.00 1303.00,913.00
             1303.00,913.00 1302.00,912.00 1302.00,912.00
             1302.00,912.00 1303.00,912.00 1303.00,912.00 Z
           M 1302.00,928.00
           C 1302.00,928.00 1302.00,929.00 1302.00,929.00
             1302.00,929.00 1301.00,928.00 1301.00,928.00
             1301.00,928.00 1302.00,928.00 1302.00,928.00 Z
           M 1299.00,935.00
           C 1299.00,935.00 1299.00,936.00 1299.00,936.00
             1299.00,936.00 1300.00,935.00 1300.00,935.00
             1300.00,935.00 1299.00,935.00 1299.00,935.00 Z
           M 1289.00,1060.00
           C 1289.00,1060.00 1289.00,1061.00 1289.00,1061.00
             1289.00,1061.00 1290.00,1060.00 1290.00,1060.00
             1290.00,1060.00 1289.00,1060.00 1289.00,1060.00 Z
           M 1291.00,1089.00
           C 1291.00,1089.00 1291.00,1090.00 1291.00,1090.00
             1291.00,1090.00 1290.00,1089.00 1290.00,1089.00
             1290.00,1089.00 1291.00,1089.00 1291.00,1089.00 Z
           M 1293.00,1117.00
           C 1293.00,1117.00 1293.00,1118.00 1293.00,1118.00
             1293.00,1118.00 1292.00,1117.00 1292.00,1117.00
             1292.00,1117.00 1293.00,1117.00 1293.00,1117.00 Z
           M 1292.00,1126.00
           C 1292.00,1126.00 1292.00,1127.00 1292.00,1127.00
             1292.00,1127.00 1293.00,1126.00 1293.00,1126.00
             1293.00,1126.00 1292.00,1126.00 1292.00,1126.00 Z
           M 2265.00,1143.00
           C 2265.00,1143.00 2265.00,1144.00 2265.00,1144.00
             2265.00,1144.00 2266.00,1143.00 2266.00,1143.00
             2266.00,1143.00 2265.00,1143.00 2265.00,1143.00 Z
           M 2267.00,1173.00
           C 2267.00,1173.00 2267.00,1178.00 2267.00,1178.00
             2267.00,1178.00 2267.00,1173.00 2267.00,1173.00 Z
           M 1293.00,1205.00
           C 1293.00,1205.00 1293.00,1206.00 1293.00,1206.00
             1293.00,1206.00 1294.00,1205.00 1294.00,1205.00
             1294.00,1205.00 1293.00,1205.00 1293.00,1205.00 Z
           M 1272.00,1232.00
           C 1272.00,1232.00 1272.00,1233.00 1272.00,1233.00
             1272.00,1233.00 1273.00,1232.00 1273.00,1232.00
             1273.00,1232.00 1272.00,1232.00 1272.00,1232.00 Z
           M 1346.00,1543.00
           C 1346.00,1543.00 1346.00,1544.00 1346.00,1544.00
             1346.00,1544.00 1347.00,1543.00 1347.00,1543.00
             1347.00,1543.00 1346.00,1543.00 1346.00,1543.00 Z
           M 1380.00,1623.00
           C 1380.00,1623.00 1380.00,1624.00 1380.00,1624.00
             1380.00,1624.00 1379.00,1623.00 1379.00,1623.00
             1379.00,1623.00 1380.00,1623.00 1380.00,1623.00 Z
           M 1257.00,2079.00
           C 1257.00,2079.00 1257.00,2080.00 1257.00,2080.00
             1257.00,2080.00 1256.00,2079.00 1256.00,2079.00
             1256.00,2079.00 1257.00,2079.00 1257.00,2079.00 Z
           M 1241.00,2088.00
           C 1241.00,2088.00 1241.00,2089.00 1241.00,2089.00
             1241.00,2089.00 1240.00,2088.00 1240.00,2088.00
             1240.00,2088.00 1241.00,2088.00 1241.00,2088.00 Z
           M 1198.00,2113.00
           C 1198.00,2113.00 1198.00,2114.00 1198.00,2114.00
             1198.00,2114.00 1197.00,2113.00 1197.00,2113.00
             1197.00,2113.00 1198.00,2113.00 1198.00,2113.00 Z
           M 713.00,2254.00
           C 713.00,2254.00 713.00,2255.00 713.00,2255.00
             713.00,2255.00 712.00,2254.00 712.00,2254.00
             712.00,2254.00 713.00,2254.00 713.00,2254.00 Z
           M 561.00,2337.00
           C 561.00,2337.00 561.00,2338.00 561.00,2338.00
             561.00,2338.00 562.00,2337.00 562.00,2337.00
             562.00,2337.00 561.00,2337.00 561.00,2337.00 Z
           M 334.00,2778.00
           C 334.00,2778.00 334.00,2779.00 334.00,2779.00
             334.00,2779.00 333.00,2778.00 333.00,2778.00
             333.00,2778.00 334.00,2778.00 334.00,2778.00 Z
           M 330.00,2798.00
           C 330.00,2798.00 330.00,2799.00 330.00,2799.00
             330.00,2799.00 329.00,2798.00 329.00,2798.00
             329.00,2798.00 330.00,2798.00 330.00,2798.00 Z
           M 303.00,2882.00
           C 303.00,2882.00 303.00,2883.00 303.00,2883.00
             303.00,2883.00 302.00,2882.00 302.00,2882.00
             302.00,2882.00 303.00,2882.00 303.00,2882.00 Z
           M 276.00,2958.00
           C 276.00,2958.00 276.00,2959.00 276.00,2959.00
             276.00,2959.00 275.00,2958.00 275.00,2958.00
             275.00,2958.00 276.00,2958.00 276.00,2958.00 Z
           M 207.00,3137.00
           C 207.00,3137.00 207.00,3138.00 207.00,3138.00
             207.00,3138.00 208.00,3137.00 208.00,3137.00
             208.00,3137.00 207.00,3137.00 207.00,3137.00 Z
           M 159.00,3284.00
           C 159.00,3284.00 159.00,3285.00 159.00,3285.00
             159.00,3285.00 158.00,3284.00 158.00,3284.00
             158.00,3284.00 159.00,3284.00 159.00,3284.00 Z
           M 155.00,3298.00
           C 155.00,3298.00 155.00,3299.00 155.00,3299.00
             155.00,3299.00 154.00,3298.00 154.00,3298.00
             154.00,3298.00 155.00,3298.00 155.00,3298.00 Z
           M 107.00,3445.00
           C 107.00,3445.00 107.00,3446.00 107.00,3446.00
             107.00,3446.00 106.00,3445.00 106.00,3445.00
             106.00,3445.00 107.00,3445.00 107.00,3445.00 Z
           M 106.00,3446.00
           C 106.00,3446.00 106.00,3447.00 106.00,3447.00
             106.00,3447.00 105.00,3446.00 105.00,3446.00
             105.00,3446.00 106.00,3446.00 106.00,3446.00 Z" />
</svg>
