<?xml version="1.0" encoding="UTF-8" standalone="no"?>
<!DOCTYPE svg PUBLIC "-//W3C//DTD SVG 20010904//EN"
              "http://www.w3.org/TR/2001/REC-SVG-20010904/DTD/svg10.dtd">

<svg xmlns="http://www.w3.org/2000/svg"
     width="11.4367in" height="15.5433in"
     viewBox="0 0 3431 4663">
  <path id="face"
        fill="none" stroke="black" stroke-width="1"
        d="M 1135.00,1119.00
           C 1131.69,1123.64 1132.94,1132.36 1133.00,1138.00
             1133.00,1138.00 1134.00,1166.00 1134.00,1166.00
             1134.15,1178.12 1141.17,1196.20 1141.51,1199.96
             1141.51,1199.96 1141.00,1208.00 1141.00,1208.00
             1141.00,1208.00 1144.06,1208.00 1144.06,1208.00
             1144.13,1210.22 1144.46,1212.82 1144.06,1215.00
             1143.32,1220.41 1138.31,1232.63 1134.51,1236.68
             1130.90,1240.51 1125.81,1240.75 1124.19,1244.21
             1122.81,1247.18 1125.30,1250.29 1124.91,1257.00
             1124.49,1264.14 1122.25,1266.90 1121.39,1271.00
             1121.39,1271.00 1120.18,1287.00 1120.18,1287.00
             1120.18,1287.00 1123.83,1314.00 1123.83,1314.00
             1123.83,1314.00 1127.02,1338.00 1127.02,1338.00
             1127.02,1338.00 1127.02,1350.00 1127.02,1350.00
             1127.02,1350.00 1128.95,1357.96 1128.95,1357.96
             1128.95,1357.96 1130.26,1373.00 1130.26,1373.00
             1130.26,1373.00 1131.87,1380.00 1131.87,1380.00
             1132.27,1383.47 1131.76,1384.90 1132.68,1389.00
             1134.14,1395.51 1136.58,1399.78 1136.00,1407.00
             1139.84,1411.11 1139.93,1417.55 1140.09,1423.00
             1140.09,1423.00 1140.09,1435.00 1140.09,1435.00
             1140.09,1435.00 1141.39,1442.00 1141.39,1442.00
             1141.83,1445.90 1140.57,1452.03 1140.00,1456.00
             1143.83,1458.56 1143.10,1461.68 1142.99,1466.00
             1142.73,1476.04 1137.39,1479.64 1137.88,1487.00
             1138.20,1491.88 1141.69,1494.15 1143.79,1498.17
             1145.62,1502.47 1145.08,1507.55 1143.79,1512.00
             1143.79,1512.00 1147.73,1523.76 1147.73,1523.76
             1147.73,1523.76 1151.87,1529.12 1151.87,1529.12
             1151.87,1529.12 1155.67,1537.46 1155.67,1537.46
             1155.67,1537.46 1161.00,1544.00 1161.00,1544.00
             1161.20,1546.42 1162.10,1555.13 1162.85,1556.96
             1162.85,1556.96 1174.11,1574.00 1174.11,1574.00
             1175.32,1576.55 1175.52,1579.38 1177.08,1581.79
             1177.08,1581.79 1188.96,1596.09 1188.96,1596.09
             1188.96,1596.09 1193.19,1603.73 1193.19,1603.73
             1194.98,1606.17 1196.63,1606.47 1198.36,1608.41
             1200.08,1610.35 1200.36,1611.98 1201.52,1613.73
             1201.52,1613.73 1209.27,1622.73 1209.27,1622.73
             1209.27,1622.73 1215.58,1627.24 1215.58,1627.24
             1227.48,1636.27 1237.75,1640.82 1253.00,1641.00
             1253.00,1641.00 1270.00,1642.00 1270.00,1642.00
             1274.27,1642.05 1281.41,1641.29 1284.91,1643.74
             1288.36,1646.16 1290.12,1653.04 1291.50,1657.00
             1291.50,1657.00 1301.59,1687.00 1301.59,1687.00
             1301.59,1687.00 1313.91,1724.00 1313.91,1724.00
             1313.91,1724.00 1325.70,1751.00 1325.70,1751.00
             1325.70,1751.00 1331.87,1765.00 1331.87,1765.00
             1335.78,1772.69 1341.60,1778.94 1342.69,1781.01
             1344.34,1784.19 1343.64,1786.36 1345.02,1788.68
             1346.52,1791.20 1348.95,1791.78 1350.42,1795.08
             1353.45,1801.88 1351.82,1803.14 1358.09,1810.00
             1358.09,1810.00 1371.96,1824.00 1371.96,1824.00
             1371.96,1824.00 1380.04,1833.00 1380.04,1833.00
             1380.04,1833.00 1418.00,1871.00 1418.00,1871.00
             1418.00,1871.00 1442.00,1894.01 1442.00,1894.01
             1442.00,1894.01 1458.00,1909.39 1458.00,1909.39
             1458.00,1909.39 1490.00,1927.31 1490.00,1927.31
             1490.00,1927.31 1531.00,1949.54 1531.00,1949.54
             1531.00,1949.54 1573.00,1959.88 1573.00,1959.88
             1573.00,1959.88 1619.00,1970.61 1619.00,1970.61
             1619.00,1970.61 1629.00,1970.00 1629.00,1970.00
             1629.00,1970.00 1701.00,1976.91 1701.00,1976.91
             1707.79,1977.29 1714.36,1974.96 1721.00,1974.17
             1721.00,1974.17 1775.00,1968.16 1775.00,1968.16
             1775.00,1968.16 1816.00,1963.54 1816.00,1963.54
             1816.00,1963.54 1852.00,1954.15 1852.00,1954.15
             1852.00,1954.15 1897.00,1942.15 1897.00,1942.15
             1897.00,1942.15 1911.99,1938.28 1911.99,1938.28
             1911.99,1938.28 1923.00,1933.72 1923.00,1933.72
             1923.00,1933.72 1963.00,1921.02 1963.00,1921.02
             1969.81,1918.91 1982.98,1915.17 1988.83,1911.73
             1988.83,1911.73 2000.00,1902.87 2000.00,1902.87
             2000.00,1902.87 2027.00,1882.87 2027.00,1882.87
             2027.00,1882.87 2035.00,1877.01 2035.00,1877.01
             2039.43,1874.25 2041.46,1875.00 2045.71,1870.81
             2045.71,1870.81 2073.75,1837.00 2073.75,1837.00
             2073.75,1837.00 2086.56,1821.00 2086.56,1821.00
             2086.56,1821.00 2122.28,1761.00 2122.28,1761.00
             2128.08,1750.74 2126.26,1750.98 2130.16,1742.00
             2133.14,1735.13 2135.88,1734.17 2135.00,1726.00
             2138.67,1724.81 2139.34,1717.48 2140.00,1714.00
             2140.00,1714.00 2141.00,1716.00 2141.00,1716.00
             2143.47,1711.15 2142.88,1706.22 2145.09,1700.00
             2153.58,1676.10 2154.59,1671.39 2160.12,1647.00
             2161.38,1641.44 2163.39,1625.79 2169.00,1624.00
             2169.00,1624.00 2172.00,1618.00 2172.00,1618.00
             2172.00,1618.00 2169.00,1619.00 2169.00,1619.00
             2171.31,1617.01 2172.31,1616.93 2174.72,1615.45
             2189.40,1606.38 2191.21,1608.85 2207.00,1606.72
             2210.83,1606.20 2218.46,1604.78 2222.00,1603.60
             2222.00,1603.60 2229.00,1600.79 2229.00,1600.79
             2232.09,1599.84 2233.65,1600.08 2237.00,1598.59
             2237.00,1598.59 2253.76,1589.53 2253.76,1589.53
             2253.76,1589.53 2259.11,1584.86 2259.11,1584.86
             2263.05,1582.03 2266.34,1579.93 2269.72,1576.25
             2272.61,1573.11 2272.05,1571.74 2273.83,1569.49
             2273.83,1569.49 2277.30,1566.32 2277.30,1566.32
             2277.30,1566.32 2281.33,1561.00 2281.33,1561.00
             2281.33,1561.00 2295.10,1544.99 2295.10,1544.99
             2295.10,1544.99 2298.89,1538.17 2298.89,1538.17
             2298.89,1538.17 2301.89,1534.00 2301.89,1534.00
             2304.04,1530.30 2303.78,1525.69 2304.89,1523.13
             2306.19,1520.14 2308.14,1520.01 2309.53,1517.59
             2309.53,1517.59 2313.80,1506.00 2313.80,1506.00
             2316.70,1499.91 2320.71,1498.29 2323.60,1492.83
             2325.40,1489.43 2327.29,1481.04 2328.39,1477.00
             2330.71,1468.48 2332.97,1465.33 2333.00,1456.00
             2333.00,1456.00 2335.00,1457.00 2335.00,1457.00
             2335.00,1457.00 2337.29,1440.00 2337.29,1440.00
             2337.29,1440.00 2337.29,1428.00 2337.29,1428.00
             2337.29,1428.00 2338.83,1420.04 2338.83,1420.04
             2338.83,1420.04 2337.00,1408.00 2337.00,1408.00
             2337.00,1408.00 2340.94,1408.00 2340.94,1408.00
             2340.94,1408.00 2340.94,1395.09 2340.94,1395.09
             2340.94,1395.09 2339.30,1386.00 2339.30,1386.00
             2339.30,1386.00 2340.04,1377.00 2340.04,1377.00
             2340.04,1377.00 2340.04,1362.00 2340.04,1362.00
             2340.04,1362.00 2340.95,1352.00 2340.95,1352.00
             2340.95,1352.00 2340.95,1339.00 2340.95,1339.00
             2340.95,1339.00 2340.30,1333.00 2340.30,1333.00
             2340.30,1333.00 2341.93,1325.00 2341.93,1325.00
             2341.93,1325.00 2341.93,1302.00 2341.93,1302.00
             2341.93,1302.00 2343.00,1289.00 2343.00,1289.00
             2343.00,1289.00 2341.13,1275.00 2341.13,1275.00
             2341.13,1275.00 2339.56,1260.00 2339.56,1260.00
             2339.56,1260.00 2336.21,1244.00 2336.21,1244.00
             2336.21,1244.00 2335.66,1236.00 2335.66,1236.00
             2335.66,1236.00 2331.00,1216.00 2331.00,1216.00
             2331.00,1216.00 2322.13,1202.43 2322.13,1202.43
             2322.13,1202.43 2315.33,1198.28 2315.33,1198.28
             2315.33,1198.28 2311.10,1193.47 2311.10,1193.47
             2311.10,1193.47 2301.83,1187.82 2301.83,1187.82
             2301.83,1187.82 2294.00,1189.00 2294.00,1189.00
             2294.00,1189.00 2295.09,1179.00 2295.09,1179.00
             2295.09,1179.00 2295.75,1166.00 2295.75,1166.00
             2295.75,1166.00 2295.75,1135.58 2295.75,1135.58
             2295.75,1135.58 2294.09,1129.00 2294.09,1129.00
             2294.09,1129.00 2292.00,1106.00 2292.00,1106.00
             2292.00,1106.00 2290.83,1077.00 2290.83,1077.00
             2290.83,1077.00 2289.15,1069.00 2289.15,1069.00
             2289.15,1069.00 2289.15,1056.00 2289.15,1056.00
             2289.15,1056.00 2288.00,1039.00 2288.00,1039.00
             2288.00,1039.00 2287.18,1014.00 2287.18,1014.00
             2287.18,1014.00 2287.90,1003.00 2287.90,1003.00
             2287.90,1003.00 2286.00,993.00 2286.00,993.00
             2286.00,993.00 2286.00,985.00 2286.00,985.00
             2286.00,985.00 2281.32,957.00 2281.32,957.00
             2281.32,957.00 2270.50,926.00 2270.50,926.00
             2270.50,926.00 2265.03,914.00 2265.03,914.00
             2265.03,914.00 2262.57,906.00 2262.57,906.00
             2262.57,906.00 2248.12,862.00 2248.12,862.00
             2248.12,862.00 2242.77,844.77 2242.77,844.77
             2242.77,844.77 2241.00,844.00 2241.00,844.00
             2241.00,844.00 2236.67,828.00 2236.67,828.00
             2236.67,828.00 2233.44,816.42 2233.44,816.42
             2233.44,816.42 2226.54,805.00 2226.54,805.00
             2226.54,805.00 2219.60,787.00 2219.60,787.00
             2219.60,787.00 2217.19,778.17 2217.19,778.17
             2217.19,778.17 2211.31,768.00 2211.31,768.00
             2211.31,768.00 2207.77,759.00 2207.77,759.00
             2207.77,759.00 2190.72,723.00 2190.72,723.00
             2190.72,723.00 2185.51,709.00 2185.51,709.00
             2185.51,709.00 2169.51,685.83 2169.51,685.83
             2169.51,685.83 2167.61,680.00 2167.61,680.00
             2167.61,680.00 2160.82,665.00 2160.82,665.00
             2160.82,665.00 2153.97,647.00 2153.97,647.00
             2153.97,647.00 2147.92,636.91 2147.92,636.91
             2147.92,636.91 2143.78,626.17 2143.78,626.17
             2143.78,626.17 2135.51,612.00 2135.51,612.00
             2135.51,612.00 2131.82,604.28 2131.82,604.28
             2131.82,604.28 2128.07,598.96 2128.07,598.96
             2128.07,598.96 2125.20,593.28 2125.20,593.28
             2125.20,593.28 2116.44,583.00 2116.44,583.00
             2116.44,583.00 2104.05,564.99 2104.05,564.99
             2104.05,564.99 2104.05,560.00 2104.05,560.00
             2095.71,560.10 2097.49,557.15 2090.98,551.44
             2090.98,551.44 2074.72,538.04 2074.72,538.04
             2074.72,538.04 2067.00,533.15 2067.00,533.15
             2067.00,533.15 2056.17,527.20 2056.17,527.20
             2056.17,527.20 2049.96,522.10 2049.96,522.10
             2049.96,522.10 2011.96,498.59 2011.96,498.59
             2011.96,498.59 2002.17,494.69 2002.17,494.69
             2002.17,494.69 1993.00,489.37 1993.00,489.37
             1993.00,489.37 1983.00,485.55 1983.00,485.55
             1983.00,485.55 1976.00,482.20 1976.00,482.20
             1971.36,480.12 1963.79,477.24 1960.00,474.00
             1952.79,474.22 1946.46,469.11 1940.00,466.36
             1940.00,466.36 1921.00,460.30 1921.00,460.30
             1914.97,457.99 1914.44,456.32 1910.91,454.86
             1910.91,454.86 1879.00,444.46 1879.00,444.46
             1872.38,443.29 1866.31,444.74 1858.00,442.55
             1858.00,442.55 1832.00,431.74 1832.00,431.74
             1824.26,429.26 1805.19,424.94 1800.00,420.00
             1795.71,420.11 1782.09,416.69 1778.00,415.11
             1778.00,415.11 1771.00,412.05 1771.00,412.05
             1771.00,412.05 1732.00,403.46 1732.00,403.46
             1732.00,403.46 1701.00,400.91 1701.00,400.91
             1701.00,400.91 1679.00,399.01 1679.00,399.01
             1679.00,399.01 1651.00,402.09 1651.00,402.09
             1651.00,402.09 1639.00,401.00 1639.00,401.00
             1624.43,400.83 1601.02,403.72 1587.00,407.49
             1587.00,407.49 1571.09,412.37 1571.09,412.37
             1571.09,412.37 1563.96,415.59 1563.96,415.59
             1563.96,415.59 1544.00,420.22 1544.00,420.22
             1544.00,420.22 1533.00,424.91 1533.00,424.91
             1533.00,424.91 1522.17,428.54 1522.17,428.54
             1522.17,428.54 1516.91,431.97 1516.91,431.97
             1516.91,431.97 1506.17,437.31 1506.17,437.31
             1506.17,437.31 1486.01,450.75 1486.01,450.75
             1486.01,450.75 1468.93,463.52 1468.93,463.52
             1463.17,466.37 1457.34,469.21 1451.00,470.55
             1442.32,472.38 1441.08,471.46 1434.00,472.17
             1428.90,472.68 1409.66,477.88 1405.09,480.04
             1400.56,482.18 1396.80,486.51 1392.00,489.54
             1392.00,489.54 1365.00,508.71 1365.00,508.71
             1365.00,508.71 1355.09,515.21 1355.09,515.21
             1355.09,515.21 1340.91,526.98 1340.91,526.98
             1340.91,526.98 1325.00,538.05 1325.00,538.05
             1325.00,538.05 1317.96,544.09 1317.96,544.09
             1317.96,544.09 1311.00,548.45 1311.00,548.45
             1311.00,548.45 1268.00,583.17 1268.00,583.17
             1268.00,583.17 1255.72,594.72 1255.72,594.72
             1255.72,594.72 1249.09,600.18 1249.09,600.18
             1242.16,606.74 1234.76,615.24 1228.80,622.71
             1228.80,622.71 1225.20,627.67 1225.20,627.67
             1225.20,627.67 1219.96,633.10 1219.96,633.10
             1219.96,633.10 1215.32,641.00 1215.32,641.00
             1215.32,641.00 1205.19,657.28 1205.19,657.28
             1205.19,657.28 1199.14,669.83 1199.14,669.83
             1199.14,669.83 1195.95,675.09 1195.95,675.09
             1195.95,675.09 1190.83,687.00 1190.83,687.00
             1190.83,687.00 1184.59,698.17 1184.59,698.17
             1184.59,698.17 1169.04,737.00 1169.04,737.00
             1169.04,737.00 1160.63,768.00 1160.63,768.00
             1160.63,768.00 1157.34,788.00 1157.34,788.00
             1157.34,788.00 1153.09,807.00 1153.09,807.00
             1153.09,807.00 1151.49,818.00 1151.49,818.00
             1151.49,818.00 1148.04,831.00 1148.04,831.00
             1148.04,831.00 1148.04,840.96 1148.04,840.96
             1147.52,843.88 1145.86,846.79 1145.17,854.00
             1145.17,854.00 1144.16,887.28 1144.16,887.28
             1144.16,887.28 1145.11,897.83 1145.11,897.83
             1145.11,897.83 1146.10,925.00 1146.10,925.00
             1146.10,925.00 1147.96,935.00 1147.96,935.00
             1148.32,941.79 1145.67,962.40 1143.73,968.96
             1141.84,975.36 1130.32,981.30 1125.99,987.28
             1125.99,987.28 1119.13,997.91 1119.13,997.91
             1119.13,997.91 1101.02,1020.42 1101.02,1020.42
             1101.02,1020.42 1097.88,1025.96 1097.88,1025.96
             1088.63,1040.41 1079.28,1055.27 1078.36,1073.00
             1078.24,1075.37 1079.16,1085.74 1079.76,1088.00
             1085.75,1110.62 1115.54,1115.34 1135.00,1119.00 Z
           M 2178.00,1611.00
           C 2178.00,1611.00 2178.00,1612.00 2178.00,1612.00
             2178.00,1612.00 2177.00,1611.00 2177.00,1611.00
             2177.00,1611.00 2178.00,1611.00 2178.00,1611.00 Z" />
  <path id="profile"
        fill="none" stroke="black" stroke-width="1"
        d="M 1135.00,1119.00
           C 1131.69,1123.64 1132.94,1132.36 1133.00,1138.00
             1133.00,1138.00 1134.00,1166.00 1134.00,1166.00
             1134.15,1178.12 1141.17,1196.20 1141.51,1199.96
             1141.51,1199.96 1141.00,1208.00 1141.00,1208.00
             1141.00,1208.00 1144.06,1208.00 1144.06,1208.00
             1144.13,1210.22 1144.46,1212.82 1144.06,1215.00
             1143.32,1220.41 1138.31,1232.63 1134.51,1236.68
             1130.90,1240.51 1125.81,1240.75 1124.19,1244.21
             1122.81,1247.18 1125.30,1250.29 1124.91,1257.00
             1124.49,1264.14 1122.25,1266.90 1121.39,1271.00
             1121.39,1271.00 1120.18,1287.00 1120.18,1287.00
             1120.18,1287.00 1123.83,1314.00 1123.83,1314.00
             1123.83,1314.00 1127.02,1338.00 1127.02,1338.00
             1127.02,1338.00 1127.02,1350.00 1127.02,1350.00
             1127.02,1350.00 1128.95,1357.96 1128.95,1357.96
             1128.95,1357.96 1130.26,1373.00 1130.26,1373.00
             1130.26,1373.00 1131.87,1380.00 1131.87,1380.00
             1132.27,1383.47 1131.76,1384.90 1132.68,1389.00
             1134.14,1395.51 1136.58,1399.78 1136.00,1407.00
             1139.84,1411.11 1139.93,1417.55 1140.09,1423.00
             1140.09,1423.00 1140.09,1435.00 1140.09,1435.00
             1140.09,1435.00 1141.39,1442.00 1141.39,1442.00
             1141.83,1445.90 1140.57,1452.03 1140.00,1456.00
             1143.83,1458.56 1143.10,1461.68 1142.99,1466.00
             1142.73,1476.04 1137.39,1479.64 1137.88,1487.00
             1138.21,1492.12 1141.95,1494.70 1143.79,1498.17
             1145.62,1502.47 1145.08,1507.55 1143.79,1512.00
             1143.79,1512.00 1147.73,1523.76 1147.73,1523.76
             1147.73,1523.76 1151.87,1529.11 1151.87,1529.11
             1151.87,1529.11 1155.67,1537.46 1155.67,1537.46
             1155.67,1537.46 1161.00,1544.00 1161.00,1544.00
             1161.20,1546.42 1162.10,1555.13 1162.85,1556.96
             1162.85,1556.96 1174.11,1574.00 1174.11,1574.00
             1175.32,1576.55 1175.52,1579.38 1177.08,1581.79
             1177.08,1581.79 1188.96,1596.09 1188.96,1596.09
             1188.96,1596.09 1193.19,1603.73 1193.19,1603.73
             1194.98,1606.17 1196.63,1606.47 1198.36,1608.41
             1200.08,1610.35 1200.36,1611.98 1201.52,1613.73
             1201.52,1613.73 1209.27,1622.73 1209.27,1622.73
             1209.27,1622.73 1215.58,1627.24 1215.58,1627.24
             1227.48,1636.27 1237.75,1640.82 1253.00,1641.00
             1253.00,1641.00 1270.00,1642.00 1270.00,1642.00
             1274.27,1642.05 1281.41,1641.29 1284.91,1643.74
             1288.59,1646.31 1290.67,1654.71 1292.22,1659.00
             1292.22,1659.00 1305.33,1698.00 1305.33,1698.00
             1305.33,1698.00 1313.54,1723.00 1313.54,1723.00
             1313.54,1723.00 1331.87,1765.00 1331.87,1765.00
             1335.78,1772.69 1341.60,1778.94 1342.69,1781.01
             1344.34,1784.19 1343.64,1786.36 1345.02,1788.68
             1346.52,1791.20 1348.95,1791.78 1350.42,1795.08
             1350.42,1795.08 1355.17,1812.00 1355.17,1812.00
             1357.98,1820.81 1360.26,1826.44 1360.91,1836.00
             1360.91,1836.00 1360.00,1856.00 1360.00,1856.00
             1359.99,1861.74 1360.38,1866.34 1359.00,1872.00
             1359.00,1872.00 1360.67,1875.11 1360.67,1875.11
             1360.67,1875.11 1359.71,1892.89 1359.71,1892.89
             1359.71,1892.89 1358.00,1896.00 1358.00,1896.00
             1360.39,1903.92 1360.48,1915.65 1359.91,1924.00
             1359.91,1924.00 1359.09,1932.00 1359.09,1932.00
             1359.28,1939.58 1364.69,1943.07 1365.44,1950.00
             1365.44,1950.00 1361.57,1975.00 1361.57,1975.00
             1361.57,1975.00 1362.76,1985.28 1362.76,1985.28
             1362.76,1985.28 1362.76,1991.00 1362.76,1991.00
             1363.30,1997.32 1366.55,1994.93 1364.00,2005.00
             1364.00,2005.00 1369.00,2012.00 1369.00,2012.00
             1366.75,2021.26 1369.01,2030.67 1369.00,2040.00
             1368.98,2047.80 1367.11,2046.85 1367.00,2055.00
             1367.00,2055.00 1368.00,2087.00 1368.00,2087.00
             1368.00,2087.00 1367.07,2099.00 1367.07,2099.00
             1367.07,2099.00 1367.07,2119.00 1367.07,2119.00
             1366.95,2128.74 1365.10,2126.08 1365.00,2136.00
             1365.00,2136.00 1360.00,2132.00 1360.00,2132.00
             1355.45,2136.79 1353.20,2136.30 1348.00,2139.11
             1344.52,2140.99 1343.17,2142.84 1339.00,2144.44
             1333.29,2146.62 1333.26,2145.10 1326.00,2149.29
             1320.36,2152.55 1321.42,2153.12 1317.74,2155.97
             1312.32,2160.19 1302.83,2164.49 1296.00,2163.00
             1294.01,2165.56 1291.87,2168.28 1288.96,2169.84
             1284.48,2172.26 1281.98,2170.20 1280.00,2176.00
             1280.00,2176.00 1255.00,2186.00 1255.00,2186.00
             1247.60,2193.83 1231.25,2200.47 1222.21,2208.00
             1211.26,2217.13 1201.43,2236.85 1185.00,2236.00
             1180.76,2240.67 1179.33,2239.31 1174.00,2242.02
             1167.93,2245.10 1159.68,2252.41 1153.00,2253.00
             1153.00,2253.00 1145.00,2257.63 1145.00,2257.63
             1145.00,2257.63 1133.00,2264.34 1133.00,2264.34
             1133.00,2264.34 1120.00,2267.80 1120.00,2267.80
             1120.00,2267.80 1102.00,2275.23 1102.00,2275.23
             1102.00,2275.23 1089.04,2282.53 1089.04,2282.53
             1089.04,2282.53 1074.00,2288.39 1074.00,2288.39
             1074.00,2288.39 1067.00,2292.32 1067.00,2292.32
             1067.00,2292.32 1056.00,2297.30 1056.00,2297.30
             1056.00,2297.30 1033.00,2312.70 1033.00,2312.70
             1033.00,2312.70 1008.00,2331.00 1008.00,2331.00
             1007.41,2336.73 1003.60,2334.44 998.00,2336.00
             998.00,2336.00 999.00,2338.00 999.00,2338.00
             999.00,2338.00 1000.00,2338.00 1000.00,2338.00
             996.33,2340.30 996.28,2340.22 992.00,2340.00
             990.54,2344.20 986.07,2349.60 981.91,2351.42
             981.91,2351.42 977.17,2352.96 977.17,2352.96
             977.17,2352.96 972.83,2355.61 972.83,2355.61
             972.83,2355.61 962.00,2360.79 962.00,2360.79
             962.00,2360.79 948.00,2369.20 948.00,2369.20
             937.85,2375.22 926.77,2381.96 916.00,2386.70
             916.00,2386.70 903.00,2390.91 903.00,2390.91
             903.00,2390.91 884.00,2399.41 884.00,2399.41
             884.00,2399.41 876.00,2402.33 876.00,2402.33
             876.00,2402.33 829.01,2426.18 829.01,2426.18
             829.01,2426.18 820.91,2431.46 820.91,2431.46
             820.91,2431.46 803.00,2440.68 803.00,2440.68
             803.00,2440.68 796.09,2443.55 796.09,2443.55
             791.13,2446.18 790.38,2449.71 784.00,2450.00
             780.35,2453.86 777.55,2456.98 772.00,2457.00
             765.90,2464.95 753.84,2470.53 745.17,2475.52
             745.17,2475.52 735.91,2482.20 735.91,2482.20
             735.91,2482.20 724.05,2489.55 724.05,2489.55
             720.26,2492.09 720.69,2492.63 718.55,2494.34
             718.55,2494.34 711.04,2498.80 711.04,2498.80
             711.04,2498.80 705.72,2503.60 705.72,2503.60
             705.72,2503.60 696.54,2510.24 696.54,2510.24
             696.54,2510.24 690.41,2512.98 690.41,2512.98
             688.63,2514.24 688.04,2516.06 686.52,2517.42
             686.52,2517.42 680.04,2521.13 680.04,2521.13
             676.38,2523.96 677.02,2525.49 672.00,2528.00
             670.70,2532.54 662.15,2536.61 658.37,2539.73
             658.37,2539.73 648.72,2548.49 648.72,2548.49
             648.72,2548.49 642.26,2553.37 642.26,2553.37
             642.26,2553.37 636.91,2559.14 636.91,2559.14
             632.90,2562.67 625.55,2567.98 623.00,2572.00
             623.00,2572.00 618.00,2572.00 618.00,2572.00
             617.87,2579.90 611.13,2583.25 604.00,2583.00
             602.90,2586.25 601.00,2585.37 598.00,2585.00
             598.00,2585.00 597.17,2587.06 597.17,2587.06
             597.17,2587.06 580.00,2596.00 580.00,2596.00
             580.00,2596.00 576.00,2596.00 576.00,2596.00
             572.65,2599.09 571.41,2598.89 567.00,2599.00
             567.00,2599.00 569.00,2601.00 569.00,2601.00
             569.00,2601.00 560.00,2606.84 560.00,2606.84
             560.00,2606.84 551.00,2609.53 551.00,2609.53
             551.00,2609.53 534.00,2620.00 534.00,2620.00
             534.00,2620.00 534.00,2621.00 534.00,2621.00
             534.00,2621.00 536.00,2623.00 536.00,2623.00
             536.00,2623.00 529.00,2623.00 529.00,2623.00
             526.66,2629.35 526.50,2629.66 520.00,2632.00
             519.32,2635.36 516.61,2636.52 514.19,2638.80
             514.19,2638.80 509.63,2643.41 509.63,2643.41
             509.63,2643.41 499.09,2650.86 499.09,2650.86
             499.09,2650.86 493.83,2655.64 493.83,2655.64
             493.83,2655.64 486.00,2661.29 486.00,2661.29
             486.00,2661.29 473.00,2672.32 473.00,2672.32
             473.00,2672.32 457.28,2682.85 457.28,2682.85
             457.28,2682.85 450.28,2689.48 450.28,2689.48
             450.28,2689.48 442.09,2695.75 442.09,2695.75
             442.09,2695.75 429.00,2706.41 429.00,2706.41
             429.00,2706.41 410.44,2718.50 410.44,2718.50
             397.27,2728.87 385.74,2741.83 375.65,2755.13
             375.65,2755.13 367.06,2769.83 367.06,2769.83
             367.06,2769.83 349.68,2793.97 349.68,2793.97
             349.68,2793.97 345.84,2799.28 345.84,2799.28
             345.84,2799.28 342.69,2807.00 342.69,2807.00
             342.69,2807.00 335.29,2822.68 335.29,2822.68
             335.29,2822.68 331.37,2828.18 331.37,2828.18
             329.91,2830.69 329.58,2832.42 327.59,2834.98
             323.84,2839.80 318.60,2842.32 313.81,2845.77
             313.81,2845.77 300.73,2858.71 300.73,2858.71
             296.35,2864.31 292.25,2877.04 290.42,2884.00
             289.61,2887.05 288.25,2890.19 288.47,2893.42
             288.84,2898.92 293.17,2902.27 293.80,2908.00
             294.41,2913.57 290.84,2919.99 288.56,2925.00
             288.56,2925.00 282.83,2936.00 282.83,2936.00
             281.66,2939.19 281.46,2943.62 277.93,2945.00
             278.05,2946.56 278.18,2947.31 277.93,2948.91
             277.93,2948.91 273.38,2962.00 273.38,2962.00
             273.38,2962.00 270.55,2973.00 270.55,2973.00
             270.55,2973.00 265.65,2990.00 265.65,2990.00
             265.65,2990.00 261.83,3009.00 261.83,3009.00
             261.83,3009.00 259.84,3016.00 259.84,3016.00
             259.84,3016.00 258.47,3023.00 258.47,3023.00
             258.47,3023.00 256.06,3029.00 256.06,3029.00
             256.06,3029.00 256.06,3036.00 256.06,3036.00
             256.06,3036.00 254.30,3044.00 254.30,3044.00
             254.30,3044.00 253.66,3050.00 253.66,3050.00
             253.66,3050.00 249.32,3065.00 249.32,3065.00
             249.32,3065.00 247.79,3080.00 247.79,3080.00
             247.79,3080.00 245.06,3091.00 245.06,3091.00
             245.06,3091.00 245.06,3101.00 245.06,3101.00
             245.06,3101.00 243.29,3110.00 243.29,3110.00
             243.29,3110.00 239.83,3141.00 239.83,3141.00
             239.83,3141.00 234.00,3187.00 234.00,3187.00
             233.78,3206.04 232.27,3201.93 228.33,3219.00
             228.33,3219.00 225.11,3237.00 225.11,3237.00
             225.11,3237.00 222.15,3246.17 222.15,3246.17
             222.15,3246.17 218.00,3271.00 218.00,3271.00
             218.00,3271.00 216.00,3270.00 216.00,3270.00
             215.99,3283.16 213.93,3281.22 211.51,3292.00
             211.51,3292.00 207.55,3310.00 207.55,3310.00
             206.82,3313.02 205.74,3314.62 205.46,3318.00
             204.49,3329.60 205.15,3327.78 202.78,3340.00
             201.86,3344.78 203.61,3345.95 200.00,3350.00
             201.12,3366.93 197.48,3362.74 196.05,3375.00
             195.50,3379.73 195.59,3388.48 193.00,3392.00
             194.76,3402.88 190.62,3407.99 189.29,3417.00
             189.29,3417.00 184.06,3459.96 184.06,3459.96
             184.06,3459.96 182.43,3465.28 182.43,3465.28
             182.43,3465.28 180.39,3480.00 180.39,3480.00
             180.35,3481.55 180.68,3482.55 181.00,3484.00
             176.92,3487.68 182.19,3492.07 178.00,3494.00
             178.00,3494.00 176.79,3515.00 176.79,3515.00
             176.79,3515.00 175.00,3525.00 175.00,3525.00
             175.00,3525.00 174.00,3522.00 174.00,3522.00
             174.00,3522.00 174.00,3528.00 174.00,3528.00
             174.00,3528.00 173.00,3526.00 173.00,3526.00
             171.72,3529.43 170.72,3532.91 173.00,3536.00
             166.81,3540.13 174.83,3543.79 170.00,3546.00
             171.73,3551.48 169.81,3557.48 168.69,3563.00
             168.69,3563.00 167.79,3572.00 167.79,3572.00
             167.79,3572.00 165.62,3581.00 165.62,3581.00
             165.62,3581.00 163.71,3598.00 163.71,3598.00
             163.71,3598.00 159.96,3619.00 159.96,3619.00
             159.96,3619.00 159.96,3629.00 159.96,3629.00
             158.84,3634.43 154.88,3642.73 153.93,3653.00
             153.50,3657.55 153.52,3663.90 152.18,3668.00
             152.18,3668.00 149.25,3676.00 149.25,3676.00
             148.38,3679.39 147.24,3682.48 150.00,3685.00
             150.00,3685.00 145.99,3702.00 145.99,3702.00
             145.99,3702.00 145.99,3711.00 145.99,3711.00
             145.99,3711.00 144.18,3719.00 144.18,3719.00
             144.18,3719.00 142.63,3735.00 142.63,3735.00
             142.63,3735.00 138.32,3756.00 138.32,3756.00
             138.32,3756.00 136.74,3773.04 136.74,3773.04
             136.74,3773.04 134.18,3788.00 134.18,3788.00
             134.18,3788.00 132.21,3796.00 132.21,3796.00
             132.21,3796.00 129.96,3814.00 129.96,3814.00
             129.96,3814.00 129.96,3824.00 129.96,3824.00
             129.96,3824.00 128.29,3833.00 128.29,3833.00
             128.29,3833.00 126.71,3849.00 126.71,3849.00
             126.71,3849.00 124.29,3863.00 124.29,3863.00
             124.29,3863.00 122.82,3882.00 122.82,3882.00
             122.82,3882.00 119.28,3902.00 119.28,3902.00
             119.28,3902.00 117.74,3916.91 117.74,3916.91
             117.74,3916.91 116.04,3923.09 116.04,3923.09
             116.04,3923.09 116.04,3931.00 116.04,3931.00
             116.04,3931.00 114.96,3939.00 114.96,3939.00
             114.96,3939.00 114.96,3948.00 114.96,3948.00
             114.96,3948.00 111.54,3969.00 111.54,3969.00
             111.54,3969.00 110.83,3980.00 110.83,3980.00
             110.83,3980.00 107.93,4003.17 107.93,4003.17
             107.93,4003.17 106.30,4011.00 106.30,4011.00
             106.30,4011.00 105.70,4018.00 105.70,4018.00
             105.70,4018.00 103.28,4031.00 103.28,4031.00
             103.28,4031.00 100.32,4041.00 100.32,4041.00
             100.32,4041.00 96.57,4074.00 96.57,4074.00
             95.21,4083.42 93.14,4084.34 92.19,4090.00
             92.19,4090.00 90.87,4107.00 90.87,4107.00
             90.87,4107.00 89.02,4115.00 89.02,4115.00
             89.02,4115.00 89.02,4124.00 89.02,4124.00
             89.02,4124.00 87.74,4133.00 87.74,4133.00
             87.74,4133.00 87.74,4141.00 87.74,4141.00
             87.74,4141.00 86.76,4152.00 86.76,4152.00
             86.76,4152.00 86.76,4164.00 86.76,4164.00
             86.76,4164.00 90.63,4202.00 90.63,4202.00
             90.81,4205.67 89.06,4214.92 88.42,4219.00
             88.42,4219.00 83.42,4251.00 83.42,4251.00
             83.42,4251.00 78.36,4280.00 78.36,4280.00
             78.36,4280.00 73.03,4289.00 73.03,4289.00
             73.03,4289.00 68.14,4299.72 68.14,4299.72
             68.14,4299.72 61.03,4312.00 61.03,4312.00
             61.03,4312.00 57.45,4319.96 57.45,4319.96
             57.45,4319.96 53.40,4326.17 53.40,4326.17
             49.81,4332.50 48.17,4338.83 47.99,4346.00
             47.77,4354.46 45.94,4359.58 51.53,4367.53
             57.13,4375.50 69.38,4379.24 76.91,4384.59
             76.91,4384.59 96.17,4400.02 96.17,4400.02
             103.34,4405.13 104.57,4404.43 108.87,4407.25
             108.87,4407.25 114.26,4411.23 114.26,4411.23
             123.48,4416.21 126.42,4415.65 135.00,4418.47
             135.00,4418.47 143.00,4421.63 143.00,4421.63
             143.00,4421.63 154.00,4424.37 154.00,4424.37
             154.00,4424.37 182.00,4435.20 182.00,4435.20
             189.11,4438.31 189.58,4439.30 198.00,4441.41
             198.00,4441.41 213.00,4444.23 213.00,4444.23
             213.00,4444.23 226.17,4447.76 226.17,4447.76
             226.17,4447.76 233.00,4448.52 233.00,4448.52
             233.00,4448.52 248.00,4452.34 248.00,4452.34
             256.06,4454.00 271.80,4455.91 280.00,4456.00
             280.00,4456.00 305.68,4458.52 305.68,4458.52
             305.68,4458.52 323.00,4459.09 323.00,4459.09
             323.00,4459.09 340.00,4461.79 340.00,4461.79
             340.00,4461.79 359.00,4463.00 359.00,4463.00
             359.00,4463.00 368.00,4463.00 368.00,4463.00
             368.00,4463.00 386.96,4461.48 386.96,4461.48
             388.40,4461.72 389.31,4462.20 390.27,4463.32
             392.29,4465.69 393.89,4476.42 394.60,4480.00
             394.60,4480.00 402.42,4521.00 402.42,4521.00
             402.42,4521.00 432.00,4663.00 432.00,4663.00
             432.00,4663.00 2829.00,4663.00 2829.00,4663.00
             2829.00,4663.00 2834.72,4620.00 2834.72,4620.00
             2834.72,4620.00 2845.13,4545.00 2845.13,4545.00
             2845.13,4545.00 2848.58,4521.00 2848.58,4521.00
             2848.58,4521.00 2850.93,4511.43 2850.93,4511.43
             2850.93,4511.43 2858.00,4508.00 2858.00,4508.00
             2858.00,4508.00 2871.52,4546.00 2871.52,4546.00
             2871.52,4546.00 2876.13,4576.00 2876.13,4576.00
             2876.13,4576.00 2880.68,4608.00 2880.68,4608.00
             2880.68,4608.00 2878.15,4631.00 2878.15,4631.00
             2878.15,4631.00 2874.00,4663.00 2874.00,4663.00
             2874.00,4663.00 3305.00,4663.00 3305.00,4663.00
             3305.00,4663.00 3306.00,4644.00 3306.00,4644.00
             3306.00,4644.00 3307.00,4631.00 3307.00,4631.00
             3307.00,4631.00 3308.00,4601.00 3308.00,4601.00
             3308.00,4601.00 3309.00,4585.00 3309.00,4585.00
             3309.00,4585.00 3309.00,4540.00 3309.00,4540.00
             3309.00,4540.00 3305.00,4501.00 3305.00,4501.00
             3305.00,4501.00 3353.00,4493.08 3353.00,4493.08
             3353.00,4493.08 3384.00,4487.56 3384.00,4487.56
             3384.00,4487.56 3431.00,4469.00 3431.00,4469.00
             3431.00,4469.00 3431.00,3320.00 3431.00,3320.00
             3430.99,3311.93 3427.47,3304.69 3425.18,3297.00
             3423.22,3290.43 3424.59,3289.20 3423.53,3284.04
             3423.53,3284.04 3419.50,3273.00 3419.50,3273.00
             3419.50,3273.00 3409.93,3234.17 3409.93,3234.17
             3409.93,3234.17 3403.45,3216.00 3403.45,3216.00
             3403.45,3216.00 3402.32,3209.00 3402.32,3209.00
             3402.32,3209.00 3393.95,3177.91 3393.95,3177.91
             3393.95,3177.91 3391.23,3166.00 3391.23,3166.00
             3391.23,3166.00 3388.54,3159.00 3388.54,3159.00
             3388.54,3159.00 3381.10,3136.72 3381.10,3136.72
             3379.56,3132.40 3376.03,3123.11 3376.00,3119.00
             3376.00,3119.00 3367.61,3099.96 3367.61,3099.96
             3367.61,3099.96 3364.35,3089.00 3364.35,3089.00
             3364.35,3089.00 3361.13,3082.00 3361.13,3082.00
             3361.13,3082.00 3358.91,3075.00 3358.91,3075.00
             3358.91,3075.00 3354.65,3065.00 3354.65,3065.00
             3354.65,3065.00 3352.67,3058.00 3352.67,3058.00
             3352.67,3058.00 3349.63,3051.00 3349.63,3051.00
             3349.63,3051.00 3341.77,3032.00 3341.77,3032.00
             3340.06,3028.19 3339.99,3025.55 3336.00,3024.00
             3334.46,3012.22 3317.80,2992.10 3317.00,2983.00
             3317.00,2983.00 3302.49,2962.55 3302.49,2962.55
             3302.49,2962.55 3297.50,2958.45 3297.50,2958.45
             3297.50,2958.45 3293.72,2953.09 3293.72,2953.09
             3293.72,2953.09 3286.64,2944.91 3286.64,2944.91
             3286.64,2944.91 3283.39,2932.04 3283.39,2932.04
             3283.39,2932.04 3277.54,2922.00 3277.54,2922.00
             3277.54,2922.00 3267.55,2904.59 3267.55,2904.59
             3267.55,2904.59 3255.58,2891.87 3255.58,2891.87
             3255.58,2891.87 3245.28,2885.69 3245.28,2885.69
             3245.28,2885.69 3231.90,2872.44 3231.90,2872.44
             3231.90,2872.44 3223.10,2864.92 3223.10,2864.92
             3223.10,2864.92 3215.22,2853.59 3215.22,2853.59
             3215.22,2853.59 3208.90,2847.57 3208.90,2847.57
             3208.90,2847.57 3192.53,2828.09 3192.53,2828.09
             3192.53,2828.09 3186.32,2821.92 3186.32,2821.92
             3186.32,2821.92 3179.54,2813.83 3179.54,2813.83
             3179.54,2813.83 3166.19,2799.54 3166.19,2799.54
             3166.19,2799.54 3157.99,2788.21 3157.99,2788.21
             3157.99,2788.21 3152.42,2782.79 3152.42,2782.79
             3152.42,2782.79 3139.09,2767.58 3139.09,2767.58
             3139.09,2767.58 3118.53,2742.00 3118.53,2742.00
             3118.53,2742.00 3107.00,2728.00 3107.00,2728.00
             3107.00,2728.00 3105.00,2729.00 3105.00,2729.00
             3101.92,2719.67 3091.21,2709.51 3084.05,2702.75
             3084.05,2702.75 3074.83,2693.61 3074.83,2693.61
             3074.83,2693.61 3050.83,2674.95 3050.83,2674.95
             3046.58,2672.00 3045.07,2672.66 3042.17,2671.06
             3042.17,2671.06 3029.01,2661.77 3029.01,2661.77
             3029.01,2661.77 3016.42,2651.51 3016.42,2651.51
             3016.42,2651.51 3009.09,2647.37 3009.09,2647.37
             3009.09,2647.37 3001.96,2641.21 3001.96,2641.21
             3001.96,2641.21 2995.17,2636.92 2995.17,2636.92
             2995.17,2636.92 2980.99,2626.52 2980.99,2626.52
             2980.99,2626.52 2968.09,2617.96 2968.09,2617.96
             2968.09,2617.96 2957.21,2609.47 2957.21,2609.47
             2957.21,2609.47 2951.79,2603.73 2951.79,2603.73
             2951.79,2603.73 2937.00,2595.80 2937.00,2595.80
             2937.00,2595.80 2918.72,2584.13 2918.72,2584.13
             2918.72,2584.13 2907.00,2577.44 2907.00,2577.44
             2907.00,2577.44 2899.00,2573.44 2899.00,2573.44
             2893.20,2569.77 2891.58,2566.70 2886.96,2562.97
             2886.96,2562.97 2880.59,2558.55 2880.59,2558.55
             2880.59,2558.55 2855.50,2536.93 2855.50,2536.93
             2855.50,2536.93 2838.83,2523.10 2838.83,2523.10
             2838.83,2523.10 2831.00,2518.25 2831.00,2518.25
             2831.00,2518.25 2819.00,2509.32 2819.00,2509.32
             2819.00,2509.32 2812.00,2505.41 2812.00,2505.41
             2812.00,2505.41 2795.07,2493.89 2795.07,2493.89
             2795.07,2493.89 2787.70,2487.90 2787.70,2487.90
             2787.70,2487.90 2781.04,2484.32 2781.04,2484.32
             2775.68,2480.75 2776.34,2479.25 2769.00,2480.00
             2768.15,2478.59 2767.88,2477.83 2766.59,2476.64
             2766.59,2476.64 2752.91,2468.10 2752.91,2468.10
             2752.91,2468.10 2744.05,2464.23 2744.05,2464.23
             2744.05,2464.23 2738.59,2460.18 2738.59,2460.18
             2736.16,2458.79 2734.66,2459.72 2731.92,2458.12
             2731.92,2458.12 2724.96,2452.88 2724.96,2452.88
             2724.96,2452.88 2704.00,2442.74 2704.00,2442.74
             2704.00,2442.74 2696.00,2438.00 2696.00,2438.00
             2696.00,2438.00 2682.00,2432.74 2682.00,2432.74
             2682.00,2432.74 2655.58,2416.67 2655.58,2416.67
             2655.58,2416.67 2642.16,2409.19 2642.16,2409.19
             2642.16,2409.19 2635.96,2403.89 2635.96,2403.89
             2635.96,2403.89 2610.37,2391.16 2610.37,2391.16
             2607.90,2389.26 2606.96,2386.41 2601.28,2381.79
             2601.28,2381.79 2593.17,2376.52 2593.17,2376.52
             2593.17,2376.52 2587.91,2371.86 2587.91,2371.86
             2587.91,2371.86 2566.00,2355.66 2566.00,2355.66
             2566.00,2355.66 2556.59,2347.84 2556.59,2347.84
             2556.59,2347.84 2545.17,2339.52 2545.17,2339.52
             2545.17,2339.52 2535.83,2330.71 2535.83,2330.71
             2535.83,2330.71 2521.10,2321.36 2521.10,2321.36
             2518.31,2319.20 2517.50,2316.94 2514.79,2315.43
             2514.79,2315.43 2509.28,2313.27 2509.28,2313.27
             2502.55,2309.97 2484.34,2298.21 2481.00,2292.00
             2475.94,2293.17 2473.28,2288.92 2469.01,2286.40
             2469.01,2286.40 2455.00,2276.68 2455.00,2276.68
             2455.00,2276.68 2445.00,2271.54 2445.00,2271.54
             2445.00,2271.54 2437.01,2266.51 2437.01,2266.51
             2437.01,2266.51 2397.96,2246.52 2397.96,2246.52
             2397.96,2246.52 2388.00,2242.63 2388.00,2242.63
             2388.00,2242.63 2375.99,2236.41 2375.99,2236.41
             2375.99,2236.41 2358.00,2228.82 2358.00,2228.82
             2349.58,2224.15 2342.60,2217.65 2334.89,2212.03
             2334.89,2212.03 2315.00,2200.14 2315.00,2200.14
             2315.00,2200.14 2306.00,2193.61 2306.00,2193.61
             2306.00,2193.61 2289.84,2186.22 2289.84,2186.22
             2289.84,2186.22 2281.83,2181.60 2281.83,2181.60
             2281.83,2181.60 2274.17,2179.50 2274.17,2179.50
             2274.17,2179.50 2268.91,2177.09 2268.91,2177.09
             2264.73,2175.53 2256.74,2175.11 2256.00,2170.00
             2247.33,2170.26 2233.05,2163.62 2224.00,2161.18
             2224.00,2161.18 2210.17,2159.54 2210.17,2159.54
             2210.17,2159.54 2199.00,2155.22 2199.00,2155.22
             2199.00,2155.22 2187.00,2152.58 2187.00,2152.58
             2187.00,2152.58 2177.00,2149.75 2177.00,2149.75
             2169.85,2147.87 2164.28,2149.31 2158.00,2145.24
             2148.96,2139.37 2151.06,2135.55 2150.78,2126.00
             2150.78,2126.00 2150.78,2109.00 2150.78,2109.00
             2150.78,2109.00 2144.34,2080.00 2144.34,2080.00
             2144.34,2080.00 2144.34,2070.00 2144.34,2070.00
             2144.34,2070.00 2142.54,2054.72 2142.54,2054.72
             2142.54,2054.72 2141.04,2048.17 2141.04,2048.17
             2141.04,2048.17 2139.34,2038.00 2139.34,2038.00
             2139.34,2038.00 2137.21,2030.00 2137.21,2030.00
             2136.44,2024.51 2137.77,2023.27 2136.00,2016.00
             2136.00,2016.00 2138.00,2016.00 2138.00,2016.00
             2138.00,2016.00 2136.21,2004.00 2136.21,2004.00
             2136.21,2004.00 2136.21,1997.01 2136.21,1997.01
             2135.11,1988.33 2132.94,1993.36 2133.18,1978.00
             2133.18,1978.00 2133.18,1952.00 2133.18,1952.00
             2133.18,1952.00 2129.63,1931.00 2129.63,1931.00
             2129.63,1931.00 2128.41,1912.00 2128.41,1912.00
             2128.27,1908.87 2128.39,1906.14 2126.00,1904.00
             2127.78,1896.29 2126.60,1891.45 2126.00,1884.00
             2126.00,1884.00 2126.00,1875.00 2126.00,1875.00
             2126.00,1875.00 2124.00,1855.00 2124.00,1855.00
             2124.00,1855.00 2124.00,1845.00 2124.00,1845.00
             2124.00,1845.00 2123.04,1829.00 2123.04,1829.00
             2123.04,1829.00 2123.04,1812.00 2123.04,1812.00
             2123.04,1812.00 2124.05,1804.01 2124.05,1804.01
             2124.05,1804.01 2124.05,1779.00 2124.05,1779.00
             2124.05,1779.00 2126.00,1769.00 2126.00,1769.00
             2126.00,1769.00 2122.00,1770.00 2122.00,1770.00
             2124.26,1765.71 2123.25,1766.71 2124.53,1763.15
             2124.53,1763.15 2126.43,1758.83 2126.43,1758.83
             2127.36,1755.66 2126.05,1753.17 2128.54,1746.00
             2131.21,1738.33 2135.93,1734.55 2135.00,1726.00
             2138.67,1724.81 2139.34,1717.48 2140.00,1714.00
             2140.00,1714.00 2141.00,1716.00 2141.00,1716.00
             2143.47,1711.15 2142.88,1706.22 2145.09,1700.00
             2153.58,1676.10 2154.59,1671.39 2160.12,1647.00
             2161.38,1641.44 2163.39,1625.79 2169.00,1624.00
             2169.00,1624.00 2172.00,1618.00 2172.00,1618.00
             2172.00,1618.00 2169.00,1619.00 2169.00,1619.00
             2171.31,1617.01 2172.31,1616.93 2174.72,1615.45
             2189.40,1606.38 2191.21,1608.85 2207.00,1606.72
             2210.83,1606.20 2218.46,1604.78 2222.00,1603.60
             2222.00,1603.60 2229.00,1600.79 2229.00,1600.79
             2232.09,1599.84 2233.65,1600.08 2237.00,1598.59
             2237.00,1598.59 2253.76,1589.53 2253.76,1589.53
             2253.76,1589.53 2259.11,1584.86 2259.11,1584.86
             2263.05,1582.03 2266.34,1579.93 2269.72,1576.25
             2272.61,1573.11 2272.05,1571.74 2273.83,1569.49
             2273.83,1569.49 2277.30,1566.32 2277.30,1566.32
             2277.30,1566.32 2281.33,1561.00 2281.33,1561.00
             2281.33,1561.00 2295.10,1544.99 2295.10,1544.99
             2295.10,1544.99 2298.89,1538.17 2298.89,1538.17
             2298.89,1538.17 2301.89,1534.00 2301.89,1534.00
             2304.04,1530.30 2303.78,1525.69 2304.89,1523.13
             2306.19,1520.14 2308.14,1520.01 2309.53,1517.59
             2309.53,1517.59 2313.80,1506.00 2313.80,1506.00
             2316.70,1499.91 2320.71,1498.29 2323.60,1492.83
             2325.40,1489.43 2327.29,1481.04 2328.39,1477.00
             2330.71,1468.48 2332.97,1465.33 2333.00,1456.00
             2333.00,1456.00 2335.00,1457.00 2335.00,1457.00
             2335.00,1457.00 2337.29,1440.00 2337.29,1440.00
             2337.29,1440.00 2337.29,1428.00 2337.29,1428.00
             2337.29,1428.00 2338.83,1420.04 2338.83,1420.04
             2338.83,1420.04 2337.00,1408.00 2337.00,1408.00
             2337.00,1408.00 2340.94,1408.00 2340.94,1408.00
             2340.94,1408.00 2340.94,1395.09 2340.94,1395.09
             2340.94,1395.09 2339.30,1386.00 2339.30,1386.00
             2339.30,1386.00 2340.04,1377.00 2340.04,1377.00
             2340.04,1377.00 2340.04,1362.00 2340.04,1362.00
             2340.04,1362.00 2340.95,1352.00 2340.95,1352.00
             2340.95,1352.00 2340.95,1339.00 2340.95,1339.00
             2340.95,1339.00 2340.30,1333.00 2340.30,1333.00
             2340.30,1333.00 2341.93,1325.00 2341.93,1325.00
             2341.93,1325.00 2341.93,1302.00 2341.93,1302.00
             2341.93,1302.00 2343.00,1289.00 2343.00,1289.00
             2343.00,1289.00 2341.13,1275.00 2341.13,1275.00
             2341.13,1275.00 2339.56,1260.00 2339.56,1260.00
             2339.56,1260.00 2336.21,1244.00 2336.21,1244.00
             2336.21,1244.00 2335.66,1236.00 2335.66,1236.00
             2335.66,1236.00 2331.00,1216.00 2331.00,1216.00
             2331.00,1216.00 2322.13,1202.43 2322.13,1202.43
             2322.13,1202.43 2315.33,1198.28 2315.33,1198.28
             2315.33,1198.28 2311.10,1193.47 2311.10,1193.47
             2311.10,1193.47 2301.83,1187.82 2301.83,1187.82
             2301.83,1187.82 2294.00,1189.00 2294.00,1189.00
             2294.00,1189.00 2295.09,1179.00 2295.09,1179.00
             2295.09,1179.00 2295.75,1166.00 2295.75,1166.00
             2295.75,1166.00 2295.75,1135.58 2295.75,1135.58
             2295.75,1135.58 2294.09,1129.00 2294.09,1129.00
             2294.09,1129.00 2292.00,1106.00 2292.00,1106.00
             2292.00,1106.00 2290.83,1077.00 2290.83,1077.00
             2290.83,1077.00 2289.15,1069.00 2289.15,1069.00
             2289.15,1069.00 2289.15,1056.00 2289.15,1056.00
             2289.15,1056.00 2288.00,1039.00 2288.00,1039.00
             2288.00,1039.00 2287.18,1014.00 2287.18,1014.00
             2287.18,1014.00 2287.90,1003.00 2287.90,1003.00
             2287.90,1003.00 2286.00,993.00 2286.00,993.00
             2286.00,993.00 2286.00,985.00 2286.00,985.00
             2286.00,985.00 2281.32,957.00 2281.32,957.00
             2281.32,957.00 2270.50,926.00 2270.50,926.00
             2270.50,926.00 2265.03,914.00 2265.03,914.00
             2265.03,914.00 2262.57,906.00 2262.57,906.00
             2262.57,906.00 2248.12,862.00 2248.12,862.00
             2248.12,862.00 2242.77,844.77 2242.77,844.77
             2242.77,844.77 2241.00,844.00 2241.00,844.00
             2241.00,844.00 2236.67,828.00 2236.67,828.00
             2236.67,828.00 2233.44,816.42 2233.44,816.42
             2233.44,816.42 2226.54,805.00 2226.54,805.00
             2226.54,805.00 2219.60,787.00 2219.60,787.00
             2219.60,787.00 2217.19,778.17 2217.19,778.17
             2217.19,778.17 2211.31,768.00 2211.31,768.00
             2211.31,768.00 2207.77,759.00 2207.77,759.00
             2207.77,759.00 2190.72,723.00 2190.72,723.00
             2190.72,723.00 2185.51,709.00 2185.51,709.00
             2185.51,709.00 2169.51,685.83 2169.51,685.83
             2169.51,685.83 2167.61,680.00 2167.61,680.00
             2167.61,680.00 2160.82,665.00 2160.82,665.00
             2160.82,665.00 2153.97,647.00 2153.97,647.00
             2153.97,647.00 2147.92,636.91 2147.92,636.91
             2147.92,636.91 2143.78,626.17 2143.78,626.17
             2143.78,626.17 2135.51,612.00 2135.51,612.00
             2135.51,612.00 2131.82,604.28 2131.82,604.28
             2131.82,604.28 2128.07,598.96 2128.07,598.96
             2128.07,598.96 2125.20,593.28 2125.20,593.28
             2125.20,593.28 2116.44,583.00 2116.44,583.00
             2116.44,583.00 2104.05,564.99 2104.05,564.99
             2104.05,564.99 2104.05,560.00 2104.05,560.00
             2095.71,560.10 2097.49,557.15 2090.98,551.44
             2090.98,551.44 2074.72,538.04 2074.72,538.04
             2074.72,538.04 2067.00,533.15 2067.00,533.15
             2067.00,533.15 2056.17,527.20 2056.17,527.20
             2056.17,527.20 2049.96,522.10 2049.96,522.10
             2049.96,522.10 2011.96,498.59 2011.96,498.59
             2011.96,498.59 2002.17,494.69 2002.17,494.69
             2002.17,494.69 1993.00,489.37 1993.00,489.37
             1993.00,489.37 1983.00,485.55 1983.00,485.55
             1983.00,485.55 1976.00,482.20 1976.00,482.20
             1971.36,480.12 1963.79,477.24 1960.00,474.00
             1952.79,474.22 1946.46,469.11 1940.00,466.36
             1940.00,466.36 1921.00,460.30 1921.00,460.30
             1914.97,457.99 1914.44,456.32 1910.91,454.86
             1910.91,454.86 1879.00,444.46 1879.00,444.46
             1872.38,443.29 1866.31,444.74 1858.00,442.55
             1858.00,442.55 1832.00,431.74 1832.00,431.74
             1824.26,429.26 1805.19,424.94 1800.00,420.00
             1795.71,420.11 1782.09,416.69 1778.00,415.11
             1778.00,415.11 1771.00,412.05 1771.00,412.05
             1771.00,412.05 1732.00,403.46 1732.00,403.46
             1732.00,403.46 1701.00,400.91 1701.00,400.91
             1701.00,400.91 1679.00,399.01 1679.00,399.01
             1679.00,399.01 1651.00,402.09 1651.00,402.09
             1651.00,402.09 1639.00,401.00 1639.00,401.00
             1624.43,400.83 1601.02,403.72 1587.00,407.49
             1587.00,407.49 1571.09,412.37 1571.09,412.37
             1571.09,412.37 1563.96,415.59 1563.96,415.59
             1563.96,415.59 1544.00,420.22 1544.00,420.22
             1544.00,420.22 1533.00,424.91 1533.00,424.91
             1533.00,424.91 1522.17,428.54 1522.17,428.54
             1522.17,428.54 1516.91,431.97 1516.91,431.97
             1516.91,431.97 1506.17,437.31 1506.17,437.31
             1506.17,437.31 1486.01,450.75 1486.01,450.75
             1486.01,450.75 1468.93,463.52 1468.93,463.52
             1463.17,466.37 1457.34,469.21 1451.00,470.55
             1442.32,472.38 1441.08,471.46 1434.00,472.17
             1428.90,472.68 1409.66,477.88 1405.09,480.04
             1400.56,482.18 1396.80,486.51 1392.00,489.54
             1392.00,489.54 1365.00,508.71 1365.00,508.71
             1365.00,508.71 1355.09,515.21 1355.09,515.21
             1355.09,515.21 1340.91,526.98 1340.91,526.98
             1340.91,526.98 1325.00,538.05 1325.00,538.05
             1325.00,538.05 1317.96,544.09 1317.96,544.09
             1317.96,544.09 1311.00,548.45 1311.00,548.45
             1311.00,548.45 1268.00,583.17 1268.00,583.17
             1268.00,583.17 1255.72,594.72 1255.72,594.72
             1255.72,594.72 1249.09,600.18 1249.09,600.18
             1242.16,606.74 1234.76,615.24 1228.80,622.71
             1228.80,622.71 1225.20,627.67 1225.20,627.67
             1225.20,627.67 1219.96,633.10 1219.96,633.10
             1219.96,633.10 1215.32,641.00 1215.32,641.00
             1215.32,641.00 1205.19,657.28 1205.19,657.28
             1205.19,657.28 1199.14,669.83 1199.14,669.83
             1199.14,669.83 1195.95,675.09 1195.95,675.09
             1195.95,675.09 1190.83,687.00 1190.83,687.00
             1190.83,687.00 1184.59,698.17 1184.59,698.17
             1184.59,698.17 1169.04,737.00 1169.04,737.00
             1169.04,737.00 1160.63,768.00 1160.63,768.00
             1160.63,768.00 1157.34,788.00 1157.34,788.00
             1157.34,788.00 1153.09,807.00 1153.09,807.00
             1153.09,807.00 1151.49,818.00 1151.49,818.00
             1151.49,818.00 1148.04,831.00 1148.04,831.00
             1148.04,831.00 1148.04,840.96 1148.04,840.96
             1147.52,843.88 1145.86,846.79 1145.17,854.00
             1145.17,854.00 1144.16,887.28 1144.16,887.28
             1144.16,887.28 1145.11,897.83 1145.11,897.83
             1145.11,897.83 1146.10,925.00 1146.10,925.00
             1146.10,925.00 1147.96,935.00 1147.96,935.00
             1148.32,941.79 1145.67,962.40 1143.73,968.96
             1141.84,975.36 1130.32,981.30 1125.99,987.28
             1125.99,987.28 1119.13,997.91 1119.13,997.91
             1119.13,997.91 1101.02,1020.42 1101.02,1020.42
             1101.02,1020.42 1097.88,1025.96 1097.88,1025.96
             1088.63,1040.41 1079.28,1055.27 1078.36,1073.00
             1078.24,1075.37 1079.16,1085.74 1079.76,1088.00
             1085.75,1110.62 1115.54,1115.34 1135.00,1119.00 Z
           M 2178.00,1611.00
           C 2178.00,1611.00 2178.00,1612.00 2178.00,1612.00
             2178.00,1612.00 2177.00,1611.00 2177.00,1611.00
             2177.00,1611.00 2178.00,1611.00 2178.00,1611.00 Z
           M 530.00,2624.00
           C 530.00,2624.00 530.00,2625.00 530.00,2625.00
             530.00,2625.00 529.00,2624.00 529.00,2624.00
             529.00,2624.00 530.00,2624.00 530.00,2624.00 Z
           M 175.00,3528.00
           C 175.00,3528.00 175.00,3529.00 175.00,3529.00
             175.00,3529.00 174.00,3528.00 174.00,3528.00
             174.00,3528.00 175.00,3528.00 175.00,3528.00 Z
           M 174.00,3529.00
           C 174.00,3529.00 174.00,3534.00 174.00,3534.00
             174.00,3534.00 174.00,3529.00 174.00,3529.00 Z
           M 158.00,3617.00
           C 158.00,3617.00 158.00,3624.00 158.00,3624.00
             158.00,3624.00 158.00,3617.00 158.00,3617.00 Z
           M 141.00,3729.00
           C 141.00,3729.00 141.00,3736.00 141.00,3736.00
             141.00,3736.00 141.00,3729.00 141.00,3729.00 Z" />
</svg>
