<?xml version="1.0" encoding="UTF-8" standalone="no"?>
<!DOCTYPE svg PUBLIC "-//W3C//DTD SVG 20010904//EN"
              "http://www.w3.org/TR/2001/REC-SVG-20010904/DTD/svg10.dtd">

<svg xmlns="http://www.w3.org/2000/svg"
     width="12.31in" height="14.68in"
     viewBox="0 0 3693 4404">
  <path id="face"
        fill="none" stroke="black" stroke-width="1"
        d="M 1567.00,331.79
           C 1564.60,334.03 1562.99,332.95 1560.25,334.73
             1560.25,334.73 1550.68,343.29 1550.68,343.29
             1547.70,345.50 1544.37,345.35 1538.66,350.09
             1528.94,358.18 1532.31,357.19 1528.50,361.79
             1528.50,361.79 1521.97,367.39 1521.97,367.39
             1521.97,367.39 1517.74,371.33 1517.74,371.33
             1517.74,371.33 1511.09,373.87 1511.09,373.87
             1511.09,373.87 1503.96,379.18 1503.96,379.18
             1498.61,382.55 1490.64,385.49 1487.00,391.00
             1477.68,390.10 1475.56,395.83 1470.56,400.62
             1466.93,404.09 1462.15,406.01 1458.17,408.95
             1451.55,413.84 1455.27,414.29 1446.00,417.00
             1446.00,417.00 1447.00,419.00 1447.00,419.00
             1447.00,419.00 1435.00,424.00 1435.00,424.00
             1435.00,424.00 1432.00,430.00 1432.00,430.00
             1422.30,432.20 1421.57,442.08 1410.00,445.00
             1406.87,450.62 1400.21,458.15 1395.45,462.49
             1389.99,467.46 1388.17,466.38 1386.00,475.00
             1384.39,475.02 1383.87,474.75 1382.24,475.54
             1379.14,477.05 1371.68,485.76 1371.00,489.00
             1371.00,489.00 1360.00,496.00 1360.00,496.00
             1358.97,502.16 1356.02,502.03 1352.45,507.02
             1352.45,507.02 1348.22,513.96 1348.22,513.96
             1343.82,520.18 1334.98,529.04 1332.00,536.00
             1332.00,536.00 1329.00,535.00 1329.00,535.00
             1328.17,541.13 1328.08,543.05 1323.00,547.00
             1323.00,547.00 1324.00,550.00 1324.00,550.00
             1324.00,550.00 1318.55,558.80 1318.55,558.80
             1318.55,558.80 1311.74,572.42 1311.74,572.42
             1311.74,572.42 1301.00,588.00 1301.00,588.00
             1301.00,588.00 1302.00,591.00 1302.00,591.00
             1295.53,592.87 1299.09,606.47 1292.00,609.00
             1292.00,609.00 1285.55,626.83 1285.55,626.83
             1285.55,626.83 1282.40,640.00 1282.40,640.00
             1280.54,647.56 1279.07,646.35 1280.00,655.00
             1280.00,655.00 1277.00,655.00 1277.00,655.00
             1275.93,662.44 1274.05,663.82 1273.11,668.00
             1273.11,668.00 1273.11,677.00 1273.11,677.00
             1271.80,682.05 1269.97,685.45 1270.32,691.00
             1270.85,699.47 1269.89,698.54 1269.17,706.00
             1269.17,706.00 1267.92,724.00 1267.92,724.00
             1267.28,731.90 1264.38,744.67 1266.00,752.00
             1263.12,754.59 1264.39,756.52 1263.73,760.00
             1263.73,760.00 1262.08,765.00 1262.08,765.00
             1262.08,765.00 1260.56,772.00 1260.56,772.00
             1260.56,772.00 1257.91,780.00 1257.91,780.00
             1257.91,780.00 1255.69,789.28 1255.69,789.28
             1254.25,793.83 1250.22,803.29 1250.00,807.00
             1250.00,807.00 1243.00,817.00 1243.00,817.00
             1243.00,817.00 1241.00,816.00 1241.00,816.00
             1241.00,816.00 1241.00,819.00 1241.00,819.00
             1234.56,822.10 1235.91,827.17 1233.51,833.00
             1233.51,833.00 1225.00,849.00 1225.00,849.00
             1225.00,849.00 1221.00,849.00 1221.00,849.00
             1221.00,849.00 1221.00,850.00 1221.00,850.00
             1221.00,850.00 1223.00,850.00 1223.00,850.00
             1219.64,853.93 1215.99,863.84 1214.75,869.00
             1214.75,869.00 1213.17,876.00 1213.17,876.00
             1211.79,879.74 1210.58,880.84 1209.15,886.00
             1209.15,886.00 1207.51,893.83 1207.51,893.83
             1207.51,893.83 1205.13,899.09 1205.13,899.09
             1204.10,904.36 1204.94,910.68 1205.13,916.00
             1205.13,916.00 1205.13,927.72 1205.13,927.72
             1204.92,931.10 1203.71,932.70 1204.13,937.00
             1204.13,937.00 1205.55,943.00 1205.55,943.00
             1205.55,943.00 1206.46,951.00 1206.46,951.00
             1206.46,951.00 1218.73,980.00 1218.73,980.00
             1221.73,985.57 1228.57,994.48 1233.09,998.96
             1237.74,1003.57 1240.04,1003.45 1243.18,1010.00
             1245.49,1014.83 1244.75,1017.97 1245.42,1023.00
             1245.42,1023.00 1248.95,1043.00 1248.95,1043.00
             1249.86,1048.38 1246.60,1050.88 1250.00,1054.00
             1250.00,1054.00 1249.00,1060.00 1249.00,1060.00
             1249.00,1060.00 1250.24,1056.00 1250.24,1056.00
             1252.26,1063.95 1249.54,1066.41 1250.24,1070.72
             1251.55,1075.67 1259.49,1087.27 1259.00,1100.00
             1252.22,1098.70 1244.74,1095.58 1238.00,1095.21
             1233.06,1094.94 1228.66,1097.07 1224.00,1098.24
             1220.44,1099.14 1216.15,1098.74 1213.19,1100.45
             1209.09,1102.83 1204.81,1114.43 1205.00,1119.00
             1197.70,1120.97 1200.82,1122.84 1196.00,1128.00
             1196.00,1128.00 1196.00,1134.00 1196.00,1134.00
             1193.29,1136.43 1194.04,1139.48 1193.58,1143.00
             1193.58,1143.00 1191.29,1167.00 1191.29,1167.00
             1189.15,1175.53 1184.01,1206.72 1184.00,1215.00
             1184.00,1215.00 1184.00,1260.00 1184.00,1260.00
             1184.02,1272.41 1185.94,1269.05 1187.59,1276.00
             1187.59,1276.00 1188.48,1284.00 1188.48,1284.00
             1188.48,1284.00 1191.49,1293.00 1191.49,1293.00
             1191.49,1293.00 1194.83,1312.00 1194.83,1312.00
             1194.83,1312.00 1195.42,1322.00 1195.42,1322.00
             1196.02,1326.52 1195.06,1330.36 1199.00,1333.00
             1199.00,1333.00 1197.00,1336.00 1197.00,1336.00
             1201.47,1341.12 1198.89,1350.61 1200.30,1356.91
             1200.30,1356.91 1202.95,1364.04 1202.95,1364.04
             1202.95,1364.04 1205.83,1384.00 1205.83,1384.00
             1205.83,1384.00 1206.62,1393.00 1206.62,1393.00
             1207.23,1396.41 1210.17,1406.95 1211.51,1409.96
             1211.51,1409.96 1214.69,1416.17 1214.69,1416.17
             1216.99,1421.54 1217.34,1424.38 1220.62,1430.00
             1220.62,1430.00 1223.82,1435.58 1223.82,1435.58
             1226.11,1440.79 1225.69,1443.65 1231.00,1447.00
             1231.00,1447.00 1230.00,1449.00 1230.00,1449.00
             1239.52,1454.65 1242.04,1461.81 1244.56,1464.31
             1244.56,1464.31 1263.04,1477.68 1263.04,1477.68
             1267.91,1481.11 1276.14,1482.45 1279.12,1488.04
             1280.81,1491.70 1278.47,1495.94 1279.12,1503.00
             1279.59,1505.64 1280.15,1510.64 1280.91,1513.00
             1283.75,1521.73 1292.83,1530.18 1301.00,1534.00
             1300.34,1541.94 1308.87,1544.51 1315.00,1546.59
             1322.11,1549.01 1327.04,1551.53 1335.00,1551.90
             1335.00,1551.90 1353.83,1550.87 1353.83,1550.87
             1357.71,1551.16 1356.50,1552.05 1361.00,1550.87
             1362.73,1560.18 1363.24,1558.53 1362.00,1568.00
             1366.50,1571.02 1364.53,1573.77 1363.00,1578.00
             1370.24,1582.13 1363.41,1590.03 1369.00,1592.00
             1369.00,1592.00 1368.00,1600.00 1368.00,1600.00
             1375.68,1602.30 1373.22,1605.68 1376.06,1612.00
             1381.85,1624.84 1379.30,1623.38 1381.53,1629.83
             1382.51,1632.66 1385.85,1636.93 1386.70,1641.00
             1387.52,1644.88 1386.39,1647.36 1388.00,1654.00
             1388.00,1654.00 1391.00,1653.00 1391.00,1653.00
             1391.36,1654.88 1391.78,1657.92 1392.98,1659.42
             1394.66,1661.52 1396.89,1660.93 1398.42,1664.14
             1398.42,1664.14 1399.52,1668.00 1399.52,1668.00
             1399.52,1668.00 1404.38,1681.00 1404.38,1681.00
             1404.38,1681.00 1422.29,1708.00 1422.29,1708.00
             1422.29,1708.00 1464.09,1762.00 1464.09,1762.00
             1464.09,1762.00 1487.00,1784.09 1487.00,1784.09
             1487.00,1784.09 1501.00,1797.91 1501.00,1797.91
             1501.00,1797.91 1533.00,1828.00 1533.00,1828.00
             1533.00,1828.00 1573.91,1868.28 1573.91,1868.28
             1573.91,1868.28 1580.09,1874.54 1580.09,1874.54
             1580.09,1874.54 1609.00,1895.88 1609.00,1895.88
             1609.00,1895.88 1649.00,1925.25 1649.00,1925.25
             1649.00,1925.25 1670.00,1938.69 1670.00,1938.69
             1670.00,1938.69 1718.00,1968.82 1718.00,1968.82
             1718.00,1968.82 1752.00,1978.71 1752.00,1978.71
             1752.00,1978.71 1784.00,1987.71 1784.00,1987.71
             1792.88,1990.26 1799.64,1992.99 1809.00,1993.00
             1809.00,1993.00 1832.00,1994.00 1832.00,1994.00
             1832.00,1994.00 1855.00,1994.00 1855.00,1994.00
             1855.00,1994.00 1879.00,1995.00 1879.00,1995.00
             1889.71,1994.98 1907.72,1990.46 1919.00,1988.42
             1919.00,1988.42 1946.91,1982.87 1946.91,1982.87
             1946.91,1982.87 1956.00,1977.31 1956.00,1977.31
             1956.00,1977.31 1973.00,1968.78 1973.00,1968.78
             1973.00,1968.78 2013.00,1949.13 2013.00,1949.13
             2013.00,1949.13 2057.00,1920.33 2057.00,1920.33
             2057.00,1920.33 2087.00,1900.48 2087.00,1900.48
             2087.00,1900.48 2098.00,1890.28 2098.00,1890.28
             2098.00,1890.28 2146.00,1847.14 2146.00,1847.14
             2151.92,1842.21 2152.44,1845.68 2159.00,1841.52
             2159.00,1841.52 2211.00,1804.49 2211.00,1804.49
             2211.00,1804.49 2251.90,1761.00 2251.90,1761.00
             2257.22,1755.09 2266.44,1736.92 2270.86,1729.00
             2270.86,1729.00 2284.73,1704.00 2284.73,1704.00
             2284.73,1704.00 2306.66,1654.00 2306.66,1654.00
             2306.66,1654.00 2319.00,1617.00 2319.00,1617.00
             2321.06,1610.82 2322.18,1603.61 2327.19,1599.00
             2327.19,1599.00 2327.19,1591.82 2327.19,1591.82
             2327.19,1591.82 2330.93,1586.89 2330.93,1586.89
             2330.93,1586.89 2328.00,1579.00 2328.00,1579.00
             2333.39,1577.11 2332.79,1571.12 2329.00,1568.00
             2329.00,1568.00 2330.00,1562.00 2330.00,1562.00
             2330.00,1562.00 2334.00,1561.00 2334.00,1561.00
             2334.00,1561.00 2332.00,1546.00 2332.00,1546.00
             2332.00,1546.00 2334.00,1548.00 2334.00,1548.00
             2334.00,1548.00 2334.00,1549.00 2334.00,1549.00
             2334.00,1549.00 2336.00,1547.00 2336.00,1547.00
             2336.00,1547.00 2338.00,1548.00 2338.00,1548.00
             2335.82,1539.64 2331.98,1540.44 2331.98,1535.96
             2332.00,1540.94 2332.83,1514.53 2331.98,1519.58
             2332.76,1515.04 2335.16,1515.66 2331.98,1508.00
             2331.98,1508.00 2339.00,1502.00 2339.00,1502.00
             2339.00,1502.00 2335.00,1496.00 2335.00,1496.00
             2338.84,1493.43 2338.14,1491.08 2337.00,1487.00
             2337.00,1487.00 2342.00,1486.00 2342.00,1486.00
             2340.92,1482.99 2340.96,1483.19 2337.75,1482.00
             2339.08,1475.34 2337.09,1473.31 2337.75,1469.01
             2337.88,1465.10 2339.95,1464.41 2340.60,1459.96
             2341.20,1455.81 2341.51,1450.38 2345.22,1447.63
             2348.16,1445.41 2350.92,1446.71 2354.00,1447.63
             2362.34,1450.19 2363.07,1450.99 2372.00,1451.00
             2381.60,1451.01 2397.45,1450.64 2405.79,1445.56
             2407.92,1444.27 2409.30,1442.14 2411.15,1440.53
             2412.90,1439.00 2413.50,1438.94 2415.00,1437.00
             2415.00,1437.00 2412.00,1438.00 2412.00,1438.00
             2420.81,1430.17 2420.35,1420.15 2424.70,1410.00
             2427.05,1404.49 2431.57,1397.40 2432.00,1392.00
             2438.47,1389.80 2435.96,1386.05 2440.88,1376.42
             2440.88,1376.42 2444.18,1369.26 2444.18,1369.26
             2446.64,1365.19 2449.38,1361.34 2451.16,1356.83
             2451.16,1356.83 2453.44,1346.00 2453.44,1346.00
             2453.44,1346.00 2458.16,1333.00 2458.16,1333.00
             2458.16,1333.00 2459.94,1324.01 2459.94,1324.01
             2459.94,1324.01 2462.75,1316.83 2462.75,1316.83
             2463.34,1314.01 2462.84,1309.73 2464.68,1305.00
             2466.11,1301.33 2469.16,1297.95 2469.99,1294.00
             2469.99,1294.00 2469.30,1279.73 2469.30,1279.73
             2470.04,1273.16 2472.27,1274.58 2473.57,1266.00
             2473.57,1266.00 2476.09,1236.00 2476.09,1236.00
             2476.09,1236.00 2479.39,1223.00 2479.39,1223.00
             2479.39,1223.00 2482.00,1194.00 2482.00,1194.00
             2482.00,1194.00 2480.74,1170.00 2480.74,1170.00
             2480.74,1170.00 2479.13,1163.00 2479.13,1163.00
             2479.13,1163.00 2478.59,1156.00 2478.59,1156.00
             2478.59,1156.00 2473.85,1140.27 2473.85,1140.27
             2473.85,1140.27 2469.00,1109.00 2469.00,1109.00
             2469.00,1109.00 2476.00,1106.00 2476.00,1106.00
             2476.00,1106.00 2475.00,1103.00 2475.00,1103.00
             2475.00,1103.00 2488.00,1094.83 2488.00,1094.83
             2492.41,1092.65 2495.29,1092.92 2499.95,1089.70
             2504.85,1086.31 2505.59,1082.60 2509.26,1080.20
             2512.44,1078.11 2516.12,1077.95 2517.68,1076.92
             2519.11,1075.96 2523.24,1064.91 2522.60,1063.47
             2520.71,1059.25 2514.01,1061.94 2509.00,1057.00
             2508.22,1058.51 2507.58,1060.33 2506.42,1061.59
             2504.86,1063.28 2503.18,1063.63 2501.45,1064.90
             2498.82,1066.82 2494.18,1072.00 2491.06,1066.74
             2489.88,1064.74 2490.78,1061.95 2490.39,1059.09
             2490.01,1056.28 2488.61,1053.94 2488.71,1050.99
             2488.81,1048.12 2490.99,1042.92 2492.00,1040.00
             2489.94,1040.20 2485.87,1041.13 2484.17,1040.65
             2479.31,1039.26 2478.19,1034.00 2471.00,1034.00
             2471.00,1034.00 2470.00,1033.00 2470.00,1033.00
             2470.00,1033.00 2471.00,1030.00 2471.00,1030.00
             2471.00,1030.00 2474.00,1032.00 2474.00,1032.00
             2474.00,1032.00 2472.00,1027.00 2472.00,1027.00
             2472.00,1027.00 2469.00,1028.00 2469.00,1028.00
             2467.79,1024.38 2465.36,1018.30 2466.13,1014.58
             2467.22,1009.39 2475.73,1001.61 2469.60,995.89
             2469.60,995.89 2465.00,993.00 2465.00,993.00
             2465.00,993.00 2463.00,1000.00 2463.00,1000.00
             2463.00,1000.00 2456.00,990.00 2456.00,990.00
             2456.00,990.00 2451.00,992.00 2451.00,992.00
             2451.00,992.00 2450.00,979.00 2450.00,979.00
             2450.00,979.00 2449.00,979.00 2449.00,979.00
             2449.00,979.00 2449.00,981.00 2449.00,981.00
             2449.00,981.00 2449.00,971.00 2449.00,971.00
             2449.00,971.00 2442.00,972.00 2442.00,972.00
             2442.82,974.47 2444.75,977.73 2444.74,980.04
             2444.69,986.45 2434.29,991.25 2429.00,993.00
             2429.00,993.00 2432.00,983.00 2432.00,983.00
             2429.17,979.12 2428.94,978.78 2429.00,974.00
             2417.69,978.10 2421.80,973.97 2413.00,968.00
             2411.29,972.74 2411.28,976.79 2417.00,978.00
             2417.27,982.12 2415.62,991.39 2412.51,994.29
             2410.12,996.51 2407.73,995.81 2405.34,996.87
             2405.34,996.87 2397.00,1002.00 2397.00,1002.00
             2395.71,999.81 2393.43,997.62 2393.31,994.98
             2393.17,991.90 2396.05,988.90 2394.94,985.10
             2393.73,980.99 2389.16,981.30 2387.37,972.00
             2386.20,965.86 2388.51,960.71 2388.61,957.00
             2388.73,952.12 2386.26,951.82 2386.02,945.00
             2385.70,936.18 2387.74,933.78 2387.62,930.00
             2387.62,930.00 2386.14,922.00 2386.14,922.00
             2386.14,922.00 2387.00,907.00 2387.00,907.00
             2387.00,907.00 2383.94,886.00 2383.94,886.00
             2383.94,886.00 2383.94,873.91 2383.94,873.91
             2383.94,873.91 2382.00,867.00 2382.00,867.00
             2382.00,867.00 2382.00,860.00 2382.00,860.00
             2382.00,860.00 2379.04,851.00 2379.04,851.00
             2379.04,851.00 2375.48,830.00 2375.48,830.00
             2375.48,830.00 2370.53,815.00 2370.53,815.00
             2370.53,815.00 2368.84,802.00 2368.84,802.00
             2368.84,802.00 2365.77,785.00 2365.77,785.00
             2363.08,773.42 2361.36,774.04 2360.26,769.96
             2360.26,769.96 2355.59,749.00 2355.59,749.00
             2355.59,749.00 2354.46,739.00 2354.46,739.00
             2354.46,739.00 2351.68,732.00 2351.68,732.00
             2351.68,732.00 2347.58,715.00 2347.58,715.00
             2347.58,715.00 2345.48,707.09 2345.48,707.09
             2344.62,703.06 2346.29,701.94 2345.48,698.00
             2345.48,698.00 2343.91,692.00 2343.91,692.00
             2343.91,692.00 2342.10,683.00 2342.10,683.00
             2342.10,683.00 2341.45,675.09 2341.45,675.09
             2340.76,672.18 2339.04,670.53 2338.67,666.99
             2338.67,666.99 2338.67,659.09 2338.67,659.09
             2338.67,659.09 2336.29,652.91 2336.29,652.91
             2336.29,652.91 2333.72,641.00 2333.72,641.00
             2333.72,641.00 2327.87,624.00 2327.87,624.00
             2327.87,624.00 2324.58,609.00 2324.58,609.00
             2324.58,609.00 2317.26,588.17 2317.26,588.17
             2317.26,588.17 2315.47,580.00 2315.47,580.00
             2315.47,580.00 2312.88,574.00 2312.88,574.00
             2312.88,574.00 2307.54,558.00 2307.54,558.00
             2307.02,556.18 2307.06,554.84 2307.00,553.00
             2307.00,553.00 2305.00,555.00 2305.00,555.00
             2305.00,555.00 2302.00,543.00 2302.00,543.00
             2294.13,536.68 2297.26,535.92 2293.37,529.00
             2293.37,529.00 2285.54,517.00 2285.54,517.00
             2285.54,517.00 2281.73,509.17 2281.73,509.17
             2281.73,509.17 2269.47,493.53 2269.47,493.53
             2269.47,493.53 2263.49,488.62 2263.49,488.62
             2262.22,487.21 2255.14,474.51 2249.83,469.60
             2249.83,469.60 2242.22,463.55 2242.22,463.55
             2242.22,463.55 2229.00,451.47 2229.00,451.47
             2229.00,451.47 2222.00,446.67 2222.00,446.67
             2222.00,446.67 2209.28,436.41 2209.28,436.41
             2209.28,436.41 2200.80,428.57 2200.80,428.57
             2197.75,426.42 2195.74,426.86 2193.11,425.18
             2193.11,425.18 2184.00,418.02 2184.00,418.02
             2184.00,418.02 2176.42,413.86 2176.42,413.86
             2176.42,413.86 2168.00,406.41 2168.00,406.41
             2164.09,403.49 2159.28,402.15 2155.09,399.75
             2150.22,396.97 2139.64,388.77 2137.00,384.00
             2126.38,384.26 2126.98,380.42 2119.00,375.40
             2114.18,372.36 2112.52,372.91 2109.09,371.37
             2109.09,371.37 2103.83,368.25 2103.83,368.25
             2103.83,368.25 2094.83,363.49 2094.83,363.49
             2094.83,363.49 2079.83,357.13 2079.83,357.13
             2079.83,357.13 2074.00,353.48 2074.00,353.48
             2074.00,353.48 2067.00,350.32 2067.00,350.32
             2067.00,350.32 2056.00,343.51 2056.00,343.51
             2056.00,343.51 2041.09,336.49 2041.09,336.49
             2035.19,332.78 2030.76,324.90 2026.42,321.56
             2024.02,319.71 2020.83,319.41 2018.00,318.29
             2018.00,318.29 2006.00,312.97 2006.00,312.97
             1998.24,309.96 1989.46,311.09 1981.42,310.02
             1981.42,310.02 1966.00,305.14 1966.00,305.14
             1960.46,303.45 1955.23,303.10 1952.00,298.00
             1944.07,300.00 1945.58,296.63 1939.00,293.84
             1939.00,293.84 1931.00,291.48 1931.00,291.48
             1931.00,291.48 1915.91,284.87 1915.91,284.87
             1915.91,284.87 1907.09,282.17 1907.09,282.17
             1907.09,282.17 1898.00,278.23 1898.00,278.23
             1898.00,278.23 1891.09,276.32 1891.09,276.32
             1891.09,276.32 1884.91,273.13 1884.91,273.13
             1884.91,273.13 1876.16,270.60 1876.16,270.60
             1876.16,270.60 1869.96,267.55 1869.96,267.55
             1869.96,267.55 1865.00,266.41 1865.00,266.41
             1865.00,266.41 1828.00,258.93 1828.00,258.93
             1821.65,257.99 1815.42,256.08 1809.00,256.07
             1809.00,256.07 1786.00,256.07 1786.00,256.07
             1786.00,256.07 1778.00,258.30 1778.00,258.30
             1778.00,258.30 1752.00,259.00 1752.00,259.00
             1741.05,259.02 1721.63,264.64 1711.00,268.41
             1711.00,268.41 1694.26,273.30 1694.26,273.30
             1692.17,274.44 1690.89,276.76 1686.57,279.08
             1683.17,280.90 1680.59,280.65 1677.09,282.97
             1677.09,282.97 1670.13,288.42 1670.13,288.42
             1670.13,288.42 1655.00,294.30 1655.00,294.30
             1655.00,294.30 1633.00,308.41 1633.00,308.41
             1633.00,308.41 1620.04,314.36 1620.04,314.36
             1616.53,315.69 1615.28,314.95 1610.99,317.04
             1610.99,317.04 1580.00,331.79 1580.00,331.79
             1577.11,332.27 1570.02,332.34 1567.00,331.79 Z
           M 1668.00,290.00
           C 1668.00,290.00 1668.00,291.00 1668.00,291.00
             1668.00,291.00 1667.00,290.00 1667.00,290.00
             1667.00,290.00 1668.00,290.00 1668.00,290.00 Z
           M 1323.00,552.00
           C 1323.00,552.00 1323.00,553.00 1323.00,553.00
             1323.00,553.00 1322.00,552.00 1322.00,552.00
             1322.00,552.00 1323.00,552.00 1323.00,552.00 Z
           M 1279.00,656.00
           C 1279.00,656.00 1279.00,657.00 1279.00,657.00
             1279.00,657.00 1278.00,656.00 1278.00,656.00
             1278.00,656.00 1279.00,656.00 1279.00,656.00 Z
           M 2450.00,976.00
           C 2450.00,976.00 2451.00,979.00 2451.00,979.00
             2451.00,979.00 2454.00,976.00 2454.00,976.00
             2454.00,976.00 2450.00,976.00 2450.00,976.00 Z
           M 2455.00,983.00
           C 2455.00,983.00 2455.00,984.00 2455.00,984.00
             2455.00,984.00 2456.00,983.00 2456.00,983.00
             2456.00,983.00 2455.00,983.00 2455.00,983.00 Z
           M 2459.00,988.00
           C 2459.00,988.00 2458.00,992.00 2458.00,992.00
             2458.00,992.00 2462.00,992.00 2462.00,992.00
             2462.00,992.00 2459.00,988.00 2459.00,988.00 Z" />
  <path id="profile"
        fill="none" stroke="black" stroke-width="1"
        d="M 1567.00,331.79
           C 1564.60,334.03 1562.99,332.95 1560.25,334.73
             1560.25,334.73 1550.68,343.29 1550.68,343.29
             1547.70,345.50 1544.37,345.35 1538.66,350.09
             1528.94,358.18 1532.31,357.19 1528.50,361.79
             1528.50,361.79 1521.97,367.39 1521.97,367.39
             1521.97,367.39 1517.74,371.33 1517.74,371.33
             1517.74,371.33 1511.09,373.87 1511.09,373.87
             1511.09,373.87 1503.96,379.18 1503.96,379.18
             1498.61,382.55 1490.64,385.49 1487.00,391.00
             1477.68,390.10 1475.56,395.83 1470.56,400.62
             1466.93,404.09 1462.15,406.01 1458.17,408.95
             1451.55,413.84 1455.27,414.29 1446.00,417.00
             1446.00,417.00 1447.00,419.00 1447.00,419.00
             1447.00,419.00 1435.00,424.00 1435.00,424.00
             1435.00,424.00 1432.00,430.00 1432.00,430.00
             1422.30,432.20 1421.57,442.08 1410.00,445.00
             1406.87,450.62 1400.21,458.15 1395.45,462.49
             1389.99,467.46 1388.17,466.38 1386.00,475.00
             1384.39,475.02 1383.87,474.75 1382.24,475.54
             1379.14,477.05 1371.68,485.76 1371.00,489.00
             1371.00,489.00 1360.00,496.00 1360.00,496.00
             1358.97,502.16 1356.02,502.03 1352.45,507.02
             1352.45,507.02 1348.22,513.96 1348.22,513.96
             1343.82,520.18 1334.98,529.04 1332.00,536.00
             1332.00,536.00 1329.00,535.00 1329.00,535.00
             1328.17,541.13 1328.08,543.05 1323.00,547.00
             1323.00,547.00 1324.00,550.00 1324.00,550.00
             1324.00,550.00 1318.55,558.80 1318.55,558.80
             1318.55,558.80 1311.74,572.42 1311.74,572.42
             1311.74,572.42 1301.00,588.00 1301.00,588.00
             1301.00,588.00 1302.00,591.00 1302.00,591.00
             1295.53,592.87 1299.09,606.47 1292.00,609.00
             1292.00,609.00 1285.55,626.83 1285.55,626.83
             1285.55,626.83 1282.40,640.00 1282.40,640.00
             1280.54,647.56 1279.07,646.35 1280.00,655.00
             1280.00,655.00 1277.00,655.00 1277.00,655.00
             1275.93,662.44 1274.05,663.82 1273.11,668.00
             1273.11,668.00 1273.11,677.00 1273.11,677.00
             1271.80,682.05 1269.97,685.45 1270.32,691.00
             1270.85,699.47 1269.89,698.54 1269.17,706.00
             1269.17,706.00 1267.92,724.00 1267.92,724.00
             1267.28,731.90 1264.38,744.67 1266.00,752.00
             1263.12,754.59 1264.39,756.52 1263.73,760.00
             1263.73,760.00 1262.08,765.00 1262.08,765.00
             1262.08,765.00 1260.56,772.00 1260.56,772.00
             1260.56,772.00 1257.91,780.00 1257.91,780.00
             1257.91,780.00 1255.69,789.28 1255.69,789.28
             1254.25,793.83 1250.22,803.29 1250.00,807.00
             1250.00,807.00 1243.00,817.00 1243.00,817.00
             1243.00,817.00 1241.00,816.00 1241.00,816.00
             1241.00,816.00 1241.00,819.00 1241.00,819.00
             1234.56,822.10 1235.91,827.17 1233.51,833.00
             1233.51,833.00 1225.00,849.00 1225.00,849.00
             1225.00,849.00 1221.00,849.00 1221.00,849.00
             1221.00,849.00 1221.00,850.00 1221.00,850.00
             1221.00,850.00 1223.00,850.00 1223.00,850.00
             1219.64,853.93 1215.99,863.84 1214.75,869.00
             1214.75,869.00 1213.17,876.00 1213.17,876.00
             1211.79,879.74 1210.58,880.84 1209.15,886.00
             1209.15,886.00 1207.51,893.83 1207.51,893.83
             1207.51,893.83 1205.13,899.09 1205.13,899.09
             1204.10,904.36 1204.94,910.68 1205.13,916.00
             1205.13,916.00 1205.13,927.72 1205.13,927.72
             1204.92,931.10 1203.71,932.70 1204.13,937.00
             1204.13,937.00 1205.55,943.00 1205.55,943.00
             1205.55,943.00 1206.46,951.00 1206.46,951.00
             1206.46,951.00 1218.73,980.00 1218.73,980.00
             1221.73,985.57 1228.57,994.48 1233.09,998.96
             1237.74,1003.57 1240.04,1003.45 1243.18,1010.00
             1245.49,1014.83 1244.75,1017.97 1245.42,1023.00
             1245.42,1023.00 1248.95,1043.00 1248.95,1043.00
             1249.86,1048.38 1246.60,1050.88 1250.00,1054.00
             1250.00,1054.00 1249.00,1060.00 1249.00,1060.00
             1249.00,1060.00 1250.24,1056.00 1250.24,1056.00
             1252.26,1063.95 1249.54,1066.41 1250.24,1070.72
             1251.55,1075.67 1259.49,1087.27 1259.00,1100.00
             1252.22,1098.70 1244.74,1095.58 1238.00,1095.21
             1233.06,1094.94 1228.66,1097.07 1224.00,1098.24
             1220.44,1099.14 1216.15,1098.74 1213.19,1100.45
             1209.09,1102.83 1204.81,1114.43 1205.00,1119.00
             1197.70,1120.97 1200.82,1122.84 1196.00,1128.00
             1196.00,1128.00 1196.00,1134.00 1196.00,1134.00
             1193.29,1136.43 1194.04,1139.48 1193.58,1143.00
             1193.58,1143.00 1191.29,1167.00 1191.29,1167.00
             1189.15,1175.53 1184.01,1206.72 1184.00,1215.00
             1184.00,1215.00 1184.00,1260.00 1184.00,1260.00
             1184.02,1272.41 1185.94,1269.05 1187.59,1276.00
             1187.59,1276.00 1188.48,1284.00 1188.48,1284.00
             1188.48,1284.00 1191.49,1293.00 1191.49,1293.00
             1191.49,1293.00 1194.83,1312.00 1194.83,1312.00
             1194.83,1312.00 1195.42,1322.00 1195.42,1322.00
             1196.02,1326.52 1195.06,1330.36 1199.00,1333.00
             1199.00,1333.00 1197.00,1336.00 1197.00,1336.00
             1201.47,1341.12 1198.89,1350.61 1200.30,1356.91
             1200.30,1356.91 1202.95,1364.04 1202.95,1364.04
             1202.95,1364.04 1205.83,1384.00 1205.83,1384.00
             1205.83,1384.00 1206.62,1393.00 1206.62,1393.00
             1207.23,1396.41 1210.17,1406.95 1211.51,1409.96
             1211.51,1409.96 1214.69,1416.17 1214.69,1416.17
             1216.99,1421.54 1217.34,1424.38 1220.62,1430.00
             1220.62,1430.00 1223.82,1435.58 1223.82,1435.58
             1226.11,1440.79 1225.69,1443.65 1231.00,1447.00
             1231.00,1447.00 1230.00,1449.00 1230.00,1449.00
             1239.52,1454.65 1242.04,1461.81 1244.56,1464.31
             1244.56,1464.31 1263.04,1477.68 1263.04,1477.68
             1267.91,1481.11 1276.14,1482.45 1279.12,1488.04
             1280.81,1491.70 1278.47,1495.94 1279.12,1503.00
             1279.59,1505.64 1280.15,1510.64 1280.91,1513.00
             1283.75,1521.73 1292.83,1530.18 1301.00,1534.00
             1300.34,1541.94 1308.87,1544.51 1315.00,1546.59
             1322.11,1549.01 1327.04,1551.53 1335.00,1551.90
             1335.00,1551.90 1353.83,1550.87 1353.83,1550.87
             1357.71,1551.16 1356.50,1552.05 1361.00,1550.87
             1362.73,1560.18 1363.24,1558.53 1362.00,1568.00
             1366.50,1571.02 1364.53,1573.77 1363.00,1578.00
             1370.24,1582.13 1363.41,1590.03 1369.00,1592.00
             1369.00,1592.00 1368.00,1600.00 1368.00,1600.00
             1375.68,1602.30 1373.22,1605.68 1376.06,1612.00
             1381.85,1624.84 1379.30,1623.38 1381.53,1629.83
             1382.51,1632.66 1385.85,1636.93 1386.70,1641.00
             1387.52,1644.88 1386.39,1647.36 1388.00,1654.00
             1388.00,1654.00 1391.00,1653.00 1391.00,1653.00
             1391.00,1653.00 1392.98,1659.42 1392.98,1659.42
             1392.98,1659.42 1398.42,1664.14 1398.42,1664.14
             1398.42,1664.14 1399.52,1668.00 1399.52,1668.00
             1399.52,1668.00 1404.62,1681.91 1404.62,1681.91
             1404.62,1681.91 1412.79,1695.17 1412.79,1695.17
             1412.79,1695.17 1414.04,1709.00 1414.04,1709.00
             1414.04,1709.00 1415.00,1720.00 1415.00,1720.00
             1418.76,1724.70 1417.46,1727.61 1418.30,1733.00
             1418.30,1733.00 1420.68,1741.00 1420.68,1741.00
             1420.68,1741.00 1421.28,1747.00 1421.28,1747.00
             1421.28,1747.00 1423.70,1756.00 1423.70,1756.00
             1423.70,1756.00 1424.47,1768.00 1424.47,1768.00
             1425.44,1773.19 1427.08,1775.30 1427.90,1783.00
             1427.90,1783.00 1427.90,1804.96 1427.90,1804.96
             1428.48,1808.90 1431.73,1812.88 1433.24,1817.29
             1433.24,1817.29 1438.05,1840.00 1438.05,1840.00
             1438.05,1840.00 1440.30,1863.00 1440.30,1863.00
             1440.30,1863.00 1444.57,1880.00 1444.57,1880.00
             1444.57,1880.00 1445.28,1892.00 1445.28,1892.00
             1445.28,1892.00 1449.81,1917.00 1449.81,1917.00
             1449.81,1917.00 1451.32,1932.00 1451.32,1932.00
             1451.32,1932.00 1455.94,1956.00 1455.94,1956.00
             1455.94,1956.00 1455.94,1966.00 1455.94,1966.00
             1455.94,1966.00 1459.37,1996.00 1459.37,1996.00
             1459.27,2001.31 1460.09,2002.24 1460.71,2007.00
             1460.71,2007.00 1461.43,2016.00 1461.43,2016.00
             1461.43,2016.00 1464.42,2029.00 1464.42,2029.00
             1465.22,2032.49 1467.38,2043.88 1466.22,2046.89
             1464.46,2051.51 1460.11,2049.77 1454.91,2051.63
             1448.89,2053.78 1447.14,2052.32 1441.00,2054.88
             1431.95,2058.64 1425.19,2064.28 1415.00,2065.00
             1415.00,2065.00 1411.00,2069.00 1411.00,2069.00
             1411.00,2069.00 1411.00,2067.00 1411.00,2067.00
             1411.00,2067.00 1392.00,2075.00 1392.00,2075.00
             1390.53,2079.44 1388.56,2080.23 1384.00,2080.00
             1384.00,2080.00 1374.99,2084.76 1374.99,2084.76
             1374.99,2084.76 1363.00,2090.00 1363.00,2090.00
             1363.00,2090.00 1360.00,2093.00 1360.00,2093.00
             1358.91,2096.33 1356.13,2096.02 1353.00,2097.00
             1351.59,2101.93 1348.99,2100.39 1345.20,2101.57
             1345.20,2101.57 1329.00,2108.00 1329.00,2108.00
             1329.00,2108.00 1329.00,2109.00 1329.00,2109.00
             1329.00,2109.00 1331.00,2109.00 1331.00,2109.00
             1325.21,2111.41 1323.66,2110.60 1321.17,2111.59
             1318.15,2112.78 1314.34,2118.02 1312.00,2113.00
             1308.59,2116.31 1305.62,2120.50 1301.83,2123.29
             1301.83,2123.29 1287.00,2131.31 1287.00,2131.31
             1281.02,2134.86 1270.92,2139.78 1264.00,2140.00
             1264.00,2140.00 1267.00,2142.00 1267.00,2142.00
             1267.00,2142.00 1257.45,2144.97 1257.45,2144.97
             1255.28,2146.26 1250.88,2151.49 1244.00,2152.00
             1241.29,2154.81 1231.83,2159.63 1228.00,2160.00
             1218.35,2171.76 1208.47,2166.47 1200.00,2179.00
             1200.00,2179.00 1176.00,2189.00 1176.00,2189.00
             1174.18,2195.21 1167.24,2195.55 1163.26,2197.49
             1163.26,2197.49 1148.91,2208.37 1148.91,2208.37
             1141.74,2213.47 1139.85,2209.25 1135.00,2219.00
             1127.58,2217.56 1128.38,2219.75 1122.83,2222.72
             1119.95,2224.26 1117.97,2223.57 1117.00,2227.00
             1108.84,2228.76 1108.11,2230.62 1103.91,2232.24
             1098.43,2234.35 1095.18,2232.11 1093.00,2239.00
             1084.66,2239.75 1077.61,2243.17 1070.00,2246.30
             1067.44,2247.36 1062.80,2248.35 1060.96,2249.66
             1055.08,2253.83 1059.39,2255.33 1048.00,2260.00
             1048.00,2260.00 1049.00,2262.00 1049.00,2262.00
             1049.00,2262.00 1046.00,2265.00 1046.00,2265.00
             1040.12,2264.14 1040.29,2266.79 1034.96,2267.96
             1022.38,2270.72 1023.15,2272.18 1013.00,2277.82
             1013.00,2277.82 1000.42,2285.10 1000.42,2285.10
             993.50,2289.88 990.57,2287.85 990.00,2298.00
             990.00,2298.00 984.00,2296.00 984.00,2296.00
             984.00,2296.00 973.16,2306.61 973.16,2306.61
             973.16,2306.61 967.96,2308.71 967.96,2308.71
             967.96,2308.71 962.00,2312.28 962.00,2312.28
             962.00,2312.28 953.32,2315.20 953.32,2315.20
             953.32,2315.20 944.00,2323.36 944.00,2323.36
             944.00,2323.36 936.00,2325.52 936.00,2325.52
             936.00,2325.52 924.00,2334.00 924.00,2334.00
             924.00,2334.00 921.00,2332.00 921.00,2332.00
             921.00,2332.00 924.00,2334.00 924.00,2334.00
             924.00,2334.00 904.14,2341.56 904.14,2341.56
             904.14,2341.56 901.00,2346.00 901.00,2346.00
             888.23,2343.42 887.47,2352.35 878.00,2353.00
             875.53,2355.10 864.69,2362.57 861.84,2363.81
             857.62,2365.65 856.04,2364.56 852.01,2367.09
             845.81,2370.98 841.10,2377.15 833.00,2378.00
             830.24,2384.00 826.78,2386.38 820.00,2386.00
             820.00,2386.00 814.00,2389.22 814.00,2389.22
             814.00,2389.22 800.00,2397.00 800.00,2397.00
             800.00,2397.00 801.00,2399.00 801.00,2399.00
             791.45,2401.66 795.15,2401.99 787.99,2405.73
             782.52,2408.58 779.15,2408.76 777.06,2409.81
             774.20,2411.25 774.03,2412.09 774.00,2415.00
             774.00,2415.00 759.17,2420.85 759.17,2420.85
             759.17,2420.85 750.00,2428.93 750.00,2428.93
             750.00,2428.93 735.43,2434.70 735.43,2434.70
             735.43,2434.70 713.00,2446.00 713.00,2446.00
             712.48,2450.95 709.08,2450.76 705.00,2450.00
             703.96,2455.22 698.96,2454.39 695.45,2457.11
             692.99,2459.02 693.99,2460.35 689.91,2463.18
             689.91,2463.18 674.00,2471.62 674.00,2471.62
             674.00,2471.62 668.04,2473.92 668.04,2473.92
             662.81,2476.54 661.55,2480.62 657.00,2483.64
             657.00,2483.64 646.73,2488.65 646.73,2488.65
             646.73,2488.65 637.96,2495.01 637.96,2495.01
             635.93,2496.10 634.24,2496.11 632.04,2497.59
             632.04,2497.59 626.72,2502.51 626.72,2502.51
             626.72,2502.51 619.09,2507.22 619.09,2507.22
             619.09,2507.22 611.70,2513.75 611.70,2513.75
             611.70,2513.75 602.98,2518.50 602.98,2518.50
             602.98,2518.50 597.52,2524.37 597.52,2524.37
             597.52,2524.37 591.00,2527.71 591.00,2527.71
             588.57,2529.06 578.36,2537.29 577.01,2539.46
             576.16,2540.81 576.25,2541.56 576.00,2543.00
             574.23,2543.30 572.92,2543.39 571.28,2544.29
             568.66,2545.72 561.06,2552.26 560.00,2555.00
             555.14,2555.26 554.28,2557.43 554.00,2562.00
             554.00,2562.00 553.00,2562.00 553.00,2562.00
             553.00,2562.00 552.00,2560.00 552.00,2560.00
             552.00,2560.00 549.00,2561.00 549.00,2561.00
             547.67,2569.15 540.55,2568.38 536.64,2572.47
             536.64,2572.47 531.82,2579.26 531.82,2579.26
             531.82,2579.26 521.00,2588.79 521.00,2588.79
             521.00,2588.79 506.00,2603.00 506.00,2603.00
             505.39,2610.12 498.14,2613.34 493.00,2617.00
             493.00,2617.00 493.00,2623.00 493.00,2623.00
             493.00,2623.00 488.00,2624.00 488.00,2624.00
             488.00,2624.00 481.00,2631.00 481.00,2631.00
             481.00,2631.00 479.00,2636.00 479.00,2636.00
             479.00,2636.00 480.00,2639.00 480.00,2639.00
             473.87,2640.90 470.45,2646.75 466.00,2651.00
             464.90,2657.40 461.02,2654.34 458.12,2657.57
             458.12,2657.57 454.48,2663.63 454.48,2663.63
             454.48,2663.63 445.07,2673.43 445.07,2673.43
             445.07,2673.43 443.00,2681.00 443.00,2681.00
             438.87,2681.89 437.74,2684.95 434.99,2688.00
             434.99,2688.00 425.22,2697.21 425.22,2697.21
             425.22,2697.21 419.73,2704.70 419.73,2704.70
             416.86,2707.48 413.27,2707.72 410.39,2710.47
             407.67,2713.07 408.05,2715.19 403.91,2719.19
             397.71,2725.18 383.26,2736.44 379.41,2743.09
             376.35,2748.38 375.00,2761.74 375.00,2768.00
             377.69,2769.00 377.76,2772.26 378.03,2775.00
             378.66,2781.43 372.41,2791.40 369.65,2797.42
             369.65,2797.42 364.13,2809.00 364.13,2809.00
             364.13,2809.00 360.96,2819.00 360.96,2819.00
             360.96,2819.00 356.36,2828.00 356.36,2828.00
             356.36,2828.00 346.04,2851.83 346.04,2851.83
             341.67,2859.63 338.03,2867.56 334.89,2875.93
             333.07,2880.77 331.55,2880.18 332.00,2886.00
             327.24,2888.87 325.85,2895.16 323.58,2899.99
             323.58,2899.99 317.05,2915.09 317.05,2915.09
             317.05,2915.09 312.34,2928.28 312.34,2928.28
             308.88,2935.61 302.68,2943.48 305.00,2952.00
             299.30,2956.76 298.37,2968.61 296.86,2971.95
             294.76,2976.57 291.93,2976.12 289.92,2982.00
             289.92,2982.00 287.49,2997.00 287.49,2997.00
             287.49,2997.00 277.63,3024.00 277.63,3024.00
             277.63,3024.00 275.39,3032.00 275.39,3032.00
             273.32,3038.09 266.30,3052.48 262.00,3057.00
             262.00,3057.00 263.00,3064.00 263.00,3064.00
             263.00,3064.00 261.00,3062.00 261.00,3062.00
             260.46,3064.36 259.31,3066.98 262.00,3068.00
             262.00,3068.00 255.01,3089.00 255.01,3089.00
             255.01,3089.00 252.19,3100.00 252.19,3100.00
             252.19,3100.00 243.26,3123.00 243.26,3123.00
             243.26,3123.00 242.73,3131.00 242.73,3131.00
             242.73,3131.00 240.47,3137.93 240.47,3137.93
             240.47,3137.93 242.00,3141.00 242.00,3141.00
             239.03,3150.53 235.86,3157.79 235.00,3168.00
             235.00,3168.00 234.00,3164.00 234.00,3164.00
             234.00,3164.00 232.00,3171.00 232.00,3171.00
             232.00,3171.00 233.00,3168.00 233.00,3168.00
             233.00,3168.00 233.00,3175.00 233.00,3175.00
             233.00,3175.00 231.00,3174.00 231.00,3174.00
             231.00,3174.00 232.00,3180.00 232.00,3180.00
             226.90,3185.58 226.65,3192.17 224.56,3199.00
             224.56,3199.00 217.84,3217.00 217.84,3217.00
             216.25,3222.67 220.36,3227.87 214.00,3232.00
             213.75,3236.55 210.47,3242.76 209.24,3248.00
             209.24,3248.00 207.30,3260.00 207.30,3260.00
             207.30,3260.00 203.33,3274.00 203.33,3274.00
             203.33,3274.00 200.83,3286.00 200.83,3286.00
             200.83,3286.00 198.09,3294.00 198.09,3294.00
             198.09,3294.00 196.34,3303.72 196.34,3303.72
             196.34,3303.72 194.54,3309.04 194.54,3309.04
             194.54,3309.04 193.82,3315.00 193.82,3315.00
             193.82,3315.00 190.71,3329.00 190.71,3329.00
             190.71,3329.00 187.72,3338.00 187.72,3338.00
             187.72,3338.00 185.76,3346.00 185.76,3346.00
             185.76,3346.00 181.77,3356.00 181.77,3356.00
             181.77,3356.00 179.59,3365.00 179.59,3365.00
             179.59,3365.00 176.63,3372.00 176.63,3372.00
             176.63,3372.00 172.55,3387.00 172.55,3387.00
             172.55,3387.00 165.46,3408.00 165.46,3408.00
             165.46,3408.00 162.54,3419.00 162.54,3419.00
             158.81,3430.78 154.11,3442.52 154.00,3455.00
             154.00,3455.00 150.00,3457.00 150.00,3457.00
             151.63,3461.35 149.87,3462.02 148.21,3466.00
             148.21,3466.00 142.69,3485.71 142.69,3485.71
             141.78,3487.20 141.30,3487.18 140.00,3488.00
             138.80,3502.76 134.91,3510.27 130.46,3524.00
             130.46,3524.00 127.26,3537.00 127.26,3537.00
             127.26,3537.00 119.98,3560.17 119.98,3560.17
             115.86,3571.40 120.41,3576.58 114.00,3583.00
             114.55,3589.20 112.01,3594.12 110.48,3600.00
             110.48,3600.00 106.84,3616.00 106.84,3616.00
             103.36,3629.17 102.21,3622.77 102.00,3639.00
             101.85,3649.92 97.15,3652.52 95.48,3660.00
             95.48,3660.00 93.32,3676.00 93.32,3676.00
             93.32,3676.00 89.74,3686.83 89.74,3686.83
             89.74,3686.83 88.57,3695.00 88.57,3695.00
             88.57,3695.00 86.01,3706.00 86.01,3706.00
             86.01,3706.00 84.63,3714.00 84.63,3714.00
             84.63,3714.00 80.89,3726.00 80.89,3726.00
             80.89,3726.00 77.65,3745.00 77.65,3745.00
             77.65,3745.00 74.39,3754.00 74.39,3754.00
             74.39,3754.00 73.41,3762.00 73.41,3762.00
             73.41,3762.00 70.32,3777.00 70.32,3777.00
             70.32,3777.00 68.78,3789.00 68.78,3789.00
             68.78,3789.00 62.68,3811.00 62.68,3811.00
             62.68,3811.00 60.33,3830.00 60.33,3830.00
             60.33,3830.00 56.24,3844.00 56.24,3844.00
             56.24,3844.00 53.96,3860.00 53.96,3860.00
             53.96,3860.00 45.46,3896.00 45.46,3896.00
             45.46,3896.00 41.49,3927.00 41.49,3927.00
             41.49,3927.00 38.05,3938.17 38.05,3938.17
             38.05,3938.17 34.22,3954.00 34.22,3954.00
             34.22,3954.00 33.45,3971.00 33.45,3971.00
             32.56,3978.54 29.57,3985.07 29.14,3988.00
             29.14,3988.00 27.16,4012.00 27.16,4012.00
             27.16,4012.00 25.44,4020.00 25.44,4020.00
             25.44,4020.00 24.59,4027.00 24.59,4027.00
             24.59,4027.00 21.96,4035.00 21.96,4035.00
             21.96,4035.00 19.06,4061.00 19.06,4061.00
             19.06,4061.00 19.06,4071.28 19.06,4071.28
             19.06,4071.28 15.00,4092.00 15.00,4092.00
             15.00,4092.00 10.74,4110.96 10.74,4110.96
             8.49,4116.81 0.03,4123.90 0.00,4137.00
             0.00,4137.00 0.00,4259.00 0.00,4259.00
             0.02,4270.39 2.94,4267.63 9.68,4274.76
             9.68,4274.76 13.32,4279.26 13.32,4279.26
             13.32,4279.26 26.96,4290.30 26.96,4290.30
             26.96,4290.30 32.59,4296.11 32.59,4296.11
             32.59,4296.11 37.84,4299.32 37.84,4299.32
             37.84,4299.32 72.00,4320.08 72.00,4320.08
             72.00,4320.08 88.83,4330.88 88.83,4330.88
             88.83,4330.88 94.09,4335.11 94.09,4335.11
             94.09,4335.11 108.00,4343.13 108.00,4343.13
             108.00,4343.13 123.00,4349.18 123.00,4349.18
             123.00,4349.18 135.00,4355.28 135.00,4355.28
             135.00,4355.28 151.00,4361.37 151.00,4361.37
             151.00,4361.37 156.91,4362.55 156.91,4362.55
             156.91,4362.55 165.01,4366.56 165.01,4366.56
             165.01,4366.56 175.00,4369.36 175.00,4369.36
             175.00,4369.36 189.00,4374.58 189.00,4374.58
             189.00,4374.58 212.00,4383.45 212.00,4383.45
             212.00,4383.45 247.00,4393.50 247.00,4393.50
             247.00,4393.50 259.00,4395.29 259.00,4395.29
             259.00,4395.29 277.00,4398.42 277.00,4398.42
             287.94,4400.41 292.16,4403.98 304.00,4404.00
             304.00,4404.00 488.00,4404.00 488.00,4404.00
             488.00,4404.00 871.00,4404.00 871.00,4404.00
             871.00,4404.00 3645.96,4404.00 3645.96,4404.00
             3645.96,4404.00 3645.96,4388.00 3645.96,4388.00
             3645.96,4388.00 3645.00,4376.00 3645.00,4376.00
             3645.00,4376.00 3640.83,4318.00 3640.83,4318.00
             3640.83,4318.00 3635.00,4279.00 3635.00,4279.00
             3635.00,4279.00 3635.00,4275.00 3635.00,4275.00
             3635.00,4275.00 3636.00,4260.00 3636.00,4260.00
             3636.00,4260.00 3636.00,4249.00 3636.00,4249.00
             3636.00,4245.95 3636.93,4230.06 3638.02,4228.21
             3639.72,4225.33 3644.06,4223.86 3647.00,4222.58
             3647.00,4222.58 3666.00,4213.45 3666.00,4213.45
             3666.00,4213.45 3684.00,4206.81 3684.00,4206.81
             3686.41,4205.89 3690.53,4204.76 3691.98,4202.58
             3693.22,4200.71 3693.00,4197.21 3693.00,4195.00
             3693.00,4195.00 3693.00,3106.00 3693.00,3106.00
             3693.00,3106.00 3693.00,2796.00 3693.00,2796.00
             3693.00,2796.00 3693.00,2723.00 3693.00,2723.00
             3692.98,2712.36 3690.54,2713.84 3685.52,2705.00
             3683.99,2702.32 3684.06,2699.90 3681.00,2699.00
             3681.00,2699.00 3679.75,2690.17 3679.75,2690.17
             3678.30,2685.09 3672.48,2673.64 3668.00,2671.00
             3668.00,2671.00 3669.00,2668.00 3669.00,2668.00
             3665.44,2664.11 3665.82,2662.69 3664.03,2658.17
             3664.03,2658.17 3661.40,2653.08 3661.40,2653.08
             3658.84,2647.29 3658.35,2642.56 3652.00,2639.00
             3652.43,2632.51 3645.38,2620.72 3643.00,2614.00
             3643.00,2614.00 3638.42,2606.71 3638.42,2606.71
             3638.42,2606.71 3635.15,2600.42 3635.15,2600.42
             3635.15,2600.42 3629.41,2592.00 3629.41,2592.00
             3629.41,2592.00 3627.28,2585.04 3627.28,2585.04
             3627.28,2585.04 3622.39,2578.20 3622.39,2578.20
             3622.39,2578.20 3620.79,2574.17 3620.79,2574.17
             3620.79,2574.17 3609.84,2558.73 3609.84,2558.73
             3609.84,2558.73 3600.85,2550.61 3600.85,2550.61
             3600.85,2550.61 3596.06,2536.17 3596.06,2536.17
             3596.06,2536.17 3584.00,2522.00 3584.00,2522.00
             3577.48,2520.09 3577.27,2517.42 3572.58,2513.54
             3572.58,2513.54 3567.00,2509.72 3567.00,2509.72
             3567.00,2509.72 3547.98,2496.03 3547.98,2496.03
             3542.53,2492.61 3542.80,2491.40 3536.00,2491.00
             3536.00,2491.00 3536.00,2488.00 3536.00,2488.00
             3531.80,2487.21 3522.96,2482.77 3519.66,2480.13
             3519.66,2480.13 3511.00,2472.18 3511.00,2472.18
             3511.00,2472.18 3502.00,2466.70 3502.00,2466.70
             3502.00,2466.70 3483.96,2452.63 3483.96,2452.63
             3483.96,2452.63 3475.09,2447.86 3475.09,2447.86
             3469.64,2444.46 3463.76,2437.91 3457.00,2438.00
             3457.00,2438.00 3456.00,2435.78 3456.00,2435.78
             3456.00,2435.78 3443.96,2426.23 3443.96,2426.23
             3443.96,2426.23 3439.00,2426.23 3439.00,2426.23
             3434.72,2419.08 3428.90,2423.86 3424.00,2415.00
             3417.81,2413.95 3418.26,2411.52 3413.03,2408.61
             3413.03,2408.61 3394.17,2399.12 3394.17,2399.12
             3394.17,2399.12 3383.96,2389.55 3383.96,2389.55
             3383.96,2389.55 3371.04,2383.78 3371.04,2383.78
             3371.04,2383.78 3363.91,2377.92 3363.91,2377.92
             3363.91,2377.92 3352.00,2372.22 3352.00,2372.22
             3352.00,2372.22 3336.91,2362.52 3336.91,2362.52
             3332.06,2359.67 3330.18,2360.93 3328.00,2355.00
             3328.00,2355.00 3323.00,2354.13 3323.00,2354.13
             3323.00,2354.13 3306.21,2344.37 3306.21,2344.37
             3306.21,2344.37 3301.63,2340.17 3301.63,2340.17
             3301.63,2340.17 3295.00,2338.27 3295.00,2338.27
             3295.00,2338.27 3286.00,2332.00 3286.00,2332.00
             3279.38,2331.40 3276.80,2327.78 3271.83,2324.81
             3268.06,2322.56 3266.19,2323.67 3261.00,2321.12
             3254.47,2317.91 3254.95,2315.97 3251.54,2313.72
             3251.54,2313.72 3235.00,2306.10 3235.00,2306.10
             3235.00,2306.10 3227.09,2303.59 3227.09,2303.59
             3227.09,2303.59 3220.91,2299.89 3220.91,2299.89
             3220.91,2299.89 3213.00,2296.65 3213.00,2296.65
             3213.00,2296.65 3205.00,2292.34 3205.00,2292.34
             3200.14,2289.70 3199.62,2288.19 3194.00,2287.00
             3192.90,2282.25 3186.62,2280.43 3182.28,2279.37
             3175.99,2277.84 3177.27,2276.52 3172.91,2274.69
             3168.46,2272.82 3161.49,2273.00 3160.00,2266.00
             3153.79,2265.85 3141.41,2262.38 3136.00,2259.32
             3136.00,2259.32 3125.72,2252.07 3125.72,2252.07
             3125.72,2252.07 3118.00,2249.62 3118.00,2249.62
             3118.00,2249.62 3108.00,2244.67 3108.00,2244.67
             3101.23,2241.89 3091.84,2242.19 3088.00,2235.00
             3084.91,2234.85 3076.90,2233.59 3074.41,2232.01
             3071.53,2230.19 3072.97,2228.78 3066.98,2226.67
             3060.79,2224.50 3058.07,2225.33 3055.10,2224.11
             3051.58,2222.67 3050.95,2219.98 3046.96,2218.08
             3052.68,2220.80 3023.08,2209.01 3029.00,2211.01
             3029.00,2211.01 3020.04,2208.87 3020.04,2208.87
             3020.04,2208.87 3009.00,2202.56 3009.00,2202.56
             2998.63,2197.79 2988.42,2197.04 2980.00,2188.00
             2980.00,2188.00 2969.01,2186.49 2969.01,2186.49
             2969.01,2186.49 2960.39,2181.28 2960.39,2181.28
             2960.39,2181.28 2941.00,2175.00 2941.00,2175.00
             2937.59,2169.94 2936.76,2171.69 2932.09,2169.50
             2928.45,2167.79 2927.54,2165.13 2923.00,2163.65
             2919.08,2162.37 2912.84,2162.87 2908.03,2160.87
             2908.03,2160.87 2899.96,2156.96 2899.96,2156.96
             2891.53,2153.68 2882.70,2151.35 2875.02,2146.38
             2867.74,2141.68 2869.47,2138.63 2862.00,2134.68
             2862.00,2134.68 2836.00,2125.91 2836.00,2125.91
             2836.00,2125.91 2824.09,2119.24 2824.09,2119.24
             2821.05,2118.07 2819.85,2118.83 2817.25,2118.06
             2812.08,2116.53 2813.23,2115.29 2807.00,2117.00
             2805.03,2115.01 2804.70,2115.51 2802.00,2116.00
             2797.41,2104.91 2794.49,2109.16 2785.00,2105.22
             2785.00,2105.22 2774.00,2099.82 2774.00,2099.82
             2769.00,2098.07 2761.71,2096.72 2760.00,2091.00
             2754.85,2090.95 2746.60,2089.83 2742.00,2087.55
             2742.00,2087.55 2735.00,2083.49 2735.00,2083.49
             2729.90,2081.35 2723.55,2081.27 2722.21,2080.71
             2722.21,2080.71 2713.00,2074.60 2713.00,2074.60
             2708.58,2072.44 2706.47,2073.32 2702.00,2071.52
             2702.00,2071.52 2692.00,2066.48 2692.00,2066.48
             2692.00,2066.48 2682.00,2064.37 2682.00,2064.37
             2682.00,2064.37 2662.01,2056.56 2662.01,2056.56
             2656.93,2054.48 2657.20,2052.67 2652.96,2051.22
             2652.96,2051.22 2639.00,2046.90 2639.00,2046.90
             2639.00,2046.90 2618.00,2039.42 2618.00,2039.42
             2618.00,2039.42 2597.00,2034.11 2597.00,2034.11
             2597.00,2034.11 2580.00,2026.84 2580.00,2026.84
             2580.00,2026.84 2572.00,2025.25 2572.00,2025.25
             2572.00,2025.25 2560.00,2020.51 2560.00,2020.51
             2560.00,2020.51 2546.42,2018.10 2546.42,2018.10
             2541.24,2016.32 2538.45,2010.91 2533.57,2007.52
             2525.06,2001.59 2514.25,1998.37 2504.00,1998.27
             2494.99,1998.19 2486.57,2003.88 2479.00,1996.00
             2468.98,1996.23 2459.46,1991.27 2450.00,1988.90
             2450.00,1988.90 2439.04,1987.15 2439.04,1987.15
             2439.04,1987.15 2431.91,1984.37 2431.91,1984.37
             2431.91,1984.37 2425.00,1982.91 2425.00,1982.91
             2425.00,1982.91 2413.00,1979.09 2413.00,1979.09
             2413.00,1979.09 2396.00,1975.23 2396.00,1975.23
             2391.96,1974.28 2383.72,1971.97 2380.00,1972.34
             2376.01,1972.73 2370.21,1975.59 2366.70,1973.68
             2365.14,1972.82 2363.32,1970.16 2361.74,1968.74
             2361.74,1968.74 2354.09,1962.74 2354.09,1962.74
             2349.42,1958.67 2346.45,1954.07 2341.00,1951.00
             2341.65,1943.96 2339.31,1939.43 2338.26,1933.00
             2338.26,1933.00 2337.55,1922.00 2337.55,1922.00
             2337.55,1922.00 2334.43,1909.00 2334.43,1909.00
             2334.43,1909.00 2332.33,1902.00 2332.33,1902.00
             2332.33,1902.00 2330.72,1881.00 2330.72,1881.00
             2330.72,1881.00 2328.04,1868.91 2328.04,1868.91
             2328.04,1868.91 2328.04,1860.00 2328.04,1860.00
             2328.04,1860.00 2325.08,1845.00 2325.08,1845.00
             2325.08,1845.00 2325.08,1826.00 2325.08,1826.00
             2325.08,1826.00 2323.94,1812.00 2323.94,1812.00
             2323.94,1812.00 2323.94,1793.00 2323.94,1793.00
             2322.77,1783.13 2319.77,1778.32 2323.94,1768.00
             2323.94,1768.00 2322.00,1768.00 2322.00,1768.00
             2325.60,1759.79 2321.02,1763.83 2321.00,1751.00
             2321.00,1751.00 2321.00,1726.00 2321.00,1726.00
             2321.00,1726.00 2320.05,1713.00 2320.05,1713.00
             2320.05,1713.00 2320.05,1700.00 2320.05,1700.00
             2320.05,1700.00 2321.33,1689.00 2321.33,1689.00
             2321.33,1689.00 2320.75,1681.00 2320.75,1681.00
             2320.75,1681.00 2321.51,1672.00 2321.51,1672.00
             2321.51,1672.00 2320.83,1666.00 2320.83,1666.00
             2320.83,1666.00 2320.83,1649.00 2320.83,1649.00
             2321.02,1639.32 2322.47,1640.62 2322.79,1637.00
             2323.06,1633.94 2321.43,1632.69 2321.41,1629.00
             2321.41,1629.00 2323.69,1613.01 2323.69,1613.01
             2324.43,1606.25 2321.37,1604.47 2327.19,1599.00
             2327.19,1599.00 2327.19,1591.83 2327.19,1591.83
             2327.19,1591.83 2330.93,1586.89 2330.93,1586.89
             2330.93,1586.89 2328.00,1579.00 2328.00,1579.00
             2333.39,1577.11 2332.79,1571.12 2329.00,1568.00
             2329.00,1568.00 2330.00,1562.00 2330.00,1562.00
             2330.00,1562.00 2334.00,1561.00 2334.00,1561.00
             2334.00,1561.00 2332.00,1546.00 2332.00,1546.00
             2332.00,1546.00 2334.00,1548.00 2334.00,1548.00
             2334.00,1548.00 2334.00,1549.00 2334.00,1549.00
             2334.00,1549.00 2336.00,1547.00 2336.00,1547.00
             2336.00,1547.00 2338.00,1548.00 2338.00,1548.00
             2335.82,1539.64 2331.98,1540.44 2331.98,1535.96
             2332.00,1540.94 2332.83,1514.53 2331.98,1519.58
             2332.76,1515.04 2335.16,1515.66 2331.98,1508.00
             2331.98,1508.00 2339.00,1502.00 2339.00,1502.00
             2339.00,1502.00 2335.00,1496.00 2335.00,1496.00
             2338.84,1493.43 2338.14,1491.08 2337.00,1487.00
             2337.00,1487.00 2342.00,1486.00 2342.00,1486.00
             2340.92,1482.99 2340.96,1483.19 2337.75,1482.00
             2339.08,1475.34 2337.09,1473.31 2337.75,1469.01
             2337.88,1465.10 2339.95,1464.41 2340.60,1459.96
             2341.20,1455.81 2341.51,1450.38 2345.22,1447.63
             2348.16,1445.41 2350.92,1446.71 2354.00,1447.63
             2362.34,1450.19 2363.07,1450.99 2372.00,1451.00
             2381.60,1451.01 2397.45,1450.64 2405.79,1445.56
             2407.92,1444.27 2409.30,1442.14 2411.15,1440.53
             2412.90,1439.00 2413.50,1438.94 2415.00,1437.00
             2415.00,1437.00 2412.00,1438.00 2412.00,1438.00
             2420.81,1430.17 2420.35,1420.15 2424.70,1410.00
             2427.05,1404.49 2431.57,1397.40 2432.00,1392.00
             2438.47,1389.80 2435.96,1386.05 2440.88,1376.42
             2440.88,1376.42 2444.18,1369.26 2444.18,1369.26
             2446.64,1365.19 2449.38,1361.34 2451.16,1356.83
             2451.16,1356.83 2453.44,1346.00 2453.44,1346.00
             2453.44,1346.00 2458.16,1333.00 2458.16,1333.00
             2458.16,1333.00 2459.94,1324.01 2459.94,1324.01
             2459.94,1324.01 2462.75,1316.83 2462.75,1316.83
             2463.34,1314.01 2462.84,1309.73 2464.68,1305.00
             2466.11,1301.33 2469.16,1297.95 2469.99,1294.00
             2469.99,1294.00 2469.30,1279.73 2469.30,1279.73
             2470.04,1273.16 2472.27,1274.58 2473.57,1266.00
             2473.57,1266.00 2476.09,1236.00 2476.09,1236.00
             2476.09,1236.00 2479.39,1223.00 2479.39,1223.00
             2479.39,1223.00 2482.00,1194.00 2482.00,1194.00
             2482.00,1194.00 2480.74,1170.00 2480.74,1170.00
             2480.74,1170.00 2479.13,1163.00 2479.13,1163.00
             2479.13,1163.00 2478.59,1156.00 2478.59,1156.00
             2478.59,1156.00 2473.86,1140.28 2473.86,1140.28
             2473.86,1140.28 2469.00,1109.00 2469.00,1109.00
             2469.00,1109.00 2476.00,1106.00 2476.00,1106.00
             2476.00,1106.00 2475.00,1103.00 2475.00,1103.00
             2475.00,1103.00 2488.00,1094.83 2488.00,1094.83
             2492.41,1092.65 2495.29,1092.92 2499.95,1089.70
             2504.85,1086.31 2505.59,1082.60 2509.26,1080.20
             2512.44,1078.11 2516.12,1077.95 2517.68,1076.92
             2519.11,1075.96 2523.24,1064.91 2522.60,1063.47
             2520.71,1059.25 2514.01,1061.94 2509.00,1057.00
             2508.22,1058.51 2507.58,1060.33 2506.42,1061.59
             2504.86,1063.28 2503.18,1063.63 2501.45,1064.90
             2498.82,1066.82 2494.18,1072.00 2491.06,1066.74
             2489.88,1064.74 2490.78,1061.95 2490.39,1059.09
             2490.01,1056.28 2488.61,1053.94 2488.71,1050.99
             2488.81,1048.12 2490.99,1042.92 2492.00,1040.00
             2489.94,1040.20 2485.87,1041.13 2484.17,1040.65
             2479.31,1039.26 2478.19,1034.00 2471.00,1034.00
             2471.00,1034.00 2470.00,1033.00 2470.00,1033.00
             2470.00,1033.00 2471.00,1030.00 2471.00,1030.00
             2471.00,1030.00 2474.00,1032.00 2474.00,1032.00
             2474.00,1032.00 2472.00,1027.00 2472.00,1027.00
             2472.00,1027.00 2469.00,1028.00 2469.00,1028.00
             2467.79,1024.38 2465.36,1018.30 2466.13,1014.58
             2467.22,1009.39 2475.73,1001.61 2469.60,995.89
             2469.60,995.89 2465.00,993.00 2465.00,993.00
             2465.00,993.00 2463.00,1000.00 2463.00,1000.00
             2463.00,1000.00 2456.00,990.00 2456.00,990.00
             2456.00,990.00 2451.00,992.00 2451.00,992.00
             2451.00,992.00 2450.00,979.00 2450.00,979.00
             2450.00,979.00 2449.00,979.00 2449.00,979.00
             2449.00,979.00 2449.00,981.00 2449.00,981.00
             2449.00,981.00 2449.00,971.00 2449.00,971.00
             2449.00,971.00 2442.00,972.00 2442.00,972.00
             2442.82,974.47 2444.75,977.73 2444.74,980.04
             2444.69,986.45 2434.29,991.25 2429.00,993.00
             2429.00,993.00 2432.00,983.00 2432.00,983.00
             2429.17,979.12 2428.94,978.78 2429.00,974.00
             2417.69,978.10 2421.80,973.97 2413.00,968.00
             2411.29,972.74 2411.28,976.79 2417.00,978.00
             2417.27,982.12 2415.62,991.39 2412.51,994.29
             2410.12,996.51 2407.73,995.81 2405.34,996.87
             2405.34,996.87 2397.00,1002.00 2397.00,1002.00
             2395.71,999.81 2393.43,997.62 2393.31,994.98
             2393.17,991.90 2396.05,988.90 2394.94,985.10
             2393.73,980.99 2389.16,981.30 2387.37,972.00
             2386.20,965.86 2388.51,960.71 2388.61,957.00
             2388.73,952.12 2386.26,951.82 2386.02,945.00
             2385.70,936.18 2387.74,933.78 2387.62,930.00
             2387.62,930.00 2386.14,922.00 2386.14,922.00
             2386.14,922.00 2387.00,907.00 2387.00,907.00
             2387.00,907.00 2383.94,886.00 2383.94,886.00
             2383.94,886.00 2383.94,873.91 2383.94,873.91
             2383.94,873.91 2382.00,867.00 2382.00,867.00
             2382.00,867.00 2382.00,860.00 2382.00,860.00
             2382.00,860.00 2379.04,851.00 2379.04,851.00
             2379.04,851.00 2375.48,830.00 2375.48,830.00
             2375.48,830.00 2370.53,815.00 2370.53,815.00
             2370.53,815.00 2368.84,802.00 2368.84,802.00
             2368.84,802.00 2365.77,785.00 2365.77,785.00
             2363.08,773.42 2361.36,774.04 2360.26,769.96
             2360.26,769.96 2355.59,749.00 2355.59,749.00
             2355.59,749.00 2354.46,739.00 2354.46,739.00
             2354.46,739.00 2351.68,732.00 2351.68,732.00
             2351.68,732.00 2347.58,715.00 2347.58,715.00
             2347.58,715.00 2345.48,707.09 2345.48,707.09
             2344.62,703.06 2346.29,701.94 2345.48,698.00
             2345.48,698.00 2343.91,692.00 2343.91,692.00
             2343.91,692.00 2342.10,683.00 2342.10,683.00
             2342.10,683.00 2341.45,675.09 2341.45,675.09
             2340.76,672.18 2339.04,670.53 2338.67,666.99
             2338.67,666.99 2338.67,659.09 2338.67,659.09
             2338.67,659.09 2336.29,652.91 2336.29,652.91
             2336.29,652.91 2333.72,641.00 2333.72,641.00
             2333.72,641.00 2327.87,624.00 2327.87,624.00
             2327.87,624.00 2324.58,609.00 2324.58,609.00
             2324.58,609.00 2317.26,588.17 2317.26,588.17
             2317.26,588.17 2315.47,580.00 2315.47,580.00
             2315.47,580.00 2312.88,574.00 2312.88,574.00
             2312.88,574.00 2307.54,558.00 2307.54,558.00
             2307.02,556.18 2307.06,554.84 2307.00,553.00
             2307.00,553.00 2305.00,555.00 2305.00,555.00
             2305.00,555.00 2302.00,543.00 2302.00,543.00
             2294.13,536.68 2297.26,535.92 2293.37,529.00
             2293.37,529.00 2285.54,517.00 2285.54,517.00
             2285.54,517.00 2281.73,509.17 2281.73,509.17
             2281.73,509.17 2269.47,493.53 2269.47,493.53
             2269.47,493.53 2263.49,488.62 2263.49,488.62
             2262.22,487.21 2255.14,474.51 2249.83,469.60
             2249.83,469.60 2242.22,463.55 2242.22,463.55
             2242.22,463.55 2229.00,451.47 2229.00,451.47
             2229.00,451.47 2222.00,446.67 2222.00,446.67
             2222.00,446.67 2209.28,436.41 2209.28,436.41
             2209.28,436.41 2200.80,428.57 2200.80,428.57
             2197.75,426.42 2195.74,426.86 2193.11,425.18
             2193.11,425.18 2184.00,418.02 2184.00,418.02
             2184.00,418.02 2176.42,413.86 2176.42,413.86
             2176.42,413.86 2168.00,406.41 2168.00,406.41
             2164.09,403.49 2159.28,402.15 2155.09,399.75
             2150.22,396.97 2139.64,388.77 2137.00,384.00
             2126.38,384.26 2126.98,380.42 2119.00,375.40
             2114.18,372.36 2112.52,372.91 2109.09,371.37
             2109.09,371.37 2103.83,368.25 2103.83,368.25
             2103.83,368.25 2094.83,363.49 2094.83,363.49
             2094.83,363.49 2079.83,357.13 2079.83,357.13
             2079.83,357.13 2074.00,353.48 2074.00,353.48
             2074.00,353.48 2067.00,350.32 2067.00,350.32
             2067.00,350.32 2056.00,343.51 2056.00,343.51
             2056.00,343.51 2041.09,336.49 2041.09,336.49
             2035.19,332.78 2030.76,324.90 2026.42,321.56
             2024.02,319.71 2020.83,319.41 2018.00,318.29
             2018.00,318.29 2006.00,312.97 2006.00,312.97
             1998.24,309.96 1989.46,311.09 1981.42,310.02
             1981.42,310.02 1966.00,305.14 1966.00,305.14
             1960.46,303.45 1955.23,303.10 1952.00,298.00
             1944.07,300.00 1945.58,296.63 1939.00,293.84
             1939.00,293.84 1931.00,291.48 1931.00,291.48
             1931.00,291.48 1915.91,284.87 1915.91,284.87
             1915.91,284.87 1907.09,282.17 1907.09,282.17
             1907.09,282.17 1898.00,278.23 1898.00,278.23
             1898.00,278.23 1891.09,276.32 1891.09,276.32
             1891.09,276.32 1884.91,273.13 1884.91,273.13
             1884.91,273.13 1876.17,270.59 1876.17,270.59
             1876.17,270.59 1869.96,267.55 1869.96,267.55
             1869.96,267.55 1865.00,266.41 1865.00,266.41
             1865.00,266.41 1828.00,258.93 1828.00,258.93
             1821.65,257.99 1815.42,256.08 1809.00,256.07
             1809.00,256.07 1786.00,256.07 1786.00,256.07
             1786.00,256.07 1778.00,258.30 1778.00,258.30
             1778.00,258.30 1752.00,259.00 1752.00,259.00
             1741.05,259.02 1721.63,264.64 1711.00,268.41
             1711.00,268.41 1694.26,273.30 1694.26,273.30
             1692.17,274.44 1690.89,276.76 1686.57,279.08
             1683.17,280.90 1680.59,280.65 1677.09,282.97
             1677.09,282.97 1670.13,288.42 1670.13,288.42
             1670.13,288.42 1655.00,294.30 1655.00,294.30
             1655.00,294.30 1633.00,308.41 1633.00,308.41
             1633.00,308.41 1620.04,314.36 1620.04,314.36
             1616.57,315.67 1615.26,314.96 1610.99,317.04
             1610.99,317.04 1580.00,331.79 1580.00,331.79
             1577.11,332.27 1570.02,332.34 1567.00,331.79 Z
           M 1668.00,290.00
           C 1668.00,290.00 1668.00,291.00 1668.00,291.00
             1668.00,291.00 1667.00,290.00 1667.00,290.00
             1667.00,290.00 1668.00,290.00 1668.00,290.00 Z
           M 1323.00,552.00
           C 1323.00,552.00 1323.00,553.00 1323.00,553.00
             1323.00,553.00 1322.00,552.00 1322.00,552.00
             1322.00,552.00 1323.00,552.00 1323.00,552.00 Z
           M 1279.00,656.00
           C 1279.00,656.00 1279.00,657.00 1279.00,657.00
             1279.00,657.00 1278.00,656.00 1278.00,656.00
             1278.00,656.00 1279.00,656.00 1279.00,656.00 Z
           M 2450.00,976.00
           C 2450.00,976.00 2451.00,979.00 2451.00,979.00
             2451.00,979.00 2454.00,976.00 2454.00,976.00
             2454.00,976.00 2450.00,976.00 2450.00,976.00 Z
           M 2455.00,983.00
           C 2455.00,983.00 2455.00,984.00 2455.00,984.00
             2455.00,984.00 2456.00,983.00 2456.00,983.00
             2456.00,983.00 2455.00,983.00 2455.00,983.00 Z
           M 2459.00,988.00
           C 2459.00,988.00 2458.00,992.00 2458.00,992.00
             2458.00,992.00 2462.00,992.00 2462.00,992.00
             2462.00,992.00 2459.00,988.00 2459.00,988.00 Z
           M 1409.00,2069.00
           C 1409.00,2069.00 1409.00,2070.00 1409.00,2070.00
             1409.00,2070.00 1408.00,2069.00 1408.00,2069.00
             1408.00,2069.00 1409.00,2069.00 1409.00,2069.00 Z
           M 1399.00,2074.00
           C 1399.00,2074.00 1399.00,2075.00 1399.00,2075.00
             1399.00,2075.00 1398.00,2074.00 1398.00,2074.00
             1398.00,2074.00 1399.00,2074.00 1399.00,2074.00 Z
           M 2728.00,2082.00
           C 2728.00,2082.00 2728.00,2083.00 2728.00,2083.00
             2728.00,2083.00 2727.00,2082.00 2727.00,2082.00
             2727.00,2082.00 2728.00,2082.00 2728.00,2082.00 Z
           M 1269.00,2141.00
           C 1269.00,2141.00 1269.00,2142.00 1269.00,2142.00
             1269.00,2142.00 1268.00,2141.00 1268.00,2141.00
             1268.00,2141.00 1269.00,2141.00 1269.00,2141.00 Z
           M 3125.00,2252.00
           C 3125.00,2252.00 3125.00,2253.00 3125.00,2253.00
             3125.00,2253.00 3124.00,2252.00 3124.00,2252.00
             3124.00,2252.00 3125.00,2252.00 3125.00,2252.00 Z
           M 3619.00,2573.00
           C 3619.00,2573.00 3619.00,2574.00 3619.00,2574.00
             3619.00,2574.00 3618.00,2573.00 3618.00,2573.00
             3618.00,2573.00 3619.00,2573.00 3619.00,2573.00 Z
           M 495.00,2620.00
           C 495.00,2620.00 495.00,2621.00 495.00,2621.00
             495.00,2621.00 494.00,2620.00 494.00,2620.00
             494.00,2620.00 495.00,2620.00 495.00,2620.00 Z
           M 494.00,2621.00
           C 494.00,2621.00 494.00,2622.00 494.00,2622.00
             494.00,2622.00 493.00,2621.00 493.00,2621.00
             493.00,2621.00 494.00,2621.00 494.00,2621.00 Z
           M 3652.00,2635.00
           C 3652.00,2635.00 3652.00,2636.00 3652.00,2636.00
             3652.00,2636.00 3651.00,2635.00 3651.00,2635.00
             3651.00,2635.00 3652.00,2635.00 3652.00,2635.00 Z
           M 3683.00,2700.00
           C 3683.00,2700.00 3683.00,2701.00 3683.00,2701.00
             3683.00,2701.00 3682.00,2700.00 3682.00,2700.00
             3682.00,2700.00 3683.00,2700.00 3683.00,2700.00 Z
           M 319.00,2915.00
           C 319.00,2915.00 319.00,2916.00 319.00,2916.00
             319.00,2916.00 318.00,2915.00 318.00,2915.00
             318.00,2915.00 319.00,2915.00 319.00,2915.00 Z
           M 318.00,2916.00
           C 318.00,2916.00 318.00,2917.00 318.00,2917.00
             318.00,2917.00 317.00,2916.00 317.00,2916.00
             317.00,2916.00 318.00,2916.00 318.00,2916.00 Z
           M 267.00,3053.00
           C 267.00,3053.00 267.00,3054.00 267.00,3054.00
             267.00,3054.00 266.00,3053.00 266.00,3053.00
             266.00,3053.00 267.00,3053.00 267.00,3053.00 Z
           M 243.00,3136.00
           C 243.00,3136.00 243.00,3141.00 243.00,3141.00
             243.00,3141.00 243.00,3136.00 243.00,3136.00 Z" />
</svg>
