<?xml version="1.0" encoding="UTF-8" standalone="no"?>
<!DOCTYPE svg PUBLIC "-//W3C//DTD SVG 20010904//EN"
              "http://www.w3.org/TR/2001/REC-SVG-20010904/DTD/svg10.dtd">

<svg xmlns="http://www.w3.org/2000/svg"
     width="11.5633in" height="14.5867in"
     viewBox="0 0 3469 4376">
  <path id="face"
        fill="none" stroke="black" stroke-width="1"
        d="M 1585.00,442.00
           C 1578.69,449.21 1561.46,452.25 1552.00,452.00
             1548.51,458.40 1539.34,457.28 1533.00,458.32
             1533.00,458.32 1521.00,461.00 1521.00,461.00
             1517.76,464.20 1511.31,465.45 1506.83,466.96
             1506.83,466.96 1497.00,470.29 1497.00,470.29
             1497.00,470.29 1489.00,472.52 1489.00,472.52
             1482.57,475.12 1472.77,480.26 1466.00,480.00
             1460.63,485.02 1446.97,487.41 1440.00,490.58
             1440.00,490.58 1431.00,495.49 1431.00,495.49
             1431.00,495.49 1405.17,507.64 1405.17,507.64
             1405.17,507.64 1396.00,512.74 1396.00,512.74
             1396.00,512.74 1378.16,519.24 1378.16,519.24
             1378.16,519.24 1368.00,526.54 1368.00,526.54
             1368.00,526.54 1357.29,531.59 1357.29,531.59
             1351.69,535.33 1351.48,538.14 1344.00,539.00
             1342.96,542.45 1336.02,545.99 1332.85,548.31
             1332.85,548.31 1323.07,555.38 1323.07,555.38
             1323.07,555.38 1310.72,567.45 1310.72,567.45
             1307.42,570.24 1301.27,575.64 1301.00,580.00
             1295.91,581.13 1288.67,588.81 1286.04,593.32
             1286.04,593.32 1283.28,599.00 1283.28,599.00
             1283.28,599.00 1272.28,613.74 1272.28,613.74
             1272.28,613.74 1268.08,618.23 1268.08,618.23
             1268.08,618.23 1254.88,639.58 1254.88,639.58
             1254.88,639.58 1244.42,656.00 1244.42,656.00
             1244.42,656.00 1238.30,668.00 1238.30,668.00
             1238.30,668.00 1232.19,678.00 1232.19,678.00
             1232.19,678.00 1227.68,690.00 1227.68,690.00
             1227.68,690.00 1226.33,697.00 1226.33,697.00
             1226.33,697.00 1220.74,712.00 1220.74,712.00
             1220.74,712.00 1217.32,724.91 1217.32,724.91
             1217.32,724.91 1215.08,730.17 1215.08,730.17
             1215.08,730.17 1211.62,747.00 1211.62,747.00
             1209.68,754.39 1207.96,754.06 1206.34,759.00
             1206.34,759.00 1204.46,770.00 1204.46,770.00
             1204.46,770.00 1201.97,776.00 1201.97,776.00
             1199.69,782.15 1199.89,788.35 1194.77,793.00
             1194.77,793.00 1194.77,795.45 1194.77,795.45
             1194.77,795.45 1188.07,809.91 1188.07,809.91
             1188.07,809.91 1183.61,817.04 1183.61,817.04
             1183.61,817.04 1178.90,835.41 1178.90,835.41
             1178.90,835.41 1174.39,845.01 1174.39,845.01
             1174.39,845.01 1172.99,868.00 1172.99,868.00
             1172.99,868.00 1172.01,882.00 1172.01,882.00
             1172.01,882.00 1173.91,895.00 1173.91,895.00
             1173.91,895.00 1173.09,911.00 1173.09,911.00
             1173.09,911.00 1175.00,930.00 1175.00,930.00
             1175.00,930.00 1173.16,957.00 1173.16,957.00
             1173.16,957.00 1170.28,973.00 1170.28,973.00
             1170.28,973.00 1169.18,991.00 1169.18,991.00
             1169.18,991.00 1171.39,1005.00 1171.39,1005.00
             1171.39,1005.00 1173.85,1028.00 1173.85,1028.00
             1173.85,1028.00 1173.85,1037.00 1173.85,1037.00
             1173.85,1037.00 1173.85,1049.00 1173.85,1049.00
             1173.85,1049.00 1173.00,1064.00 1173.00,1064.00
             1168.63,1067.92 1174.71,1078.30 1164.00,1081.00
             1163.53,1085.81 1160.16,1087.37 1156.00,1089.00
             1156.00,1089.00 1155.21,1090.81 1155.21,1090.81
             1155.21,1090.81 1145.89,1098.45 1145.89,1098.45
             1145.89,1098.45 1144.00,1099.00 1144.00,1099.00
             1141.29,1102.65 1140.44,1103.73 1136.00,1105.00
             1135.56,1110.07 1132.29,1111.57 1129.23,1115.17
             1126.80,1118.04 1120.90,1127.39 1120.26,1131.00
             1118.26,1142.43 1135.05,1151.85 1143.00,1146.00
             1143.00,1146.00 1155.00,1151.00 1155.00,1151.00
             1155.00,1151.00 1155.00,1146.00 1155.00,1146.00
             1155.00,1146.00 1159.00,1143.00 1159.00,1143.00
             1159.00,1143.00 1161.00,1144.00 1161.00,1144.00
             1161.00,1144.00 1172.00,1135.44 1172.00,1135.44
             1172.00,1135.44 1177.42,1139.29 1177.42,1139.29
             1177.42,1139.29 1186.00,1156.00 1186.00,1156.00
             1181.73,1155.06 1179.29,1156.02 1175.00,1156.54
             1170.84,1157.04 1162.37,1157.34 1159.09,1159.60
             1154.47,1162.78 1153.48,1167.10 1151.96,1172.00
             1151.96,1172.00 1149.38,1180.00 1149.38,1180.00
             1149.38,1180.00 1148.00,1198.00 1148.00,1198.00
             1147.92,1215.48 1149.30,1218.94 1150.96,1235.00
             1150.96,1235.00 1150.96,1244.00 1150.96,1244.00
             1150.96,1244.00 1152.00,1257.00 1152.00,1257.00
             1152.00,1257.00 1150.98,1267.00 1150.98,1267.00
             1150.98,1267.00 1150.98,1276.00 1150.98,1276.00
             1150.98,1276.00 1149.37,1289.00 1149.37,1289.00
             1149.37,1289.00 1149.96,1296.00 1149.96,1296.00
             1149.96,1296.00 1149.96,1307.00 1149.96,1307.00
             1150.05,1318.09 1151.35,1327.16 1153.29,1338.00
             1154.85,1346.74 1155.94,1341.93 1156.00,1354.00
             1156.03,1359.68 1156.74,1375.49 1161.00,1379.00
             1160.82,1381.71 1162.62,1396.28 1163.55,1398.72
             1163.55,1398.72 1167.06,1405.01 1167.06,1405.01
             1167.06,1405.01 1175.32,1425.28 1175.32,1425.28
             1178.01,1431.57 1176.44,1437.82 1183.00,1440.00
             1183.81,1449.57 1185.34,1447.77 1188.81,1455.01
             1188.81,1455.01 1191.78,1461.54 1191.78,1461.54
             1191.78,1461.54 1196.37,1467.16 1196.37,1467.16
             1196.37,1467.16 1203.52,1480.00 1203.52,1480.00
             1203.52,1480.00 1205.79,1487.00 1205.79,1487.00
             1208.13,1493.41 1214.02,1504.62 1220.00,1508.00
             1220.00,1508.00 1219.00,1510.00 1219.00,1510.00
             1219.00,1510.00 1227.28,1516.01 1227.28,1516.01
             1227.28,1516.01 1235.96,1520.51 1235.96,1520.51
             1235.96,1520.51 1241.28,1524.01 1241.28,1524.01
             1245.19,1526.24 1246.30,1525.72 1251.58,1529.25
             1254.33,1531.09 1260.29,1533.51 1261.28,1536.21
             1262.27,1538.38 1261.40,1541.69 1261.28,1544.00
             1261.28,1544.00 1260.05,1559.00 1260.05,1559.00
             1260.16,1564.86 1260.36,1567.58 1256.00,1572.00
             1256.00,1572.00 1256.00,1568.00 1256.00,1568.00
             1252.27,1573.76 1254.18,1583.77 1252.81,1586.82
             1252.11,1588.38 1251.16,1588.93 1250.00,1590.00
             1250.00,1590.00 1250.86,1599.69 1250.86,1599.69
             1250.86,1599.69 1258.23,1605.23 1258.23,1605.23
             1258.23,1605.23 1255.50,1622.00 1255.50,1622.00
             1255.50,1622.00 1263.74,1641.00 1263.74,1641.00
             1263.74,1641.00 1258.00,1656.00 1258.00,1656.00
             1258.00,1656.00 1254.00,1656.00 1254.00,1656.00
             1257.94,1662.07 1264.54,1659.48 1267.57,1665.13
             1268.65,1667.13 1269.84,1674.32 1270.42,1677.00
             1270.42,1677.00 1278.16,1720.82 1278.16,1720.82
             1280.68,1726.31 1288.68,1724.31 1292.40,1728.51
             1294.32,1730.67 1293.99,1734.28 1294.00,1737.00
             1294.00,1737.00 1294.00,1766.00 1294.00,1766.00
             1294.03,1781.43 1306.96,1802.87 1312.05,1818.00
             1312.05,1818.00 1315.21,1836.00 1315.21,1836.00
             1315.21,1836.00 1342.64,1883.00 1342.64,1883.00
             1342.64,1883.00 1345.32,1891.00 1345.32,1891.00
             1345.32,1891.00 1365.44,1938.99 1365.44,1938.99
             1365.44,1938.99 1369.12,1945.28 1369.12,1945.28
             1369.12,1945.28 1372.32,1953.00 1372.32,1953.00
             1372.32,1953.00 1395.15,1993.00 1395.15,1993.00
             1395.15,1993.00 1418.10,2033.00 1418.10,2033.00
             1418.10,2033.00 1445.25,2066.00 1445.25,2066.00
             1445.25,2066.00 1477.09,2104.00 1477.09,2104.00
             1477.09,2104.00 1492.00,2118.09 1492.00,2118.09
             1492.00,2118.09 1507.00,2132.17 1507.00,2132.17
             1507.00,2132.17 1542.00,2164.38 1542.00,2164.38
             1542.00,2164.38 1580.00,2186.42 1580.00,2186.42
             1590.81,2192.62 1609.95,2204.25 1621.00,2208.05
             1621.00,2208.05 1631.00,2210.42 1631.00,2210.42
             1631.00,2210.42 1675.00,2221.88 1675.00,2221.88
             1675.00,2221.88 1720.00,2233.54 1720.00,2233.54
             1720.00,2233.54 1745.00,2236.17 1745.00,2236.17
             1745.00,2236.17 1769.00,2238.00 1769.00,2238.00
             1769.00,2238.00 1806.00,2234.16 1806.00,2234.16
             1815.26,2233.17 1826.07,2232.75 1835.00,2230.53
             1835.00,2230.53 1862.00,2222.69 1862.00,2222.69
             1862.00,2222.69 1913.00,2194.28 1913.00,2194.28
             1913.00,2194.28 1942.00,2177.58 1942.00,2177.58
             1942.00,2177.58 1982.00,2150.42 1982.00,2150.42
             1982.00,2150.42 2003.91,2135.33 2003.91,2135.33
             2003.91,2135.33 2017.00,2122.01 2017.00,2122.01
             2017.00,2122.01 2038.00,2102.00 2038.00,2102.00
             2038.00,2102.00 2057.44,2082.00 2057.44,2082.00
             2057.44,2082.00 2062.06,2073.00 2062.06,2073.00
             2062.06,2073.00 2090.90,2028.17 2090.90,2028.17
             2090.90,2028.17 2097.22,2020.99 2097.22,2020.99
             2097.22,2020.99 2116.05,1991.00 2116.05,1991.00
             2116.05,1991.00 2168.00,1903.00 2168.00,1903.00
             2168.00,1903.00 2186.75,1869.00 2186.75,1869.00
             2188.48,1865.52 2193.34,1855.37 2193.78,1852.00
             2194.13,1849.19 2193.25,1845.02 2193.00,1842.00
             2194.46,1841.95 2196.25,1842.06 2197.61,1841.43
             2201.48,1839.62 2203.21,1832.83 2203.00,1829.00
             2204.14,1828.21 2204.62,1828.24 2205.27,1826.73
             2206.76,1823.22 2202.87,1811.30 2202.00,1807.00
             2202.00,1807.00 2207.00,1808.00 2207.00,1808.00
             2207.00,1808.00 2207.00,1802.00 2207.00,1802.00
             2207.00,1802.00 2210.00,1802.00 2210.00,1802.00
             2210.00,1802.00 2213.21,1787.00 2213.21,1787.00
             2213.21,1787.00 2213.21,1776.00 2213.21,1776.00
             2213.21,1776.00 2216.08,1777.00 2216.08,1777.00
             2215.04,1773.57 2215.13,1763.39 2216.08,1760.00
             2216.08,1760.00 2219.49,1752.28 2219.49,1752.28
             2219.94,1749.77 2218.64,1747.27 2218.63,1744.00
             2218.63,1744.00 2220.00,1721.00 2220.00,1721.00
             2220.00,1721.00 2229.00,1726.00 2229.00,1726.00
             2229.00,1726.00 2228.04,1713.00 2228.04,1713.00
             2228.04,1713.00 2228.04,1700.00 2228.04,1700.00
             2228.04,1700.00 2230.00,1704.00 2230.00,1704.00
             2230.00,1704.00 2233.00,1703.00 2233.00,1703.00
             2233.00,1703.00 2234.24,1680.00 2234.24,1680.00
             2234.24,1680.00 2237.34,1671.00 2237.34,1671.00
             2237.34,1671.00 2237.34,1661.72 2237.34,1661.72
             2237.34,1661.72 2239.55,1652.91 2239.55,1652.91
             2239.55,1652.91 2237.09,1633.00 2237.09,1633.00
             2237.09,1633.00 2239.97,1619.00 2239.97,1619.00
             2239.97,1619.00 2234.04,1600.00 2234.04,1600.00
             2234.04,1600.00 2236.00,1582.00 2236.00,1582.00
             2236.00,1582.00 2242.00,1589.00 2242.00,1589.00
             2242.00,1589.00 2244.00,1584.00 2244.00,1584.00
             2244.00,1584.00 2241.79,1567.00 2241.79,1567.00
             2241.79,1567.00 2240.00,1556.00 2240.00,1556.00
             2240.00,1556.00 2242.00,1557.00 2242.00,1557.00
             2241.53,1548.53 2239.75,1549.77 2238.18,1543.91
             2235.98,1535.71 2236.87,1525.99 2242.80,1519.43
             2246.00,1515.88 2252.72,1515.85 2257.00,1514.32
             2264.34,1511.68 2271.36,1504.59 2273.00,1497.00
             2273.00,1497.00 2275.00,1498.00 2275.00,1498.00
             2278.70,1490.67 2277.85,1490.68 2279.80,1483.42
             2283.96,1467.91 2283.97,1467.02 2284.00,1451.00
             2284.02,1440.88 2285.41,1443.83 2287.46,1438.72
             2287.46,1438.72 2289.05,1433.17 2289.05,1433.17
             2289.05,1433.17 2300.14,1408.00 2300.14,1408.00
             2303.75,1399.03 2304.33,1388.71 2312.00,1382.00
             2311.83,1376.17 2316.62,1366.68 2318.94,1361.00
             2318.94,1361.00 2326.07,1340.00 2326.07,1340.00
             2326.07,1340.00 2331.13,1329.00 2331.13,1329.00
             2331.13,1329.00 2337.01,1313.47 2337.01,1313.47
             2338.07,1312.12 2338.67,1312.36 2340.00,1312.00
             2340.28,1303.07 2342.93,1300.24 2344.62,1293.00
             2344.62,1293.00 2352.44,1250.00 2352.44,1250.00
             2354.17,1239.02 2357.42,1233.89 2356.00,1222.00
             2358.92,1219.38 2357.98,1211.90 2358.00,1208.00
             2358.00,1208.00 2358.00,1185.00 2358.00,1185.00
             2357.96,1176.06 2356.28,1170.43 2354.24,1162.00
             2352.49,1154.76 2355.76,1152.14 2347.91,1144.72
             2346.33,1143.23 2343.90,1140.97 2342.00,1140.02
             2338.22,1138.13 2327.48,1138.00 2323.00,1138.00
             2323.00,1138.00 2333.00,1120.00 2333.00,1120.00
             2330.90,1107.66 2335.24,1105.96 2335.87,1100.91
             2336.21,1098.16 2335.52,1095.68 2335.32,1093.00
             2334.64,1083.83 2337.78,1080.97 2339.71,1074.00
             2339.71,1074.00 2344.33,1057.00 2344.33,1057.00
             2344.33,1057.00 2345.55,1048.00 2345.55,1048.00
             2345.55,1048.00 2348.59,1040.00 2348.59,1040.00
             2348.59,1040.00 2352.00,989.00 2352.00,989.00
             2349.10,985.35 2349.50,980.52 2348.87,976.00
             2348.87,976.00 2346.29,961.00 2346.29,961.00
             2346.29,961.00 2344.94,947.00 2344.94,947.00
             2344.32,942.61 2343.58,942.49 2342.63,939.00
             2342.63,939.00 2340.18,925.00 2340.18,925.00
             2339.39,918.40 2340.89,911.30 2340.70,909.00
             2340.34,904.65 2337.66,902.40 2336.77,897.72
             2336.77,897.72 2333.56,869.00 2333.56,869.00
             2331.71,858.30 2326.24,848.06 2327.00,837.00
             2327.00,837.00 2325.51,836.17 2325.51,836.17
             2325.51,836.17 2322.28,821.01 2322.28,821.01
             2322.28,821.01 2312.99,796.00 2312.99,796.00
             2312.99,796.00 2311.44,786.28 2311.44,786.28
             2311.44,786.28 2308.00,779.00 2308.00,779.00
             2303.38,777.36 2304.52,771.72 2303.27,767.98
             2300.98,761.10 2295.19,760.54 2294.00,746.00
             2290.43,744.94 2288.56,741.01 2286.72,737.91
             2282.70,731.14 2276.48,724.28 2277.00,716.00
             2277.00,716.00 2273.46,711.24 2273.46,711.24
             2271.22,708.69 2269.07,708.22 2267.14,704.95
             2267.14,704.95 2264.75,699.17 2264.75,699.17
             2264.75,699.17 2261.24,692.96 2261.24,692.96
             2261.24,692.96 2256.98,682.00 2256.98,682.00
             2256.98,682.00 2252.30,673.00 2252.30,673.00
             2252.30,673.00 2248.13,663.00 2248.13,663.00
             2248.13,663.00 2237.17,642.03 2237.17,642.03
             2234.40,637.79 2233.59,639.11 2229.13,631.00
             2224.41,622.42 2217.28,615.86 2211.54,607.99
             2209.31,604.93 2207.70,599.92 2204.00,599.00
             2204.00,599.00 2197.00,588.00 2197.00,588.00
             2197.00,588.00 2193.00,588.00 2193.00,588.00
             2188.83,580.96 2180.75,571.06 2174.63,565.59
             2174.63,565.59 2164.25,557.46 2164.25,557.46
             2164.25,557.46 2154.79,548.66 2154.79,548.66
             2154.79,548.66 2147.09,542.72 2147.09,542.72
             2147.09,542.72 2137.64,533.59 2137.64,533.59
             2137.64,533.59 2118.72,516.88 2118.72,516.88
             2112.86,512.33 2111.74,512.35 2106.00,509.02
             2106.00,509.02 2092.13,499.35 2092.13,499.35
             2092.13,499.35 2084.63,491.88 2084.63,491.88
             2084.63,491.88 2075.00,486.96 2075.00,486.96
             2067.28,482.61 2067.16,481.37 2058.00,477.21
             2058.00,477.21 2049.84,473.74 2049.84,473.74
             2048.16,472.72 2048.12,471.81 2044.89,470.01
             2044.89,470.01 2031.00,463.25 2031.00,463.25
             2031.00,463.25 2024.00,458.71 2024.00,458.71
             2020.37,456.55 2014.41,451.20 2011.00,455.00
             2011.00,455.00 1993.99,448.71 1993.99,448.71
             1993.99,448.71 1980.00,443.29 1980.00,443.29
             1980.00,443.29 1969.00,441.24 1969.00,441.24
             1969.00,441.24 1953.00,436.17 1953.00,436.17
             1953.00,436.17 1932.00,432.42 1932.00,432.42
             1932.00,432.42 1924.00,431.70 1924.00,431.70
             1924.00,431.70 1918.00,429.54 1918.00,429.54
             1918.00,429.54 1909.01,428.37 1909.01,428.37
             1909.01,428.37 1901.83,426.23 1901.83,426.23
             1901.83,426.23 1870.00,424.00 1870.00,424.00
             1870.00,424.00 1853.00,423.34 1853.00,423.34
             1853.00,423.34 1839.00,423.34 1839.00,423.34
             1839.00,423.34 1821.83,411.70 1821.83,411.70
             1821.83,411.70 1805.00,405.29 1805.00,405.29
             1805.00,405.29 1773.00,400.09 1773.00,400.09
             1773.00,400.09 1768.00,400.09 1768.00,400.09
             1768.00,400.09 1744.00,400.09 1744.00,400.09
             1744.00,400.09 1726.00,402.61 1726.00,402.61
             1726.00,402.61 1715.00,401.18 1715.00,401.18
             1715.00,401.18 1708.00,401.91 1708.00,401.91
             1708.00,401.91 1683.00,404.17 1683.00,404.17
             1683.00,404.17 1660.00,409.59 1660.00,409.59
             1660.00,409.59 1653.00,412.23 1653.00,412.23
             1653.00,412.23 1645.00,414.44 1645.00,414.44
             1645.00,414.44 1637.58,417.67 1637.58,417.67
             1637.58,417.67 1623.04,423.05 1623.04,423.05
             1623.04,423.05 1606.80,431.28 1606.80,431.28
             1606.80,431.28 1599.02,434.68 1599.02,434.68
             1599.02,434.68 1585.00,442.00 1585.00,442.00 Z
           M 1477.00,478.00
           C 1477.00,478.00 1477.00,479.00 1477.00,479.00
             1477.00,479.00 1476.00,478.00 1476.00,478.00
             1476.00,478.00 1477.00,478.00 1477.00,478.00 Z
           M 1449.00,488.00
           C 1449.00,488.00 1449.00,489.00 1449.00,489.00
             1449.00,489.00 1448.00,488.00 1448.00,488.00
             1448.00,488.00 1449.00,488.00 1449.00,488.00 Z
           M 2339.00,1308.00
           C 2339.00,1308.00 2339.00,1309.00 2339.00,1309.00
             2339.00,1309.00 2338.00,1308.00 2338.00,1308.00
             2338.00,1308.00 2339.00,1308.00 2339.00,1308.00 Z
           M 2240.00,1663.00
           C 2240.00,1663.00 2240.00,1664.00 2240.00,1664.00
             2240.00,1664.00 2241.00,1663.00 2241.00,1663.00
             2241.00,1663.00 2240.00,1663.00 2240.00,1663.00 Z
           M 2238.00,1664.00
           C 2238.00,1664.00 2238.00,1665.00 2238.00,1665.00
             2238.00,1665.00 2239.00,1664.00 2239.00,1664.00
             2239.00,1664.00 2238.00,1664.00 2238.00,1664.00 Z
           M 2221.00,1750.00
           C 2221.00,1750.00 2221.00,1751.00 2221.00,1751.00
             2221.00,1751.00 2222.00,1750.00 2222.00,1750.00
             2222.00,1750.00 2221.00,1750.00 2221.00,1750.00 Z" />
  <path id="profile"
        fill="none" stroke="black" stroke-width="1"
        d="M 1585.00,442.00
           C 1585.00,442.00 1579.00,445.00 1579.00,445.00
             1577.81,448.71 1575.14,447.94 1571.83,448.62
             1563.62,450.30 1561.36,452.24 1552.00,452.00
             1547.97,458.43 1537.57,457.29 1531.00,458.41
             1531.00,458.41 1521.00,461.00 1521.00,461.00
             1517.52,464.44 1516.38,463.59 1512.09,465.09
             1512.09,465.09 1491.00,471.70 1491.00,471.70
             1491.00,471.70 1471.09,479.60 1471.09,479.60
             1471.09,479.60 1465.83,480.90 1465.83,480.90
             1465.83,480.90 1451.28,486.79 1451.28,486.79
             1447.14,488.19 1446.52,487.24 1440.00,490.44
             1440.00,490.44 1418.28,501.17 1418.28,501.17
             1413.33,503.57 1409.93,506.79 1404.00,507.00
             1396.50,515.06 1387.29,514.50 1378.26,518.84
             1378.26,518.84 1368.00,526.49 1368.00,526.49
             1368.00,526.49 1357.01,531.66 1357.01,531.66
             1351.21,535.40 1351.73,538.11 1344.00,539.00
             1342.88,542.72 1338.42,544.11 1335.42,546.34
             1335.42,546.34 1323.45,554.77 1323.45,554.77
             1323.45,554.77 1313.28,565.16 1313.28,565.16
             1309.45,568.51 1305.33,569.69 1305.00,575.00
             1300.33,577.04 1288.50,588.98 1285.84,593.32
             1285.84,593.32 1283.19,598.91 1283.19,598.91
             1283.19,598.91 1268.04,618.17 1268.04,618.17
             1264.06,623.29 1263.31,626.76 1258.00,631.00
             1257.84,637.16 1251.33,644.95 1247.89,650.00
             1247.89,650.00 1232.18,678.00 1232.18,678.00
             1232.18,678.00 1227.62,689.83 1227.62,689.83
             1227.62,689.83 1226.33,697.01 1226.33,697.01
             1226.33,697.01 1220.54,712.00 1220.54,712.00
             1220.54,712.00 1217.22,724.54 1217.22,724.54
             1217.22,724.54 1215.07,730.17 1215.07,730.17
             1215.07,730.17 1210.96,749.00 1210.96,749.00
             1209.51,753.90 1207.70,754.92 1206.26,759.00
             1204.62,763.61 1205.41,766.71 1204.46,770.00
             1204.46,770.00 1201.92,776.00 1201.92,776.00
             1200.21,780.34 1198.42,787.37 1198.00,792.00
             1193.14,793.20 1190.38,804.65 1188.51,808.96
             1187.15,812.09 1184.35,814.47 1182.21,820.00
             1182.21,820.00 1178.61,835.00 1178.61,835.00
             1177.41,838.92 1175.34,840.47 1174.43,844.00
             1174.43,844.00 1173.83,855.00 1173.83,855.00
             1173.83,855.00 1171.71,880.00 1171.71,880.00
             1171.71,880.00 1173.68,895.00 1173.68,895.00
             1173.68,895.00 1173.00,906.00 1173.00,906.00
             1173.00,906.00 1175.00,931.00 1175.00,931.00
             1175.25,953.02 1167.72,975.87 1169.09,994.00
             1169.09,994.00 1171.25,1005.00 1171.25,1005.00
             1172.99,1015.45 1174.18,1025.43 1173.51,1036.00
             1173.12,1042.20 1175.98,1049.60 1172.00,1055.00
             1172.00,1055.00 1173.00,1064.00 1173.00,1064.00
             1167.91,1068.56 1175.42,1074.07 1166.00,1079.00
             1166.00,1079.00 1164.00,1081.00 1164.00,1081.00
             1164.00,1081.00 1160.91,1086.21 1160.91,1086.21
             1160.91,1086.21 1142.00,1100.00 1142.00,1100.00
             1141.29,1103.59 1139.29,1104.08 1136.00,1105.00
             1135.57,1110.05 1132.26,1111.65 1129.13,1115.15
             1127.14,1117.39 1120.76,1127.36 1120.24,1130.17
             1117.91,1142.67 1134.85,1152.00 1143.00,1146.00
             1143.00,1146.00 1155.00,1151.00 1155.00,1151.00
             1155.00,1151.00 1156.00,1145.00 1156.00,1145.00
             1160.64,1144.03 1162.27,1142.89 1165.83,1139.74
             1167.43,1138.33 1169.76,1135.54 1172.00,1135.45
             1174.24,1135.37 1175.76,1137.41 1176.95,1139.02
             1176.95,1139.02 1185.00,1154.00 1185.00,1154.00
             1172.95,1158.55 1164.38,1155.30 1158.02,1160.31
             1156.22,1161.73 1154.30,1163.86 1153.26,1165.91
             1152.18,1168.04 1148.78,1181.68 1148.75,1184.00
             1148.75,1184.00 1147.87,1197.00 1147.87,1197.00
             1147.87,1197.00 1147.87,1207.00 1147.87,1207.00
             1147.87,1207.00 1150.90,1234.00 1150.90,1234.00
             1150.90,1234.00 1150.90,1245.00 1150.90,1245.00
             1150.90,1245.00 1151.96,1253.00 1151.96,1253.00
             1151.96,1253.00 1150.87,1275.96 1150.87,1275.96
             1150.87,1275.96 1149.32,1282.17 1149.32,1282.17
             1149.32,1282.17 1149.32,1294.00 1149.32,1294.00
             1149.32,1294.00 1150.37,1325.00 1150.37,1325.00
             1150.37,1325.00 1155.45,1347.00 1155.45,1347.00
             1155.45,1347.00 1156.76,1364.00 1156.76,1364.00
             1156.76,1364.00 1156.76,1370.00 1156.76,1370.00
             1156.76,1370.00 1161.54,1386.17 1161.54,1386.17
             1161.54,1386.17 1163.27,1397.83 1163.27,1397.83
             1163.27,1397.83 1166.90,1405.01 1166.90,1405.01
             1166.90,1405.01 1175.69,1427.00 1175.69,1427.00
             1175.69,1427.00 1178.87,1437.74 1178.87,1437.74
             1178.87,1437.74 1182.59,1443.13 1182.59,1443.13
             1182.59,1443.13 1184.88,1448.83 1184.88,1448.83
             1184.88,1448.83 1188.76,1455.04 1188.76,1455.04
             1188.76,1455.04 1191.64,1461.58 1191.64,1461.58
             1191.64,1461.58 1201.00,1476.04 1201.00,1476.04
             1201.00,1476.04 1206.03,1488.00 1206.03,1488.00
             1206.03,1488.00 1211.06,1497.96 1211.06,1497.96
             1213.92,1504.03 1222.32,1514.74 1229.00,1516.00
             1231.25,1519.00 1232.83,1518.92 1235.96,1520.63
             1235.96,1520.63 1242.16,1524.49 1242.16,1524.49
             1246.99,1527.00 1253.00,1528.61 1253.84,1535.00
             1254.68,1541.43 1250.12,1549.86 1253.00,1560.00
             1253.00,1560.00 1255.00,1560.00 1255.00,1560.00
             1255.00,1560.00 1256.00,1556.00 1256.00,1556.00
             1256.00,1556.00 1260.00,1556.00 1260.00,1556.00
             1260.04,1562.98 1261.39,1566.54 1256.00,1572.00
             1256.00,1572.00 1256.00,1568.00 1256.00,1568.00
             1256.00,1568.00 1254.00,1568.00 1254.00,1568.00
             1254.00,1568.00 1252.00,1584.00 1252.00,1584.00
             1252.00,1584.00 1254.00,1588.00 1254.00,1588.00
             1248.12,1591.67 1250.06,1593.57 1247.44,1599.00
             1247.44,1599.00 1242.00,1608.00 1242.00,1608.00
             1242.00,1608.00 1246.00,1607.00 1246.00,1607.00
             1246.00,1607.00 1247.00,1616.00 1247.00,1616.00
             1247.00,1616.00 1252.00,1605.00 1252.00,1605.00
             1254.22,1609.32 1255.69,1613.87 1251.00,1617.00
             1251.73,1619.51 1255.63,1624.07 1252.00,1625.00
             1252.00,1625.00 1250.47,1638.72 1250.47,1638.72
             1250.47,1638.72 1258.00,1656.00 1258.00,1656.00
             1258.00,1656.00 1251.00,1654.00 1251.00,1654.00
             1253.51,1659.01 1255.95,1657.73 1259.94,1663.44
             1263.67,1668.76 1263.01,1676.00 1262.00,1682.00
             1262.00,1682.00 1256.00,1679.00 1256.00,1679.00
             1258.46,1686.90 1262.93,1701.14 1267.18,1707.72
             1267.18,1707.72 1277.41,1719.21 1277.41,1719.21
             1277.41,1719.21 1278.37,1724.00 1278.37,1724.00
             1278.37,1724.00 1280.14,1730.72 1280.14,1730.72
             1280.14,1730.72 1280.14,1746.00 1280.14,1746.00
             1280.25,1754.57 1281.97,1751.51 1284.32,1758.00
             1284.32,1758.00 1285.83,1764.91 1285.83,1764.91
             1285.83,1764.91 1289.00,1775.00 1289.00,1775.00
             1291.09,1771.46 1289.41,1769.00 1289.00,1765.00
             1291.19,1767.15 1296.55,1777.01 1296.41,1779.96
             1296.31,1782.06 1295.29,1782.67 1294.00,1784.00
             1299.32,1793.99 1295.87,1789.90 1297.42,1797.00
             1298.03,1799.79 1299.75,1801.98 1299.61,1804.91
             1299.46,1807.90 1298.03,1806.97 1298.00,1816.00
             1298.00,1816.00 1304.00,1814.00 1304.00,1814.00
             1304.05,1820.48 1303.91,1824.12 1307.00,1830.00
             1307.00,1830.00 1310.00,1829.00 1310.00,1829.00
             1310.00,1829.00 1310.00,1832.00 1310.00,1832.00
             1310.00,1832.00 1313.00,1831.00 1313.00,1831.00
             1313.00,1831.00 1313.00,1835.00 1313.00,1835.00
             1313.00,1835.00 1312.00,1834.00 1312.00,1834.00
             1312.00,1834.00 1310.00,1835.00 1310.00,1835.00
             1310.00,1835.00 1310.00,1837.00 1310.00,1837.00
             1310.00,1837.00 1311.00,1838.00 1311.00,1838.00
             1311.00,1838.00 1313.00,1837.00 1313.00,1837.00
             1314.04,1839.61 1315.73,1843.18 1315.40,1846.00
             1314.83,1850.86 1310.72,1852.66 1310.00,1866.00
             1310.00,1866.00 1312.00,1864.00 1312.00,1864.00
             1314.06,1870.66 1314.59,1872.24 1313.00,1879.00
             1313.00,1879.00 1318.07,1879.00 1318.07,1879.00
             1316.23,1893.08 1318.28,1888.09 1318.07,1896.00
             1318.07,1896.00 1318.07,1906.00 1318.07,1906.00
             1318.07,1906.00 1322.97,1930.00 1322.97,1930.00
             1322.97,1930.00 1322.97,1938.00 1322.97,1938.00
             1322.97,1938.00 1323.89,1945.28 1323.89,1945.28
             1323.89,1945.28 1323.89,1962.00 1323.89,1962.00
             1324.51,1969.37 1327.15,1976.51 1326.99,1984.00
             1326.99,1984.00 1326.47,1992.00 1326.47,1992.00
             1326.68,1996.42 1327.99,1996.42 1328.09,2006.00
             1328.09,2006.00 1328.09,2026.00 1328.09,2026.00
             1328.09,2026.00 1329.20,2038.00 1329.20,2038.00
             1329.20,2038.00 1329.20,2061.00 1329.20,2061.00
             1329.20,2061.00 1330.66,2069.00 1330.66,2069.00
             1330.66,2069.00 1330.66,2077.00 1330.66,2077.00
             1330.66,2077.00 1331.75,2083.00 1331.75,2083.00
             1331.75,2083.00 1330.96,2094.00 1330.96,2094.00
             1330.96,2094.00 1330.96,2110.00 1330.96,2110.00
             1330.31,2117.52 1326.94,2132.04 1324.00,2139.00
             1316.11,2137.73 1300.06,2143.13 1292.00,2145.29
             1288.09,2146.34 1284.76,2145.94 1281.00,2147.89
             1274.59,2151.23 1265.09,2159.95 1258.00,2160.00
             1256.67,2165.36 1252.98,2166.09 1248.00,2167.00
             1245.49,2172.87 1243.13,2175.19 1237.00,2177.00
             1237.00,2177.00 1238.00,2180.00 1238.00,2180.00
             1238.00,2180.00 1236.00,2179.00 1236.00,2179.00
             1236.00,2179.00 1237.00,2182.00 1237.00,2182.00
             1226.42,2183.79 1227.90,2196.31 1220.00,2203.00
             1220.00,2203.00 1221.00,2200.00 1221.00,2200.00
             1201.58,2200.00 1198.20,2206.74 1182.00,2212.29
             1168.92,2216.77 1155.46,2216.28 1142.00,2222.45
             1142.00,2222.45 1112.54,2238.62 1112.54,2238.62
             1109.72,2240.65 1107.21,2245.79 1101.91,2248.56
             1101.91,2248.56 1090.17,2251.94 1090.17,2251.94
             1090.17,2251.94 1079.00,2256.04 1079.00,2256.04
             1079.00,2256.04 1071.00,2260.34 1071.00,2260.34
             1067.33,2261.73 1063.61,2261.67 1059.09,2264.21
             1059.09,2264.21 1053.83,2267.83 1053.83,2267.83
             1053.83,2267.83 1046.00,2272.00 1046.00,2272.00
             1046.00,2272.00 1039.00,2276.49 1039.00,2276.49
             1039.00,2276.49 1027.01,2282.77 1027.01,2282.77
             1027.01,2282.77 1020.72,2287.33 1020.72,2287.33
             1020.72,2287.33 1010.17,2292.19 1010.17,2292.19
             1010.17,2292.19 996.91,2302.16 996.91,2302.16
             996.91,2302.16 989.00,2306.25 989.00,2306.25
             989.00,2306.25 969.00,2319.92 969.00,2319.92
             961.50,2324.60 959.53,2324.13 956.00,2326.22
             951.78,2328.73 950.50,2331.55 946.91,2333.86
             946.91,2333.86 930.00,2343.08 930.00,2343.08
             930.00,2343.08 918.96,2350.53 918.96,2350.53
             918.96,2350.53 911.00,2354.98 911.00,2354.98
             911.00,2354.98 902.00,2361.52 902.00,2361.52
             902.00,2361.52 894.17,2365.36 894.17,2365.36
             894.17,2365.36 886.71,2370.31 886.71,2370.31
             886.71,2370.31 874.16,2377.36 874.16,2377.36
             874.16,2377.36 855.00,2392.00 855.00,2392.00
             855.00,2392.00 858.00,2389.00 858.00,2389.00
             855.39,2383.07 853.71,2383.87 848.00,2385.45
             846.10,2385.97 843.91,2386.40 842.17,2387.30
             837.79,2389.56 838.76,2391.18 833.00,2391.00
             833.00,2391.00 821.70,2401.57 821.70,2401.57
             821.70,2401.57 816.60,2403.97 816.60,2403.97
             816.60,2403.97 810.70,2410.53 810.70,2410.53
             803.76,2417.15 799.14,2419.11 795.00,2429.00
             788.25,2428.42 787.65,2430.70 782.00,2433.30
             782.00,2433.30 770.00,2437.92 770.00,2437.92
             770.00,2437.92 765.00,2441.43 765.00,2441.43
             765.00,2441.43 753.00,2446.39 753.00,2446.39
             753.00,2446.39 744.00,2451.95 744.00,2451.95
             744.00,2451.95 718.72,2466.40 718.72,2466.40
             718.72,2466.40 705.00,2472.71 705.00,2472.71
             705.00,2472.71 683.00,2484.26 683.00,2484.26
             683.00,2484.26 672.00,2489.11 672.00,2489.11
             672.00,2489.11 663.00,2494.37 663.00,2494.37
             663.00,2494.37 656.00,2497.40 656.00,2497.40
             656.00,2497.40 629.83,2510.96 629.83,2510.96
             629.83,2510.96 622.00,2513.96 622.00,2513.96
             622.00,2513.96 594.17,2528.31 594.17,2528.31
             594.17,2528.31 586.99,2533.26 586.99,2533.26
             586.99,2533.26 576.32,2539.16 576.32,2539.16
             576.32,2539.16 569.54,2545.05 569.54,2545.05
             569.54,2545.05 561.45,2550.17 561.45,2550.17
             561.45,2550.17 542.99,2565.91 542.99,2565.91
             530.29,2576.40 518.29,2587.97 507.11,2600.08
             507.11,2600.08 496.99,2611.51 496.99,2611.51
             496.03,2613.07 496.13,2614.29 496.00,2616.00
             484.26,2619.09 474.11,2633.64 467.43,2643.00
             467.43,2643.00 450.63,2662.64 450.63,2662.64
             450.63,2662.64 445.59,2667.21 445.59,2667.21
             445.59,2667.21 431.53,2685.08 431.53,2685.08
             431.53,2685.08 421.51,2694.42 421.51,2694.42
             421.51,2694.42 408.47,2709.75 408.47,2709.75
             408.47,2709.75 402.54,2714.96 402.54,2714.96
             402.54,2714.96 398.52,2719.80 398.52,2719.80
             398.52,2719.80 389.25,2729.28 389.25,2729.28
             389.25,2729.28 385.27,2734.55 385.27,2734.55
             385.27,2734.55 381.62,2738.26 381.62,2738.26
             381.62,2738.26 374.68,2749.00 374.68,2749.00
             374.68,2749.00 352.61,2774.46 352.61,2774.46
             352.61,2774.46 347.04,2778.29 347.04,2778.29
             347.04,2778.29 337.04,2788.04 337.04,2788.04
             337.04,2788.04 329.79,2796.66 329.79,2796.66
             325.64,2800.51 323.45,2799.08 318.72,2802.80
             311.79,2808.24 303.30,2820.01 302.41,2829.00
             302.41,2829.00 303.00,2840.00 303.00,2840.00
             297.56,2840.93 293.09,2848.30 290.66,2853.01
             290.66,2853.01 286.76,2861.83 286.76,2861.83
             286.76,2861.83 280.92,2870.42 280.92,2870.42
             280.92,2870.42 278.78,2875.57 278.78,2875.57
             278.78,2875.57 275.14,2881.29 275.14,2881.29
             275.14,2881.29 271.19,2890.99 271.19,2890.99
             271.19,2890.99 262.75,2910.00 262.75,2910.00
             262.75,2910.00 260.16,2920.00 260.16,2920.00
             260.16,2920.00 257.10,2926.00 257.10,2926.00
             257.10,2926.00 253.79,2935.00 253.79,2935.00
             253.79,2935.00 249.64,2950.83 249.64,2950.83
             249.64,2950.83 246.46,2958.01 246.46,2958.01
             246.46,2958.01 242.41,2972.00 242.41,2972.00
             242.41,2972.00 235.62,2989.00 235.62,2989.00
             235.62,2989.00 230.47,3008.00 230.47,3008.00
             230.47,3008.00 228.47,3017.00 228.47,3017.00
             227.17,3020.94 225.61,3021.64 224.54,3024.28
             224.54,3024.28 221.62,3034.00 221.62,3034.00
             221.62,3034.00 218.72,3052.91 218.72,3052.91
             218.72,3052.91 216.54,3058.17 216.54,3058.17
             216.54,3058.17 215.12,3066.00 215.12,3066.00
             215.12,3066.00 208.54,3081.09 208.54,3081.09
             208.54,3081.09 207.59,3091.00 207.59,3091.00
             206.70,3094.77 204.96,3096.00 204.17,3101.00
             203.55,3104.94 202.78,3116.36 199.00,3118.00
             199.00,3118.00 196.01,3133.91 196.01,3133.91
             196.01,3133.91 193.50,3139.17 193.50,3139.17
             193.50,3139.17 190.00,3152.00 190.00,3152.00
             190.40,3152.73 190.87,3152.63 191.00,3154.23
             191.00,3154.23 187.99,3168.00 187.99,3168.00
             187.99,3168.00 184.02,3181.00 184.02,3181.00
             184.02,3181.00 180.54,3194.00 180.54,3194.00
             180.54,3194.00 174.37,3213.00 174.37,3213.00
             174.37,3213.00 153.63,3295.00 153.63,3295.00
             153.63,3295.00 145.65,3326.00 145.65,3326.00
             145.65,3326.00 133.20,3390.00 133.20,3390.00
             133.20,3390.00 114.58,3490.00 114.58,3490.00
             114.58,3490.00 104.43,3545.00 104.43,3545.00
             104.43,3545.00 97.57,3600.00 97.57,3600.00
             97.57,3600.00 87.61,3651.00 87.61,3651.00
             87.61,3651.00 86.57,3660.00 86.57,3660.00
             86.57,3660.00 79.83,3703.00 79.83,3703.00
             79.83,3703.00 77.82,3711.00 77.82,3711.00
             77.82,3711.00 74.42,3731.00 74.42,3731.00
             74.42,3731.00 70.56,3766.00 70.56,3766.00
             70.56,3766.00 63.42,3802.00 63.42,3802.00
             63.42,3802.00 52.39,3867.00 52.39,3867.00
             52.39,3867.00 44.58,3907.00 44.58,3907.00
             44.58,3907.00 34.08,3955.00 34.08,3955.00
             34.08,3955.00 26.25,4012.00 26.25,4012.00
             26.25,4012.00 20.48,4028.91 20.48,4028.91
             20.48,4028.91 16.38,4036.00 16.38,4036.00
             12.66,4044.43 13.62,4045.71 11.96,4050.00
             11.96,4050.00 6.18,4063.00 6.18,4063.00
             4.95,4066.40 5.19,4067.76 4.49,4071.00
             2.64,4079.53 0.11,4085.91 0.00,4095.00
             0.00,4095.00 0.00,4224.00 0.00,4224.00
             0.02,4234.97 4.45,4236.45 12.00,4244.00
             21.78,4253.78 24.81,4257.26 36.00,4265.88
             36.00,4265.88 65.00,4288.27 65.00,4288.27
             65.00,4288.27 98.00,4301.42 98.00,4301.42
             98.00,4301.42 110.00,4306.46 110.00,4306.46
             110.00,4306.46 149.00,4320.31 149.00,4320.31
             149.00,4320.31 174.00,4328.81 174.00,4328.81
             174.00,4328.81 198.00,4336.96 198.00,4336.96
             198.00,4336.96 207.00,4339.44 207.00,4339.44
             207.00,4339.44 243.00,4353.57 243.00,4353.57
             243.00,4353.57 278.00,4364.42 278.00,4364.42
             290.42,4368.07 301.84,4375.98 315.00,4376.00
             315.00,4376.00 799.00,4376.00 799.00,4376.00
             799.00,4376.00 3469.00,4376.00 3469.00,4376.00
             3469.00,4376.00 3469.00,3346.00 3469.00,3346.00
             3469.00,3346.00 3469.00,2831.00 3469.00,2831.00
             3469.00,2828.81 3469.11,2826.08 3468.44,2824.00
             3468.44,2824.00 3451.44,2798.00 3451.44,2798.00
             3451.44,2798.00 3438.46,2770.99 3438.46,2770.99
             3433.50,2762.05 3426.09,2754.32 3424.00,2744.00
             3416.79,2740.34 3413.20,2727.80 3408.25,2721.28
             3408.25,2721.28 3401.29,2713.00 3401.29,2713.00
             3401.29,2713.00 3389.93,2698.80 3389.93,2698.80
             3389.93,2698.80 3378.73,2687.90 3378.73,2687.90
             3376.00,2683.91 3373.40,2669.12 3364.54,2659.30
             3358.98,2653.13 3351.53,2650.61 3345.04,2646.19
             3342.40,2644.40 3341.14,2642.53 3338.83,2640.51
             3338.83,2640.51 3320.52,2625.00 3320.52,2625.00
             3320.52,2625.00 3314.68,2618.42 3314.68,2618.42
             3310.99,2614.69 3306.55,2612.57 3304.00,2608.00
             3295.50,2605.68 3294.69,2599.37 3287.91,2593.74
             3287.91,2593.74 3262.57,2569.58 3262.57,2569.58
             3262.57,2569.58 3256.42,2564.55 3256.42,2564.55
             3256.42,2564.55 3242.99,2551.91 3242.99,2551.91
             3242.99,2551.91 3234.72,2543.30 3234.72,2543.30
             3234.72,2543.30 3228.18,2538.79 3228.18,2538.79
             3228.18,2538.79 3220.91,2531.80 3220.91,2531.80
             3220.91,2531.80 3201.30,2516.69 3201.30,2516.69
             3201.30,2516.69 3193.91,2509.70 3193.91,2509.70
             3193.91,2509.70 3184.32,2503.64 3184.32,2503.64
             3184.32,2503.64 3178.48,2497.37 3178.48,2497.37
             3178.48,2497.37 3171.13,2492.09 3171.13,2492.09
             3171.13,2492.09 3165.30,2486.80 3165.30,2486.80
             3165.30,2486.80 3155.09,2480.34 3155.09,2480.34
             3155.09,2480.34 3149.49,2475.44 3149.49,2475.44
             3149.49,2475.44 3142.44,2470.82 3142.44,2470.82
             3142.44,2470.82 3136.71,2465.82 3136.71,2465.82
             3136.71,2465.82 3127.09,2459.29 3127.09,2459.29
             3127.09,2459.29 3119.96,2453.30 3119.96,2453.30
             3119.96,2453.30 3112.17,2448.25 3112.17,2448.25
             3112.17,2448.25 3105.27,2442.20 3105.27,2442.20
             3105.27,2442.20 3099.41,2438.42 3099.41,2438.42
             3099.41,2438.42 3082.99,2424.01 3082.99,2424.01
             3082.99,2424.01 3071.18,2416.30 3071.18,2416.30
             3071.18,2416.30 3054.72,2401.88 3054.72,2401.88
             3051.86,2399.84 3048.25,2399.62 3042.00,2395.41
             3042.00,2395.41 3029.00,2386.24 3029.00,2386.24
             3029.00,2386.24 3008.00,2374.83 3008.00,2374.83
             3008.00,2374.83 3000.00,2369.76 3000.00,2369.76
             3000.00,2369.76 2992.42,2366.88 2992.42,2366.88
             2992.42,2366.88 2983.00,2361.58 2983.00,2361.58
             2983.00,2361.58 2972.00,2356.83 2972.00,2356.83
             2972.00,2356.83 2950.00,2346.50 2950.00,2346.50
             2950.00,2346.50 2935.00,2341.09 2935.00,2341.09
             2935.00,2341.09 2915.00,2332.17 2915.00,2332.17
             2915.00,2332.17 2907.00,2329.57 2907.00,2329.57
             2907.00,2329.57 2878.00,2318.42 2878.00,2318.42
             2878.00,2318.42 2868.00,2315.05 2868.00,2315.05
             2868.00,2315.05 2844.04,2303.99 2844.04,2303.99
             2844.04,2303.99 2837.83,2300.45 2837.83,2300.45
             2837.83,2300.45 2815.00,2291.63 2815.00,2291.63
             2815.00,2291.63 2803.00,2285.50 2803.00,2285.50
             2803.00,2285.50 2788.00,2281.32 2788.00,2281.32
             2788.00,2281.32 2772.00,2273.00 2772.00,2273.00
             2772.00,2273.00 2773.00,2270.00 2773.00,2270.00
             2773.00,2270.00 2771.00,2271.00 2771.00,2271.00
             2771.00,2271.00 2771.00,2272.00 2771.00,2272.00
             2771.00,2272.00 2769.00,2267.00 2769.00,2267.00
             2769.00,2267.00 2766.00,2268.00 2766.00,2268.00
             2763.92,2263.98 2763.05,2262.23 2759.00,2260.00
             2758.06,2255.61 2756.15,2255.48 2752.00,2255.00
             2752.00,2255.00 2752.00,2251.00 2752.00,2251.00
             2752.00,2251.00 2742.00,2250.00 2742.00,2250.00
             2742.00,2250.00 2744.00,2249.00 2744.00,2249.00
             2744.00,2249.00 2741.00,2247.00 2741.00,2247.00
             2740.95,2243.94 2738.45,2244.07 2736.00,2242.90
             2731.83,2240.91 2727.78,2238.37 2723.09,2237.71
             2718.71,2237.09 2715.80,2240.91 2710.83,2239.81
             2707.44,2239.06 2696.22,2232.10 2692.00,2229.94
             2692.00,2229.94 2681.00,2224.69 2681.00,2224.69
             2681.00,2224.69 2670.72,2219.29 2670.72,2219.29
             2670.72,2219.29 2657.00,2214.05 2657.00,2214.05
             2657.00,2214.05 2642.00,2206.78 2642.00,2206.78
             2642.00,2206.78 2623.00,2198.56 2623.00,2198.56
             2623.00,2198.56 2590.00,2185.38 2590.00,2185.38
             2590.00,2185.38 2577.00,2178.51 2577.00,2178.51
             2577.00,2178.51 2558.00,2171.54 2558.00,2171.54
             2558.00,2171.54 2548.00,2166.07 2548.00,2166.07
             2548.00,2166.07 2542.00,2164.05 2542.00,2164.05
             2542.00,2164.05 2530.00,2159.00 2530.00,2159.00
             2530.00,2159.00 2515.00,2151.68 2515.00,2151.68
             2515.00,2151.68 2505.00,2148.62 2505.00,2148.62
             2505.00,2148.62 2491.00,2143.05 2491.00,2143.05
             2491.00,2143.05 2468.00,2133.59 2468.00,2133.59
             2468.00,2133.59 2458.18,2131.50 2458.18,2131.50
             2453.20,2129.66 2452.73,2123.68 2446.71,2118.63
             2433.54,2107.58 2425.95,2108.18 2410.00,2108.00
             2410.00,2108.00 2378.00,2103.91 2378.00,2103.91
             2374.55,2103.67 2368.41,2103.63 2367.00,2100.00
             2361.06,2101.31 2354.97,2099.72 2349.00,2099.05
             2346.32,2098.75 2341.39,2098.32 2339.13,2096.99
             2335.76,2095.03 2334.29,2090.28 2330.01,2089.22
             2328.14,2088.75 2315.67,2093.99 2313.00,2088.00
             2313.00,2088.00 2310.00,2089.00 2310.00,2089.00
             2310.00,2089.00 2302.73,2084.12 2302.73,2084.12
             2302.73,2084.12 2287.00,2074.00 2287.00,2074.00
             2287.00,2074.00 2285.00,2075.00 2285.00,2075.00
             2281.85,2067.61 2276.84,2067.28 2270.00,2064.17
             2264.32,2061.59 2262.58,2059.42 2256.00,2060.00
             2251.49,2052.28 2244.22,2056.16 2237.15,2049.52
             2232.52,2045.18 2234.78,2041.93 2233.48,2036.00
             2231.32,2026.11 2224.60,2022.49 2215.00,2023.59
             2211.93,2023.94 2210.11,2023.64 2208.00,2026.00
             2201.09,2019.83 2200.70,2009.63 2199.42,2001.00
             2199.42,2001.00 2194.00,1957.00 2194.00,1957.00
             2194.00,1957.00 2194.87,1941.00 2194.87,1941.00
             2195.01,1930.56 2197.04,1934.36 2197.56,1929.83
             2197.82,1927.52 2194.50,1916.35 2201.00,1914.00
             2201.00,1914.00 2198.37,1904.91 2198.37,1904.91
             2198.37,1904.91 2199.64,1896.00 2199.64,1896.00
             2199.64,1896.00 2198.30,1887.00 2198.30,1887.00
             2198.30,1887.00 2197.00,1867.00 2197.00,1867.00
             2197.00,1867.00 2200.00,1867.00 2200.00,1867.00
             2200.00,1867.00 2202.00,1857.00 2202.00,1857.00
             2202.00,1857.00 2198.00,1856.00 2198.00,1856.00
             2198.00,1856.00 2200.00,1844.00 2200.00,1844.00
             2200.00,1844.00 2207.00,1848.00 2207.00,1848.00
             2207.24,1842.82 2209.76,1837.42 2203.00,1837.00
             2203.00,1837.00 2203.00,1829.00 2203.00,1829.00
             2203.00,1829.00 2206.04,1830.00 2206.04,1830.00
             2206.04,1830.00 2206.04,1836.00 2206.04,1836.00
             2212.10,1831.91 2206.34,1822.83 2206.04,1817.00
             2205.93,1811.59 2207.95,1808.28 2207.00,1802.00
             2210.92,1800.37 2209.55,1798.59 2210.68,1795.00
             2211.57,1792.19 2213.19,1790.13 2213.57,1787.00
             2213.57,1787.00 2213.00,1776.00 2213.00,1776.00
             2213.00,1776.00 2216.08,1777.00 2216.08,1777.00
             2216.08,1777.00 2216.08,1760.00 2216.08,1760.00
             2216.08,1760.00 2219.59,1752.00 2219.59,1752.00
             2219.59,1752.00 2219.00,1739.00 2219.00,1739.00
             2219.00,1739.00 2223.00,1747.00 2223.00,1747.00
             2223.00,1747.00 2223.00,1730.00 2223.00,1730.00
             2227.64,1730.39 2229.18,1728.79 2229.61,1724.00
             2229.90,1720.75 2228.53,1717.33 2228.09,1714.00
             2228.09,1714.00 2228.09,1700.00 2228.09,1700.00
             2228.09,1700.00 2230.00,1704.00 2230.00,1704.00
             2230.00,1704.00 2233.00,1703.00 2233.00,1703.00
             2233.00,1703.00 2234.24,1680.09 2234.24,1680.09
             2235.13,1676.39 2237.29,1675.05 2237.52,1671.00
             2237.52,1671.00 2237.52,1662.00 2237.52,1662.00
             2237.73,1658.50 2239.84,1655.79 2239.74,1651.00
             2239.74,1651.00 2237.02,1630.00 2237.02,1630.00
             2237.23,1622.86 2240.55,1623.49 2240.05,1618.96
             2240.05,1618.96 2235.03,1604.00 2235.03,1604.00
             2233.08,1594.29 2234.90,1590.84 2236.00,1582.00
             2236.00,1582.00 2241.96,1590.00 2241.96,1590.00
             2241.96,1590.00 2241.96,1584.00 2241.96,1584.00
             2244.49,1581.42 2242.25,1579.89 2241.96,1576.72
             2241.96,1576.72 2241.96,1567.00 2241.96,1567.00
             2241.34,1562.24 2240.21,1562.80 2240.00,1556.00
             2240.00,1556.00 2243.00,1557.00 2243.00,1557.00
             2241.00,1548.47 2236.28,1542.17 2237.18,1533.00
             2237.68,1527.81 2241.24,1519.88 2246.05,1517.50
             2250.82,1515.14 2256.33,1515.31 2261.00,1512.52
             2266.39,1509.29 2273.42,1500.50 2276.45,1494.91
             2277.85,1492.33 2278.21,1489.78 2279.04,1487.00
             2284.50,1468.68 2283.97,1470.75 2284.00,1452.00
             2284.02,1441.19 2285.19,1444.61 2287.52,1438.72
             2287.52,1438.72 2289.21,1433.17 2289.21,1433.17
             2289.21,1433.17 2301.95,1403.00 2301.95,1403.00
             2303.37,1398.55 2305.93,1392.49 2306.00,1388.00
             2306.00,1388.00 2312.00,1382.00 2312.00,1382.00
             2311.85,1376.54 2317.14,1365.47 2319.42,1360.00
             2319.42,1360.00 2327.11,1338.00 2327.11,1338.00
             2327.11,1338.00 2331.13,1329.00 2331.13,1329.00
             2331.13,1329.00 2337.58,1313.54 2337.58,1313.54
             2338.69,1312.35 2339.27,1312.41 2340.00,1312.00
             2340.24,1304.13 2344.78,1293.52 2346.50,1285.00
             2346.50,1285.00 2351.56,1259.00 2351.56,1259.00
             2351.56,1259.00 2353.45,1245.00 2353.45,1245.00
             2353.45,1245.00 2358.73,1219.00 2358.73,1219.00
             2358.73,1219.00 2357.92,1207.00 2357.92,1207.00
             2357.92,1207.00 2357.92,1178.00 2357.92,1178.00
             2357.92,1178.00 2353.80,1160.00 2353.80,1160.00
             2353.80,1160.00 2353.80,1153.00 2353.80,1153.00
             2351.92,1144.00 2337.95,1139.38 2336.00,1133.00
             2326.00,1132.30 2328.10,1125.47 2333.00,1120.00
             2330.93,1107.86 2335.18,1106.64 2336.05,1100.91
             2336.59,1095.05 2334.21,1093.12 2336.05,1084.00
             2336.05,1084.00 2339.10,1076.00 2339.10,1076.00
             2339.10,1076.00 2343.51,1061.00 2343.51,1061.00
             2343.51,1061.00 2345.63,1048.00 2345.63,1048.00
             2345.63,1048.00 2348.61,1040.00 2348.61,1040.00
             2348.61,1040.00 2352.00,989.00 2352.00,989.00
             2349.31,985.97 2349.55,980.05 2349.00,976.00
             2349.00,976.00 2346.17,960.00 2346.17,960.00
             2346.17,960.00 2345.02,945.00 2345.02,945.00
             2345.02,945.00 2342.65,939.00 2342.65,939.00
             2342.65,939.00 2340.04,920.00 2340.04,920.00
             2340.04,920.00 2340.70,909.00 2340.70,909.00
             2340.35,904.41 2337.43,901.95 2336.04,893.00
             2336.04,893.00 2332.96,866.00 2332.96,866.00
             2332.96,866.00 2327.50,844.99 2327.50,844.99
             2327.50,844.99 2326.77,839.17 2326.77,839.17
             2326.77,839.17 2322.93,824.00 2322.93,824.00
             2322.93,824.00 2322.07,818.17 2322.07,818.17
             2320.42,811.79 2314.60,802.39 2314.00,796.00
             2311.64,792.28 2313.11,790.83 2311.86,787.17
             2311.86,787.17 2304.45,774.00 2304.45,774.00
             2303.48,771.81 2304.04,763.48 2296.00,758.00
             2296.00,758.00 2297.00,756.00 2297.00,756.00
             2297.00,756.00 2295.00,756.00 2295.00,756.00
             2296.45,747.73 2292.57,746.33 2288.37,740.56
             2288.37,740.56 2279.40,726.00 2279.40,726.00
             2276.24,719.83 2277.29,717.02 2274.84,713.03
             2271.37,707.36 2267.03,708.59 2267.00,701.00
             2262.97,697.11 2260.92,693.69 2261.00,688.00
             2257.93,686.88 2257.77,682.83 2256.33,680.00
             2256.33,680.00 2252.33,673.04 2252.33,673.04
             2252.33,673.04 2249.73,665.91 2249.73,665.91
             2249.73,665.91 2245.14,657.00 2245.14,657.00
             2245.14,657.00 2237.20,642.04 2237.20,642.04
             2237.20,642.04 2231.42,634.91 2231.42,634.91
             2231.42,634.91 2225.07,624.01 2225.07,624.01
             2225.07,624.01 2216.00,613.83 2216.00,613.83
             2216.00,613.83 2209.54,605.00 2209.54,605.00
             2209.54,605.00 2207.03,600.10 2207.03,600.10
             2205.46,597.67 2198.67,592.46 2196.00,591.00
             2196.00,591.00 2197.00,588.00 2197.00,588.00
             2197.00,588.00 2193.00,588.00 2193.00,588.00
             2191.75,585.22 2191.99,584.75 2189.00,584.00
             2184.87,572.09 2173.34,565.24 2164.25,557.44
             2164.25,557.44 2155.41,548.71 2155.41,548.71
             2155.41,548.71 2147.17,542.73 2147.17,542.73
             2147.17,542.73 2133.99,530.00 2133.99,530.00
             2133.99,530.00 2115.00,513.00 2115.00,513.00
             2115.00,513.00 2113.00,514.00 2113.00,514.00
             2111.17,511.17 2100.34,504.48 2097.00,504.00
             2095.17,499.31 2092.21,498.82 2088.42,495.12
             2083.61,490.41 2077.76,488.42 2072.00,485.01
             2064.88,480.79 2056.51,474.49 2048.00,474.00
             2046.40,469.52 2041.02,468.03 2037.00,466.00
             2031.08,463.01 2019.29,456.64 2015.00,452.00
             2008.83,453.86 2005.76,453.70 2001.00,449.00
             1992.55,449.75 1984.53,443.98 1976.00,442.18
             1976.00,442.18 1969.00,441.06 1969.00,441.06
             1969.00,441.06 1953.99,436.35 1953.99,436.35
             1953.99,436.35 1936.00,432.66 1936.00,432.66
             1936.00,432.66 1924.04,431.70 1924.04,431.70
             1924.04,431.70 1917.83,429.27 1917.83,429.27
             1917.83,429.27 1910.00,428.41 1910.00,428.41
             1903.30,427.26 1896.95,424.74 1890.00,424.55
             1890.00,424.55 1855.00,423.37 1855.00,423.37
             1849.33,423.09 1845.12,425.77 1840.00,422.00
             1833.38,421.81 1827.10,415.35 1821.83,411.68
             1821.83,411.68 1805.83,405.27 1805.83,405.27
             1805.83,405.27 1796.00,403.92 1796.00,403.92
             1768.00,399.21 1772.14,399.96 1744.00,400.00
             1732.84,400.02 1733.15,401.88 1727.00,402.37
             1727.00,402.37 1715.00,401.18 1715.00,401.18
             1715.00,401.18 1708.00,401.91 1708.00,401.91
             1708.00,401.91 1685.72,403.43 1685.72,403.43
             1685.72,403.43 1668.00,407.72 1668.00,407.72
             1668.00,407.72 1659.00,409.62 1659.00,409.62
             1659.00,409.62 1623.04,422.85 1623.04,422.85
             1623.04,422.85 1614.70,427.32 1614.70,427.32
             1614.70,427.32 1599.96,434.05 1599.96,434.05
             1596.18,436.13 1588.56,441.50 1585.00,442.00 Z
           M 2099.00,504.00
           C 2099.00,504.00 2099.00,505.00 2099.00,505.00
             2099.00,505.00 2098.00,504.00 2098.00,504.00
             2098.00,504.00 2099.00,504.00 2099.00,504.00 Z
           M 2191.00,584.00
           C 2191.00,584.00 2191.00,585.00 2191.00,585.00
             2191.00,585.00 2190.00,584.00 2190.00,584.00
             2190.00,584.00 2191.00,584.00 2191.00,584.00 Z
           M 2293.00,746.00
           C 2293.00,746.00 2293.00,747.00 2293.00,747.00
             2293.00,747.00 2292.00,746.00 2292.00,746.00
             2292.00,746.00 2293.00,746.00 2293.00,746.00 Z
           M 1196.00,794.00
           C 1196.00,794.00 1196.00,795.00 1196.00,795.00
             1196.00,795.00 1195.00,794.00 1195.00,794.00
             1195.00,794.00 1196.00,794.00 1196.00,794.00 Z
           M 1186.00,1154.00
           C 1186.00,1154.00 1186.00,1155.00 1186.00,1155.00
             1186.00,1155.00 1185.00,1154.00 1185.00,1154.00
             1185.00,1154.00 1186.00,1154.00 1186.00,1154.00 Z
           M 2239.00,1624.00
           C 2239.00,1624.00 2239.00,1625.00 2239.00,1625.00
             2239.00,1625.00 2240.00,1624.00 2240.00,1624.00
             2240.00,1624.00 2239.00,1624.00 2239.00,1624.00 Z
           M 2240.00,1663.00
           C 2240.00,1663.00 2240.00,1664.00 2240.00,1664.00
             2240.00,1664.00 2241.00,1663.00 2241.00,1663.00
             2241.00,1663.00 2240.00,1663.00 2240.00,1663.00 Z
           M 1255.00,1672.00
           C 1255.00,1672.00 1255.00,1677.00 1255.00,1677.00
             1255.00,1677.00 1255.00,1672.00 1255.00,1672.00 Z
           M 1275.00,1726.00
           C 1275.00,1726.00 1275.00,1730.00 1275.00,1730.00
             1275.00,1730.00 1277.00,1726.00 1277.00,1726.00
             1277.00,1726.00 1275.00,1726.00 1275.00,1726.00 Z
           M 2225.00,1742.00
           C 2225.00,1742.00 2225.00,1743.00 2225.00,1743.00
             2225.00,1743.00 2226.00,1742.00 2226.00,1742.00
             2226.00,1742.00 2225.00,1742.00 2225.00,1742.00 Z
           M 2222.00,1748.00
           C 2222.00,1748.00 2222.00,1752.00 2222.00,1752.00
             2222.00,1752.00 2222.00,1748.00 2222.00,1748.00 Z
           M 1292.00,1781.00
           C 1292.00,1781.00 1292.00,1782.00 1292.00,1782.00
             1292.00,1782.00 1293.00,1781.00 1293.00,1781.00
             1293.00,1781.00 1292.00,1781.00 1292.00,1781.00 Z
           M 2207.00,1861.00
           C 2207.00,1861.00 2207.00,1862.00 2207.00,1862.00
             2207.00,1862.00 2208.00,1861.00 2208.00,1861.00
             2208.00,1861.00 2207.00,1861.00 2207.00,1861.00 Z
           M 2264.00,2059.00
           C 2264.00,2059.00 2264.00,2060.00 2264.00,2060.00
             2264.00,2060.00 2265.00,2059.00 2265.00,2059.00
             2265.00,2059.00 2264.00,2059.00 2264.00,2059.00 Z
           M 1332.00,2063.00
           C 1332.00,2063.00 1332.00,2064.00 1332.00,2064.00
             1332.00,2064.00 1331.00,2063.00 1331.00,2063.00
             1331.00,2063.00 1332.00,2063.00 1332.00,2063.00 Z
           M 824.00,2397.00
           C 824.00,2397.00 824.00,2398.00 824.00,2398.00
             824.00,2398.00 825.00,2397.00 825.00,2397.00
             825.00,2397.00 824.00,2397.00 824.00,2397.00 Z" />
</svg>
