<?xml version="1.0" encoding="UTF-8" standalone="no"?>
<!DOCTYPE svg PUBLIC "-//W3C//DTD SVG 20010904//EN"
              "http://www.w3.org/TR/2001/REC-SVG-20010904/DTD/svg10.dtd">

<svg xmlns="http://www.w3.org/2000/svg"
     width="12.1533in" height="14.6267in"
     viewBox="0 0 3646 4388">
  <path id="face"
        fill="none" stroke="black" stroke-width="1"
        d="M 1496.00,392.00
           C 1495.01,395.00 1491.98,396.07 1489.61,398.16
             1489.61,398.16 1476.52,410.42 1476.52,410.42
             1476.52,410.42 1471.49,416.10 1471.49,416.10
             1471.49,416.10 1457.29,428.42 1457.29,428.42
             1457.29,428.42 1447.96,437.80 1447.96,437.80
             1447.96,437.80 1441.63,442.63 1441.63,442.63
             1441.63,442.63 1430.48,455.27 1430.48,455.27
             1430.48,455.27 1418.32,468.04 1418.32,468.04
             1418.32,468.04 1406.36,482.00 1406.36,482.00
             1406.36,482.00 1400.24,490.83 1400.24,490.83
             1400.24,490.83 1394.46,496.61 1394.46,496.61
             1394.46,496.61 1389.19,503.91 1389.19,503.91
             1389.19,503.91 1381.52,512.43 1381.52,512.43
             1381.52,512.43 1373.32,525.91 1373.32,525.91
             1373.32,525.91 1362.20,540.00 1362.20,540.00
             1362.20,540.00 1356.11,550.00 1356.11,550.00
             1356.11,550.00 1343.48,569.09 1343.48,569.09
             1343.48,569.09 1327.35,596.69 1327.35,596.69
             1327.35,596.69 1323.36,602.18 1323.36,602.18
             1323.36,602.18 1318.37,614.00 1318.37,614.00
             1318.37,614.00 1311.74,627.09 1311.74,627.09
             1311.74,627.09 1302.30,646.96 1302.30,646.96
             1301.14,649.11 1288.95,662.74 1284.72,671.00
             1284.72,671.00 1279.18,693.00 1279.18,693.00
             1279.18,693.00 1277.34,713.00 1277.34,713.00
             1277.34,713.00 1268.33,743.00 1268.33,743.00
             1268.33,743.00 1266.69,753.00 1266.69,753.00
             1266.69,753.00 1264.37,761.00 1264.37,761.00
             1264.37,761.00 1262.73,773.00 1262.73,773.00
             1262.73,773.00 1258.71,804.00 1258.71,804.00
             1258.71,804.00 1254.87,827.96 1254.87,827.96
             1252.85,834.24 1249.49,840.44 1248.33,847.00
             1248.33,847.00 1247.56,855.00 1247.56,855.00
             1247.56,855.00 1245.30,866.00 1245.30,866.00
             1245.30,866.00 1239.86,912.00 1239.86,912.00
             1239.86,912.00 1235.97,935.96 1235.97,935.96
             1235.00,939.27 1233.19,939.99 1232.33,944.04
             1232.33,944.04 1231.45,952.00 1231.45,952.00
             1230.73,956.77 1230.09,956.36 1229.97,962.00
             1229.97,962.00 1229.97,987.00 1229.97,987.00
             1229.97,987.00 1229.97,1002.00 1229.97,1002.00
             1229.97,1002.00 1229.00,1016.00 1229.00,1016.00
             1228.99,1023.05 1227.34,1029.96 1228.44,1037.00
             1231.12,1054.16 1241.80,1079.38 1242.00,1096.00
             1242.11,1105.76 1244.15,1112.90 1236.33,1120.29
             1227.41,1128.72 1202.62,1133.76 1202.00,1152.00
             1202.00,1152.00 1197.00,1151.00 1197.00,1151.00
             1197.00,1151.00 1198.00,1149.00 1198.00,1149.00
             1198.00,1149.00 1172.00,1151.63 1172.00,1151.63
             1167.77,1152.51 1166.76,1153.40 1163.00,1154.92
             1158.30,1156.82 1154.46,1157.89 1150.00,1160.63
             1143.02,1164.92 1133.67,1176.29 1131.21,1184.28
             1127.65,1197.66 1130.75,1211.52 1131.21,1225.00
             1134.81,1226.24 1135.67,1234.37 1137.11,1238.00
             1137.11,1238.00 1143.89,1252.00 1143.89,1252.00
             1143.89,1252.00 1146.92,1260.89 1146.92,1260.89
             1146.92,1260.89 1154.55,1271.54 1154.55,1271.54
             1154.55,1271.54 1162.69,1281.74 1162.69,1281.74
             1162.69,1281.74 1169.87,1289.43 1169.87,1289.43
             1169.87,1289.43 1177.58,1300.67 1177.58,1300.67
             1177.58,1300.67 1184.42,1307.13 1184.42,1307.13
             1184.42,1307.13 1192.66,1318.09 1192.66,1318.09
             1192.66,1318.09 1196.35,1324.76 1196.35,1324.76
             1196.35,1324.76 1201.87,1331.05 1201.87,1331.05
             1201.87,1331.05 1211.50,1348.93 1211.50,1348.93
             1211.50,1348.93 1214.75,1354.17 1214.75,1354.17
             1214.75,1354.17 1220.28,1367.00 1220.28,1367.00
             1220.28,1367.00 1226.04,1376.42 1226.04,1376.42
             1226.04,1376.42 1229.68,1383.99 1229.68,1383.99
             1229.68,1383.99 1235.13,1393.30 1235.13,1393.30
             1237.19,1396.99 1236.21,1398.32 1239.77,1403.96
             1239.77,1403.96 1254.17,1426.04 1254.17,1426.04
             1255.73,1429.95 1255.08,1435.14 1255.42,1436.79
             1255.85,1438.92 1257.52,1440.30 1258.48,1442.19
             1259.98,1445.17 1258.97,1444.99 1262.00,1447.00
             1262.00,1447.00 1260.00,1449.00 1260.00,1449.00
             1261.10,1450.83 1262.58,1453.01 1263.28,1455.00
             1265.58,1461.55 1264.04,1477.23 1264.00,1485.00
             1264.00,1485.00 1263.41,1496.00 1263.41,1496.00
             1263.78,1499.72 1267.47,1508.05 1268.95,1512.00
             1268.95,1512.00 1277.69,1533.91 1277.69,1533.91
             1277.69,1533.91 1289.00,1552.00 1289.00,1552.00
             1283.41,1554.32 1286.93,1560.25 1289.00,1564.00
             1289.00,1564.00 1291.00,1560.00 1291.00,1560.00
             1291.00,1560.00 1288.04,1574.00 1288.04,1574.00
             1288.04,1574.00 1289.90,1587.00 1289.90,1587.00
             1289.90,1587.00 1289.90,1599.00 1289.90,1599.00
             1289.90,1599.00 1294.00,1600.00 1294.00,1600.00
             1294.00,1600.00 1295.00,1596.00 1295.00,1596.00
             1297.23,1599.09 1297.28,1599.15 1301.00,1600.00
             1301.00,1600.00 1302.00,1609.00 1302.00,1609.00
             1307.94,1617.75 1308.00,1617.69 1308.00,1628.00
             1312.89,1631.07 1311.90,1635.01 1313.53,1639.96
             1313.53,1639.96 1317.17,1647.09 1317.17,1647.09
             1320.19,1654.28 1319.58,1656.73 1319.00,1664.00
             1319.00,1664.00 1322.00,1663.00 1322.00,1663.00
             1323.45,1670.21 1325.18,1671.44 1324.00,1679.00
             1328.17,1683.20 1327.17,1683.72 1328.36,1689.00
             1329.17,1692.61 1330.77,1695.13 1330.82,1699.00
             1330.82,1699.00 1329.65,1714.00 1329.65,1714.00
             1330.20,1718.98 1334.97,1724.94 1337.86,1729.00
             1337.86,1729.00 1353.00,1751.00 1353.00,1751.00
             1349.89,1757.01 1357.19,1759.50 1360.95,1762.53
             1363.92,1764.92 1364.24,1766.60 1368.00,1768.00
             1368.00,1768.00 1368.00,1772.00 1368.00,1772.00
             1368.00,1772.00 1370.00,1774.00 1370.00,1774.00
             1370.00,1774.00 1373.00,1776.00 1373.00,1776.00
             1373.00,1776.00 1368.00,1778.00 1368.00,1778.00
             1372.09,1778.40 1372.92,1780.08 1373.00,1784.00
             1380.32,1786.43 1381.20,1799.29 1382.00,1806.00
             1385.34,1807.18 1386.49,1811.87 1387.68,1815.00
             1390.29,1821.89 1392.44,1830.86 1399.00,1835.00
             1399.00,1835.00 1394.00,1837.00 1394.00,1837.00
             1396.46,1838.30 1399.21,1839.04 1401.04,1841.28
             1404.55,1845.57 1405.87,1854.03 1410.27,1858.33
             1413.70,1861.68 1419.16,1864.08 1426.99,1872.00
             1426.99,1872.00 1464.17,1914.00 1464.17,1914.00
             1476.32,1927.43 1491.07,1935.71 1506.00,1945.67
             1506.00,1945.67 1536.00,1965.67 1536.00,1965.67
             1536.00,1965.67 1553.00,1976.83 1553.00,1976.83
             1553.00,1976.83 1605.00,1998.40 1605.00,1998.40
             1605.00,1998.40 1661.00,2019.57 1661.00,2019.57
             1661.00,2019.57 1725.00,2031.80 1725.00,2031.80
             1742.80,2035.24 1760.84,2039.97 1779.00,2040.00
             1790.04,2040.02 1787.30,2041.88 1796.00,2042.00
             1796.00,2042.00 1830.00,2042.00 1830.00,2042.00
             1830.00,2042.00 1847.00,2043.00 1847.00,2043.00
             1847.00,2043.00 1893.00,2043.00 1893.00,2043.00
             1904.27,2042.98 1927.92,2037.81 1940.00,2035.40
             1940.00,2035.40 1994.00,2024.76 1994.00,2024.76
             1994.00,2024.76 2018.00,2018.37 2018.00,2018.37
             2018.00,2018.37 2076.00,2003.87 2076.00,2003.87
             2076.00,2003.87 2100.00,1998.23 2100.00,1998.23
             2100.00,1998.23 2126.00,1987.42 2126.00,1987.42
             2126.00,1987.42 2183.00,1963.42 2183.00,1963.42
             2183.00,1963.42 2200.00,1956.69 2200.00,1956.69
             2200.00,1956.69 2225.00,1943.26 2225.00,1943.26
             2225.00,1943.26 2251.00,1929.31 2251.00,1929.31
             2255.32,1926.97 2262.30,1923.83 2265.82,1920.62
             2268.97,1917.75 2276.30,1905.34 2279.05,1901.00
             2279.05,1901.00 2302.19,1865.00 2302.19,1865.00
             2310.68,1851.33 2318.84,1830.90 2323.74,1815.46
             2325.92,1808.61 2331.06,1806.15 2329.00,1798.00
             2329.00,1798.00 2326.00,1800.00 2326.00,1800.00
             2326.00,1800.00 2329.00,1789.00 2329.00,1789.00
             2332.58,1793.45 2333.56,1795.62 2339.00,1798.00
             2341.01,1790.35 2335.25,1788.24 2342.00,1784.00
             2342.00,1784.00 2343.00,1777.00 2343.00,1777.00
             2346.27,1779.06 2350.14,1777.47 2351.12,1773.74
             2351.68,1772.28 2351.19,1769.56 2351.12,1768.00
             2351.12,1768.00 2348.00,1768.00 2348.00,1768.00
             2348.00,1768.00 2347.00,1752.00 2347.00,1752.00
             2347.00,1752.00 2349.00,1752.00 2349.00,1752.00
             2349.00,1752.00 2349.00,1760.00 2349.00,1760.00
             2349.00,1760.00 2358.00,1762.00 2358.00,1762.00
             2358.00,1762.00 2354.00,1759.00 2354.00,1759.00
             2354.00,1759.00 2356.00,1752.00 2356.00,1752.00
             2356.00,1752.00 2352.00,1752.00 2352.00,1752.00
             2352.00,1752.00 2352.00,1748.00 2352.00,1748.00
             2352.00,1748.00 2362.00,1752.00 2362.00,1752.00
             2362.00,1752.00 2361.00,1736.00 2361.00,1736.00
             2361.00,1736.00 2365.00,1736.00 2365.00,1736.00
             2361.69,1733.83 2361.23,1733.90 2360.00,1730.00
             2360.00,1730.00 2368.00,1729.00 2368.00,1729.00
             2368.00,1729.00 2366.00,1744.00 2366.00,1744.00
             2366.00,1744.00 2368.00,1738.00 2368.00,1738.00
             2378.69,1736.48 2379.07,1727.22 2376.00,1719.00
             2376.00,1719.00 2374.00,1720.00 2374.00,1720.00
             2373.15,1713.97 2373.00,1708.68 2367.00,1706.00
             2368.84,1703.40 2369.58,1702.32 2367.00,1700.00
             2369.48,1697.27 2369.30,1697.19 2373.00,1697.00
             2372.41,1691.71 2373.95,1684.43 2369.00,1681.00
             2369.00,1681.00 2369.00,1676.00 2369.00,1676.00
             2369.00,1676.00 2380.00,1673.00 2380.00,1673.00
             2384.72,1672.21 2387.89,1673.61 2391.00,1669.00
             2391.00,1669.00 2394.00,1671.00 2394.00,1671.00
             2394.00,1671.00 2398.00,1656.00 2398.00,1656.00
             2398.00,1656.00 2395.00,1656.00 2395.00,1656.00
             2395.00,1656.00 2395.00,1648.00 2395.00,1648.00
             2395.00,1648.00 2400.00,1648.00 2400.00,1648.00
             2400.00,1648.00 2400.00,1637.00 2400.00,1637.00
             2394.81,1635.54 2394.09,1635.71 2390.00,1639.00
             2391.83,1633.49 2394.83,1634.05 2400.00,1634.00
             2400.00,1634.00 2401.23,1617.00 2401.23,1617.00
             2402.07,1613.52 2403.89,1610.70 2401.23,1608.00
             2401.23,1608.00 2404.00,1605.00 2404.00,1605.00
             2404.00,1605.00 2406.51,1589.01 2406.51,1589.01
             2406.04,1585.61 2402.49,1580.19 2410.00,1576.00
             2410.00,1576.00 2410.00,1568.00 2410.00,1568.00
             2410.00,1568.00 2413.00,1568.00 2413.00,1568.00
             2412.66,1563.29 2412.09,1557.79 2413.88,1553.28
             2414.55,1551.58 2415.23,1550.95 2415.71,1548.91
             2415.71,1548.91 2416.86,1541.01 2416.86,1541.01
             2418.57,1534.55 2419.90,1537.85 2420.00,1529.00
             2417.93,1528.39 2416.49,1527.68 2417.01,1525.02
             2417.61,1521.95 2420.73,1521.35 2421.69,1517.87
             2421.69,1517.87 2422.36,1506.00 2422.36,1506.00
             2422.36,1506.00 2424.00,1497.00 2424.00,1497.00
             2424.00,1497.00 2422.00,1500.00 2422.00,1500.00
             2422.00,1500.00 2422.00,1492.00 2422.00,1492.00
             2422.00,1492.00 2424.00,1493.00 2424.00,1493.00
             2424.00,1493.00 2424.00,1474.00 2424.00,1474.00
             2426.46,1474.08 2428.52,1473.44 2425.00,1472.00
             2425.75,1464.14 2421.82,1461.31 2421.59,1450.00
             2421.51,1446.49 2419.94,1441.57 2424.00,1440.00
             2424.00,1440.00 2425.00,1429.00 2425.00,1429.00
             2425.00,1429.00 2427.78,1421.00 2427.78,1421.00
             2427.78,1421.00 2426.00,1404.00 2426.00,1404.00
             2426.00,1404.00 2431.00,1405.00 2431.00,1405.00
             2432.08,1400.48 2433.01,1397.76 2428.00,1396.00
             2428.00,1396.00 2431.00,1392.00 2431.00,1392.00
             2431.00,1392.00 2431.00,1385.00 2431.00,1385.00
             2431.00,1385.00 2433.00,1390.00 2433.00,1390.00
             2433.00,1390.00 2435.55,1378.17 2435.55,1378.17
             2435.55,1378.17 2437.50,1373.83 2437.50,1373.83
             2437.50,1373.83 2441.00,1360.00 2441.00,1360.00
             2441.00,1360.00 2444.00,1361.00 2444.00,1361.00
             2444.00,1361.00 2447.00,1359.00 2447.00,1359.00
             2447.48,1353.40 2447.72,1351.83 2452.00,1348.00
             2452.00,1348.00 2451.00,1345.00 2451.00,1345.00
             2456.93,1342.63 2457.50,1335.25 2460.29,1330.26
             2460.29,1330.26 2469.13,1317.84 2469.13,1317.84
             2472.78,1311.88 2475.70,1305.42 2478.36,1299.00
             2480.39,1294.09 2483.25,1291.46 2483.00,1286.00
             2489.12,1283.65 2493.44,1270.92 2491.00,1265.00
             2491.00,1265.00 2494.00,1264.00 2494.00,1264.00
             2492.94,1259.67 2492.70,1259.21 2496.00,1256.00
             2494.17,1242.19 2501.61,1243.00 2505.00,1224.00
             2508.93,1222.95 2508.76,1219.51 2509.74,1216.00
             2509.74,1216.00 2512.55,1206.00 2512.55,1206.00
             2512.55,1206.00 2513.92,1197.09 2513.92,1197.09
             2514.81,1194.07 2516.58,1193.24 2517.88,1189.96
             2517.88,1189.96 2519.45,1185.00 2519.45,1185.00
             2519.45,1185.00 2527.83,1168.00 2527.83,1168.00
             2530.02,1162.70 2532.62,1150.85 2533.42,1145.00
             2534.79,1135.11 2535.05,1127.44 2528.08,1119.24
             2517.50,1106.78 2503.54,1103.96 2488.00,1104.00
             2485.34,1104.01 2471.51,1103.87 2470.09,1104.67
             2469.16,1105.19 2469.31,1105.54 2469.00,1106.00
             2469.00,1106.00 2452.91,1094.67 2452.91,1094.67
             2452.91,1094.67 2433.00,1087.67 2433.00,1087.67
             2433.00,1087.67 2424.00,1083.00 2424.00,1083.00
             2424.00,1083.00 2420.52,1073.00 2420.52,1073.00
             2419.03,1066.18 2420.01,1050.46 2422.70,1044.00
             2425.09,1038.23 2430.74,1034.30 2433.19,1030.83
             2435.71,1027.26 2442.41,1008.65 2443.24,1004.00
             2443.24,1004.00 2447.75,976.00 2447.75,976.00
             2448.37,972.25 2450.24,964.29 2449.76,961.00
             2448.84,954.66 2441.65,948.80 2439.06,942.83
             2437.50,939.23 2438.00,932.10 2438.00,928.00
             2427.19,926.74 2433.23,922.45 2427.00,912.00
             2426.17,915.34 2426.99,916.35 2429.00,919.00
             2429.00,919.00 2424.00,922.00 2424.00,922.00
             2424.00,922.00 2423.00,912.00 2423.00,912.00
             2423.00,912.00 2419.00,912.00 2419.00,912.00
             2419.00,912.00 2419.00,909.00 2419.00,909.00
             2419.00,909.00 2414.00,910.00 2414.00,910.00
             2413.65,901.43 2421.06,895.24 2424.47,887.83
             2426.32,883.83 2426.05,879.30 2426.00,875.00
             2425.88,865.43 2422.85,856.15 2420.54,847.00
             2420.54,847.00 2418.29,834.00 2418.29,834.00
             2418.29,834.00 2414.49,823.00 2414.49,823.00
             2414.49,823.00 2413.89,809.17 2413.89,809.17
             2413.91,803.18 2417.78,800.91 2419.51,794.99
             2424.22,778.85 2425.73,774.96 2424.96,758.00
             2424.96,758.00 2420.12,720.00 2420.12,720.00
             2420.12,720.00 2417.92,713.00 2417.92,713.00
             2417.92,713.00 2412.41,689.00 2412.41,689.00
             2410.33,676.45 2406.23,679.73 2408.00,666.00
             2408.00,666.00 2407.00,669.00 2407.00,669.00
             2404.49,663.56 2404.83,663.06 2403.18,658.00
             2403.18,658.00 2391.68,625.91 2391.68,625.91
             2391.68,625.91 2384.71,614.72 2384.71,614.72
             2384.71,614.72 2375.32,595.13 2375.32,595.13
             2373.25,591.65 2371.75,591.67 2369.17,587.95
             2369.17,587.95 2362.46,575.09 2362.46,575.09
             2362.46,575.09 2348.59,557.85 2348.59,557.85
             2348.59,557.85 2336.56,542.55 2336.56,542.55
             2336.56,542.55 2331.84,536.11 2331.84,536.11
             2331.84,536.11 2326.43,530.74 2326.43,530.74
             2326.43,530.74 2318.31,520.85 2318.31,520.85
             2315.13,517.43 2313.61,514.54 2309.00,513.00
             2309.00,513.00 2310.00,511.00 2310.00,511.00
             2310.00,511.00 2307.00,511.00 2307.00,511.00
             2307.00,511.00 2308.00,508.00 2308.00,508.00
             2308.00,508.00 2305.00,509.00 2305.00,509.00
             2300.10,500.93 2285.80,487.73 2278.29,481.66
             2273.94,478.15 2273.49,475.96 2268.00,474.00
             2268.00,474.00 2269.00,471.00 2269.00,471.00
             2269.00,471.00 2265.00,471.00 2265.00,471.00
             2263.71,464.63 2256.25,465.73 2255.00,459.00
             2255.00,459.00 2248.89,452.86 2248.89,452.86
             2248.89,452.86 2234.00,443.00 2234.00,443.00
             2234.00,443.00 2236.00,441.00 2236.00,441.00
             2236.00,441.00 2234.00,440.00 2234.00,440.00
             2234.00,440.00 2233.00,441.00 2233.00,441.00
             2230.64,436.54 2225.97,434.49 2222.12,430.60
             2211.49,419.85 2194.57,407.28 2181.97,398.65
             2176.62,394.99 2165.99,389.35 2163.00,384.00
             2156.95,383.00 2157.71,381.21 2152.96,378.18
             2152.96,378.18 2133.00,365.83 2133.00,365.83
             2133.00,365.83 2125.00,360.44 2125.00,360.44
             2125.00,360.44 2119.01,357.29 2119.01,357.29
             2115.70,355.93 2113.07,356.96 2112.00,353.00
             2112.00,353.00 2105.00,352.00 2105.00,352.00
             2101.37,343.77 2093.11,342.94 2088.00,339.00
             2083.60,338.63 2079.86,334.97 2076.00,332.87
             2076.00,332.87 2061.91,327.50 2061.91,327.50
             2058.73,326.49 2055.29,326.47 2054.00,323.00
             2054.00,323.00 2050.00,324.00 2050.00,324.00
             2050.00,324.00 2049.00,320.00 2049.00,320.00
             2049.00,320.00 2041.00,319.00 2041.00,319.00
             2041.00,319.00 2034.00,314.90 2034.00,314.90
             2034.00,314.90 2015.00,306.77 2015.00,306.77
             2015.00,306.77 1997.00,300.37 1997.00,300.37
             1997.00,300.37 1980.00,296.63 1980.00,296.63
             1980.00,296.63 1970.00,292.90 1970.00,292.90
             1970.00,292.90 1951.00,288.46 1951.00,288.46
             1951.00,288.46 1943.00,287.33 1943.00,287.33
             1943.00,287.33 1932.00,284.32 1932.00,284.32
             1932.00,284.32 1925.00,283.73 1925.00,283.73
             1925.00,283.73 1919.00,281.76 1919.00,281.76
             1919.00,281.76 1907.09,279.70 1907.09,279.70
             1907.09,279.70 1898.99,279.00 1898.99,279.00
             1898.99,279.00 1853.00,275.00 1853.00,275.00
             1853.00,275.00 1840.00,275.00 1840.00,275.00
             1840.00,275.00 1829.00,274.36 1829.00,274.36
             1829.00,274.36 1816.00,275.00 1816.00,275.00
             1816.00,275.00 1783.00,278.00 1783.00,278.00
             1783.00,278.00 1775.00,278.00 1775.00,278.00
             1775.00,278.00 1763.00,279.91 1763.00,279.91
             1763.00,279.91 1746.01,281.15 1746.01,281.15
             1746.01,281.15 1726.00,285.34 1726.00,285.34
             1726.00,285.34 1719.00,287.47 1719.00,287.47
             1719.00,287.47 1707.00,288.47 1707.00,288.47
             1707.00,288.47 1700.00,291.10 1700.00,291.10
             1700.00,291.10 1692.00,293.36 1692.00,293.36
             1692.00,293.36 1679.00,297.96 1679.00,297.96
             1679.00,297.96 1672.00,299.63 1672.00,299.63
             1672.00,299.63 1663.00,303.29 1663.00,303.29
             1663.00,303.29 1644.00,309.47 1644.00,309.47
             1644.00,309.47 1623.00,319.14 1623.00,319.14
             1623.00,319.14 1602.00,327.49 1602.00,327.49
             1602.00,327.49 1592.00,332.74 1592.00,332.74
             1592.00,332.74 1578.00,339.50 1578.00,339.50
             1578.00,339.50 1568.00,345.63 1568.00,345.63
             1568.00,345.63 1542.00,359.35 1542.00,359.35
             1542.00,359.35 1532.91,367.21 1532.91,367.21
             1532.91,367.21 1514.00,379.35 1514.00,379.35
             1514.00,379.35 1496.00,392.00 1496.00,392.00 Z
           M 2117.00,357.00
           C 2117.00,357.00 2117.00,358.00 2117.00,358.00
             2117.00,358.00 2116.00,357.00 2116.00,357.00
             2116.00,357.00 2117.00,357.00 2117.00,357.00 Z
           M 2122.00,360.00
           C 2122.00,360.00 2122.00,361.00 2122.00,361.00
             2122.00,361.00 2121.00,360.00 2121.00,360.00
             2121.00,360.00 2122.00,360.00 2122.00,360.00 Z
           M 2404.00,655.00
           C 2404.00,655.00 2404.00,656.00 2404.00,656.00
             2404.00,656.00 2405.00,655.00 2405.00,655.00
             2405.00,655.00 2404.00,655.00 2404.00,655.00 Z
           M 2421.00,1427.00
           C 2421.00,1427.00 2421.00,1438.00 2421.00,1438.00
             2418.91,1434.41 2419.47,1430.75 2421.00,1427.00 Z
           M 1281.00,1544.00
           C 1281.00,1544.00 1281.00,1550.00 1281.00,1550.00
             1281.00,1550.00 1281.00,1544.00 1281.00,1544.00 Z
           M 1289.00,1555.00
           C 1289.00,1555.00 1290.00,1560.00 1290.00,1560.00
             1287.89,1558.11 1288.04,1557.61 1289.00,1555.00 Z
           M 2391.00,1643.00
           C 2391.00,1643.00 2391.00,1644.00 2391.00,1644.00
             2391.00,1644.00 2390.00,1643.00 2390.00,1643.00
             2390.00,1643.00 2391.00,1643.00 2391.00,1643.00 Z
           M 2392.00,1644.00
           C 2392.00,1644.00 2392.00,1645.00 2392.00,1645.00
             2392.00,1645.00 2391.00,1644.00 2391.00,1644.00
             2391.00,1644.00 2392.00,1644.00 2392.00,1644.00 Z
           M 2390.00,1647.00
           C 2390.00,1647.00 2390.00,1648.00 2390.00,1648.00
             2390.00,1648.00 2389.00,1647.00 2389.00,1647.00
             2389.00,1647.00 2390.00,1647.00 2390.00,1647.00 Z
           M 2393.00,1647.00
           C 2393.00,1647.00 2393.00,1648.00 2393.00,1648.00
             2393.00,1648.00 2392.00,1647.00 2392.00,1647.00
             2392.00,1647.00 2393.00,1647.00 2393.00,1647.00 Z
           M 2375.00,1707.00
           C 2373.85,1710.24 2373.32,1710.66 2376.00,1713.00
             2376.00,1713.00 2375.00,1707.00 2375.00,1707.00 Z
           M 2363.00,1731.00
           C 2363.00,1731.00 2363.00,1732.00 2363.00,1732.00
             2363.00,1732.00 2364.00,1731.00 2364.00,1731.00
             2364.00,1731.00 2363.00,1731.00 2363.00,1731.00 Z
           M 2361.00,1732.00
           C 2361.00,1732.00 2361.00,1733.00 2361.00,1733.00
             2361.00,1733.00 2362.00,1732.00 2362.00,1732.00
             2362.00,1732.00 2361.00,1732.00 2361.00,1732.00 Z
           M 1355.00,1754.00
           C 1355.00,1754.00 1355.00,1755.00 1355.00,1755.00
             1355.00,1755.00 1354.00,1754.00 1354.00,1754.00
             1354.00,1754.00 1355.00,1754.00 1355.00,1754.00 Z
           M 2338.00,1776.00
           C 2338.00,1776.00 2337.00,1780.00 2337.00,1780.00
             2337.00,1780.00 2338.00,1776.00 2338.00,1776.00 Z" />
  <path id="profile"
        fill="none" stroke="black" stroke-width="1"
        d="M 1496.00,392.00
           C 1495.01,395.00 1491.98,396.07 1489.61,398.16
             1489.61,398.16 1476.52,410.42 1476.52,410.42
             1476.52,410.42 1471.49,416.10 1471.49,416.10
             1471.49,416.10 1457.29,428.42 1457.29,428.42
             1457.29,428.42 1447.96,437.80 1447.96,437.80
             1447.96,437.80 1441.63,442.63 1441.63,442.63
             1441.63,442.63 1430.48,455.27 1430.48,455.27
             1430.48,455.27 1418.32,468.04 1418.32,468.04
             1418.32,468.04 1406.36,482.00 1406.36,482.00
             1406.36,482.00 1400.24,490.83 1400.24,490.83
             1400.24,490.83 1394.46,496.61 1394.46,496.61
             1394.46,496.61 1389.19,503.91 1389.19,503.91
             1389.19,503.91 1381.52,512.43 1381.52,512.43
             1381.52,512.43 1373.32,525.91 1373.32,525.91
             1373.32,525.91 1362.20,540.00 1362.20,540.00
             1362.20,540.00 1356.11,550.00 1356.11,550.00
             1356.11,550.00 1343.48,569.09 1343.48,569.09
             1343.48,569.09 1327.35,596.69 1327.35,596.69
             1327.35,596.69 1323.36,602.18 1323.36,602.18
             1323.36,602.18 1318.37,614.00 1318.37,614.00
             1318.37,614.00 1311.74,627.09 1311.74,627.09
             1311.74,627.09 1302.30,646.96 1302.30,646.96
             1301.14,649.11 1288.95,662.74 1284.72,671.00
             1284.72,671.00 1279.18,693.00 1279.18,693.00
             1279.18,693.00 1277.34,713.00 1277.34,713.00
             1277.34,713.00 1268.33,743.00 1268.33,743.00
             1268.33,743.00 1266.69,753.00 1266.69,753.00
             1266.69,753.00 1264.37,761.00 1264.37,761.00
             1264.37,761.00 1262.73,773.00 1262.73,773.00
             1262.73,773.00 1258.71,804.00 1258.71,804.00
             1258.71,804.00 1254.87,827.96 1254.87,827.96
             1252.85,834.24 1249.49,840.44 1248.33,847.00
             1248.33,847.00 1247.56,855.00 1247.56,855.00
             1247.56,855.00 1245.30,866.00 1245.30,866.00
             1245.30,866.00 1239.86,912.00 1239.86,912.00
             1239.86,912.00 1235.97,935.96 1235.97,935.96
             1235.00,939.27 1233.19,939.99 1232.33,944.04
             1232.33,944.04 1231.45,952.00 1231.45,952.00
             1230.73,956.77 1230.09,956.36 1229.97,962.00
             1229.97,962.00 1229.97,987.00 1229.97,987.00
             1229.97,987.00 1229.97,1002.00 1229.97,1002.00
             1229.97,1002.00 1229.00,1016.00 1229.00,1016.00
             1228.99,1023.05 1227.34,1029.96 1228.44,1037.00
             1231.12,1054.16 1241.80,1079.38 1242.00,1096.00
             1242.11,1105.76 1244.15,1112.90 1236.33,1120.29
             1227.41,1128.72 1202.62,1133.76 1202.00,1152.00
             1202.00,1152.00 1197.00,1151.00 1197.00,1151.00
             1197.00,1151.00 1198.00,1149.00 1198.00,1149.00
             1198.00,1149.00 1172.00,1151.63 1172.00,1151.63
             1167.77,1152.51 1166.76,1153.40 1163.00,1154.92
             1158.30,1156.82 1154.46,1157.89 1150.00,1160.63
             1143.02,1164.92 1133.67,1176.29 1131.21,1184.28
             1127.65,1197.66 1130.75,1211.52 1131.21,1225.00
             1134.81,1226.24 1135.67,1234.37 1137.11,1238.00
             1137.11,1238.00 1143.89,1252.00 1143.89,1252.00
             1143.89,1252.00 1146.92,1260.89 1146.92,1260.89
             1146.92,1260.89 1154.55,1271.54 1154.55,1271.54
             1154.55,1271.54 1162.69,1281.74 1162.69,1281.74
             1162.69,1281.74 1169.87,1289.43 1169.87,1289.43
             1169.87,1289.43 1177.58,1300.67 1177.58,1300.67
             1177.58,1300.67 1184.42,1307.13 1184.42,1307.13
             1184.42,1307.13 1192.66,1318.09 1192.66,1318.09
             1192.66,1318.09 1196.35,1324.76 1196.35,1324.76
             1196.35,1324.76 1201.87,1331.05 1201.87,1331.05
             1201.87,1331.05 1211.50,1348.93 1211.50,1348.93
             1211.50,1348.93 1214.75,1354.17 1214.75,1354.17
             1214.75,1354.17 1220.28,1367.00 1220.28,1367.00
             1220.28,1367.00 1226.04,1376.42 1226.04,1376.42
             1226.04,1376.42 1229.68,1383.99 1229.68,1383.99
             1229.68,1383.99 1235.13,1393.30 1235.13,1393.30
             1237.19,1396.99 1236.21,1398.32 1239.77,1403.96
             1239.77,1403.96 1254.17,1426.04 1254.17,1426.04
             1255.73,1429.95 1255.08,1435.14 1255.42,1436.79
             1255.85,1438.92 1257.52,1440.30 1258.48,1442.19
             1259.98,1445.17 1258.97,1444.99 1262.00,1447.00
             1262.00,1447.00 1260.00,1449.00 1260.00,1449.00
             1261.10,1450.83 1262.58,1453.01 1263.28,1455.00
             1265.58,1461.55 1264.04,1477.23 1264.00,1485.00
             1264.00,1485.00 1263.41,1496.00 1263.41,1496.00
             1263.78,1499.72 1267.47,1508.05 1268.95,1512.00
             1268.95,1512.00 1277.69,1533.91 1277.69,1533.91
             1277.69,1533.91 1289.00,1552.00 1289.00,1552.00
             1283.41,1554.32 1286.93,1560.25 1289.00,1564.00
             1289.00,1564.00 1291.00,1560.00 1291.00,1560.00
             1291.00,1560.00 1288.04,1574.00 1288.04,1574.00
             1288.04,1574.00 1289.90,1587.00 1289.90,1587.00
             1289.90,1587.00 1289.90,1599.00 1289.90,1599.00
             1289.90,1599.00 1294.00,1600.00 1294.00,1600.00
             1294.00,1600.00 1295.00,1596.00 1295.00,1596.00
             1297.23,1599.09 1297.28,1599.15 1301.00,1600.00
             1301.00,1600.00 1302.00,1609.00 1302.00,1609.00
             1307.94,1617.75 1308.00,1617.69 1308.00,1628.00
             1312.89,1631.07 1311.90,1635.01 1313.53,1639.96
             1313.53,1639.96 1317.17,1647.09 1317.17,1647.09
             1320.19,1654.28 1319.58,1656.73 1319.00,1664.00
             1319.00,1664.00 1322.00,1663.00 1322.00,1663.00
             1323.45,1670.21 1325.18,1671.44 1324.00,1679.00
             1328.17,1683.20 1327.17,1683.72 1328.36,1689.00
             1329.17,1692.61 1330.77,1695.13 1330.82,1699.00
             1330.82,1699.00 1329.65,1714.00 1329.65,1714.00
             1330.20,1718.98 1334.97,1724.94 1337.86,1729.00
             1337.86,1729.00 1353.00,1751.00 1353.00,1751.00
             1349.89,1757.01 1357.19,1759.50 1360.95,1762.53
             1363.92,1764.92 1364.24,1766.60 1368.00,1768.00
             1368.00,1768.00 1368.00,1772.00 1368.00,1772.00
             1368.00,1772.00 1370.00,1774.00 1370.00,1774.00
             1370.00,1774.00 1373.00,1776.00 1373.00,1776.00
             1373.00,1776.00 1368.00,1778.00 1368.00,1778.00
             1372.09,1778.40 1372.92,1780.08 1373.00,1784.00
             1380.32,1786.43 1381.20,1799.29 1382.00,1806.00
             1385.34,1807.18 1386.49,1811.87 1387.68,1815.00
             1390.29,1821.89 1392.44,1830.86 1399.00,1835.00
             1399.00,1835.00 1394.00,1837.00 1394.00,1837.00
             1396.08,1838.10 1398.69,1838.85 1400.37,1840.51
             1403.92,1844.04 1408.04,1855.04 1408.00,1860.00
             1408.94,1862.22 1409.04,1871.19 1408.95,1874.00
             1408.95,1874.00 1408.95,1928.00 1408.95,1928.00
             1408.95,1928.00 1408.18,1946.00 1408.18,1946.00
             1408.18,1946.00 1408.18,1955.00 1408.18,1955.00
             1407.56,1961.35 1400.63,1963.85 1395.00,1964.00
             1395.00,1964.00 1377.02,1980.10 1377.02,1980.10
             1377.02,1980.10 1376.00,1984.00 1376.00,1984.00
             1376.00,1984.00 1369.00,1985.00 1369.00,1985.00
             1367.06,1992.71 1358.13,1992.53 1355.27,1993.89
             1352.87,1995.03 1352.36,1997.36 1347.96,2000.69
             1347.96,2000.69 1328.42,2014.08 1328.42,2014.08
             1324.85,2016.49 1322.31,2016.24 1322.00,2021.00
             1317.69,2022.87 1313.34,2025.86 1311.00,2030.00
             1311.00,2030.00 1309.00,2028.00 1309.00,2028.00
             1305.63,2030.47 1304.27,2030.65 1304.00,2035.00
             1304.00,2035.00 1300.00,2040.00 1300.00,2040.00
             1300.00,2040.00 1297.00,2039.00 1297.00,2039.00
             1295.30,2040.93 1293.62,2043.64 1291.00,2042.00
             1291.00,2042.00 1289.00,2046.00 1289.00,2046.00
             1289.00,2046.00 1289.00,2043.00 1289.00,2043.00
             1284.92,2046.14 1283.40,2048.93 1278.00,2049.00
             1278.00,2049.00 1280.00,2053.00 1280.00,2053.00
             1274.80,2054.59 1271.04,2054.03 1268.00,2059.00
             1268.00,2059.00 1265.00,2058.00 1265.00,2058.00
             1260.24,2065.03 1259.57,2062.22 1256.01,2065.07
             1254.20,2066.52 1253.77,2068.46 1252.13,2070.13
             1252.13,2070.13 1248.50,2072.87 1248.50,2072.87
             1247.11,2074.21 1247.58,2074.08 1247.00,2075.00
             1247.00,2075.00 1245.00,2073.00 1245.00,2073.00
             1245.00,2073.00 1244.00,2076.00 1244.00,2076.00
             1244.00,2076.00 1246.00,2075.00 1246.00,2075.00
             1246.00,2075.00 1236.15,2083.22 1236.15,2083.22
             1236.15,2083.22 1223.70,2097.27 1223.70,2097.27
             1223.70,2097.27 1217.45,2100.58 1217.45,2100.58
             1217.45,2100.58 1213.75,2104.51 1213.75,2104.51
             1213.75,2104.51 1204.00,2112.00 1204.00,2112.00
             1204.00,2112.00 1205.00,2114.00 1205.00,2114.00
             1205.00,2114.00 1194.00,2119.18 1194.00,2119.18
             1194.00,2119.18 1164.00,2131.26 1164.00,2131.26
             1164.00,2131.26 1146.00,2141.81 1146.00,2141.81
             1146.00,2141.81 1139.09,2144.63 1139.09,2144.63
             1139.09,2144.63 1127.00,2152.11 1127.00,2152.11
             1119.26,2157.96 1120.11,2158.27 1111.00,2162.30
             1108.89,2163.24 1105.36,2165.65 1104.00,2163.00
             1104.00,2163.00 1098.00,2164.00 1098.00,2164.00
             1098.00,2164.00 1099.00,2166.00 1099.00,2166.00
             1096.46,2166.33 1084.44,2170.84 1082.28,2172.13
             1082.28,2172.13 1076.98,2176.10 1076.98,2176.10
             1070.91,2179.86 1055.58,2187.93 1049.00,2189.00
             1048.76,2189.70 1049.18,2189.84 1048.17,2190.81
             1048.17,2190.81 1034.00,2198.76 1034.00,2198.76
             1034.00,2198.76 1020.87,2208.73 1020.87,2208.73
             1020.87,2208.73 1012.04,2211.99 1012.04,2211.99
             1008.59,2213.47 1008.28,2214.64 1005.83,2216.04
             1005.83,2216.04 997.04,2219.44 997.04,2219.44
             989.98,2222.74 989.84,2227.24 981.00,2225.00
             977.22,2231.39 973.27,2231.02 967.00,2234.15
             967.00,2234.15 958.72,2238.29 958.72,2238.29
             958.72,2238.29 953.00,2240.27 953.00,2240.27
             953.00,2240.27 943.00,2245.65 943.00,2245.65
             943.00,2245.65 934.00,2248.25 934.00,2248.25
             934.00,2248.25 917.83,2258.88 917.83,2258.88
             917.83,2258.88 902.00,2264.89 902.00,2264.89
             902.00,2264.89 877.00,2278.07 877.00,2278.07
             877.00,2278.07 865.00,2282.57 865.00,2282.57
             865.00,2282.57 851.09,2289.37 851.09,2289.37
             851.09,2289.37 845.34,2292.82 845.34,2292.82
             845.34,2292.82 832.42,2298.74 832.42,2298.74
             826.44,2302.33 821.47,2307.03 814.00,2306.00
             810.12,2313.14 809.45,2311.52 803.00,2313.98
             803.00,2313.98 796.00,2317.22 796.00,2317.22
             788.95,2320.53 787.36,2323.14 783.00,2325.24
             783.00,2325.24 761.00,2334.44 761.00,2334.44
             761.00,2334.44 721.00,2354.61 721.00,2354.61
             721.00,2354.61 699.42,2363.76 699.42,2363.76
             699.42,2363.76 693.99,2366.94 693.99,2366.94
             693.99,2366.94 688.00,2369.40 688.00,2369.40
             688.00,2369.40 679.00,2374.68 679.00,2374.68
             679.00,2374.68 664.00,2380.37 664.00,2380.37
             664.00,2380.37 644.00,2391.36 644.00,2391.36
             644.00,2391.36 636.00,2394.90 636.00,2394.90
             636.00,2394.90 630.00,2398.37 630.00,2398.37
             626.03,2400.45 624.95,2399.56 621.00,2401.63
             621.00,2401.63 605.83,2410.64 605.83,2410.64
             605.83,2410.64 586.00,2419.77 586.00,2419.77
             586.00,2419.77 569.09,2426.68 569.09,2426.68
             569.09,2426.68 559.00,2434.07 559.00,2434.07
             551.69,2439.33 546.61,2442.36 543.00,2451.00
             538.34,2451.26 537.49,2452.84 534.00,2455.69
             528.53,2460.17 524.00,2465.27 519.16,2470.39
             515.55,2474.20 513.59,2474.69 512.00,2480.00
             512.00,2480.00 506.00,2481.00 506.00,2481.00
             506.00,2481.00 507.00,2483.00 507.00,2483.00
             501.88,2485.89 489.25,2493.56 488.00,2499.00
             482.54,2500.44 482.00,2502.41 477.84,2505.50
             474.52,2507.96 472.78,2508.33 469.18,2511.87
             469.18,2511.87 464.59,2517.73 464.59,2517.73
             467.33,2514.89 451.28,2528.94 453.83,2526.97
             447.54,2531.85 439.41,2535.29 438.00,2544.00
             429.69,2545.41 426.67,2554.51 420.87,2559.45
             418.24,2561.69 416.38,2561.97 413.29,2565.13
             413.29,2565.13 405.76,2574.68 405.76,2574.68
             405.76,2574.68 391.98,2587.68 391.98,2587.68
             391.98,2587.68 387.45,2593.91 387.45,2593.91
             387.45,2593.91 372.00,2609.00 372.00,2609.00
             370.95,2613.43 368.38,2614.62 365.28,2617.59
             365.28,2617.59 353.58,2630.46 353.58,2630.46
             353.58,2630.46 338.09,2649.44 338.09,2649.44
             338.09,2649.44 334.51,2654.55 334.51,2654.55
             334.51,2654.55 317.82,2672.72 317.82,2672.72
             317.82,2672.72 310.34,2679.58 310.34,2679.58
             310.34,2679.58 305.55,2685.59 305.55,2685.59
             305.55,2685.59 301.83,2688.79 301.83,2688.79
             299.71,2691.10 300.20,2692.71 296.67,2695.54
             296.67,2695.54 292.45,2698.63 292.45,2698.63
             292.45,2698.63 281.74,2709.17 281.74,2709.17
             281.74,2709.17 270.19,2715.68 270.19,2715.68
             266.26,2718.86 263.83,2727.07 264.46,2732.00
             264.87,2735.15 266.59,2737.27 266.52,2741.00
             266.44,2745.23 263.63,2754.41 261.19,2757.90
             261.19,2757.90 256.88,2762.59 256.88,2762.59
             256.88,2762.59 249.16,2773.02 249.16,2773.02
             246.37,2776.61 243.11,2783.05 240.00,2785.00
             239.08,2788.09 233.11,2792.21 230.41,2797.00
             230.41,2797.00 227.15,2803.83 227.15,2803.83
             227.15,2803.83 211.26,2823.58 211.26,2823.58
             211.26,2823.58 206.74,2831.54 206.74,2831.54
             206.74,2831.54 201.74,2837.08 201.74,2837.08
             201.74,2837.08 196.08,2845.74 196.08,2845.74
             196.08,2845.74 190.31,2853.71 190.31,2853.71
             188.59,2855.89 186.93,2856.73 185.35,2859.30
             185.35,2859.30 175.91,2877.83 175.91,2877.83
             175.91,2877.83 169.03,2887.11 169.03,2887.11
             165.00,2892.87 167.65,2893.42 160.00,2898.00
             160.36,2907.27 153.82,2912.43 149.00,2919.57
             146.50,2923.29 148.01,2923.96 144.00,2927.00
             144.00,2927.00 146.00,2929.00 146.00,2929.00
             146.00,2929.00 141.41,2933.04 141.41,2933.04
             141.41,2933.04 131.00,2952.00 131.00,2952.00
             131.00,2952.00 129.00,2950.00 129.00,2950.00
             129.00,2950.00 127.93,2957.06 127.93,2957.06
             126.99,2959.61 125.29,2960.00 123.30,2963.13
             123.30,2963.13 117.88,2973.00 117.88,2973.00
             117.88,2973.00 115.62,2979.00 115.62,2979.00
             113.07,2984.15 109.34,2989.14 109.00,2995.00
             105.65,2997.10 104.75,2999.90 102.43,3003.09
             97.17,3010.32 92.70,3014.15 91.00,3023.00
             91.00,3023.00 88.00,3022.00 88.00,3022.00
             88.00,3022.00 88.00,3032.00 88.00,3032.00
             81.58,3034.43 79.42,3042.52 76.27,3048.00
             76.27,3048.00 63.48,3073.00 63.48,3073.00
             60.12,3078.92 52.42,3092.03 51.00,3098.00
             51.00,3098.00 49.00,3097.00 49.00,3097.00
             45.39,3110.16 45.16,3105.21 41.72,3112.09
             41.72,3112.09 38.71,3120.00 38.71,3120.00
             35.62,3126.75 34.58,3126.14 32.09,3130.30
             29.53,3134.59 28.61,3138.26 25.00,3142.00
             25.00,3142.00 26.00,3144.00 26.00,3144.00
             19.13,3148.14 18.18,3156.80 14.94,3162.99
             9.76,3172.92 0.07,3183.62 0.00,3195.00
             0.00,3195.00 0.00,3227.00 0.00,3227.00
             0.00,3227.00 0.00,3450.00 0.00,3450.00
             0.00,3450.00 0.00,4388.00 0.00,4388.00
             0.00,4388.00 3304.00,4388.00 3304.00,4388.00
             3304.00,4388.00 3293.42,4324.00 3293.42,4324.00
             3293.42,4324.00 3284.00,4278.00 3284.00,4278.00
             3284.00,4278.00 3302.00,4294.26 3302.00,4294.26
             3302.00,4294.26 3317.00,4299.00 3317.00,4299.00
             3317.00,4299.00 3336.00,4305.48 3336.00,4305.48
             3336.00,4305.48 3360.00,4307.00 3360.00,4307.00
             3362.39,4307.00 3365.78,4306.87 3367.98,4307.74
             3373.52,4309.92 3373.62,4314.01 3374.16,4319.00
             3374.16,4319.00 3376.00,4338.00 3376.00,4338.00
             3376.46,4340.30 3376.79,4343.33 3378.56,4345.01
             3380.54,4346.88 3396.97,4353.15 3400.00,4353.58
             3405.08,4354.30 3407.85,4350.91 3410.49,4351.63
             3412.58,4352.20 3415.71,4357.18 3416.98,4359.00
             3418.63,4361.38 3422.43,4366.41 3422.98,4369.00
             3423.66,4372.22 3420.08,4384.28 3419.00,4388.00
             3419.00,4388.00 3646.00,4388.00 3646.00,4388.00
             3646.00,4388.00 3646.00,3099.00 3646.00,3099.00
             3646.00,3099.00 3646.00,2791.00 3646.00,2791.00
             3646.00,2791.00 3646.00,2714.00 3646.00,2714.00
             3645.98,2703.97 3645.07,2707.63 3640.83,2700.96
             3637.47,2695.66 3639.22,2692.70 3629.00,2687.00
             3629.00,2687.00 3630.00,2683.00 3630.00,2683.00
             3630.00,2683.00 3617.00,2673.00 3617.00,2673.00
             3614.21,2663.22 3608.20,2658.22 3602.12,2650.57
             3602.12,2650.57 3594.61,2640.26 3594.61,2640.26
             3591.24,2636.62 3590.03,2633.00 3585.00,2632.00
             3582.64,2624.06 3571.35,2612.02 3565.69,2605.78
             3565.69,2605.78 3553.67,2592.55 3553.67,2592.55
             3553.67,2592.55 3548.75,2585.30 3548.75,2585.30
             3548.75,2585.30 3537.62,2574.56 3537.62,2574.56
             3537.62,2574.56 3525.07,2560.04 3525.07,2560.04
             3525.07,2560.04 3512.91,2548.45 3512.91,2548.45
             3508.45,2544.80 3505.88,2545.10 3504.00,2539.00
             3496.06,2534.91 3500.67,2531.15 3498.44,2525.28
             3497.36,2522.42 3491.72,2515.14 3489.27,2513.11
             3489.27,2513.11 3472.32,2503.10 3472.32,2503.10
             3472.32,2503.10 3468.49,2499.79 3468.49,2499.79
             3468.49,2499.79 3453.83,2490.47 3453.83,2490.47
             3453.83,2490.47 3438.00,2482.87 3438.00,2482.87
             3438.00,2482.87 3429.00,2476.04 3429.00,2476.04
             3421.87,2471.60 3409.82,2466.19 3407.00,2458.00
             3400.51,2457.63 3395.90,2453.08 3390.72,2449.81
             3390.72,2449.81 3384.17,2446.44 3384.17,2446.44
             3381.48,2444.40 3380.35,2441.70 3376.83,2439.18
             3376.83,2439.18 3363.09,2430.83 3363.09,2430.83
             3363.09,2430.83 3353.04,2423.34 3353.04,2423.34
             3345.79,2418.68 3348.24,2415.55 3339.00,2415.00
             3336.86,2407.79 3331.51,2406.65 3325.92,2402.43
             3320.68,2398.48 3321.32,2397.95 3317.63,2394.36
             3317.63,2394.36 3311.00,2388.99 3311.00,2388.99
             3311.00,2388.99 3299.49,2379.50 3299.49,2379.50
             3299.49,2379.50 3293.17,2374.97 3293.17,2374.97
             3293.17,2374.97 3279.91,2362.82 3279.91,2362.82
             3279.91,2362.82 3263.00,2353.26 3263.00,2353.26
             3263.00,2353.26 3256.17,2350.72 3256.17,2350.72
             3256.17,2350.72 3250.91,2347.19 3250.91,2347.19
             3250.91,2347.19 3220.00,2328.70 3220.00,2328.70
             3213.65,2324.79 3212.28,2322.65 3209.58,2320.88
             3209.58,2320.88 3201.01,2316.76 3201.01,2316.76
             3194.12,2312.90 3186.26,2307.34 3178.00,2308.00
             3176.13,2304.49 3175.74,2304.32 3172.00,2303.00
             3172.00,2303.00 3173.00,2301.00 3173.00,2301.00
             3160.84,2297.47 3155.99,2293.83 3145.00,2288.71
             3145.00,2288.71 3138.17,2286.07 3138.17,2286.07
             3138.17,2286.07 3132.91,2282.99 3132.91,2282.99
             3132.91,2282.99 3123.00,2279.64 3123.00,2279.64
             3123.00,2279.64 3114.09,2275.89 3114.09,2275.89
             3114.09,2275.89 3109.72,2273.50 3109.72,2273.50
             3109.72,2273.50 3102.00,2271.61 3102.00,2271.61
             3102.00,2271.61 3096.00,2268.43 3096.00,2268.43
             3096.00,2268.43 3084.00,2263.84 3084.00,2263.84
             3084.00,2263.84 3069.00,2259.52 3069.00,2259.52
             3069.00,2259.52 3063.00,2256.88 3063.00,2256.88
             3055.48,2253.86 3047.93,2251.37 3040.00,2249.60
             3033.66,2248.18 3029.90,2250.30 3025.00,2243.00
             3025.00,2243.00 3023.00,2245.00 3023.00,2245.00
             3016.98,2241.01 3012.68,2242.37 3007.00,2236.00
             2997.89,2237.48 2996.12,2234.73 2988.91,2232.00
             2983.41,2229.91 2981.05,2230.99 2978.00,2225.00
             2969.00,2226.29 2973.64,2226.27 2965.83,2224.03
             2963.80,2223.45 2962.08,2223.51 2960.04,2222.56
             2960.04,2222.56 2954.72,2219.03 2954.72,2219.03
             2954.72,2219.03 2945.00,2216.63 2945.00,2216.63
             2945.00,2216.63 2935.00,2212.12 2935.00,2212.12
             2935.00,2212.12 2922.00,2208.52 2922.00,2208.52
             2922.00,2208.52 2915.09,2207.42 2915.09,2207.42
             2912.33,2206.44 2911.78,2204.83 2907.02,2203.25
             2907.02,2203.25 2892.00,2199.39 2892.00,2199.39
             2892.00,2199.39 2886.00,2196.85 2886.00,2196.85
             2886.00,2196.85 2879.00,2195.14 2879.00,2195.14
             2879.00,2195.14 2861.83,2189.13 2861.83,2189.13
             2861.83,2189.13 2850.00,2186.83 2850.00,2186.83
             2841.67,2184.46 2840.98,2182.57 2835.72,2180.16
             2833.54,2179.16 2832.14,2179.45 2830.00,2178.84
             2822.52,2176.72 2826.85,2176.03 2816.00,2176.00
             2816.00,2176.00 2815.00,2172.00 2815.00,2172.00
             2800.15,2172.94 2796.07,2166.56 2791.00,2164.58
             2785.43,2162.39 2779.34,2161.72 2776.00,2156.00
             2762.95,2153.99 2763.92,2151.54 2757.96,2148.83
             2757.96,2148.83 2748.04,2144.60 2748.04,2144.60
             2748.04,2144.60 2739.96,2139.01 2739.96,2139.01
             2739.96,2139.01 2732.00,2134.82 2732.00,2134.82
             2727.13,2132.86 2726.31,2134.25 2722.00,2130.00
             2715.90,2129.59 2715.15,2125.94 2710.77,2123.43
             2710.77,2123.43 2702.00,2120.52 2702.00,2120.52
             2695.85,2118.06 2693.24,2114.60 2686.00,2115.00
             2683.30,2110.65 2675.23,2104.52 2670.72,2102.00
             2668.39,2100.70 2665.96,2100.75 2664.00,2099.00
             2654.08,2102.73 2652.12,2097.11 2646.58,2092.94
             2646.58,2092.94 2635.96,2086.26 2635.96,2086.26
             2617.18,2075.83 2600.35,2065.04 2579.00,2060.75
             2571.41,2059.23 2567.29,2056.24 2559.00,2059.00
             2559.00,2059.00 2559.00,2055.00 2559.00,2055.00
             2554.90,2054.76 2554.08,2054.84 2551.00,2052.00
             2551.00,2052.00 2549.00,2052.00 2549.00,2052.00
             2549.00,2052.00 2549.00,2054.00 2549.00,2054.00
             2549.00,2054.00 2547.00,2054.00 2547.00,2054.00
             2547.00,2054.00 2547.00,2052.00 2547.00,2052.00
             2538.17,2051.90 2539.38,2048.20 2532.91,2044.59
             2525.53,2040.47 2517.87,2036.85 2510.00,2033.74
             2504.43,2031.54 2498.42,2030.09 2495.00,2025.00
             2487.32,2024.62 2482.85,2017.85 2477.87,2016.89
             2476.43,2016.47 2474.50,2016.92 2473.00,2016.89
             2473.00,2016.89 2475.00,2015.00 2475.00,2015.00
             2475.00,2015.00 2457.31,2007.17 2457.31,2007.17
             2457.31,2007.17 2449.00,2003.00 2449.00,2003.00
             2449.00,2003.00 2449.00,2000.00 2449.00,2000.00
             2442.01,1998.85 2443.91,1996.46 2438.90,1993.87
             2433.06,1990.86 2431.83,1994.26 2426.00,1987.00
             2426.00,1987.00 2423.00,1988.00 2423.00,1988.00
             2420.41,1984.87 2417.70,1985.27 2414.00,1986.00
             2414.00,1986.00 2414.00,1985.00 2414.00,1985.00
             2414.00,1985.00 2416.00,1983.00 2416.00,1983.00
             2409.74,1975.18 2408.01,1979.11 2401.00,1976.62
             2401.00,1976.62 2386.66,1969.47 2386.66,1969.47
             2381.87,1966.72 2383.69,1964.62 2376.00,1964.00
             2376.00,1964.00 2377.00,1961.00 2377.00,1961.00
             2377.00,1961.00 2372.00,1962.00 2372.00,1962.00
             2370.90,1960.03 2360.56,1949.24 2358.56,1947.54
             2356.54,1945.82 2354.32,1945.12 2352.51,1942.95
             2350.03,1939.97 2351.54,1933.09 2346.00,1936.00
             2344.59,1932.46 2341.04,1927.06 2337.79,1924.98
             2335.70,1923.64 2332.85,1923.52 2330.78,1921.06
             2328.47,1918.30 2328.02,1912.46 2328.00,1909.00
             2328.00,1909.00 2328.00,1872.00 2328.00,1872.00
             2328.00,1872.00 2327.18,1860.00 2327.18,1860.00
             2327.18,1860.00 2327.82,1853.00 2327.82,1853.00
             2327.79,1846.11 2323.33,1838.63 2327.00,1832.00
             2327.00,1832.00 2325.00,1823.00 2325.00,1823.00
             2325.00,1823.00 2322.00,1824.00 2322.00,1824.00
             2324.06,1807.49 2331.48,1807.82 2329.00,1798.00
             2329.00,1798.00 2326.00,1800.00 2326.00,1800.00
             2326.00,1800.00 2329.00,1789.00 2329.00,1789.00
             2332.58,1793.45 2333.56,1795.62 2339.00,1798.00
             2341.01,1790.35 2335.25,1788.24 2342.00,1784.00
             2342.00,1784.00 2343.00,1777.00 2343.00,1777.00
             2346.27,1779.06 2350.14,1777.47 2351.12,1773.74
             2351.68,1772.28 2351.19,1769.56 2351.12,1768.00
             2351.12,1768.00 2348.00,1768.00 2348.00,1768.00
             2348.00,1768.00 2347.00,1752.00 2347.00,1752.00
             2347.00,1752.00 2349.00,1752.00 2349.00,1752.00
             2349.00,1752.00 2349.00,1760.00 2349.00,1760.00
             2349.00,1760.00 2358.00,1762.00 2358.00,1762.00
             2358.00,1762.00 2354.00,1759.00 2354.00,1759.00
             2354.00,1759.00 2356.00,1752.00 2356.00,1752.00
             2356.00,1752.00 2352.00,1752.00 2352.00,1752.00
             2352.00,1752.00 2352.00,1748.00 2352.00,1748.00
             2352.00,1748.00 2362.00,1752.00 2362.00,1752.00
             2362.00,1752.00 2361.00,1736.00 2361.00,1736.00
             2361.00,1736.00 2365.00,1736.00 2365.00,1736.00
             2361.69,1733.83 2361.23,1733.90 2360.00,1730.00
             2360.00,1730.00 2368.00,1729.00 2368.00,1729.00
             2368.00,1729.00 2366.00,1744.00 2366.00,1744.00
             2366.00,1744.00 2368.00,1738.00 2368.00,1738.00
             2378.69,1736.48 2379.07,1727.22 2376.00,1719.00
             2376.00,1719.00 2374.00,1720.00 2374.00,1720.00
             2373.15,1713.97 2373.00,1708.68 2367.00,1706.00
             2368.84,1703.40 2369.58,1702.32 2367.00,1700.00
             2369.48,1697.27 2369.30,1697.19 2373.00,1697.00
             2372.41,1691.71 2373.95,1684.43 2369.00,1681.00
             2369.00,1681.00 2369.00,1676.00 2369.00,1676.00
             2369.00,1676.00 2380.00,1673.00 2380.00,1673.00
             2384.72,1672.21 2387.89,1673.61 2391.00,1669.00
             2391.00,1669.00 2394.00,1671.00 2394.00,1671.00
             2394.00,1671.00 2398.00,1656.00 2398.00,1656.00
             2398.00,1656.00 2395.00,1656.00 2395.00,1656.00
             2395.00,1656.00 2395.00,1648.00 2395.00,1648.00
             2395.00,1648.00 2400.00,1648.00 2400.00,1648.00
             2400.00,1648.00 2400.00,1637.00 2400.00,1637.00
             2394.81,1635.54 2394.09,1635.71 2390.00,1639.00
             2391.83,1633.49 2394.83,1634.05 2400.00,1634.00
             2400.00,1634.00 2401.23,1617.00 2401.23,1617.00
             2402.07,1613.52 2403.89,1610.70 2401.23,1608.00
             2401.23,1608.00 2404.00,1605.00 2404.00,1605.00
             2404.00,1605.00 2406.51,1589.01 2406.51,1589.01
             2406.04,1585.61 2402.49,1580.19 2410.00,1576.00
             2410.00,1576.00 2410.00,1568.00 2410.00,1568.00
             2410.00,1568.00 2413.00,1568.00 2413.00,1568.00
             2412.66,1563.29 2412.09,1557.79 2413.88,1553.28
             2414.55,1551.58 2415.23,1550.95 2415.71,1548.91
             2415.71,1548.91 2416.86,1541.01 2416.86,1541.01
             2418.57,1534.55 2419.90,1537.85 2420.00,1529.00
             2417.93,1528.39 2416.49,1527.68 2417.01,1525.02
             2417.61,1521.95 2420.73,1521.35 2421.69,1517.87
             2421.69,1517.87 2422.36,1506.00 2422.36,1506.00
             2422.36,1506.00 2424.00,1497.00 2424.00,1497.00
             2424.00,1497.00 2422.00,1500.00 2422.00,1500.00
             2422.00,1500.00 2422.00,1492.00 2422.00,1492.00
             2422.00,1492.00 2424.00,1493.00 2424.00,1493.00
             2424.00,1493.00 2424.00,1474.00 2424.00,1474.00
             2426.46,1474.08 2428.52,1473.44 2425.00,1472.00
             2425.75,1464.14 2421.82,1461.31 2421.59,1450.00
             2421.51,1446.49 2419.94,1441.57 2424.00,1440.00
             2424.00,1440.00 2425.00,1429.00 2425.00,1429.00
             2425.00,1429.00 2427.78,1421.00 2427.78,1421.00
             2427.78,1421.00 2426.00,1404.00 2426.00,1404.00
             2426.00,1404.00 2431.00,1405.00 2431.00,1405.00
             2432.08,1400.48 2433.01,1397.76 2428.00,1396.00
             2428.00,1396.00 2431.00,1392.00 2431.00,1392.00
             2431.00,1392.00 2431.00,1385.00 2431.00,1385.00
             2431.00,1385.00 2433.00,1390.00 2433.00,1390.00
             2433.00,1390.00 2435.55,1378.17 2435.55,1378.17
             2435.55,1378.17 2437.50,1373.83 2437.50,1373.83
             2437.50,1373.83 2441.00,1360.00 2441.00,1360.00
             2441.00,1360.00 2444.00,1361.00 2444.00,1361.00
             2444.00,1361.00 2447.00,1359.00 2447.00,1359.00
             2447.48,1353.40 2447.72,1351.83 2452.00,1348.00
             2452.00,1348.00 2451.00,1345.00 2451.00,1345.00
             2456.93,1342.63 2457.50,1335.25 2460.29,1330.26
             2460.29,1330.26 2469.13,1317.84 2469.13,1317.84
             2472.78,1311.88 2475.70,1305.42 2478.36,1299.00
             2480.39,1294.09 2483.25,1291.46 2483.00,1286.00
             2489.12,1283.65 2493.44,1270.92 2491.00,1265.00
             2491.00,1265.00 2494.00,1264.00 2494.00,1264.00
             2492.94,1259.67 2492.70,1259.21 2496.00,1256.00
             2494.17,1242.19 2501.61,1243.00 2505.00,1224.00
             2508.93,1222.95 2508.76,1219.51 2509.74,1216.00
             2509.74,1216.00 2512.55,1206.00 2512.55,1206.00
             2512.55,1206.00 2513.92,1197.09 2513.92,1197.09
             2514.81,1194.07 2516.58,1193.24 2517.88,1189.96
             2517.88,1189.96 2519.45,1185.00 2519.45,1185.00
             2519.45,1185.00 2527.83,1168.00 2527.83,1168.00
             2530.05,1162.63 2532.61,1150.91 2533.42,1145.00
             2534.79,1135.11 2535.05,1127.44 2528.08,1119.24
             2517.50,1106.78 2503.54,1103.96 2488.00,1104.00
             2485.34,1104.01 2471.51,1103.87 2470.09,1104.67
             2469.16,1105.19 2469.31,1105.54 2469.00,1106.00
             2469.00,1106.00 2452.91,1094.67 2452.91,1094.67
             2452.91,1094.67 2433.00,1087.67 2433.00,1087.67
             2433.00,1087.67 2424.00,1083.00 2424.00,1083.00
             2424.00,1083.00 2420.52,1073.00 2420.52,1073.00
             2419.03,1066.18 2420.01,1050.46 2422.70,1044.00
             2425.09,1038.23 2430.74,1034.30 2433.19,1030.83
             2435.71,1027.26 2442.41,1008.65 2443.24,1004.00
             2443.24,1004.00 2447.75,976.00 2447.75,976.00
             2448.37,972.25 2450.24,964.29 2449.76,961.00
             2448.84,954.66 2441.65,948.80 2439.06,942.83
             2437.50,939.23 2438.00,932.10 2438.00,928.00
             2427.19,926.74 2433.23,922.45 2427.00,912.00
             2426.17,915.34 2426.99,916.35 2429.00,919.00
             2429.00,919.00 2424.00,922.00 2424.00,922.00
             2424.00,922.00 2423.00,912.00 2423.00,912.00
             2423.00,912.00 2419.00,912.00 2419.00,912.00
             2419.00,912.00 2419.00,909.00 2419.00,909.00
             2419.00,909.00 2414.00,910.00 2414.00,910.00
             2413.65,901.43 2421.06,895.24 2424.47,887.83
             2426.32,883.83 2426.05,879.30 2426.00,875.00
             2425.88,865.43 2422.85,856.15 2420.54,847.00
             2420.54,847.00 2418.29,834.00 2418.29,834.00
             2418.29,834.00 2414.49,823.00 2414.49,823.00
             2414.49,823.00 2413.89,809.17 2413.89,809.17
             2413.91,803.18 2417.78,800.91 2419.51,794.99
             2424.22,778.85 2425.73,774.96 2424.96,758.00
             2424.96,758.00 2420.12,720.00 2420.12,720.00
             2420.12,720.00 2417.92,713.00 2417.92,713.00
             2417.92,713.00 2412.41,689.00 2412.41,689.00
             2410.33,676.45 2406.23,679.73 2408.00,666.00
             2408.00,666.00 2407.00,669.00 2407.00,669.00
             2404.49,663.56 2404.83,663.06 2403.18,658.00
             2403.18,658.00 2391.68,625.91 2391.68,625.91
             2391.68,625.91 2384.71,614.72 2384.71,614.72
             2384.71,614.72 2375.32,595.13 2375.32,595.13
             2373.25,591.65 2371.75,591.67 2369.17,587.95
             2369.17,587.95 2362.46,575.09 2362.46,575.09
             2362.46,575.09 2348.59,557.85 2348.59,557.85
             2348.59,557.85 2336.56,542.55 2336.56,542.55
             2336.56,542.55 2331.84,536.11 2331.84,536.11
             2331.84,536.11 2326.43,530.74 2326.43,530.74
             2326.43,530.74 2318.31,520.85 2318.31,520.85
             2315.13,517.43 2313.61,514.54 2309.00,513.00
             2309.00,513.00 2310.00,511.00 2310.00,511.00
             2310.00,511.00 2307.00,511.00 2307.00,511.00
             2307.00,511.00 2308.00,508.00 2308.00,508.00
             2308.00,508.00 2305.00,509.00 2305.00,509.00
             2300.10,500.93 2285.80,487.73 2278.29,481.66
             2273.94,478.15 2273.49,475.96 2268.00,474.00
             2268.00,474.00 2269.00,471.00 2269.00,471.00
             2269.00,471.00 2265.00,471.00 2265.00,471.00
             2263.71,464.63 2256.25,465.73 2255.00,459.00
             2255.00,459.00 2248.89,452.86 2248.89,452.86
             2248.89,452.86 2234.00,443.00 2234.00,443.00
             2234.00,443.00 2236.00,441.00 2236.00,441.00
             2236.00,441.00 2235.00,440.00 2235.00,440.00
             2235.00,440.00 2233.00,441.00 2233.00,441.00
             2230.64,436.54 2225.97,434.49 2222.12,430.60
             2211.49,419.85 2194.57,407.28 2181.97,398.65
             2176.62,394.99 2165.99,389.35 2163.00,384.00
             2156.95,383.00 2157.71,381.21 2152.96,378.18
             2152.96,378.18 2133.00,365.83 2133.00,365.83
             2133.00,365.83 2125.00,360.44 2125.00,360.44
             2125.00,360.44 2119.01,357.29 2119.01,357.29
             2115.70,355.93 2113.07,356.96 2112.00,353.00
             2112.00,353.00 2105.00,352.00 2105.00,352.00
             2101.37,343.77 2093.11,342.94 2088.00,339.00
             2083.60,338.63 2079.86,334.97 2076.00,332.87
             2076.00,332.87 2061.91,327.50 2061.91,327.50
             2058.73,326.49 2055.29,326.47 2054.00,323.00
             2054.00,323.00 2050.00,324.00 2050.00,324.00
             2050.00,324.00 2049.00,320.00 2049.00,320.00
             2049.00,320.00 2041.00,319.00 2041.00,319.00
             2041.00,319.00 2034.00,314.90 2034.00,314.90
             2034.00,314.90 2015.00,306.77 2015.00,306.77
             2015.00,306.77 1997.00,300.37 1997.00,300.37
             1997.00,300.37 1980.00,296.63 1980.00,296.63
             1980.00,296.63 1970.00,292.90 1970.00,292.90
             1970.00,292.90 1951.00,288.46 1951.00,288.46
             1951.00,288.46 1943.00,287.33 1943.00,287.33
             1943.00,287.33 1932.00,284.32 1932.00,284.32
             1932.00,284.32 1925.00,283.73 1925.00,283.73
             1925.00,283.73 1919.00,281.76 1919.00,281.76
             1919.00,281.76 1907.09,279.70 1907.09,279.70
             1907.09,279.70 1898.99,279.00 1898.99,279.00
             1898.99,279.00 1853.00,275.00 1853.00,275.00
             1853.00,275.00 1840.00,275.00 1840.00,275.00
             1840.00,275.00 1829.00,274.36 1829.00,274.36
             1829.00,274.36 1816.00,275.00 1816.00,275.00
             1816.00,275.00 1783.00,278.00 1783.00,278.00
             1783.00,278.00 1775.00,278.00 1775.00,278.00
             1775.00,278.00 1763.00,279.91 1763.00,279.91
             1763.00,279.91 1746.01,281.15 1746.01,281.15
             1746.01,281.15 1726.00,285.34 1726.00,285.34
             1726.00,285.34 1719.00,287.47 1719.00,287.47
             1719.00,287.47 1707.00,288.47 1707.00,288.47
             1707.00,288.47 1700.00,291.10 1700.00,291.10
             1700.00,291.10 1692.00,293.36 1692.00,293.36
             1692.00,293.36 1679.00,297.96 1679.00,297.96
             1679.00,297.96 1672.00,299.63 1672.00,299.63
             1672.00,299.63 1663.00,303.29 1663.00,303.29
             1663.00,303.29 1644.00,309.47 1644.00,309.47
             1644.00,309.47 1623.00,319.14 1623.00,319.14
             1623.00,319.14 1602.00,327.49 1602.00,327.49
             1602.00,327.49 1592.00,332.74 1592.00,332.74
             1592.00,332.74 1578.00,339.50 1578.00,339.50
             1578.00,339.50 1568.00,345.63 1568.00,345.63
             1568.00,345.63 1542.00,359.35 1542.00,359.35
             1542.00,359.35 1532.91,367.21 1532.91,367.21
             1532.91,367.21 1514.00,379.35 1514.00,379.35
             1514.00,379.35 1496.00,392.00 1496.00,392.00 Z
           M 2117.00,357.00
           C 2117.00,357.00 2117.00,358.00 2117.00,358.00
             2117.00,358.00 2116.00,357.00 2116.00,357.00
             2116.00,357.00 2117.00,357.00 2117.00,357.00 Z
           M 2122.00,360.00
           C 2122.00,360.00 2122.00,361.00 2122.00,361.00
             2122.00,361.00 2121.00,360.00 2121.00,360.00
             2121.00,360.00 2122.00,360.00 2122.00,360.00 Z
           M 2404.00,655.00
           C 2404.00,655.00 2404.00,656.00 2404.00,656.00
             2404.00,656.00 2405.00,655.00 2405.00,655.00
             2405.00,655.00 2404.00,655.00 2404.00,655.00 Z
           M 2421.00,1427.00
           C 2421.00,1427.00 2421.00,1438.00 2421.00,1438.00
             2418.91,1434.41 2419.47,1430.75 2421.00,1427.00 Z
           M 1281.00,1544.00
           C 1281.00,1544.00 1281.00,1550.00 1281.00,1550.00
             1281.00,1550.00 1281.00,1544.00 1281.00,1544.00 Z
           M 1289.00,1555.00
           C 1289.00,1555.00 1290.00,1560.00 1290.00,1560.00
             1287.89,1558.11 1288.04,1557.61 1289.00,1555.00 Z
           M 2391.00,1643.00
           C 2391.00,1643.00 2391.00,1644.00 2391.00,1644.00
             2391.00,1644.00 2390.00,1643.00 2390.00,1643.00
             2390.00,1643.00 2391.00,1643.00 2391.00,1643.00 Z
           M 2392.00,1644.00
           C 2392.00,1644.00 2392.00,1645.00 2392.00,1645.00
             2392.00,1645.00 2391.00,1644.00 2391.00,1644.00
             2391.00,1644.00 2392.00,1644.00 2392.00,1644.00 Z
           M 2390.00,1647.00
           C 2390.00,1647.00 2390.00,1648.00 2390.00,1648.00
             2390.00,1648.00 2389.00,1647.00 2389.00,1647.00
             2389.00,1647.00 2390.00,1647.00 2390.00,1647.00 Z
           M 2393.00,1647.00
           C 2393.00,1647.00 2393.00,1648.00 2393.00,1648.00
             2393.00,1648.00 2392.00,1647.00 2392.00,1647.00
             2392.00,1647.00 2393.00,1647.00 2393.00,1647.00 Z
           M 2375.00,1707.00
           C 2373.85,1710.24 2373.32,1710.66 2376.00,1713.00
             2376.00,1713.00 2375.00,1707.00 2375.00,1707.00 Z
           M 2363.00,1731.00
           C 2363.00,1731.00 2363.00,1732.00 2363.00,1732.00
             2363.00,1732.00 2364.00,1731.00 2364.00,1731.00
             2364.00,1731.00 2363.00,1731.00 2363.00,1731.00 Z
           M 2361.00,1732.00
           C 2361.00,1732.00 2361.00,1733.00 2361.00,1733.00
             2361.00,1733.00 2362.00,1732.00 2362.00,1732.00
             2362.00,1732.00 2361.00,1732.00 2361.00,1732.00 Z
           M 1355.00,1754.00
           C 1355.00,1754.00 1355.00,1755.00 1355.00,1755.00
             1355.00,1755.00 1354.00,1754.00 1354.00,1754.00
             1354.00,1754.00 1355.00,1754.00 1355.00,1754.00 Z
           M 2338.00,1776.00
           C 2338.00,1776.00 2337.00,1780.00 2337.00,1780.00
             2337.00,1780.00 2338.00,1776.00 2338.00,1776.00 Z
           M 2349.00,1936.00
           C 2349.00,1936.00 2349.00,1937.00 2349.00,1937.00
             2349.00,1937.00 2348.00,1936.00 2348.00,1936.00
             2348.00,1936.00 2349.00,1936.00 2349.00,1936.00 Z
           M 2348.00,1937.00
           C 2348.00,1937.00 2348.00,1938.00 2348.00,1938.00
             2348.00,1938.00 2347.00,1937.00 2347.00,1937.00
             2347.00,1937.00 2348.00,1937.00 2348.00,1937.00 Z
           M 2350.00,1939.00
           C 2350.00,1939.00 2350.00,1940.00 2350.00,1940.00
             2350.00,1940.00 2349.00,1939.00 2349.00,1939.00
             2349.00,1939.00 2350.00,1939.00 2350.00,1939.00 Z
           M 1408.00,1961.00
           C 1408.00,1961.00 1408.00,1962.00 1408.00,1962.00
             1408.00,1962.00 1407.00,1961.00 1407.00,1961.00
             1407.00,1961.00 1408.00,1961.00 1408.00,1961.00 Z
           M 1396.00,1966.00
           C 1396.00,1966.00 1396.00,1967.00 1396.00,1967.00
             1396.00,1967.00 1395.00,1966.00 1395.00,1966.00
             1395.00,1966.00 1396.00,1966.00 1396.00,1966.00 Z
           M 1358.00,1994.00
           C 1358.00,1994.00 1358.00,1995.00 1358.00,1995.00
             1358.00,1995.00 1357.00,1994.00 1357.00,1994.00
             1357.00,1994.00 1358.00,1994.00 1358.00,1994.00 Z
           M 3170.00,2301.00
           C 3170.00,2301.00 3170.00,2302.00 3170.00,2302.00
             3170.00,2302.00 3169.00,2301.00 3169.00,2301.00
             3169.00,2301.00 3170.00,2301.00 3170.00,2301.00 Z
           M 70.00,3064.00
           C 70.00,3064.00 70.00,3065.00 70.00,3065.00
             70.00,3065.00 69.00,3064.00 69.00,3064.00
             69.00,3064.00 70.00,3064.00 70.00,3064.00 Z" />
</svg>
