<?xml version="1.0" encoding="UTF-8" standalone="no"?>
<!DOCTYPE svg PUBLIC "-//W3C//DTD SVG 20010904//EN"
              "http://www.w3.org/TR/2001/REC-SVG-20010904/DTD/svg10.dtd">

<svg xmlns="http://www.w3.org/2000/svg"
     width="12.19in" height="14.4533in"
     viewBox="0 0 3657 4336">
  <path id="face"
        fill="none" stroke="black" stroke-width="1"
        d="M 1706.00,412.00
           C 1704.82,415.32 1700.10,416.03 1697.00,417.22
             1687.40,420.91 1681.21,427.08 1673.00,428.00
             1671.81,431.68 1668.32,431.85 1665.00,433.16
             1660.70,434.86 1648.07,439.79 1644.84,442.06
             1644.84,442.06 1639.74,446.95 1639.74,446.95
             1639.74,446.95 1626.00,454.33 1626.00,454.33
             1626.00,454.33 1610.00,464.78 1610.00,464.78
             1610.00,464.78 1600.83,472.04 1600.83,472.04
             1600.83,472.04 1594.32,475.04 1594.32,475.04
             1594.32,475.04 1581.00,484.24 1581.00,484.24
             1581.00,484.24 1571.72,489.23 1571.72,489.23
             1571.72,489.23 1566.09,491.29 1566.09,491.29
             1562.76,493.00 1562.81,494.30 1557.00,497.00
             1557.00,497.00 1558.00,499.00 1558.00,499.00
             1558.00,499.00 1543.00,509.00 1543.00,509.00
             1543.00,509.00 1544.00,511.00 1544.00,511.00
             1541.77,511.54 1540.35,511.85 1538.29,512.98
             1538.29,512.98 1521.83,525.37 1521.83,525.37
             1521.83,525.37 1512.64,536.75 1512.64,536.75
             1512.64,536.75 1500.96,547.34 1500.96,547.34
             1500.96,547.34 1497.45,553.00 1497.45,553.00
             1497.45,553.00 1490.90,562.00 1490.90,562.00
             1490.90,562.00 1487.11,569.00 1487.11,569.00
             1487.11,569.00 1478.21,580.00 1478.21,580.00
             1478.21,580.00 1468.81,598.00 1468.81,598.00
             1468.81,598.00 1457.07,617.28 1457.07,617.28
             1457.07,617.28 1454.68,623.58 1454.68,623.58
             1454.68,623.58 1447.83,634.04 1447.83,634.04
             1447.83,634.04 1444.44,642.96 1444.44,642.96
             1444.44,642.96 1440.58,649.17 1440.58,649.17
             1439.70,651.45 1440.20,653.72 1438.70,657.00
             1438.70,657.00 1434.41,664.00 1434.41,664.00
             1434.41,664.00 1429.38,675.96 1429.38,675.96
             1429.38,675.96 1425.90,682.17 1425.90,682.17
             1425.90,682.17 1417.68,703.00 1417.68,703.00
             1417.68,703.00 1412.72,713.00 1412.72,713.00
             1412.72,713.00 1407.01,729.00 1407.01,729.00
             1407.01,729.00 1403.33,737.00 1403.33,737.00
             1403.33,737.00 1399.74,743.00 1399.74,743.00
             1397.46,748.14 1398.78,751.44 1397.43,754.42
             1397.43,754.42 1376.87,782.28 1376.87,782.28
             1376.87,782.28 1367.63,799.00 1367.63,799.00
             1367.63,799.00 1360.09,811.28 1360.09,811.28
             1355.78,819.33 1347.61,841.17 1345.07,850.17
             1345.07,850.17 1343.63,858.00 1343.63,858.00
             1343.63,858.00 1340.35,868.00 1340.35,868.00
             1338.15,882.09 1343.36,899.77 1347.83,913.00
             1347.83,913.00 1350.37,920.96 1350.37,920.96
             1353.39,927.29 1359.42,931.10 1361.53,940.00
             1362.99,946.18 1359.68,949.40 1358.53,955.00
             1357.91,958.00 1357.72,968.78 1358.00,972.00
             1353.32,973.34 1355.29,982.85 1354.70,987.00
             1354.70,987.00 1353.25,995.00 1353.25,995.00
             1353.25,995.00 1353.25,1003.00 1353.25,1003.00
             1353.25,1003.00 1352.34,1010.00 1352.34,1010.00
             1352.34,1010.00 1353.91,1020.00 1353.91,1020.00
             1353.91,1020.00 1354.55,1033.28 1354.55,1033.28
             1354.55,1033.28 1358.68,1050.00 1358.68,1050.00
             1358.68,1050.00 1361.23,1068.96 1361.23,1068.96
             1361.23,1068.96 1361.23,1078.01 1361.23,1078.01
             1362.76,1088.08 1364.98,1093.97 1365.00,1105.00
             1365.00,1105.00 1365.00,1162.00 1365.00,1162.00
             1364.93,1167.65 1363.30,1174.47 1364.14,1179.96
             1364.72,1183.70 1366.40,1184.17 1367.42,1187.09
             1368.14,1189.14 1368.03,1192.77 1367.99,1195.00
             1367.99,1195.00 1367.48,1204.28 1367.48,1204.28
             1367.76,1207.22 1369.48,1210.12 1368.14,1213.00
             1366.95,1215.58 1360.75,1220.94 1358.41,1224.00
             1351.87,1232.55 1349.30,1244.48 1350.58,1255.00
             1351.02,1258.63 1350.23,1262.52 1353.00,1265.00
             1351.92,1270.42 1354.43,1277.69 1356.04,1283.00
             1357.66,1288.32 1358.93,1296.44 1359.00,1302.00
             1359.00,1302.00 1358.08,1317.00 1358.08,1317.00
             1358.08,1317.00 1359.00,1332.00 1359.00,1332.00
             1359.00,1332.00 1358.48,1340.99 1358.48,1340.99
             1358.48,1340.99 1359.05,1347.28 1359.05,1347.28
             1359.05,1347.28 1359.05,1373.00 1359.05,1373.00
             1359.05,1373.00 1363.49,1420.00 1363.49,1420.00
             1363.97,1427.54 1361.08,1434.81 1359.46,1442.00
             1359.46,1442.00 1356.02,1467.00 1356.02,1467.00
             1355.72,1480.78 1358.05,1480.03 1359.56,1489.00
             1359.56,1489.00 1360.53,1502.00 1360.53,1502.00
             1361.32,1505.93 1363.32,1508.37 1363.31,1511.00
             1363.30,1513.79 1361.34,1515.66 1360.55,1518.83
             1360.55,1518.83 1359.00,1531.00 1359.00,1531.00
             1356.93,1531.41 1356.27,1531.25 1354.79,1533.14
             1352.49,1536.07 1350.88,1551.96 1351.04,1556.00
             1351.21,1560.38 1354.41,1582.39 1355.69,1585.83
             1357.59,1590.93 1364.07,1598.84 1369.00,1601.00
             1369.25,1606.65 1373.31,1607.93 1377.20,1611.75
             1389.65,1623.99 1385.30,1617.72 1393.03,1623.49
             1393.03,1623.49 1402.09,1631.01 1402.09,1631.01
             1405.02,1632.59 1408.63,1632.16 1411.77,1634.70
             1414.81,1637.15 1414.64,1639.73 1415.86,1643.00
             1415.86,1643.00 1418.49,1649.00 1418.49,1649.00
             1418.49,1649.00 1420.00,1665.00 1420.00,1665.00
             1420.00,1665.00 1423.00,1664.00 1423.00,1664.00
             1423.00,1664.00 1426.62,1680.00 1426.62,1680.00
             1426.62,1680.00 1431.37,1697.00 1431.37,1697.00
             1431.37,1697.00 1436.54,1707.03 1436.54,1707.03
             1436.54,1707.03 1436.03,1717.04 1436.03,1717.04
             1436.03,1717.04 1437.00,1729.00 1437.00,1729.00
             1445.04,1731.51 1442.46,1737.30 1444.59,1744.00
             1444.59,1744.00 1447.23,1751.00 1447.23,1751.00
             1448.43,1754.92 1448.64,1759.32 1450.60,1762.96
             1452.80,1767.02 1455.18,1767.35 1456.40,1770.21
             1458.11,1774.21 1455.74,1778.73 1464.00,1783.00
             1464.00,1783.00 1462.00,1785.00 1462.00,1785.00
             1466.22,1789.77 1465.46,1791.42 1467.35,1795.05
             1467.35,1795.05 1471.04,1800.28 1471.04,1800.28
             1473.37,1804.21 1475.59,1810.71 1477.26,1814.99
             1478.95,1819.35 1481.43,1820.40 1482.00,1823.77
             1482.42,1826.13 1481.23,1828.10 1482.00,1831.00
             1482.00,1831.00 1489.69,1844.00 1489.69,1844.00
             1492.03,1847.42 1501.52,1856.52 1505.00,1860.00
             1505.00,1860.00 1539.83,1895.00 1539.83,1895.00
             1539.83,1895.00 1576.73,1938.00 1576.73,1938.00
             1581.52,1943.60 1592.06,1956.54 1597.00,1960.68
             1597.00,1960.68 1632.00,1984.72 1632.00,1984.72
             1632.00,1984.72 1672.00,2011.63 1672.00,2011.63
             1672.00,2011.63 1685.00,2017.30 1685.00,2017.30
             1685.00,2017.30 1718.00,2031.86 1718.00,2031.86
             1718.00,2031.86 1763.00,2051.43 1763.00,2051.43
             1763.00,2051.43 1814.00,2059.13 1814.00,2059.13
             1814.00,2059.13 1858.00,2065.28 1858.00,2065.28
             1858.00,2065.28 1877.00,2067.96 1877.00,2067.96
             1877.00,2067.96 1919.00,2064.17 1919.00,2064.17
             1919.00,2064.17 1968.00,2059.49 1968.00,2059.49
             1968.00,2059.49 1991.00,2050.42 1991.00,2050.42
             1991.00,2050.42 2024.00,2037.01 2024.00,2037.01
             2024.00,2037.01 2064.00,2020.68 2064.00,2020.68
             2064.00,2020.68 2086.00,2008.42 2086.00,2008.42
             2086.00,2008.42 2114.00,1992.86 2114.00,1992.86
             2114.00,1992.86 2149.72,1972.84 2149.72,1972.84
             2149.72,1972.84 2189.00,1939.41 2189.00,1939.41
             2189.00,1939.41 2226.99,1907.00 2226.99,1907.00
             2226.99,1907.00 2253.61,1875.00 2253.61,1875.00
             2253.61,1875.00 2280.58,1842.00 2280.58,1842.00
             2280.58,1842.00 2298.15,1818.00 2298.15,1818.00
             2298.15,1818.00 2337.60,1763.00 2337.60,1763.00
             2337.60,1763.00 2361.08,1724.00 2361.08,1724.00
             2361.08,1724.00 2363.48,1713.00 2363.48,1713.00
             2365.91,1705.89 2370.98,1703.41 2369.00,1695.00
             2374.08,1691.55 2369.50,1689.38 2371.47,1682.16
             2371.47,1682.16 2375.45,1672.00 2375.45,1672.00
             2375.45,1672.00 2377.78,1653.01 2377.78,1653.01
             2378.52,1647.69 2379.80,1649.15 2380.00,1642.00
             2380.00,1642.00 2382.83,1640.43 2382.83,1640.43
             2382.83,1640.43 2386.75,1629.54 2386.75,1629.54
             2386.75,1629.54 2386.00,1628.00 2386.00,1628.00
             2391.00,1621.32 2391.70,1618.20 2391.00,1610.00
             2395.12,1608.74 2394.68,1603.50 2394.00,1600.00
             2394.00,1600.00 2401.04,1594.76 2401.04,1594.76
             2401.04,1594.76 2431.00,1588.00 2431.00,1588.00
             2431.00,1588.00 2449.00,1576.11 2449.00,1576.11
             2454.56,1572.29 2457.13,1568.55 2464.00,1568.00
             2465.20,1563.00 2468.10,1562.13 2470.91,1557.99
             2476.14,1550.26 2481.15,1542.20 2483.27,1533.01
             2483.27,1533.01 2484.24,1526.72 2484.24,1526.72
             2487.89,1506.16 2484.90,1509.92 2484.24,1492.00
             2484.24,1492.00 2485.25,1479.00 2485.25,1479.00
             2485.25,1479.00 2485.25,1470.00 2485.25,1470.00
             2485.25,1470.00 2485.25,1463.00 2485.25,1463.00
             2485.25,1463.00 2486.00,1452.00 2486.00,1452.00
             2486.00,1452.00 2486.00,1432.00 2486.00,1432.00
             2486.00,1432.00 2487.88,1417.00 2487.88,1417.00
             2487.88,1417.00 2487.88,1410.00 2487.88,1410.00
             2488.31,1405.46 2490.16,1403.03 2491.38,1399.00
             2491.38,1399.00 2494.55,1387.00 2494.55,1387.00
             2494.55,1387.00 2500.49,1367.00 2500.49,1367.00
             2502.47,1359.20 2505.96,1346.60 2506.00,1339.00
             2506.00,1339.00 2507.00,1321.00 2507.00,1321.00
             2507.00,1321.00 2507.00,1306.00 2507.00,1306.00
             2507.00,1306.00 2505.00,1307.00 2505.00,1307.00
             2505.00,1307.00 2507.00,1299.00 2507.00,1299.00
             2503.81,1288.75 2505.02,1277.66 2505.00,1267.00
             2504.99,1259.33 2503.41,1254.39 2502.27,1247.00
             2502.27,1247.00 2499.00,1214.00 2499.00,1214.00
             2498.99,1207.76 2501.08,1201.63 2494.00,1200.00
             2493.56,1192.03 2488.36,1183.99 2480.00,1183.00
             2478.75,1179.19 2478.15,1179.18 2475.00,1176.80
             2465.82,1169.88 2468.30,1172.39 2458.00,1170.68
             2455.64,1170.29 2452.57,1169.03 2450.28,1169.57
             2448.33,1170.04 2446.53,1171.76 2445.00,1173.00
             2445.00,1173.00 2447.91,1155.00 2447.91,1155.00
             2447.91,1155.00 2447.91,1144.00 2447.91,1144.00
             2447.91,1144.00 2450.49,1112.00 2450.49,1112.00
             2450.49,1112.00 2451.16,1099.00 2451.16,1099.00
             2451.16,1099.00 2452.70,1091.00 2452.70,1091.00
             2452.70,1091.00 2453.91,1067.09 2453.91,1067.09
             2453.91,1067.09 2453.91,1058.00 2453.91,1058.00
             2453.91,1058.00 2452.89,1046.00 2452.89,1046.00
             2452.89,1046.00 2452.89,1018.00 2452.89,1018.00
             2452.89,1018.00 2452.89,998.00 2452.89,998.00
             2452.89,998.00 2453.63,991.00 2453.63,991.00
             2453.63,991.00 2451.94,979.00 2451.94,979.00
             2451.94,979.00 2451.94,969.00 2451.94,969.00
             2451.94,969.00 2449.87,954.00 2449.87,954.00
             2449.87,954.00 2447.79,933.00 2447.79,933.00
             2447.79,933.00 2447.79,925.01 2447.79,925.01
             2447.79,925.01 2445.09,915.96 2445.09,915.96
             2445.09,915.96 2443.59,899.09 2443.59,899.09
             2443.59,899.09 2441.80,894.72 2441.80,894.72
             2439.91,889.51 2442.66,882.64 2437.76,879.00
             2440.26,875.08 2438.45,874.05 2437.76,870.00
             2437.76,870.00 2435.90,860.00 2435.90,860.00
             2435.90,860.00 2432.53,851.00 2432.53,851.00
             2432.53,851.00 2431.32,843.00 2431.32,843.00
             2431.32,843.00 2427.61,834.00 2427.61,834.00
             2426.65,830.44 2427.22,827.94 2425.45,823.00
             2425.45,823.00 2420.53,813.01 2420.53,813.01
             2419.52,810.08 2420.27,808.27 2417.17,800.72
             2417.17,800.72 2406.36,780.00 2406.36,780.00
             2406.36,780.00 2400.79,764.91 2400.79,764.91
             2400.79,764.91 2393.61,747.00 2393.61,747.00
             2393.61,747.00 2385.39,734.72 2385.39,734.72
             2385.39,734.72 2383.18,728.42 2383.18,728.42
             2381.66,725.17 2377.80,721.20 2375.22,713.00
             2373.36,707.11 2374.13,704.44 2373.04,699.00
             2373.04,699.00 2368.90,684.00 2368.90,684.00
             2368.90,684.00 2366.66,671.00 2366.66,671.00
             2366.66,671.00 2362.95,661.00 2362.95,661.00
             2362.95,661.00 2360.79,652.00 2360.79,652.00
             2360.79,652.00 2351.60,631.00 2351.60,631.00
             2351.60,631.00 2346.68,615.00 2346.68,615.00
             2345.06,610.76 2342.52,607.86 2340.33,604.00
             2340.33,604.00 2335.77,594.00 2335.77,594.00
             2331.69,587.22 2324.23,582.05 2320.15,577.08
             2320.15,577.08 2314.89,570.00 2314.89,570.00
             2314.89,570.00 2304.45,558.95 2304.45,558.95
             2304.45,558.95 2297.80,550.50 2297.80,550.50
             2297.80,550.50 2288.73,541.96 2288.73,541.96
             2288.73,541.96 2279.28,531.13 2279.28,531.13
             2279.28,531.13 2273.44,525.76 2273.44,525.76
             2273.44,525.76 2269.16,520.70 2269.16,520.70
             2269.16,520.70 2256.05,511.41 2256.05,511.41
             2252.89,508.86 2252.38,507.34 2249.76,504.75
             2249.76,504.75 2242.29,498.53 2242.29,498.53
             2242.29,498.53 2226.72,486.00 2226.72,486.00
             2226.72,486.00 2221.17,483.44 2221.17,483.44
             2218.18,481.40 2216.05,477.69 2213.63,475.67
             2213.63,475.67 2205.17,470.21 2205.17,470.21
             2205.17,470.21 2198.71,464.54 2198.71,464.54
             2198.71,464.54 2194.37,462.05 2194.37,462.05
             2194.37,462.05 2186.01,454.80 2186.01,454.80
             2179.45,449.02 2170.53,438.51 2161.00,441.00
             2155.85,433.89 2144.34,434.12 2139.99,431.84
             2139.99,431.84 2132.00,426.30 2132.00,426.30
             2132.00,426.30 2125.00,423.81 2125.00,423.81
             2125.00,423.81 2101.43,414.98 2101.43,414.98
             2101.43,414.98 2090.99,408.93 2090.99,408.93
             2090.99,408.93 2080.00,404.91 2080.00,404.91
             2080.00,404.91 2072.00,400.74 2072.00,400.74
             2072.00,400.74 2064.00,397.33 2064.00,397.33
             2064.00,397.33 2055.00,392.04 2055.00,392.04
             2055.00,392.04 2049.00,389.65 2049.00,389.65
             2049.00,389.65 2042.00,385.93 2042.00,385.93
             2038.63,384.64 2036.92,385.76 2034.17,384.70
             2034.17,384.70 2026.99,380.48 2026.99,380.48
             2022.82,378.76 2020.64,379.39 2017.00,378.25
             2017.00,378.25 2004.00,372.67 2004.00,372.67
             2004.00,372.67 1993.00,370.49 1993.00,370.49
             1993.00,370.49 1981.00,367.12 1981.00,367.12
             1972.90,365.43 1953.22,363.20 1945.00,363.21
             1945.00,363.21 1934.00,363.21 1934.00,363.21
             1934.00,363.21 1919.00,361.64 1919.00,361.64
             1919.00,361.64 1911.00,361.64 1911.00,361.64
             1911.00,361.64 1905.00,361.64 1905.00,361.64
             1905.00,361.64 1899.00,361.64 1899.00,361.64
             1899.00,361.64 1893.04,361.08 1893.04,361.08
             1888.29,361.18 1889.35,362.94 1881.00,363.00
             1874.27,363.04 1867.53,363.64 1861.00,365.39
             1861.00,365.39 1853.00,367.96 1853.00,367.96
             1853.00,367.96 1846.00,367.96 1846.00,367.96
             1846.00,367.96 1833.00,370.33 1833.00,370.33
             1833.00,370.33 1803.00,379.60 1803.00,379.60
             1803.00,379.60 1792.83,384.81 1792.83,384.81
             1792.83,384.81 1785.30,387.08 1785.30,387.08
             1781.69,388.95 1780.49,392.41 1775.00,394.87
             1775.00,394.87 1755.00,400.62 1755.00,400.62
             1755.00,400.62 1746.00,403.88 1746.00,403.88
             1746.00,403.88 1730.00,406.44 1730.00,406.44
             1730.00,406.44 1706.00,412.00 1706.00,412.00 Z
           M 1356.00,961.00
           C 1356.00,961.00 1356.00,962.00 1356.00,962.00
             1356.00,962.00 1357.00,961.00 1357.00,961.00
             1357.00,961.00 1356.00,961.00 1356.00,961.00 Z
           M 1358.00,1531.00
           C 1358.00,1531.00 1358.00,1532.00 1358.00,1532.00
             1358.00,1532.00 1357.00,1531.00 1357.00,1531.00
             1357.00,1531.00 1358.00,1531.00 1358.00,1531.00 Z
           M 1357.00,1532.00
           C 1357.00,1532.00 1357.00,1533.00 1357.00,1533.00
             1357.00,1533.00 1356.00,1532.00 1356.00,1532.00
             1356.00,1532.00 1357.00,1532.00 1357.00,1532.00 Z
           M 1356.00,1534.00
           C 1356.00,1534.00 1356.00,1535.00 1356.00,1535.00
             1356.00,1535.00 1355.00,1534.00 1355.00,1534.00
             1355.00,1534.00 1356.00,1534.00 1356.00,1534.00 Z
           M 1437.00,1702.00
           C 1437.00,1702.00 1437.00,1703.00 1437.00,1703.00
             1437.00,1703.00 1436.00,1702.00 1436.00,1702.00
             1436.00,1702.00 1437.00,1702.00 1437.00,1702.00 Z" />
  <path id="profile"
        fill="none" stroke="black" stroke-width="1"
        d="M 1706.00,412.00
           C 1704.82,415.32 1700.10,416.03 1697.00,417.22
             1687.40,420.91 1681.21,427.08 1673.00,428.00
             1671.81,431.68 1668.32,431.85 1665.00,433.16
             1660.70,434.86 1648.07,439.79 1644.84,442.06
             1644.84,442.06 1639.74,446.95 1639.74,446.95
             1639.74,446.95 1626.00,454.33 1626.00,454.33
             1626.00,454.33 1610.00,464.78 1610.00,464.78
             1610.00,464.78 1600.83,472.04 1600.83,472.04
             1600.83,472.04 1594.32,475.04 1594.32,475.04
             1594.32,475.04 1581.00,484.24 1581.00,484.24
             1581.00,484.24 1571.72,489.23 1571.72,489.23
             1571.72,489.23 1566.09,491.29 1566.09,491.29
             1562.76,493.00 1562.81,494.30 1557.00,497.00
             1557.00,497.00 1558.00,499.00 1558.00,499.00
             1558.00,499.00 1543.00,509.00 1543.00,509.00
             1543.00,509.00 1544.00,511.00 1544.00,511.00
             1541.77,511.54 1540.35,511.85 1538.29,512.98
             1538.29,512.98 1521.83,525.37 1521.83,525.37
             1521.83,525.37 1512.64,536.75 1512.64,536.75
             1512.64,536.75 1500.96,547.34 1500.96,547.34
             1500.96,547.34 1497.45,553.00 1497.45,553.00
             1497.45,553.00 1490.90,562.00 1490.90,562.00
             1490.90,562.00 1487.11,569.00 1487.11,569.00
             1487.11,569.00 1478.21,580.00 1478.21,580.00
             1478.21,580.00 1468.81,598.00 1468.81,598.00
             1468.81,598.00 1457.07,617.28 1457.07,617.28
             1457.07,617.28 1454.68,623.58 1454.68,623.58
             1454.68,623.58 1447.83,634.04 1447.83,634.04
             1447.83,634.04 1444.44,642.96 1444.44,642.96
             1444.44,642.96 1440.58,649.17 1440.58,649.17
             1439.70,651.45 1440.20,653.72 1438.70,657.00
             1438.70,657.00 1434.41,664.00 1434.41,664.00
             1434.41,664.00 1429.38,675.96 1429.38,675.96
             1429.38,675.96 1425.90,682.17 1425.90,682.17
             1425.90,682.17 1417.68,703.00 1417.68,703.00
             1417.68,703.00 1412.72,713.00 1412.72,713.00
             1412.72,713.00 1407.01,729.00 1407.01,729.00
             1407.01,729.00 1403.33,737.00 1403.33,737.00
             1403.33,737.00 1399.74,743.00 1399.74,743.00
             1397.46,748.14 1398.78,751.44 1397.43,754.42
             1397.43,754.42 1376.87,782.28 1376.87,782.28
             1376.87,782.28 1367.63,799.00 1367.63,799.00
             1367.63,799.00 1360.09,811.28 1360.09,811.28
             1355.78,819.33 1347.61,841.17 1345.07,850.17
             1345.07,850.17 1343.63,858.00 1343.63,858.00
             1343.63,858.00 1340.35,868.00 1340.35,868.00
             1338.15,882.09 1343.36,899.77 1347.83,913.00
             1347.83,913.00 1350.37,920.96 1350.37,920.96
             1353.39,927.29 1359.42,931.10 1361.53,940.00
             1362.99,946.18 1359.68,949.40 1358.53,955.00
             1357.91,958.00 1357.72,968.78 1358.00,972.00
             1353.32,973.34 1355.29,982.85 1354.70,987.00
             1354.70,987.00 1353.25,995.00 1353.25,995.00
             1353.25,995.00 1353.25,1003.00 1353.25,1003.00
             1353.25,1003.00 1352.34,1010.00 1352.34,1010.00
             1352.34,1010.00 1353.91,1020.00 1353.91,1020.00
             1353.91,1020.00 1354.55,1033.28 1354.55,1033.28
             1354.55,1033.28 1358.68,1050.00 1358.68,1050.00
             1358.68,1050.00 1361.23,1068.96 1361.23,1068.96
             1361.23,1068.96 1361.23,1078.01 1361.23,1078.01
             1362.76,1088.08 1364.98,1093.97 1365.00,1105.00
             1365.00,1105.00 1365.00,1162.00 1365.00,1162.00
             1364.93,1167.65 1363.30,1174.47 1364.14,1179.96
             1364.72,1183.70 1366.40,1184.17 1367.42,1187.09
             1368.14,1189.14 1368.03,1192.77 1367.99,1195.00
             1367.99,1195.00 1367.48,1204.28 1367.48,1204.28
             1367.76,1207.22 1369.48,1210.12 1368.14,1213.00
             1366.95,1215.58 1360.75,1220.94 1358.41,1224.00
             1351.87,1232.55 1349.30,1244.48 1350.58,1255.00
             1351.02,1258.63 1350.23,1262.52 1353.00,1265.00
             1351.92,1270.42 1354.43,1277.69 1356.04,1283.00
             1357.66,1288.32 1358.93,1296.44 1359.00,1302.00
             1359.00,1302.00 1358.08,1317.00 1358.08,1317.00
             1358.08,1317.00 1359.00,1332.00 1359.00,1332.00
             1359.00,1332.00 1358.48,1340.99 1358.48,1340.99
             1358.48,1340.99 1359.05,1347.28 1359.05,1347.28
             1359.05,1347.28 1359.05,1373.00 1359.05,1373.00
             1359.05,1373.00 1363.49,1420.00 1363.49,1420.00
             1363.97,1427.54 1361.08,1434.81 1359.46,1442.00
             1359.46,1442.00 1356.02,1467.00 1356.02,1467.00
             1355.72,1480.78 1358.05,1480.03 1359.56,1489.00
             1359.56,1489.00 1360.53,1502.00 1360.53,1502.00
             1361.32,1505.93 1363.32,1508.37 1363.31,1511.00
             1363.30,1513.79 1361.34,1515.66 1360.55,1518.83
             1360.55,1518.83 1359.00,1531.00 1359.00,1531.00
             1356.93,1531.41 1356.27,1531.25 1354.79,1533.14
             1352.49,1536.07 1350.88,1551.96 1351.04,1556.00
             1351.21,1560.38 1354.41,1582.39 1355.69,1585.83
             1357.59,1590.93 1364.07,1598.84 1369.00,1601.00
             1369.25,1606.65 1373.31,1607.93 1377.20,1611.75
             1389.65,1623.99 1385.30,1617.72 1393.03,1623.49
             1393.03,1623.49 1402.09,1631.01 1402.09,1631.01
             1405.02,1632.59 1408.63,1632.16 1411.77,1634.70
             1414.81,1637.15 1414.64,1639.73 1415.86,1643.00
             1415.86,1643.00 1418.49,1649.00 1418.49,1649.00
             1418.49,1649.00 1420.00,1665.00 1420.00,1665.00
             1420.00,1665.00 1423.00,1664.00 1423.00,1664.00
             1423.00,1664.00 1426.62,1680.00 1426.62,1680.00
             1426.62,1680.00 1431.37,1697.00 1431.37,1697.00
             1431.37,1697.00 1436.54,1707.03 1436.54,1707.03
             1436.54,1707.03 1436.03,1717.04 1436.03,1717.04
             1436.03,1717.04 1437.00,1729.00 1437.00,1729.00
             1445.04,1731.51 1442.46,1737.30 1444.59,1744.00
             1444.59,1744.00 1447.23,1751.00 1447.23,1751.00
             1448.43,1754.92 1448.64,1759.32 1450.60,1762.96
             1452.80,1767.02 1455.18,1767.35 1456.40,1770.21
             1458.11,1774.21 1455.74,1778.73 1464.00,1783.00
             1464.00,1783.00 1462.00,1785.00 1462.00,1785.00
             1462.00,1785.00 1467.35,1795.05 1467.35,1795.05
             1467.35,1795.05 1471.04,1800.28 1471.04,1800.28
             1471.04,1800.28 1477.26,1814.99 1477.26,1814.99
             1477.26,1814.99 1481.99,1823.75 1481.99,1823.75
             1481.99,1823.75 1481.99,1831.00 1481.99,1831.00
             1481.99,1831.00 1487.76,1841.04 1487.76,1841.04
             1487.76,1841.04 1496.15,1871.00 1496.15,1871.00
             1496.15,1871.00 1501.00,1888.00 1501.00,1888.00
             1501.00,1888.00 1504.14,1888.00 1504.14,1888.00
             1504.14,1888.00 1504.14,1900.79 1504.14,1900.79
             1505.08,1903.78 1506.91,1903.85 1508.60,1908.04
             1508.60,1908.04 1515.04,1934.00 1515.04,1934.00
             1515.56,1938.90 1513.70,1949.80 1519.00,1952.00
             1517.11,1958.73 1519.06,1959.54 1520.12,1966.00
             1520.12,1966.00 1521.14,1979.96 1521.14,1979.96
             1521.91,1985.40 1523.08,1981.82 1523.45,1991.00
             1523.45,1991.00 1524.22,2006.72 1524.22,2006.72
             1524.22,2006.72 1526.72,2021.00 1526.72,2021.00
             1526.72,2021.00 1527.26,2030.00 1527.26,2030.00
             1527.26,2030.00 1528.87,2037.00 1528.87,2037.00
             1528.87,2037.00 1530.09,2061.00 1530.09,2061.00
             1530.09,2061.00 1531.56,2075.00 1531.56,2075.00
             1531.56,2075.00 1531.56,2084.00 1531.56,2084.00
             1531.56,2084.00 1532.42,2109.04 1532.42,2109.04
             1533.22,2114.26 1535.31,2112.24 1535.30,2121.58
             1535.30,2125.71 1535.30,2127.13 1537.00,2131.00
             1537.00,2131.00 1520.00,2133.00 1520.00,2133.00
             1516.57,2139.69 1514.28,2136.96 1509.37,2140.12
             1506.64,2141.89 1505.00,2145.47 1500.91,2147.89
             1500.91,2147.89 1489.12,2153.75 1489.12,2153.75
             1485.36,2155.35 1483.60,2154.27 1478.09,2158.82
             1472.54,2163.41 1464.49,2172.13 1457.00,2172.00
             1455.41,2175.88 1454.50,2178.41 1450.00,2179.00
             1450.00,2179.00 1445.83,2183.74 1445.83,2183.74
             1445.83,2183.74 1424.00,2189.00 1424.00,2189.00
             1424.00,2189.00 1424.00,2192.00 1424.00,2192.00
             1424.00,2192.00 1413.00,2195.22 1413.00,2195.22
             1413.00,2195.22 1404.00,2197.52 1404.00,2197.52
             1404.00,2197.52 1389.00,2205.00 1389.00,2205.00
             1389.00,2205.00 1390.00,2203.00 1390.00,2203.00
             1390.00,2203.00 1389.00,2202.00 1389.00,2202.00
             1389.00,2202.00 1386.00,2203.00 1386.00,2203.00
             1386.00,2203.00 1387.00,2200.00 1387.00,2200.00
             1366.93,2200.00 1339.35,2201.50 1320.00,2206.48
             1309.77,2209.11 1299.83,2212.94 1290.00,2216.80
             1282.48,2219.75 1278.55,2220.78 1271.00,2224.79
             1263.67,2228.68 1256.07,2232.55 1249.42,2237.54
             1242.72,2242.57 1234.94,2250.25 1228.00,2253.73
             1228.00,2253.73 1188.00,2270.36 1188.00,2270.36
             1188.00,2270.36 1176.00,2273.13 1176.00,2273.13
             1176.00,2273.13 1166.00,2278.15 1166.00,2278.15
             1166.00,2278.15 1148.04,2283.90 1148.04,2283.90
             1148.04,2283.90 1140.91,2287.17 1140.91,2287.17
             1140.91,2287.17 1131.00,2289.57 1131.00,2289.57
             1131.00,2289.57 1113.00,2295.20 1113.00,2295.20
             1109.95,2296.12 1097.20,2299.18 1095.77,2300.82
             1094.77,2301.96 1095.19,2302.26 1095.00,2303.00
             1095.00,2303.00 1081.01,2308.14 1081.01,2308.14
             1074.28,2311.46 1075.06,2314.25 1065.00,2314.00
             1056.63,2324.47 1049.77,2323.97 1039.00,2329.18
             1039.00,2329.18 1030.72,2334.22 1030.72,2334.22
             1030.72,2334.22 1025.00,2336.03 1025.00,2336.03
             1025.00,2336.03 1015.00,2341.32 1015.00,2341.32
             1015.00,2341.32 997.00,2348.30 997.00,2348.30
             997.00,2348.30 984.00,2354.88 984.00,2354.88
             980.87,2356.21 979.68,2355.71 977.28,2356.50
             977.28,2356.50 972.91,2358.49 972.91,2358.49
             972.91,2358.49 963.00,2361.37 963.00,2361.37
             961.10,2362.10 956.50,2363.56 958.00,2366.00
             958.00,2366.00 943.00,2368.66 943.00,2368.66
             943.00,2368.66 935.00,2371.32 935.00,2371.32
             935.00,2371.32 926.00,2372.49 926.00,2372.49
             926.00,2372.49 897.00,2383.01 897.00,2383.01
             897.00,2383.01 881.00,2386.58 881.00,2386.58
             881.00,2386.58 866.00,2391.78 866.00,2391.78
             866.00,2391.78 849.00,2396.54 849.00,2396.54
             849.00,2396.54 826.01,2406.96 826.01,2406.96
             826.01,2406.96 817.00,2412.00 817.00,2412.00
             814.67,2415.93 808.08,2418.86 804.01,2421.22
             804.01,2421.22 797.72,2425.17 797.72,2425.17
             797.72,2425.17 792.00,2427.81 792.00,2427.81
             792.00,2427.81 784.00,2432.73 784.00,2432.73
             784.00,2432.73 775.00,2436.50 775.00,2436.50
             767.50,2439.81 761.58,2445.80 754.83,2450.25
             754.83,2450.25 741.01,2457.52 741.01,2457.52
             741.01,2457.52 726.00,2469.32 726.00,2469.32
             717.68,2475.04 707.77,2479.74 703.00,2489.18
             702.12,2489.05 701.72,2488.68 700.10,2489.18
             697.38,2490.48 688.42,2500.92 686.22,2503.69
             683.65,2506.91 682.27,2506.54 682.00,2511.00
             674.75,2512.95 676.72,2514.94 672.36,2519.74
             669.50,2522.88 668.64,2521.55 665.00,2526.00
             665.00,2526.00 667.00,2526.00 667.00,2526.00
             659.66,2535.96 662.86,2534.97 652.00,2541.00
             652.00,2541.00 656.00,2543.00 656.00,2543.00
             656.00,2543.00 654.00,2547.00 654.00,2547.00
             647.37,2548.44 650.75,2553.70 642.00,2554.00
             642.00,2554.00 641.00,2555.00 641.00,2555.00
             641.00,2555.00 641.00,2557.00 641.00,2557.00
             641.00,2557.00 644.00,2558.00 644.00,2558.00
             644.00,2558.00 624.04,2574.75 624.04,2574.75
             624.04,2574.75 615.15,2581.44 615.15,2581.44
             615.15,2581.44 599.00,2597.00 599.00,2597.00
             599.00,2597.00 590.51,2606.22 590.51,2606.22
             590.51,2606.22 577.54,2617.71 577.54,2617.71
             577.54,2617.71 573.03,2623.12 573.03,2623.12
             573.03,2623.12 565.08,2630.32 565.08,2630.32
             565.08,2630.32 552.63,2643.74 552.63,2643.74
             552.63,2643.74 545.00,2651.00 545.00,2651.00
             545.00,2651.00 543.00,2650.00 543.00,2650.00
             543.00,2650.00 542.00,2656.00 542.00,2656.00
             542.00,2656.00 538.00,2655.00 538.00,2655.00
             538.88,2660.03 534.14,2660.94 530.26,2665.08
             528.66,2666.78 527.71,2668.54 525.74,2669.92
             522.17,2672.42 510.92,2675.69 500.10,2685.87
             500.10,2685.87 488.55,2698.06 488.55,2698.06
             488.55,2698.06 482.86,2712.83 482.86,2712.83
             482.86,2712.83 477.18,2720.42 477.18,2720.42
             477.18,2720.42 469.31,2736.01 469.31,2736.01
             469.31,2736.01 463.48,2755.96 463.48,2755.96
             463.48,2755.96 459.67,2764.04 459.67,2764.04
             458.67,2767.41 459.73,2767.89 457.00,2776.00
             451.76,2776.33 451.79,2779.62 449.85,2783.83
             446.60,2790.90 445.10,2791.34 443.13,2795.00
             443.13,2795.00 440.00,2802.00 440.00,2802.00
             440.00,2802.00 433.41,2810.42 433.41,2810.42
             433.41,2810.42 430.28,2817.00 430.28,2817.00
             430.28,2817.00 419.82,2832.04 419.82,2832.04
             419.82,2832.04 415.06,2844.00 415.06,2844.00
             415.06,2844.00 406.23,2859.00 406.23,2859.00
             403.17,2864.87 401.73,2869.73 397.00,2875.00
             396.67,2879.66 393.55,2882.06 391.17,2886.00
             388.43,2890.55 388.80,2893.33 384.00,2896.00
             384.00,2896.00 379.00,2912.00 379.00,2912.00
             376.46,2912.89 373.93,2914.16 376.00,2917.00
             376.00,2917.00 369.00,2924.00 369.00,2924.00
             367.17,2937.82 366.61,2932.51 361.49,2942.72
             361.49,2942.72 358.59,2950.00 358.59,2950.00
             358.59,2950.00 354.36,2957.00 354.36,2957.00
             352.97,2960.36 354.16,2961.44 352.19,2966.00
             352.19,2966.00 346.61,2975.46 346.61,2975.46
             346.61,2975.46 337.17,2997.27 337.17,2997.27
             337.17,2997.27 335.13,3008.00 335.13,3008.00
             335.13,3008.00 330.76,3016.00 330.76,3016.00
             330.76,3016.00 327.58,3024.00 327.58,3024.00
             323.20,3033.46 322.65,3036.42 320.38,3046.17
             319.59,3049.55 319.65,3052.69 316.00,3054.00
             316.00,3054.00 313.11,3065.00 313.11,3065.00
             313.11,3065.00 308.00,3094.00 308.00,3094.00
             308.00,3094.00 307.00,3089.00 307.00,3089.00
             302.53,3096.78 304.98,3098.14 303.73,3102.26
             303.73,3102.26 302.16,3106.18 302.16,3106.18
             302.16,3106.18 299.29,3118.00 299.29,3118.00
             299.29,3118.00 294.52,3133.00 294.52,3133.00
             294.52,3133.00 291.41,3153.00 291.41,3153.00
             290.11,3160.07 286.16,3166.69 286.35,3174.01
             286.51,3180.04 285.06,3181.42 283.81,3187.00
             283.81,3187.00 280.63,3200.00 280.63,3200.00
             280.63,3200.00 279.64,3207.00 279.64,3207.00
             279.64,3207.00 277.39,3214.00 277.39,3214.00
             277.39,3214.00 275.72,3227.00 275.72,3227.00
             275.72,3227.00 272.44,3243.00 272.44,3243.00
             272.44,3243.00 271.59,3251.96 271.59,3251.96
             271.59,3251.96 268.83,3259.09 268.83,3259.09
             265.62,3271.49 268.65,3278.12 260.99,3300.58
             259.63,3304.56 260.63,3306.44 258.00,3310.00
             258.00,3310.00 259.00,3300.00 259.00,3300.00
             259.00,3300.00 256.00,3306.00 256.00,3306.00
             256.00,3306.00 255.00,3319.00 255.00,3319.00
             255.00,3319.00 259.00,3312.00 259.00,3312.00
             259.00,3312.00 258.00,3322.00 258.00,3322.00
             258.00,3322.00 256.00,3322.00 256.00,3322.00
             256.41,3330.74 253.78,3334.73 251.88,3343.00
             251.88,3343.00 246.31,3372.00 246.31,3372.00
             246.31,3372.00 244.54,3384.00 244.54,3384.00
             244.54,3384.00 239.30,3409.00 239.30,3409.00
             239.30,3409.00 235.52,3435.00 235.52,3435.00
             235.52,3435.00 233.25,3443.00 233.25,3443.00
             233.25,3443.00 231.66,3462.00 231.66,3462.00
             231.66,3462.00 228.81,3470.00 228.81,3470.00
             228.81,3470.00 227.87,3476.91 227.87,3476.91
             227.87,3476.91 225.94,3483.09 225.94,3483.09
             225.94,3483.09 222.75,3500.91 222.75,3500.91
             222.75,3500.91 221.24,3506.17 221.24,3506.17
             221.24,3506.17 220.56,3517.00 220.56,3517.00
             220.56,3517.00 216.10,3537.00 216.10,3537.00
             216.10,3537.00 216.10,3555.00 216.10,3555.00
             215.98,3569.56 210.41,3573.15 211.26,3597.00
             211.56,3605.73 209.75,3616.75 207.00,3625.00
             207.00,3625.00 209.00,3624.00 209.00,3624.00
             209.00,3624.00 203.46,3644.00 203.46,3644.00
             203.46,3644.00 202.16,3651.96 202.16,3651.96
             202.16,3651.96 199.44,3661.01 199.44,3661.01
             199.44,3661.01 198.00,3677.00 198.00,3677.00
             194.41,3678.05 194.43,3685.51 193.33,3689.00
             193.33,3689.00 189.41,3699.09 189.41,3699.09
             188.61,3702.30 189.49,3703.90 187.96,3708.00
             185.30,3715.10 181.71,3721.22 181.00,3729.00
             181.00,3729.00 178.00,3728.00 178.00,3728.00
             176.64,3732.20 173.77,3740.82 179.00,3743.00
             179.00,3743.00 174.00,3745.00 174.00,3745.00
             174.00,3745.00 173.00,3754.00 173.00,3754.00
             173.00,3754.00 175.00,3754.00 175.00,3754.00
             175.00,3754.00 174.00,3752.00 174.00,3752.00
             174.92,3753.96 175.17,3754.21 173.00,3755.00
             173.00,3755.00 174.00,3760.00 174.00,3760.00
             165.83,3760.55 172.85,3769.05 166.00,3777.00
             166.00,3777.00 164.00,3796.00 164.00,3796.00
             164.00,3796.00 163.00,3793.00 163.00,3793.00
             156.74,3801.86 157.10,3812.71 155.82,3823.00
             154.77,3831.43 154.00,3829.78 154.00,3840.00
             154.00,3840.00 155.00,3832.00 155.00,3832.00
             155.00,3832.00 157.00,3832.00 157.00,3832.00
             157.00,3832.00 155.65,3845.00 155.65,3845.00
             155.65,3845.00 155.65,3853.00 155.65,3853.00
             155.65,3853.00 155.00,3865.00 155.00,3865.00
             155.00,3865.00 156.67,3890.00 156.67,3890.00
             156.67,3890.00 142.00,3923.00 142.00,3923.00
             142.00,3923.00 140.00,3922.00 140.00,3922.00
             135.09,3928.90 135.73,3927.55 129.37,3932.05
             129.37,3932.05 124.00,3936.00 124.00,3936.00
             122.27,3943.43 113.95,3944.60 113.00,3955.00
             109.86,3956.48 106.31,3957.96 104.50,3961.12
             103.07,3963.60 103.63,3965.68 101.10,3968.86
             97.96,3972.80 95.33,3971.77 92.36,3977.99
             89.57,3983.85 91.02,3987.81 90.07,3993.00
             89.02,3998.78 88.08,3999.38 88.23,4006.00
             88.23,4006.00 88.23,4034.00 88.23,4034.00
             89.69,4039.35 93.23,4042.94 95.04,4048.00
             95.04,4048.00 97.12,4057.00 97.12,4057.00
             97.12,4057.00 100.90,4063.00 100.90,4063.00
             100.90,4063.00 105.54,4072.00 105.54,4072.00
             112.20,4082.06 115.39,4083.28 118.00,4096.00
             124.18,4096.91 124.49,4099.33 128.42,4103.72
             134.16,4110.11 137.85,4112.46 141.00,4121.00
             141.00,4121.00 144.00,4120.00 144.00,4120.00
             144.00,4120.00 144.00,4127.00 144.00,4127.00
             144.00,4127.00 145.00,4123.00 145.00,4123.00
             145.00,4123.00 151.68,4131.15 151.68,4131.15
             151.68,4131.15 157.63,4137.28 157.63,4137.28
             157.63,4137.28 167.58,4148.45 167.58,4148.45
             167.58,4148.45 176.00,4155.00 176.00,4155.00
             176.00,4155.00 174.00,4159.00 174.00,4159.00
             180.75,4159.45 180.78,4161.62 185.30,4165.78
             188.41,4168.65 190.36,4169.28 193.97,4173.20
             198.61,4178.24 198.11,4180.11 205.39,4185.83
             205.39,4185.83 211.92,4190.50 211.92,4190.50
             211.92,4190.50 221.28,4199.29 221.28,4199.29
             221.28,4199.29 237.00,4209.07 237.00,4209.07
             237.00,4209.07 247.00,4216.05 247.00,4216.05
             247.00,4216.05 254.96,4220.34 254.96,4220.34
             254.96,4220.34 262.32,4225.82 262.32,4225.82
             265.18,4227.31 268.31,4227.19 275.00,4231.75
             275.00,4231.75 284.11,4239.15 284.11,4239.15
             287.27,4240.55 295.54,4240.29 303.00,4248.00
             306.56,4248.56 310.12,4250.97 312.00,4254.00
             321.88,4254.05 328.10,4268.03 339.00,4267.00
             340.98,4272.66 349.04,4273.79 353.96,4276.42
             359.40,4279.32 357.72,4280.25 365.00,4282.00
             365.00,4282.00 364.00,4284.00 364.00,4284.00
             371.28,4287.05 370.53,4291.76 371.02,4299.00
             371.02,4299.00 374.39,4326.00 374.39,4326.00
             374.84,4328.12 376.82,4333.72 378.56,4334.98
             380.29,4336.24 383.90,4336.00 386.00,4336.00
             386.00,4336.00 1406.00,4336.00 1406.00,4336.00
             1406.00,4336.00 3643.00,4336.00 3643.00,4336.00
             3643.00,4336.00 3649.06,4290.04 3649.06,4290.04
             3650.42,4284.29 3653.79,4285.71 3655.98,4282.51
             3657.23,4280.66 3657.00,4277.19 3657.00,4275.00
             3657.00,4275.00 3657.00,4059.00 3657.00,4059.00
             3657.00,4059.00 3657.00,3706.00 3657.00,3706.00
             3657.00,3706.00 3657.00,3180.00 3657.00,3180.00
             3657.00,3180.00 3657.00,3008.00 3657.00,3008.00
             3657.00,3008.00 3657.00,2907.00 3657.00,2907.00
             3656.98,2897.57 3655.46,2899.50 3655.00,2894.00
             3645.83,2886.42 3648.61,2884.23 3645.98,2875.00
             3645.98,2875.00 3640.56,2863.39 3640.56,2863.39
             3638.65,2860.32 3635.71,2860.15 3633.07,2855.96
             3633.07,2855.96 3629.62,2848.00 3629.62,2848.00
             3629.62,2848.00 3622.79,2836.00 3622.79,2836.00
             3622.79,2836.00 3616.56,2827.83 3616.56,2827.83
             3616.56,2827.83 3614.65,2822.00 3614.65,2822.00
             3614.65,2822.00 3608.53,2810.00 3608.53,2810.00
             3603.92,2802.54 3594.83,2794.57 3595.00,2785.00
             3595.00,2785.00 3584.00,2772.00 3584.00,2772.00
             3584.00,2772.00 3586.00,2770.00 3586.00,2770.00
             3586.00,2770.00 3586.00,2769.00 3586.00,2769.00
             3581.14,2764.08 3580.78,2751.84 3579.38,2745.00
             3579.38,2745.00 3576.23,2735.00 3576.23,2735.00
             3574.89,2729.51 3573.99,2722.04 3568.00,2720.00
             3567.95,2703.47 3560.63,2699.52 3560.00,2688.00
             3551.24,2683.17 3553.42,2674.80 3541.00,2673.00
             3539.48,2663.67 3526.97,2659.30 3520.42,2653.56
             3511.23,2645.50 3513.42,2644.41 3507.54,2637.29
             3499.38,2627.42 3492.52,2624.50 3487.00,2612.00
             3487.00,2612.00 3485.00,2613.00 3485.00,2613.00
             3485.00,2613.00 3475.10,2600.99 3475.10,2600.99
             3475.10,2600.99 3466.02,2588.14 3466.02,2588.14
             3466.02,2588.14 3450.31,2572.30 3450.31,2572.30
             3450.31,2572.30 3446.00,2566.00 3446.00,2566.00
             3443.29,2565.07 3443.84,2563.59 3444.00,2561.00
             3439.80,2560.55 3440.51,2558.19 3438.06,2554.58
             3438.06,2554.58 3425.95,2540.41 3425.95,2540.41
             3423.06,2538.03 3420.41,2537.60 3415.17,2532.73
             3410.80,2528.66 3406.87,2523.36 3402.00,2520.09
             3402.00,2520.09 3376.55,2504.89 3376.55,2504.89
             3373.68,2502.40 3372.87,2499.06 3366.42,2494.26
             3362.49,2491.33 3359.72,2491.63 3356.09,2489.19
             3350.89,2485.69 3352.32,2483.53 3345.00,2484.00
             3341.33,2473.28 3334.09,2476.38 3321.01,2465.13
             3310.84,2456.38 3312.79,2460.01 3306.28,2455.45
             3306.28,2455.45 3288.72,2442.88 3288.72,2442.88
             3288.72,2442.88 3279.58,2438.25 3279.58,2438.25
             3279.58,2438.25 3268.96,2430.80 3268.96,2430.80
             3268.96,2430.80 3260.00,2426.73 3260.00,2426.73
             3260.00,2426.73 3231.00,2408.00 3231.00,2408.00
             3231.00,2408.00 3232.00,2405.00 3232.00,2405.00
             3232.00,2405.00 3216.00,2399.00 3216.00,2399.00
             3216.00,2399.00 3216.00,2393.00 3216.00,2393.00
             3207.06,2394.12 3196.72,2382.46 3189.00,2378.22
             3189.00,2378.22 3179.42,2374.83 3179.42,2374.83
             3179.42,2374.83 3165.00,2365.04 3165.00,2365.04
             3165.00,2365.04 3155.00,2361.63 3155.00,2361.63
             3155.00,2361.63 3138.00,2353.73 3138.00,2353.73
             3138.00,2353.73 3126.00,2348.31 3126.00,2348.31
             3120.79,2346.07 3113.47,2344.49 3109.00,2341.00
             3103.51,2340.89 3095.94,2337.70 3091.09,2335.08
             3091.09,2335.08 3085.83,2331.86 3085.83,2331.86
             3085.83,2331.86 3075.00,2329.19 3075.00,2329.19
             3075.00,2329.19 3065.00,2324.20 3065.00,2324.20
             3060.59,2322.37 3058.04,2322.72 3054.83,2321.70
             3054.83,2321.70 3047.00,2319.00 3047.00,2319.00
             3047.00,2319.00 3048.00,2316.00 3048.00,2316.00
             3034.38,2312.27 3034.55,2310.84 3024.00,2306.88
             3024.00,2306.88 3012.10,2303.17 3012.10,2303.17
             3008.97,2301.67 3008.63,2300.20 3005.79,2299.12
             3005.79,2299.12 2998.00,2297.10 2998.00,2297.10
             2998.00,2297.10 2984.00,2290.66 2984.00,2290.66
             2972.95,2286.28 2971.55,2287.46 2959.00,2280.56
             2959.00,2280.56 2943.17,2271.30 2943.17,2271.30
             2943.17,2271.30 2930.00,2259.50 2930.00,2259.50
             2927.70,2257.83 2916.09,2252.89 2913.00,2251.89
             2913.00,2251.89 2884.00,2242.96 2884.00,2242.96
             2884.00,2242.96 2873.00,2238.76 2873.00,2238.76
             2873.00,2238.76 2865.04,2237.59 2865.04,2237.59
             2865.04,2237.59 2858.83,2235.25 2858.83,2235.25
             2858.83,2235.25 2841.00,2232.34 2841.00,2232.34
             2836.52,2231.85 2834.39,2233.53 2831.17,2232.34
             2828.69,2231.68 2827.28,2229.43 2822.00,2227.77
             2822.00,2227.77 2807.99,2224.27 2807.99,2224.27
             2807.99,2224.27 2803.09,2223.45 2803.09,2223.45
             2803.09,2223.45 2790.00,2217.58 2790.00,2217.58
             2790.00,2217.58 2769.42,2212.04 2769.42,2212.04
             2769.42,2212.04 2757.00,2207.40 2757.00,2207.40
             2757.00,2207.40 2744.00,2202.90 2744.00,2202.90
             2744.00,2202.90 2737.00,2200.97 2737.00,2200.97
             2737.00,2200.97 2729.00,2197.64 2729.00,2197.64
             2729.00,2197.64 2715.00,2192.66 2715.00,2192.66
             2715.00,2192.66 2707.00,2188.49 2707.00,2188.49
             2707.00,2188.49 2684.00,2179.38 2684.00,2179.38
             2684.00,2179.38 2666.51,2174.11 2666.51,2174.11
             2666.51,2174.11 2650.00,2167.91 2650.00,2167.91
             2650.00,2167.91 2627.00,2162.23 2627.00,2162.23
             2627.00,2162.23 2614.00,2156.96 2614.00,2156.96
             2614.00,2156.96 2600.00,2153.56 2600.00,2153.56
             2600.00,2153.56 2587.00,2147.84 2587.00,2147.84
             2587.00,2147.84 2580.00,2145.67 2580.00,2145.67
             2578.03,2144.85 2563.97,2134.40 2562.30,2132.69
             2558.51,2128.83 2556.37,2124.25 2550.83,2121.26
             2550.83,2121.26 2532.91,2112.98 2532.91,2112.98
             2532.91,2112.98 2525.09,2110.37 2525.09,2110.37
             2521.19,2108.54 2519.47,2105.44 2513.01,2103.13
             2513.01,2103.13 2502.99,2101.04 2502.99,2101.04
             2497.58,2099.28 2496.88,2097.56 2492.91,2095.99
             2492.91,2095.99 2471.74,2088.82 2471.74,2088.82
             2463.57,2085.45 2454.64,2082.51 2446.00,2080.53
             2446.00,2080.53 2439.00,2079.24 2439.00,2079.24
             2431.48,2077.86 2427.72,2074.93 2420.00,2079.24
             2419.76,2075.00 2420.04,2073.46 2416.00,2072.00
             2416.64,2068.05 2417.19,2064.72 2413.00,2063.00
             2413.63,2057.02 2409.78,2040.12 2406.52,2035.06
             2405.00,2032.69 2404.34,2032.31 2402.00,2031.00
             2402.38,2029.37 2402.70,2028.81 2402.55,2027.00
             2402.37,2024.87 2398.22,2012.06 2397.05,2010.00
             2397.05,2010.00 2391.80,2001.72 2391.80,2001.72
             2390.71,1999.20 2389.31,1989.05 2389.09,1986.00
             2388.72,1981.01 2389.08,1972.36 2385.00,1969.00
             2385.00,1969.00 2383.48,1944.00 2383.48,1944.00
             2383.48,1944.00 2380.38,1934.00 2380.38,1934.00
             2380.38,1934.00 2378.37,1914.00 2378.37,1914.00
             2378.37,1914.00 2375.32,1902.00 2375.32,1902.00
             2375.32,1902.00 2373.71,1879.00 2373.71,1879.00
             2373.71,1879.00 2371.53,1866.00 2371.53,1866.00
             2371.53,1866.00 2368.62,1856.00 2368.62,1856.00
             2368.62,1856.00 2367.87,1843.00 2367.87,1843.00
             2367.87,1843.00 2366.00,1826.00 2366.00,1826.00
             2366.00,1826.00 2363.21,1802.00 2363.21,1802.00
             2363.21,1802.00 2363.21,1791.00 2363.21,1791.00
             2363.21,1791.00 2361.58,1777.00 2361.58,1777.00
             2361.58,1777.00 2361.58,1762.00 2361.58,1762.00
             2361.58,1762.00 2361.58,1756.00 2361.58,1756.00
             2361.58,1756.00 2361.58,1733.00 2361.58,1733.00
             2361.58,1733.00 2364.00,1724.00 2364.00,1724.00
             2364.00,1724.00 2363.00,1724.00 2363.00,1724.00
             2363.00,1724.00 2363.00,1726.00 2363.00,1726.00
             2361.52,1720.77 2362.00,1715.98 2364.26,1711.00
             2367.10,1704.74 2370.78,1702.59 2369.00,1695.00
             2374.08,1691.55 2369.50,1689.38 2371.47,1682.16
             2371.47,1682.16 2375.45,1672.00 2375.45,1672.00
             2375.45,1672.00 2377.78,1653.01 2377.78,1653.01
             2378.52,1647.69 2379.80,1649.15 2380.00,1642.00
             2380.00,1642.00 2382.83,1640.43 2382.83,1640.43
             2382.83,1640.43 2386.75,1629.54 2386.75,1629.54
             2386.75,1629.54 2386.00,1628.00 2386.00,1628.00
             2391.00,1621.32 2391.70,1618.20 2391.00,1610.00
             2395.12,1608.74 2394.68,1603.50 2394.00,1600.00
             2394.00,1600.00 2401.04,1594.76 2401.04,1594.76
             2401.04,1594.76 2431.00,1588.00 2431.00,1588.00
             2431.00,1588.00 2449.00,1576.11 2449.00,1576.11
             2454.56,1572.29 2457.13,1568.55 2464.00,1568.00
             2465.20,1563.00 2468.10,1562.13 2470.91,1557.99
             2476.14,1550.26 2481.15,1542.20 2483.27,1533.01
             2483.27,1533.01 2484.24,1526.72 2484.24,1526.72
             2487.89,1506.16 2484.90,1509.92 2484.24,1492.00
             2484.24,1492.00 2485.25,1479.00 2485.25,1479.00
             2485.25,1479.00 2485.25,1470.00 2485.25,1470.00
             2485.25,1470.00 2485.25,1463.00 2485.25,1463.00
             2485.25,1463.00 2486.00,1452.00 2486.00,1452.00
             2486.00,1452.00 2486.00,1432.00 2486.00,1432.00
             2486.00,1432.00 2487.88,1417.00 2487.88,1417.00
             2487.88,1417.00 2487.88,1410.00 2487.88,1410.00
             2488.31,1405.46 2490.16,1403.03 2491.38,1399.00
             2491.38,1399.00 2494.55,1387.00 2494.55,1387.00
             2494.55,1387.00 2500.49,1367.00 2500.49,1367.00
             2502.47,1359.20 2505.96,1346.60 2506.00,1339.00
             2506.00,1339.00 2507.00,1321.00 2507.00,1321.00
             2507.00,1321.00 2507.00,1306.00 2507.00,1306.00
             2507.00,1306.00 2505.00,1307.00 2505.00,1307.00
             2505.00,1307.00 2507.00,1299.00 2507.00,1299.00
             2503.81,1288.75 2505.02,1277.66 2505.00,1267.00
             2504.99,1259.33 2503.41,1254.39 2502.27,1247.00
             2502.27,1247.00 2499.00,1214.00 2499.00,1214.00
             2498.99,1207.76 2501.08,1201.63 2494.00,1200.00
             2493.56,1192.03 2488.36,1183.99 2480.00,1183.00
             2478.75,1179.19 2478.15,1179.18 2475.00,1176.80
             2465.82,1169.88 2468.30,1172.39 2458.00,1170.68
             2455.64,1170.29 2452.57,1169.03 2450.28,1169.57
             2448.33,1170.04 2446.53,1171.76 2445.00,1173.00
             2445.00,1173.00 2447.91,1155.00 2447.91,1155.00
             2447.91,1155.00 2447.91,1144.00 2447.91,1144.00
             2447.91,1144.00 2450.49,1112.00 2450.49,1112.00
             2450.49,1112.00 2451.16,1099.00 2451.16,1099.00
             2451.16,1099.00 2452.70,1091.00 2452.70,1091.00
             2452.70,1091.00 2453.91,1067.09 2453.91,1067.09
             2453.91,1067.09 2453.91,1058.00 2453.91,1058.00
             2453.91,1058.00 2452.89,1046.00 2452.89,1046.00
             2452.89,1046.00 2452.89,1018.00 2452.89,1018.00
             2452.89,1018.00 2452.89,998.00 2452.89,998.00
             2452.89,998.00 2453.63,991.00 2453.63,991.00
             2453.63,991.00 2451.94,979.00 2451.94,979.00
             2451.94,979.00 2451.94,969.00 2451.94,969.00
             2451.94,969.00 2449.87,954.00 2449.87,954.00
             2449.87,954.00 2447.79,933.00 2447.79,933.00
             2447.79,933.00 2447.79,925.01 2447.79,925.01
             2447.79,925.01 2445.09,915.96 2445.09,915.96
             2445.09,915.96 2443.59,899.09 2443.59,899.09
             2443.59,899.09 2441.80,894.72 2441.80,894.72
             2439.91,889.51 2442.66,882.64 2437.76,879.00
             2440.26,875.08 2438.45,874.05 2437.76,870.00
             2437.76,870.00 2435.90,860.00 2435.90,860.00
             2435.90,860.00 2432.53,851.00 2432.53,851.00
             2432.53,851.00 2431.32,843.00 2431.32,843.00
             2431.32,843.00 2427.61,834.00 2427.61,834.00
             2426.65,830.44 2427.22,827.94 2425.45,823.00
             2425.45,823.00 2420.53,813.01 2420.53,813.01
             2419.52,810.08 2420.27,808.27 2417.17,800.72
             2417.17,800.72 2406.36,780.00 2406.36,780.00
             2406.36,780.00 2400.79,764.91 2400.79,764.91
             2400.79,764.91 2393.61,747.00 2393.61,747.00
             2393.61,747.00 2385.39,734.72 2385.39,734.72
             2385.39,734.72 2383.18,728.42 2383.18,728.42
             2381.66,725.17 2377.80,721.20 2375.22,713.00
             2373.36,707.11 2374.13,704.44 2373.04,699.00
             2373.04,699.00 2368.90,684.00 2368.90,684.00
             2368.90,684.00 2366.66,671.00 2366.66,671.00
             2366.66,671.00 2362.95,661.00 2362.95,661.00
             2362.95,661.00 2360.79,652.00 2360.79,652.00
             2360.79,652.00 2351.60,631.00 2351.60,631.00
             2351.60,631.00 2346.68,615.00 2346.68,615.00
             2345.06,610.76 2342.52,607.86 2340.33,604.00
             2340.33,604.00 2335.77,594.00 2335.77,594.00
             2331.69,587.22 2324.23,582.05 2320.15,577.08
             2320.15,577.08 2314.89,570.00 2314.89,570.00
             2314.89,570.00 2304.45,558.95 2304.45,558.95
             2304.45,558.95 2297.80,550.50 2297.80,550.50
             2297.80,550.50 2288.73,541.96 2288.73,541.96
             2288.73,541.96 2279.28,531.13 2279.28,531.13
             2279.28,531.13 2273.44,525.76 2273.44,525.76
             2273.44,525.76 2269.16,520.70 2269.16,520.70
             2269.16,520.70 2256.05,511.41 2256.05,511.41
             2252.89,508.86 2252.38,507.34 2249.76,504.75
             2249.76,504.75 2242.29,498.53 2242.29,498.53
             2242.29,498.53 2226.72,486.00 2226.72,486.00
             2226.72,486.00 2221.17,483.44 2221.17,483.44
             2218.12,481.36 2216.21,477.82 2213.63,475.67
             2213.63,475.67 2205.17,470.21 2205.17,470.21
             2205.17,470.21 2198.71,464.54 2198.71,464.54
             2198.71,464.54 2194.37,462.05 2194.37,462.05
             2194.37,462.05 2186.01,454.80 2186.01,454.80
             2179.45,449.02 2170.53,438.51 2161.00,441.00
             2155.85,433.89 2144.34,434.12 2139.99,431.84
             2139.99,431.84 2132.00,426.30 2132.00,426.30
             2132.00,426.30 2125.00,423.81 2125.00,423.81
             2125.00,423.81 2101.43,414.98 2101.43,414.98
             2101.43,414.98 2090.99,408.93 2090.99,408.93
             2090.99,408.93 2080.00,404.91 2080.00,404.91
             2080.00,404.91 2072.00,400.74 2072.00,400.74
             2072.00,400.74 2064.00,397.33 2064.00,397.33
             2064.00,397.33 2055.00,392.04 2055.00,392.04
             2055.00,392.04 2049.00,389.65 2049.00,389.65
             2049.00,389.65 2042.00,385.93 2042.00,385.93
             2038.63,384.64 2036.92,385.76 2034.17,384.70
             2034.17,384.70 2026.99,380.48 2026.99,380.48
             2022.82,378.76 2020.64,379.39 2017.00,378.25
             2017.00,378.25 2004.00,372.67 2004.00,372.67
             2004.00,372.67 1993.00,370.49 1993.00,370.49
             1993.00,370.49 1981.00,367.12 1981.00,367.12
             1972.90,365.43 1953.22,363.20 1945.00,363.21
             1945.00,363.21 1934.00,363.21 1934.00,363.21
             1934.00,363.21 1919.00,361.64 1919.00,361.64
             1919.00,361.64 1911.00,361.64 1911.00,361.64
             1911.00,361.64 1905.00,361.64 1905.00,361.64
             1905.00,361.64 1899.00,361.64 1899.00,361.64
             1899.00,361.64 1893.04,361.08 1893.04,361.08
             1888.29,361.18 1889.35,362.94 1881.00,363.00
             1874.27,363.04 1867.53,363.64 1861.00,365.39
             1861.00,365.39 1853.00,367.96 1853.00,367.96
             1853.00,367.96 1846.00,367.96 1846.00,367.96
             1846.00,367.96 1833.00,370.33 1833.00,370.33
             1833.00,370.33 1803.00,379.60 1803.00,379.60
             1803.00,379.60 1792.83,384.81 1792.83,384.81
             1792.83,384.81 1785.30,387.08 1785.30,387.08
             1781.69,388.95 1780.49,392.41 1775.00,394.87
             1775.00,394.87 1755.00,400.62 1755.00,400.62
             1755.00,400.62 1746.00,403.88 1746.00,403.88
             1746.00,403.88 1730.00,406.44 1730.00,406.44
             1730.00,406.44 1706.00,412.00 1706.00,412.00 Z
           M 1356.00,961.00
           C 1356.00,961.00 1356.00,962.00 1356.00,962.00
             1356.00,962.00 1357.00,961.00 1357.00,961.00
             1357.00,961.00 1356.00,961.00 1356.00,961.00 Z
           M 1358.00,1531.00
           C 1358.00,1531.00 1358.00,1532.00 1358.00,1532.00
             1358.00,1532.00 1357.00,1531.00 1357.00,1531.00
             1357.00,1531.00 1358.00,1531.00 1358.00,1531.00 Z
           M 1357.00,1532.00
           C 1357.00,1532.00 1357.00,1533.00 1357.00,1533.00
             1357.00,1533.00 1356.00,1532.00 1356.00,1532.00
             1356.00,1532.00 1357.00,1532.00 1357.00,1532.00 Z
           M 1356.00,1534.00
           C 1356.00,1534.00 1356.00,1535.00 1356.00,1535.00
             1356.00,1535.00 1355.00,1534.00 1355.00,1534.00
             1355.00,1534.00 1356.00,1534.00 1356.00,1534.00 Z
           M 1437.00,1702.00
           C 1437.00,1702.00 1437.00,1703.00 1437.00,1703.00
             1437.00,1703.00 1436.00,1702.00 1436.00,1702.00
             1436.00,1702.00 1437.00,1702.00 1437.00,1702.00 Z
           M 1459.00,2173.00
           C 1459.00,2173.00 1459.00,2174.00 1459.00,2174.00
             1459.00,2174.00 1458.00,2173.00 1458.00,2173.00
             1458.00,2173.00 1459.00,2173.00 1459.00,2173.00 Z
           M 1451.00,2180.00
           C 1451.00,2180.00 1451.00,2181.00 1451.00,2181.00
             1451.00,2181.00 1450.00,2180.00 1450.00,2180.00
             1450.00,2180.00 1451.00,2180.00 1451.00,2180.00 Z
           M 664.00,2520.00
           C 664.00,2520.00 664.00,2521.00 664.00,2521.00
             664.00,2521.00 665.00,2520.00 665.00,2520.00
             665.00,2520.00 664.00,2520.00 664.00,2520.00 Z
           M 655.00,2536.00
           C 655.00,2536.00 655.00,2537.00 655.00,2537.00
             655.00,2537.00 656.00,2536.00 656.00,2536.00
             656.00,2536.00 655.00,2536.00 655.00,2536.00 Z
           M 659.00,2540.00
           C 659.00,2540.00 659.00,2541.00 659.00,2541.00
             659.00,2541.00 658.00,2540.00 658.00,2540.00
             658.00,2540.00 659.00,2540.00 659.00,2540.00 Z
           M 647.00,2546.00
           C 647.00,2546.00 650.00,2543.00 650.00,2543.00
             650.00,2543.00 647.00,2546.00 647.00,2546.00 Z
           M 337.00,2993.00
           C 337.00,2993.00 337.00,2994.00 337.00,2994.00
             337.00,2994.00 338.00,2993.00 338.00,2993.00
             338.00,2993.00 337.00,2993.00 337.00,2993.00 Z
           M 306.00,3096.00
           C 306.00,3096.00 306.00,3097.00 306.00,3097.00
             306.00,3097.00 305.00,3096.00 305.00,3096.00
             305.00,3096.00 306.00,3096.00 306.00,3096.00 Z
           M 262.00,3304.00
           C 262.00,3304.00 262.00,3305.00 262.00,3305.00
             262.00,3305.00 261.00,3304.00 261.00,3304.00
             261.00,3304.00 262.00,3304.00 262.00,3304.00 Z
           M 172.00,3757.00
           C 172.00,3757.00 172.00,3758.00 172.00,3758.00
             172.00,3758.00 173.00,3757.00 173.00,3757.00
             173.00,3757.00 172.00,3757.00 172.00,3757.00 Z
           M 171.00,3765.00
           C 171.00,3765.00 171.00,3766.00 171.00,3766.00
             171.00,3766.00 170.00,3765.00 170.00,3765.00
             170.00,3765.00 171.00,3765.00 171.00,3765.00 Z
           M 159.00,3818.00
           C 159.00,3818.00 159.00,3824.00 159.00,3824.00
             159.00,3824.00 157.00,3824.00 157.00,3824.00
             157.00,3824.00 159.00,3818.00 159.00,3818.00 Z
           M 153.00,3857.00
           C 153.00,3857.00 153.00,3858.00 153.00,3858.00
             153.00,3858.00 154.00,3857.00 154.00,3857.00
             154.00,3857.00 153.00,3857.00 153.00,3857.00 Z
           M 141.00,3924.00
           C 141.00,3924.00 141.00,3925.00 141.00,3925.00
             141.00,3925.00 140.00,3924.00 140.00,3924.00
             140.00,3924.00 141.00,3924.00 141.00,3924.00 Z
           M 94.00,3982.00
           C 94.00,3982.00 94.00,3983.00 94.00,3983.00
             94.00,3983.00 93.00,3982.00 93.00,3982.00
             93.00,3982.00 94.00,3982.00 94.00,3982.00 Z
           M 118.00,4090.00
           C 118.00,4090.00 118.00,4091.00 118.00,4091.00
             118.00,4091.00 117.00,4090.00 117.00,4090.00
             117.00,4090.00 118.00,4090.00 118.00,4090.00 Z
           M 129.00,4106.00
           C 129.00,4106.00 129.00,4107.00 129.00,4107.00
             129.00,4107.00 130.00,4106.00 130.00,4106.00
             130.00,4106.00 129.00,4106.00 129.00,4106.00 Z" />
</svg>
