<?xml version="1.0" encoding="UTF-8" standalone="no"?>
<!DOCTYPE svg PUBLIC "-//W3C//DTD SVG 20010904//EN"
              "http://www.w3.org/TR/2001/REC-SVG-20010904/DTD/svg10.dtd">

<svg xmlns="http://www.w3.org/2000/svg"
     width="12.39in" height="14.3433in"
     viewBox="0 0 3717 4303">
  <path id="face"
        fill="none" stroke="black" stroke-width="1"
        d="M 1840.00,283.00
           C 1840.00,283.00 1837.87,284.94 1837.87,284.94
             1837.87,284.94 1824.00,284.00 1824.00,284.00
             1824.00,284.00 1824.00,286.00 1824.00,286.00
             1824.00,286.00 1829.00,286.00 1829.00,286.00
             1829.00,286.00 1812.00,287.00 1812.00,287.00
             1812.00,287.00 1784.00,287.00 1784.00,287.00
             1784.00,287.00 1770.17,288.12 1770.17,288.12
             1770.17,288.12 1742.00,289.00 1742.00,289.00
             1742.00,289.00 1742.00,290.00 1742.00,290.00
             1742.00,290.00 1744.00,292.00 1744.00,292.00
             1744.00,292.00 1720.00,292.00 1720.00,292.00
             1720.00,292.00 1706.00,292.92 1706.00,292.92
             1706.00,292.92 1698.00,292.33 1698.00,292.33
             1698.00,292.33 1670.00,296.84 1670.00,296.84
             1670.00,296.84 1651.00,301.00 1651.00,301.00
             1651.00,301.00 1652.00,303.00 1652.00,303.00
             1646.30,303.46 1631.95,306.58 1627.59,309.89
             1627.59,309.89 1622.05,315.56 1622.05,315.56
             1618.43,319.05 1616.71,320.09 1615.00,325.00
             1609.79,325.73 1606.61,333.33 1602.91,336.87
             1596.59,342.93 1588.15,348.23 1580.00,351.41
             1576.84,352.64 1569.09,353.82 1568.00,357.00
             1568.00,357.00 1565.00,357.00 1565.00,357.00
             1565.00,357.00 1566.00,355.00 1566.00,355.00
             1566.00,355.00 1563.00,355.00 1563.00,355.00
             1563.00,355.00 1564.00,357.00 1564.00,357.00
             1560.55,356.81 1548.49,359.83 1545.00,361.20
             1545.00,361.20 1536.72,365.27 1536.72,365.27
             1536.72,365.27 1521.00,369.90 1521.00,369.90
             1515.89,371.88 1511.06,371.28 1508.00,376.00
             1501.15,376.42 1494.60,388.11 1488.00,391.73
             1488.00,391.73 1482.04,394.61 1482.04,394.61
             1482.04,394.61 1466.70,407.52 1466.70,407.52
             1466.70,407.52 1460.17,411.49 1460.17,411.49
             1460.17,411.49 1448.91,421.27 1448.91,421.27
             1448.91,421.27 1438.17,427.41 1438.17,427.41
             1438.17,427.41 1429.91,436.25 1429.91,436.25
             1423.00,442.44 1416.05,443.87 1411.00,453.00
             1404.71,451.60 1402.96,455.88 1398.98,460.19
             1394.36,465.20 1386.35,472.89 1380.00,475.00
             1377.14,484.29 1371.43,480.37 1366.00,491.00
             1366.00,491.00 1364.00,490.00 1364.00,490.00
             1359.19,496.65 1357.86,495.70 1354.68,499.37
             1354.68,499.37 1350.77,505.00 1350.77,505.00
             1350.77,505.00 1341.90,515.46 1341.90,515.46
             1341.90,515.46 1331.80,525.37 1331.80,525.37
             1331.80,525.37 1319.76,542.00 1319.76,542.00
             1319.76,542.00 1315.52,549.98 1315.52,549.98
             1315.52,549.98 1309.64,557.25 1309.64,557.25
             1309.64,557.25 1306.13,564.12 1306.13,564.12
             1302.64,569.68 1298.65,575.08 1295.91,581.09
             1293.26,586.91 1291.83,594.89 1287.00,599.00
             1287.00,599.00 1278.36,621.00 1278.36,621.00
             1278.36,621.00 1276.07,634.00 1276.07,634.00
             1276.07,634.00 1273.26,645.00 1273.26,645.00
             1273.26,645.00 1270.76,653.00 1270.76,653.00
             1270.76,653.00 1269.15,660.91 1269.15,660.91
             1269.15,660.91 1265.13,671.00 1265.13,671.00
             1265.13,671.00 1264.00,688.00 1264.00,688.00
             1257.58,690.11 1257.63,695.49 1255.40,701.00
             1255.40,701.00 1251.18,710.00 1251.18,710.00
             1246.43,722.68 1249.16,718.03 1246.87,728.00
             1245.85,732.41 1244.63,732.91 1244.19,738.00
             1244.19,738.00 1245.89,783.00 1245.89,783.00
             1245.89,783.00 1245.89,796.00 1245.89,796.00
             1244.58,804.65 1240.03,811.77 1240.00,830.00
             1240.00,830.00 1240.00,849.00 1240.00,849.00
             1240.00,849.00 1239.08,860.00 1239.08,860.00
             1239.08,860.00 1240.00,873.00 1240.00,873.00
             1240.00,873.00 1239.00,892.00 1239.00,892.00
             1239.00,892.00 1239.00,905.00 1239.00,905.00
             1239.00,905.00 1238.00,918.00 1238.00,918.00
             1238.00,918.00 1238.82,932.00 1238.82,932.00
             1238.82,932.00 1238.00,939.00 1238.00,939.00
             1238.00,939.00 1238.00,948.00 1238.00,948.00
             1238.00,948.00 1236.76,960.00 1236.76,960.00
             1236.76,960.00 1236.76,968.72 1236.76,968.72
             1236.76,968.72 1235.28,979.00 1235.28,979.00
             1235.28,979.00 1236.24,988.00 1236.24,988.00
             1236.24,988.00 1236.24,998.00 1236.24,998.00
             1236.24,998.00 1235.51,1010.00 1235.51,1010.00
             1235.06,1017.13 1237.71,1024.05 1238.70,1031.00
             1238.70,1031.00 1239.32,1039.00 1239.32,1039.00
             1239.32,1039.00 1242.68,1051.00 1242.68,1051.00
             1242.68,1051.00 1244.28,1066.00 1244.28,1066.00
             1244.28,1066.00 1246.22,1077.83 1246.22,1077.83
             1246.22,1077.83 1247.75,1083.09 1247.75,1083.09
             1247.75,1083.09 1248.49,1093.00 1248.49,1093.00
             1248.49,1093.00 1250.75,1102.00 1250.75,1102.00
             1250.75,1102.00 1252.12,1112.00 1252.12,1112.00
             1252.12,1112.00 1255.13,1122.00 1255.13,1122.00
             1257.92,1131.58 1260.30,1140.99 1261.00,1151.00
             1261.00,1151.00 1234.17,1139.07 1234.17,1139.07
             1231.89,1137.85 1230.79,1136.38 1227.96,1135.37
             1227.96,1135.37 1215.17,1133.36 1215.17,1133.36
             1210.83,1133.04 1201.82,1132.61 1198.00,1133.36
             1188.58,1135.87 1174.21,1147.57 1168.82,1155.42
             1168.82,1155.42 1163.28,1171.00 1163.28,1171.00
             1163.28,1171.00 1161.56,1182.00 1161.56,1182.00
             1158.78,1193.67 1159.02,1195.22 1159.00,1207.00
             1159.00,1207.00 1158.00,1225.00 1158.00,1225.00
             1158.00,1225.00 1159.37,1252.00 1159.37,1252.00
             1159.25,1258.16 1162.94,1276.65 1164.95,1282.83
             1164.95,1282.83 1167.30,1289.04 1167.30,1289.04
             1167.30,1289.04 1172.75,1308.00 1172.75,1308.00
             1172.75,1308.00 1175.48,1316.00 1175.48,1316.00
             1176.65,1320.92 1175.48,1326.01 1181.00,1328.00
             1181.00,1328.00 1188.47,1354.00 1188.47,1354.00
             1188.47,1354.00 1192.67,1363.00 1192.67,1363.00
             1192.67,1363.00 1194.88,1372.96 1194.88,1372.96
             1194.88,1372.96 1199.07,1380.09 1199.07,1380.09
             1199.07,1380.09 1210.62,1404.87 1210.62,1404.87
             1210.62,1404.87 1215.00,1410.26 1215.00,1410.26
             1215.00,1410.26 1217.49,1417.00 1217.49,1417.00
             1217.49,1417.00 1230.67,1435.08 1230.67,1435.08
             1230.67,1435.08 1237.51,1441.46 1237.51,1441.46
             1237.51,1441.46 1243.09,1448.40 1243.09,1448.40
             1243.09,1448.40 1257.42,1459.09 1257.42,1459.09
             1257.42,1459.09 1264.96,1462.63 1264.96,1462.63
             1264.96,1462.63 1271.80,1467.36 1271.80,1467.36
             1271.80,1467.36 1291.00,1478.00 1291.00,1478.00
             1299.48,1477.68 1312.94,1483.65 1322.00,1486.12
             1322.00,1486.12 1342.00,1491.30 1342.00,1491.30
             1342.00,1491.30 1350.00,1495.16 1350.00,1495.16
             1350.00,1495.16 1359.00,1498.75 1359.00,1498.75
             1362.36,1500.07 1373.21,1504.06 1375.25,1506.31
             1380.11,1511.67 1381.85,1522.06 1383.08,1529.00
             1383.08,1529.00 1385.64,1539.00 1385.64,1539.00
             1385.64,1539.00 1388.39,1556.00 1388.39,1556.00
             1388.39,1556.00 1391.18,1565.00 1391.18,1565.00
             1391.18,1565.00 1393.24,1581.83 1393.24,1581.83
             1393.24,1581.83 1395.04,1588.04 1395.04,1588.04
             1395.04,1588.04 1397.63,1602.00 1397.63,1602.00
             1397.63,1602.00 1399.22,1616.00 1399.22,1616.00
             1400.40,1619.58 1405.40,1626.54 1407.66,1630.00
             1407.66,1630.00 1422.29,1652.00 1422.29,1652.00
             1422.29,1652.00 1452.58,1689.00 1452.58,1689.00
             1452.58,1689.00 1467.13,1707.00 1467.13,1707.00
             1467.13,1707.00 1486.83,1728.00 1486.83,1728.00
             1486.83,1728.00 1525.00,1768.62 1525.00,1768.62
             1525.00,1768.62 1562.00,1791.20 1562.00,1791.20
             1562.00,1791.20 1595.00,1810.76 1595.00,1810.76
             1598.75,1812.32 1599.75,1811.20 1604.00,1812.59
             1604.00,1812.59 1633.00,1824.20 1633.00,1824.20
             1633.00,1824.20 1688.00,1846.22 1688.00,1846.22
             1692.61,1847.47 1694.06,1846.35 1698.00,1846.92
             1698.00,1846.92 1716.00,1851.71 1716.00,1851.71
             1716.00,1851.71 1776.00,1868.71 1776.00,1868.71
             1788.89,1872.42 1802.50,1877.55 1816.00,1876.96
             1816.00,1876.96 1855.00,1871.08 1855.00,1871.08
             1855.00,1871.08 1896.00,1864.58 1896.00,1864.58
             1896.00,1864.58 1923.00,1859.00 1923.00,1859.00
             1923.00,1859.00 1961.00,1851.40 1961.00,1851.40
             1961.00,1851.40 1981.00,1847.01 1981.00,1847.01
             1981.00,1847.01 2024.00,1822.86 2024.00,1822.86
             2024.00,1822.86 2048.00,1809.14 2048.00,1809.14
             2048.00,1809.14 2090.00,1777.42 2090.00,1777.42
             2090.00,1777.42 2116.91,1756.71 2116.91,1756.71
             2116.91,1756.71 2148.28,1722.00 2148.28,1722.00
             2148.28,1722.00 2173.56,1693.00 2173.56,1693.00
             2173.56,1693.00 2204.05,1644.00 2204.05,1644.00
             2204.05,1644.00 2222.74,1613.00 2222.74,1613.00
             2224.67,1608.36 2223.33,1606.21 2224.89,1602.00
             2224.89,1602.00 2227.98,1595.00 2227.98,1595.00
             2227.98,1595.00 2230.50,1586.17 2230.50,1586.17
             2230.50,1586.17 2232.88,1580.91 2232.88,1580.91
             2232.88,1580.91 2235.77,1569.00 2235.77,1569.00
             2235.77,1569.00 2239.07,1560.00 2239.07,1560.00
             2240.54,1554.56 2239.59,1551.78 2240.39,1548.00
             2240.39,1548.00 2243.08,1540.00 2243.08,1540.00
             2243.08,1540.00 2247.34,1522.00 2247.34,1522.00
             2247.34,1522.00 2250.39,1501.01 2250.39,1501.01
             2250.39,1501.01 2253.05,1493.83 2253.05,1493.83
             2254.54,1489.06 2254.10,1477.85 2256.85,1474.43
             2259.80,1470.76 2269.61,1469.13 2274.00,1467.58
             2277.96,1466.19 2279.71,1464.28 2285.00,1463.19
             2285.00,1463.19 2292.83,1462.41 2292.83,1462.41
             2292.83,1462.41 2299.04,1458.70 2299.04,1458.70
             2302.13,1457.15 2317.77,1452.83 2321.00,1453.00
             2321.00,1453.00 2325.00,1450.00 2325.00,1450.00
             2325.00,1450.00 2324.00,1452.00 2324.00,1452.00
             2324.00,1452.00 2331.00,1449.00 2331.00,1449.00
             2331.00,1449.00 2330.00,1447.00 2330.00,1447.00
             2333.54,1446.65 2340.91,1446.95 2342.00,1443.00
             2342.00,1443.00 2345.00,1444.00 2345.00,1444.00
             2345.23,1443.30 2344.84,1443.11 2345.83,1442.07
             2345.83,1442.07 2356.85,1435.68 2356.85,1435.68
             2356.85,1435.68 2374.09,1422.42 2374.09,1422.42
             2374.09,1422.42 2377.42,1417.41 2377.42,1417.41
             2377.42,1417.41 2383.15,1413.31 2383.15,1413.31
             2383.15,1413.31 2386.19,1409.27 2386.19,1409.27
             2397.88,1395.00 2392.48,1400.72 2399.31,1387.01
             2399.31,1387.01 2403.48,1379.83 2403.48,1379.83
             2403.48,1379.83 2406.12,1372.00 2406.12,1372.00
             2406.12,1372.00 2409.38,1365.00 2409.38,1365.00
             2411.43,1359.64 2416.55,1339.58 2417.00,1334.00
             2422.14,1332.69 2420.51,1327.36 2421.22,1322.91
             2423.60,1308.05 2424.43,1313.09 2427.22,1303.00
             2427.22,1303.00 2428.69,1292.09 2428.69,1292.09
             2428.69,1292.09 2431.18,1286.83 2431.18,1286.83
             2431.18,1286.83 2433.10,1279.00 2433.10,1279.00
             2433.10,1279.00 2442.68,1252.00 2442.68,1252.00
             2442.68,1252.00 2445.32,1238.00 2445.32,1238.00
             2445.32,1238.00 2447.40,1231.00 2447.40,1231.00
             2447.40,1231.00 2448.66,1224.00 2448.66,1224.00
             2448.66,1224.00 2451.76,1213.83 2451.76,1213.83
             2450.66,1219.92 2454.18,1189.51 2453.86,1196.00
             2453.86,1196.00 2453.18,1189.00 2453.18,1189.00
             2453.18,1189.00 2453.96,1172.00 2453.96,1172.00
             2453.96,1172.00 2453.04,1163.00 2453.04,1163.00
             2453.04,1163.00 2453.66,1154.00 2453.66,1154.00
             2453.66,1154.00 2452.55,1138.00 2452.55,1138.00
             2452.45,1133.87 2453.41,1131.72 2449.00,1130.00
             2449.00,1130.00 2447.00,1117.00 2447.00,1117.00
             2439.73,1112.87 2441.59,1110.60 2438.91,1106.86
             2438.91,1106.86 2430.56,1100.03 2430.56,1100.03
             2430.56,1100.03 2421.96,1097.99 2421.96,1097.99
             2418.63,1096.93 2415.69,1095.95 2412.17,1095.59
             2408.23,1095.20 2389.59,1096.55 2386.00,1097.81
             2380.11,1099.89 2375.19,1103.84 2369.83,1106.82
             2369.83,1106.82 2352.00,1115.00 2352.00,1115.00
             2352.00,1115.00 2350.41,1118.28 2350.41,1118.28
             2350.41,1118.28 2332.00,1122.37 2332.00,1122.37
             2332.00,1122.37 2327.00,1121.00 2327.00,1121.00
             2327.00,1121.00 2326.00,1124.00 2326.00,1124.00
             2326.57,1120.35 2327.28,1120.16 2328.59,1117.00
             2330.85,1111.58 2329.77,1108.05 2338.00,1104.00
             2338.68,1100.18 2340.49,1093.54 2342.30,1090.17
             2343.90,1087.20 2346.37,1085.31 2347.31,1082.00
             2347.31,1082.00 2348.06,1077.00 2348.06,1077.00
             2348.06,1077.00 2350.96,1068.00 2350.96,1068.00
             2350.96,1068.00 2352.52,1061.00 2352.52,1061.00
             2352.52,1061.00 2355.48,1052.00 2355.48,1052.00
             2355.48,1052.00 2356.30,1044.04 2356.30,1044.04
             2357.05,1040.79 2358.80,1039.86 2359.52,1036.91
             2359.52,1036.91 2360.08,1026.83 2360.08,1026.83
             2361.42,1019.12 2364.36,1011.81 2364.69,1004.00
             2364.69,1004.00 2366.00,980.00 2366.00,980.00
             2366.01,976.99 2364.95,970.38 2368.00,969.00
             2368.00,969.00 2368.00,934.00 2368.00,934.00
             2368.00,934.00 2368.00,914.00 2368.00,914.00
             2368.00,914.00 2366.00,898.00 2366.00,898.00
             2366.00,898.00 2366.00,888.00 2366.00,888.00
             2366.00,888.00 2364.01,876.91 2364.01,876.91
             2364.01,876.91 2364.01,868.00 2364.01,868.00
             2364.01,868.00 2360.71,856.41 2360.71,856.41
             2360.71,856.41 2356.58,827.00 2356.58,827.00
             2356.58,827.00 2352.04,812.00 2352.04,812.00
             2352.04,812.00 2352.04,802.00 2352.04,802.00
             2352.04,802.00 2348.24,783.00 2348.24,783.00
             2348.24,783.00 2343.49,763.00 2343.49,763.00
             2342.40,758.17 2340.94,757.01 2341.10,751.72
             2341.32,744.26 2338.62,745.11 2337.13,738.99
             2337.13,738.99 2333.29,718.00 2333.29,718.00
             2333.29,718.00 2332.32,707.00 2332.32,707.00
             2331.18,702.31 2329.66,701.47 2328.31,698.00
             2328.31,698.00 2322.16,677.00 2322.16,677.00
             2322.16,677.00 2319.37,664.00 2319.37,664.00
             2319.37,664.00 2308.59,633.91 2308.59,633.91
             2308.59,633.91 2304.88,627.00 2304.88,627.00
             2304.88,627.00 2302.33,620.00 2302.33,620.00
             2302.33,620.00 2297.09,611.00 2297.09,611.00
             2297.09,611.00 2292.00,599.18 2292.00,599.18
             2292.00,599.18 2286.60,593.68 2286.60,593.68
             2286.60,593.68 2278.32,582.63 2278.32,582.63
             2278.32,582.63 2270.96,576.53 2270.96,576.53
             2264.86,570.30 2259.79,562.31 2251.85,558.00
             2251.85,558.00 2251.85,553.09 2251.85,553.09
             2251.85,553.09 2239.96,533.00 2239.96,533.00
             2239.96,533.00 2234.06,523.26 2234.06,523.26
             2234.06,523.26 2225.95,513.91 2225.95,513.91
             2225.95,513.91 2216.79,498.00 2216.79,498.00
             2216.79,498.00 2213.32,491.09 2213.32,491.09
             2213.32,491.09 2200.00,472.00 2200.00,472.00
             2200.00,472.00 2197.00,466.00 2197.00,466.00
             2197.00,466.00 2193.00,467.00 2193.00,467.00
             2191.18,458.63 2190.20,459.81 2184.92,454.66
             2184.92,454.66 2178.91,448.68 2178.91,448.68
             2178.91,448.68 2173.28,444.77 2173.28,444.77
             2173.28,444.77 2163.14,435.58 2163.14,435.58
             2160.35,432.85 2160.39,431.42 2157.00,429.00
             2157.00,429.00 2158.00,431.00 2158.00,431.00
             2158.00,431.00 2152.00,423.00 2152.00,423.00
             2147.46,422.11 2144.64,418.60 2142.00,415.00
             2138.69,414.43 2138.53,413.94 2137.00,411.00
             2133.96,410.15 2131.73,407.50 2129.27,405.50
             2129.27,405.50 2116.00,395.74 2116.00,395.74
             2116.00,395.74 2103.00,386.09 2103.00,386.09
             2103.00,386.09 2088.00,377.32 2088.00,377.32
             2088.00,377.32 2069.00,365.17 2069.00,365.17
             2069.00,365.17 2060.00,361.29 2060.00,361.29
             2060.00,361.29 2052.72,357.03 2052.72,357.03
             2052.72,357.03 2045.00,353.67 2045.00,353.67
             2045.00,353.67 2035.00,347.52 2035.00,347.52
             2035.00,347.52 2024.00,343.17 2024.00,343.17
             2024.00,343.17 2008.72,333.12 2008.72,333.12
             2005.24,331.36 2004.40,332.56 1999.00,329.29
             1995.61,327.24 1988.91,322.08 1985.83,320.97
             1985.83,320.97 1974.00,318.54 1974.00,318.54
             1962.53,315.97 1965.42,315.02 1952.00,315.00
             1941.31,314.98 1929.52,310.84 1919.00,308.45
             1919.00,308.45 1904.00,305.33 1904.00,305.33
             1904.00,305.33 1883.01,296.25 1883.01,296.25
             1883.01,296.25 1876.72,292.39 1876.72,292.39
             1867.50,288.52 1853.05,286.81 1843.00,286.00
             1843.00,286.00 1845.00,284.00 1845.00,284.00
             1845.00,284.00 1840.00,283.00 1840.00,283.00 Z
           M 1831.00,286.00
           C 1831.00,286.00 1831.00,287.00 1831.00,287.00
             1831.00,287.00 1830.00,286.00 1830.00,286.00
             1830.00,286.00 1831.00,286.00 1831.00,286.00 Z
           M 1311.00,558.00
           C 1311.00,558.00 1311.00,559.00 1311.00,559.00
             1311.00,559.00 1310.00,558.00 1310.00,558.00
             1310.00,558.00 1311.00,558.00 1311.00,558.00 Z
           M 1223.00,1133.00
           C 1223.00,1133.00 1223.00,1134.00 1223.00,1134.00
             1223.00,1134.00 1224.00,1133.00 1224.00,1133.00
             1224.00,1133.00 1223.00,1133.00 1223.00,1133.00 Z" />
  <path id="profile"
        fill="none" stroke="black" stroke-width="1"
        d="M 1840.00,283.00
           C 1840.00,283.00 1837.87,284.94 1837.87,284.94
             1837.87,284.94 1824.00,284.00 1824.00,284.00
             1824.00,284.00 1824.00,286.00 1824.00,286.00
             1824.00,286.00 1829.00,286.00 1829.00,286.00
             1829.00,286.00 1812.00,287.00 1812.00,287.00
             1812.00,287.00 1784.00,287.00 1784.00,287.00
             1784.00,287.00 1770.17,288.12 1770.17,288.12
             1770.17,288.12 1742.00,289.00 1742.00,289.00
             1742.00,289.00 1742.00,290.00 1742.00,290.00
             1742.00,290.00 1744.00,292.00 1744.00,292.00
             1744.00,292.00 1720.00,292.00 1720.00,292.00
             1720.00,292.00 1706.00,292.92 1706.00,292.92
             1706.00,292.92 1698.00,292.33 1698.00,292.33
             1698.00,292.33 1670.00,296.84 1670.00,296.84
             1670.00,296.84 1651.00,301.00 1651.00,301.00
             1651.00,301.00 1652.00,303.00 1652.00,303.00
             1646.30,303.46 1631.95,306.58 1627.59,309.89
             1627.59,309.89 1622.05,315.56 1622.05,315.56
             1618.43,319.05 1616.71,320.09 1615.00,325.00
             1609.79,325.73 1606.61,333.33 1602.91,336.87
             1596.59,342.93 1588.15,348.23 1580.00,351.41
             1576.84,352.64 1569.09,353.82 1568.00,357.00
             1568.00,357.00 1565.00,357.00 1565.00,357.00
             1565.00,357.00 1566.00,355.00 1566.00,355.00
             1566.00,355.00 1563.00,355.00 1563.00,355.00
             1563.00,355.00 1564.00,357.00 1564.00,357.00
             1560.55,356.81 1548.49,359.83 1545.00,361.20
             1545.00,361.20 1536.72,365.27 1536.72,365.27
             1536.72,365.27 1521.00,369.90 1521.00,369.90
             1515.89,371.88 1511.06,371.28 1508.00,376.00
             1501.15,376.42 1494.60,388.11 1488.00,391.73
             1488.00,391.73 1482.04,394.61 1482.04,394.61
             1482.04,394.61 1466.70,407.52 1466.70,407.52
             1466.70,407.52 1460.17,411.49 1460.17,411.49
             1460.17,411.49 1448.91,421.27 1448.91,421.27
             1448.91,421.27 1438.17,427.41 1438.17,427.41
             1438.17,427.41 1429.91,436.25 1429.91,436.25
             1423.00,442.44 1416.05,443.87 1411.00,453.00
             1404.71,451.60 1402.96,455.88 1398.98,460.19
             1394.36,465.20 1386.35,472.89 1380.00,475.00
             1377.14,484.29 1371.43,480.37 1366.00,491.00
             1366.00,491.00 1364.00,490.00 1364.00,490.00
             1359.19,496.65 1357.86,495.70 1354.68,499.37
             1354.68,499.37 1350.77,505.00 1350.77,505.00
             1350.77,505.00 1341.90,515.46 1341.90,515.46
             1341.90,515.46 1331.80,525.37 1331.80,525.37
             1331.80,525.37 1319.76,542.00 1319.76,542.00
             1319.76,542.00 1315.52,549.98 1315.52,549.98
             1315.52,549.98 1309.64,557.25 1309.64,557.25
             1309.64,557.25 1306.13,564.12 1306.13,564.12
             1302.64,569.68 1298.65,575.08 1295.91,581.09
             1293.26,586.91 1291.83,594.89 1287.00,599.00
             1287.00,599.00 1278.36,621.00 1278.36,621.00
             1278.36,621.00 1276.07,634.00 1276.07,634.00
             1276.07,634.00 1273.26,645.00 1273.26,645.00
             1273.26,645.00 1270.76,653.00 1270.76,653.00
             1270.76,653.00 1269.15,660.91 1269.15,660.91
             1269.15,660.91 1265.13,671.00 1265.13,671.00
             1265.13,671.00 1264.00,688.00 1264.00,688.00
             1257.58,690.11 1257.63,695.49 1255.40,701.00
             1255.40,701.00 1251.18,710.00 1251.18,710.00
             1246.43,722.68 1249.16,718.03 1246.87,728.00
             1245.85,732.41 1244.63,732.91 1244.19,738.00
             1244.19,738.00 1245.89,783.00 1245.89,783.00
             1245.89,783.00 1245.89,796.00 1245.89,796.00
             1244.58,804.65 1240.03,811.77 1240.00,830.00
             1240.00,830.00 1240.00,849.00 1240.00,849.00
             1240.00,849.00 1239.08,860.00 1239.08,860.00
             1239.08,860.00 1240.00,873.00 1240.00,873.00
             1240.00,873.00 1239.00,892.00 1239.00,892.00
             1239.00,892.00 1239.00,905.00 1239.00,905.00
             1239.00,905.00 1238.00,918.00 1238.00,918.00
             1238.00,918.00 1238.82,932.00 1238.82,932.00
             1238.82,932.00 1238.00,939.00 1238.00,939.00
             1238.00,939.00 1238.00,948.00 1238.00,948.00
             1238.00,948.00 1236.76,960.00 1236.76,960.00
             1236.76,960.00 1236.76,968.72 1236.76,968.72
             1236.76,968.72 1235.28,979.00 1235.28,979.00
             1235.28,979.00 1236.24,988.00 1236.24,988.00
             1236.24,988.00 1236.24,998.00 1236.24,998.00
             1236.24,998.00 1235.51,1010.00 1235.51,1010.00
             1235.06,1017.13 1237.71,1024.05 1238.70,1031.00
             1238.70,1031.00 1239.32,1039.00 1239.32,1039.00
             1239.32,1039.00 1242.68,1051.00 1242.68,1051.00
             1242.68,1051.00 1244.28,1066.00 1244.28,1066.00
             1244.28,1066.00 1246.22,1077.83 1246.22,1077.83
             1246.22,1077.83 1247.75,1083.09 1247.75,1083.09
             1247.75,1083.09 1248.49,1093.00 1248.49,1093.00
             1248.49,1093.00 1250.75,1102.00 1250.75,1102.00
             1250.75,1102.00 1252.12,1112.00 1252.12,1112.00
             1252.12,1112.00 1255.13,1122.00 1255.13,1122.00
             1257.92,1131.58 1260.30,1140.99 1261.00,1151.00
             1261.00,1151.00 1234.17,1139.07 1234.17,1139.07
             1231.89,1137.85 1230.79,1136.38 1227.96,1135.37
             1227.96,1135.37 1215.17,1133.36 1215.17,1133.36
             1210.83,1133.04 1201.82,1132.61 1198.00,1133.36
             1188.58,1135.87 1174.21,1147.57 1168.82,1155.42
             1168.82,1155.42 1163.28,1171.00 1163.28,1171.00
             1163.28,1171.00 1161.56,1182.00 1161.56,1182.00
             1158.78,1193.67 1159.02,1195.22 1159.00,1207.00
             1159.00,1207.00 1158.00,1225.00 1158.00,1225.00
             1158.00,1225.00 1159.37,1252.00 1159.37,1252.00
             1159.25,1258.16 1162.94,1276.65 1164.95,1282.83
             1164.95,1282.83 1167.30,1289.04 1167.30,1289.04
             1167.30,1289.04 1172.75,1308.00 1172.75,1308.00
             1172.75,1308.00 1175.48,1316.00 1175.48,1316.00
             1176.65,1320.92 1175.48,1326.01 1181.00,1328.00
             1181.00,1328.00 1188.47,1354.00 1188.47,1354.00
             1188.47,1354.00 1192.67,1363.00 1192.67,1363.00
             1192.67,1363.00 1194.88,1372.96 1194.88,1372.96
             1194.88,1372.96 1199.07,1380.09 1199.07,1380.09
             1199.07,1380.09 1210.62,1404.87 1210.62,1404.87
             1210.62,1404.87 1215.00,1410.26 1215.00,1410.26
             1215.00,1410.26 1217.49,1417.00 1217.49,1417.00
             1217.49,1417.00 1230.67,1435.08 1230.67,1435.08
             1230.67,1435.08 1237.51,1441.46 1237.51,1441.46
             1237.51,1441.46 1243.09,1448.40 1243.09,1448.40
             1243.09,1448.40 1257.42,1459.09 1257.42,1459.09
             1257.42,1459.09 1264.96,1462.63 1264.96,1462.63
             1264.96,1462.63 1271.80,1467.36 1271.80,1467.36
             1271.80,1467.36 1291.00,1478.00 1291.00,1478.00
             1298.73,1477.71 1315.28,1484.18 1324.00,1486.66
             1324.00,1486.66 1342.00,1491.30 1342.00,1491.30
             1342.00,1491.30 1350.00,1495.16 1350.00,1495.16
             1350.00,1495.16 1359.00,1498.75 1359.00,1498.75
             1362.36,1500.07 1373.21,1504.06 1375.25,1506.31
             1380.75,1512.38 1381.83,1523.33 1383.45,1531.00
             1383.45,1531.00 1386.46,1544.00 1386.46,1544.00
             1386.46,1544.00 1388.39,1556.00 1388.39,1556.00
             1388.39,1556.00 1391.58,1567.00 1391.58,1567.00
             1391.58,1567.00 1393.24,1581.83 1393.24,1581.83
             1393.24,1581.83 1394.82,1587.09 1394.82,1587.09
             1394.82,1587.09 1396.19,1596.00 1396.19,1596.00
             1396.19,1596.00 1397.81,1603.00 1397.81,1603.00
             1397.81,1603.00 1398.73,1614.00 1398.73,1614.00
             1398.73,1614.00 1400.43,1622.00 1400.43,1622.00
             1401.30,1631.32 1398.35,1627.29 1403.00,1639.00
             1403.00,1639.00 1404.00,1639.00 1404.00,1639.00
             1404.00,1639.00 1404.00,1637.00 1404.00,1637.00
             1409.86,1650.15 1405.68,1650.50 1406.14,1660.00
             1406.14,1660.00 1407.94,1670.00 1407.94,1670.00
             1407.94,1670.00 1407.41,1677.00 1407.41,1677.00
             1407.41,1677.00 1408.79,1685.00 1408.79,1685.00
             1408.79,1685.00 1408.79,1693.83 1408.79,1693.83
             1408.79,1693.83 1410.47,1698.17 1410.47,1698.17
             1413.27,1706.70 1407.19,1708.59 1414.00,1713.00
             1412.84,1718.25 1414.06,1723.62 1414.00,1729.00
             1414.00,1729.00 1413.27,1741.83 1413.27,1741.83
             1414.06,1745.65 1415.44,1743.82 1416.72,1754.00
             1418.34,1766.96 1417.84,1773.43 1418.00,1786.00
             1418.09,1792.30 1418.90,1791.84 1419.17,1795.97
             1419.17,1795.97 1419.17,1805.01 1419.17,1805.01
             1419.17,1805.01 1419.96,1813.00 1419.96,1813.00
             1420.13,1816.83 1418.98,1821.29 1422.00,1824.00
             1422.00,1824.00 1422.00,1826.00 1422.00,1826.00
             1419.31,1828.41 1419.93,1831.55 1420.01,1835.00
             1420.01,1835.00 1423.82,1860.00 1423.82,1860.00
             1423.82,1860.00 1423.18,1866.00 1423.18,1866.00
             1423.18,1866.00 1424.27,1885.83 1424.27,1885.83
             1425.39,1890.92 1426.98,1887.63 1427.00,1898.00
             1427.00,1898.00 1427.00,1914.00 1427.00,1914.00
             1427.00,1914.00 1428.00,1933.00 1428.00,1933.00
             1428.00,1933.00 1428.97,1946.00 1428.97,1946.00
             1428.97,1946.00 1428.00,1960.00 1428.00,1960.00
             1428.00,1960.00 1428.00,1976.00 1428.00,1976.00
             1428.00,1976.00 1426.94,1991.00 1426.94,1991.00
             1426.94,1991.00 1426.94,2011.96 1426.94,2011.96
             1426.27,2016.72 1424.32,2016.43 1424.17,2022.83
             1424.08,2026.45 1424.07,2029.38 1423.15,2032.96
             1422.15,2036.86 1420.89,2037.62 1419.55,2041.04
             1417.62,2045.96 1415.47,2057.83 1416.00,2063.00
             1412.60,2065.51 1403.98,2080.61 1401.94,2085.01
             1401.94,2085.01 1398.70,2092.77 1398.70,2092.77
             1396.45,2096.31 1393.62,2095.02 1391.00,2098.00
             1385.49,2097.92 1374.82,2101.98 1369.00,2103.40
             1369.00,2103.40 1362.00,2104.53 1362.00,2104.53
             1362.00,2104.53 1354.00,2106.96 1354.00,2106.96
             1341.25,2110.07 1336.11,2109.74 1324.17,2118.04
             1322.44,2119.24 1317.90,2122.74 1316.69,2124.26
             1312.64,2129.35 1315.17,2131.94 1307.00,2137.00
             1307.00,2137.00 1307.00,2136.00 1307.00,2136.00
             1307.00,2136.00 1309.00,2135.00 1309.00,2135.00
             1301.29,2132.19 1300.37,2138.76 1295.02,2141.88
             1291.31,2144.05 1287.73,2142.72 1287.00,2148.00
             1287.00,2148.00 1279.00,2148.00 1279.00,2148.00
             1279.00,2148.00 1277.00,2152.00 1277.00,2152.00
             1277.00,2152.00 1277.00,2150.00 1277.00,2150.00
             1277.00,2150.00 1262.00,2159.25 1262.00,2159.25
             1262.00,2159.25 1250.30,2161.59 1250.30,2161.59
             1250.30,2161.59 1245.70,2166.28 1245.70,2166.28
             1245.70,2166.28 1239.00,2169.00 1239.00,2169.00
             1239.00,2169.00 1240.00,2171.00 1240.00,2171.00
             1240.00,2171.00 1228.00,2179.00 1228.00,2179.00
             1224.69,2183.41 1210.04,2195.91 1205.00,2198.07
             1203.10,2198.88 1201.97,2198.85 1200.00,2199.00
             1200.00,2199.00 1204.00,2200.00 1204.00,2200.00
             1197.04,2204.35 1188.60,2206.73 1183.00,2213.00
             1177.23,2209.72 1177.79,2216.29 1167.00,2219.00
             1167.00,2219.00 1168.00,2223.00 1168.00,2223.00
             1168.00,2223.00 1153.02,2228.67 1153.02,2228.67
             1153.02,2228.67 1144.00,2234.00 1144.00,2234.00
             1144.00,2234.00 1144.00,2238.00 1144.00,2238.00
             1144.00,2238.00 1128.37,2241.84 1128.37,2241.84
             1128.37,2241.84 1123.81,2246.17 1123.81,2246.17
             1123.81,2246.17 1119.00,2251.00 1119.00,2251.00
             1114.90,2250.47 1112.69,2249.70 1111.00,2254.00
             1101.09,2253.33 1095.86,2260.33 1087.58,2263.71
             1083.71,2265.28 1084.04,2263.31 1076.00,2267.00
             1076.00,2267.00 1078.00,2272.00 1078.00,2272.00
             1078.00,2272.00 1063.00,2277.91 1063.00,2277.91
             1063.00,2277.91 1057.00,2281.59 1057.00,2281.59
             1057.00,2281.59 1048.24,2283.72 1048.24,2283.72
             1048.24,2283.72 1040.00,2289.00 1040.00,2289.00
             1040.00,2289.00 1043.00,2293.00 1043.00,2293.00
             1043.00,2293.00 1039.00,2292.00 1039.00,2292.00
             1035.49,2293.52 1031.90,2294.42 1028.73,2296.63
             1024.35,2299.71 1024.23,2301.33 1021.78,2303.03
             1021.78,2303.03 1005.42,2311.94 1005.42,2311.94
             999.15,2315.13 1000.79,2315.60 996.84,2318.21
             993.63,2320.34 992.60,2318.92 991.00,2323.00
             985.73,2323.30 985.34,2325.16 980.96,2327.03
             980.96,2327.03 971.09,2330.71 971.09,2330.71
             971.09,2330.71 962.00,2336.69 962.00,2336.69
             958.31,2338.74 952.08,2341.15 949.22,2343.71
             945.47,2347.06 946.35,2349.55 941.89,2353.48
             933.53,2360.85 927.89,2361.23 924.24,2363.43
             922.55,2364.45 920.07,2367.38 914.83,2370.39
             914.83,2370.39 908.37,2373.27 908.37,2373.27
             906.60,2374.36 900.99,2379.97 895.56,2382.78
             892.13,2384.55 884.84,2385.25 881.00,2390.00
             871.01,2387.29 873.27,2393.85 867.00,2396.00
             867.00,2396.00 868.00,2399.00 868.00,2399.00
             868.00,2399.00 855.00,2403.17 855.00,2403.17
             852.00,2404.68 849.98,2407.51 847.00,2408.71
             842.80,2410.40 839.30,2408.08 838.00,2414.00
             838.00,2414.00 829.00,2417.00 829.00,2417.00
             829.00,2417.00 820.29,2423.34 820.29,2423.34
             820.29,2423.34 806.00,2435.45 806.00,2435.45
             806.00,2435.45 795.00,2442.00 795.00,2442.00
             795.00,2442.00 785.00,2444.00 785.00,2444.00
             783.11,2447.35 782.76,2447.37 779.00,2448.00
             777.30,2451.59 775.58,2453.89 772.00,2455.86
             766.19,2459.07 762.78,2456.84 761.00,2465.00
             753.77,2464.85 753.97,2468.75 748.91,2471.63
             744.72,2474.02 740.30,2472.22 739.00,2478.00
             739.00,2478.00 724.00,2488.44 724.00,2488.44
             724.00,2488.44 716.38,2491.17 716.38,2491.17
             716.38,2491.17 709.82,2497.93 709.82,2497.93
             709.82,2497.93 695.00,2507.00 695.00,2507.00
             693.76,2511.52 686.97,2514.75 682.98,2516.92
             675.15,2521.19 674.17,2524.08 671.41,2526.42
             671.41,2526.42 659.83,2533.77 659.83,2533.77
             658.25,2534.17 657.56,2533.97 656.00,2533.77
             652.12,2542.21 648.18,2542.06 644.68,2545.53
             642.92,2547.27 642.38,2549.42 639.52,2551.62
             635.40,2554.80 632.11,2554.81 629.00,2560.00
             629.00,2560.00 624.00,2558.00 624.00,2558.00
             624.00,2558.00 626.00,2561.00 626.00,2561.00
             626.00,2561.00 622.00,2562.00 622.00,2562.00
             622.00,2562.00 623.00,2565.00 623.00,2565.00
             623.00,2565.00 618.00,2565.00 618.00,2565.00
             618.00,2565.00 618.00,2569.00 618.00,2569.00
             618.00,2569.00 614.00,2572.00 614.00,2572.00
             608.24,2571.85 609.06,2574.46 604.81,2578.72
             604.81,2578.72 589.83,2591.34 589.83,2591.34
             589.83,2591.34 580.17,2595.80 580.17,2595.80
             580.17,2595.80 568.58,2606.01 568.58,2606.01
             568.58,2606.01 561.84,2610.79 561.84,2610.79
             561.84,2610.79 557.55,2615.18 557.55,2615.18
             557.55,2615.18 552.04,2618.22 552.04,2618.22
             552.04,2618.22 541.47,2626.72 541.47,2626.72
             541.47,2626.72 536.66,2632.20 536.66,2632.20
             536.66,2632.20 531.17,2635.92 531.17,2635.92
             531.17,2635.92 519.00,2646.05 519.00,2646.05
             515.84,2648.85 510.52,2654.85 507.00,2656.00
             505.84,2659.81 498.70,2662.58 495.42,2665.44
             495.42,2665.44 485.37,2674.45 485.37,2674.45
             485.37,2674.45 481.51,2679.32 481.51,2679.32
             481.51,2679.32 475.42,2683.55 475.42,2683.55
             475.42,2683.55 467.09,2691.98 467.09,2691.98
             463.90,2695.31 458.29,2698.46 458.00,2703.00
             448.01,2705.60 438.61,2720.08 430.73,2727.49
             430.73,2727.49 419.96,2737.64 419.96,2737.64
             419.96,2737.64 409.09,2746.17 409.09,2746.17
             409.09,2746.17 397.72,2758.10 397.72,2758.10
             397.72,2758.10 376.00,2772.87 376.00,2772.87
             376.00,2772.87 364.00,2783.00 364.00,2783.00
             364.00,2783.00 365.00,2781.00 365.00,2781.00
             355.45,2786.76 351.57,2797.77 351.22,2808.58
             350.95,2816.84 354.63,2817.26 353.59,2823.00
             352.29,2830.25 345.99,2832.40 346.00,2841.00
             341.49,2843.62 336.09,2855.00 333.68,2860.00
             333.68,2860.00 327.75,2870.00 327.75,2870.00
             327.75,2870.00 323.22,2880.00 323.22,2880.00
             323.22,2880.00 317.08,2890.17 317.08,2890.17
             317.08,2890.17 313.97,2898.00 313.97,2898.00
             312.08,2902.52 309.02,2907.04 309.00,2912.00
             309.00,2912.00 307.00,2912.00 307.00,2912.00
             306.67,2915.94 301.21,2924.00 299.20,2928.28
             299.20,2928.28 286.89,2955.98 286.89,2955.98
             286.89,2955.98 281.35,2966.00 281.35,2966.00
             279.63,2970.17 278.42,2981.51 274.00,2983.00
             274.00,2983.00 275.00,2986.00 275.00,2986.00
             274.32,2986.52 274.21,2986.19 273.22,2987.54
             274.98,2985.14 265.30,3001.81 266.47,2999.28
             266.47,2999.28 264.19,3007.00 264.19,3007.00
             264.19,3007.00 259.42,3016.00 259.42,3016.00
             259.42,3016.00 255.88,3028.00 255.88,3028.00
             255.88,3028.00 251.64,3036.00 251.64,3036.00
             251.64,3036.00 247.89,3050.00 247.89,3050.00
             247.89,3050.00 241.09,3069.00 241.09,3069.00
             239.85,3072.41 239.79,3075.73 236.00,3077.00
             236.00,3077.00 232.43,3091.13 232.43,3091.13
             232.43,3091.13 227.52,3101.99 227.52,3101.99
             227.52,3101.99 223.54,3112.09 223.54,3112.09
             223.54,3112.09 222.46,3117.83 222.46,3117.83
             222.46,3117.83 214.60,3136.00 214.60,3136.00
             211.39,3144.38 211.13,3155.63 204.00,3162.00
             204.00,3162.00 202.60,3174.27 202.60,3174.27
             202.60,3174.27 198.51,3182.09 198.51,3182.09
             198.51,3182.09 195.00,3197.00 195.00,3197.00
             195.00,3197.00 194.00,3195.00 194.00,3195.00
             194.00,3195.00 190.69,3204.79 190.69,3204.79
             190.69,3204.79 186.26,3211.09 186.26,3211.09
             186.26,3211.09 182.82,3226.58 182.82,3226.58
             182.82,3226.58 174.00,3251.00 174.00,3251.00
             174.00,3251.00 173.00,3249.00 173.00,3249.00
             173.00,3249.00 171.47,3255.99 171.47,3255.99
             171.47,3255.99 168.00,3265.04 168.00,3265.04
             168.00,3265.04 165.23,3274.00 165.23,3274.00
             165.23,3274.00 160.84,3283.00 160.84,3283.00
             160.84,3283.00 158.09,3291.00 158.09,3291.00
             158.09,3291.00 154.67,3297.83 154.67,3297.83
             154.67,3297.83 150.25,3316.00 150.25,3316.00
             150.25,3316.00 144.53,3329.17 144.53,3329.17
             142.08,3336.22 144.92,3334.21 138.90,3348.00
             138.90,3348.00 133.24,3364.04 133.24,3364.04
             131.59,3370.33 133.16,3373.26 127.00,3377.00
             127.12,3383.10 122.94,3392.00 120.95,3398.00
             119.70,3401.78 120.24,3403.46 119.48,3407.00
             119.48,3407.00 115.75,3418.00 115.75,3418.00
             115.75,3418.00 113.02,3428.91 113.02,3428.91
             113.02,3428.91 109.77,3437.01 109.77,3437.01
             109.77,3437.01 108.66,3443.42 108.66,3443.42
             108.66,3443.42 105.55,3450.00 105.55,3450.00
             105.55,3450.00 102.96,3459.00 102.96,3459.00
             102.96,3459.00 97.36,3475.00 97.36,3475.00
             97.36,3475.00 95.12,3484.96 95.12,3484.96
             95.12,3484.96 92.33,3490.28 92.33,3490.28
             92.33,3490.28 88.86,3500.00 88.86,3500.00
             88.86,3500.00 85.43,3513.00 85.43,3513.00
             85.43,3513.00 81.13,3527.00 81.13,3527.00
             80.23,3530.73 80.36,3536.02 76.00,3537.00
             76.00,3537.00 77.00,3541.00 77.00,3541.00
             77.00,3541.00 72.55,3552.42 72.55,3552.42
             72.55,3552.42 68.05,3568.00 68.05,3568.00
             68.05,3568.00 61.00,3592.00 61.00,3592.00
             61.00,3592.00 60.00,3590.00 60.00,3590.00
             55.15,3598.77 57.04,3599.09 55.59,3604.00
             53.81,3610.04 50.64,3613.99 51.00,3621.00
             46.12,3625.20 51.08,3628.48 45.00,3632.00
             45.00,3632.00 42.45,3647.00 42.45,3647.00
             42.45,3647.00 37.71,3660.00 37.71,3660.00
             37.71,3660.00 33.42,3675.00 33.42,3675.00
             31.34,3682.13 29.70,3690.88 24.00,3696.00
             24.46,3701.75 22.35,3713.77 20.34,3718.91
             20.34,3718.91 16.94,3726.04 16.94,3726.04
             16.94,3726.04 14.00,3744.00 14.00,3744.00
             10.81,3744.83 10.65,3747.98 9.56,3751.09
             8.06,3755.37 8.51,3756.22 7.75,3760.00
             7.75,3760.00 5.39,3767.72 5.39,3767.72
             3.77,3772.68 1.73,3773.20 2.00,3779.00
             -0.60,3781.33 0.01,3783.68 0.00,3787.00
             0.00,3787.00 0.00,3812.00 0.00,3812.00
             0.00,3812.00 0.00,3910.00 0.00,3910.00
             0.00,3910.00 0.00,4303.00 0.00,4303.00
             0.00,4303.00 3045.00,4303.00 3045.00,4303.00
             3045.00,4303.00 3042.26,4288.00 3042.26,4288.00
             3042.26,4288.00 3039.12,4277.00 3039.12,4277.00
             3039.12,4277.00 3041.00,4268.00 3041.00,4268.00
             3050.43,4271.78 3047.06,4271.57 3053.29,4277.74
             3053.29,4277.74 3057.61,4281.45 3057.61,4281.45
             3060.52,4284.41 3059.78,4286.38 3064.00,4288.00
             3064.39,4293.42 3067.71,4300.61 3073.29,4302.88
             3073.29,4302.88 3100.00,4302.88 3100.00,4302.88
             3100.00,4302.88 3217.00,4302.88 3217.00,4302.88
             3217.00,4302.88 3717.00,4302.88 3717.00,4302.88
             3717.00,4302.88 3717.00,3594.00 3717.00,3594.00
             3717.00,3594.00 3717.00,3419.00 3717.00,3419.00
             3716.98,3408.90 3715.34,3409.66 3712.59,3401.00
             3712.59,3401.00 3709.53,3389.17 3709.53,3389.17
             3709.53,3389.17 3705.27,3381.99 3705.27,3381.99
             3705.27,3381.99 3700.18,3369.83 3700.18,3369.83
             3698.04,3364.71 3697.45,3356.33 3693.00,3353.00
             3692.57,3349.09 3688.24,3337.59 3686.23,3334.00
             3686.23,3334.00 3680.83,3325.83 3680.83,3325.83
             3680.83,3325.83 3674.35,3311.00 3674.35,3311.00
             3672.58,3306.86 3670.24,3298.73 3666.00,3297.00
             3666.27,3293.30 3666.20,3292.94 3663.00,3291.00
             3664.57,3282.17 3657.23,3279.02 3657.00,3271.00
             3653.60,3266.79 3648.43,3252.62 3645.81,3247.00
             3645.81,3247.00 3641.55,3239.00 3641.55,3239.00
             3641.55,3239.00 3635.58,3224.00 3635.58,3224.00
             3635.58,3224.00 3629.10,3212.00 3629.10,3212.00
             3629.10,3212.00 3626.22,3202.17 3626.22,3202.17
             3626.22,3202.17 3619.69,3189.08 3619.69,3189.08
             3618.10,3186.01 3617.50,3186.28 3615.77,3181.99
             3615.77,3181.99 3611.49,3170.17 3611.49,3170.17
             3608.49,3164.58 3603.87,3161.01 3604.00,3154.00
             3597.61,3148.55 3592.00,3132.38 3590.00,3124.00
             3590.00,3124.00 3587.00,3124.00 3587.00,3124.00
             3587.00,3124.00 3587.00,3120.00 3587.00,3120.00
             3587.00,3120.00 3584.00,3120.00 3584.00,3120.00
             3583.77,3111.18 3582.03,3113.01 3579.12,3106.00
             3573.83,3093.24 3563.77,3076.38 3562.00,3063.00
             3555.06,3056.61 3550.49,3046.65 3546.91,3038.00
             3546.91,3038.00 3545.18,3032.42 3545.18,3032.42
             3545.18,3032.42 3541.12,3026.00 3541.12,3026.00
             3541.12,3026.00 3538.47,3018.00 3538.47,3018.00
             3538.47,3018.00 3527.32,2997.00 3527.32,2997.00
             3527.32,2997.00 3520.96,2984.00 3520.96,2984.00
             3520.96,2984.00 3518.34,2977.00 3518.34,2977.00
             3518.34,2977.00 3510.15,2961.00 3510.15,2961.00
             3510.15,2961.00 3503.76,2945.28 3503.76,2945.28
             3500.76,2939.48 3496.51,2933.79 3497.00,2927.00
             3491.70,2923.71 3490.58,2916.47 3488.45,2911.00
             3486.86,2906.92 3484.95,2904.51 3485.00,2900.00
             3485.00,2900.00 3483.00,2900.00 3483.00,2900.00
             3481.92,2893.15 3476.30,2886.13 3473.30,2880.00
             3473.30,2880.00 3470.96,2872.00 3470.96,2872.00
             3469.08,2867.04 3466.16,2862.62 3463.64,2857.99
             3462.09,2855.13 3454.60,2846.05 3459.00,2844.00
             3459.00,2844.00 3454.00,2839.00 3454.00,2839.00
             3454.00,2839.00 3445.00,2816.00 3445.00,2816.00
             3445.00,2816.00 3441.00,2816.00 3441.00,2816.00
             3441.00,2816.00 3437.05,2802.00 3437.05,2802.00
             3437.05,2802.00 3435.50,2794.00 3435.50,2794.00
             3435.50,2794.00 3429.75,2768.00 3429.75,2768.00
             3429.75,2768.00 3426.98,2753.59 3426.98,2753.59
             3426.98,2753.59 3424.00,2752.00 3424.00,2752.00
             3424.00,2752.00 3421.52,2738.00 3421.52,2738.00
             3421.52,2738.00 3420.36,2732.00 3420.36,2732.00
             3420.36,2732.00 3417.00,2722.00 3417.00,2722.00
             3417.00,2722.00 3415.00,2723.00 3415.00,2723.00
             3415.00,2718.02 3415.41,2716.57 3413.00,2712.00
             3413.00,2712.00 3415.00,2712.00 3415.00,2712.00
             3415.00,2712.00 3412.00,2705.00 3412.00,2705.00
             3408.55,2703.96 3407.70,2700.71 3405.50,2697.83
             3400.12,2690.79 3401.26,2690.83 3397.67,2684.00
             3397.67,2684.00 3393.99,2678.01 3393.99,2678.01
             3393.99,2678.01 3392.08,2673.42 3392.08,2673.42
             3392.08,2673.42 3381.40,2658.26 3381.40,2658.26
             3381.40,2658.26 3377.53,2654.55 3377.53,2654.55
             3377.53,2654.55 3372.52,2647.09 3372.52,2647.09
             3372.52,2647.09 3367.32,2641.83 3367.32,2641.83
             3367.32,2641.83 3358.62,2629.83 3358.62,2629.83
             3358.62,2629.83 3350.77,2604.11 3350.77,2604.11
             3349.09,2601.37 3347.65,2601.00 3345.28,2599.22
             3345.28,2599.22 3339.98,2595.12 3339.98,2595.12
             3334.55,2591.89 3331.22,2592.42 3328.00,2586.00
             3326.11,2585.98 3323.83,2586.08 3322.04,2585.40
             3322.04,2585.40 3301.91,2571.49 3301.91,2571.49
             3301.91,2571.49 3293.42,2568.85 3293.42,2568.85
             3293.42,2568.85 3286.00,2564.03 3286.00,2564.03
             3286.00,2564.03 3271.72,2557.08 3271.72,2557.08
             3271.72,2557.08 3263.83,2553.84 3263.83,2553.84
             3255.14,2548.49 3249.09,2539.51 3244.95,2536.30
             3244.95,2536.30 3222.17,2520.23 3222.17,2520.23
             3222.17,2520.23 3210.17,2510.54 3210.17,2510.54
             3210.17,2510.54 3203.96,2504.72 3203.96,2504.72
             3203.96,2504.72 3193.28,2497.65 3193.28,2497.65
             3193.28,2497.65 3186.99,2492.21 3186.99,2492.21
             3186.99,2492.21 3179.46,2487.35 3179.46,2487.35
             3179.46,2487.35 3172.57,2481.74 3172.57,2481.74
             3172.57,2481.74 3155.18,2471.92 3155.18,2471.92
             3150.59,2469.11 3142.19,2463.87 3137.00,2464.00
             3132.98,2457.04 3130.34,2459.18 3124.00,2455.82
             3124.00,2455.82 3105.00,2446.33 3105.00,2446.33
             3097.97,2443.38 3094.12,2443.78 3088.00,2438.00
             3081.60,2438.13 3071.16,2432.30 3065.00,2429.63
             3061.63,2428.17 3059.61,2428.15 3056.42,2426.12
             3056.42,2426.12 3046.91,2418.28 3046.91,2418.28
             3042.67,2415.75 3038.24,2416.40 3035.13,2415.13
             3031.63,2413.69 3031.38,2411.18 3027.82,2409.09
             3027.82,2409.09 3021.00,2406.28 3021.00,2406.28
             3018.98,2405.29 3008.57,2398.64 3007.00,2397.00
             2992.59,2397.01 2978.49,2381.06 2967.00,2380.00
             2967.00,2380.00 2967.00,2378.00 2967.00,2378.00
             2961.12,2377.40 2960.93,2374.33 2956.68,2371.78
             2953.37,2369.79 2951.92,2371.19 2946.01,2368.44
             2940.29,2365.78 2940.29,2363.72 2935.99,2361.44
             2931.08,2358.83 2927.82,2360.01 2924.02,2358.55
             2919.75,2356.91 2919.06,2354.41 2915.79,2352.61
             2915.79,2352.61 2903.20,2348.46 2903.20,2348.46
             2903.20,2348.46 2897.79,2344.41 2897.79,2344.41
             2894.04,2342.10 2885.30,2338.79 2881.00,2339.00
             2876.34,2331.73 2867.36,2331.07 2860.03,2328.37
             2860.03,2328.37 2852.91,2324.87 2852.91,2324.87
             2849.37,2323.52 2848.32,2324.36 2844.00,2321.89
             2844.00,2321.89 2834.91,2315.55 2834.91,2315.55
             2834.91,2315.55 2826.00,2312.78 2826.00,2312.78
             2818.77,2309.79 2817.09,2305.95 2807.00,2307.00
             2805.05,2304.58 2804.36,2305.02 2802.20,2303.28
             2798.84,2300.58 2799.85,2299.04 2794.95,2296.75
             2794.95,2296.75 2785.09,2293.57 2785.09,2293.57
             2779.05,2290.56 2776.73,2287.84 2769.00,2288.00
             2769.00,2288.00 2768.00,2283.00 2768.00,2283.00
             2762.54,2282.95 2763.96,2280.24 2759.87,2278.59
             2759.87,2278.59 2752.00,2277.32 2752.00,2277.32
             2747.63,2276.26 2738.33,2270.77 2736.00,2267.00
             2736.00,2267.00 2729.00,2266.00 2729.00,2266.00
             2729.00,2266.00 2730.00,2264.00 2730.00,2264.00
             2719.63,2260.97 2721.47,2260.68 2713.00,2256.88
             2713.00,2256.88 2706.17,2254.61 2706.17,2254.61
             2706.17,2254.61 2699.96,2250.97 2699.96,2250.97
             2695.00,2248.52 2691.61,2248.82 2688.09,2246.30
             2685.12,2244.18 2680.37,2237.38 2674.99,2234.14
             2669.12,2230.61 2663.64,2231.59 2654.00,2227.08
             2646.43,2223.53 2646.89,2221.59 2642.91,2219.57
             2639.16,2217.67 2636.00,2218.50 2632.00,2216.55
             2632.00,2216.55 2626.00,2212.68 2626.00,2212.68
             2626.00,2212.68 2613.00,2205.49 2613.00,2205.49
             2613.00,2205.49 2603.00,2201.31 2603.00,2201.31
             2603.00,2201.31 2595.00,2197.00 2595.00,2197.00
             2595.00,2197.00 2585.00,2194.91 2585.00,2194.91
             2578.09,2192.75 2578.16,2191.73 2573.00,2189.28
             2566.74,2186.31 2564.27,2187.90 2559.00,2182.00
             2559.00,2182.00 2551.00,2180.46 2551.00,2180.46
             2551.00,2180.46 2532.00,2173.54 2532.00,2173.54
             2532.00,2173.54 2521.00,2168.00 2521.00,2168.00
             2513.42,2168.85 2502.22,2166.76 2497.00,2161.00
             2497.00,2161.00 2485.00,2159.00 2485.00,2159.00
             2485.00,2159.00 2487.00,2157.00 2487.00,2157.00
             2487.00,2157.00 2467.00,2149.62 2467.00,2149.62
             2467.00,2149.62 2457.04,2146.91 2457.04,2146.91
             2457.04,2146.91 2444.91,2140.27 2444.91,2140.27
             2441.07,2138.68 2439.04,2139.31 2433.00,2136.51
             2433.00,2136.51 2422.00,2130.68 2422.00,2130.68
             2415.86,2127.85 2405.86,2128.47 2401.00,2124.00
             2394.56,2122.48 2393.47,2117.49 2389.40,2113.54
             2389.40,2113.54 2373.00,2101.14 2373.00,2101.14
             2368.18,2098.25 2363.87,2097.11 2361.00,2092.00
             2361.00,2092.00 2348.00,2088.99 2348.00,2088.99
             2341.58,2088.69 2333.81,2091.22 2329.04,2088.99
             2324.19,2086.60 2316.14,2077.19 2309.00,2074.40
             2309.00,2074.40 2298.00,2071.66 2298.00,2071.66
             2291.01,2069.96 2277.66,2065.03 2272.73,2059.96
             2267.22,2054.28 2261.66,2042.50 2256.70,2035.17
             2251.02,2026.77 2245.27,2018.49 2237.75,2011.59
             2237.75,2011.59 2231.63,2006.55 2231.63,2006.55
             2231.63,2006.55 2225.77,2000.08 2225.77,2000.08
             2222.80,1997.52 2213.93,1994.37 2210.00,1994.00
             2210.00,1994.00 2208.69,1986.00 2208.69,1986.00
             2207.10,1976.88 2205.05,1966.13 2205.00,1957.00
             2205.00,1957.00 2204.04,1946.00 2204.04,1946.00
             2204.04,1946.00 2204.04,1931.00 2204.04,1931.00
             2204.04,1931.00 2205.21,1918.00 2205.21,1918.00
             2205.21,1918.00 2203.08,1897.00 2203.08,1897.00
             2203.08,1897.00 2205.04,1872.00 2205.04,1872.00
             2205.04,1872.00 2205.04,1861.00 2205.04,1861.00
             2205.04,1861.00 2206.00,1853.00 2206.00,1853.00
             2206.00,1853.00 2206.00,1830.00 2206.00,1830.00
             2206.39,1825.10 2207.85,1824.42 2207.98,1819.00
             2207.98,1819.00 2207.04,1808.00 2207.04,1808.00
             2207.04,1808.00 2207.55,1799.00 2207.55,1799.00
             2207.55,1799.00 2208.46,1774.00 2208.46,1774.00
             2208.46,1774.00 2208.46,1764.04 2208.46,1764.04
             2208.34,1761.59 2209.08,1760.77 2209.50,1758.72
             2210.67,1753.05 2211.90,1747.67 2211.83,1741.83
             2211.83,1741.83 2212.78,1722.00 2212.78,1722.00
             2212.78,1722.00 2212.78,1715.00 2212.78,1715.00
             2213.85,1703.40 2215.97,1705.16 2216.00,1689.00
             2216.02,1679.07 2219.98,1674.11 2220.00,1662.00
             2220.00,1662.00 2220.00,1634.00 2220.00,1634.00
             2220.00,1634.00 2220.00,1623.00 2220.00,1623.00
             2220.14,1615.63 2221.77,1617.36 2223.28,1611.96
             2223.28,1611.96 2224.54,1603.00 2224.54,1603.00
             2224.54,1603.00 2227.62,1596.00 2227.62,1596.00
             2227.62,1596.00 2230.50,1586.17 2230.50,1586.17
             2230.50,1586.17 2232.88,1580.91 2232.88,1580.91
             2232.88,1580.91 2239.53,1558.00 2239.53,1558.00
             2239.53,1558.00 2240.39,1548.00 2240.39,1548.00
             2240.39,1548.00 2243.08,1540.00 2243.08,1540.00
             2243.08,1540.00 2247.54,1521.00 2247.54,1521.00
             2247.54,1521.00 2249.66,1504.00 2249.66,1504.00
             2249.66,1504.00 2253.70,1490.99 2253.70,1490.99
             2254.34,1486.99 2254.47,1477.39 2256.85,1474.43
             2259.80,1470.76 2269.61,1469.13 2274.00,1467.58
             2277.96,1466.19 2279.71,1464.28 2285.00,1463.19
             2285.00,1463.19 2292.83,1462.41 2292.83,1462.41
             2292.83,1462.41 2299.04,1458.70 2299.04,1458.70
             2302.13,1457.15 2317.77,1452.83 2321.00,1453.00
             2321.00,1453.00 2325.00,1450.00 2325.00,1450.00
             2325.00,1450.00 2324.00,1452.00 2324.00,1452.00
             2324.00,1452.00 2331.00,1449.00 2331.00,1449.00
             2331.00,1449.00 2330.00,1447.00 2330.00,1447.00
             2333.54,1446.65 2340.91,1446.95 2342.00,1443.00
             2342.00,1443.00 2345.00,1444.00 2345.00,1444.00
             2345.23,1443.30 2344.84,1443.11 2345.83,1442.07
             2345.83,1442.07 2356.85,1435.68 2356.85,1435.68
             2356.85,1435.68 2374.09,1422.42 2374.09,1422.42
             2374.09,1422.42 2377.42,1417.41 2377.42,1417.41
             2377.42,1417.41 2383.15,1413.31 2383.15,1413.31
             2383.15,1413.31 2386.19,1409.27 2386.19,1409.27
             2397.88,1395.00 2392.48,1400.72 2399.31,1387.01
             2399.31,1387.01 2403.48,1379.83 2403.48,1379.83
             2403.48,1379.83 2406.12,1372.00 2406.12,1372.00
             2406.12,1372.00 2409.38,1365.00 2409.38,1365.00
             2411.43,1359.64 2416.55,1339.58 2417.00,1334.00
             2422.14,1332.69 2420.51,1327.36 2421.22,1322.91
             2423.60,1308.05 2424.43,1313.09 2427.22,1303.00
             2427.22,1303.00 2428.69,1292.09 2428.69,1292.09
             2428.69,1292.09 2431.18,1286.83 2431.18,1286.83
             2431.18,1286.83 2433.10,1279.00 2433.10,1279.00
             2433.10,1279.00 2442.68,1252.00 2442.68,1252.00
             2442.68,1252.00 2445.32,1238.00 2445.32,1238.00
             2445.32,1238.00 2447.40,1231.00 2447.40,1231.00
             2447.40,1231.00 2448.66,1224.00 2448.66,1224.00
             2448.66,1224.00 2451.76,1213.83 2451.76,1213.83
             2450.66,1219.92 2454.18,1189.51 2453.86,1196.00
             2453.86,1196.00 2453.18,1189.00 2453.18,1189.00
             2453.18,1189.00 2453.96,1172.00 2453.96,1172.00
             2453.96,1172.00 2453.04,1163.00 2453.04,1163.00
             2453.04,1163.00 2453.66,1154.00 2453.66,1154.00
             2453.66,1154.00 2452.55,1138.00 2452.55,1138.00
             2452.45,1133.87 2453.41,1131.72 2449.00,1130.00
             2449.00,1130.00 2447.00,1117.00 2447.00,1117.00
             2439.73,1112.87 2441.59,1110.60 2438.91,1106.86
             2438.91,1106.86 2430.56,1100.03 2430.56,1100.03
             2430.56,1100.03 2421.96,1097.99 2421.96,1097.99
             2418.63,1096.93 2415.69,1095.95 2412.17,1095.59
             2408.23,1095.20 2389.59,1096.55 2386.00,1097.81
             2380.11,1099.89 2375.19,1103.84 2369.83,1106.82
             2369.83,1106.82 2352.00,1115.00 2352.00,1115.00
             2352.00,1115.00 2350.41,1118.28 2350.41,1118.28
             2350.41,1118.28 2332.00,1122.37 2332.00,1122.37
             2332.00,1122.37 2327.00,1121.00 2327.00,1121.00
             2327.00,1121.00 2326.00,1124.00 2326.00,1124.00
             2326.57,1120.35 2327.28,1120.16 2328.59,1117.00
             2330.85,1111.58 2329.77,1108.05 2338.00,1104.00
             2338.68,1100.18 2340.49,1093.54 2342.30,1090.17
             2343.90,1087.20 2346.37,1085.31 2347.31,1082.00
             2347.31,1082.00 2348.06,1077.00 2348.06,1077.00
             2348.06,1077.00 2350.96,1068.00 2350.96,1068.00
             2350.96,1068.00 2352.52,1061.00 2352.52,1061.00
             2352.52,1061.00 2355.48,1052.00 2355.48,1052.00
             2355.48,1052.00 2356.30,1044.04 2356.30,1044.04
             2357.05,1040.79 2358.80,1039.86 2359.52,1036.91
             2359.52,1036.91 2360.08,1026.83 2360.08,1026.83
             2361.42,1019.09 2364.36,1011.83 2364.69,1004.00
             2364.69,1004.00 2366.00,980.00 2366.00,980.00
             2366.01,976.99 2364.95,970.38 2368.00,969.00
             2368.00,969.00 2368.00,934.00 2368.00,934.00
             2368.00,934.00 2368.00,914.00 2368.00,914.00
             2368.00,914.00 2366.00,898.00 2366.00,898.00
             2366.00,898.00 2366.00,888.00 2366.00,888.00
             2366.00,888.00 2364.01,876.91 2364.01,876.91
             2364.01,876.91 2364.01,868.00 2364.01,868.00
             2364.01,868.00 2360.72,856.42 2360.72,856.42
             2360.72,856.42 2356.58,827.00 2356.58,827.00
             2356.58,827.00 2352.04,812.00 2352.04,812.00
             2352.04,812.00 2352.04,802.00 2352.04,802.00
             2352.04,802.00 2348.24,783.00 2348.24,783.00
             2348.24,783.00 2343.49,763.00 2343.49,763.00
             2342.40,758.17 2340.94,757.01 2341.10,751.72
             2341.32,744.26 2338.62,745.11 2337.13,738.99
             2337.13,738.99 2333.29,718.00 2333.29,718.00
             2333.29,718.00 2332.32,707.00 2332.32,707.00
             2331.18,702.31 2329.66,701.47 2328.31,698.00
             2328.31,698.00 2322.16,677.00 2322.16,677.00
             2322.16,677.00 2319.37,664.00 2319.37,664.00
             2319.37,664.00 2308.59,633.91 2308.59,633.91
             2308.59,633.91 2304.88,627.00 2304.88,627.00
             2304.88,627.00 2302.33,620.00 2302.33,620.00
             2302.33,620.00 2297.09,611.00 2297.09,611.00
             2297.09,611.00 2292.00,599.18 2292.00,599.18
             2292.00,599.18 2286.60,593.68 2286.60,593.68
             2286.60,593.68 2278.32,582.63 2278.32,582.63
             2278.32,582.63 2270.96,576.53 2270.96,576.53
             2264.86,570.30 2259.79,562.31 2251.85,558.00
             2251.85,558.00 2251.85,553.09 2251.85,553.09
             2251.85,553.09 2239.96,533.00 2239.96,533.00
             2239.96,533.00 2234.06,523.26 2234.06,523.26
             2234.06,523.26 2225.95,513.91 2225.95,513.91
             2225.95,513.91 2216.79,498.00 2216.79,498.00
             2216.79,498.00 2213.32,491.09 2213.32,491.09
             2213.32,491.09 2200.00,472.00 2200.00,472.00
             2200.00,472.00 2197.00,466.00 2197.00,466.00
             2197.00,466.00 2193.00,467.00 2193.00,467.00
             2191.18,458.63 2190.20,459.81 2184.92,454.66
             2184.92,454.66 2178.91,448.68 2178.91,448.68
             2178.91,448.68 2173.28,444.77 2173.28,444.77
             2173.28,444.77 2163.14,435.58 2163.14,435.58
             2160.35,432.85 2160.39,431.42 2157.00,429.00
             2157.00,429.00 2158.00,431.00 2158.00,431.00
             2158.00,431.00 2152.00,423.00 2152.00,423.00
             2147.46,422.11 2144.64,418.60 2142.00,415.00
             2138.69,414.43 2138.53,413.94 2137.00,411.00
             2133.96,410.15 2131.73,407.50 2129.27,405.50
             2129.27,405.50 2116.00,395.74 2116.00,395.74
             2116.00,395.74 2103.00,386.09 2103.00,386.09
             2103.00,386.09 2088.00,377.32 2088.00,377.32
             2088.00,377.32 2069.00,365.17 2069.00,365.17
             2069.00,365.17 2060.00,361.29 2060.00,361.29
             2060.00,361.29 2052.72,357.03 2052.72,357.03
             2052.72,357.03 2045.00,353.67 2045.00,353.67
             2045.00,353.67 2035.00,347.52 2035.00,347.52
             2035.00,347.52 2024.00,343.17 2024.00,343.17
             2024.00,343.17 2008.72,333.12 2008.72,333.12
             2005.24,331.36 2004.40,332.56 1999.00,329.29
             1995.61,327.24 1988.91,322.08 1985.83,320.97
             1985.83,320.97 1974.00,318.54 1974.00,318.54
             1962.53,315.97 1965.42,315.02 1952.00,315.00
             1941.31,314.98 1929.52,310.84 1919.00,308.45
             1919.00,308.45 1904.00,305.33 1904.00,305.33
             1904.00,305.33 1883.01,296.25 1883.01,296.25
             1883.01,296.25 1876.72,292.39 1876.72,292.39
             1867.50,288.52 1853.05,286.81 1843.00,286.00
             1843.00,286.00 1845.00,284.00 1845.00,284.00
             1845.00,284.00 1840.00,283.00 1840.00,283.00 Z
           M 1831.00,286.00
           C 1831.00,286.00 1831.00,287.00 1831.00,287.00
             1831.00,287.00 1830.00,286.00 1830.00,286.00
             1830.00,286.00 1831.00,286.00 1831.00,286.00 Z
           M 1311.00,558.00
           C 1311.00,558.00 1311.00,559.00 1311.00,559.00
             1311.00,559.00 1310.00,558.00 1310.00,558.00
             1310.00,558.00 1311.00,558.00 1311.00,558.00 Z
           M 1223.00,1133.00
           C 1223.00,1133.00 1223.00,1134.00 1223.00,1134.00
             1223.00,1134.00 1224.00,1133.00 1224.00,1133.00
             1224.00,1133.00 1223.00,1133.00 1223.00,1133.00 Z
           M 1420.00,1777.00
           C 1420.00,1777.00 1420.00,1784.00 1420.00,1784.00
             1420.00,1784.00 1420.00,1777.00 1420.00,1777.00 Z
           M 1146.00,2236.00
           C 1146.00,2236.00 1146.00,2237.00 1146.00,2237.00
             1146.00,2237.00 1145.00,2236.00 1145.00,2236.00
             1145.00,2236.00 1146.00,2236.00 1146.00,2236.00 Z
           M 1113.00,2252.00
           C 1113.00,2252.00 1113.00,2253.00 1113.00,2253.00
             1113.00,2253.00 1112.00,2252.00 1112.00,2252.00
             1112.00,2252.00 1113.00,2252.00 1113.00,2252.00 Z
           M 3410.00,2706.00
           C 3410.00,2706.00 3410.00,2707.00 3410.00,2707.00
             3410.00,2707.00 3409.00,2706.00 3409.00,2706.00
             3409.00,2706.00 3410.00,2706.00 3410.00,2706.00 Z
           M 272.00,2984.00
           C 272.00,2984.00 272.00,2985.00 272.00,2985.00
             272.00,2985.00 273.00,2984.00 273.00,2984.00
             273.00,2984.00 272.00,2984.00 272.00,2984.00 Z
           M 206.00,3162.00
           C 206.00,3162.00 206.00,3163.00 206.00,3163.00
             206.00,3163.00 205.00,3162.00 205.00,3162.00
             205.00,3162.00 206.00,3162.00 206.00,3162.00 Z" />
</svg>
