<?xml version="1.0" encoding="UTF-8" standalone="no"?>
<!DOCTYPE svg PUBLIC "-//W3C//DTD SVG 20010904//EN"
              "http://www.w3.org/TR/2001/REC-SVG-20010904/DTD/svg10.dtd">

<svg xmlns="http://www.w3.org/2000/svg"
     width="13.2633in" height="12.73in"
     viewBox="0 0 3979 3819">
  <path id="face"
        fill="none" stroke="black" stroke-width="1"
        d="M 1713.00,385.00
           C 1700.53,385.11 1690.43,390.59 1679.00,394.25
             1679.00,394.25 1669.00,397.09 1669.00,397.09
             1669.00,397.09 1661.00,400.55 1661.00,400.55
             1645.19,406.93 1629.42,413.27 1615.00,422.55
             1615.00,422.55 1601.00,433.08 1601.00,433.08
             1601.00,433.08 1588.00,442.00 1588.00,442.00
             1588.00,442.00 1573.17,454.17 1573.17,454.17
             1573.17,454.17 1565.83,462.91 1565.83,462.91
             1561.85,467.04 1557.32,468.02 1557.00,474.00
             1548.64,477.99 1537.51,494.84 1532.42,503.00
             1532.42,503.00 1524.32,517.00 1524.32,517.00
             1524.32,517.00 1520.44,527.00 1520.44,527.00
             1520.44,527.00 1509.34,548.00 1509.34,548.00
             1509.34,548.00 1505.48,560.00 1505.48,560.00
             1505.48,560.00 1498.13,572.96 1498.13,572.96
             1498.13,572.96 1493.79,585.00 1493.79,585.00
             1493.79,585.00 1492.01,593.00 1492.01,593.00
             1492.01,593.00 1484.81,609.00 1484.81,609.00
             1484.81,609.00 1478.80,625.00 1478.80,625.00
             1478.80,625.00 1476.65,632.00 1476.65,632.00
             1476.65,632.00 1469.81,646.00 1469.81,646.00
             1469.81,646.00 1468.05,654.00 1468.05,654.00
             1468.05,654.00 1455.89,696.00 1455.89,696.00
             1455.89,696.00 1453.76,708.00 1453.76,708.00
             1453.76,708.00 1449.67,722.00 1449.67,722.00
             1449.67,722.00 1445.58,745.00 1445.58,745.00
             1445.58,745.00 1439.72,774.00 1439.72,774.00
             1439.72,774.00 1437.00,785.00 1437.00,785.00
             1435.00,794.83 1433.02,811.07 1432.96,821.00
             1432.96,821.00 1432.96,832.00 1432.96,832.00
             1432.96,832.00 1431.96,843.00 1431.96,843.00
             1431.96,843.00 1431.96,851.00 1431.96,851.00
             1431.96,851.00 1431.04,859.00 1431.04,859.00
             1431.04,859.00 1431.95,873.00 1431.95,873.00
             1431.95,873.00 1431.95,890.00 1431.95,890.00
             1431.95,890.00 1431.00,900.00 1431.00,900.00
             1430.91,908.31 1431.21,916.76 1432.29,925.00
             1432.29,925.00 1433.83,934.00 1433.83,934.00
             1433.83,934.00 1436.61,956.00 1436.61,956.00
             1436.61,956.00 1438.54,965.00 1438.54,965.00
             1438.54,965.00 1439.90,974.00 1439.90,974.00
             1440.54,976.64 1442.78,981.96 1442.72,984.00
             1442.59,989.10 1435.75,994.48 1434.65,999.00
             1433.83,1002.40 1436.10,1006.48 1436.80,1009.83
             1437.45,1012.88 1436.70,1016.02 1435.98,1019.00
             1435.52,1020.93 1435.03,1023.01 1433.49,1024.40
             1431.54,1026.17 1429.16,1025.75 1427.26,1026.59
             1424.95,1027.61 1424.42,1029.37 1421.87,1030.41
             1421.87,1030.41 1412.00,1032.24 1412.00,1032.24
             1403.37,1034.34 1395.62,1038.94 1393.25,1048.00
             1392.09,1052.43 1392.01,1055.50 1392.00,1060.00
             1392.00,1060.00 1394.83,1091.00 1394.83,1091.00
             1394.83,1091.00 1396.09,1115.00 1396.09,1115.00
             1396.09,1115.00 1397.00,1125.00 1397.00,1125.00
             1397.00,1125.00 1397.00,1145.00 1397.00,1145.00
             1397.00,1145.00 1402.29,1182.00 1402.29,1182.00
             1402.29,1182.00 1406.82,1202.00 1406.82,1202.00
             1406.82,1202.00 1406.32,1213.00 1406.32,1213.00
             1406.32,1213.00 1407.00,1238.00 1407.00,1238.00
             1407.00,1238.00 1408.23,1251.00 1408.23,1251.00
             1408.05,1255.25 1407.74,1262.10 1408.23,1266.00
             1408.23,1266.00 1411.26,1275.00 1411.26,1275.00
             1411.26,1275.00 1415.81,1295.00 1415.81,1295.00
             1415.81,1295.00 1415.00,1307.00 1415.00,1307.00
             1414.93,1313.36 1415.50,1326.51 1414.33,1332.00
             1414.33,1332.00 1411.38,1344.00 1411.38,1344.00
             1409.35,1350.75 1408.10,1349.72 1408.00,1358.00
             1408.00,1358.00 1408.78,1390.00 1408.78,1390.00
             1408.98,1400.68 1405.54,1418.52 1408.78,1427.99
             1410.36,1433.66 1415.07,1434.66 1417.69,1440.00
             1419.54,1443.80 1418.40,1446.86 1420.02,1449.72
             1422.60,1454.25 1436.07,1464.78 1441.00,1467.00
             1439.44,1474.75 1436.21,1481.90 1436.61,1490.00
             1436.87,1495.36 1440.56,1499.91 1440.53,1505.00
             1440.49,1511.29 1435.90,1522.56 1436.75,1529.00
             1436.75,1529.00 1444.37,1562.00 1444.37,1562.00
             1445.09,1564.88 1447.54,1574.59 1447.29,1577.00
             1446.93,1580.39 1443.25,1585.08 1441.34,1588.00
             1441.34,1588.00 1427.81,1609.00 1427.81,1609.00
             1425.35,1612.94 1422.23,1616.19 1422.48,1621.00
             1422.48,1621.00 1427.25,1657.99 1427.25,1657.99
             1427.25,1657.99 1431.55,1668.62 1431.55,1668.62
             1434.33,1673.90 1448.89,1676.37 1449.17,1682.10
             1449.17,1682.10 1441.62,1712.00 1441.62,1712.00
             1441.80,1719.89 1450.54,1730.43 1447.37,1745.00
             1445.24,1754.76 1436.02,1756.22 1432.32,1764.00
             1429.30,1770.34 1436.42,1786.51 1439.00,1793.00
             1439.00,1793.00 1452.00,1773.00 1452.00,1773.00
             1452.00,1773.00 1454.00,1773.00 1454.00,1773.00
             1454.00,1773.00 1464.56,1810.00 1464.56,1810.00
             1464.56,1810.00 1466.09,1832.00 1466.09,1832.00
             1466.09,1832.00 1466.98,1845.00 1466.98,1845.00
             1466.66,1856.34 1457.56,1861.46 1459.52,1871.00
             1461.55,1880.89 1468.85,1882.54 1477.00,1886.00
             1477.00,1886.00 1480.00,1867.00 1480.00,1867.00
             1489.35,1870.24 1495.93,1870.20 1496.09,1881.00
             1496.02,1883.61 1495.43,1892.16 1496.09,1893.91
             1497.12,1896.06 1502.98,1901.01 1505.00,1903.00
             1509.71,1907.66 1524.07,1921.60 1527.21,1926.00
             1531.52,1932.01 1533.97,1939.40 1537.25,1946.00
             1537.25,1946.00 1559.74,1991.00 1559.74,1991.00
             1562.94,1997.61 1568.18,2010.34 1572.10,2015.98
             1578.84,2025.67 1584.74,2017.30 1593.00,2017.88
             1596.21,2018.10 1599.38,2020.59 1602.00,2022.33
             1608.20,2026.45 1617.48,2029.56 1616.83,2038.00
             1616.59,2041.13 1615.09,2052.59 1615.77,2054.96
             1616.51,2057.56 1619.07,2059.42 1621.00,2061.15
             1624.27,2064.09 1635.61,2074.18 1639.00,2075.52
             1644.09,2077.53 1647.82,2072.91 1651.30,2076.41
             1654.18,2079.30 1654.98,2088.48 1660.13,2093.83
             1660.13,2093.83 1712.00,2138.27 1712.00,2138.27
             1712.00,2138.27 1748.00,2169.03 1748.00,2169.03
             1748.00,2169.03 1791.00,2185.68 1791.00,2185.68
             1791.00,2185.68 1842.00,2204.47 1842.00,2204.47
             1854.57,2207.37 1881.51,2208.02 1895.00,2208.00
             1895.00,2208.00 1907.00,2207.04 1907.00,2207.04
             1907.00,2207.04 1921.00,2207.04 1921.00,2207.04
             1921.00,2207.04 1938.00,2206.00 1938.00,2206.00
             1938.00,2206.00 1963.00,2206.00 1963.00,2206.00
             1963.00,2206.00 1976.00,2205.04 1976.00,2205.04
             2006.20,2203.72 2036.03,2199.23 2066.00,2195.28
             2066.00,2195.28 2113.00,2189.28 2113.00,2189.28
             2113.00,2189.28 2132.00,2187.32 2132.00,2187.32
             2132.00,2187.32 2177.00,2171.69 2177.00,2171.69
             2177.00,2171.69 2221.00,2155.63 2221.00,2155.63
             2221.00,2155.63 2267.00,2123.37 2267.00,2123.37
             2273.28,2118.68 2289.16,2107.93 2293.56,2102.96
             2293.56,2102.96 2308.80,2084.00 2308.80,2084.00
             2308.80,2084.00 2337.42,2048.00 2337.42,2048.00
             2337.42,2048.00 2374.96,2000.00 2374.96,2000.00
             2374.96,2000.00 2410.67,1946.00 2410.67,1946.00
             2410.67,1946.00 2440.71,1904.00 2440.71,1904.00
             2440.71,1904.00 2469.30,1866.13 2469.30,1866.13
             2474.36,1860.99 2481.49,1861.79 2484.22,1857.61
             2486.06,1854.79 2483.05,1848.15 2482.14,1845.00
             2482.14,1845.00 2473.72,1819.00 2473.72,1819.00
             2473.04,1816.75 2470.81,1809.95 2471.11,1808.00
             2471.68,1804.40 2478.25,1799.66 2481.00,1796.99
             2483.48,1794.57 2486.20,1791.63 2489.00,1789.64
             2489.00,1789.64 2526.00,1773.00 2526.00,1773.00
             2526.00,1773.00 2520.34,1765.00 2520.34,1765.00
             2520.34,1765.00 2516.30,1757.46 2516.30,1757.46
             2516.30,1757.46 2507.90,1748.83 2507.90,1748.83
             2507.90,1748.83 2509.79,1738.00 2509.79,1738.00
             2509.79,1738.00 2516.54,1709.00 2516.54,1709.00
             2516.54,1709.00 2516.00,1680.00 2516.00,1680.00
             2516.00,1680.00 2515.23,1667.00 2515.23,1667.00
             2515.23,1667.00 2522.59,1655.00 2522.59,1655.00
             2522.59,1655.00 2532.00,1631.00 2532.00,1631.00
             2532.00,1631.00 2536.00,1633.00 2536.00,1633.00
             2536.00,1633.00 2537.00,1632.00 2537.00,1632.00
             2535.16,1625.34 2535.75,1625.73 2539.00,1620.00
             2535.93,1619.17 2532.66,1618.18 2530.04,1616.30
             2521.09,1609.88 2525.14,1597.07 2519.69,1590.01
             2515.45,1584.54 2502.23,1575.94 2498.00,1567.00
             2504.71,1565.08 2510.28,1560.87 2516.00,1557.00
             2518.29,1555.45 2521.29,1553.81 2521.96,1550.91
             2522.38,1549.10 2521.51,1545.99 2521.37,1544.00
             2521.37,1544.00 2521.37,1538.00 2521.37,1538.00
             2520.79,1534.24 2512.94,1519.36 2510.75,1515.00
             2509.33,1512.15 2505.30,1504.67 2504.80,1502.00
             2504.03,1497.77 2508.89,1479.48 2510.00,1474.00
             2512.54,1461.42 2508.90,1461.60 2508.20,1454.00
             2507.68,1448.38 2510.58,1445.36 2510.36,1442.00
             2510.16,1438.90 2505.82,1433.88 2504.00,1431.00
             2504.00,1431.00 2515.00,1422.00 2515.00,1422.00
             2515.00,1422.00 2514.18,1407.00 2514.18,1407.00
             2514.18,1407.00 2515.91,1386.00 2515.91,1386.00
             2515.91,1386.00 2512.91,1365.17 2512.91,1365.17
             2512.91,1365.17 2514.00,1354.00 2514.00,1354.00
             2514.00,1354.00 2519.00,1353.00 2519.00,1353.00
             2509.21,1338.84 2514.76,1346.52 2510.14,1333.00
             2508.28,1327.55 2505.59,1320.85 2506.31,1315.00
             2507.28,1307.20 2512.12,1303.33 2512.39,1299.00
             2512.59,1295.69 2510.35,1293.94 2510.43,1290.00
             2510.43,1290.00 2516.99,1255.00 2516.99,1255.00
             2516.99,1255.00 2516.00,1240.00 2516.00,1240.00
             2515.88,1229.27 2515.63,1218.63 2517.27,1208.00
             2517.27,1208.00 2519.70,1196.00 2519.70,1196.00
             2519.70,1196.00 2523.92,1172.00 2523.92,1172.00
             2527.33,1159.54 2535.85,1138.57 2536.00,1126.00
             2536.00,1126.00 2536.00,1055.00 2536.00,1055.00
             2535.90,1046.75 2533.47,1030.16 2526.81,1024.80
             2522.87,1021.62 2515.02,1019.94 2510.00,1019.48
             2506.37,1018.82 2501.56,1018.86 2498.00,1019.48
             2492.32,1020.98 2488.28,1025.04 2484.56,1017.98
             2481.30,1011.81 2474.30,991.81 2474.46,985.00
             2474.58,980.00 2479.97,964.26 2480.00,948.00
             2480.00,948.00 2480.00,910.00 2480.00,910.00
             2480.00,910.00 2481.00,893.00 2481.00,893.00
             2481.00,893.00 2481.00,866.00 2481.00,866.00
             2481.00,866.00 2480.01,852.00 2480.01,852.00
             2480.01,852.00 2480.82,842.00 2480.82,842.00
             2480.82,842.00 2480.00,832.00 2480.00,832.00
             2480.00,832.00 2479.00,803.00 2479.00,803.00
             2479.00,803.00 2473.20,763.00 2473.20,763.00
             2473.20,763.00 2470.16,749.00 2470.16,749.00
             2470.16,749.00 2467.68,724.00 2467.68,724.00
             2467.68,724.00 2464.09,711.00 2464.09,711.00
             2464.09,711.00 2458.26,678.00 2458.26,678.00
             2458.26,678.00 2444.19,633.00 2444.19,633.00
             2444.19,633.00 2437.35,618.00 2437.35,618.00
             2435.08,612.37 2437.11,612.16 2433.74,605.00
             2427.35,591.43 2414.40,570.99 2406.09,558.00
             2401.80,551.29 2401.54,548.63 2395.49,541.00
             2395.49,541.00 2388.44,533.00 2388.44,533.00
             2388.44,533.00 2379.14,521.32 2379.14,521.32
             2375.74,517.46 2374.43,517.90 2370.21,512.00
             2370.21,512.00 2360.51,497.00 2360.51,497.00
             2360.51,497.00 2355.13,486.00 2355.13,486.00
             2355.13,486.00 2347.34,474.00 2347.34,474.00
             2347.34,474.00 2342.45,465.00 2342.45,465.00
             2337.72,457.68 2315.89,435.07 2309.00,429.32
             2309.00,429.32 2276.00,405.71 2276.00,405.71
             2267.08,399.18 2262.56,394.07 2252.00,388.17
             2252.00,388.17 2239.00,382.40 2239.00,382.40
             2239.00,382.40 2205.00,365.26 2205.00,365.26
             2205.00,365.26 2194.00,360.51 2194.00,360.51
             2194.00,360.51 2165.00,345.69 2165.00,345.69
             2165.00,345.69 2114.00,335.04 2114.00,335.04
             2114.00,335.04 2108.00,332.55 2108.00,332.55
             2108.00,332.55 2085.00,324.37 2085.00,324.37
             2085.00,324.37 2052.00,308.34 2052.00,308.34
             2039.86,304.45 2030.39,304.17 2018.00,302.84
             2018.00,302.84 1988.00,299.00 1988.00,299.00
             1988.00,299.00 1975.00,299.00 1975.00,299.00
             1975.00,299.00 1965.00,298.37 1965.00,298.37
             1965.00,298.37 1948.00,299.98 1948.00,299.98
             1948.00,299.98 1939.00,299.00 1939.00,299.00
             1939.00,299.00 1928.00,299.00 1928.00,299.00
             1928.00,299.00 1918.00,298.04 1918.00,298.04
             1903.05,298.52 1880.01,304.38 1866.00,309.71
             1857.55,312.92 1843.70,322.98 1837.01,329.17
             1833.22,332.68 1830.30,337.31 1826.00,340.01
             1820.51,343.45 1811.42,344.27 1805.00,345.42
             1791.76,347.81 1795.25,347.71 1784.00,351.66
             1771.25,356.12 1746.92,364.08 1736.00,370.34
             1736.00,370.34 1727.00,376.56 1727.00,376.56
             1719.00,382.13 1715.40,381.32 1713.77,382.96
             1712.76,383.97 1713.19,384.29 1713.00,385.00 Z" />
  <path id="profile"
        fill="none" stroke="black" stroke-width="1"
        d="M 1439.00,1792.00
           C 1443.08,1787.62 1449.20,1778.65 1451.00,1773.00
             1456.72,1776.14 1457.32,1784.16 1459.00,1790.00
             1465.29,1811.81 1464.58,1809.86 1466.09,1832.00
             1466.09,1832.00 1466.99,1841.00 1466.99,1841.00
             1467.05,1844.01 1467.04,1847.08 1466.21,1850.00
             1463.98,1857.87 1452.19,1871.78 1467.04,1881.44
             1469.60,1883.10 1471.09,1883.45 1474.00,1884.00
             1474.00,1884.00 1465.00,1887.17 1465.00,1887.17
             1459.94,1889.14 1444.34,1896.73 1440.00,1899.55
             1433.03,1904.06 1430.39,1908.38 1425.00,1912.61
             1425.00,1912.61 1405.00,1924.68 1405.00,1924.68
             1405.00,1924.68 1392.00,1930.12 1392.00,1930.12
             1392.00,1930.12 1358.00,1946.14 1358.00,1946.14
             1358.00,1946.14 1342.00,1952.31 1342.00,1952.31
             1342.00,1952.31 1328.00,1959.14 1328.00,1959.14
             1328.00,1959.14 1307.00,1967.43 1307.00,1967.43
             1307.00,1967.43 1287.00,1977.26 1287.00,1977.26
             1287.00,1977.26 1273.00,1985.63 1273.00,1985.63
             1273.00,1985.63 1260.00,1991.27 1260.00,1991.27
             1260.00,1991.27 1249.00,1997.69 1249.00,1997.69
             1249.00,1997.69 1229.00,2008.45 1229.00,2008.45
             1229.00,2008.45 1203.00,2026.65 1203.00,2026.65
             1203.00,2026.65 1191.00,2031.46 1191.00,2031.46
             1191.00,2031.46 1172.00,2041.48 1172.00,2041.48
             1172.00,2041.48 1151.00,2056.68 1151.00,2056.68
             1151.00,2056.68 1134.00,2064.31 1134.00,2064.31
             1134.00,2064.31 1104.00,2078.55 1104.00,2078.55
             1104.00,2078.55 1077.00,2088.46 1077.00,2088.46
             1077.00,2088.46 1061.00,2096.13 1061.00,2096.13
             1061.00,2096.13 1042.00,2102.40 1042.00,2102.40
             1042.00,2102.40 1027.00,2111.02 1027.00,2111.02
             1027.00,2111.02 1015.00,2115.86 1015.00,2115.86
             1015.00,2115.86 1003.00,2122.19 1003.00,2122.19
             1003.00,2122.19 992.00,2127.31 992.00,2127.31
             992.00,2127.31 981.00,2134.13 981.00,2134.13
             981.00,2134.13 969.00,2140.45 969.00,2140.45
             969.00,2140.45 957.00,2148.10 957.00,2148.10
             957.00,2148.10 937.00,2157.51 937.00,2157.51
             937.00,2157.51 906.00,2176.40 906.00,2176.40
             906.00,2176.40 888.00,2186.45 888.00,2186.45
             888.00,2186.45 860.00,2203.99 860.00,2203.99
             860.00,2203.99 838.00,2216.55 838.00,2216.55
             838.00,2216.55 817.00,2230.91 817.00,2230.91
             817.00,2230.91 800.00,2238.87 800.00,2238.87
             800.00,2238.87 789.00,2245.91 789.00,2245.91
             789.00,2245.91 778.00,2251.46 778.00,2251.46
             778.00,2251.46 745.00,2272.55 745.00,2272.55
             745.00,2272.55 731.00,2279.56 731.00,2279.56
             731.00,2279.56 713.00,2293.76 713.00,2293.76
             713.00,2293.76 699.00,2303.18 699.00,2303.18
             699.00,2303.18 687.00,2315.67 687.00,2315.67
             687.00,2315.67 675.00,2323.30 675.00,2323.30
             675.00,2323.30 662.00,2333.52 662.00,2333.52
             662.00,2333.52 637.00,2351.63 637.00,2351.63
             624.43,2361.01 620.19,2362.82 606.00,2368.60
             600.62,2370.80 588.32,2375.28 584.79,2379.33
             581.06,2383.61 576.73,2395.27 576.59,2401.00
             576.59,2401.00 576.59,2410.00 576.59,2410.00
             576.36,2414.60 571.93,2425.95 569.53,2430.00
             560.75,2444.80 551.29,2450.20 544.67,2460.00
             544.67,2460.00 532.33,2479.00 532.33,2479.00
             532.33,2479.00 521.45,2495.00 521.45,2495.00
             521.45,2495.00 511.15,2514.00 511.15,2514.00
             511.15,2514.00 489.14,2552.00 489.14,2552.00
             489.14,2552.00 479.92,2566.00 479.92,2566.00
             479.92,2566.00 475.68,2577.00 475.68,2577.00
             475.68,2577.00 462.32,2600.00 462.32,2600.00
             462.32,2600.00 458.10,2609.00 458.10,2609.00
             458.10,2609.00 452.89,2618.00 452.89,2618.00
             452.89,2618.00 447.82,2630.00 447.82,2630.00
             447.82,2630.00 437.49,2647.00 437.49,2647.00
             437.49,2647.00 426.36,2674.00 426.36,2674.00
             426.36,2674.00 412.87,2700.00 412.87,2700.00
             412.87,2700.00 407.95,2714.00 407.95,2714.00
             407.95,2714.00 399.87,2733.00 399.87,2733.00
             399.87,2733.00 395.37,2741.00 395.37,2741.00
             395.37,2741.00 388.55,2755.00 388.55,2755.00
             388.55,2755.00 380.31,2768.00 380.31,2768.00
             380.31,2768.00 372.22,2785.00 372.22,2785.00
             372.22,2785.00 364.90,2798.00 364.90,2798.00
             364.90,2798.00 359.68,2811.00 359.68,2811.00
             359.68,2811.00 351.31,2827.00 351.31,2827.00
             351.31,2827.00 342.14,2850.00 342.14,2850.00
             342.14,2850.00 328.86,2879.00 328.86,2879.00
             328.86,2879.00 321.14,2898.00 321.14,2898.00
             321.14,2898.00 316.09,2908.00 316.09,2908.00
             316.09,2908.00 302.69,2942.00 302.69,2942.00
             302.69,2942.00 295.86,2956.00 295.86,2956.00
             295.86,2956.00 286.57,2979.00 286.57,2979.00
             286.57,2979.00 277.31,2999.00 277.31,2999.00
             277.31,2999.00 271.69,3013.00 271.69,3013.00
             271.69,3013.00 245.93,3071.00 245.93,3071.00
             245.93,3071.00 243.32,3080.00 243.32,3080.00
             243.32,3080.00 238.71,3089.00 238.71,3089.00
             238.71,3089.00 232.99,3105.00 232.99,3105.00
             232.99,3105.00 223.69,3127.00 223.69,3127.00
             223.69,3127.00 219.35,3136.00 219.35,3136.00
             219.35,3136.00 214.80,3150.00 214.80,3150.00
             214.80,3150.00 189.06,3214.00 189.06,3214.00
             189.06,3214.00 177.30,3248.00 177.30,3248.00
             177.30,3248.00 173.36,3258.00 173.36,3258.00
             173.36,3258.00 165.31,3283.00 165.31,3283.00
             165.31,3283.00 158.34,3301.00 158.34,3301.00
             158.34,3301.00 148.95,3330.00 148.95,3330.00
             148.95,3330.00 141.57,3348.00 141.57,3348.00
             141.57,3348.00 134.78,3376.00 134.78,3376.00
             134.78,3376.00 128.54,3391.00 128.54,3391.00
             128.54,3391.00 122.28,3412.00 122.28,3412.00
             122.28,3412.00 118.16,3424.00 118.16,3424.00
             118.16,3424.00 112.96,3449.00 112.96,3449.00
             112.96,3449.00 100.15,3488.00 100.15,3488.00
             98.59,3493.95 96.75,3503.89 96.17,3510.00
             95.50,3516.95 96.85,3519.32 94.56,3527.00
             91.54,3537.14 84.55,3544.88 79.78,3554.00
             79.78,3554.00 70.36,3573.83 70.36,3573.83
             70.36,3573.83 60.00,3584.04 60.00,3584.04
             60.00,3584.04 38.55,3610.17 38.55,3610.17
             36.61,3613.69 31.57,3630.88 31.18,3635.00
             30.52,3641.90 34.19,3655.34 36.59,3662.00
             42.72,3679.02 47.86,3690.25 56.85,3706.00
             60.51,3712.42 64.62,3718.75 66.35,3726.00
             68.40,3734.63 68.09,3744.43 72.97,3752.00
             76.99,3758.24 85.01,3763.32 91.00,3767.73
             99.52,3774.01 108.80,3781.83 118.00,3786.96
             118.00,3786.96 136.00,3794.90 136.00,3794.90
             144.19,3799.51 145.90,3806.33 152.04,3811.79
             158.67,3817.69 167.47,3818.99 176.00,3819.00
             176.00,3819.00 1359.00,3819.00 1359.00,3819.00
             1359.00,3819.00 3725.00,3819.00 3725.00,3819.00
             3725.00,3819.00 3726.17,3793.00 3726.17,3793.00
             3726.93,3785.15 3728.10,3782.80 3728.00,3774.00
             3728.00,3774.00 3727.00,3759.00 3727.00,3759.00
             3727.00,3759.00 3727.00,3728.00 3727.00,3728.00
             3727.00,3728.00 3726.00,3714.00 3726.00,3714.00
             3725.98,3709.82 3725.52,3703.72 3727.45,3700.04
             3731.88,3691.62 3752.10,3690.38 3761.00,3689.13
             3811.99,3681.97 3849.61,3658.81 3894.00,3635.22
             3905.14,3629.30 3928.15,3612.64 3937.00,3603.99
             3941.60,3599.49 3948.44,3593.16 3947.38,3586.00
             3946.04,3576.96 3938.46,3571.46 3933.97,3564.91
             3930.48,3559.82 3929.80,3553.29 3926.79,3548.00
             3924.73,3544.37 3920.52,3540.24 3920.55,3536.00
             3920.58,3531.01 3929.11,3518.25 3931.73,3513.00
             3939.29,3497.89 3946.45,3472.54 3940.90,3456.00
             3940.90,3456.00 3928.35,3430.00 3928.35,3430.00
             3928.35,3430.00 3920.78,3421.00 3920.78,3421.00
             3920.78,3421.00 3913.80,3410.00 3913.80,3410.00
             3913.80,3410.00 3897.03,3387.00 3897.03,3387.00
             3897.03,3387.00 3889.39,3375.00 3889.39,3375.00
             3883.00,3366.35 3875.40,3358.56 3870.18,3349.00
             3867.32,3343.76 3866.83,3338.70 3865.58,3333.00
             3865.58,3333.00 3859.39,3302.00 3859.39,3302.00
             3859.39,3302.00 3852.74,3279.00 3852.74,3279.00
             3852.74,3279.00 3846.00,3248.00 3846.00,3248.00
             3846.00,3248.00 3843.00,3249.00 3843.00,3249.00
             3841.60,3231.75 3836.03,3220.09 3831.02,3204.00
             3831.02,3204.00 3819.02,3167.00 3819.02,3167.00
             3819.02,3167.00 3810.30,3139.00 3810.30,3139.00
             3804.10,3121.56 3798.49,3112.78 3796.00,3094.00
             3796.00,3094.00 3793.00,3095.00 3793.00,3095.00
             3791.86,3080.93 3789.36,3080.73 3784.34,3069.00
             3784.34,3069.00 3775.75,3045.00 3775.75,3045.00
             3775.75,3045.00 3772.30,3033.00 3772.30,3033.00
             3772.30,3033.00 3766.45,3019.00 3766.45,3019.00
             3766.45,3019.00 3761.80,3006.00 3761.80,3006.00
             3761.80,3006.00 3754.44,2988.00 3754.44,2988.00
             3754.44,2988.00 3751.25,2977.00 3751.25,2977.00
             3751.25,2977.00 3747.52,2967.00 3747.52,2967.00
             3747.52,2967.00 3744.14,2956.00 3744.14,2956.00
             3744.14,2956.00 3738.61,2943.00 3738.61,2943.00
             3738.61,2943.00 3730.55,2921.00 3730.55,2921.00
             3730.55,2921.00 3721.87,2902.00 3721.87,2902.00
             3721.87,2902.00 3705.33,2862.00 3705.33,2862.00
             3705.33,2862.00 3698.87,2849.00 3698.87,2849.00
             3698.87,2849.00 3688.69,2824.00 3688.69,2824.00
             3688.69,2824.00 3678.31,2803.00 3678.31,2803.00
             3678.31,2803.00 3668.51,2779.00 3668.51,2779.00
             3668.51,2779.00 3659.37,2763.00 3659.37,2763.00
             3659.37,2763.00 3651.69,2745.00 3651.69,2745.00
             3651.69,2745.00 3636.81,2716.00 3636.81,2716.00
             3636.81,2716.00 3630.51,2701.00 3630.51,2701.00
             3630.51,2701.00 3624.40,2690.00 3624.40,2690.00
             3624.40,2690.00 3620.68,2681.00 3620.68,2681.00
             3620.68,2681.00 3613.43,2669.00 3613.43,2669.00
             3613.43,2669.00 3607.13,2656.00 3607.13,2656.00
             3607.13,2656.00 3594.87,2636.00 3594.87,2636.00
             3594.87,2636.00 3582.69,2612.00 3582.69,2612.00
             3582.69,2612.00 3566.87,2587.00 3566.87,2587.00
             3566.87,2587.00 3557.61,2570.00 3557.61,2570.00
             3557.61,2570.00 3553.93,2562.00 3553.93,2562.00
             3553.93,2562.00 3547.47,2553.00 3547.47,2553.00
             3547.47,2553.00 3529.91,2524.00 3529.91,2524.00
             3529.91,2524.00 3521.44,2512.00 3521.44,2512.00
             3521.44,2512.00 3507.31,2489.00 3507.31,2489.00
             3507.31,2489.00 3501.79,2477.00 3501.79,2477.00
             3501.79,2477.00 3483.33,2450.00 3483.33,2450.00
             3483.33,2450.00 3468.45,2427.00 3468.45,2427.00
             3468.45,2427.00 3461.56,2415.00 3461.56,2415.00
             3461.56,2415.00 3448.52,2397.00 3448.52,2397.00
             3448.52,2397.00 3433.58,2374.00 3433.58,2374.00
             3433.58,2374.00 3418.29,2353.00 3418.29,2353.00
             3418.29,2353.00 3409.49,2340.00 3409.49,2340.00
             3409.49,2340.00 3393.60,2321.00 3393.60,2321.00
             3389.67,2315.12 3390.04,2312.00 3387.91,2306.00
             3387.91,2306.00 3374.36,2276.00 3374.36,2276.00
             3372.44,2273.30 3368.57,2269.45 3366.00,2267.33
             3355.69,2258.80 3351.05,2260.46 3343.00,2257.61
             3339.98,2256.54 3336.78,2254.76 3334.00,2253.14
             3334.00,2253.14 3321.00,2245.27 3321.00,2245.27
             3321.00,2245.27 3311.09,2241.07 3311.09,2241.07
             3311.09,2241.07 3303.96,2235.41 3303.96,2235.41
             3303.96,2235.41 3286.00,2226.14 3286.00,2226.14
             3286.00,2226.14 3272.00,2216.41 3272.00,2216.41
             3272.00,2216.41 3263.00,2212.68 3263.00,2212.68
             3263.00,2212.68 3247.00,2204.25 3247.00,2204.25
             3247.00,2204.25 3232.00,2197.20 3232.00,2197.20
             3232.00,2197.20 3220.00,2188.80 3220.00,2188.80
             3220.00,2188.80 3202.00,2180.63 3202.00,2180.63
             3202.00,2180.63 3185.00,2171.26 3185.00,2171.26
             3185.00,2171.26 3164.00,2161.64 3164.00,2161.64
             3159.13,2158.81 3158.50,2156.70 3152.00,2153.26
             3152.00,2153.26 3129.00,2142.49 3129.00,2142.49
             3129.00,2142.49 3121.00,2137.45 3121.00,2137.45
             3121.00,2137.45 3111.00,2131.91 3111.00,2131.91
             3111.00,2131.91 3103.00,2126.53 3103.00,2126.53
             3103.00,2126.53 3091.00,2121.68 3091.00,2121.68
             3091.00,2121.68 3067.00,2108.37 3067.00,2108.37
             3067.00,2108.37 3053.00,2102.22 3053.00,2102.22
             3053.00,2102.22 3037.00,2093.32 3037.00,2093.32
             3037.00,2093.32 3026.00,2088.99 3026.00,2088.99
             3026.00,2088.99 3007.00,2080.56 3007.00,2080.56
             3007.00,2080.56 2992.00,2072.18 2992.00,2072.18
             2992.00,2072.18 2968.00,2062.91 2968.00,2062.91
             2968.00,2062.91 2957.00,2056.89 2957.00,2056.89
             2957.00,2056.89 2935.00,2047.70 2935.00,2047.70
             2935.00,2047.70 2905.00,2032.12 2905.00,2032.12
             2905.00,2032.12 2882.00,2023.33 2882.00,2023.33
             2882.00,2023.33 2865.00,2013.32 2865.00,2013.32
             2865.00,2013.32 2850.00,2006.74 2850.00,2006.74
             2850.00,2006.74 2827.00,1994.12 2827.00,1994.12
             2827.00,1994.12 2812.00,1987.68 2812.00,1987.68
             2812.00,1987.68 2790.00,1976.26 2790.00,1976.26
             2790.00,1976.26 2770.00,1966.69 2770.00,1966.69
             2770.00,1966.69 2753.00,1955.32 2753.00,1955.32
             2753.00,1955.32 2742.00,1950.86 2742.00,1950.86
             2742.00,1950.86 2722.00,1941.13 2722.00,1941.13
             2722.00,1941.13 2702.00,1928.32 2702.00,1928.32
             2702.00,1928.32 2690.00,1923.57 2690.00,1923.57
             2690.00,1923.57 2674.00,1916.46 2674.00,1916.46
             2674.00,1916.46 2666.00,1913.80 2666.00,1913.80
             2666.00,1913.80 2657.00,1909.55 2657.00,1909.55
             2657.00,1909.55 2647.00,1906.65 2647.00,1906.65
             2647.00,1906.65 2624.00,1898.66 2624.00,1898.66
             2624.00,1898.66 2606.00,1891.67 2606.00,1891.67
             2606.00,1891.67 2594.00,1888.14 2594.00,1888.14
             2594.00,1888.14 2572.00,1880.60 2572.00,1880.60
             2572.00,1880.60 2563.00,1879.57 2563.00,1879.57
             2563.00,1879.57 2541.00,1875.33 2541.00,1875.33
             2541.00,1875.33 2526.00,1869.51 2526.00,1869.51
             2526.00,1869.51 2517.00,1867.57 2517.00,1867.57
             2517.00,1867.57 2497.00,1860.19 2497.00,1860.19
             2493.99,1859.02 2487.71,1856.92 2485.72,1854.59
             2483.91,1852.45 2479.87,1838.51 2478.86,1835.00
             2477.44,1830.07 2470.96,1812.69 2471.49,1809.00
             2472.05,1805.05 2478.15,1799.82 2481.00,1797.00
             2493.27,1784.88 2510.26,1781.39 2525.00,1773.00
             2523.82,1769.96 2517.65,1759.61 2515.61,1757.00
             2513.52,1754.33 2509.62,1751.12 2508.69,1748.00
             2507.76,1744.92 2510.06,1736.36 2510.87,1733.00
             2513.17,1723.51 2515.98,1713.80 2516.00,1704.00
             2516.00,1704.00 2516.00,1682.00 2516.00,1682.00
             2516.00,1682.00 2515.29,1669.00 2515.29,1669.00
             2515.94,1665.13 2520.43,1658.94 2522.39,1655.00
             2522.39,1655.00 2532.00,1631.00 2532.00,1631.00
             2532.00,1631.00 2536.00,1633.00 2536.00,1633.00
             2536.00,1633.00 2537.00,1632.00 2537.00,1632.00
             2535.60,1625.99 2536.51,1625.72 2538.00,1620.00
             2532.30,1617.53 2527.60,1615.07 2524.99,1609.00
             2522.76,1603.80 2523.46,1596.70 2520.00,1591.00
             2515.68,1583.89 2506.98,1580.28 2498.00,1567.00
             2503.84,1564.96 2519.41,1556.83 2521.23,1550.99
             2522.12,1548.73 2521.26,1545.42 2521.23,1543.00
             2520.90,1540.46 2521.07,1538.59 2520.47,1536.00
             2520.47,1536.00 2505.39,1503.00 2505.39,1503.00
             2503.80,1495.62 2508.36,1481.98 2509.75,1474.00
             2512.23,1459.70 2508.88,1462.83 2508.22,1454.00
             2507.88,1449.47 2510.01,1445.77 2509.70,1442.00
             2509.37,1438.07 2505.95,1433.49 2504.00,1430.00
             2507.37,1428.44 2512.22,1425.31 2514.13,1421.91
             2515.33,1419.23 2514.04,1413.38 2514.13,1410.00
             2513.85,1396.29 2516.73,1392.57 2514.13,1377.00
             2513.32,1369.55 2509.96,1357.42 2518.00,1353.00
             2518.00,1353.00 2513.41,1344.00 2513.41,1344.00
             2512.01,1340.97 2506.21,1321.17 2506.13,1318.00
             2505.95,1310.63 2510.72,1304.94 2511.57,1301.00
             2512.63,1296.09 2509.88,1294.06 2510.65,1288.00
             2510.65,1288.00 2516.68,1255.00 2516.68,1255.00
             2516.68,1255.00 2516.00,1221.00 2516.00,1221.00
             2516.00,1221.00 2523.45,1174.00 2523.45,1174.00
             2526.87,1157.24 2535.79,1141.54 2536.00,1124.00
             2536.00,1124.00 2536.00,1056.00 2536.00,1056.00
             2535.91,1048.64 2533.72,1033.93 2529.35,1028.04
             2524.32,1021.25 2508.99,1018.19 2501.00,1019.30
             2497.68,1019.76 2491.82,1022.16 2489.04,1021.31
             2485.66,1020.28 2483.68,1015.99 2482.31,1013.00
             2479.90,1007.71 2475.01,992.63 2474.53,987.00
             2474.19,983.07 2476.16,975.19 2477.00,971.00
             2478.64,962.78 2479.99,954.40 2480.00,946.00
             2480.00,946.00 2480.00,907.00 2480.00,907.00
             2480.00,907.00 2481.00,891.00 2481.00,891.00
             2481.00,891.00 2481.00,870.00 2481.00,870.00
             2481.00,870.00 2480.21,855.00 2480.21,855.00
             2480.21,855.00 2480.21,841.00 2480.21,841.00
             2480.21,841.00 2479.00,809.00 2479.00,809.00
             2478.97,791.49 2471.92,762.19 2469.42,744.00
             2469.42,744.00 2467.70,726.00 2467.70,726.00
             2467.70,726.00 2463.45,708.00 2463.45,708.00
             2463.45,708.00 2457.52,676.00 2457.52,676.00
             2457.52,676.00 2443.94,633.00 2443.94,633.00
             2443.94,633.00 2437.47,618.00 2437.47,618.00
             2435.22,612.14 2436.27,610.42 2432.74,603.00
             2426.44,589.76 2416.01,573.58 2408.05,561.00
             2408.05,561.00 2396.32,542.00 2396.32,542.00
             2396.32,542.00 2378.83,521.00 2378.83,521.00
             2374.96,516.70 2372.64,515.04 2369.04,510.00
             2363.64,502.44 2360.10,495.02 2355.69,487.00
             2355.69,487.00 2341.64,464.00 2341.64,464.00
             2336.44,456.29 2316.21,435.35 2309.00,429.32
             2309.00,429.32 2278.00,406.99 2278.00,406.99
             2278.00,406.99 2256.00,390.46 2256.00,390.46
             2256.00,390.46 2238.00,381.75 2238.00,381.75
             2238.00,381.75 2197.00,361.69 2197.00,361.69
             2197.00,361.69 2165.00,346.10 2165.00,346.10
             2165.00,346.10 2114.00,334.91 2114.00,334.91
             2114.00,334.91 2069.00,316.69 2069.00,316.69
             2061.73,313.35 2055.82,309.53 2048.00,307.30
             2038.02,304.45 2027.27,304.07 2017.00,302.85
             2017.00,302.85 1982.00,299.00 1982.00,299.00
             1982.00,299.00 1962.00,299.00 1962.00,299.00
             1962.00,299.00 1950.00,299.99 1950.00,299.99
             1950.00,299.99 1935.00,299.00 1935.00,299.00
             1935.00,299.00 1919.00,298.32 1919.00,298.32
             1915.66,298.07 1904.71,299.61 1901.00,300.25
             1890.10,302.14 1870.64,307.16 1861.00,312.11
             1853.60,315.91 1844.18,322.61 1838.00,328.17
             1833.74,332.00 1827.77,339.10 1823.00,341.43
             1817.83,343.96 1802.81,345.72 1796.00,347.48
             1796.00,347.48 1762.00,359.34 1762.00,359.34
             1762.00,359.34 1738.00,369.31 1738.00,369.31
             1727.53,375.02 1726.13,377.93 1712.00,384.20
             1712.00,384.20 1692.00,389.67 1692.00,389.67
             1673.63,395.84 1655.65,402.20 1638.00,410.31
             1618.17,419.41 1616.95,421.46 1600.00,433.57
             1590.83,440.13 1581.30,446.40 1573.17,454.29
             1573.17,454.29 1560.22,468.00 1560.22,468.00
             1560.22,468.00 1555.51,474.49 1555.51,474.49
             1555.51,474.49 1548.29,481.04 1548.29,481.04
             1541.01,489.00 1530.57,505.27 1525.48,515.00
             1525.48,515.00 1518.75,530.00 1518.75,530.00
             1518.75,530.00 1509.87,547.00 1509.87,547.00
             1509.87,547.00 1505.66,559.00 1505.66,559.00
             1505.66,559.00 1497.45,575.00 1497.45,575.00
             1497.45,575.00 1491.53,594.00 1491.53,594.00
             1491.53,594.00 1484.45,610.00 1484.45,610.00
             1484.45,610.00 1476.55,632.00 1476.55,632.00
             1476.55,632.00 1470.10,646.00 1470.10,646.00
             1470.10,646.00 1465.28,664.00 1465.28,664.00
             1465.28,664.00 1456.37,695.00 1456.37,695.00
             1456.37,695.00 1453.53,709.00 1453.53,709.00
             1453.53,709.00 1449.66,723.00 1449.66,723.00
             1449.66,723.00 1446.20,742.00 1446.20,742.00
             1441.47,766.52 1433.04,797.66 1433.00,822.00
             1433.00,822.00 1433.00,833.00 1433.00,833.00
             1433.00,833.00 1431.21,859.00 1431.21,859.00
             1431.21,859.00 1431.96,876.00 1431.96,876.00
             1431.96,876.00 1431.96,893.00 1431.96,893.00
             1431.96,893.00 1431.00,904.00 1431.00,904.00
             1430.95,915.90 1435.19,946.59 1437.42,959.00
             1437.42,959.00 1442.33,983.00 1442.33,983.00
             1442.48,989.38 1435.83,993.31 1435.15,1000.00
             1434.50,1006.31 1438.88,1010.53 1435.89,1019.00
             1433.78,1025.00 1431.88,1024.64 1427.00,1027.09
             1414.38,1033.43 1417.91,1030.00 1408.00,1033.55
             1397.33,1037.36 1393.25,1044.05 1392.17,1055.00
             1391.71,1059.71 1393.32,1071.68 1393.83,1077.00
             1393.83,1077.00 1395.09,1096.00 1395.09,1096.00
             1395.09,1096.00 1396.00,1109.00 1396.00,1109.00
             1396.00,1109.00 1397.00,1126.00 1397.00,1126.00
             1397.00,1126.00 1397.00,1140.00 1397.00,1140.00
             1397.00,1140.00 1402.28,1181.00 1402.28,1181.00
             1404.05,1191.57 1406.98,1197.63 1407.00,1209.00
             1407.00,1209.00 1407.00,1234.00 1407.00,1234.00
             1407.00,1234.00 1408.00,1248.00 1408.00,1248.00
             1408.05,1252.63 1407.66,1261.98 1408.52,1266.00
             1410.64,1275.99 1414.91,1285.66 1415.83,1296.00
             1415.83,1296.00 1414.77,1309.00 1414.77,1309.00
             1414.77,1309.00 1414.77,1331.00 1414.77,1331.00
             1412.28,1343.78 1407.85,1349.20 1408.00,1363.00
             1408.00,1363.00 1409.00,1377.00 1409.00,1377.00
             1409.00,1377.00 1409.00,1392.00 1409.00,1392.00
             1409.00,1392.00 1408.04,1404.00 1408.04,1404.00
             1408.04,1404.00 1408.04,1418.00 1408.04,1418.00
             1408.01,1422.45 1407.87,1425.85 1410.00,1429.96
             1412.09,1434.00 1415.94,1436.83 1417.86,1441.00
             1420.00,1445.61 1417.81,1447.51 1423.47,1453.58
             1426.77,1457.11 1431.03,1460.48 1435.00,1463.26
             1437.26,1464.84 1439.98,1466.03 1440.22,1469.10
             1440.22,1469.10 1437.04,1486.00 1437.04,1486.00
             1436.58,1496.60 1440.23,1498.12 1440.53,1505.00
             1440.53,1505.00 1437.09,1525.00 1437.09,1525.00
             1436.72,1531.45 1442.85,1555.14 1444.65,1563.00
             1445.52,1566.80 1447.66,1573.72 1446.96,1577.42
             1446.30,1580.89 1442.66,1586.01 1440.67,1589.00
             1440.67,1589.00 1429.00,1607.00 1429.00,1607.00
             1426.03,1611.46 1423.35,1614.44 1423.04,1620.00
             1422.79,1624.60 1424.26,1633.07 1424.85,1638.00
             1425.98,1647.46 1426.72,1659.60 1431.53,1667.90
             1435.65,1675.00 1447.44,1675.55 1448.51,1683.00
             1448.51,1683.00 1442.13,1712.00 1442.13,1712.00
             1441.96,1718.84 1447.59,1727.85 1447.96,1737.00
             1448.22,1743.31 1447.02,1748.04 1442.67,1752.83
             1439.57,1756.25 1435.30,1758.75 1433.17,1763.00
             1429.65,1770.04 1435.63,1785.41 1439.00,1792.00 Z
           M 1496.00,1879.00
           C 1496.00,1879.00 1477.00,1884.00 1477.00,1884.00
             1477.00,1884.00 1480.00,1867.00 1480.00,1867.00
             1487.88,1868.61 1494.14,1870.24 1496.00,1879.00 Z" />
</svg>
