<?xml version="1.0" encoding="UTF-8" standalone="no"?>
<!DOCTYPE svg PUBLIC "-//W3C//DTD SVG 20010904//EN"
              "http://www.w3.org/TR/2001/REC-SVG-20010904/DTD/svg10.dtd">

<svg xmlns="http://www.w3.org/2000/svg"
     width="12.89in" height="13.7867in"
     viewBox="0 0 3867 4136">
  <path id="face"
        fill="none" stroke="black" stroke-width="1"
        d="M 1243.00,978.00
           C 1233.69,990.03 1235.00,990.46 1228.75,1003.00
             1226.18,1008.16 1222.67,1015.24 1222.19,1021.00
             1222.19,1021.00 1230.84,1073.00 1230.84,1073.00
             1230.84,1073.00 1233.16,1096.00 1233.16,1096.00
             1233.16,1096.00 1235.96,1120.00 1235.96,1120.00
             1235.96,1120.00 1233.83,1144.00 1233.83,1144.00
             1233.83,1144.00 1233.83,1165.00 1233.83,1165.00
             1233.83,1165.00 1238.96,1197.00 1238.96,1197.00
             1238.75,1202.58 1235.72,1208.53 1234.02,1214.00
             1231.66,1221.62 1231.01,1226.07 1231.00,1234.00
             1236.04,1224.36 1231.37,1223.97 1240.86,1214.00
             1243.00,1222.24 1240.95,1222.72 1240.86,1230.00
             1240.86,1230.00 1240.86,1247.00 1240.86,1247.00
             1240.86,1247.00 1240.00,1262.00 1240.00,1262.00
             1240.00,1262.00 1240.00,1293.00 1240.00,1293.00
             1240.00,1293.00 1239.00,1309.00 1239.00,1309.00
             1239.00,1309.00 1238.00,1337.00 1238.00,1337.00
             1238.00,1337.00 1236.05,1362.00 1236.05,1362.00
             1231.42,1375.96 1226.83,1375.95 1224.95,1393.00
             1224.69,1395.33 1224.25,1397.65 1224.37,1400.00
             1224.37,1400.00 1240.48,1464.00 1240.48,1464.00
             1241.16,1470.57 1236.07,1471.85 1234.23,1477.01
             1233.35,1479.25 1233.95,1489.24 1234.23,1492.00
             1235.43,1501.27 1236.28,1499.97 1238.38,1507.00
             1239.64,1511.21 1242.40,1528.00 1241.79,1532.00
             1240.82,1538.36 1228.56,1552.25 1225.79,1562.00
             1222.77,1572.62 1229.84,1584.94 1228.21,1591.00
             1227.02,1595.44 1221.21,1600.75 1218.00,1604.00
             1212.58,1609.50 1209.27,1613.70 1206.47,1621.00
             1200.67,1636.08 1210.65,1648.47 1209.88,1659.00
             1209.30,1666.95 1201.63,1672.69 1201.11,1682.00
             1200.65,1690.20 1207.54,1700.37 1207.71,1707.00
             1207.85,1711.92 1203.77,1717.28 1203.47,1723.00
             1203.47,1723.00 1206.00,1748.00 1206.00,1748.00
             1206.00,1748.00 1205.04,1762.00 1205.04,1762.00
             1205.04,1762.00 1204.00,1786.00 1204.00,1786.00
             1204.00,1786.00 1202.04,1812.00 1202.04,1812.00
             1201.36,1829.49 1215.25,1831.56 1215.96,1845.00
             1215.96,1845.00 1211.32,1892.00 1211.32,1892.00
             1210.95,1896.93 1213.45,1906.88 1214.58,1912.00
             1214.58,1912.00 1220.99,1941.00 1220.99,1941.00
             1224.45,1951.31 1238.08,1955.20 1243.48,1967.00
             1247.41,1975.57 1246.53,1983.82 1250.53,1991.00
             1250.53,1991.00 1270.58,2019.00 1270.58,2019.00
             1270.58,2019.00 1317.58,2083.00 1317.58,2083.00
             1317.58,2083.00 1350.63,2128.00 1350.63,2128.00
             1350.63,2128.00 1368.30,2150.79 1368.30,2150.79
             1371.04,2153.50 1376.45,2156.19 1380.00,2158.75
             1380.00,2158.75 1400.00,2174.60 1400.00,2174.60
             1400.00,2174.60 1476.00,2235.80 1476.00,2235.80
             1476.00,2235.80 1519.00,2269.18 1519.00,2269.18
             1524.69,2272.10 1534.44,2273.85 1541.00,2275.71
             1541.00,2275.71 1593.00,2288.88 1593.00,2288.88
             1593.00,2288.88 1653.00,2303.87 1653.00,2303.87
             1667.95,2307.61 1681.44,2311.82 1697.00,2312.00
             1697.00,2312.00 1711.00,2313.00 1711.00,2313.00
             1711.00,2313.00 1737.00,2314.00 1737.00,2314.00
             1737.00,2314.00 1747.00,2314.91 1747.00,2314.91
             1747.00,2314.91 1770.00,2316.00 1770.00,2316.00
             1770.00,2316.00 1784.00,2317.00 1784.00,2317.00
             1784.00,2317.00 1821.00,2319.00 1821.00,2319.00
             1821.00,2319.00 1851.00,2321.00 1851.00,2321.00
             1851.00,2321.00 1882.00,2322.00 1882.00,2322.00
             1882.00,2322.00 1895.00,2322.99 1895.00,2322.99
             1904.01,2323.19 1932.50,2317.07 1943.00,2315.00
             1943.00,2315.00 2027.00,2298.80 2027.00,2298.80
             2027.00,2298.80 2080.00,2288.26 2080.00,2288.26
             2080.00,2288.26 2108.00,2283.05 2108.00,2283.05
             2108.00,2283.05 2148.00,2265.05 2148.00,2265.05
             2148.00,2265.05 2210.00,2222.02 2210.00,2222.02
             2239.33,2201.72 2267.16,2179.67 2295.00,2157.40
             2295.00,2157.40 2339.71,2120.71 2339.71,2120.71
             2339.71,2120.71 2362.88,2092.00 2362.88,2092.00
             2362.88,2092.00 2387.08,2059.00 2387.08,2059.00
             2387.08,2059.00 2404.65,2036.00 2404.65,2036.00
             2404.65,2036.00 2451.69,1962.00 2451.69,1962.00
             2457.10,1953.59 2473.43,1928.94 2476.09,1921.00
             2478.15,1914.85 2478.48,1901.12 2479.17,1894.00
             2479.17,1894.00 2480.66,1876.00 2480.66,1876.00
             2479.88,1870.81 2475.82,1864.42 2473.05,1860.00
             2473.05,1860.00 2460.00,1839.00 2460.00,1839.00
             2460.00,1839.00 2485.00,1822.00 2485.00,1822.00
             2485.00,1822.00 2487.83,1793.00 2487.83,1793.00
             2487.83,1793.00 2491.06,1761.00 2491.06,1761.00
             2491.06,1761.00 2491.06,1750.00 2491.06,1750.00
             2491.06,1750.00 2492.81,1727.00 2492.81,1727.00
             2492.81,1727.00 2492.81,1716.00 2492.81,1716.00
             2492.81,1716.00 2484.00,1705.00 2484.00,1705.00
             2484.00,1705.00 2495.00,1708.00 2495.00,1708.00
             2495.00,1708.00 2498.00,1668.00 2498.00,1668.00
             2498.15,1655.17 2496.72,1657.51 2495.13,1647.00
             2495.13,1647.00 2492.22,1627.00 2492.22,1627.00
             2492.22,1627.00 2484.15,1603.00 2484.15,1603.00
             2479.60,1585.72 2482.04,1577.63 2479.57,1561.00
             2479.57,1561.00 2472.00,1522.00 2472.00,1522.00
             2472.00,1522.00 2474.00,1488.00 2474.00,1488.00
             2476.47,1475.80 2480.94,1466.67 2481.00,1454.00
             2481.08,1439.18 2487.03,1439.93 2490.07,1429.00
             2490.07,1429.00 2495.70,1399.00 2495.70,1399.00
             2497.38,1395.04 2503.22,1389.98 2506.45,1385.00
             2506.45,1385.00 2518.19,1366.00 2518.19,1366.00
             2522.39,1357.68 2527.45,1339.23 2526.91,1330.00
             2526.47,1322.41 2523.04,1313.33 2518.90,1307.00
             2515.28,1301.47 2511.70,1298.57 2508.88,1292.00
             2504.91,1282.76 2506.11,1271.88 2506.00,1262.00
             2506.00,1262.00 2504.00,1234.00 2504.00,1234.00
             2504.00,1234.00 2505.17,1197.00 2505.17,1197.00
             2507.61,1171.52 2518.26,1119.63 2518.00,1097.00
             2518.00,1097.00 2515.71,1066.00 2515.71,1066.00
             2515.71,1066.00 2512.17,1042.00 2512.17,1042.00
             2512.17,1042.00 2508.17,995.00 2508.17,995.00
             2508.17,995.00 2507.28,982.00 2507.28,982.00
             2507.28,982.00 2506.71,972.00 2506.71,972.00
             2505.54,962.45 2500.12,944.89 2492.82,938.53
             2490.04,936.11 2486.50,934.73 2483.00,933.75
             2469.76,930.01 2467.25,933.53 2455.00,936.00
             2456.45,925.25 2458.98,914.95 2459.00,904.00
             2459.00,904.00 2458.00,884.00 2458.00,884.00
             2458.00,884.00 2458.00,872.00 2458.00,872.00
             2457.98,859.58 2456.07,862.52 2454.38,855.00
             2454.38,855.00 2453.24,848.00 2453.24,848.00
             2453.24,848.00 2449.57,837.00 2449.57,837.00
             2448.25,832.56 2446.12,818.65 2446.01,814.00
             2446.01,814.00 2448.00,785.00 2448.00,785.00
             2448.00,785.00 2448.00,770.00 2448.00,770.00
             2448.00,770.00 2446.00,745.00 2446.00,745.00
             2446.00,745.00 2445.00,725.00 2445.00,725.00
             2444.96,697.29 2442.81,669.57 2440.17,642.00
             2440.17,642.00 2438.09,618.00 2438.09,618.00
             2438.09,618.00 2436.53,599.00 2436.53,599.00
             2436.53,599.00 2431.47,582.00 2431.47,582.00
             2431.47,582.00 2427.22,559.00 2427.22,559.00
             2427.22,559.00 2418.02,533.00 2418.02,533.00
             2418.02,533.00 2410.95,511.00 2410.95,511.00
             2410.95,511.00 2406.09,499.00 2406.09,499.00
             2406.09,499.00 2400.82,483.00 2400.82,483.00
             2400.82,483.00 2389.43,464.00 2389.43,464.00
             2389.43,464.00 2376.69,441.00 2376.69,441.00
             2376.69,441.00 2356.24,411.00 2356.24,411.00
             2356.24,411.00 2342.17,395.00 2342.17,395.00
             2342.17,395.00 2329.42,380.00 2329.42,380.00
             2329.42,380.00 2310.81,358.00 2310.81,358.00
             2310.81,358.00 2302.24,346.30 2302.24,346.30
             2299.50,343.43 2297.50,343.92 2294.32,340.78
             2294.32,340.78 2282.54,325.00 2282.54,325.00
             2282.54,325.00 2271.90,313.96 2271.90,313.96
             2271.90,313.96 2260.91,297.00 2260.91,297.00
             2260.91,297.00 2254.07,288.00 2254.07,288.00
             2254.07,288.00 2250.05,280.00 2250.05,280.00
             2250.05,280.00 2240.90,267.00 2240.90,267.00
             2240.90,267.00 2233.24,251.00 2233.24,251.00
             2229.16,244.78 2209.67,223.22 2204.00,218.29
             2204.00,218.29 2178.00,197.44 2178.00,197.44
             2178.00,197.44 2165.00,189.31 2165.00,189.31
             2165.00,189.31 2144.00,175.58 2144.00,175.58
             2144.00,175.58 2122.00,161.37 2122.00,161.37
             2122.00,161.37 2103.00,153.15 2103.00,153.15
             2103.00,153.15 2064.00,136.58 2064.00,136.58
             2064.00,136.58 2031.00,122.42 2031.00,122.42
             2031.00,122.42 2009.00,114.95 2009.00,114.95
             2009.00,114.95 1987.00,107.50 1987.00,107.50
             1987.00,107.50 1898.00,96.54 1898.00,96.54
             1889.36,94.97 1883.00,91.39 1875.00,88.54
             1875.00,88.54 1849.00,81.42 1849.00,81.42
             1843.45,80.20 1832.62,78.89 1827.00,79.01
             1827.00,79.01 1815.00,80.00 1815.00,80.00
             1815.00,80.00 1798.00,79.00 1798.00,79.00
             1798.00,79.00 1763.00,80.00 1763.00,80.00
             1763.00,80.00 1721.00,83.99 1721.00,83.99
             1721.00,83.99 1707.00,83.04 1707.00,83.04
             1682.51,84.07 1657.68,89.63 1634.00,95.63
             1634.00,95.63 1619.00,99.47 1619.00,99.47
             1612.66,101.59 1607.06,107.30 1602.00,111.58
             1594.66,117.77 1576.79,132.67 1569.00,136.63
             1569.00,136.63 1552.00,144.26 1552.00,144.26
             1552.00,144.26 1528.00,155.80 1528.00,155.80
             1514.86,161.01 1501.12,164.94 1489.00,172.47
             1482.94,176.23 1481.48,179.10 1476.91,184.00
             1476.91,184.00 1452.91,207.37 1452.91,207.37
             1452.91,207.37 1445.00,212.38 1445.00,212.38
             1445.00,212.38 1423.00,231.91 1423.00,231.91
             1423.00,231.91 1405.00,244.90 1405.00,244.90
             1405.00,244.90 1385.00,261.58 1385.00,261.58
             1385.00,261.58 1361.01,280.30 1361.01,280.30
             1361.01,280.30 1351.96,289.83 1351.96,289.83
             1351.96,289.83 1343.17,298.00 1343.17,298.00
             1343.17,298.00 1316.70,327.42 1316.70,327.42
             1315.09,329.49 1314.36,331.73 1313.10,334.00
             1313.10,334.00 1307.20,343.00 1307.20,343.00
             1307.20,343.00 1301.52,355.00 1301.52,355.00
             1301.52,355.00 1292.27,372.00 1292.27,372.00
             1292.27,372.00 1281.22,396.00 1281.22,396.00
             1281.22,396.00 1275.55,408.00 1275.55,408.00
             1275.55,408.00 1271.26,429.00 1271.26,429.00
             1271.26,429.00 1261.43,459.00 1261.43,459.00
             1261.43,459.00 1257.11,479.00 1257.11,479.00
             1257.11,479.00 1251.88,495.00 1251.88,495.00
             1251.88,495.00 1248.41,517.00 1248.41,517.00
             1247.16,525.01 1245.04,532.86 1245.00,541.00
             1245.00,541.00 1240.00,577.00 1240.00,577.00
             1239.74,599.53 1234.66,630.70 1232.16,654.00
             1232.16,654.00 1228.00,695.00 1228.00,695.00
             1228.00,695.00 1227.00,726.00 1227.00,726.00
             1227.00,726.00 1224.80,755.00 1224.80,755.00
             1224.80,755.00 1224.80,768.00 1224.80,768.00
             1224.80,768.00 1225.95,788.00 1225.95,788.00
             1225.95,788.00 1225.95,801.00 1225.95,801.00
             1225.95,801.00 1225.08,809.00 1225.08,809.00
             1225.08,809.00 1229.42,856.00 1229.42,856.00
             1229.42,856.00 1233.43,877.00 1233.43,877.00
             1238.00,893.21 1242.91,901.45 1243.79,920.00
             1244.01,924.56 1242.00,928.83 1240.42,933.00
             1236.84,942.51 1234.12,949.59 1234.00,960.00
             1233.96,964.00 1233.59,969.47 1235.85,972.90
             1237.69,975.68 1240.12,976.68 1243.00,978.00 Z
           M 2448.00,839.00
           C 2448.00,839.00 2448.00,840.00 2448.00,840.00
             2448.00,840.00 2447.00,839.00 2447.00,839.00
             2447.00,839.00 2448.00,839.00 2448.00,839.00 Z
           M 2450.00,840.00
           C 2450.00,840.00 2450.00,841.00 2450.00,841.00
             2450.00,841.00 2449.00,840.00 2449.00,840.00
             2449.00,840.00 2450.00,840.00 2450.00,840.00 Z
           M 2452.00,854.00
           C 2452.00,854.00 2452.00,855.00 2452.00,855.00
             2452.00,855.00 2451.00,854.00 2451.00,854.00
             2451.00,854.00 2452.00,854.00 2452.00,854.00 Z" />
  <path id="profile"
        fill="none" stroke="black" stroke-width="1"
        d="M 1243.00,978.00
           C 1233.54,992.19 1236.09,988.32 1228.75,1003.00
             1226.19,1008.12 1222.87,1014.27 1222.18,1020.00
             1221.55,1025.33 1222.96,1030.75 1223.73,1036.00
             1223.73,1036.00 1230.10,1068.00 1230.10,1068.00
             1230.10,1068.00 1232.28,1089.00 1232.28,1089.00
             1232.28,1089.00 1235.96,1121.00 1235.96,1121.00
             1235.96,1121.00 1234.08,1138.00 1234.08,1138.00
             1234.08,1138.00 1234.08,1150.00 1234.08,1150.00
             1234.08,1150.00 1233.10,1163.00 1233.10,1163.00
             1233.10,1163.00 1239.11,1194.00 1239.11,1194.00
             1239.85,1200.42 1236.93,1205.17 1234.86,1211.00
             1232.30,1218.23 1229.51,1229.45 1231.00,1237.00
             1231.00,1237.00 1235.97,1218.30 1235.97,1218.30
             1235.97,1218.30 1241.00,1214.00 1241.00,1214.00
             1243.09,1222.61 1240.76,1223.40 1240.18,1231.00
             1240.18,1231.00 1240.98,1242.00 1240.98,1242.00
             1240.98,1242.00 1240.41,1253.00 1240.41,1253.00
             1240.74,1256.38 1242.78,1259.92 1242.54,1263.00
             1242.32,1265.87 1240.63,1267.57 1239.97,1270.00
             1239.14,1273.39 1240.71,1275.07 1239.97,1279.00
             1239.97,1279.00 1235.93,1290.00 1235.93,1290.00
             1235.10,1295.94 1240.60,1296.17 1240.22,1304.00
             1240.22,1304.00 1236.96,1329.96 1236.96,1329.96
             1235.69,1336.59 1235.02,1332.64 1235.00,1342.00
             1235.00,1342.00 1235.00,1357.00 1235.00,1357.00
             1234.94,1367.89 1231.75,1367.31 1230.00,1377.00
             1230.00,1377.00 1240.00,1377.00 1240.00,1377.00
             1240.00,1377.00 1238.71,1384.00 1238.71,1384.00
             1238.71,1384.00 1236.20,1396.00 1236.20,1396.00
             1236.20,1396.00 1236.20,1415.00 1236.20,1415.00
             1236.20,1415.00 1229.00,1439.00 1229.00,1439.00
             1231.55,1439.15 1236.47,1439.26 1235.95,1443.11
             1235.52,1446.29 1230.83,1449.49 1230.46,1454.00
             1230.03,1459.23 1236.90,1468.34 1237.05,1471.91
             1237.20,1475.21 1234.14,1476.17 1233.35,1480.01
             1233.35,1480.01 1234.30,1497.00 1234.30,1497.00
             1234.30,1497.00 1240.87,1523.00 1240.87,1523.00
             1241.45,1525.31 1243.30,1531.51 1242.85,1533.58
             1242.29,1536.18 1235.86,1543.26 1233.93,1546.00
             1229.65,1552.11 1229.01,1555.78 1229.00,1563.00
             1229.00,1563.00 1229.00,1585.00 1229.00,1585.00
             1228.82,1594.72 1219.07,1600.38 1213.06,1607.00
             1211.83,1608.36 1210.92,1609.33 1210.09,1611.00
             1210.09,1611.00 1203.56,1629.00 1203.56,1629.00
             1203.29,1630.65 1203.34,1631.35 1203.56,1633.00
             1203.56,1633.00 1208.00,1660.72 1208.00,1660.72
             1207.77,1663.45 1205.86,1665.06 1204.68,1668.00
             1204.68,1668.00 1201.68,1680.00 1201.68,1680.00
             1201.02,1686.29 1205.59,1694.69 1205.08,1703.00
             1205.08,1703.00 1198.56,1746.00 1198.56,1746.00
             1198.46,1751.57 1203.33,1755.48 1203.89,1762.00
             1203.89,1762.00 1202.09,1785.00 1202.09,1785.00
             1202.09,1785.00 1200.69,1803.90 1200.69,1803.90
             1199.77,1807.42 1197.44,1807.57 1196.51,1811.10
             1194.43,1818.98 1200.10,1842.24 1202.12,1851.00
             1202.95,1854.60 1205.77,1864.70 1203.96,1867.72
             1202.38,1870.38 1197.81,1871.18 1195.00,1872.00
             1185.97,1874.65 1184.23,1877.55 1174.00,1879.00
             1174.00,1879.00 1125.00,1886.21 1125.00,1886.21
             1125.00,1886.21 1090.00,1895.63 1090.00,1895.63
             1090.00,1895.63 1070.00,1900.43 1070.00,1900.43
             1070.00,1900.43 1037.00,1910.98 1037.00,1910.98
             1037.00,1910.98 1002.00,1921.67 1002.00,1921.67
             1002.00,1921.67 966.00,1935.84 966.00,1935.84
             966.00,1935.84 955.00,1935.84 955.00,1935.84
             942.94,1936.14 923.26,1941.89 912.00,1946.45
             908.29,1947.96 896.98,1954.05 894.00,1956.39
             889.62,1959.82 887.34,1963.53 882.00,1966.08
             882.00,1966.08 862.00,1971.88 862.00,1971.88
             862.00,1971.88 819.00,1982.48 819.00,1982.48
             819.00,1982.48 801.00,1988.67 801.00,1988.67
             786.58,1993.47 767.18,1997.99 752.00,1998.00
             752.00,1998.00 752.00,2003.00 752.00,2003.00
             739.25,2003.28 737.97,2005.32 727.00,2009.31
             727.00,2009.31 696.00,2018.84 696.00,2018.84
             693.55,2019.08 690.52,2019.00 688.00,2018.84
             688.00,2018.84 689.00,2022.00 689.00,2022.00
             689.00,2022.00 659.00,2031.91 659.00,2031.91
             659.00,2031.91 633.00,2042.58 633.00,2042.58
             633.00,2042.58 606.00,2052.43 606.00,2052.43
             606.00,2052.43 560.00,2073.69 560.00,2073.69
             560.00,2073.69 542.00,2081.31 542.00,2081.31
             542.00,2081.31 519.00,2092.69 519.00,2092.69
             519.00,2092.69 493.00,2104.32 493.00,2104.32
             493.00,2104.32 465.00,2120.14 465.00,2120.14
             465.00,2120.14 411.00,2150.58 411.00,2150.58
             411.00,2150.58 345.00,2188.58 345.00,2188.58
             345.00,2188.58 309.00,2209.92 309.00,2209.92
             309.00,2209.92 298.00,2219.39 298.00,2219.39
             298.00,2219.39 253.04,2256.42 253.04,2256.42
             247.77,2261.25 248.12,2263.60 244.79,2266.51
             244.79,2266.51 238.00,2271.21 238.00,2271.21
             238.00,2271.21 213.00,2292.29 213.00,2292.29
             213.00,2292.29 204.00,2300.83 204.00,2300.83
             204.00,2300.83 193.04,2310.17 193.04,2310.17
             193.04,2310.17 186.83,2316.83 186.83,2316.83
             186.83,2316.83 174.00,2328.91 174.00,2328.91
             174.00,2328.91 164.09,2337.17 164.09,2337.17
             164.09,2337.17 156.96,2344.83 156.96,2344.83
             156.96,2344.83 149.00,2351.30 149.00,2351.30
             149.00,2351.30 138.00,2361.28 138.00,2361.28
             133.60,2365.11 129.89,2366.87 130.00,2373.00
             119.89,2376.22 120.91,2381.70 112.00,2382.00
             107.71,2391.90 102.04,2396.98 95.13,2405.00
             90.77,2410.06 84.48,2417.39 79.00,2421.05
             79.00,2421.05 44.02,2441.33 44.02,2441.33
             36.20,2447.98 37.52,2452.59 34.95,2458.00
             33.38,2461.31 29.33,2466.22 26.83,2469.00
             14.33,2482.91 0.03,2499.29 0.00,2519.00
             0.00,2519.00 0.00,4136.00 0.00,4136.00
             0.00,4136.00 426.00,4136.00 426.00,4136.00
             431.00,4135.99 438.52,4135.56 443.00,4133.31
             448.09,4130.76 452.16,4125.45 455.57,4121.00
             465.28,4108.36 471.66,4084.71 475.85,4069.00
             475.85,4069.00 481.10,4046.00 481.10,4046.00
             482.04,4043.39 484.01,4039.54 486.76,4038.49
             490.79,4036.96 495.31,4043.14 497.07,4046.00
             503.23,4056.00 506.98,4066.22 507.00,4078.00
             507.00,4078.00 507.00,4089.00 507.00,4089.00
             507.00,4089.00 506.00,4103.00 506.00,4103.00
             506.00,4103.00 504.00,4136.00 504.00,4136.00
             504.00,4136.00 2558.00,4136.00 2558.00,4136.00
             2558.00,4136.00 3299.00,4136.00 3299.00,4136.00
             3302.99,4135.99 3308.51,4136.17 3311.72,4133.44
             3314.43,4131.14 3314.97,4127.31 3315.58,4124.00
             3315.58,4124.00 3319.20,4104.00 3319.20,4104.00
             3319.20,4104.00 3328.20,4058.00 3328.20,4058.00
             3332.49,4036.56 3330.75,4030.63 3346.00,4013.00
             3346.00,4013.00 3361.17,4058.00 3361.17,4058.00
             3361.17,4058.00 3373.31,4081.00 3373.31,4081.00
             3377.93,4089.39 3381.39,4092.38 3388.00,4099.00
             3391.35,4102.36 3395.91,4106.38 3397.35,4111.00
             3399.24,4117.04 3395.78,4129.84 3394.00,4136.00
             3394.00,4136.00 3867.00,4136.00 3867.00,4136.00
             3867.00,4136.00 3867.00,2725.00 3867.00,2725.00
             3866.97,2704.33 3859.19,2692.80 3850.78,2675.00
             3850.78,2675.00 3831.25,2636.00 3831.25,2636.00
             3831.25,2636.00 3823.74,2620.00 3823.74,2620.00
             3823.74,2620.00 3813.78,2602.00 3813.78,2602.00
             3813.78,2602.00 3804.68,2580.00 3804.68,2580.00
             3804.68,2580.00 3797.35,2569.00 3797.35,2569.00
             3797.35,2569.00 3785.60,2550.00 3785.60,2550.00
             3785.60,2550.00 3759.00,2506.00 3759.00,2506.00
             3759.00,2506.00 3740.31,2475.00 3740.31,2475.00
             3740.31,2475.00 3724.52,2453.00 3724.52,2453.00
             3724.52,2453.00 3703.28,2421.00 3703.28,2421.00
             3703.28,2421.00 3677.42,2386.00 3677.42,2386.00
             3677.42,2386.00 3654.74,2355.00 3654.74,2355.00
             3654.74,2355.00 3637.08,2335.00 3637.08,2335.00
             3628.83,2325.77 3632.31,2324.86 3628.48,2316.00
             3626.41,2311.23 3617.71,2298.29 3614.33,2294.00
             3606.01,2283.44 3604.10,2284.55 3594.00,2278.55
             3594.00,2278.55 3580.00,2269.33 3580.00,2269.33
             3568.70,2261.68 3558.95,2252.31 3549.00,2243.09
             3549.00,2243.09 3537.23,2233.39 3537.23,2233.39
             3532.73,2228.87 3534.65,2225.57 3531.49,2222.73
             3528.78,2220.30 3524.91,2221.40 3521.49,2217.72
             3521.49,2217.72 3517.20,2211.14 3517.20,2211.14
             3514.99,2208.41 3513.31,2208.20 3511.69,2206.46
             3511.69,2206.46 3507.59,2200.21 3507.59,2200.21
             3502.64,2194.68 3494.12,2191.34 3487.00,2190.00
             3487.00,2190.00 3488.00,2186.00 3488.00,2186.00
             3472.18,2176.89 3473.41,2175.25 3461.00,2164.17
             3461.00,2164.17 3446.00,2152.71 3446.00,2152.71
             3446.00,2152.71 3432.00,2140.83 3432.00,2140.83
             3432.00,2140.83 3420.00,2129.90 3420.00,2129.90
             3420.00,2129.90 3399.00,2117.66 3399.00,2117.66
             3375.90,2102.58 3352.18,2089.29 3328.00,2076.10
             3328.00,2076.10 3313.00,2066.52 3313.00,2066.52
             3313.00,2066.52 3298.00,2060.69 3298.00,2060.69
             3298.00,2060.69 3269.00,2047.45 3269.00,2047.45
             3269.00,2047.45 3241.00,2036.69 3241.00,2036.69
             3241.00,2036.69 3218.00,2025.86 3218.00,2025.86
             3218.00,2025.86 3184.00,2011.99 3184.00,2011.99
             3184.00,2011.99 3150.00,1997.45 3150.00,1997.45
             3150.00,1997.45 3122.00,1986.80 3122.00,1986.80
             3122.00,1986.80 3103.00,1978.61 3103.00,1978.61
             3103.00,1978.61 3083.00,1971.58 3083.00,1971.58
             3083.00,1971.58 3041.00,1955.69 3041.00,1955.69
             3041.00,1955.69 2988.00,1939.02 2988.00,1939.02
             2937.42,1923.30 2885.24,1912.34 2834.00,1898.88
             2834.00,1898.88 2803.00,1890.88 2803.00,1890.88
             2803.00,1890.88 2789.00,1887.20 2789.00,1887.20
             2783.87,1884.88 2779.32,1878.98 2775.00,1875.18
             2764.88,1866.28 2763.38,1869.61 2755.00,1856.00
             2752.74,1856.65 2750.37,1857.43 2748.00,1857.53
             2748.00,1857.53 2711.00,1851.18 2711.00,1851.18
             2711.00,1851.18 2699.00,1852.00 2699.00,1852.00
             2699.00,1852.00 2683.00,1852.00 2683.00,1852.00
             2671.39,1851.98 2660.18,1847.26 2649.00,1844.47
             2649.00,1844.47 2624.00,1839.11 2624.00,1839.11
             2624.00,1839.11 2586.00,1828.00 2586.00,1828.00
             2586.00,1828.00 2552.00,1818.73 2552.00,1818.73
             2546.00,1817.15 2538.78,1816.49 2534.23,1811.79
             2530.12,1807.56 2529.42,1797.65 2530.21,1792.00
             2530.83,1787.54 2532.29,1786.62 2531.96,1780.00
             2531.72,1775.30 2530.12,1772.09 2528.00,1768.00
             2541.36,1763.06 2537.96,1746.34 2528.00,1740.00
             2528.00,1740.00 2528.00,1744.00 2528.00,1744.00
             2528.00,1744.00 2524.00,1744.00 2524.00,1744.00
             2524.00,1744.00 2524.00,1749.00 2524.00,1749.00
             2524.00,1749.00 2518.00,1749.00 2518.00,1749.00
             2518.00,1749.00 2518.00,1734.00 2518.00,1734.00
             2518.00,1734.00 2524.00,1736.00 2524.00,1736.00
             2522.51,1730.38 2521.96,1726.18 2518.91,1721.00
             2515.65,1715.48 2509.57,1708.89 2507.80,1703.00
             2507.80,1703.00 2505.99,1685.00 2505.99,1685.00
             2505.99,1685.00 2501.75,1672.00 2501.75,1672.00
             2501.75,1672.00 2495.51,1649.00 2495.51,1649.00
             2495.51,1649.00 2493.33,1630.00 2493.33,1630.00
             2491.93,1623.43 2490.06,1621.49 2488.09,1616.00
             2485.45,1608.63 2481.09,1590.72 2481.00,1583.00
             2480.78,1564.21 2480.35,1562.57 2476.55,1544.00
             2476.55,1544.00 2472.17,1526.00 2472.17,1526.00
             2471.49,1519.60 2472.51,1515.93 2472.96,1510.00
             2472.96,1510.00 2472.96,1498.00 2472.96,1498.00
             2473.16,1484.34 2479.16,1473.78 2481.28,1461.00
             2482.28,1456.55 2480.75,1453.69 2481.28,1449.00
             2481.71,1440.65 2488.18,1436.82 2490.70,1428.00
             2490.70,1428.00 2495.57,1398.00 2495.57,1398.00
             2498.25,1392.95 2502.11,1391.62 2505.90,1386.00
             2505.90,1386.00 2510.96,1377.00 2510.96,1377.00
             2510.96,1377.00 2516.64,1369.00 2516.64,1369.00
             2522.25,1359.27 2527.13,1342.23 2527.00,1331.00
             2526.78,1312.91 2514.41,1303.15 2510.04,1295.00
             2506.79,1288.94 2506.01,1281.75 2506.00,1275.00
             2506.00,1275.00 2506.00,1259.00 2506.00,1259.00
             2506.00,1259.00 2504.00,1234.00 2504.00,1234.00
             2504.00,1234.00 2504.00,1217.00 2504.00,1217.00
             2504.00,1217.00 2505.00,1204.00 2505.00,1204.00
             2505.12,1193.79 2507.28,1184.09 2508.73,1174.00
             2508.73,1174.00 2518.68,1102.00 2518.68,1102.00
             2518.68,1102.00 2517.09,1083.00 2517.09,1083.00
             2517.09,1083.00 2515.71,1065.00 2515.71,1065.00
             2515.71,1065.00 2513.30,1052.00 2513.30,1052.00
             2513.30,1052.00 2511.00,1031.00 2511.00,1031.00
             2511.00,1031.00 2511.00,1022.00 2511.00,1022.00
             2511.00,1022.00 2508.09,990.00 2508.09,990.00
             2507.31,978.57 2507.77,970.16 2504.00,959.00
             2502.30,953.99 2497.36,942.78 2493.79,939.21
             2487.79,933.22 2474.12,930.69 2466.00,932.53
             2462.45,933.33 2458.24,935.32 2455.00,937.00
             2455.00,937.00 2457.70,923.00 2457.70,923.00
             2457.70,923.00 2459.68,902.00 2459.68,902.00
             2459.68,902.00 2457.93,883.00 2457.93,883.00
             2457.73,875.03 2459.53,875.61 2457.93,865.00
             2457.02,860.00 2455.38,859.28 2454.54,856.00
             2454.54,856.00 2453.56,848.00 2453.56,848.00
             2453.56,848.00 2449.10,836.00 2449.10,836.00
             2449.10,836.00 2446.01,815.00 2446.01,815.00
             2446.01,815.00 2448.00,787.00 2448.00,787.00
             2448.00,787.00 2448.00,767.00 2448.00,767.00
             2448.00,767.00 2446.00,744.00 2446.00,744.00
             2446.00,744.00 2445.00,708.00 2445.00,708.00
             2445.00,708.00 2444.00,691.00 2444.00,691.00
             2444.00,691.00 2442.83,669.00 2442.83,669.00
             2442.83,669.00 2438.91,624.00 2438.91,624.00
             2438.91,624.00 2438.00,614.00 2438.00,614.00
             2437.78,594.73 2435.49,597.62 2431.48,582.00
             2431.48,582.00 2427.71,560.00 2427.71,560.00
             2427.71,560.00 2419.72,538.00 2419.72,538.00
             2419.72,538.00 2411.56,512.00 2411.56,512.00
             2411.56,512.00 2406.09,499.00 2406.09,499.00
             2406.09,499.00 2401.60,484.00 2401.60,484.00
             2401.60,484.00 2389.32,464.00 2389.32,464.00
             2389.32,464.00 2376.77,441.00 2376.77,441.00
             2376.77,441.00 2366.35,426.00 2366.35,426.00
             2366.35,426.00 2355.54,410.00 2355.54,410.00
             2355.54,410.00 2341.17,394.00 2341.17,394.00
             2341.17,394.00 2308.90,356.00 2308.90,356.00
             2308.90,356.00 2301.00,344.00 2301.00,344.00
             2294.86,344.52 2293.11,339.55 2289.86,335.00
             2289.86,335.00 2282.68,325.04 2282.68,325.04
             2274.53,315.69 2275.31,320.84 2266.40,306.00
             2266.40,306.00 2259.76,295.21 2259.76,295.21
             2259.76,295.21 2254.00,288.90 2254.00,288.90
             2252.72,286.64 2252.99,284.37 2250.99,281.00
             2248.63,277.00 2244.35,273.83 2240.82,267.00
             2237.83,261.22 2237.23,256.95 2233.25,251.00
             2229.27,245.05 2220.19,235.41 2215.04,230.00
             2215.04,230.00 2205.99,220.04 2205.99,220.04
             2205.99,220.04 2177.00,196.59 2177.00,196.59
             2177.00,196.59 2163.00,188.23 2163.00,188.23
             2163.00,188.23 2124.00,162.32 2124.00,162.32
             2124.00,162.32 2114.00,157.74 2114.00,157.74
             2114.00,157.74 2053.00,131.99 2053.00,131.99
             2053.00,131.99 2034.00,123.45 2034.00,123.45
             2034.00,123.45 1986.00,106.90 1986.00,106.90
             1986.00,106.90 1960.00,103.84 1960.00,103.84
             1960.00,103.84 1921.00,99.16 1921.00,99.16
             1921.00,99.16 1898.00,96.54 1898.00,96.54
             1887.26,94.62 1882.45,91.06 1873.00,87.70
             1873.00,87.70 1850.00,81.45 1850.00,81.45
             1841.28,79.69 1832.93,78.48 1824.00,79.09
             1824.00,79.09 1813.00,80.00 1813.00,80.00
             1813.00,80.00 1793.00,78.32 1793.00,78.32
             1793.00,78.32 1782.00,79.00 1782.00,79.00
             1782.00,79.00 1752.00,80.29 1752.00,80.29
             1742.68,81.43 1733.44,84.20 1724.00,83.99
             1724.00,83.99 1712.00,83.00 1712.00,83.00
             1692.75,82.79 1664.98,87.99 1646.00,92.35
             1646.00,92.35 1618.00,99.34 1618.00,99.34
             1613.53,101.16 1607.94,106.79 1604.00,110.08
             1604.00,110.08 1573.00,134.54 1573.00,134.54
             1573.00,134.54 1554.00,143.27 1554.00,143.27
             1554.00,143.27 1533.00,153.94 1533.00,153.94
             1518.21,159.59 1502.57,164.04 1489.00,172.47
             1480.52,177.73 1479.48,182.69 1472.96,188.72
             1472.96,188.72 1460.05,200.17 1460.05,200.17
             1460.05,200.17 1453.74,207.16 1453.74,207.16
             1451.28,209.01 1449.26,208.73 1445.00,212.22
             1445.00,212.22 1424.00,231.49 1424.00,231.49
             1424.00,231.49 1405.00,244.90 1405.00,244.90
             1405.00,244.90 1386.00,261.00 1386.00,261.00
             1386.00,261.00 1361.01,280.30 1361.01,280.30
             1361.01,280.30 1352.91,288.99 1352.91,288.99
             1352.91,288.99 1344.17,297.09 1344.17,297.09
             1344.17,297.09 1333.72,309.00 1333.72,309.00
             1333.72,309.00 1321.82,322.79 1321.82,322.79
             1319.41,325.13 1316.83,326.02 1315.48,328.39
             1315.48,328.39 1312.78,335.00 1312.78,335.00
             1312.78,335.00 1306.41,344.00 1306.41,344.00
             1306.41,344.00 1301.63,355.00 1301.63,355.00
             1301.63,355.00 1292.78,371.00 1292.78,371.00
             1292.78,371.00 1287.74,382.00 1287.74,382.00
             1287.74,382.00 1274.55,410.00 1274.55,410.00
             1271.82,417.74 1274.29,419.49 1271.25,429.00
             1271.25,429.00 1260.92,460.00 1260.92,460.00
             1260.92,460.00 1256.25,482.00 1256.25,482.00
             1253.91,490.35 1251.90,492.08 1249.80,503.00
             1249.80,503.00 1248.71,515.00 1248.71,515.00
             1248.71,515.00 1245.06,535.00 1245.06,535.00
             1245.06,535.00 1245.06,547.00 1245.06,547.00
             1245.06,547.00 1240.10,572.00 1240.10,572.00
             1240.10,572.00 1240.10,582.00 1240.10,582.00
             1240.10,582.00 1237.84,604.00 1237.84,604.00
             1234.06,639.30 1228.50,674.54 1226.96,710.00
             1226.96,710.00 1226.00,723.00 1226.00,723.00
             1226.00,723.00 1226.00,742.00 1226.00,742.00
             1226.00,742.00 1224.96,752.00 1224.96,752.00
             1224.96,752.00 1224.96,761.00 1224.96,761.00
             1224.96,761.00 1224.18,767.00 1224.18,767.00
             1224.18,767.00 1226.00,790.00 1226.00,790.00
             1226.00,790.00 1225.00,810.00 1225.00,810.00
             1225.00,810.00 1227.00,832.00 1227.00,832.00
             1227.15,844.82 1230.29,866.69 1233.75,879.00
             1236.54,888.98 1242.61,898.30 1241.91,909.00
             1240.99,923.12 1234.23,936.80 1234.00,956.00
             1233.86,967.92 1231.33,975.21 1243.00,978.00 Z
           M 2448.00,839.00
           C 2448.00,839.00 2448.00,840.00 2448.00,840.00
             2448.00,840.00 2447.00,839.00 2447.00,839.00
             2447.00,839.00 2448.00,839.00 2448.00,839.00 Z
           M 2450.00,840.00
           C 2450.00,840.00 2450.00,841.00 2450.00,841.00
             2450.00,841.00 2449.00,840.00 2449.00,840.00
             2449.00,840.00 2450.00,840.00 2450.00,840.00 Z
           M 2452.00,854.00
           C 2452.00,854.00 2452.00,855.00 2452.00,855.00
             2452.00,855.00 2451.00,854.00 2451.00,854.00
             2451.00,854.00 2452.00,854.00 2452.00,854.00 Z
           M 2512.00,1727.00
           C 2512.00,1727.00 2512.00,1728.00 2512.00,1728.00
             2512.00,1728.00 2511.00,1727.00 2511.00,1727.00
             2511.00,1727.00 2512.00,1727.00 2512.00,1727.00 Z
           M 2513.00,1728.00
           C 2513.00,1728.00 2517.00,1730.00 2517.00,1730.00
             2517.00,1730.00 2516.00,1734.00 2516.00,1734.00
             2516.00,1734.00 2514.00,1734.00 2514.00,1734.00
             2514.00,1734.00 2513.00,1728.00 2513.00,1728.00 Z
           M 2516.00,1735.00
           C 2516.00,1735.00 2516.00,1736.00 2516.00,1736.00
             2516.00,1736.00 2515.00,1735.00 2515.00,1735.00
             2515.00,1735.00 2516.00,1735.00 2516.00,1735.00 Z
           M 2529.00,1755.00
           C 2529.00,1755.00 2523.00,1753.00 2523.00,1753.00
             2523.00,1753.00 2525.00,1748.00 2525.00,1748.00
             2528.45,1750.35 2528.51,1750.90 2529.00,1755.00 Z
           M 3864.00,1906.00
           C 3864.00,1906.00 3864.00,1911.00 3864.00,1911.00
             3864.00,1911.00 3867.00,1911.00 3867.00,1911.00
             3867.00,1911.00 3867.00,1906.00 3867.00,1906.00
             3867.00,1906.00 3864.00,1906.00 3864.00,1906.00 Z
           M 960.00,1937.00
           C 960.00,1937.00 960.00,1938.00 960.00,1938.00
             960.00,1938.00 959.00,1937.00 959.00,1937.00
             959.00,1937.00 960.00,1937.00 960.00,1937.00 Z
           M 3864.00,2001.00
           C 3864.00,2001.00 3864.00,2004.00 3864.00,2004.00
             3864.00,2004.00 3867.00,2004.00 3867.00,2004.00
             3867.00,2004.00 3867.00,2001.00 3867.00,2001.00
             3867.00,2001.00 3864.00,2001.00 3864.00,2001.00 Z
           M 3505.00,2200.00
           C 3505.00,2200.00 3505.00,2201.00 3505.00,2201.00
             3505.00,2201.00 3504.00,2200.00 3504.00,2200.00
             3504.00,2200.00 3505.00,2200.00 3505.00,2200.00 Z
           M 3552.00,2241.00
           C 3552.00,2241.00 3553.00,2244.00 3553.00,2244.00
             3553.00,2244.00 3555.00,2244.00 3555.00,2244.00
             3555.00,2244.00 3556.00,2241.00 3556.00,2241.00
             3556.00,2241.00 3552.00,2241.00 3552.00,2241.00 Z
           M 3864.00,2266.00
           C 3864.00,2266.00 3864.00,2270.00 3864.00,2270.00
             3864.00,2270.00 3867.00,2270.00 3867.00,2270.00
             3867.00,2270.00 3867.00,2266.00 3867.00,2266.00
             3867.00,2266.00 3864.00,2266.00 3864.00,2266.00 Z" />
</svg>
