<?xml version="1.0" encoding="UTF-8" standalone="no"?>
<!DOCTYPE svg PUBLIC "-//W3C//DTD SVG 20010904//EN"
              "http://www.w3.org/TR/2001/REC-SVG-20010904/DTD/svg10.dtd">

<svg xmlns="http://www.w3.org/2000/svg"
     width="12.6633in" height="14.0167in"
     viewBox="0 0 3799 4205">
  <path id="face"
        fill="none" stroke="black" stroke-width="1"
        d="M 1764.00,228.00
           C 1757.49,227.86 1754.68,230.73 1749.00,232.67
             1745.94,233.71 1744.69,233.45 1741.00,235.14
             1741.00,235.14 1735.17,238.30 1735.17,238.30
             1735.17,238.30 1729.91,239.74 1729.91,239.74
             1729.91,239.74 1724.28,241.96 1724.28,241.96
             1724.28,241.96 1716.00,244.47 1716.00,244.47
             1706.83,248.36 1700.21,253.05 1692.00,258.36
             1687.85,261.05 1681.66,263.85 1679.00,268.00
             1679.00,268.00 1673.00,269.00 1673.00,269.00
             1673.00,269.00 1673.00,270.00 1673.00,270.00
             1673.00,270.00 1675.00,270.00 1675.00,270.00
             1672.66,271.03 1668.08,272.62 1666.30,273.99
             1666.30,273.99 1661.70,278.88 1661.70,278.88
             1661.70,278.88 1653.01,283.10 1653.01,283.10
             1648.81,285.50 1648.01,287.79 1643.00,288.00
             1633.69,297.67 1626.99,297.53 1622.28,300.08
             1622.28,300.08 1612.00,306.75 1612.00,306.75
             1612.00,306.75 1601.09,312.95 1601.09,312.95
             1601.09,312.95 1596.07,314.80 1596.07,314.80
             1593.68,315.96 1593.21,317.63 1590.66,319.41
             1586.94,322.02 1582.48,323.54 1578.00,324.00
             1578.00,324.00 1579.00,327.00 1579.00,327.00
             1575.16,328.79 1570.96,330.61 1570.00,335.00
             1560.55,336.82 1563.65,337.25 1556.98,341.99
             1556.98,341.99 1546.42,348.53 1546.42,348.53
             1546.42,348.53 1537.79,357.91 1537.79,357.91
             1533.53,362.29 1531.08,361.48 1530.00,368.00
             1528.54,368.33 1527.75,368.32 1526.38,369.16
             1526.38,369.16 1515.17,380.08 1515.17,380.08
             1513.53,382.68 1513.84,384.29 1511.54,386.88
             1511.54,386.88 1501.62,397.09 1501.62,397.09
             1501.62,397.09 1491.46,414.83 1491.46,414.83
             1491.46,414.83 1481.44,427.10 1481.44,427.10
             1481.44,427.10 1477.68,436.00 1477.68,436.00
             1477.68,436.00 1473.14,443.28 1473.14,443.28
             1473.14,443.28 1467.18,455.58 1467.18,455.58
             1464.20,461.66 1466.82,462.87 1457.00,473.00
             1460.31,483.58 1450.60,485.32 1452.00,498.00
             1447.37,501.19 1448.48,506.99 1447.25,512.00
             1447.25,512.00 1441.70,529.00 1441.70,529.00
             1441.70,529.00 1439.61,540.00 1439.61,540.00
             1438.89,542.94 1438.24,543.76 1438.00,547.00
             1435.31,549.52 1434.33,560.95 1433.85,565.00
             1432.94,572.55 1430.52,581.90 1427.76,588.99
             1425.80,594.01 1424.32,593.00 1423.00,599.00
             1418.76,600.08 1419.84,603.38 1418.60,607.00
             1416.25,613.89 1412.84,616.08 1412.00,624.00
             1412.00,624.00 1407.00,625.00 1407.00,625.00
             1409.43,647.05 1398.12,656.95 1404.00,677.00
             1400.87,679.82 1402.71,682.25 1402.53,686.00
             1402.53,686.00 1401.28,692.99 1401.28,692.99
             1400.87,695.34 1401.29,696.96 1399.00,698.00
             1399.00,698.00 1397.00,727.00 1397.00,727.00
             1397.00,727.00 1395.17,753.00 1395.17,753.00
             1395.17,753.00 1393.33,775.00 1393.33,775.00
             1393.33,775.00 1393.33,787.17 1393.33,787.17
             1393.33,787.17 1393.33,794.00 1393.33,794.00
             1393.33,794.00 1392.00,813.00 1392.00,813.00
             1391.93,819.06 1391.92,821.84 1390.91,827.96
             1390.91,827.96 1389.60,834.17 1389.60,834.17
             1389.60,834.17 1389.60,841.00 1389.60,841.00
             1389.60,841.00 1388.29,850.00 1388.29,850.00
             1388.29,850.00 1387.15,870.00 1387.15,870.00
             1387.15,870.00 1387.15,895.00 1387.15,895.00
             1387.15,895.00 1389.95,909.00 1389.95,909.00
             1389.95,909.00 1392.71,916.00 1392.71,916.00
             1392.71,916.00 1394.41,929.91 1394.41,929.91
             1396.64,938.57 1406.17,948.71 1403.46,958.00
             1400.86,966.88 1394.64,968.08 1392.47,969.75
             1392.47,969.75 1383.00,979.00 1383.00,979.00
             1381.91,983.05 1380.02,983.05 1377.72,986.17
             1377.72,986.17 1375.13,990.63 1375.13,990.63
             1375.13,990.63 1371.35,995.21 1371.35,995.21
             1367.92,1000.35 1368.37,1003.38 1367.39,1009.00
             1366.85,1012.02 1366.87,1018.79 1364.00,1020.00
             1364.00,1020.00 1360.56,1025.37 1360.56,1025.37
             1360.56,1025.37 1360.00,1040.00 1360.00,1040.00
             1360.00,1040.00 1365.00,1040.00 1365.00,1040.00
             1365.00,1040.00 1367.47,1049.00 1367.47,1049.00
             1367.47,1049.00 1368.70,1057.00 1368.70,1057.00
             1368.70,1057.00 1371.63,1067.96 1371.63,1067.96
             1371.63,1067.96 1373.00,1082.00 1373.00,1082.00
             1373.00,1082.00 1371.00,1082.00 1371.00,1082.00
             1371.00,1082.00 1371.00,1083.00 1371.00,1083.00
             1371.00,1083.00 1368.00,1081.00 1368.00,1081.00
             1368.00,1081.00 1364.43,1090.00 1364.43,1090.00
             1364.43,1090.00 1363.74,1100.00 1363.74,1100.00
             1363.01,1104.55 1360.54,1107.53 1365.00,1111.00
             1365.00,1111.00 1366.00,1119.00 1366.00,1119.00
             1366.00,1119.00 1361.24,1121.00 1361.24,1121.00
             1361.24,1121.00 1361.24,1130.16 1361.24,1130.16
             1361.24,1130.16 1362.95,1136.42 1362.95,1136.42
             1362.95,1136.42 1358.43,1154.28 1358.43,1154.28
             1358.43,1154.28 1357.44,1164.91 1357.44,1164.91
             1357.44,1164.91 1353.00,1172.00 1353.00,1172.00
             1353.00,1172.00 1351.99,1168.00 1351.99,1168.00
             1350.56,1171.94 1352.12,1176.61 1351.99,1181.00
             1351.82,1186.02 1350.51,1187.45 1350.25,1189.83
             1350.46,1194.07 1353.10,1193.30 1350.25,1199.13
             1352.46,1199.59 1355.28,1200.37 1357.73,1199.13
             1360.35,1198.06 1362.34,1191.93 1367.50,1195.32
             1371.36,1197.85 1370.03,1205.72 1370.16,1210.00
             1370.22,1212.00 1370.19,1215.37 1373.04,1215.37
             1377.46,1215.37 1378.01,1205.74 1379.76,1201.00
             1379.76,1201.00 1396.00,1150.00 1396.00,1150.00
             1397.72,1156.06 1397.97,1173.08 1398.00,1180.00
             1398.00,1180.00 1398.91,1191.00 1398.91,1191.00
             1399.38,1197.49 1397.71,1203.78 1402.00,1209.00
             1398.35,1214.10 1403.11,1215.44 1405.40,1220.00
             1405.40,1220.00 1409.35,1235.00 1409.35,1235.00
             1410.10,1237.28 1411.24,1238.89 1410.00,1241.00
             1410.00,1241.00 1411.00,1245.00 1411.00,1245.00
             1411.00,1245.00 1415.00,1248.00 1415.00,1248.00
             1415.00,1248.00 1409.00,1248.00 1409.00,1248.00
             1411.64,1252.41 1413.30,1250.80 1417.00,1256.03
             1421.22,1262.01 1425.16,1268.52 1428.57,1274.99
             1428.57,1274.99 1431.56,1281.28 1431.56,1281.28
             1434.36,1285.86 1436.64,1286.85 1439.01,1290.15
             1439.01,1290.15 1444.51,1299.04 1444.51,1299.04
             1445.89,1302.22 1445.22,1304.95 1449.00,1306.00
             1449.57,1316.26 1452.86,1317.48 1458.88,1324.18
             1458.88,1324.18 1464.21,1330.98 1464.21,1330.98
             1464.21,1330.98 1470.51,1336.69 1470.51,1336.69
             1470.51,1336.69 1477.72,1345.44 1477.72,1345.44
             1480.70,1348.90 1485.29,1357.11 1488.44,1359.01
             1491.19,1360.66 1499.01,1360.22 1501.69,1362.02
             1505.32,1364.46 1503.22,1368.74 1507.00,1372.00
             1507.42,1375.77 1507.71,1376.12 1511.00,1378.00
             1506.63,1387.27 1513.14,1397.99 1511.00,1410.00
             1513.39,1410.94 1513.61,1413.52 1513.96,1416.00
             1514.81,1422.21 1511.25,1422.82 1516.00,1434.00
             1516.00,1434.00 1518.00,1433.00 1518.00,1433.00
             1518.00,1433.00 1520.19,1442.73 1520.19,1442.73
             1520.19,1442.73 1520.19,1453.00 1520.19,1453.00
             1520.19,1453.00 1523.15,1461.00 1523.15,1461.00
             1523.15,1461.00 1528.51,1485.00 1528.51,1485.00
             1529.60,1488.78 1534.19,1501.12 1532.00,1504.00
             1532.00,1504.00 1536.00,1504.00 1536.00,1504.00
             1534.35,1508.25 1533.74,1509.56 1538.00,1512.00
             1536.08,1514.83 1536.25,1514.67 1537.00,1518.00
             1537.00,1518.00 1540.00,1517.00 1540.00,1517.00
             1540.00,1517.00 1539.00,1520.00 1539.00,1520.00
             1542.56,1522.35 1542.20,1524.52 1544.28,1528.00
             1544.28,1528.00 1553.59,1541.00 1553.59,1541.00
             1553.59,1541.00 1584.85,1584.00 1584.85,1584.00
             1584.85,1584.00 1590.59,1592.83 1590.59,1592.83
             1590.59,1592.83 1595.71,1599.04 1595.71,1599.04
             1595.71,1599.04 1613.02,1624.00 1613.02,1624.00
             1613.02,1624.00 1633.98,1654.00 1633.98,1654.00
             1633.98,1654.00 1656.32,1686.00 1656.32,1686.00
             1656.32,1686.00 1689.00,1715.15 1689.00,1715.15
             1689.00,1715.15 1736.00,1755.25 1736.00,1755.25
             1736.00,1755.25 1785.00,1780.25 1785.00,1780.25
             1785.00,1780.25 1823.00,1799.45 1823.00,1799.45
             1823.00,1799.45 1842.00,1803.66 1842.00,1803.66
             1842.00,1803.66 1863.00,1809.72 1863.00,1809.72
             1863.00,1809.72 1906.00,1822.42 1906.00,1822.42
             1922.19,1827.15 1926.65,1830.20 1944.00,1830.00
             1944.00,1830.00 1953.00,1829.18 1953.00,1829.18
             1953.00,1829.18 1993.00,1833.16 1993.00,1833.16
             1993.00,1833.16 2039.00,1838.17 2039.00,1838.17
             2039.00,1838.17 2053.00,1840.66 2053.00,1840.66
             2053.00,1840.66 2072.00,1836.88 2072.00,1836.88
             2072.00,1836.88 2106.00,1829.21 2106.00,1829.21
             2106.00,1829.21 2150.00,1819.42 2150.00,1819.42
             2150.00,1819.42 2170.00,1815.74 2170.00,1815.74
             2170.00,1815.74 2203.00,1798.26 2203.00,1798.26
             2203.00,1798.26 2247.91,1774.90 2247.91,1774.90
             2251.85,1772.08 2258.68,1763.88 2262.17,1760.00
             2262.17,1760.00 2287.28,1732.00 2287.28,1732.00
             2290.83,1727.96 2298.22,1719.34 2302.00,1716.27
             2306.59,1712.53 2310.49,1711.81 2315.48,1705.91
             2315.48,1705.91 2335.34,1677.00 2335.34,1677.00
             2335.34,1677.00 2347.04,1660.01 2347.04,1660.01
             2347.04,1660.01 2351.09,1654.58 2351.09,1654.58
             2353.15,1651.05 2353.35,1646.77 2354.68,1643.00
             2354.68,1643.00 2361.42,1630.00 2361.42,1630.00
             2361.42,1630.00 2409.80,1543.00 2409.80,1543.00
             2409.80,1543.00 2424.72,1518.00 2424.72,1518.00
             2427.35,1513.39 2430.03,1510.44 2430.00,1505.00
             2440.21,1499.55 2435.22,1481.90 2447.00,1476.00
             2447.00,1476.00 2445.00,1471.00 2445.00,1471.00
             2445.00,1471.00 2451.66,1454.83 2451.66,1454.83
             2451.66,1454.83 2454.79,1430.00 2454.79,1430.00
             2454.79,1430.00 2458.04,1422.00 2458.04,1422.00
             2458.04,1422.00 2464.08,1402.96 2464.08,1402.96
             2464.08,1402.96 2464.08,1396.00 2464.08,1396.00
             2464.08,1396.00 2465.51,1389.00 2465.51,1389.00
             2465.63,1382.96 2462.13,1371.93 2468.00,1368.00
             2468.00,1368.00 2466.00,1360.00 2466.00,1360.00
             2466.00,1360.00 2470.00,1362.00 2470.00,1362.00
             2470.00,1362.00 2471.00,1349.00 2471.00,1349.00
             2471.00,1349.00 2472.00,1351.00 2472.00,1351.00
             2472.00,1351.00 2474.01,1346.41 2474.01,1346.41
             2477.27,1342.03 2485.40,1341.87 2490.00,1340.11
             2493.28,1338.86 2495.85,1336.15 2499.00,1334.36
             2502.63,1332.30 2505.41,1332.06 2508.87,1329.14
             2515.38,1323.65 2518.83,1312.53 2522.23,1305.00
             2522.23,1305.00 2533.00,1287.00 2533.00,1287.00
             2533.00,1287.00 2531.00,1288.00 2531.00,1288.00
             2531.00,1288.00 2534.00,1286.00 2534.00,1286.00
             2534.00,1286.00 2534.00,1285.00 2534.00,1285.00
             2534.00,1285.00 2532.00,1283.00 2532.00,1283.00
             2532.00,1283.00 2536.00,1282.00 2536.00,1282.00
             2536.01,1269.18 2537.65,1274.15 2540.49,1266.00
             2540.49,1266.00 2542.47,1259.00 2542.47,1259.00
             2542.47,1259.00 2550.40,1240.00 2550.40,1240.00
             2550.40,1240.00 2556.02,1223.39 2556.02,1223.39
             2558.93,1218.98 2567.09,1219.63 2570.21,1213.87
             2574.53,1205.91 2572.20,1202.01 2572.01,1194.00
             2571.80,1184.36 2573.09,1186.53 2575.21,1179.00
             2575.21,1179.00 2576.87,1168.00 2576.87,1168.00
             2576.87,1168.00 2581.08,1160.00 2581.08,1160.00
             2581.08,1160.00 2586.76,1145.27 2586.76,1145.27
             2588.47,1141.01 2589.92,1140.08 2589.53,1135.00
             2589.53,1135.00 2589.00,1129.00 2589.00,1129.00
             2594.94,1128.19 2595.41,1120.85 2596.81,1116.00
             2596.81,1116.00 2613.00,1081.00 2613.00,1081.00
             2624.07,1086.25 2629.42,1101.39 2640.00,1105.00
             2640.00,1105.00 2646.00,1073.00 2646.00,1073.00
             2638.84,1075.95 2640.91,1068.37 2641.00,1064.00
             2633.20,1064.37 2630.20,1054.44 2630.00,1048.00
             2630.00,1048.00 2629.00,1054.00 2629.00,1054.00
             2629.00,1054.00 2625.00,1048.00 2625.00,1048.00
             2625.00,1048.00 2628.00,1045.00 2628.00,1045.00
             2622.50,1041.72 2626.39,1039.82 2624.00,1030.00
             2624.00,1030.00 2627.00,1029.00 2627.00,1029.00
             2627.00,1029.00 2625.23,1020.04 2625.23,1020.04
             2625.23,1020.04 2629.44,1005.00 2629.44,1005.00
             2629.44,1005.00 2632.45,994.09 2632.45,994.09
             2632.45,994.09 2633.46,986.96 2633.46,986.96
             2633.46,986.96 2635.87,980.00 2635.87,980.00
             2637.27,973.95 2636.48,973.37 2636.57,968.00
             2636.77,956.50 2636.07,952.97 2633.15,942.00
             2633.15,942.00 2631.53,936.37 2631.53,936.37
             2630.76,934.80 2628.56,932.60 2627.33,931.18
             2621.17,924.06 2613.88,918.14 2604.00,918.00
             2591.82,917.84 2594.27,917.65 2583.00,921.10
             2583.00,921.10 2577.26,922.58 2577.26,922.58
             2574.15,923.99 2574.81,925.78 2569.98,927.01
             2562.04,929.06 2560.55,926.61 2554.00,927.01
             2554.00,927.01 2553.00,923.00 2553.00,923.00
             2553.00,923.00 2552.00,927.00 2552.00,927.00
             2550.74,925.67 2544.83,917.42 2544.52,915.95
             2543.32,910.31 2546.41,905.03 2548.09,899.96
             2548.09,899.96 2552.56,880.00 2552.56,880.00
             2552.56,880.00 2553.29,871.00 2553.29,871.00
             2553.29,871.00 2556.86,847.17 2556.86,847.17
             2556.86,847.17 2556.86,818.00 2556.86,818.00
             2556.86,818.00 2556.86,773.00 2556.86,773.00
             2556.86,773.00 2553.72,736.00 2553.72,736.00
             2553.29,732.45 2553.96,725.23 2550.00,724.00
             2550.00,724.00 2543.00,701.00 2543.00,701.00
             2539.13,699.78 2534.81,689.91 2533.50,686.00
             2533.50,686.00 2531.46,678.00 2531.46,678.00
             2531.46,678.00 2526.62,665.00 2526.62,665.00
             2526.62,665.00 2524.00,654.00 2524.00,654.00
             2524.00,654.00 2521.12,648.00 2521.12,648.00
             2521.12,648.00 2519.47,642.00 2519.47,642.00
             2518.00,637.49 2515.90,636.27 2516.00,631.00
             2510.54,625.62 2510.12,617.27 2507.82,610.17
             2507.00,607.64 2504.58,604.39 2503.10,602.00
             2501.48,599.39 2500.00,594.67 2497.00,594.00
             2497.00,594.00 2487.03,565.58 2487.03,565.58
             2487.03,565.58 2484.96,556.05 2484.96,556.05
             2484.96,556.05 2478.97,546.00 2478.97,546.00
             2478.97,546.00 2471.00,526.00 2471.00,526.00
             2471.27,520.26 2467.88,516.26 2465.74,511.00
             2465.74,511.00 2463.10,503.00 2463.10,503.00
             2463.10,503.00 2458.07,494.00 2458.07,494.00
             2458.07,494.00 2456.18,487.17 2456.18,487.17
             2456.18,487.17 2454.06,482.83 2454.06,482.83
             2451.72,477.21 2454.03,471.89 2447.00,468.00
             2447.00,468.00 2443.00,446.00 2443.00,446.00
             2443.00,446.00 2440.00,447.00 2440.00,447.00
             2440.00,447.00 2435.46,435.00 2435.46,435.00
             2435.46,435.00 2432.50,429.00 2432.50,429.00
             2432.50,429.00 2426.06,410.09 2426.06,410.09
             2422.93,402.55 2423.03,409.64 2420.00,393.00
             2420.00,393.00 2417.00,394.00 2417.00,394.00
             2417.00,394.00 2406.00,372.99 2406.00,372.99
             2406.00,372.99 2400.11,360.00 2400.11,360.00
             2400.11,360.00 2390.30,345.16 2390.30,345.16
             2390.30,345.16 2385.09,340.60 2385.09,340.60
             2385.09,340.60 2380.07,334.10 2380.07,334.10
             2380.07,334.10 2373.00,327.00 2373.00,327.00
             2373.00,327.00 2371.00,328.00 2371.00,328.00
             2367.04,317.07 2363.62,320.10 2353.04,308.44
             2353.04,308.44 2345.62,299.58 2345.62,299.58
             2345.62,299.58 2332.29,290.49 2332.29,290.49
             2332.29,290.49 2323.49,282.59 2323.49,282.59
             2323.49,282.59 2317.17,279.57 2317.17,279.57
             2314.87,277.93 2312.94,274.99 2307.00,271.17
             2307.00,271.17 2272.42,251.07 2272.42,251.07
             2257.94,241.61 2254.46,245.39 2248.00,237.00
             2248.00,237.00 2246.00,239.00 2246.00,239.00
             2246.00,239.00 2240.00,232.00 2240.00,232.00
             2233.52,231.81 2232.53,229.57 2227.16,226.89
             2227.16,226.89 2219.16,223.02 2219.16,223.02
             2219.16,223.02 2212.96,218.72 2212.96,218.72
             2209.26,216.50 2200.01,211.81 2196.00,210.38
             2184.25,206.19 2171.33,204.36 2159.00,202.87
             2159.00,202.87 2151.00,202.24 2151.00,202.24
             2151.00,202.24 2127.00,196.11 2127.00,196.11
             2127.00,196.11 2118.00,192.63 2118.00,192.63
             2118.00,192.63 2110.05,191.57 2110.05,191.57
             2107.19,190.77 2105.44,188.32 2102.89,186.89
             2102.89,186.89 2086.00,178.50 2086.00,178.50
             2086.00,178.50 2076.00,175.24 2076.00,175.24
             2076.00,175.24 2063.00,170.45 2063.00,170.45
             2063.00,170.45 2036.00,167.96 2036.00,167.96
             2036.00,167.96 2026.00,167.18 2026.00,167.18
             2010.71,168.26 1995.30,165.98 1980.00,164.91
             1980.00,164.91 1972.00,164.08 1972.00,164.08
             1972.00,164.08 1946.00,168.00 1946.00,168.00
             1946.00,168.00 1933.00,167.00 1933.00,167.00
             1933.00,167.00 1921.00,167.00 1921.00,167.00
             1921.00,167.00 1912.00,165.72 1912.00,165.72
             1906.11,165.70 1903.92,167.61 1899.00,167.95
             1899.00,167.95 1882.00,169.17 1882.00,169.17
             1882.00,169.17 1874.00,170.70 1874.00,170.70
             1874.00,170.70 1866.00,171.61 1866.00,171.61
             1866.00,171.61 1856.00,174.98 1856.00,174.98
             1856.00,174.98 1849.28,177.18 1849.28,177.18
             1841.38,180.82 1832.35,187.52 1826.78,194.21
             1826.78,194.21 1812.73,211.20 1812.73,211.20
             1809.82,213.25 1805.40,213.76 1802.00,214.77
             1802.00,214.77 1779.07,220.27 1779.07,220.27
             1779.07,220.27 1773.83,223.10 1773.83,223.10
             1769.75,224.99 1767.04,223.95 1764.00,228.00 Z
           M 1460.00,472.00
           C 1460.00,472.00 1460.00,473.00 1460.00,473.00
             1460.00,473.00 1459.00,472.00 1459.00,472.00
             1459.00,472.00 1460.00,472.00 1460.00,472.00 Z
           M 1454.00,490.00
           C 1454.00,490.00 1454.00,491.00 1454.00,491.00
             1454.00,491.00 1453.00,490.00 1453.00,490.00
             1453.00,490.00 1454.00,490.00 1454.00,490.00 Z
           M 1422.00,600.00
           C 1422.00,600.00 1422.00,601.00 1422.00,601.00
             1422.00,601.00 1421.00,600.00 1421.00,600.00
             1421.00,600.00 1422.00,600.00 1422.00,600.00 Z
           M 1409.00,627.00
           C 1409.00,627.00 1409.00,628.00 1409.00,628.00
             1409.00,628.00 1408.00,627.00 1408.00,627.00
             1408.00,627.00 1409.00,627.00 1409.00,627.00 Z
           M 1405.00,641.00
           C 1405.00,641.00 1405.00,642.00 1405.00,642.00
             1405.00,642.00 1406.00,641.00 1406.00,641.00
             1406.00,641.00 1405.00,641.00 1405.00,641.00 Z
           M 1391.00,907.00
           C 1391.00,907.00 1391.00,908.00 1391.00,908.00
             1391.00,908.00 1390.00,907.00 1390.00,907.00
             1390.00,907.00 1391.00,907.00 1391.00,907.00 Z
           M 2624.00,1053.00
           C 2624.00,1053.00 2624.00,1054.00 2624.00,1054.00
             2624.00,1054.00 2623.00,1053.00 2623.00,1053.00
             2623.00,1053.00 2624.00,1053.00 2624.00,1053.00 Z
           M 2609.00,1087.00
           C 2609.00,1087.00 2609.00,1088.00 2609.00,1088.00
             2609.00,1088.00 2608.00,1087.00 2608.00,1087.00
             2608.00,1087.00 2609.00,1087.00 2609.00,1087.00 Z
           M 2592.00,1129.00
           C 2592.00,1129.00 2592.00,1130.00 2592.00,1130.00
             2592.00,1130.00 2593.00,1129.00 2593.00,1129.00
             2593.00,1129.00 2592.00,1129.00 2592.00,1129.00 Z
           M 1376.00,1198.00
           C 1376.00,1198.00 1376.00,1199.00 1376.00,1199.00
             1376.00,1199.00 1375.00,1198.00 1375.00,1198.00
             1375.00,1198.00 1376.00,1198.00 1376.00,1198.00 Z
           M 2535.00,1285.00
           C 2535.00,1285.00 2535.00,1286.00 2535.00,1286.00
             2535.00,1286.00 2536.00,1285.00 2536.00,1285.00
             2536.00,1285.00 2535.00,1285.00 2535.00,1285.00 Z
           M 2481.00,1340.00
           C 2481.00,1340.00 2481.00,1341.00 2481.00,1341.00
             2481.00,1341.00 2480.00,1340.00 2480.00,1340.00
             2480.00,1340.00 2481.00,1340.00 2481.00,1340.00 Z
           M 2467.00,1390.00
           C 2467.00,1390.00 2467.00,1391.00 2467.00,1391.00
             2467.00,1391.00 2468.00,1390.00 2468.00,1390.00
             2468.00,1390.00 2467.00,1390.00 2467.00,1390.00 Z" />
  <path id="profile"
        fill="none" stroke="black" stroke-width="1"
        d="M 1764.00,228.00
           C 1757.49,227.86 1754.68,230.73 1749.00,232.67
             1745.94,233.71 1744.69,233.45 1741.00,235.14
             1741.00,235.14 1735.17,238.30 1735.17,238.30
             1735.17,238.30 1729.91,239.74 1729.91,239.74
             1729.91,239.74 1724.28,241.96 1724.28,241.96
             1724.28,241.96 1716.00,244.47 1716.00,244.47
             1706.83,248.36 1700.21,253.05 1692.00,258.36
             1687.85,261.05 1681.66,263.85 1679.00,268.00
             1679.00,268.00 1673.00,269.00 1673.00,269.00
             1673.00,269.00 1673.00,270.00 1673.00,270.00
             1673.00,270.00 1675.00,270.00 1675.00,270.00
             1672.66,271.03 1668.08,272.62 1666.30,273.99
             1666.30,273.99 1661.70,278.88 1661.70,278.88
             1661.70,278.88 1653.01,283.10 1653.01,283.10
             1648.81,285.50 1648.01,287.79 1643.00,288.00
             1633.69,297.67 1626.99,297.53 1622.28,300.08
             1622.28,300.08 1612.00,306.75 1612.00,306.75
             1612.00,306.75 1601.09,312.95 1601.09,312.95
             1601.09,312.95 1596.07,314.80 1596.07,314.80
             1593.68,315.96 1593.21,317.63 1590.66,319.41
             1586.94,322.02 1582.48,323.54 1578.00,324.00
             1578.00,324.00 1579.00,327.00 1579.00,327.00
             1575.16,328.79 1570.96,330.61 1570.00,335.00
             1560.55,336.82 1563.65,337.25 1556.98,341.99
             1556.98,341.99 1546.42,348.53 1546.42,348.53
             1546.42,348.53 1537.79,357.91 1537.79,357.91
             1533.53,362.29 1531.08,361.48 1530.00,368.00
             1528.54,368.33 1527.75,368.32 1526.38,369.16
             1526.38,369.16 1515.17,380.08 1515.17,380.08
             1513.53,382.68 1513.84,384.29 1511.54,386.88
             1511.54,386.88 1501.62,397.09 1501.62,397.09
             1501.62,397.09 1491.46,414.83 1491.46,414.83
             1491.46,414.83 1481.44,427.10 1481.44,427.10
             1481.44,427.10 1477.68,436.00 1477.68,436.00
             1477.68,436.00 1473.14,443.28 1473.14,443.28
             1473.14,443.28 1467.18,455.58 1467.18,455.58
             1464.25,461.54 1466.81,462.87 1457.00,473.00
             1460.31,483.58 1450.60,485.32 1452.00,498.00
             1447.37,501.19 1448.48,506.99 1447.25,512.00
             1447.25,512.00 1441.70,529.00 1441.70,529.00
             1441.70,529.00 1439.61,540.00 1439.61,540.00
             1438.89,542.94 1438.24,543.76 1438.00,547.00
             1435.31,549.52 1434.33,560.95 1433.85,565.00
             1432.94,572.55 1430.52,581.90 1427.76,588.99
             1425.80,594.01 1424.32,593.00 1423.00,599.00
             1418.76,600.08 1419.84,603.38 1418.60,607.00
             1416.25,613.89 1412.84,616.08 1412.00,624.00
             1412.00,624.00 1407.00,625.00 1407.00,625.00
             1409.43,647.05 1398.12,656.95 1404.00,677.00
             1400.87,679.82 1402.71,682.25 1402.53,686.00
             1402.53,686.00 1401.28,692.99 1401.28,692.99
             1400.87,695.34 1401.29,696.96 1399.00,698.00
             1399.00,698.00 1397.00,727.00 1397.00,727.00
             1397.00,727.00 1395.17,753.00 1395.17,753.00
             1395.17,753.00 1393.33,775.00 1393.33,775.00
             1393.33,775.00 1393.33,787.17 1393.33,787.17
             1393.33,787.17 1393.33,794.00 1393.33,794.00
             1393.33,794.00 1392.00,813.00 1392.00,813.00
             1391.93,819.06 1391.92,821.84 1390.91,827.96
             1390.91,827.96 1389.60,834.17 1389.60,834.17
             1389.60,834.17 1389.60,841.00 1389.60,841.00
             1389.60,841.00 1388.29,850.00 1388.29,850.00
             1388.29,850.00 1387.15,870.00 1387.15,870.00
             1387.15,870.00 1387.15,895.00 1387.15,895.00
             1387.15,895.00 1389.95,909.00 1389.95,909.00
             1389.95,909.00 1392.71,916.00 1392.71,916.00
             1392.71,916.00 1394.41,929.91 1394.41,929.91
             1396.64,938.57 1406.17,948.71 1403.46,958.00
             1400.86,966.88 1394.64,968.08 1392.47,969.75
             1392.47,969.75 1383.00,979.00 1383.00,979.00
             1381.91,983.05 1380.02,983.05 1377.72,986.17
             1377.72,986.17 1375.13,990.63 1375.13,990.63
             1375.13,990.63 1371.35,995.21 1371.35,995.21
             1367.92,1000.35 1368.37,1003.38 1367.39,1009.00
             1366.85,1012.02 1366.87,1018.79 1364.00,1020.00
             1364.00,1020.00 1360.56,1025.37 1360.56,1025.37
             1360.56,1025.37 1360.00,1040.00 1360.00,1040.00
             1360.00,1040.00 1365.00,1040.00 1365.00,1040.00
             1365.00,1040.00 1367.47,1049.00 1367.47,1049.00
             1367.47,1049.00 1368.70,1057.00 1368.70,1057.00
             1368.70,1057.00 1371.62,1067.96 1371.62,1067.96
             1371.62,1067.96 1373.00,1082.00 1373.00,1082.00
             1373.00,1082.00 1371.00,1082.00 1371.00,1082.00
             1371.00,1082.00 1371.00,1083.00 1371.00,1083.00
             1371.00,1083.00 1368.00,1081.00 1368.00,1081.00
             1368.00,1081.00 1364.43,1090.00 1364.43,1090.00
             1364.43,1090.00 1363.74,1100.00 1363.74,1100.00
             1363.01,1104.55 1360.54,1107.53 1365.00,1111.00
             1365.00,1111.00 1366.00,1119.00 1366.00,1119.00
             1366.00,1119.00 1361.24,1121.00 1361.24,1121.00
             1361.24,1121.00 1361.24,1130.16 1361.24,1130.16
             1361.24,1130.16 1362.95,1136.42 1362.95,1136.42
             1362.95,1136.42 1358.43,1154.28 1358.43,1154.28
             1358.43,1154.28 1357.44,1164.91 1357.44,1164.91
             1357.44,1164.91 1353.00,1172.00 1353.00,1172.00
             1353.00,1172.00 1351.99,1168.00 1351.99,1168.00
             1350.56,1171.94 1352.12,1176.61 1351.99,1181.00
             1351.82,1186.02 1350.51,1187.45 1350.25,1189.83
             1350.46,1194.07 1353.10,1193.30 1350.25,1199.13
             1352.46,1199.59 1355.28,1200.37 1357.73,1199.13
             1360.35,1198.06 1362.34,1191.93 1367.50,1195.32
             1371.36,1197.85 1370.03,1205.72 1370.16,1210.00
             1370.22,1212.00 1370.19,1215.37 1373.04,1215.37
             1377.46,1215.37 1378.01,1205.74 1379.76,1201.00
             1379.76,1201.00 1396.00,1150.00 1396.00,1150.00
             1397.72,1156.06 1397.97,1173.08 1398.00,1180.00
             1398.00,1180.00 1398.91,1191.00 1398.91,1191.00
             1399.38,1197.49 1397.71,1203.78 1402.00,1209.00
             1398.35,1214.10 1403.11,1215.44 1405.40,1220.00
             1405.40,1220.00 1409.35,1235.00 1409.35,1235.00
             1410.10,1237.28 1411.24,1238.89 1410.00,1241.00
             1410.00,1241.00 1411.00,1245.00 1411.00,1245.00
             1411.00,1245.00 1415.00,1248.00 1415.00,1248.00
             1415.00,1248.00 1409.00,1248.00 1409.00,1248.00
             1411.63,1252.40 1413.37,1250.89 1417.00,1256.03
             1421.22,1262.01 1425.16,1268.52 1428.57,1274.99
             1428.57,1274.99 1431.56,1281.28 1431.56,1281.28
             1434.36,1285.86 1436.64,1286.85 1439.01,1290.15
             1439.01,1290.15 1444.51,1299.04 1444.51,1299.04
             1445.89,1302.22 1445.22,1304.95 1449.00,1306.00
             1449.57,1316.26 1452.86,1317.48 1458.88,1324.18
             1458.88,1324.18 1464.21,1330.98 1464.21,1330.98
             1464.21,1330.98 1470.51,1336.69 1470.51,1336.69
             1470.51,1336.69 1477.72,1345.44 1477.72,1345.44
             1480.70,1348.90 1485.29,1357.11 1488.44,1359.01
             1491.19,1360.66 1499.01,1360.22 1501.69,1362.02
             1505.32,1364.46 1503.22,1368.74 1507.00,1372.00
             1507.42,1375.77 1507.71,1376.12 1511.00,1378.00
             1506.63,1387.27 1513.14,1397.99 1511.00,1410.00
             1513.39,1410.94 1513.61,1413.52 1513.96,1416.00
             1514.81,1422.21 1511.25,1422.82 1516.00,1434.00
             1516.00,1434.00 1518.00,1433.00 1518.00,1433.00
             1518.00,1433.00 1520.18,1442.72 1520.18,1442.72
             1520.18,1442.72 1520.18,1453.00 1520.18,1453.00
             1520.18,1453.00 1523.15,1461.00 1523.15,1461.00
             1523.15,1461.00 1528.51,1485.00 1528.51,1485.00
             1529.60,1488.78 1534.19,1501.12 1532.00,1504.00
             1532.00,1504.00 1536.00,1504.00 1536.00,1504.00
             1534.35,1508.25 1533.74,1509.56 1538.00,1512.00
             1538.00,1512.00 1535.00,1519.00 1535.00,1519.00
             1535.00,1519.00 1540.00,1517.00 1540.00,1517.00
             1540.00,1517.00 1538.00,1528.00 1538.00,1528.00
             1538.00,1528.00 1539.00,1520.00 1539.00,1520.00
             1539.00,1520.00 1542.00,1520.00 1542.00,1520.00
             1542.02,1527.58 1544.52,1533.34 1548.00,1540.00
             1548.00,1540.00 1544.00,1541.00 1544.00,1541.00
             1544.00,1541.00 1546.00,1548.00 1546.00,1548.00
             1546.00,1548.00 1552.00,1548.00 1552.00,1548.00
             1552.00,1548.00 1552.00,1552.00 1552.00,1552.00
             1552.00,1552.00 1556.00,1552.00 1556.00,1552.00
             1552.50,1555.71 1550.98,1555.23 1549.90,1556.78
             1548.92,1558.20 1548.92,1561.30 1549.06,1562.98
             1549.49,1568.11 1551.76,1567.62 1556.00,1568.00
             1553.59,1572.63 1553.99,1573.21 1556.00,1578.00
             1556.00,1578.00 1561.00,1577.00 1561.00,1577.00
             1561.00,1577.00 1564.00,1583.00 1564.00,1583.00
             1564.00,1583.00 1560.00,1584.00 1560.00,1584.00
             1560.00,1584.00 1561.00,1590.00 1561.00,1590.00
             1561.00,1590.00 1564.00,1592.00 1564.00,1592.00
             1564.00,1592.00 1565.00,1592.00 1565.00,1592.00
             1565.00,1592.00 1565.00,1590.00 1565.00,1590.00
             1565.00,1590.00 1568.46,1615.00 1568.46,1615.00
             1568.46,1615.00 1574.00,1628.00 1574.00,1628.00
             1574.00,1628.00 1572.00,1629.00 1572.00,1629.00
             1572.00,1629.00 1569.00,1628.00 1569.00,1628.00
             1569.00,1628.00 1568.00,1632.00 1568.00,1632.00
             1568.00,1632.00 1572.00,1632.00 1572.00,1632.00
             1572.00,1632.00 1570.85,1645.79 1570.85,1645.79
             1570.85,1645.79 1574.93,1654.02 1574.93,1654.02
             1574.93,1654.02 1574.14,1675.00 1574.14,1675.00
             1574.14,1675.00 1577.48,1685.00 1577.48,1685.00
             1577.48,1685.00 1580.00,1696.00 1580.00,1696.00
             1580.00,1696.00 1578.00,1696.00 1578.00,1696.00
             1580.93,1701.24 1579.98,1707.14 1579.99,1713.00
             1580.01,1715.49 1580.46,1720.92 1579.99,1722.91
             1579.28,1725.83 1578.10,1725.78 1577.00,1731.00
             1577.00,1731.00 1578.00,1728.00 1578.00,1728.00
             1578.00,1728.00 1580.62,1732.18 1580.62,1732.18
             1580.62,1732.18 1580.62,1746.83 1580.62,1746.83
             1580.62,1746.83 1576.96,1753.04 1576.96,1753.04
             1576.96,1753.04 1575.00,1759.00 1575.00,1759.00
             1575.00,1759.00 1575.00,1773.00 1575.00,1773.00
             1579.67,1774.55 1580.58,1781.68 1579.93,1786.00
             1579.93,1786.00 1578.10,1794.00 1578.10,1794.00
             1578.10,1794.00 1577.29,1811.00 1577.29,1811.00
             1576.42,1816.30 1574.66,1817.59 1574.00,1824.00
             1574.00,1824.00 1568.00,1825.00 1568.00,1825.00
             1568.00,1825.00 1572.00,1826.00 1572.00,1826.00
             1571.59,1831.41 1569.81,1831.58 1568.50,1836.00
             1566.86,1841.54 1566.69,1851.84 1563.00,1856.00
             1563.00,1856.00 1562.00,1852.00 1562.00,1852.00
             1559.57,1852.92 1552.23,1856.39 1550.32,1857.87
             1545.51,1861.61 1546.70,1864.34 1538.00,1866.00
             1536.44,1875.67 1526.88,1878.98 1521.93,1886.25
             1519.01,1890.53 1521.34,1893.44 1515.00,1895.00
             1515.00,1895.00 1516.00,1898.00 1516.00,1898.00
             1516.00,1898.00 1508.92,1905.09 1508.92,1905.09
             1508.92,1905.09 1493.74,1916.94 1493.74,1916.94
             1493.74,1916.94 1478.96,1922.54 1478.96,1922.54
             1478.96,1922.54 1456.00,1932.00 1456.00,1932.00
             1456.00,1932.00 1456.00,1930.00 1456.00,1930.00
             1456.00,1930.00 1452.00,1931.00 1452.00,1931.00
             1452.00,1931.00 1456.00,1932.00 1456.00,1932.00
             1456.00,1932.00 1446.00,1936.46 1446.00,1936.46
             1446.00,1936.46 1436.00,1939.95 1436.00,1939.95
             1436.00,1939.95 1425.00,1944.00 1425.00,1944.00
             1420.99,1947.85 1418.20,1947.21 1413.00,1949.78
             1413.00,1949.78 1391.00,1959.46 1391.00,1959.46
             1385.29,1961.75 1381.28,1964.00 1375.00,1963.00
             1374.01,1965.58 1371.57,1965.71 1369.00,1966.50
             1369.00,1966.50 1352.00,1970.90 1352.00,1970.90
             1352.00,1970.90 1340.00,1974.04 1340.00,1974.04
             1340.00,1974.04 1331.00,1978.34 1331.00,1978.34
             1327.19,1979.61 1325.16,1978.73 1321.00,1980.42
             1321.00,1980.42 1309.00,1986.03 1309.00,1986.03
             1303.46,1987.93 1292.26,1990.24 1289.00,1995.00
             1284.79,1995.24 1275.05,2001.11 1271.00,2003.50
             1271.00,2003.50 1249.71,2017.64 1249.71,2017.64
             1249.71,2017.64 1243.28,2021.46 1243.28,2021.46
             1243.28,2021.46 1235.45,2027.62 1235.45,2027.62
             1235.45,2027.62 1231.74,2031.38 1231.74,2031.38
             1226.32,2035.84 1217.43,2038.76 1215.00,2046.00
             1215.00,2046.00 1213.00,2044.00 1213.00,2044.00
             1213.00,2044.00 1203.00,2054.00 1203.00,2054.00
             1192.72,2050.14 1190.28,2052.69 1181.83,2058.25
             1181.83,2058.25 1175.09,2062.24 1175.09,2062.24
             1175.09,2062.24 1168.39,2067.44 1168.39,2067.44
             1165.14,2069.64 1156.27,2074.77 1154.31,2077.11
             1151.67,2080.26 1152.01,2083.17 1152.00,2087.00
             1146.16,2086.43 1131.46,2089.55 1126.00,2091.80
             1126.00,2091.80 1119.00,2095.16 1119.00,2095.16
             1119.00,2095.16 1103.00,2099.90 1103.00,2099.90
             1103.00,2099.90 1092.00,2104.22 1092.00,2104.22
             1092.00,2104.22 1083.00,2106.73 1083.00,2106.73
             1078.62,2107.92 1077.99,2109.81 1073.00,2110.00
             1069.37,2113.36 1061.85,2115.16 1057.00,2116.55
             1057.00,2116.55 1039.00,2122.50 1039.00,2122.50
             1039.00,2122.50 1028.00,2125.63 1028.00,2125.63
             1019.04,2128.73 1013.47,2134.74 1007.91,2137.18
             1003.99,2138.90 1002.82,2138.57 1000.00,2139.54
             1000.00,2139.54 993.00,2142.86 993.00,2142.86
             993.00,2142.86 983.00,2145.62 983.00,2145.62
             983.00,2145.62 963.00,2154.08 963.00,2154.08
             959.38,2155.51 957.20,2154.61 954.00,2155.43
             951.58,2156.04 948.46,2158.00 946.00,2159.11
             939.89,2161.89 930.65,2165.32 927.00,2171.00
             921.24,2169.96 908.28,2174.92 905.00,2180.00
             905.00,2180.00 903.00,2179.00 903.00,2179.00
             900.93,2180.79 887.97,2188.45 885.28,2189.66
             885.28,2189.66 878.99,2191.97 878.99,2191.97
             878.99,2191.97 868.00,2197.08 868.00,2197.08
             868.00,2197.08 861.42,2201.81 861.42,2201.81
             861.42,2201.81 853.04,2206.02 853.04,2206.02
             847.11,2209.75 842.33,2217.64 833.00,2218.00
             833.00,2218.00 815.00,2234.00 815.00,2234.00
             808.72,2233.48 802.45,2238.81 797.00,2241.70
             797.00,2241.70 781.09,2250.35 781.09,2250.35
             781.09,2250.35 768.00,2259.93 768.00,2259.93
             762.13,2263.72 755.90,2266.91 750.63,2271.45
             750.63,2271.45 735.77,2283.13 735.77,2283.13
             734.79,2284.77 735.18,2285.07 735.00,2286.00
             735.00,2286.00 730.00,2287.00 730.00,2287.00
             724.97,2294.00 721.02,2295.41 715.21,2301.00
             713.22,2302.92 711.93,2305.46 709.78,2306.85
             705.27,2309.75 694.80,2313.26 694.00,2319.00
             685.45,2322.55 681.60,2326.21 674.59,2331.83
             674.59,2331.83 670.79,2335.18 670.79,2335.18
             664.83,2339.24 661.30,2336.60 658.00,2346.00
             653.52,2344.88 651.03,2345.00 650.00,2350.00
             650.00,2350.00 629.01,2364.33 629.01,2364.33
             629.01,2364.33 620.00,2371.00 620.00,2371.00
             616.73,2375.01 608.55,2385.69 604.00,2387.00
             604.00,2387.00 603.00,2388.00 603.00,2388.00
             603.00,2388.00 604.00,2390.00 604.00,2390.00
             604.00,2390.00 579.00,2413.00 579.00,2413.00
             579.00,2413.00 580.00,2415.00 580.00,2415.00
             567.08,2419.99 563.58,2434.97 548.00,2444.00
             547.88,2445.78 548.02,2446.58 546.95,2448.19
             545.14,2450.96 535.19,2458.05 532.00,2459.00
             528.74,2465.16 526.46,2462.96 522.63,2466.56
             522.63,2466.56 519.37,2470.80 519.37,2470.80
             514.64,2476.40 515.32,2472.81 511.00,2482.00
             511.00,2482.00 509.00,2481.00 509.00,2481.00
             501.35,2491.75 493.14,2495.56 489.09,2501.43
             485.29,2506.95 481.18,2524.07 481.18,2531.00
             481.18,2531.00 481.96,2539.00 481.96,2539.00
             482.20,2544.36 481.72,2547.52 483.00,2553.00
             483.00,2553.00 479.79,2559.58 479.79,2559.58
             479.79,2559.58 475.58,2567.42 475.58,2567.42
             475.58,2567.42 473.69,2573.00 473.69,2573.00
             473.69,2573.00 469.32,2582.00 469.32,2582.00
             469.32,2582.00 466.80,2590.00 466.80,2590.00
             466.80,2590.00 458.91,2608.00 458.91,2608.00
             458.91,2608.00 455.69,2615.00 455.69,2615.00
             455.69,2615.00 454.45,2621.00 454.45,2621.00
             454.45,2621.00 451.62,2627.00 451.62,2627.00
             451.62,2627.00 447.63,2636.91 447.63,2636.91
             447.63,2636.91 443.74,2643.09 443.74,2643.09
             443.74,2643.09 437.13,2659.00 437.13,2659.00
             437.13,2659.00 433.13,2666.28 433.13,2666.28
             433.13,2666.28 427.47,2680.00 427.47,2680.00
             427.47,2680.00 422.45,2689.00 422.45,2689.00
             422.45,2689.00 418.60,2700.00 418.60,2700.00
             418.60,2700.00 411.36,2712.00 411.36,2712.00
             411.36,2712.00 400.00,2736.00 400.00,2736.00
             401.80,2738.99 398.79,2743.13 397.41,2746.00
             397.41,2746.00 385.54,2772.00 385.54,2772.00
             385.54,2772.00 378.13,2788.00 378.13,2788.00
             378.13,2788.00 373.99,2795.00 373.99,2795.00
             373.99,2795.00 371.22,2802.00 371.22,2802.00
             371.22,2802.00 365.39,2814.00 365.39,2814.00
             365.39,2814.00 360.32,2823.00 360.32,2823.00
             360.32,2823.00 356.65,2831.00 356.65,2831.00
             356.65,2831.00 349.72,2843.00 349.72,2843.00
             349.72,2843.00 346.17,2851.96 346.17,2851.96
             346.17,2851.96 342.03,2858.17 342.03,2858.17
             342.03,2858.17 334.99,2872.99 334.99,2872.99
             334.99,2872.99 321.71,2898.00 321.71,2898.00
             321.71,2898.00 315.25,2909.00 315.25,2909.00
             315.25,2909.00 305.55,2931.00 305.55,2931.00
             305.55,2931.00 300.52,2940.17 300.52,2940.17
             300.52,2940.17 295.45,2954.99 295.45,2954.99
             295.45,2954.99 283.93,2976.00 283.93,2976.00
             283.93,2976.00 276.22,2993.99 276.22,2993.99
             276.22,2993.99 272.39,3000.28 272.39,3000.28
             272.39,3000.28 270.07,3006.72 270.07,3006.72
             270.07,3006.72 266.79,3012.04 266.79,3012.04
             266.79,3012.04 263.55,3021.00 263.55,3021.00
             263.55,3021.00 257.80,3033.00 257.80,3033.00
             257.80,3033.00 255.08,3040.00 255.08,3040.00
             255.08,3040.00 249.63,3049.00 249.63,3049.00
             249.63,3049.00 238.90,3076.00 238.90,3076.00
             238.90,3076.00 228.46,3096.00 228.46,3096.00
             228.46,3096.00 223.38,3108.00 223.38,3108.00
             223.38,3108.00 219.04,3116.00 219.04,3116.00
             219.04,3116.00 210.46,3136.00 210.46,3136.00
             210.46,3136.00 204.79,3146.09 204.79,3146.09
             204.79,3146.09 202.18,3154.28 202.18,3154.28
             202.18,3154.28 197.25,3163.09 197.25,3163.09
             197.25,3163.09 194.59,3171.96 194.59,3171.96
             194.59,3171.96 190.14,3179.09 190.14,3179.09
             190.14,3179.09 184.16,3195.91 184.16,3195.91
             184.16,3195.91 180.32,3202.09 180.32,3202.09
             180.32,3202.09 174.41,3216.00 174.41,3216.00
             174.41,3216.00 169.36,3225.00 169.36,3225.00
             169.36,3225.00 167.27,3230.72 167.27,3230.72
             167.27,3230.72 163.76,3238.00 163.76,3238.00
             163.76,3238.00 161.29,3245.00 161.29,3245.00
             161.29,3245.00 156.02,3255.00 156.02,3255.00
             156.02,3255.00 150.87,3268.04 150.87,3268.04
             150.87,3268.04 148.59,3274.96 148.59,3274.96
             148.59,3274.96 144.97,3281.17 144.97,3281.17
             144.97,3281.17 139.58,3296.00 139.58,3296.00
             139.58,3296.00 131.26,3313.28 131.26,3313.28
             129.37,3318.13 129.22,3323.81 126.00,3328.00
             125.32,3333.35 119.94,3342.13 117.43,3347.09
             117.43,3347.09 113.76,3357.00 113.76,3357.00
             113.76,3357.00 107.80,3367.09 107.80,3367.09
             107.80,3367.09 100.67,3386.00 100.67,3386.00
             100.67,3386.00 95.54,3402.00 95.54,3402.00
             95.54,3402.00 90.81,3412.00 90.81,3412.00
             90.81,3412.00 86.97,3425.00 86.97,3425.00
             85.12,3430.72 84.05,3430.93 82.81,3434.17
             82.81,3434.17 80.34,3442.00 80.34,3442.00
             80.34,3442.00 74.24,3453.91 74.24,3453.91
             74.24,3453.91 71.74,3460.95 71.74,3460.95
             71.74,3460.95 68.57,3466.17 68.57,3466.17
             68.57,3466.17 66.46,3475.00 66.46,3475.00
             66.46,3475.00 57.44,3498.00 57.44,3498.00
             57.44,3498.00 47.07,3528.00 47.07,3528.00
             47.07,3528.00 42.12,3538.00 42.12,3538.00
             42.12,3538.00 37.64,3551.00 37.64,3551.00
             37.64,3551.00 33.55,3560.00 33.55,3560.00
             33.55,3560.00 31.20,3568.00 31.20,3568.00
             31.20,3568.00 25.92,3580.09 25.92,3580.09
             23.91,3585.80 19.83,3598.90 16.00,3603.00
             17.07,3614.36 10.01,3615.52 10.00,3625.00
             6.11,3627.91 7.15,3629.52 5.64,3634.00
             2.94,3641.97 2.03,3638.07 2.00,3648.00
             2.00,3648.00 0.00,3647.00 0.00,3647.00
             0.00,3647.00 0.00,4144.00 0.00,4144.00
             0.00,4144.00 29.00,4158.36 29.00,4158.36
             29.00,4158.36 76.00,4179.88 76.00,4179.88
             76.00,4179.88 91.00,4186.26 91.00,4186.26
             91.00,4186.26 109.83,4195.07 109.83,4195.07
             109.83,4195.07 130.00,4204.90 130.00,4204.90
             130.00,4204.90 137.00,4204.90 137.00,4204.90
             137.00,4204.90 1281.00,4204.90 1281.00,4204.90
             1281.00,4204.90 3799.00,4204.90 3799.00,4204.90
             3799.00,4204.90 3799.00,3310.00 3799.00,3310.00
             3799.00,3310.00 3799.00,3027.00 3799.00,3027.00
             3799.00,3027.00 3799.00,2851.00 3799.00,2851.00
             3798.97,2835.28 3793.38,2841.80 3791.00,2827.00
             3791.00,2827.00 3788.00,2827.00 3788.00,2827.00
             3788.00,2827.00 3789.00,2824.00 3789.00,2824.00
             3783.79,2820.82 3781.97,2810.91 3780.00,2805.00
             3780.00,2805.00 3779.00,2805.00 3779.00,2805.00
             3779.00,2805.00 3779.00,2807.00 3779.00,2807.00
             3775.27,2798.91 3776.83,2795.20 3771.00,2794.00
             3769.35,2788.79 3768.05,2788.18 3766.22,2784.00
             3766.22,2784.00 3764.09,2777.28 3764.09,2777.28
             3764.09,2777.28 3761.00,2771.96 3761.00,2771.96
             3761.00,2771.96 3758.69,2765.00 3758.69,2765.00
             3758.69,2765.00 3753.80,2758.00 3753.80,2758.00
             3753.80,2758.00 3744.17,2742.00 3744.17,2742.00
             3744.17,2742.00 3733.48,2720.04 3733.48,2720.04
             3733.48,2720.04 3726.95,2711.07 3726.95,2711.07
             3726.95,2711.07 3721.10,2700.34 3721.10,2700.34
             3719.54,2695.22 3720.10,2688.43 3713.00,2688.00
             3713.00,2688.00 3713.00,2682.00 3713.00,2682.00
             3707.82,2677.62 3703.25,2670.97 3704.00,2664.00
             3691.50,2652.83 3695.03,2639.04 3683.00,2631.00
             3683.00,2631.00 3683.00,2633.00 3683.00,2633.00
             3677.89,2624.24 3683.56,2619.53 3672.00,2614.00
             3672.18,2608.82 3669.74,2606.31 3666.00,2603.00
             3666.00,2603.00 3668.00,2601.00 3668.00,2601.00
             3668.00,2601.00 3668.00,2600.00 3668.00,2600.00
             3668.00,2600.00 3667.00,2599.00 3667.00,2599.00
             3667.00,2599.00 3665.00,2600.00 3665.00,2600.00
             3665.00,2600.00 3664.00,2591.00 3664.00,2591.00
             3656.76,2589.76 3658.92,2586.13 3654.91,2580.02
             3651.57,2574.94 3649.32,2574.39 3645.60,2567.72
             3642.07,2561.37 3643.87,2560.31 3637.58,2551.00
             3637.58,2551.00 3626.45,2532.04 3626.45,2532.04
             3626.45,2532.04 3621.96,2525.83 3621.96,2525.83
             3621.96,2525.83 3619.50,2520.04 3619.50,2520.04
             3619.50,2520.04 3610.97,2508.00 3610.97,2508.00
             3610.97,2508.00 3602.89,2492.29 3602.89,2492.29
             3602.89,2492.29 3593.30,2479.54 3593.30,2479.54
             3591.77,2476.98 3592.12,2474.84 3590.87,2472.10
             3589.36,2468.80 3587.40,2468.17 3585.60,2464.90
             3585.60,2464.90 3582.36,2457.00 3582.36,2457.00
             3582.36,2457.00 3572.20,2443.09 3572.20,2443.09
             3568.53,2437.47 3569.56,2436.76 3568.44,2434.25
             3568.44,2434.25 3565.20,2429.74 3565.20,2429.74
             3565.20,2429.74 3562.47,2424.04 3562.47,2424.04
             3560.78,2420.92 3557.70,2419.23 3557.00,2416.00
             3546.14,2408.10 3548.73,2405.80 3547.25,2402.20
             3546.05,2399.27 3544.49,2399.77 3544.00,2396.00
             3544.00,2396.00 3540.00,2390.00 3540.00,2390.00
             3534.14,2386.10 3538.08,2378.56 3533.18,2371.00
             3527.10,2361.61 3511.70,2357.43 3503.59,2349.70
             3498.38,2344.74 3497.26,2339.42 3489.00,2340.00
             3486.26,2335.78 3477.58,2332.81 3473.01,2330.45
             3469.32,2328.54 3468.15,2326.44 3464.91,2324.09
             3464.91,2324.09 3457.00,2319.34 3457.00,2319.34
             3457.00,2319.34 3447.00,2311.74 3447.00,2311.74
             3447.00,2311.74 3437.04,2305.54 3437.04,2305.54
             3437.04,2305.54 3430.83,2299.95 3430.83,2299.95
             3430.83,2299.95 3419.13,2293.36 3419.13,2293.36
             3416.21,2291.04 3415.69,2288.76 3413.45,2286.63
             3413.45,2286.63 3402.91,2279.99 3402.91,2279.99
             3402.91,2279.99 3386.30,2269.52 3386.30,2269.52
             3382.53,2266.61 3382.26,2264.00 3377.00,2264.00
             3371.95,2255.57 3366.73,2258.50 3359.00,2250.00
             3352.57,2248.76 3348.12,2242.27 3346.48,2241.29
             3344.93,2240.35 3340.89,2240.71 3329.09,2232.69
             3321.81,2227.74 3322.12,2223.57 3312.00,2223.00
             3312.00,2223.00 3312.00,2218.00 3312.00,2218.00
             3312.00,2218.00 3293.00,2212.00 3293.00,2212.00
             3291.03,2205.91 3284.76,2202.81 3280.28,2198.74
             3275.92,2194.78 3271.02,2188.82 3265.99,2185.85
             3262.38,2183.72 3260.78,2184.32 3258.09,2183.28
             3258.09,2183.28 3245.44,2176.88 3245.44,2176.88
             3242.71,2174.86 3242.11,2172.68 3240.17,2170.17
             3240.17,2170.17 3232.00,2161.00 3232.00,2161.00
             3218.69,2162.48 3212.94,2148.36 3201.00,2150.00
             3199.30,2147.33 3198.69,2147.35 3196.28,2145.46
             3185.79,2137.23 3189.80,2141.80 3181.09,2137.28
             3177.56,2135.45 3176.71,2133.39 3173.00,2132.05
             3166.61,2129.74 3164.60,2130.90 3158.00,2125.00
             3158.00,2125.00 3155.00,2126.00 3155.00,2126.00
             3155.00,2126.00 3156.00,2124.00 3156.00,2124.00
             3150.40,2123.44 3147.86,2121.83 3145.00,2117.00
             3145.00,2117.00 3143.00,2116.00 3143.00,2116.00
             3139.16,2116.18 3138.64,2115.76 3136.00,2113.00
             3132.84,2113.00 3125.84,2112.29 3123.13,2110.84
             3123.13,2110.84 3117.76,2106.72 3117.76,2106.72
             3117.76,2106.72 3105.04,2104.11 3105.04,2104.11
             3101.29,2102.62 3100.94,2100.43 3095.99,2098.45
             3095.99,2098.45 3084.96,2095.49 3084.96,2095.49
             3081.08,2094.05 3079.78,2092.12 3075.00,2090.86
             3075.00,2090.86 3061.00,2088.47 3061.00,2088.47
             3061.00,2088.47 3049.00,2082.64 3049.00,2082.64
             3043.46,2081.06 3043.53,2083.59 3036.00,2080.06
             3033.44,2078.87 3030.72,2077.25 3028.00,2076.55
             3021.99,2075.02 3009.62,2076.43 3007.00,2069.00
             3007.00,2069.00 2975.00,2062.22 2975.00,2062.22
             2975.00,2062.22 2967.00,2058.69 2967.00,2058.69
             2960.23,2056.44 2961.31,2058.54 2950.00,2053.95
             2942.43,2050.88 2935.86,2053.89 2934.00,2049.00
             2934.00,2049.00 2920.00,2047.00 2920.00,2047.00
             2920.00,2047.00 2918.43,2044.17 2918.43,2044.17
             2918.43,2044.17 2899.00,2039.98 2899.00,2039.98
             2899.00,2039.98 2890.00,2038.00 2890.00,2038.00
             2885.57,2032.98 2870.50,2035.06 2866.14,2032.13
             2864.22,2030.85 2863.96,2029.89 2863.00,2028.00
             2855.21,2028.74 2841.88,2023.89 2835.09,2019.97
             2835.09,2019.97 2820.00,2010.90 2820.00,2010.90
             2820.00,2010.90 2793.09,2003.32 2793.09,2003.32
             2793.09,2003.32 2787.83,2000.35 2787.83,2000.35
             2782.16,1997.53 2774.26,1994.07 2768.00,1994.17
             2763.59,1994.23 2758.24,1993.52 2754.00,1992.28
             2754.00,1992.28 2744.00,1988.59 2744.00,1988.59
             2744.00,1988.59 2732.00,1984.97 2732.00,1984.97
             2727.75,1983.59 2725.61,1981.78 2721.00,1982.00
             2720.56,1980.78 2720.64,1980.10 2719.43,1979.17
             2718.13,1978.18 2708.19,1976.13 2706.00,1975.70
             2706.00,1975.70 2697.00,1973.46 2697.00,1973.46
             2693.12,1972.76 2691.13,1973.24 2687.01,1971.95
             2687.01,1971.95 2680.72,1969.16 2680.72,1969.16
             2675.47,1967.00 2675.43,1968.91 2671.00,1964.00
             2671.00,1964.00 2657.00,1963.00 2657.00,1963.00
             2655.26,1955.41 2652.64,1960.45 2649.00,1955.00
             2637.90,1954.29 2635.20,1950.39 2628.00,1947.60
             2628.00,1947.60 2612.00,1942.98 2612.00,1942.98
             2612.00,1942.98 2602.09,1938.29 2602.09,1938.29
             2602.09,1938.29 2594.07,1935.55 2594.07,1935.55
             2591.07,1934.24 2590.56,1933.08 2586.96,1931.94
             2586.96,1931.94 2569.00,1927.21 2569.00,1927.21
             2569.00,1927.21 2553.00,1921.46 2553.00,1921.46
             2553.00,1921.46 2545.00,1919.24 2545.00,1919.24
             2545.00,1919.24 2534.72,1914.46 2534.72,1914.46
             2534.72,1914.46 2514.00,1910.53 2514.00,1910.53
             2514.00,1910.53 2499.17,1905.71 2499.17,1905.71
             2494.54,1904.51 2487.33,1904.45 2484.00,1902.00
             2484.00,1902.00 2480.00,1901.00 2480.00,1901.00
             2472.87,1902.15 2472.20,1900.12 2466.00,1898.62
             2466.00,1898.62 2456.00,1896.38 2456.00,1896.38
             2456.00,1896.38 2439.00,1892.65 2439.00,1892.65
             2439.00,1892.65 2432.00,1890.35 2432.00,1890.35
             2432.00,1890.35 2421.00,1888.08 2421.00,1888.08
             2411.16,1885.25 2416.89,1883.37 2400.00,1882.00
             2400.00,1882.00 2395.34,1869.00 2395.34,1869.00
             2395.34,1869.00 2391.00,1848.00 2391.00,1848.00
             2395.10,1844.32 2390.98,1841.30 2393.00,1830.00
             2393.00,1830.00 2392.00,1830.00 2392.00,1830.00
             2392.00,1830.00 2392.00,1832.00 2392.00,1832.00
             2390.81,1827.82 2389.87,1818.41 2390.02,1814.00
             2390.38,1803.45 2395.90,1798.23 2393.40,1782.81
             2392.97,1780.15 2393.31,1779.47 2392.00,1777.00
             2393.58,1776.52 2396.41,1775.80 2397.69,1774.86
             2401.80,1771.86 2398.91,1764.39 2400.60,1760.04
             2401.86,1756.77 2405.23,1754.88 2408.00,1753.00
             2408.00,1753.00 2412.00,1742.00 2412.00,1742.00
             2412.00,1742.00 2416.00,1744.00 2416.00,1744.00
             2416.00,1744.00 2418.00,1737.00 2418.00,1737.00
             2418.00,1737.00 2417.01,1733.82 2417.01,1733.82
             2417.01,1733.82 2421.49,1717.00 2421.49,1717.00
             2421.49,1717.00 2424.17,1706.00 2424.17,1706.00
             2424.17,1706.00 2430.45,1692.92 2430.45,1692.92
             2430.45,1692.92 2432.33,1677.00 2432.33,1677.00
             2432.33,1677.00 2438.00,1659.00 2438.00,1659.00
             2438.00,1659.00 2433.00,1656.00 2433.00,1656.00
             2434.19,1651.64 2435.01,1650.21 2439.00,1648.00
             2439.00,1648.00 2437.00,1632.00 2437.00,1632.00
             2437.00,1632.00 2434.00,1632.00 2434.00,1632.00
             2434.00,1632.00 2433.00,1613.00 2433.00,1613.00
             2433.00,1613.00 2436.00,1614.00 2436.00,1614.00
             2436.44,1610.37 2436.56,1609.40 2433.00,1608.00
             2433.00,1608.00 2436.00,1607.00 2436.00,1607.00
             2435.88,1603.56 2436.37,1602.40 2433.00,1601.00
             2433.00,1601.00 2438.00,1601.00 2438.00,1601.00
             2434.64,1590.63 2436.04,1586.22 2437.00,1576.00
             2437.00,1576.00 2434.00,1576.00 2434.00,1576.00
             2433.99,1571.89 2434.47,1570.46 2432.00,1567.00
             2433.54,1565.95 2434.42,1565.63 2435.26,1563.78
             2436.25,1561.61 2435.93,1557.46 2436.04,1555.00
             2436.04,1555.00 2436.99,1541.00 2436.99,1541.00
             2436.95,1537.68 2437.63,1533.32 2435.00,1531.00
             2435.00,1531.00 2433.00,1520.00 2433.00,1520.00
             2428.58,1518.21 2434.40,1513.37 2430.00,1505.00
             2430.00,1505.00 2437.00,1503.00 2437.00,1503.00
             2436.58,1501.36 2436.03,1499.71 2436.06,1498.00
             2436.11,1494.47 2440.33,1481.97 2442.65,1479.14
             2444.21,1477.22 2444.93,1477.04 2447.00,1476.00
             2447.00,1476.00 2445.00,1471.00 2445.00,1471.00
             2445.00,1471.00 2451.66,1454.83 2451.66,1454.83
             2451.66,1454.83 2454.79,1430.00 2454.79,1430.00
             2454.79,1430.00 2458.04,1422.00 2458.04,1422.00
             2458.04,1422.00 2464.08,1402.96 2464.08,1402.96
             2464.08,1402.96 2464.08,1396.00 2464.08,1396.00
             2464.08,1396.00 2465.51,1389.00 2465.51,1389.00
             2465.63,1382.96 2462.13,1371.93 2468.00,1368.00
             2468.00,1368.00 2466.00,1360.00 2466.00,1360.00
             2466.00,1360.00 2470.00,1362.00 2470.00,1362.00
             2470.00,1362.00 2471.00,1349.00 2471.00,1349.00
             2471.00,1349.00 2472.00,1351.00 2472.00,1351.00
             2472.00,1351.00 2474.01,1346.41 2474.01,1346.41
             2477.27,1342.03 2485.40,1341.87 2490.00,1340.11
             2493.28,1338.86 2495.85,1336.15 2499.00,1334.36
             2502.63,1332.30 2505.41,1332.06 2508.87,1329.14
             2515.38,1323.65 2518.83,1312.53 2522.23,1305.00
             2522.23,1305.00 2533.00,1287.00 2533.00,1287.00
             2533.00,1287.00 2531.00,1288.00 2531.00,1288.00
             2531.00,1288.00 2534.00,1286.00 2534.00,1286.00
             2534.00,1286.00 2534.00,1285.00 2534.00,1285.00
             2534.00,1285.00 2532.00,1283.00 2532.00,1283.00
             2532.00,1283.00 2536.00,1282.00 2536.00,1282.00
             2536.01,1269.18 2537.65,1274.15 2540.49,1266.00
             2540.49,1266.00 2542.47,1259.00 2542.47,1259.00
             2542.47,1259.00 2550.40,1240.00 2550.40,1240.00
             2550.40,1240.00 2556.02,1223.39 2556.02,1223.39
             2558.93,1218.98 2567.09,1219.63 2570.21,1213.87
             2574.53,1205.91 2572.20,1202.01 2572.01,1194.00
             2571.80,1184.36 2573.09,1186.53 2575.21,1179.00
             2575.21,1179.00 2576.87,1168.00 2576.87,1168.00
             2576.87,1168.00 2581.08,1160.00 2581.08,1160.00
             2581.08,1160.00 2586.76,1145.27 2586.76,1145.27
             2588.47,1141.01 2589.92,1140.08 2589.53,1135.00
             2589.53,1135.00 2589.00,1129.00 2589.00,1129.00
             2594.94,1128.19 2595.41,1120.85 2596.81,1116.00
             2596.81,1116.00 2613.00,1081.00 2613.00,1081.00
             2624.07,1086.25 2629.42,1101.39 2640.00,1105.00
             2640.00,1105.00 2646.00,1073.00 2646.00,1073.00
             2638.84,1075.95 2640.91,1068.37 2641.00,1064.00
             2633.20,1064.37 2630.20,1054.44 2630.00,1048.00
             2630.00,1048.00 2629.00,1054.00 2629.00,1054.00
             2629.00,1054.00 2625.00,1048.00 2625.00,1048.00
             2625.00,1048.00 2628.00,1045.00 2628.00,1045.00
             2622.50,1041.72 2626.39,1039.82 2624.00,1030.00
             2624.00,1030.00 2627.00,1029.00 2627.00,1029.00
             2627.00,1029.00 2625.23,1020.04 2625.23,1020.04
             2625.23,1020.04 2629.44,1005.00 2629.44,1005.00
             2629.44,1005.00 2632.45,994.09 2632.45,994.09
             2632.45,994.09 2633.46,986.96 2633.46,986.96
             2633.46,986.96 2635.87,980.00 2635.87,980.00
             2637.27,973.95 2636.48,973.37 2636.57,968.00
             2636.77,956.50 2636.07,952.97 2633.15,942.00
             2633.15,942.00 2631.53,936.37 2631.53,936.37
             2630.76,934.80 2628.56,932.60 2627.33,931.18
             2621.17,924.06 2613.88,918.14 2604.00,918.00
             2591.82,917.84 2594.27,917.65 2583.00,921.10
             2583.00,921.10 2577.26,922.58 2577.26,922.58
             2574.15,923.99 2574.81,925.78 2569.98,927.01
             2562.04,929.06 2560.55,926.61 2554.00,927.01
             2554.00,927.01 2553.00,923.00 2553.00,923.00
             2553.00,923.00 2552.00,927.00 2552.00,927.00
             2550.74,925.67 2544.83,917.42 2544.52,915.95
             2543.32,910.31 2546.41,905.03 2548.09,899.96
             2548.09,899.96 2552.56,880.00 2552.56,880.00
             2552.56,880.00 2553.29,871.00 2553.29,871.00
             2553.29,871.00 2556.86,847.17 2556.86,847.17
             2556.86,847.17 2556.86,818.00 2556.86,818.00
             2556.86,818.00 2556.86,773.00 2556.86,773.00
             2556.86,773.00 2553.72,736.00 2553.72,736.00
             2553.29,732.45 2553.96,725.23 2550.00,724.00
             2550.00,724.00 2543.00,701.00 2543.00,701.00
             2539.13,699.78 2534.81,689.91 2533.50,686.00
             2533.50,686.00 2531.46,678.00 2531.46,678.00
             2531.46,678.00 2526.62,665.00 2526.62,665.00
             2526.62,665.00 2524.00,654.00 2524.00,654.00
             2524.00,654.00 2521.12,648.00 2521.12,648.00
             2521.12,648.00 2519.47,642.00 2519.47,642.00
             2518.00,637.49 2515.90,636.27 2516.00,631.00
             2510.54,625.62 2510.12,617.27 2507.82,610.17
             2507.00,607.64 2504.58,604.39 2503.10,602.00
             2501.48,599.39 2500.00,594.67 2497.00,594.00
             2497.00,594.00 2487.03,565.58 2487.03,565.58
             2487.03,565.58 2484.96,556.05 2484.96,556.05
             2484.96,556.05 2478.97,546.00 2478.97,546.00
             2478.97,546.00 2471.00,526.00 2471.00,526.00
             2471.27,520.26 2467.88,516.26 2465.74,511.00
             2465.74,511.00 2463.10,503.00 2463.10,503.00
             2463.10,503.00 2458.07,494.00 2458.07,494.00
             2458.07,494.00 2456.18,487.17 2456.18,487.17
             2456.18,487.17 2454.06,482.83 2454.06,482.83
             2451.72,477.21 2454.03,471.89 2447.00,468.00
             2447.00,468.00 2443.00,446.00 2443.00,446.00
             2443.00,446.00 2440.00,447.00 2440.00,447.00
             2440.00,447.00 2435.46,435.00 2435.46,435.00
             2435.46,435.00 2432.50,429.00 2432.50,429.00
             2432.50,429.00 2426.06,410.09 2426.06,410.09
             2422.93,402.55 2423.03,409.64 2420.00,393.00
             2420.00,393.00 2417.00,394.00 2417.00,394.00
             2417.00,394.00 2406.00,372.99 2406.00,372.99
             2406.00,372.99 2400.11,360.00 2400.11,360.00
             2400.11,360.00 2390.30,345.16 2390.30,345.16
             2390.30,345.16 2385.09,340.60 2385.09,340.60
             2385.09,340.60 2380.07,334.10 2380.07,334.10
             2380.07,334.10 2373.00,327.00 2373.00,327.00
             2373.00,327.00 2371.00,328.00 2371.00,328.00
             2367.04,317.07 2363.62,320.10 2353.04,308.44
             2353.04,308.44 2345.62,299.58 2345.62,299.58
             2345.62,299.58 2332.29,290.49 2332.29,290.49
             2332.29,290.49 2323.49,282.59 2323.49,282.59
             2323.49,282.59 2317.17,279.57 2317.17,279.57
             2314.87,277.93 2312.94,274.99 2307.00,271.17
             2307.00,271.17 2272.42,251.07 2272.42,251.07
             2257.94,241.61 2254.46,245.39 2248.00,237.00
             2248.00,237.00 2246.00,239.00 2246.00,239.00
             2246.00,239.00 2240.00,232.00 2240.00,232.00
             2233.51,231.81 2232.54,229.58 2227.17,226.89
             2227.17,226.89 2219.16,223.02 2219.16,223.02
             2219.16,223.02 2212.96,218.72 2212.96,218.72
             2209.26,216.50 2200.01,211.81 2196.00,210.38
             2184.25,206.19 2171.33,204.36 2159.00,202.87
             2159.00,202.87 2151.00,202.24 2151.00,202.24
             2151.00,202.24 2127.00,196.11 2127.00,196.11
             2127.00,196.11 2118.00,192.63 2118.00,192.63
             2118.00,192.63 2110.05,191.57 2110.05,191.57
             2107.19,190.77 2105.44,188.32 2102.89,186.89
             2102.89,186.89 2086.00,178.50 2086.00,178.50
             2086.00,178.50 2076.00,175.24 2076.00,175.24
             2076.00,175.24 2063.00,170.45 2063.00,170.45
             2063.00,170.45 2036.00,167.96 2036.00,167.96
             2036.00,167.96 2026.00,167.18 2026.00,167.18
             2010.71,168.26 1995.30,165.98 1980.00,164.91
             1980.00,164.91 1972.00,164.08 1972.00,164.08
             1972.00,164.08 1946.00,168.00 1946.00,168.00
             1946.00,168.00 1933.00,167.00 1933.00,167.00
             1933.00,167.00 1921.00,167.00 1921.00,167.00
             1921.00,167.00 1912.00,165.72 1912.00,165.72
             1906.11,165.70 1903.92,167.61 1899.00,167.95
             1899.00,167.95 1882.00,169.17 1882.00,169.17
             1882.00,169.17 1874.00,170.70 1874.00,170.70
             1874.00,170.70 1866.00,171.61 1866.00,171.61
             1866.00,171.61 1856.00,174.98 1856.00,174.98
             1856.00,174.98 1849.28,177.18 1849.28,177.18
             1841.38,180.82 1832.35,187.52 1826.78,194.21
             1826.78,194.21 1812.73,211.20 1812.73,211.20
             1809.82,213.25 1805.40,213.76 1802.00,214.77
             1802.00,214.77 1779.07,220.27 1779.07,220.27
             1779.07,220.27 1773.83,223.10 1773.83,223.10
             1769.75,224.99 1767.04,223.95 1764.00,228.00 Z
           M 1460.00,472.00
           C 1460.00,472.00 1460.00,473.00 1460.00,473.00
             1460.00,473.00 1459.00,472.00 1459.00,472.00
             1459.00,472.00 1460.00,472.00 1460.00,472.00 Z
           M 1454.00,490.00
           C 1454.00,490.00 1454.00,491.00 1454.00,491.00
             1454.00,491.00 1453.00,490.00 1453.00,490.00
             1453.00,490.00 1454.00,490.00 1454.00,490.00 Z
           M 1422.00,600.00
           C 1422.00,600.00 1422.00,601.00 1422.00,601.00
             1422.00,601.00 1421.00,600.00 1421.00,600.00
             1421.00,600.00 1422.00,600.00 1422.00,600.00 Z
           M 1409.00,627.00
           C 1409.00,627.00 1409.00,628.00 1409.00,628.00
             1409.00,628.00 1408.00,627.00 1408.00,627.00
             1408.00,627.00 1409.00,627.00 1409.00,627.00 Z
           M 1405.00,641.00
           C 1405.00,641.00 1405.00,642.00 1405.00,642.00
             1405.00,642.00 1406.00,641.00 1406.00,641.00
             1406.00,641.00 1405.00,641.00 1405.00,641.00 Z
           M 1391.00,907.00
           C 1391.00,907.00 1391.00,908.00 1391.00,908.00
             1391.00,908.00 1390.00,907.00 1390.00,907.00
             1390.00,907.00 1391.00,907.00 1391.00,907.00 Z
           M 2624.00,1053.00
           C 2624.00,1053.00 2624.00,1054.00 2624.00,1054.00
             2624.00,1054.00 2623.00,1053.00 2623.00,1053.00
             2623.00,1053.00 2624.00,1053.00 2624.00,1053.00 Z
           M 2609.00,1087.00
           C 2609.00,1087.00 2609.00,1088.00 2609.00,1088.00
             2609.00,1088.00 2608.00,1087.00 2608.00,1087.00
             2608.00,1087.00 2609.00,1087.00 2609.00,1087.00 Z
           M 2592.00,1129.00
           C 2592.00,1129.00 2592.00,1130.00 2592.00,1130.00
             2592.00,1130.00 2593.00,1129.00 2593.00,1129.00
             2593.00,1129.00 2592.00,1129.00 2592.00,1129.00 Z
           M 1376.00,1198.00
           C 1376.00,1198.00 1376.00,1199.00 1376.00,1199.00
             1376.00,1199.00 1375.00,1198.00 1375.00,1198.00
             1375.00,1198.00 1376.00,1198.00 1376.00,1198.00 Z
           M 2535.00,1285.00
           C 2535.00,1285.00 2535.00,1286.00 2535.00,1286.00
             2535.00,1286.00 2536.00,1285.00 2536.00,1285.00
             2536.00,1285.00 2535.00,1285.00 2535.00,1285.00 Z
           M 2481.00,1340.00
           C 2481.00,1340.00 2481.00,1341.00 2481.00,1341.00
             2481.00,1341.00 2480.00,1340.00 2480.00,1340.00
             2480.00,1340.00 2481.00,1340.00 2481.00,1340.00 Z
           M 2467.00,1390.00
           C 2467.00,1390.00 2467.00,1391.00 2467.00,1391.00
             2467.00,1391.00 2468.00,1390.00 2468.00,1390.00
             2468.00,1390.00 2467.00,1390.00 2467.00,1390.00 Z
           M 2436.00,1534.00
           C 2436.00,1534.00 2436.00,1535.00 2436.00,1535.00
             2436.00,1535.00 2435.00,1534.00 2435.00,1534.00
             2435.00,1534.00 2436.00,1534.00 2436.00,1534.00 Z
           M 2437.00,1607.00
           C 2437.00,1607.00 2437.00,1608.00 2437.00,1608.00
             2437.00,1608.00 2438.00,1607.00 2438.00,1607.00
             2438.00,1607.00 2437.00,1607.00 2437.00,1607.00 Z
           M 2434.00,1659.00
           C 2434.00,1659.00 2434.00,1660.00 2434.00,1660.00
             2434.00,1660.00 2433.00,1659.00 2433.00,1659.00
             2433.00,1659.00 2434.00,1659.00 2434.00,1659.00 Z
           M 1575.00,1688.00
           C 1575.00,1688.00 1575.00,1695.00 1575.00,1695.00
             1575.00,1695.00 1575.00,1688.00 1575.00,1688.00 Z
           M 2590.00,1934.00
           C 2590.00,1934.00 2590.00,1935.00 2590.00,1935.00
             2590.00,1935.00 2589.00,1934.00 2589.00,1934.00
             2589.00,1934.00 2590.00,1934.00 2590.00,1934.00 Z
           M 2621.00,1946.00
           C 2621.00,1946.00 2621.00,1947.00 2621.00,1947.00
             2621.00,1947.00 2620.00,1946.00 2620.00,1946.00
             2620.00,1946.00 2621.00,1946.00 2621.00,1946.00 Z
           M 2723.00,1982.00
           C 2723.00,1982.00 2723.00,1983.00 2723.00,1983.00
             2723.00,1983.00 2722.00,1982.00 2722.00,1982.00
             2722.00,1982.00 2723.00,1982.00 2723.00,1982.00 Z
           M 2862.00,2029.00
           C 2862.00,2029.00 2862.00,2030.00 2862.00,2030.00
             2862.00,2030.00 2861.00,2029.00 2861.00,2029.00
             2861.00,2029.00 2862.00,2029.00 2862.00,2029.00 Z
           M 3233.00,2161.00
           C 3233.00,2161.00 3233.00,2162.00 3233.00,2162.00
             3233.00,2162.00 3234.00,2161.00 3234.00,2161.00
             3234.00,2161.00 3233.00,2161.00 3233.00,2161.00 Z
           M 3266.00,2189.00
           C 3266.00,2189.00 3266.00,2190.00 3266.00,2190.00
             3266.00,2190.00 3265.00,2189.00 3265.00,2189.00
             3265.00,2189.00 3266.00,2189.00 3266.00,2189.00 Z
           M 3547.00,2402.00
           C 3547.00,2402.00 3547.00,2403.00 3547.00,2403.00
             3547.00,2403.00 3546.00,2402.00 3546.00,2402.00
             3546.00,2402.00 3547.00,2402.00 3547.00,2402.00 Z
           M 510.00,2482.00
           C 510.00,2482.00 510.00,2483.00 510.00,2483.00
             510.00,2483.00 509.00,2482.00 509.00,2482.00
             509.00,2482.00 510.00,2482.00 510.00,2482.00 Z
           M 3666.00,2601.00
           C 3666.00,2601.00 3666.00,2602.00 3666.00,2602.00
             3666.00,2602.00 3665.00,2601.00 3665.00,2601.00
             3665.00,2601.00 3666.00,2601.00 3666.00,2601.00 Z
           M 3672.00,2611.00
           C 3672.00,2611.00 3672.00,2612.00 3672.00,2612.00
             3672.00,2612.00 3671.00,2611.00 3671.00,2611.00
             3671.00,2611.00 3672.00,2611.00 3672.00,2611.00 Z
           M 207.00,3144.00
           C 207.00,3144.00 207.00,3145.00 207.00,3145.00
             207.00,3145.00 206.00,3144.00 206.00,3144.00
             206.00,3144.00 207.00,3144.00 207.00,3144.00 Z
           M 7.00,3624.00
           C 7.00,3624.00 7.00,3625.00 7.00,3625.00
             7.00,3625.00 8.00,3624.00 8.00,3624.00
             8.00,3624.00 7.00,3624.00 7.00,3624.00 Z
           M 0.00,3643.00
           C 0.00,3643.00 0.00,3644.00 0.00,3644.00
             0.00,3644.00 1.00,3643.00 1.00,3643.00
             1.00,3643.00 0.00,3643.00 0.00,3643.00 Z" />
</svg>
