<?xml version="1.0" encoding="UTF-8" standalone="no"?>
<!DOCTYPE svg PUBLIC "-//W3C//DTD SVG 20010904//EN"
              "http://www.w3.org/TR/2001/REC-SVG-20010904/DTD/svg10.dtd">

<svg xmlns="http://www.w3.org/2000/svg"
     width="11.4067in" height="15.5833in"
     viewBox="0 0 3422 4675">
  <path id="face"
        fill="none" stroke="black" stroke-width="1"
        d="M 1632.00,464.00
           C 1623.01,463.15 1622.17,466.22 1614.00,468.57
             1614.00,468.57 1597.00,473.07 1597.00,473.07
             1597.00,473.07 1579.99,481.54 1579.99,481.54
             1579.99,481.54 1568.42,486.19 1568.42,486.19
             1568.42,486.19 1552.68,492.89 1552.68,492.89
             1551.55,493.77 1551.42,494.75 1551.00,496.00
             1542.78,494.04 1541.03,497.92 1534.00,499.70
             1523.89,502.26 1524.94,503.40 1518.00,505.70
             1518.00,505.70 1507.04,508.17 1507.04,508.17
             1507.04,508.17 1500.83,510.56 1500.83,510.56
             1500.83,510.56 1489.00,514.37 1489.00,514.37
             1483.43,516.37 1473.12,516.98 1471.00,523.00
             1471.00,523.00 1466.91,522.07 1466.91,522.07
             1466.91,522.07 1452.01,528.59 1452.01,528.59
             1452.01,528.59 1438.72,535.33 1438.72,535.33
             1438.72,535.33 1428.00,540.26 1428.00,540.26
             1428.00,540.26 1406.72,552.52 1406.72,552.52
             1406.72,552.52 1398.00,557.00 1398.00,557.00
             1398.00,557.00 1399.00,559.00 1399.00,559.00
             1392.79,561.21 1383.35,566.61 1378.49,571.03
             1378.49,571.03 1374.60,575.30 1374.60,575.30
             1374.60,575.30 1367.87,579.69 1367.87,579.69
             1362.41,584.36 1363.37,585.68 1356.00,590.00
             1356.00,590.00 1357.00,592.00 1357.00,592.00
             1357.00,592.00 1353.00,595.00 1353.00,595.00
             1348.19,595.91 1347.69,597.97 1344.34,601.08
             1344.34,601.08 1337.29,607.09 1337.29,607.09
             1337.29,607.09 1330.53,614.53 1330.53,614.53
             1326.27,618.32 1322.38,618.32 1322.00,625.00
             1314.89,627.47 1317.95,633.21 1313.00,635.00
             1310.17,641.49 1308.60,639.40 1304.04,645.04
             1298.67,651.67 1297.33,655.18 1295.00,663.00
             1295.00,663.00 1291.00,662.00 1291.00,662.00
             1291.00,662.00 1290.00,672.00 1290.00,672.00
             1288.19,672.41 1287.22,672.41 1285.72,673.74
             1281.96,677.07 1275.60,691.84 1272.97,697.00
             1270.69,701.48 1269.07,702.78 1270.00,708.00
             1270.00,708.00 1262.91,714.29 1262.91,714.29
             1262.91,714.29 1254.00,741.00 1254.00,741.00
             1256.75,742.23 1252.88,746.90 1252.00,749.00
             1252.00,749.00 1253.00,749.00 1253.00,749.00
             1253.00,749.00 1254.00,751.00 1254.00,751.00
             1252.43,751.70 1251.25,751.99 1250.16,753.48
             1247.95,756.50 1248.03,766.09 1248.00,770.00
             1248.00,770.00 1247.00,768.00 1247.00,768.00
             1247.00,768.00 1244.00,785.00 1244.00,785.00
             1244.00,785.00 1241.00,785.00 1241.00,785.00
             1241.00,785.00 1241.00,790.00 1241.00,790.00
             1241.00,790.00 1242.00,786.00 1242.00,786.00
             1242.69,790.87 1240.70,791.23 1239.97,796.01
             1238.73,804.10 1237.09,813.24 1234.56,821.00
             1234.56,821.00 1228.89,839.00 1228.89,839.00
             1227.69,843.89 1222.18,852.50 1225.00,857.00
             1225.00,857.00 1223.00,863.00 1223.00,863.00
             1223.00,863.00 1222.00,859.00 1222.00,859.00
             1222.00,859.00 1215.27,880.00 1215.27,880.00
             1215.27,880.00 1215.27,886.00 1215.27,886.00
             1215.27,886.00 1211.80,896.00 1211.80,896.00
             1211.80,896.00 1209.00,913.00 1209.00,913.00
             1209.00,913.00 1207.00,911.00 1207.00,911.00
             1207.00,911.00 1207.00,919.00 1207.00,919.00
             1207.00,919.00 1205.00,918.00 1205.00,918.00
             1205.00,918.00 1206.00,920.00 1206.00,920.00
             1206.00,920.00 1205.00,926.00 1205.00,926.00
             1205.00,926.00 1204.00,921.00 1204.00,921.00
             1204.00,921.00 1199.02,941.00 1199.02,941.00
             1199.02,941.00 1193.89,955.99 1193.89,955.99
             1193.89,955.99 1192.76,964.95 1192.76,964.95
             1192.76,964.95 1190.81,970.16 1190.81,970.16
             1190.81,970.16 1190.81,973.72 1190.81,973.72
             1190.81,973.72 1187.77,990.91 1187.77,990.91
             1187.77,990.91 1186.02,996.17 1186.02,996.17
             1186.02,996.17 1186.02,1004.00 1186.02,1004.00
             1186.02,1004.00 1184.00,1003.00 1184.00,1003.00
             1184.00,1008.35 1183.60,1013.72 1182.68,1019.00
             1182.68,1019.00 1181.09,1027.00 1181.09,1027.00
             1181.09,1027.00 1178.88,1052.00 1178.88,1052.00
             1178.88,1052.00 1177.04,1059.00 1177.04,1059.00
             1177.04,1059.00 1177.04,1069.00 1177.04,1069.00
             1176.12,1076.10 1175.01,1076.04 1175.00,1085.00
             1175.00,1085.00 1175.00,1095.00 1175.00,1095.00
             1175.00,1095.00 1173.70,1115.00 1173.70,1115.00
             1172.92,1120.51 1172.08,1120.20 1172.00,1127.00
             1171.91,1135.22 1172.04,1156.72 1173.51,1164.00
             1174.25,1167.64 1178.76,1181.11 1177.72,1183.68
             1176.96,1185.57 1173.70,1187.56 1172.00,1188.63
             1161.74,1195.06 1152.58,1190.82 1144.61,1198.04
             1140.56,1201.72 1128.43,1218.15 1126.72,1223.00
             1125.87,1225.43 1126.00,1228.43 1126.00,1231.00
             1126.00,1231.00 1126.00,1271.00 1126.00,1271.00
             1126.00,1271.00 1127.91,1287.00 1127.91,1287.00
             1127.91,1287.00 1128.75,1302.00 1128.75,1302.00
             1128.75,1302.00 1128.75,1310.00 1128.75,1310.00
             1128.75,1310.00 1132.00,1336.00 1132.00,1336.00
             1132.23,1356.08 1135.25,1356.02 1138.15,1372.73
             1138.15,1372.73 1139.83,1383.00 1139.83,1383.00
             1139.83,1383.00 1140.43,1392.00 1140.43,1392.00
             1140.43,1392.00 1142.37,1404.00 1142.37,1404.00
             1143.91,1410.55 1144.95,1407.94 1145.00,1417.00
             1145.00,1417.00 1146.22,1445.39 1146.22,1445.39
             1146.33,1451.83 1145.21,1457.65 1147.04,1464.00
             1149.61,1472.93 1152.38,1472.84 1154.93,1479.00
             1154.93,1479.00 1156.68,1485.83 1156.68,1485.83
             1156.68,1485.83 1159.15,1491.09 1159.15,1491.09
             1159.93,1493.35 1161.14,1504.24 1161.25,1507.00
             1161.25,1507.00 1156.00,1554.00 1156.00,1554.00
             1155.97,1571.79 1158.13,1578.42 1165.83,1594.42
             1166.97,1596.79 1167.46,1599.53 1169.01,1601.68
             1172.75,1606.88 1188.54,1618.57 1195.00,1621.01
             1195.00,1621.01 1204.00,1622.90 1204.00,1622.90
             1204.00,1622.90 1215.00,1626.69 1215.00,1626.69
             1215.00,1626.69 1234.00,1628.58 1234.00,1628.58
             1236.24,1628.89 1239.63,1628.93 1241.26,1630.60
             1243.02,1632.39 1243.14,1636.54 1243.62,1639.00
             1243.62,1639.00 1247.15,1656.00 1247.15,1656.00
             1247.74,1660.80 1250.90,1671.10 1249.00,1675.00
             1253.53,1681.68 1252.04,1681.97 1253.86,1689.00
             1257.25,1702.07 1258.79,1715.62 1260.17,1729.00
             1260.81,1735.23 1262.58,1737.38 1263.52,1742.00
             1263.52,1742.00 1266.73,1763.00 1266.73,1763.00
             1266.73,1763.00 1272.75,1806.00 1272.75,1806.00
             1272.75,1806.00 1280.93,1835.00 1280.93,1835.00
             1280.93,1835.00 1294.69,1861.00 1294.69,1861.00
             1294.69,1861.00 1320.69,1909.00 1320.69,1909.00
             1320.69,1909.00 1352.69,1968.00 1352.69,1968.00
             1352.69,1968.00 1360.68,1985.00 1360.68,1985.00
             1360.68,1985.00 1392.58,2026.00 1392.58,2026.00
             1392.58,2026.00 1423.17,2065.00 1423.17,2065.00
             1431.88,2074.75 1442.31,2083.40 1452.00,2092.17
             1452.00,2092.17 1478.00,2116.17 1478.00,2116.17
             1478.00,2116.17 1486.00,2123.49 1486.00,2123.49
             1486.00,2123.49 1516.00,2144.02 1516.00,2144.02
             1516.00,2144.02 1543.00,2162.42 1543.00,2162.42
             1547.69,2165.74 1561.51,2175.45 1566.00,2177.48
             1566.00,2177.48 1588.00,2183.88 1588.00,2183.88
             1588.00,2183.88 1623.00,2193.42 1623.00,2193.42
             1623.00,2193.42 1664.00,2204.54 1664.00,2204.54
             1664.00,2204.54 1735.00,2211.17 1735.00,2211.17
             1735.00,2211.17 1794.00,2216.82 1794.00,2216.82
             1794.00,2216.82 1847.00,2212.17 1847.00,2212.17
             1847.00,2212.17 1905.00,2207.17 1905.00,2207.17
             1905.00,2207.17 1934.00,2204.47 1934.00,2204.47
             1934.00,2204.47 1958.00,2194.30 1958.00,2194.30
             1958.00,2194.30 1998.00,2176.85 1998.00,2176.85
             1998.00,2176.85 2028.00,2163.72 2028.00,2163.72
             2032.17,2161.92 2041.76,2158.03 2045.00,2155.59
             2045.00,2155.59 2085.00,2117.09 2085.00,2117.09
             2085.00,2117.09 2130.00,2074.00 2130.00,2074.00
             2130.00,2074.00 2143.70,2060.96 2143.70,2060.96
             2143.70,2060.96 2174.34,2017.00 2174.34,2017.00
             2174.34,2017.00 2205.69,1971.00 2205.69,1971.00
             2205.69,1971.00 2234.25,1915.00 2234.25,1915.00
             2234.25,1915.00 2254.75,1875.00 2254.75,1875.00
             2254.75,1875.00 2265.91,1853.00 2265.91,1853.00
             2268.21,1846.60 2266.95,1841.80 2272.00,1837.00
             2268.03,1826.42 2272.55,1821.02 2274.48,1811.00
             2275.78,1805.36 2273.20,1801.19 2274.48,1797.01
             2274.77,1795.55 2281.26,1783.52 2282.19,1778.99
             2283.00,1774.68 2281.05,1770.11 2282.19,1765.09
             2283.42,1759.93 2288.12,1757.41 2285.00,1745.00
             2290.56,1740.88 2287.29,1736.73 2288.26,1731.00
             2288.80,1727.88 2290.30,1725.84 2291.24,1723.00
             2291.24,1723.00 2292.75,1716.00 2292.75,1716.00
             2294.93,1707.08 2295.67,1704.04 2290.00,1696.00
             2296.62,1692.71 2295.56,1690.11 2297.64,1684.00
             2299.14,1679.61 2299.65,1680.20 2300.11,1675.00
             2300.68,1668.59 2298.16,1665.59 2304.29,1661.14
             2305.56,1660.22 2306.43,1659.69 2308.01,1659.48
             2308.01,1659.48 2330.00,1663.00 2330.00,1663.00
             2344.20,1663.16 2359.38,1656.50 2364.00,1642.00
             2364.00,1642.00 2365.00,1642.00 2365.00,1642.00
             2365.00,1642.00 2366.00,1644.00 2366.00,1644.00
             2366.00,1644.00 2368.00,1640.00 2368.00,1640.00
             2368.00,1640.00 2366.00,1640.00 2366.00,1640.00
             2366.00,1640.00 2367.00,1637.00 2367.00,1637.00
             2367.00,1637.00 2368.00,1639.00 2368.00,1639.00
             2373.47,1631.49 2378.47,1614.28 2377.96,1605.00
             2377.96,1605.00 2375.93,1595.00 2375.93,1595.00
             2375.93,1595.00 2375.93,1586.17 2375.93,1586.17
             2375.19,1582.92 2373.38,1580.33 2373.10,1574.00
             2372.89,1569.15 2375.83,1558.18 2377.00,1553.00
             2377.00,1553.00 2379.00,1554.00 2379.00,1554.00
             2379.00,1554.00 2379.91,1547.00 2379.91,1547.00
             2379.91,1547.00 2382.75,1541.00 2382.75,1541.00
             2382.75,1541.00 2385.26,1534.00 2385.26,1534.00
             2387.21,1529.72 2388.13,1529.91 2390.08,1524.00
             2391.50,1520.12 2393.49,1515.13 2390.08,1512.00
             2390.08,1512.00 2394.59,1500.91 2394.59,1500.91
             2395.77,1496.23 2395.66,1490.75 2395.32,1486.00
             2395.32,1486.00 2397.15,1458.00 2397.15,1458.00
             2397.15,1458.00 2397.15,1444.04 2397.15,1444.04
             2397.15,1444.04 2399.50,1438.72 2399.50,1438.72
             2399.50,1438.72 2400.75,1432.00 2400.75,1432.00
             2400.75,1432.00 2404.31,1420.00 2404.31,1420.00
             2404.31,1420.00 2411.90,1385.00 2411.90,1385.00
             2411.90,1385.00 2415.20,1376.00 2415.20,1376.00
             2415.20,1376.00 2416.49,1369.00 2416.49,1369.00
             2416.49,1369.00 2418.59,1363.00 2418.59,1363.00
             2418.59,1363.00 2419.46,1356.00 2419.46,1356.00
             2421.76,1343.04 2421.98,1342.31 2422.00,1329.00
             2422.00,1329.00 2422.96,1315.00 2422.96,1315.00
             2422.96,1315.00 2422.96,1299.17 2422.96,1299.17
             2422.96,1299.17 2423.87,1292.96 2423.87,1292.96
             2424.46,1285.29 2420.84,1262.90 2418.86,1255.00
             2417.25,1248.54 2408.69,1240.92 2403.00,1237.80
             2403.00,1237.80 2391.00,1231.97 2391.00,1231.97
             2385.99,1228.98 2379.54,1221.89 2376.47,1217.00
             2369.61,1206.32 2374.66,1201.11 2376.47,1192.00
             2377.87,1185.41 2377.93,1178.69 2378.00,1172.00
             2378.00,1172.00 2379.39,1153.00 2379.39,1153.00
             2379.39,1153.00 2378.45,1143.00 2378.45,1143.00
             2378.45,1143.00 2377.91,1124.00 2377.91,1124.00
             2377.91,1124.00 2376.70,1116.00 2376.70,1116.00
             2376.70,1116.00 2376.00,1105.00 2376.00,1105.00
             2376.00,1105.00 2377.19,1107.00 2377.19,1107.00
             2377.19,1107.00 2377.19,1095.00 2377.19,1095.00
             2377.19,1095.00 2377.19,1088.00 2377.19,1088.00
             2377.19,1088.00 2374.22,1080.00 2374.22,1080.00
             2374.22,1080.00 2372.00,1057.00 2372.00,1057.00
             2375.06,1055.91 2374.00,1050.79 2374.00,1048.00
             2374.00,1048.00 2373.00,1056.00 2373.00,1056.00
             2371.88,1052.02 2371.47,1050.44 2374.00,1047.00
             2374.00,1047.00 2372.00,1045.00 2372.00,1045.00
             2372.00,1045.00 2374.00,1044.00 2374.00,1044.00
             2374.00,1044.00 2374.00,1041.00 2374.00,1041.00
             2369.28,1036.08 2371.89,1034.79 2371.82,1029.00
             2371.82,1029.00 2370.12,1015.00 2370.12,1015.00
             2370.12,1015.00 2367.61,995.00 2367.61,995.00
             2367.61,995.00 2364.46,985.00 2364.46,985.00
             2364.46,985.00 2362.68,972.00 2362.68,972.00
             2362.68,972.00 2359.39,959.00 2359.39,959.00
             2359.39,959.00 2355.80,939.51 2355.80,939.51
             2355.02,938.25 2354.62,938.44 2354.00,938.00
             2354.00,938.00 2354.00,942.00 2354.00,942.00
             2350.85,931.69 2354.75,932.53 2349.00,925.00
             2349.00,925.00 2352.00,926.00 2352.00,926.00
             2352.00,926.00 2351.00,920.00 2351.00,920.00
             2351.00,920.00 2350.00,920.00 2350.00,920.00
             2350.00,920.00 2350.00,922.00 2350.00,922.00
             2348.71,918.12 2348.52,917.84 2350.00,914.00
             2350.00,914.00 2347.72,904.09 2347.72,904.09
             2347.72,904.09 2344.03,895.00 2344.03,895.00
             2344.03,895.00 2344.03,889.00 2344.03,889.00
             2344.03,889.00 2341.00,887.00 2341.00,887.00
             2341.00,887.00 2341.79,876.00 2341.79,876.00
             2341.79,876.00 2334.32,858.00 2334.32,858.00
             2334.32,858.00 2330.73,843.96 2330.73,843.96
             2330.73,843.96 2320.86,821.00 2320.86,821.00
             2320.86,821.00 2313.00,800.00 2313.00,800.00
             2310.72,799.36 2310.44,799.38 2311.00,797.00
             2311.00,797.00 2311.00,795.00 2311.00,795.00
             2311.00,795.00 2309.00,790.00 2309.00,790.00
             2309.00,790.00 2308.00,790.00 2308.00,790.00
             2308.00,790.00 2306.00,792.00 2306.00,792.00
             2304.26,785.30 2302.41,771.06 2297.00,767.00
             2297.56,757.93 2292.07,756.47 2288.68,750.72
             2287.31,748.38 2287.36,745.61 2287.00,743.00
             2287.00,743.00 2286.00,743.00 2286.00,743.00
             2286.00,743.00 2284.00,745.00 2284.00,745.00
             2284.00,745.00 2277.00,730.00 2277.00,730.00
             2277.00,730.00 2279.00,731.00 2279.00,731.00
             2279.00,731.00 2273.32,720.01 2273.32,720.01
             2273.32,720.01 2270.02,715.77 2270.02,715.77
             2270.02,715.77 2268.00,715.77 2268.00,715.77
             2265.87,709.55 2263.65,709.98 2265.00,705.00
             2265.00,705.00 2259.00,703.00 2259.00,703.00
             2260.92,700.17 2260.75,700.33 2260.00,697.00
             2260.00,697.00 2257.00,699.00 2257.00,699.00
             2256.28,693.57 2255.88,688.35 2250.00,687.00
             2252.13,678.69 2249.75,679.88 2248.00,672.00
             2242.71,668.83 2244.10,664.39 2241.88,659.09
             2241.88,659.09 2235.09,647.00 2235.09,647.00
             2235.09,647.00 2228.75,628.00 2228.75,628.00
             2226.33,621.43 2220.29,617.47 2216.57,611.71
             2216.57,611.71 2210.82,602.17 2210.82,602.17
             2210.82,602.17 2200.73,590.03 2200.73,590.03
             2200.73,590.03 2197.75,585.26 2197.75,585.26
             2197.75,585.26 2186.63,574.72 2186.63,574.72
             2183.48,571.12 2174.03,562.18 2170.09,560.24
             2168.36,559.40 2166.85,559.27 2165.00,559.00
             2165.00,559.00 2167.00,557.00 2167.00,557.00
             2167.00,557.00 2167.00,556.00 2167.00,556.00
             2167.00,556.00 2160.17,552.83 2160.17,552.83
             2155.26,550.20 2155.26,547.79 2149.00,548.00
             2149.00,548.00 2149.00,545.00 2149.00,545.00
             2142.10,541.86 2144.68,542.15 2139.92,538.54
             2139.92,538.54 2132.72,533.74 2132.72,533.74
             2121.85,526.34 2118.12,524.83 2107.00,519.06
             2100.84,515.86 2096.11,512.41 2089.00,512.00
             2089.00,512.00 2090.00,508.00 2090.00,508.00
             2081.87,507.16 2073.35,504.40 2068.00,498.00
             2068.00,498.00 2065.00,499.00 2065.00,499.00
             2062.17,495.64 2045.89,488.81 2041.00,486.89
             2041.00,486.89 2036.13,485.42 2036.13,485.42
             2031.58,483.36 2033.27,480.21 2027.00,481.00
             2024.24,475.48 2019.26,475.14 2014.00,473.08
             1999.64,467.44 1993.59,467.69 1979.00,465.28
             1979.00,465.28 1972.00,464.57 1972.00,464.57
             1968.99,464.56 1963.48,466.27 1962.00,463.00
             1952.28,463.96 1954.35,462.00 1947.96,460.46
             1934.77,457.27 1937.62,457.36 1926.00,452.33
             1921.85,450.54 1919.38,450.04 1915.09,447.55
             1915.09,447.55 1909.83,443.96 1909.83,443.96
             1903.93,440.46 1906.40,444.37 1896.91,437.29
             1894.32,435.36 1892.12,433.80 1889.00,432.80
             1885.93,431.81 1882.30,432.37 1881.00,429.00
             1872.08,425.67 1875.71,427.82 1868.00,427.82
             1868.00,427.82 1852.02,426.88 1852.02,426.88
             1852.02,426.88 1846.72,425.59 1846.72,425.59
             1846.72,425.59 1823.00,424.35 1823.00,424.35
             1823.00,424.35 1816.00,424.35 1816.00,424.35
             1816.00,424.35 1805.00,423.12 1805.00,423.12
             1805.00,423.12 1797.35,423.12 1797.35,423.12
             1797.35,423.12 1775.00,423.12 1775.00,423.12
             1775.00,423.12 1776.00,421.00 1776.00,421.00
             1773.88,421.01 1771.17,420.88 1769.17,421.56
             1766.91,422.32 1765.34,424.15 1763.05,424.14
             1759.74,424.46 1758.85,421.15 1756.00,424.14
             1751.64,420.42 1741.71,420.07 1736.00,420.00
             1736.00,420.00 1715.91,420.52 1715.91,420.52
             1715.91,420.52 1709.00,420.52 1709.00,420.52
             1691.63,421.27 1670.03,427.73 1655.00,436.42
             1649.26,439.75 1634.76,452.13 1632.60,458.00
             1631.92,459.83 1632.02,462.07 1632.00,464.00 Z
           M 1359.00,590.00
           C 1359.00,590.00 1359.00,591.00 1359.00,591.00
             1359.00,591.00 1358.00,590.00 1358.00,590.00
             1358.00,590.00 1359.00,590.00 1359.00,590.00 Z
           M 1323.00,623.00
           C 1323.00,623.00 1323.00,624.00 1323.00,624.00
             1323.00,624.00 1322.00,623.00 1322.00,623.00
             1322.00,623.00 1323.00,623.00 1323.00,623.00 Z
           M 2303.00,782.00
           C 2303.00,782.00 2303.00,783.00 2303.00,783.00
             2303.00,783.00 2302.00,782.00 2302.00,782.00
             2302.00,782.00 2303.00,782.00 2303.00,782.00 Z
           M 1212.00,887.00
           C 1212.00,887.00 1210.00,895.00 1210.00,895.00
             1210.00,895.00 1212.00,887.00 1212.00,887.00 Z
           M 2356.00,940.00
           C 2356.00,940.00 2356.00,941.00 2356.00,941.00
             2356.00,941.00 2355.00,940.00 2355.00,940.00
             2355.00,940.00 2356.00,940.00 2356.00,940.00 Z
           M 2379.00,1167.00
           C 2379.00,1167.00 2379.00,1168.00 2379.00,1168.00
             2379.00,1168.00 2380.00,1167.00 2380.00,1167.00
             2380.00,1167.00 2379.00,1167.00 2379.00,1167.00 Z
           M 2378.00,1186.00
           C 2378.00,1186.00 2378.00,1187.00 2378.00,1187.00
             2378.00,1187.00 2379.00,1186.00 2379.00,1186.00
             2379.00,1186.00 2378.00,1186.00 2378.00,1186.00 Z
           M 2418.00,1362.00
           C 2418.00,1362.00 2418.00,1363.00 2418.00,1363.00
             2418.00,1363.00 2417.00,1362.00 2417.00,1362.00
             2417.00,1362.00 2418.00,1362.00 2418.00,1362.00 Z
           M 1251.00,1640.00
           C 1251.00,1640.00 1253.00,1643.00 1253.00,1643.00
             1253.00,1643.00 1251.00,1640.00 1251.00,1640.00 Z" />
  <path id="profile"
        fill="none" stroke="black" stroke-width="1"
        d="M 1631.00,464.00
           C 1623.96,462.95 1621.39,465.92 1615.00,467.97
             1596.53,473.91 1599.68,471.20 1581.00,480.77
             1576.22,483.22 1570.24,483.54 1567.00,488.00
             1567.00,488.00 1557.00,491.14 1557.00,491.14
             1557.00,491.14 1550.00,493.00 1550.00,493.00
             1550.00,493.00 1550.00,494.00 1550.00,494.00
             1550.00,494.00 1552.00,494.00 1552.00,494.00
             1552.00,494.00 1544.00,495.72 1544.00,495.72
             1544.00,495.72 1536.00,498.99 1536.00,498.99
             1536.00,498.99 1528.00,501.24 1528.00,501.24
             1528.00,501.24 1518.00,505.52 1518.00,505.52
             1518.00,505.52 1509.00,507.42 1509.00,507.42
             1509.00,507.42 1469.00,520.74 1469.00,520.74
             1469.00,520.74 1455.00,527.29 1455.00,527.29
             1455.00,527.29 1445.01,531.52 1445.01,531.52
             1445.01,531.52 1437.84,535.76 1437.84,535.76
             1437.84,535.76 1427.96,539.94 1427.96,539.94
             1427.96,539.94 1407.58,551.93 1407.58,551.93
             1407.58,551.93 1397.00,557.00 1397.00,557.00
             1397.00,557.00 1399.00,559.00 1399.00,559.00
             1393.39,560.44 1382.71,567.05 1378.30,570.90
             1378.30,570.90 1374.46,575.30 1374.46,575.30
             1374.46,575.30 1367.75,579.72 1367.75,579.72
             1367.75,579.72 1360.91,586.62 1360.91,586.62
             1360.91,586.62 1353.58,592.16 1353.58,592.16
             1353.58,592.16 1332.25,612.12 1332.25,612.12
             1327.65,616.70 1327.53,615.76 1324.54,618.38
             1320.37,622.03 1315.48,629.43 1316.00,635.00
             1316.00,635.00 1313.00,634.00 1313.00,634.00
             1310.81,640.26 1308.82,639.49 1304.82,644.10
             1300.18,649.46 1296.88,655.21 1295.00,662.00
             1295.00,662.00 1293.00,660.00 1293.00,660.00
             1293.00,660.00 1292.00,660.00 1292.00,660.00
             1290.01,665.05 1288.57,665.54 1290.00,671.00
             1281.48,674.70 1277.61,688.06 1273.48,695.91
             1270.91,700.79 1268.88,702.03 1269.00,708.00
             1262.51,711.67 1261.67,716.47 1259.66,723.00
             1259.66,723.00 1255.01,737.00 1255.01,737.00
             1255.01,737.00 1252.00,749.00 1252.00,749.00
             1252.00,749.00 1254.00,749.00 1254.00,749.00
             1247.21,756.55 1248.00,759.03 1248.00,769.00
             1244.77,769.97 1243.52,773.51 1246.00,776.00
             1246.00,776.00 1244.00,784.00 1244.00,784.00
             1244.00,784.00 1241.00,784.00 1241.00,784.00
             1240.01,797.21 1238.33,808.27 1234.52,821.01
             1234.52,821.01 1228.89,839.00 1228.89,839.00
             1227.56,844.37 1221.65,851.77 1224.00,857.00
             1224.00,857.00 1221.00,857.00 1221.00,857.00
             1221.00,857.00 1215.24,879.00 1215.24,879.00
             1215.24,879.00 1210.18,894.00 1210.18,894.00
             1210.18,894.00 1211.00,904.00 1211.00,904.00
             1211.00,904.00 1209.00,902.00 1209.00,902.00
             1209.00,902.00 1208.00,903.00 1208.00,903.00
             1208.00,903.00 1208.00,904.00 1208.00,904.00
             1208.00,904.00 1210.00,904.00 1210.00,904.00
             1210.00,904.00 1209.00,912.00 1209.00,912.00
             1209.00,912.00 1207.00,910.00 1207.00,910.00
             1207.00,910.00 1202.37,926.00 1202.37,926.00
             1202.37,926.00 1200.38,932.00 1200.38,932.00
             1200.38,932.00 1198.62,942.00 1198.62,942.00
             1195.89,950.89 1191.79,958.33 1193.00,968.00
             1188.75,969.23 1189.82,972.66 1191.00,976.00
             1191.00,976.00 1188.00,977.00 1188.00,977.00
             1190.97,982.94 1186.12,991.86 1185.78,995.58
             1185.31,997.26 1185.74,999.32 1185.78,1001.00
             1183.30,1001.97 1184.09,1004.41 1183.96,1007.00
             1183.96,1007.00 1182.34,1020.00 1182.34,1020.00
             1182.34,1020.00 1178.88,1052.00 1178.88,1052.00
             1178.88,1052.00 1177.26,1059.00 1177.26,1059.00
             1177.26,1059.00 1175.00,1083.00 1175.00,1083.00
             1175.00,1083.00 1175.00,1095.00 1175.00,1095.00
             1175.00,1095.00 1173.71,1114.00 1173.71,1114.00
             1173.71,1114.00 1172.23,1123.00 1172.23,1123.00
             1172.23,1123.00 1172.23,1151.00 1172.23,1151.00
             1173.95,1165.06 1172.38,1159.04 1175.93,1174.00
             1176.54,1176.53 1178.15,1181.54 1177.03,1183.82
             1173.26,1191.43 1158.18,1191.56 1151.00,1193.90
             1146.37,1195.41 1140.44,1200.41 1137.70,1204.44
             1137.70,1204.44 1134.05,1211.00 1134.05,1211.00
             1128.70,1219.41 1126.02,1219.61 1126.00,1230.00
             1126.00,1230.00 1126.00,1270.00 1126.00,1270.00
             1126.01,1278.41 1126.80,1278.60 1127.71,1286.00
             1127.71,1286.00 1128.82,1300.00 1128.82,1300.00
             1128.82,1300.00 1128.30,1311.00 1128.30,1311.00
             1128.30,1311.00 1130.37,1326.00 1130.37,1326.00
             1130.37,1326.00 1131.90,1332.00 1131.90,1332.00
             1131.90,1332.00 1131.90,1342.00 1131.90,1342.00
             1132.06,1354.91 1135.54,1358.40 1136.92,1367.91
             1136.92,1367.91 1137.51,1374.09 1137.51,1374.09
             1137.51,1374.09 1139.71,1384.00 1139.71,1384.00
             1139.71,1384.00 1142.02,1403.00 1142.02,1403.00
             1143.40,1411.33 1144.98,1407.74 1145.04,1419.00
             1145.04,1419.00 1145.04,1430.00 1145.04,1430.00
             1145.04,1430.00 1146.15,1440.00 1146.15,1440.00
             1146.15,1440.00 1146.15,1463.00 1146.15,1463.00
             1146.96,1467.59 1147.41,1470.43 1152.00,1472.00
             1152.00,1472.00 1154.00,1481.00 1154.00,1481.00
             1159.58,1488.36 1161.19,1500.91 1160.99,1510.00
             1160.99,1510.00 1157.41,1540.00 1157.41,1540.00
             1157.41,1540.00 1155.78,1549.00 1155.78,1549.00
             1155.78,1549.00 1155.78,1556.00 1155.78,1556.00
             1155.60,1565.23 1153.97,1560.35 1156.56,1571.00
             1156.56,1571.00 1157.99,1577.00 1157.99,1577.00
             1157.99,1577.00 1160.75,1582.72 1160.75,1582.72
             1163.07,1588.17 1165.80,1597.98 1169.65,1602.68
             1169.65,1602.68 1176.28,1608.48 1176.28,1608.48
             1182.75,1613.96 1187.86,1618.42 1196.00,1621.53
             1200.46,1623.24 1202.20,1622.70 1206.00,1623.79
             1206.00,1623.79 1214.00,1626.70 1214.00,1626.70
             1220.58,1628.55 1235.71,1627.50 1239.85,1630.60
             1243.22,1633.12 1242.74,1636.37 1243.51,1640.00
             1243.51,1640.00 1247.92,1662.00 1247.92,1662.00
             1248.48,1665.40 1248.34,1669.62 1251.00,1672.00
             1251.00,1672.00 1251.00,1674.00 1251.00,1674.00
             1251.00,1674.00 1249.00,1674.00 1249.00,1674.00
             1249.00,1674.00 1249.00,1676.00 1249.00,1676.00
             1253.05,1680.34 1253.08,1686.37 1254.35,1692.00
             1254.35,1692.00 1259.71,1722.00 1259.71,1722.00
             1259.71,1722.00 1260.22,1732.00 1260.22,1732.00
             1260.22,1732.00 1263.15,1741.00 1263.15,1741.00
             1263.15,1741.00 1265.57,1756.00 1265.57,1756.00
             1265.57,1756.00 1272.29,1805.00 1272.29,1805.00
             1272.29,1805.00 1277.12,1822.00 1277.12,1822.00
             1277.12,1822.00 1280.54,1837.00 1280.54,1837.00
             1280.54,1837.00 1283.75,1846.00 1283.75,1846.00
             1285.58,1853.15 1284.57,1855.87 1285.34,1860.00
             1285.34,1860.00 1288.04,1869.00 1288.04,1869.00
             1288.04,1869.00 1293.32,1902.00 1293.32,1902.00
             1293.32,1902.00 1295.71,1913.00 1295.71,1913.00
             1295.71,1913.00 1297.24,1935.83 1297.24,1935.83
             1297.24,1935.83 1300.62,1945.00 1300.62,1945.00
             1300.62,1945.00 1303.30,1967.00 1303.30,1967.00
             1303.30,1967.00 1305.70,1978.00 1305.70,1978.00
             1305.70,1978.00 1309.42,2007.00 1309.42,2007.00
             1309.42,2007.00 1319.73,2070.00 1319.73,2070.00
             1319.73,2070.00 1331.27,2153.00 1331.27,2153.00
             1331.27,2153.00 1341.25,2216.00 1341.25,2216.00
             1343.19,2227.14 1346.98,2242.21 1347.00,2253.00
             1347.00,2253.00 1347.00,2313.00 1347.00,2313.00
             1346.98,2323.45 1344.35,2331.93 1342.21,2342.00
             1342.21,2342.00 1332.42,2387.00 1332.42,2387.00
             1332.42,2387.00 1322.42,2424.00 1322.42,2424.00
             1322.42,2424.00 1316.15,2444.96 1316.15,2444.96
             1312.81,2452.27 1296.17,2455.57 1289.00,2459.10
             1283.41,2461.85 1283.76,2462.54 1279.91,2464.78
             1279.91,2464.78 1267.91,2471.75 1267.91,2471.75
             1267.91,2471.75 1260.09,2475.27 1260.09,2475.27
             1260.09,2475.27 1245.00,2485.05 1245.00,2485.05
             1245.00,2485.05 1230.00,2494.14 1230.00,2494.14
             1226.66,2496.00 1223.32,2496.90 1221.00,2500.00
             1221.00,2500.00 1209.00,2501.00 1209.00,2501.00
             1209.00,2501.00 1195.46,2513.45 1195.46,2513.45
             1195.46,2513.45 1191.49,2518.45 1191.49,2518.45
             1191.49,2518.45 1176.96,2529.47 1176.96,2529.47
             1176.96,2529.47 1154.00,2540.81 1154.00,2540.81
             1154.00,2540.81 1143.00,2545.12 1143.00,2545.12
             1143.00,2545.12 1133.09,2550.51 1133.09,2550.51
             1130.10,2552.37 1129.56,2553.46 1125.96,2555.16
             1125.96,2555.16 1107.00,2563.09 1107.00,2563.09
             1107.00,2563.09 1098.17,2567.49 1098.17,2567.49
             1098.17,2567.49 1091.96,2569.26 1091.96,2569.26
             1086.15,2571.86 1085.42,2575.40 1078.00,2579.38
             1078.00,2579.38 1042.00,2598.21 1042.00,2598.21
             1035.42,2601.78 1028.92,2604.26 1025.00,2611.00
             1025.00,2611.00 1022.00,2610.00 1022.00,2610.00
             1018.24,2614.51 1000.73,2624.64 995.00,2625.00
             988.38,2635.55 976.34,2628.99 973.00,2640.00
             957.87,2641.04 952.00,2656.23 941.00,2658.00
             937.93,2663.28 931.24,2664.72 926.00,2667.26
             926.00,2667.26 914.00,2672.90 914.00,2672.90
             914.00,2672.90 904.00,2680.05 904.00,2680.05
             900.29,2682.21 895.49,2683.65 892.23,2686.61
             888.26,2690.20 889.84,2692.84 888.60,2695.26
             887.70,2697.01 880.80,2703.11 879.00,2704.52
             874.75,2707.87 873.07,2707.85 869.00,2710.28
             869.00,2710.28 850.00,2722.32 850.00,2722.32
             850.00,2722.32 835.00,2729.09 835.00,2729.09
             835.00,2729.09 824.00,2735.82 824.00,2735.82
             824.00,2735.82 811.00,2741.21 811.00,2741.21
             811.00,2741.21 802.00,2747.00 802.00,2747.00
             802.00,2747.00 793.28,2750.17 793.28,2750.17
             793.28,2750.17 786.99,2753.68 786.99,2753.68
             786.99,2753.68 778.17,2757.66 778.17,2757.66
             778.17,2757.66 771.96,2761.63 771.96,2761.63
             771.96,2761.63 756.05,2768.80 756.05,2768.80
             752.16,2770.82 752.06,2772.90 748.87,2775.19
             748.87,2775.19 730.00,2785.33 730.00,2785.33
             724.56,2788.43 717.37,2793.67 711.00,2794.00
             709.96,2795.60 709.09,2797.17 707.62,2798.44
             707.62,2798.44 689.00,2809.77 689.00,2809.77
             689.00,2809.77 682.17,2812.97 682.17,2812.97
             682.17,2812.97 676.93,2816.81 676.93,2816.81
             676.93,2816.81 663.00,2824.27 663.00,2824.27
             663.00,2824.27 654.00,2830.32 654.00,2830.32
             654.00,2830.32 643.13,2836.01 643.13,2836.01
             643.13,2836.01 637.74,2839.78 637.74,2839.78
             637.74,2839.78 623.01,2845.00 623.01,2845.00
             618.77,2847.19 617.58,2849.67 613.96,2852.02
             613.96,2852.02 606.00,2856.04 606.00,2856.04
             606.00,2856.04 594.17,2863.36 594.17,2863.36
             594.17,2863.36 585.42,2868.94 585.42,2868.94
             585.42,2868.94 572.91,2877.58 572.91,2877.58
             566.43,2881.23 561.13,2882.03 560.00,2890.00
             560.00,2890.00 555.00,2888.00 555.00,2888.00
             553.78,2891.52 550.24,2890.83 547.09,2892.14
             547.09,2892.14 538.00,2897.00 538.00,2897.00
             535.94,2905.17 525.64,2904.81 523.28,2905.53
             523.28,2905.53 518.00,2908.00 518.00,2908.00
             518.00,2908.00 516.53,2911.44 516.53,2911.44
             516.53,2911.44 502.00,2919.00 502.00,2919.00
             502.00,2919.00 503.00,2921.00 503.00,2921.00
             503.00,2921.00 488.00,2925.00 488.00,2925.00
             488.00,2925.00 488.00,2928.00 488.00,2928.00
             478.19,2928.58 478.82,2933.62 464.00,2940.00
             464.00,2940.00 467.00,2941.00 467.00,2941.00
             459.95,2945.61 461.40,2943.33 454.00,2945.00
             455.46,2950.41 453.81,2950.09 449.00,2951.00
             449.00,2951.00 452.00,2952.00 452.00,2952.00
             452.00,2952.00 443.00,2954.00 443.00,2954.00
             443.00,2954.00 441.00,2959.00 441.00,2959.00
             441.00,2959.00 442.00,2955.00 442.00,2955.00
             438.03,2957.95 436.58,2958.87 437.00,2964.00
             437.00,2964.00 432.00,2964.00 432.00,2964.00
             432.00,2964.00 432.00,2968.00 432.00,2968.00
             432.00,2968.00 426.00,2967.00 426.00,2967.00
             426.00,2967.00 402.39,2986.17 402.39,2986.17
             402.39,2986.17 399.00,2992.00 399.00,2992.00
             394.47,2991.45 394.33,2992.22 391.00,2995.00
             389.35,3001.11 382.08,3002.46 377.00,3005.00
             377.00,3005.00 380.00,3006.00 380.00,3006.00
             369.92,3010.41 370.63,3007.13 367.00,3018.00
             367.00,3018.00 363.00,3017.00 363.00,3017.00
             363.00,3017.00 362.00,3021.00 362.00,3021.00
             362.00,3021.00 359.00,3020.00 359.00,3020.00
             357.62,3023.76 357.33,3023.83 354.00,3026.00
             354.00,3026.00 355.00,3028.00 355.00,3028.00
             355.00,3028.00 344.00,3035.00 344.00,3035.00
             343.17,3041.80 338.51,3041.23 335.00,3046.00
             329.54,3045.25 326.30,3048.55 327.00,3054.00
             321.71,3055.49 320.33,3055.71 318.00,3061.00
             318.00,3061.00 316.00,3060.00 316.00,3060.00
             316.00,3060.00 313.00,3063.00 313.00,3063.00
             313.00,3063.00 311.00,3069.00 311.00,3069.00
             311.00,3069.00 304.00,3068.00 304.00,3068.00
             304.00,3068.00 304.00,3070.00 304.00,3070.00
             304.00,3070.00 307.00,3072.00 307.00,3072.00
             307.00,3072.00 281.00,3089.00 281.00,3089.00
             281.00,3089.00 283.00,3091.00 283.00,3091.00
             283.00,3091.00 276.00,3096.00 276.00,3096.00
             276.00,3096.00 274.00,3094.00 274.00,3094.00
             274.00,3094.00 273.00,3094.00 273.00,3094.00
             268.21,3101.67 263.47,3097.67 257.42,3100.94
             252.04,3103.85 247.63,3110.99 242.00,3112.00
             241.03,3115.64 236.31,3119.04 234.20,3122.26
             229.49,3129.40 228.03,3138.80 230.15,3147.00
             231.04,3150.42 233.93,3158.73 232.00,3160.00
             232.00,3160.00 225.00,3161.00 225.00,3161.00
             225.00,3161.00 223.00,3165.00 223.00,3165.00
             223.00,3165.00 221.00,3168.00 221.00,3168.00
             220.20,3171.45 211.29,3178.24 208.00,3180.00
             208.00,3180.00 208.00,3184.00 208.00,3184.00
             208.00,3184.00 204.00,3184.00 204.00,3184.00
             204.00,3184.00 206.00,3187.00 206.00,3187.00
             202.26,3190.06 194.98,3199.60 193.00,3204.00
             193.00,3204.00 189.00,3200.00 189.00,3200.00
             189.00,3200.00 185.00,3205.00 185.00,3205.00
             185.00,3205.00 187.00,3208.00 187.00,3208.00
             187.00,3208.00 180.00,3220.00 180.00,3220.00
             180.00,3220.00 179.00,3216.00 179.00,3216.00
             174.97,3220.40 177.34,3221.21 175.09,3225.17
             175.09,3225.17 166.24,3236.58 166.24,3236.58
             162.91,3241.31 162.63,3244.86 157.00,3248.00
             154.98,3256.14 147.14,3262.91 142.79,3270.00
             142.79,3270.00 137.09,3281.96 137.09,3281.96
             137.09,3281.96 131.48,3289.09 131.48,3289.09
             131.48,3289.09 108.99,3325.17 108.99,3325.17
             108.99,3325.17 103.15,3336.72 103.15,3336.72
             103.15,3336.72 92.40,3352.09 92.40,3352.09
             92.40,3352.09 89.09,3360.00 89.09,3360.00
             89.09,3360.00 80.31,3376.00 80.31,3376.00
             80.31,3376.00 74.70,3388.91 74.70,3388.91
             74.70,3388.91 68.88,3397.01 68.88,3397.01
             65.96,3401.61 66.19,3403.69 63.90,3408.00
             63.90,3408.00 56.91,3420.00 56.91,3420.00
             56.91,3420.00 55.21,3426.00 55.21,3426.00
             55.21,3426.00 49.18,3442.99 49.18,3442.99
             49.18,3442.99 45.78,3450.17 45.78,3450.17
             45.78,3450.17 42.57,3459.00 42.57,3459.00
             42.57,3459.00 33.98,3476.00 33.98,3476.00
             33.98,3476.00 25.60,3498.28 25.60,3498.28
             25.60,3498.28 22.17,3506.00 22.17,3506.00
             22.17,3506.00 18.91,3516.91 18.91,3516.91
             18.91,3516.91 13.25,3531.09 13.25,3531.09
             13.25,3531.09 10.65,3539.00 10.65,3539.00
             4.98,3552.55 0.03,3554.42 0.00,3571.00
             0.00,3571.00 0.00,4675.00 0.00,4675.00
             0.00,4675.00 3422.00,4675.00 3422.00,4675.00
             3422.00,4675.00 3422.00,3282.00 3422.00,3282.00
             3422.00,3282.00 3422.00,2791.00 3422.00,2791.00
             3422.00,2788.79 3422.22,2785.29 3420.98,2783.42
             3417.93,2778.84 3403.24,2777.53 3398.00,2776.70
             3390.71,2775.54 3384.04,2770.53 3377.00,2768.08
             3370.94,2765.97 3363.75,2765.57 3359.00,2761.00
             3359.00,2761.00 3345.21,2756.09 3345.21,2756.09
             3345.21,2756.09 3340.63,2752.48 3340.63,2752.48
             3340.63,2752.48 3335.00,2750.74 3335.00,2750.74
             3335.00,2750.74 3321.00,2743.00 3321.00,2743.00
             3316.46,2743.38 3314.35,2743.18 3312.00,2739.00
             3312.00,2739.00 3307.00,2739.00 3307.00,2739.00
             3307.00,2739.00 3308.00,2736.00 3308.00,2736.00
             3303.34,2734.87 3301.66,2734.68 3297.00,2736.00
             3297.00,2736.00 3296.00,2731.00 3296.00,2731.00
             3296.00,2731.00 3282.27,2726.11 3282.27,2726.11
             3282.27,2726.11 3279.00,2722.00 3279.00,2722.00
             3275.93,2721.91 3275.02,2722.08 3274.00,2719.00
             3265.29,2719.53 3267.21,2716.91 3260.93,2713.84
             3255.95,2711.40 3253.45,2711.02 3248.00,2711.00
             3248.00,2711.00 3247.00,2707.00 3247.00,2707.00
             3247.00,2707.00 3237.00,2703.70 3237.00,2703.70
             3237.00,2703.70 3228.00,2703.00 3228.00,2703.00
             3228.00,2703.00 3231.00,2702.00 3231.00,2702.00
             3231.00,2702.00 3223.00,2700.00 3223.00,2700.00
             3220.79,2696.94 3219.53,2697.57 3216.00,2698.00
             3216.00,2698.00 3214.41,2694.85 3214.41,2694.85
             3214.41,2694.85 3208.00,2692.09 3208.00,2692.09
             3208.00,2692.09 3190.00,2687.00 3190.00,2687.00
             3190.00,2687.00 3191.00,2684.00 3191.00,2684.00
             3191.00,2684.00 3185.00,2685.00 3185.00,2685.00
             3182.53,2681.30 3179.21,2681.76 3175.00,2681.00
             3175.00,2681.00 3177.00,2680.00 3177.00,2680.00
             3177.00,2680.00 3168.00,2676.00 3168.00,2676.00
             3164.20,2676.20 3163.10,2676.34 3160.00,2674.00
             3160.00,2674.00 3163.00,2675.00 3163.00,2675.00
             3158.98,2672.14 3157.91,2672.94 3154.17,2671.13
             3149.07,2668.67 3142.77,2663.51 3137.00,2667.00
             3134.29,2659.67 3127.45,2660.30 3121.00,2659.59
             3121.00,2659.59 3113.00,2658.00 3113.00,2658.00
             3113.00,2658.00 3114.00,2652.00 3114.00,2652.00
             3103.83,2649.83 3101.33,2649.70 3092.00,2645.00
             3092.00,2645.00 3088.00,2647.00 3088.00,2647.00
             3088.00,2647.00 3089.00,2645.00 3089.00,2645.00
             3089.00,2645.00 3081.00,2644.00 3081.00,2644.00
             3078.80,2637.75 3071.52,2638.53 3066.00,2639.00
             3066.00,2639.00 3068.00,2637.00 3068.00,2637.00
             3068.00,2637.00 3069.00,2637.00 3069.00,2637.00
             3069.00,2637.00 3059.87,2633.02 3059.87,2633.02
             3059.87,2633.02 3053.83,2631.43 3053.83,2631.43
             3053.83,2631.43 3042.00,2626.85 3042.00,2626.85
             3042.00,2626.85 3033.00,2626.85 3033.00,2626.85
             3033.00,2626.85 3034.00,2624.00 3034.00,2624.00
             3034.00,2624.00 3026.00,2619.00 3026.00,2619.00
             3016.44,2619.81 3007.87,2613.48 3003.00,2612.39
             3003.00,2612.39 2994.00,2611.53 2994.00,2611.53
             2994.00,2611.53 2977.00,2603.80 2977.00,2603.80
             2977.00,2603.80 2965.28,2601.25 2965.28,2601.25
             2965.28,2601.25 2956.00,2596.99 2956.00,2596.99
             2956.00,2596.99 2948.00,2595.32 2948.00,2595.32
             2948.00,2595.32 2942.00,2592.83 2942.00,2592.83
             2929.08,2588.16 2929.24,2587.59 2915.00,2585.00
             2915.00,2585.00 2912.00,2587.00 2912.00,2587.00
             2912.00,2587.00 2910.41,2583.85 2910.41,2583.85
             2910.41,2583.85 2894.00,2578.82 2894.00,2578.82
             2894.00,2578.82 2890.00,2578.82 2890.00,2578.82
             2886.43,2573.88 2883.71,2575.09 2878.61,2572.54
             2872.25,2569.35 2873.32,2567.10 2862.00,2564.09
             2862.00,2564.09 2852.04,2562.16 2852.04,2562.16
             2852.04,2562.16 2846.72,2560.43 2846.72,2560.43
             2840.93,2559.01 2839.46,2561.49 2832.00,2555.00
             2826.96,2554.98 2825.44,2553.14 2821.00,2551.11
             2821.00,2551.11 2813.72,2548.56 2813.72,2548.56
             2805.85,2545.12 2809.28,2544.04 2799.00,2544.00
             2797.80,2539.93 2789.92,2536.98 2786.00,2536.00
             2786.00,2536.00 2786.00,2538.00 2786.00,2538.00
             2780.68,2534.59 2773.42,2529.55 2767.00,2531.00
             2767.00,2531.00 2766.00,2528.00 2766.00,2528.00
             2759.92,2528.73 2761.65,2526.41 2756.87,2524.28
             2756.87,2524.28 2750.09,2522.46 2750.09,2522.46
             2750.09,2522.46 2745.72,2520.40 2745.72,2520.40
             2745.72,2520.40 2731.00,2516.30 2731.00,2516.30
             2731.00,2516.30 2725.00,2513.46 2725.00,2513.46
             2725.00,2513.46 2710.00,2508.27 2710.00,2508.27
             2706.57,2507.07 2697.43,2504.67 2695.14,2503.02
             2691.35,2500.28 2689.46,2491.86 2684.54,2489.01
             2681.72,2487.37 2678.20,2489.38 2671.00,2487.56
             2671.00,2487.56 2649.71,2478.28 2649.71,2478.28
             2644.58,2476.64 2643.02,2479.19 2636.00,2476.40
             2629.28,2473.72 2623.26,2469.06 2617.00,2465.54
             2613.37,2463.51 2612.02,2464.44 2608.42,2462.87
             2608.42,2462.87 2599.00,2457.00 2599.00,2457.00
             2599.00,2457.00 2588.00,2454.33 2588.00,2454.33
             2588.00,2454.33 2575.00,2448.54 2575.00,2448.54
             2568.10,2445.12 2568.88,2443.02 2564.87,2441.42
             2561.15,2439.92 2558.72,2441.11 2554.00,2440.09
             2543.59,2437.84 2542.23,2435.58 2537.00,2433.66
             2537.00,2433.66 2529.00,2431.49 2529.00,2431.49
             2524.72,2429.67 2521.36,2425.23 2516.00,2422.99
             2516.00,2422.99 2503.00,2420.01 2503.00,2420.01
             2503.00,2420.01 2497.00,2417.20 2497.00,2417.20
             2497.00,2417.20 2490.17,2414.82 2490.17,2414.82
             2490.17,2414.82 2473.00,2407.29 2473.00,2407.29
             2473.00,2407.29 2460.00,2403.34 2460.00,2403.34
             2460.00,2403.34 2452.00,2399.50 2452.00,2399.50
             2452.00,2399.50 2429.00,2390.09 2429.00,2390.09
             2429.00,2390.09 2390.00,2379.38 2390.00,2379.38
             2390.00,2379.38 2378.57,2377.68 2378.57,2377.68
             2371.50,2375.65 2358.18,2362.39 2351.58,2357.42
             2347.55,2354.40 2336.83,2349.26 2332.00,2348.34
             2332.00,2348.34 2322.00,2347.51 2322.00,2347.51
             2322.00,2347.51 2308.00,2348.29 2308.00,2348.29
             2308.00,2348.29 2295.00,2346.10 2295.00,2346.10
             2287.90,2345.62 2282.00,2346.48 2275.14,2342.44
             2272.20,2340.71 2272.33,2338.99 2270.51,2336.42
             2268.22,2333.19 2265.17,2330.56 2263.31,2327.00
             2263.31,2327.00 2261.46,2322.27 2261.46,2322.27
             2260.12,2319.78 2258.32,2319.59 2257.01,2317.59
             2258.20,2319.40 2252.14,2306.35 2252.72,2307.91
             2252.72,2307.91 2250.63,2297.00 2250.63,2297.00
             2248.01,2286.34 2247.95,2280.49 2246.83,2270.00
             2246.83,2270.00 2245.09,2261.00 2245.09,2261.00
             2245.09,2261.00 2245.09,2244.00 2245.09,2244.00
             2245.09,2244.00 2246.00,2223.00 2246.00,2223.00
             2246.00,2223.00 2244.96,2192.00 2244.96,2192.00
             2244.96,2192.00 2244.96,2179.00 2244.96,2179.00
             2244.96,2179.00 2244.09,2172.00 2244.09,2172.00
             2243.85,2167.71 2244.65,2165.87 2244.96,2162.00
             2244.96,2162.00 2244.96,2153.00 2244.96,2153.00
             2245.01,2148.01 2245.47,2142.92 2246.32,2138.00
             2246.32,2138.00 2247.82,2131.00 2247.82,2131.00
             2247.82,2131.00 2249.05,2104.00 2249.05,2104.00
             2249.05,2104.00 2249.05,2089.00 2249.05,2089.00
             2249.05,2089.00 2249.71,2083.00 2249.71,2083.00
             2249.71,2083.00 2249.71,2077.00 2249.71,2077.00
             2249.71,2077.00 2251.20,2065.99 2251.20,2065.99
             2251.20,2065.99 2251.20,2055.00 2251.20,2055.00
             2251.20,2055.00 2251.98,2045.00 2251.98,2045.00
             2251.98,2045.00 2251.98,2037.00 2251.98,2037.00
             2252.42,2031.69 2254.39,2030.45 2254.66,2026.00
             2254.66,2026.00 2253.00,2007.00 2253.00,2007.00
             2253.00,2007.00 2253.00,2000.00 2253.00,2000.00
             2253.00,2000.00 2253.82,1982.00 2253.82,1982.00
             2253.82,1982.00 2252.00,1958.00 2252.00,1958.00
             2252.00,1958.00 2250.21,1930.00 2250.21,1930.00
             2250.21,1930.00 2252.19,1922.00 2252.19,1922.00
             2252.19,1922.00 2259.03,1891.00 2259.03,1891.00
             2259.85,1887.89 2261.85,1885.20 2262.30,1882.00
             2262.92,1877.61 2260.48,1872.34 2261.43,1868.04
             2261.43,1868.04 2265.88,1858.08 2265.88,1858.08
             2265.88,1858.08 2268.33,1844.00 2268.33,1844.00
             2268.33,1844.00 2270.94,1836.00 2270.94,1836.00
             2271.49,1833.41 2270.28,1831.99 2270.94,1828.00
             2270.94,1828.00 2272.63,1817.00 2272.63,1817.00
             2273.53,1813.73 2274.52,1812.87 2274.95,1809.00
             2274.95,1809.00 2274.95,1797.00 2274.95,1797.00
             2275.46,1794.82 2280.90,1786.17 2282.28,1780.00
             2283.31,1775.43 2281.43,1771.97 2282.82,1765.17
             2282.82,1765.17 2286.13,1755.00 2286.13,1755.00
             2286.13,1755.00 2286.94,1746.42 2286.94,1746.42
             2286.94,1746.42 2288.83,1738.00 2288.83,1738.00
             2288.83,1738.00 2289.53,1729.00 2289.53,1729.00
             2289.53,1729.00 2294.50,1710.00 2294.50,1710.00
             2295.21,1704.77 2292.81,1700.15 2293.29,1697.00
             2293.29,1697.00 2299.41,1680.00 2299.41,1680.00
             2301.52,1672.36 2300.45,1667.87 2300.84,1666.17
             2301.38,1663.83 2303.91,1661.04 2306.09,1660.10
             2309.17,1658.76 2320.95,1662.24 2325.00,1662.92
             2327.53,1663.34 2330.46,1663.95 2333.00,1663.79
             2343.16,1663.14 2358.41,1656.13 2362.00,1646.00
             2366.81,1645.70 2367.65,1643.48 2367.00,1639.00
             2372.38,1635.77 2376.30,1625.03 2375.00,1619.00
             2380.54,1614.43 2377.03,1599.68 2377.00,1593.00
             2376.94,1581.20 2375.32,1585.09 2374.82,1579.96
             2374.82,1579.96 2374.82,1574.00 2374.82,1574.00
             2375.25,1562.21 2374.15,1566.65 2377.00,1554.00
             2377.00,1554.00 2380.00,1555.00 2380.00,1555.00
             2380.00,1555.00 2381.00,1552.00 2381.00,1552.00
             2381.00,1552.00 2379.00,1552.00 2379.00,1552.00
             2379.00,1552.00 2385.26,1535.00 2385.26,1535.00
             2390.08,1523.89 2391.91,1525.44 2392.00,1512.00
             2392.07,1502.34 2394.63,1505.06 2395.51,1498.08
             2396.80,1489.59 2395.33,1488.32 2395.51,1484.00
             2395.51,1484.00 2397.11,1458.00 2397.11,1458.00
             2397.11,1458.00 2397.11,1445.01 2397.11,1445.01
             2397.75,1441.86 2398.80,1441.13 2399.54,1438.72
             2399.54,1438.72 2400.71,1433.00 2400.71,1433.00
             2400.71,1433.00 2404.31,1421.00 2404.31,1421.00
             2404.31,1421.00 2411.21,1389.00 2411.21,1389.00
             2412.91,1380.99 2416.88,1375.47 2416.00,1367.00
             2419.31,1364.43 2418.78,1361.87 2419.43,1358.00
             2420.87,1349.50 2421.93,1347.21 2422.04,1338.00
             2422.04,1338.00 2422.04,1324.00 2422.04,1324.00
             2422.04,1324.00 2422.94,1314.00 2422.94,1314.00
             2422.94,1314.00 2422.94,1303.00 2422.94,1303.00
             2422.94,1303.00 2423.90,1293.00 2423.90,1293.00
             2424.24,1286.85 2423.47,1280.13 2422.83,1274.00
             2422.83,1274.00 2419.27,1254.00 2419.27,1254.00
             2418.20,1250.19 2416.45,1249.38 2415.00,1244.00
             2415.00,1244.00 2413.00,1246.00 2413.00,1246.00
             2410.64,1243.51 2407.83,1240.60 2405.00,1238.69
             2405.00,1238.69 2391.00,1231.65 2391.00,1231.65
             2384.05,1227.50 2374.65,1217.31 2373.36,1209.00
             2372.24,1201.76 2376.76,1196.84 2377.00,1186.00
             2377.00,1186.00 2378.00,1188.00 2378.00,1188.00
             2378.00,1188.00 2378.00,1167.00 2378.00,1167.00
             2378.00,1167.00 2379.10,1169.00 2379.10,1169.00
             2379.10,1169.00 2379.10,1159.00 2379.10,1159.00
             2379.10,1159.00 2379.74,1153.00 2379.74,1153.00
             2379.74,1153.00 2378.93,1146.17 2378.93,1146.17
             2378.93,1146.17 2380.00,1136.00 2380.00,1136.00
             2380.00,1136.00 2379.00,1139.00 2379.00,1139.00
             2379.00,1139.00 2378.00,1122.00 2378.00,1122.00
             2378.00,1122.00 2379.00,1126.00 2379.00,1126.00
             2379.00,1126.00 2380.00,1120.00 2380.00,1120.00
             2380.00,1120.00 2377.00,1120.00 2377.00,1120.00
             2377.00,1120.00 2377.75,1088.17 2377.75,1088.17
             2377.75,1088.17 2375.04,1081.96 2375.04,1081.96
             2373.59,1077.29 2372.04,1068.02 2375.04,1064.00
             2373.76,1061.39 2373.53,1061.49 2375.04,1059.00
             2375.04,1059.00 2372.00,1048.00 2372.00,1048.00
             2373.13,1046.26 2373.52,1046.49 2372.00,1045.00
             2373.37,1042.75 2373.37,1043.25 2372.00,1041.00
             2372.00,1041.00 2374.00,1041.00 2374.00,1041.00
             2374.00,1041.00 2371.00,1036.00 2371.00,1036.00
             2371.00,1036.00 2372.37,1034.46 2372.37,1034.46
             2372.37,1034.46 2370.35,1017.00 2370.35,1017.00
             2370.35,1017.00 2367.61,995.00 2367.61,995.00
             2367.61,995.00 2364.47,985.00 2364.47,985.00
             2364.47,985.00 2362.54,971.00 2362.54,971.00
             2362.54,971.00 2359.38,959.17 2359.38,959.17
             2359.38,959.17 2355.91,939.41 2355.91,939.41
             2355.91,939.41 2352.82,938.00 2352.82,938.00
             2352.82,938.00 2352.82,929.00 2352.82,929.00
             2352.82,929.00 2351.00,920.00 2351.00,920.00
             2351.00,920.00 2350.00,920.00 2350.00,920.00
             2350.00,920.00 2350.00,922.00 2350.00,922.00
             2348.35,916.45 2350.37,912.22 2348.05,902.93
             2347.03,898.86 2346.24,898.92 2344.89,895.84
             2344.18,894.19 2341.96,883.63 2342.12,881.96
             2343.19,870.40 2338.13,867.19 2334.33,858.00
             2331.73,851.71 2332.21,848.35 2330.92,843.96
             2329.38,838.73 2326.62,833.96 2324.44,829.00
             2324.44,829.00 2318.07,813.00 2318.07,813.00
             2316.97,809.74 2316.01,804.92 2314.01,802.22
             2312.67,800.41 2311.82,800.09 2310.00,799.00
             2310.44,796.18 2310.32,789.34 2306.00,791.00
             2306.00,791.00 2303.30,779.00 2303.30,779.00
             2303.30,779.00 2297.04,762.04 2297.04,762.04
             2297.04,762.04 2288.38,750.13 2288.38,750.13
             2288.38,750.13 2287.00,743.00 2287.00,743.00
             2287.00,743.00 2282.00,740.00 2282.00,740.00
             2282.00,740.00 2283.00,737.00 2283.00,737.00
             2278.29,735.67 2279.64,733.22 2278.21,729.42
             2278.21,729.42 2270.00,713.00 2270.00,713.00
             2270.00,713.00 2267.00,714.00 2267.00,714.00
             2267.00,714.00 2265.00,705.00 2265.00,705.00
             2265.00,705.00 2260.00,703.00 2260.00,703.00
             2261.70,699.49 2260.96,698.03 2257.00,698.00
             2257.00,698.00 2256.00,688.00 2256.00,688.00
             2256.00,688.00 2250.00,686.00 2250.00,686.00
             2253.24,681.01 2249.57,678.67 2248.00,672.00
             2242.28,668.57 2244.34,663.30 2241.01,657.28
             2236.79,649.66 2235.64,648.90 2232.43,640.00
             2232.43,640.00 2227.44,625.00 2227.44,625.00
             2224.53,619.71 2219.85,617.34 2216.02,610.83
             2212.80,605.36 2206.02,593.03 2200.00,591.00
             2199.95,585.68 2196.09,583.38 2192.34,580.00
             2185.30,573.67 2175.20,560.95 2166.00,559.00
             2166.00,559.00 2167.00,556.00 2167.00,556.00
             2167.00,556.00 2148.00,547.00 2148.00,547.00
             2148.00,547.00 2150.00,545.00 2150.00,545.00
             2144.75,542.35 2140.13,537.03 2135.00,537.00
             2133.67,533.21 2128.15,530.26 2124.68,527.99
             2118.57,523.98 2095.76,512.58 2089.00,511.00
             2089.00,511.00 2091.00,509.00 2091.00,509.00
             2091.00,509.00 2075.09,503.77 2075.09,503.77
             2075.09,503.77 2066.83,498.04 2066.83,498.04
             2066.83,498.04 2060.58,495.79 2060.58,495.79
             2060.58,495.79 2054.00,492.21 2054.00,492.21
             2054.00,492.21 2047.00,489.64 2047.00,489.64
             2040.43,486.81 2040.93,485.39 2033.00,485.00
             2032.53,483.53 2032.59,482.83 2031.41,481.56
             2029.81,479.84 2020.51,475.25 2018.00,474.42
             2018.00,474.42 1997.00,467.69 1997.00,467.69
             1997.00,467.69 1983.00,466.12 1983.00,466.12
             1979.52,465.36 1967.60,462.63 1965.00,465.00
             1961.01,462.22 1957.52,462.90 1953.00,464.00
             1953.00,464.00 1953.00,461.00 1953.00,461.00
             1935.06,457.77 1942.04,459.29 1926.00,452.33
             1926.00,452.33 1914.13,446.91 1914.13,446.91
             1914.13,446.91 1908.91,443.26 1908.91,443.26
             1908.91,443.26 1901.00,439.52 1901.00,439.52
             1892.37,434.48 1890.96,431.25 1880.00,431.00
             1880.00,431.00 1882.00,429.00 1882.00,429.00
             1872.02,424.77 1872.91,428.29 1867.00,427.69
             1867.00,427.69 1860.00,426.35 1860.00,426.35
             1860.00,426.35 1852.00,426.35 1852.00,426.35
             1848.98,426.18 1848.56,425.26 1844.00,424.80
             1844.00,424.80 1833.42,424.80 1833.42,424.80
             1833.42,424.80 1827.00,424.80 1827.00,424.80
             1827.00,424.80 1797.00,422.82 1797.00,422.82
             1797.00,422.82 1773.00,421.10 1773.00,421.10
             1766.45,420.82 1765.32,423.42 1762.08,423.27
             1762.08,423.27 1756.91,422.08 1756.91,422.08
             1756.91,422.08 1734.00,420.00 1734.00,420.00
             1717.37,419.97 1701.12,419.95 1685.00,424.46
             1668.77,429.00 1652.77,435.16 1640.88,447.61
             1634.42,454.38 1632.04,454.86 1631.00,464.00 Z
           M 1769.00,422.00
           C 1769.00,422.00 1769.00,423.00 1769.00,423.00
             1769.00,423.00 1768.00,422.00 1768.00,422.00
             1768.00,422.00 1769.00,422.00 1769.00,422.00 Z
           M 1359.00,590.00
           C 1359.00,590.00 1359.00,591.00 1359.00,591.00
             1359.00,591.00 1358.00,590.00 1358.00,590.00
             1358.00,590.00 1359.00,590.00 1359.00,590.00 Z
           M 2282.00,739.00
           C 2282.00,739.00 2282.00,740.00 2282.00,740.00
             2282.00,740.00 2281.00,739.00 2281.00,739.00
             2281.00,739.00 2282.00,739.00 2282.00,739.00 Z
           M 1256.00,741.00
           C 1256.00,741.00 1256.00,742.00 1256.00,742.00
             1256.00,742.00 1255.00,741.00 1255.00,741.00
             1255.00,741.00 1256.00,741.00 1256.00,741.00 Z
           M 2285.00,741.00
           C 2285.00,741.00 2285.00,742.00 2285.00,742.00
             2285.00,742.00 2286.00,741.00 2286.00,741.00
             2286.00,741.00 2285.00,741.00 2285.00,741.00 Z
           M 1247.00,773.00
           C 1247.00,773.00 1247.00,774.00 1247.00,774.00
             1247.00,774.00 1246.00,773.00 1246.00,773.00
             1246.00,773.00 1247.00,773.00 1247.00,773.00 Z
           M 2302.00,780.00
           C 2302.00,780.00 2302.00,781.00 2302.00,781.00
             2302.00,781.00 2301.00,780.00 2301.00,780.00
             2301.00,780.00 2302.00,780.00 2302.00,780.00 Z
           M 1242.00,792.00
           C 1242.00,792.00 1242.00,793.00 1242.00,793.00
             1242.00,793.00 1241.00,792.00 1241.00,792.00
             1241.00,792.00 1242.00,792.00 1242.00,792.00 Z
           M 2310.00,797.00
           C 2310.00,797.00 2310.00,798.00 2310.00,798.00
             2310.00,798.00 2309.00,797.00 2309.00,797.00
             2309.00,797.00 2310.00,797.00 2310.00,797.00 Z
           M 1215.00,884.00
           C 1215.00,884.00 1215.00,888.00 1215.00,888.00
             1215.00,888.00 1215.00,884.00 1215.00,884.00 Z
           M 2343.00,889.00
           C 2343.00,889.00 2343.00,890.00 2343.00,890.00
             2343.00,890.00 2342.00,889.00 2342.00,889.00
             2342.00,889.00 2343.00,889.00 2343.00,889.00 Z
           M 1213.00,893.00
           C 1213.00,893.00 1213.00,894.00 1213.00,894.00
             1213.00,894.00 1212.00,893.00 1212.00,893.00
             1212.00,893.00 1213.00,893.00 1213.00,893.00 Z
           M 1207.00,917.00
           C 1207.00,917.00 1207.00,918.00 1207.00,918.00
             1207.00,918.00 1206.00,917.00 1206.00,917.00
             1206.00,917.00 1207.00,917.00 1207.00,917.00 Z
           M 1205.00,920.00
           C 1205.00,920.00 1205.00,921.00 1205.00,921.00
             1205.00,921.00 1204.00,920.00 1204.00,920.00
             1204.00,920.00 1205.00,920.00 1205.00,920.00 Z
           M 1205.00,922.00
           C 1205.00,922.00 1205.00,923.00 1205.00,923.00
             1205.00,923.00 1204.00,922.00 1204.00,922.00
             1204.00,922.00 1205.00,922.00 1205.00,922.00 Z
           M 2350.00,925.00
           C 2350.00,925.00 2350.00,926.00 2350.00,926.00
             2350.00,926.00 2349.00,925.00 2349.00,925.00
             2349.00,925.00 2350.00,925.00 2350.00,925.00 Z
           M 2354.00,935.00
           C 2354.00,935.00 2354.00,936.00 2354.00,936.00
             2354.00,936.00 2355.00,935.00 2355.00,935.00
             2355.00,935.00 2354.00,935.00 2354.00,935.00 Z
           M 2377.00,1107.00
           C 2377.00,1107.00 2377.00,1108.00 2377.00,1108.00
             2377.00,1108.00 2376.00,1107.00 2376.00,1107.00
             2376.00,1107.00 2377.00,1107.00 2377.00,1107.00 Z
           M 2378.00,1115.00
           C 2378.00,1115.00 2378.00,1116.00 2378.00,1116.00
             2378.00,1116.00 2379.00,1115.00 2379.00,1115.00
             2379.00,1115.00 2378.00,1115.00 2378.00,1115.00 Z
           M 2364.00,1645.00
           C 2364.00,1645.00 2364.00,1646.00 2364.00,1646.00
             2364.00,1646.00 2363.00,1645.00 2363.00,1645.00
             2363.00,1645.00 2364.00,1645.00 2364.00,1645.00 Z
           M 2729.00,2517.00
           C 2729.00,2517.00 2729.00,2518.00 2729.00,2518.00
             2729.00,2518.00 2728.00,2517.00 2728.00,2517.00
             2728.00,2517.00 2729.00,2517.00 2729.00,2517.00 Z
           M 2754.00,2525.00
           C 2754.00,2525.00 2754.00,2526.00 2754.00,2526.00
             2754.00,2526.00 2753.00,2525.00 2753.00,2525.00
             2753.00,2525.00 2754.00,2525.00 2754.00,2525.00 Z
           M 2756.00,2526.00
           C 2756.00,2526.00 2756.00,2527.00 2756.00,2527.00
             2756.00,2527.00 2755.00,2526.00 2755.00,2526.00
             2755.00,2526.00 2756.00,2526.00 2756.00,2526.00 Z
           M 2798.00,2543.00
           C 2798.00,2543.00 2798.00,2544.00 2798.00,2544.00
             2798.00,2544.00 2797.00,2543.00 2797.00,2543.00
             2797.00,2543.00 2798.00,2543.00 2798.00,2543.00 Z
           M 2811.00,2549.00
           C 2811.00,2549.00 2811.00,2550.00 2811.00,2550.00
             2811.00,2550.00 2810.00,2549.00 2810.00,2549.00
             2810.00,2549.00 2811.00,2549.00 2811.00,2549.00 Z
           M 2910.00,2584.00
           C 2910.00,2584.00 2910.00,2585.00 2910.00,2585.00
             2910.00,2585.00 2909.00,2584.00 2909.00,2584.00
             2909.00,2584.00 2910.00,2584.00 2910.00,2584.00 Z
           M 3056.00,2634.00
           C 3056.00,2634.00 3056.00,2635.00 3056.00,2635.00
             3056.00,2635.00 3055.00,2634.00 3055.00,2634.00
             3055.00,2634.00 3056.00,2634.00 3056.00,2634.00 Z
           M 3306.00,2737.00
           C 3306.00,2737.00 3306.00,2738.00 3306.00,2738.00
             3306.00,2738.00 3305.00,2737.00 3305.00,2737.00
             3305.00,2737.00 3306.00,2737.00 3306.00,2737.00 Z
           M 3334.00,2749.00
           C 3334.00,2749.00 3334.00,2750.00 3334.00,2750.00
             3334.00,2750.00 3335.00,2749.00 3335.00,2749.00
             3335.00,2749.00 3334.00,2749.00 3334.00,2749.00 Z
           M 447.00,2955.00
           C 447.00,2955.00 447.00,2956.00 447.00,2956.00
             447.00,2956.00 446.00,2955.00 446.00,2955.00
             446.00,2955.00 447.00,2955.00 447.00,2955.00 Z
           M 438.00,2960.00
           C 438.00,2960.00 438.00,2961.00 438.00,2961.00
             438.00,2961.00 437.00,2960.00 437.00,2960.00
             437.00,2960.00 438.00,2960.00 438.00,2960.00 Z
           M 317.00,3061.00
           C 317.00,3061.00 317.00,3062.00 317.00,3062.00
             317.00,3062.00 316.00,3061.00 316.00,3061.00
             316.00,3061.00 317.00,3061.00 317.00,3061.00 Z
           M 308.00,3070.00
           C 308.00,3070.00 308.00,3071.00 308.00,3071.00
             308.00,3071.00 307.00,3070.00 307.00,3070.00
             307.00,3070.00 308.00,3070.00 308.00,3070.00 Z
           M 260.00,3102.00
           C 260.00,3102.00 260.00,3103.00 260.00,3103.00
             260.00,3103.00 259.00,3102.00 259.00,3102.00
             259.00,3102.00 260.00,3102.00 260.00,3102.00 Z
           M 259.00,3103.00
           C 259.00,3103.00 259.00,3104.00 259.00,3104.00
             259.00,3104.00 258.00,3103.00 258.00,3103.00
             258.00,3103.00 259.00,3103.00 259.00,3103.00 Z
           M 228.00,3165.00
           C 228.00,3165.00 228.00,3166.00 228.00,3166.00
             228.00,3166.00 227.00,3165.00 227.00,3165.00
             227.00,3165.00 228.00,3165.00 228.00,3165.00 Z
           M 227.00,3166.00
           C 227.00,3166.00 227.00,3167.00 227.00,3167.00
             227.00,3167.00 226.00,3166.00 226.00,3166.00
             226.00,3166.00 227.00,3166.00 227.00,3166.00 Z
           M 191.00,3205.00
           C 191.00,3205.00 191.00,3206.00 191.00,3206.00
             191.00,3206.00 190.00,3205.00 190.00,3205.00
             190.00,3205.00 191.00,3205.00 191.00,3205.00 Z" />
</svg>
