<?xml version="1.0" encoding="UTF-8" standalone="no"?>
<!DOCTYPE svg PUBLIC "-//W3C//DTD SVG 20010904//EN"
              "http://www.w3.org/TR/2001/REC-SVG-20010904/DTD/svg10.dtd">

<svg xmlns="http://www.w3.org/2000/svg"
     width="11.5033in" height="15.4533in"
     viewBox="0 0 3451 4636">
  <path id="face"
        fill="none" stroke="black" stroke-width="1"
        d="M 1291.00,785.00
           C 1290.25,787.70 1283.19,795.38 1280.82,797.37
             1278.53,799.29 1277.06,799.54 1274.78,802.21
             1274.78,802.21 1267.62,813.00 1267.62,813.00
             1267.62,813.00 1261.61,819.42 1261.61,819.42
             1255.05,827.04 1249.96,835.80 1246.00,845.00
             1246.00,845.00 1243.00,844.00 1243.00,844.00
             1238.77,851.63 1237.54,857.24 1234.40,865.00
             1234.40,865.00 1224.08,890.00 1224.08,890.00
             1224.08,890.00 1220.13,903.00 1220.13,903.00
             1213.68,918.30 1202.23,935.17 1198.66,951.00
             1196.44,960.86 1195.11,970.92 1195.00,981.00
             1195.00,981.00 1192.17,1003.00 1192.17,1003.00
             1192.17,1003.00 1191.57,1013.00 1191.57,1013.00
             1191.57,1013.00 1186.50,1034.00 1186.50,1034.00
             1186.50,1034.00 1182.09,1063.00 1182.09,1063.00
             1182.09,1063.00 1182.66,1072.00 1182.66,1072.00
             1182.66,1072.00 1182.00,1086.00 1182.00,1086.00
             1181.99,1095.26 1179.64,1105.71 1178.27,1115.00
             1178.27,1115.00 1175.68,1137.00 1175.68,1137.00
             1175.68,1137.00 1173.51,1145.00 1173.51,1145.00
             1173.51,1145.00 1171.49,1158.00 1171.49,1158.00
             1171.49,1158.00 1168.39,1170.00 1168.39,1170.00
             1168.39,1170.00 1171.86,1195.00 1171.86,1195.00
             1171.86,1195.00 1171.86,1215.00 1171.86,1215.00
             1171.86,1215.00 1173.51,1247.00 1173.51,1247.00
             1173.07,1253.95 1176.42,1269.77 1177.99,1277.00
             1177.99,1277.00 1183.42,1309.00 1183.42,1309.00
             1183.42,1309.00 1189.63,1346.00 1189.63,1346.00
             1189.63,1346.00 1188.00,1366.00 1188.00,1366.00
             1187.99,1372.34 1188.51,1378.81 1187.00,1385.00
             1182.35,1385.12 1181.09,1386.64 1177.00,1388.38
             1162.13,1394.72 1159.76,1399.64 1151.82,1413.00
             1146.31,1422.28 1146.17,1429.70 1142.13,1439.00
             1142.13,1439.00 1134.86,1455.83 1134.86,1455.83
             1134.86,1455.83 1130.64,1462.04 1130.64,1462.04
             1130.64,1462.04 1127.57,1472.00 1127.57,1472.00
             1123.94,1482.06 1118.63,1498.39 1119.04,1509.00
             1119.04,1509.00 1120.00,1522.00 1120.00,1522.00
             1120.00,1522.00 1120.00,1556.00 1120.00,1556.00
             1120.00,1556.00 1123.72,1578.00 1123.72,1578.00
             1124.89,1586.68 1125.05,1595.53 1127.43,1604.00
             1130.93,1616.48 1136.68,1628.11 1141.72,1640.00
             1141.72,1640.00 1146.52,1653.00 1146.52,1653.00
             1146.52,1653.00 1150.96,1661.00 1150.96,1661.00
             1150.96,1661.00 1156.23,1675.00 1156.23,1675.00
             1156.23,1675.00 1169.58,1706.00 1169.58,1706.00
             1169.58,1706.00 1178.20,1739.00 1178.20,1739.00
             1178.20,1739.00 1180.52,1753.00 1180.52,1753.00
             1181.99,1757.81 1184.20,1759.35 1185.46,1763.00
             1186.33,1765.54 1185.91,1767.28 1187.67,1771.00
             1198.80,1794.45 1224.92,1812.93 1251.00,1814.82
             1255.64,1815.15 1262.48,1813.31 1267.00,1812.00
             1270.45,1830.92 1267.97,1831.18 1268.00,1849.00
             1268.02,1862.22 1271.59,1858.13 1272.02,1866.00
             1272.29,1870.86 1271.71,1870.68 1273.00,1876.00
             1273.00,1876.00 1276.00,1875.00 1276.00,1875.00
             1276.00,1875.00 1276.56,1885.00 1276.56,1885.00
             1276.56,1885.00 1279.80,1894.00 1279.80,1894.00
             1279.80,1894.00 1276.00,1919.97 1276.00,1919.97
             1277.96,1920.41 1279.81,1921.03 1281.72,1919.97
             1284.85,1918.16 1287.66,1904.74 1288.00,1901.00
             1288.00,1901.00 1290.00,1901.00 1290.00,1901.00
             1290.00,1901.00 1291.01,1916.00 1291.01,1916.00
             1290.28,1921.59 1287.20,1921.03 1289.67,1929.98
             1291.52,1936.69 1294.41,1934.16 1297.11,1938.22
             1298.58,1940.45 1298.21,1942.53 1298.13,1945.00
             1297.87,1953.46 1300.64,1953.11 1303.52,1960.00
             1304.52,1962.39 1305.04,1965.51 1306.72,1967.45
             1309.18,1970.27 1316.09,1972.20 1320.00,1974.85
             1325.00,1978.23 1331.10,1986.11 1335.00,1991.00
             1335.00,1991.00 1343.91,2003.00 1343.91,2003.00
             1346.36,2006.82 1347.10,2009.34 1350.21,2013.00
             1350.21,2013.00 1383.98,2047.00 1383.98,2047.00
             1383.98,2047.00 1394.04,2059.00 1394.04,2059.00
             1394.04,2059.00 1437.00,2102.00 1437.00,2102.00
             1437.00,2102.00 1469.00,2133.96 1469.00,2133.96
             1469.00,2133.96 1519.00,2180.09 1519.00,2180.09
             1529.57,2189.93 1553.57,2213.44 1564.00,2220.40
             1564.00,2220.40 1617.00,2246.78 1617.00,2246.78
             1617.00,2246.78 1654.00,2265.25 1654.00,2265.25
             1657.11,2266.80 1668.38,2272.86 1671.00,2273.09
             1674.10,2273.38 1677.90,2270.65 1681.00,2269.55
             1685.41,2267.98 1688.45,2268.01 1693.00,2268.00
             1693.00,2268.00 1698.00,2268.00 1698.00,2268.00
             1698.00,2268.00 1713.00,2269.00 1713.00,2269.00
             1713.00,2269.00 1737.00,2270.00 1737.00,2270.00
             1737.00,2270.00 1752.00,2271.00 1752.00,2271.00
             1752.00,2271.00 1772.00,2272.00 1772.00,2272.00
             1772.00,2272.00 1794.00,2273.17 1794.00,2273.17
             1794.00,2273.17 1814.00,2275.91 1814.00,2275.91
             1818.55,2276.17 1825.21,2274.66 1830.00,2274.00
             1830.00,2274.00 1866.00,2268.42 1866.00,2268.42
             1866.00,2268.42 1903.00,2262.30 1903.00,2262.30
             1903.00,2262.30 1915.00,2261.32 1915.00,2261.32
             1915.00,2261.32 1962.00,2245.34 1962.00,2245.34
             1962.00,2245.34 1996.00,2233.60 1996.00,2233.60
             1996.00,2233.60 2029.00,2210.72 2029.00,2210.72
             2029.00,2210.72 2066.00,2184.70 2066.00,2184.70
             2075.59,2176.49 2076.10,2172.71 2082.09,2167.13
             2082.09,2167.13 2113.00,2141.80 2113.00,2141.80
             2113.00,2141.80 2126.00,2131.54 2126.00,2131.54
             2129.69,2129.23 2131.39,2129.94 2135.96,2125.81
             2135.96,2125.81 2162.42,2094.00 2162.42,2094.00
             2162.42,2094.00 2197.43,2051.00 2197.43,2051.00
             2197.43,2051.00 2212.60,2026.00 2212.60,2026.00
             2212.60,2026.00 2228.80,1999.00 2228.80,1999.00
             2231.87,1993.88 2235.60,1988.86 2237.00,1983.00
             2237.00,1983.00 2242.00,1983.00 2242.00,1983.00
             2242.93,1972.80 2246.40,1971.75 2251.02,1964.00
             2251.02,1964.00 2254.80,1956.17 2254.80,1956.17
             2254.80,1956.17 2258.36,1950.91 2258.36,1950.91
             2258.36,1950.91 2267.30,1908.00 2267.30,1908.00
             2269.39,1903.52 2274.42,1899.03 2277.39,1895.00
             2281.88,1888.92 2292.06,1870.18 2293.76,1863.00
             2296.52,1851.37 2298.70,1836.92 2300.00,1825.00
             2300.00,1825.00 2300.00,1814.00 2300.00,1814.00
             2300.00,1814.00 2302.70,1802.00 2302.70,1802.00
             2302.70,1802.00 2303.32,1796.00 2303.32,1796.00
             2303.32,1796.00 2304.91,1788.00 2304.91,1788.00
             2305.19,1784.45 2304.45,1780.26 2306.74,1777.23
             2309.93,1773.00 2315.44,1774.32 2320.00,1773.83
             2326.15,1773.17 2336.31,1769.72 2342.00,1767.13
             2349.39,1763.78 2352.21,1760.38 2358.00,1755.17
             2366.21,1747.78 2373.22,1742.04 2378.51,1732.00
             2383.48,1722.55 2384.88,1708.54 2385.00,1698.00
             2385.12,1687.86 2387.89,1683.08 2390.41,1674.00
             2390.41,1674.00 2392.51,1662.00 2392.51,1662.00
             2392.51,1662.00 2398.97,1640.00 2398.97,1640.00
             2398.97,1640.00 2401.36,1631.00 2401.36,1631.00
             2401.36,1631.00 2404.51,1622.00 2404.51,1622.00
             2404.51,1622.00 2407.04,1611.00 2407.04,1611.00
             2407.04,1611.00 2419.43,1572.00 2419.43,1572.00
             2419.43,1572.00 2423.42,1556.00 2423.42,1556.00
             2423.42,1556.00 2432.56,1521.00 2432.56,1521.00
             2432.56,1521.00 2433.18,1509.00 2433.18,1509.00
             2434.23,1500.22 2435.12,1501.70 2435.00,1491.00
             2434.92,1484.43 2432.11,1455.85 2430.51,1450.00
             2430.51,1450.00 2425.08,1436.00 2425.08,1436.00
             2423.20,1430.54 2423.59,1429.90 2420.74,1424.00
             2420.74,1424.00 2404.69,1393.00 2404.69,1393.00
             2402.79,1389.45 2397.36,1380.36 2397.00,1377.00
             2391.61,1372.15 2393.79,1371.60 2391.08,1366.01
             2392.32,1368.57 2381.50,1351.07 2383.27,1353.37
             2383.27,1353.37 2378.42,1348.81 2378.42,1348.81
             2366.21,1337.02 2362.79,1336.04 2347.00,1331.52
             2340.43,1329.64 2343.06,1329.08 2335.00,1329.00
             2335.00,1329.00 2336.00,1330.91 2336.00,1330.91
             2336.00,1330.91 2329.00,1330.91 2329.00,1330.91
             2327.46,1330.66 2325.45,1330.28 2324.00,1329.74
             2313.30,1325.72 2321.51,1316.81 2320.82,1307.00
             2320.82,1307.00 2320.00,1264.00 2320.00,1264.00
             2320.00,1264.00 2319.00,1249.00 2319.00,1249.00
             2318.79,1230.90 2314.71,1215.60 2311.61,1198.00
             2311.61,1198.00 2310.11,1187.00 2310.11,1187.00
             2310.11,1187.00 2304.12,1164.00 2304.12,1164.00
             2304.12,1164.00 2304.12,1155.00 2304.12,1155.00
             2304.12,1155.00 2302.85,1146.00 2302.85,1146.00
             2302.85,1146.00 2301.74,1136.00 2301.74,1136.00
             2301.74,1136.00 2299.70,1129.00 2299.70,1129.00
             2299.70,1129.00 2298.28,1120.00 2298.28,1120.00
             2298.28,1120.00 2295.49,1096.00 2295.49,1096.00
             2295.49,1096.00 2289.50,1075.00 2289.50,1075.00
             2289.50,1075.00 2286.69,1057.00 2286.69,1057.00
             2286.69,1057.00 2282.15,1041.00 2282.15,1041.00
             2282.15,1041.00 2280.22,1031.00 2280.22,1031.00
             2280.22,1031.00 2275.35,1017.00 2275.35,1017.00
             2275.35,1017.00 2262.00,974.00 2262.00,974.00
             2262.00,974.00 2256.86,961.00 2256.86,961.00
             2256.86,961.00 2253.45,949.00 2253.45,949.00
             2253.45,949.00 2246.34,932.00 2246.34,932.00
             2246.34,932.00 2240.00,912.00 2240.00,912.00
             2240.00,912.00 2235.44,900.00 2235.44,900.00
             2235.44,900.00 2231.13,882.00 2231.13,882.00
             2231.13,882.00 2214.49,851.00 2214.49,851.00
             2214.49,851.00 2206.57,831.00 2206.57,831.00
             2206.57,831.00 2198.35,814.00 2198.35,814.00
             2198.35,814.00 2195.02,805.00 2195.02,805.00
             2195.02,805.00 2170.22,764.04 2170.22,764.04
             2170.22,764.04 2162.53,755.96 2162.53,755.96
             2162.53,755.96 2152.63,742.04 2152.63,742.04
             2152.63,742.04 2146.49,734.91 2146.49,734.91
             2146.49,734.91 2141.62,728.30 2141.62,728.30
             2141.62,728.30 2135.59,722.70 2135.59,722.70
             2135.59,722.70 2130.90,717.04 2130.90,717.04
             2130.90,717.04 2111.30,700.70 2111.30,700.70
             2111.30,700.70 2103.54,691.04 2103.54,691.04
             2095.56,681.71 2088.27,675.88 2077.00,671.00
             2076.95,665.87 2074.00,665.08 2070.00,662.58
             2070.00,662.58 2062.00,657.40 2062.00,657.40
             2057.42,654.04 2053.15,649.33 2048.00,647.00
             2044.44,647.27 2042.60,644.52 2040.00,642.29
             2035.00,637.99 2029.88,633.77 2024.00,630.76
             2024.00,630.76 1991.00,613.13 1991.00,613.13
             1991.00,613.13 1978.00,608.09 1978.00,608.09
             1978.00,608.09 1971.00,604.26 1971.00,604.26
             1971.00,604.26 1955.00,598.14 1955.00,598.14
             1955.00,598.14 1946.00,593.53 1946.00,593.53
             1946.00,593.53 1935.00,590.90 1935.00,590.90
             1935.00,590.90 1914.00,580.69 1914.00,580.69
             1903.68,575.10 1879.85,560.34 1870.00,557.00
             1854.23,551.66 1837.43,550.48 1821.00,548.83
             1821.00,548.83 1773.00,544.00 1773.00,544.00
             1773.00,544.00 1755.00,544.00 1755.00,544.00
             1755.00,544.00 1738.00,545.00 1738.00,545.00
             1738.00,545.00 1716.00,545.00 1716.00,545.00
             1704.24,544.98 1691.37,541.24 1680.00,544.00
             1680.00,544.00 1680.00,542.00 1680.00,542.00
             1680.00,542.00 1668.00,544.72 1668.00,544.72
             1668.00,544.72 1648.00,547.52 1648.00,547.52
             1648.00,547.52 1640.00,549.76 1640.00,549.76
             1640.00,549.76 1623.00,554.79 1623.00,554.79
             1623.00,554.79 1583.00,584.59 1583.00,584.59
             1583.00,584.59 1574.00,587.47 1574.00,587.47
             1574.00,587.47 1564.00,591.66 1564.00,591.66
             1564.00,591.66 1547.00,597.05 1547.00,597.05
             1547.00,597.05 1536.00,601.46 1536.00,601.46
             1536.00,601.46 1522.00,606.32 1522.00,606.32
             1522.00,606.32 1511.00,612.69 1511.00,612.69
             1511.00,612.69 1500.00,617.72 1500.00,617.72
             1500.00,617.72 1493.00,623.10 1493.00,623.10
             1493.00,623.10 1458.00,646.97 1458.00,646.97
             1458.00,646.97 1447.00,654.16 1447.00,654.16
             1447.00,654.16 1438.00,661.05 1438.00,661.05
             1438.00,661.05 1426.00,668.39 1426.00,668.39
             1426.00,668.39 1419.00,674.68 1419.00,674.68
             1419.00,674.68 1405.00,685.62 1405.00,685.62
             1405.00,685.62 1393.00,692.60 1393.00,692.60
             1393.00,692.60 1379.00,703.98 1379.00,703.98
             1379.00,703.98 1367.00,712.47 1367.00,712.47
             1367.00,712.47 1347.04,730.17 1347.04,730.17
             1347.04,730.17 1339.91,737.49 1339.91,737.49
             1339.91,737.49 1318.21,755.30 1318.21,755.30
             1318.21,755.30 1312.47,762.83 1312.47,762.83
             1312.47,762.83 1305.09,770.01 1305.09,770.01
             1305.09,770.01 1291.00,785.00 1291.00,785.00 Z
           M 2327.00,1329.00
           C 2327.00,1329.00 2327.00,1330.00 2327.00,1330.00
             2327.00,1330.00 2328.00,1329.00 2328.00,1329.00
             2328.00,1329.00 2327.00,1329.00 2327.00,1329.00 Z
           M 2329.00,1329.00
           C 2329.00,1329.00 2329.00,1330.00 2329.00,1330.00
             2329.00,1330.00 2330.00,1329.00 2330.00,1329.00
             2330.00,1329.00 2329.00,1329.00 2329.00,1329.00 Z
           M 2331.00,1329.00
           C 2331.00,1329.00 2331.00,1330.00 2331.00,1330.00
             2331.00,1330.00 2332.00,1329.00 2332.00,1329.00
             2332.00,1329.00 2331.00,1329.00 2331.00,1329.00 Z
           M 2333.00,1329.00
           C 2333.00,1329.00 2333.00,1330.00 2333.00,1330.00
             2333.00,1330.00 2334.00,1329.00 2334.00,1329.00
             2334.00,1329.00 2333.00,1329.00 2333.00,1329.00 Z" />
  <path id="profile"
        fill="none" stroke="black" stroke-width="1"
        d="M 1500.00,617.00
           C 1498.64,621.61 1491.37,623.91 1487.59,626.84
             1487.59,626.84 1473.01,636.72 1473.01,636.72
             1473.01,636.72 1454.72,649.65 1454.72,649.65
             1454.72,649.65 1447.82,653.52 1447.82,653.52
             1447.82,653.52 1439.96,660.38 1439.96,660.38
             1439.96,660.38 1426.43,667.96 1426.43,667.96
             1426.43,667.96 1421.52,673.54 1421.52,673.54
             1421.52,673.54 1411.44,680.36 1411.44,680.36
             1411.44,680.36 1404.83,686.37 1404.83,686.37
             1404.83,686.37 1393.00,692.68 1393.00,692.68
             1393.00,692.68 1378.80,704.69 1378.80,704.69
             1378.80,704.69 1369.01,711.13 1369.01,711.13
             1369.01,711.13 1346.84,730.75 1346.84,730.75
             1346.84,730.75 1340.87,737.37 1340.87,737.37
             1340.87,737.37 1332.44,743.28 1332.44,743.28
             1332.44,743.28 1324.68,750.42 1324.68,750.42
             1324.68,750.42 1316.00,757.00 1316.00,757.00
             1314.51,763.87 1309.98,765.25 1305.74,769.47
             1299.76,775.42 1299.45,781.04 1291.00,785.00
             1291.00,785.00 1292.00,787.00 1292.00,787.00
             1280.97,793.02 1285.76,798.41 1276.00,800.00
             1276.00,800.00 1267.24,814.74 1267.24,814.74
             1267.24,814.74 1261.34,819.47 1261.34,819.47
             1261.34,819.47 1257.45,825.99 1257.45,825.99
             1257.45,825.99 1252.73,831.42 1252.73,831.42
             1252.73,831.42 1246.00,845.00 1246.00,845.00
             1246.00,845.00 1243.00,844.00 1243.00,844.00
             1243.00,844.00 1237.99,855.04 1237.99,855.04
             1237.99,855.04 1235.52,863.00 1235.52,863.00
             1235.52,863.00 1231.05,873.00 1231.05,873.00
             1231.05,873.00 1223.84,891.00 1223.84,891.00
             1223.84,891.00 1220.97,902.00 1220.97,902.00
             1220.97,902.00 1217.31,909.00 1217.31,909.00
             1217.31,909.00 1213.57,917.96 1213.57,917.96
             1213.57,917.96 1209.00,926.00 1209.00,926.00
             1207.39,927.43 1204.46,935.84 1203.28,938.58
             1197.60,951.69 1198.67,950.64 1196.56,964.00
             1195.47,970.95 1195.01,970.34 1195.00,978.00
             1194.98,990.12 1193.88,991.91 1192.11,1003.00
             1192.11,1003.00 1192.11,1011.00 1192.11,1011.00
             1192.11,1011.00 1190.19,1022.00 1190.19,1022.00
             1188.72,1029.25 1187.38,1030.33 1186.46,1034.00
             1186.46,1034.00 1182.17,1062.00 1182.17,1062.00
             1182.17,1062.00 1183.00,1080.00 1183.00,1080.00
             1183.00,1080.00 1181.95,1073.00 1181.95,1073.00
             1181.95,1073.00 1181.95,1092.00 1181.95,1092.00
             1181.95,1092.00 1177.14,1123.00 1177.14,1123.00
             1177.14,1123.00 1175.78,1138.00 1175.78,1138.00
             1175.78,1138.00 1173.39,1145.00 1173.39,1145.00
             1173.39,1145.00 1171.68,1158.00 1171.68,1158.00
             1171.68,1158.00 1168.11,1170.00 1168.11,1170.00
             1168.11,1170.00 1172.00,1196.00 1172.00,1196.00
             1172.00,1196.00 1172.00,1214.00 1172.00,1214.00
             1172.00,1214.00 1173.96,1241.00 1173.96,1241.00
             1173.96,1241.00 1173.32,1249.00 1173.32,1249.00
             1173.32,1249.00 1176.43,1270.72 1176.43,1270.72
             1176.43,1270.72 1178.05,1275.75 1178.05,1275.75
             1178.05,1275.75 1180.12,1289.00 1180.12,1289.00
             1180.12,1289.00 1186.84,1328.00 1186.84,1328.00
             1186.84,1328.00 1189.96,1347.00 1189.96,1347.00
             1189.96,1347.00 1188.04,1361.00 1188.04,1361.00
             1188.04,1361.00 1188.04,1383.00 1188.04,1383.00
             1188.04,1383.00 1186.00,1385.00 1186.00,1385.00
             1186.00,1385.00 1184.00,1384.00 1184.00,1384.00
             1184.00,1384.00 1181.99,1386.63 1181.99,1386.63
             1181.99,1386.63 1168.00,1392.00 1168.00,1392.00
             1165.65,1399.37 1162.05,1395.50 1158.76,1401.21
             1158.76,1401.21 1155.84,1407.00 1155.84,1407.00
             1155.84,1407.00 1148.99,1418.00 1148.99,1418.00
             1148.99,1418.00 1143.24,1437.00 1143.24,1437.00
             1139.37,1446.72 1136.88,1445.63 1135.00,1459.00
             1135.00,1459.00 1134.00,1457.00 1134.00,1457.00
             1128.30,1463.83 1130.42,1465.37 1128.04,1472.00
             1128.04,1472.00 1124.96,1479.00 1124.96,1479.00
             1123.50,1483.14 1119.60,1499.51 1119.17,1504.00
             1119.17,1504.00 1120.00,1527.00 1120.00,1527.00
             1120.00,1527.00 1120.00,1556.00 1120.00,1556.00
             1120.10,1564.44 1121.56,1565.04 1122.89,1572.00
             1122.89,1572.00 1124.57,1584.00 1124.57,1584.00
             1124.57,1584.00 1125.90,1598.00 1125.90,1598.00
             1129.58,1613.36 1136.59,1627.68 1142.97,1642.00
             1142.97,1642.00 1146.87,1653.87 1146.87,1653.87
             1148.17,1656.81 1149.84,1657.21 1151.13,1660.13
             1151.13,1660.13 1153.10,1667.00 1153.10,1667.00
             1153.10,1667.00 1157.10,1676.91 1157.10,1676.91
             1157.10,1676.91 1160.59,1683.09 1160.59,1683.09
             1160.59,1683.09 1162.95,1690.99 1162.95,1690.99
             1162.95,1690.99 1166.70,1697.88 1166.70,1697.88
             1166.70,1697.88 1171.59,1711.00 1171.59,1711.00
             1171.59,1711.00 1172.61,1718.00 1172.61,1718.00
             1172.61,1718.00 1176.22,1728.00 1176.22,1728.00
             1176.22,1728.00 1178.64,1741.01 1178.64,1741.01
             1179.91,1748.14 1178.76,1755.76 1186.00,1761.00
             1184.27,1768.33 1188.86,1772.25 1192.38,1778.17
             1192.38,1778.17 1195.12,1783.48 1195.12,1783.48
             1195.12,1783.48 1198.32,1786.54 1198.32,1786.54
             1198.32,1786.54 1201.55,1791.12 1201.55,1791.12
             1201.55,1791.12 1205.71,1794.21 1205.71,1794.21
             1205.71,1794.21 1212.17,1800.02 1212.17,1800.02
             1221.58,1806.92 1241.22,1814.84 1253.00,1814.82
             1256.58,1814.82 1263.53,1813.15 1267.00,1812.00
             1268.48,1817.88 1269.87,1826.00 1268.96,1832.00
             1268.96,1832.00 1267.55,1839.99 1267.55,1839.99
             1267.55,1839.99 1268.05,1848.09 1268.05,1848.09
             1268.00,1853.31 1267.22,1859.98 1273.00,1862.00
             1271.74,1867.17 1271.53,1870.84 1273.00,1876.00
             1273.00,1876.00 1276.00,1875.00 1276.00,1875.00
             1276.00,1875.00 1276.00,1886.00 1276.00,1886.00
             1281.08,1888.87 1280.27,1892.78 1279.58,1898.00
             1279.58,1898.00 1276.00,1920.00 1276.00,1920.00
             1284.71,1923.42 1283.85,1917.31 1285.41,1911.00
             1286.61,1906.14 1287.55,1907.33 1288.00,1901.00
             1288.00,1901.00 1290.00,1901.00 1290.00,1901.00
             1290.04,1912.91 1294.64,1917.83 1288.00,1922.00
             1288.00,1922.00 1291.00,1935.00 1291.00,1935.00
             1303.03,1934.90 1296.97,1946.64 1297.86,1949.96
             1298.59,1952.70 1301.24,1954.32 1303.16,1958.04
             1305.32,1962.21 1304.68,1964.82 1305.57,1966.59
             1307.24,1969.91 1317.94,1972.16 1321.83,1975.41
             1325.96,1978.87 1337.38,1993.13 1340.86,1998.00
             1343.26,2001.37 1346.71,2005.96 1347.61,2010.00
             1348.52,2014.09 1347.04,2021.15 1347.00,2026.00
             1351.46,2026.98 1352.22,2027.44 1353.00,2032.00
             1353.00,2032.00 1350.00,2032.00 1350.00,2032.00
             1350.00,2032.00 1354.00,2048.00 1354.00,2048.00
             1354.00,2048.00 1351.00,2048.00 1351.00,2048.00
             1351.00,2048.00 1353.86,2066.00 1353.86,2066.00
             1353.86,2066.00 1353.18,2079.00 1353.18,2079.00
             1352.94,2082.98 1353.71,2084.44 1353.91,2088.00
             1354.24,2093.90 1352.75,2095.29 1352.18,2100.00
             1352.18,2100.00 1351.63,2110.00 1351.63,2110.00
             1351.14,2112.59 1350.26,2114.16 1350.19,2117.00
             1350.19,2117.00 1350.82,2124.00 1350.82,2124.00
             1350.82,2124.00 1349.90,2139.00 1349.90,2139.00
             1349.90,2139.00 1348.04,2149.00 1348.04,2149.00
             1348.04,2149.00 1346.86,2171.96 1346.86,2171.96
             1346.36,2175.45 1344.94,2176.17 1344.30,2179.09
             1343.61,2182.15 1344.48,2186.77 1343.44,2189.83
             1342.26,2193.34 1340.44,2193.07 1340.04,2199.00
             1339.55,2206.47 1338.91,2213.74 1336.91,2221.00
             1336.91,2221.00 1334.70,2228.00 1334.70,2228.00
             1333.27,2233.87 1333.79,2240.42 1330.83,2245.98
             1327.96,2251.37 1324.71,2251.01 1320.01,2252.81
             1317.56,2253.75 1316.73,2254.56 1314.00,2255.00
             1310.24,2259.08 1304.01,2262.99 1298.91,2265.26
             1296.66,2266.26 1292.28,2267.55 1290.55,2268.89
             1288.06,2270.80 1287.89,2273.48 1281.00,2278.24
             1275.76,2281.86 1274.56,2280.80 1270.00,2283.20
             1270.00,2283.20 1263.00,2287.29 1263.00,2287.29
             1263.00,2287.29 1256.00,2289.38 1256.00,2289.38
             1245.63,2293.55 1235.42,2299.90 1224.00,2300.00
             1220.63,2306.01 1213.21,2306.60 1207.00,2310.02
             1207.00,2310.02 1198.29,2314.67 1198.29,2314.67
             1195.98,2315.44 1194.56,2314.83 1192.42,2315.90
             1192.42,2315.90 1185.83,2320.65 1185.83,2320.65
             1185.83,2320.65 1167.17,2328.72 1167.17,2328.72
             1167.17,2328.72 1159.03,2333.26 1159.03,2333.26
             1154.41,2335.65 1143.51,2339.15 1141.00,2343.00
             1137.22,2343.43 1137.05,2343.85 1135.00,2347.00
             1129.30,2346.17 1126.56,2349.33 1122.00,2352.39
             1114.49,2357.43 1096.12,2363.48 1092.00,2370.00
             1085.32,2369.70 1086.26,2372.39 1081.74,2375.12
             1081.74,2375.12 1075.17,2377.77 1075.17,2377.77
             1072.75,2379.45 1072.60,2381.49 1071.20,2382.70
             1069.16,2384.47 1064.62,2384.79 1062.00,2385.00
             1058.53,2391.66 1054.62,2391.01 1049.01,2394.39
             1049.01,2394.39 1037.00,2403.24 1037.00,2403.24
             1032.62,2406.08 1027.42,2409.41 1027.00,2415.00
             1016.45,2417.26 1015.82,2422.53 1007.99,2427.94
             1002.93,2431.44 999.05,2431.49 994.00,2433.87
             994.00,2433.87 986.00,2438.33 986.00,2438.33
             986.00,2438.33 968.44,2445.60 968.44,2445.60
             963.51,2448.43 962.27,2451.64 955.00,2455.11
             955.00,2455.11 931.96,2463.70 931.96,2463.70
             931.96,2463.70 909.04,2474.04 909.04,2474.04
             909.04,2474.04 901.91,2478.30 901.91,2478.30
             901.91,2478.30 888.00,2483.35 888.00,2483.35
             888.00,2483.35 880.00,2487.73 880.00,2487.73
             875.95,2489.65 875.85,2488.50 870.00,2491.81
             864.14,2495.13 855.68,2500.56 849.00,2501.00
             849.00,2501.00 838.00,2506.79 838.00,2506.79
             838.00,2506.79 820.00,2515.82 820.00,2515.82
             820.00,2515.82 805.09,2522.16 805.09,2522.16
             805.09,2522.16 788.00,2532.05 788.00,2532.05
             788.00,2532.05 784.00,2532.05 784.00,2532.05
             784.00,2532.05 777.42,2537.56 777.42,2537.56
             777.42,2537.56 771.99,2542.42 771.99,2542.42
             771.99,2542.42 763.00,2545.88 763.00,2545.88
             763.00,2545.88 752.42,2552.37 752.42,2552.37
             752.42,2552.37 745.00,2558.00 745.00,2558.00
             745.00,2558.00 724.91,2568.50 724.91,2568.50
             724.91,2568.50 715.00,2574.45 715.00,2574.45
             715.00,2574.45 682.00,2588.00 682.00,2588.00
             682.00,2588.00 683.00,2591.00 683.00,2591.00
             673.09,2592.55 669.18,2596.50 661.00,2599.88
             661.00,2599.88 651.00,2603.13 651.00,2603.13
             651.00,2603.13 643.00,2608.20 643.00,2608.20
             643.00,2608.20 637.00,2610.37 637.00,2610.37
             637.00,2610.37 625.00,2616.47 625.00,2616.47
             625.00,2616.47 609.00,2623.41 609.00,2623.41
             609.00,2623.41 602.00,2627.71 602.00,2627.71
             595.29,2631.05 587.40,2633.41 581.11,2637.58
             581.11,2637.58 562.83,2655.87 562.83,2655.87
             559.47,2659.09 558.26,2658.82 555.42,2660.94
             555.42,2660.94 551.00,2665.00 551.00,2665.00
             551.00,2665.00 552.00,2667.00 552.00,2667.00
             547.77,2668.82 542.01,2671.23 541.00,2676.00
             535.87,2677.75 528.96,2682.84 527.00,2688.00
             521.77,2687.12 521.21,2689.97 516.96,2693.04
             516.96,2693.04 509.21,2698.47 509.21,2698.47
             509.21,2698.47 504.67,2703.31 504.67,2703.31
             504.67,2703.31 498.20,2707.89 498.20,2707.89
             494.97,2710.54 493.31,2713.54 489.00,2714.00
             489.00,2714.00 473.08,2728.14 473.08,2728.14
             473.08,2728.14 468.00,2730.78 468.00,2730.78
             468.00,2730.78 460.96,2737.19 460.96,2737.19
             460.96,2737.19 447.02,2745.29 447.02,2745.29
             447.02,2745.29 439.74,2751.83 439.74,2751.83
             439.74,2751.83 421.97,2763.68 421.97,2763.68
             421.97,2763.68 413.83,2768.41 413.83,2768.41
             413.83,2768.41 404.72,2775.62 404.72,2775.62
             404.72,2775.62 398.00,2779.56 398.00,2779.56
             392.99,2783.20 391.87,2786.46 385.00,2786.00
             381.78,2792.59 379.61,2791.10 374.01,2794.00
             374.01,2794.00 363.74,2801.19 363.74,2801.19
             363.74,2801.19 351.59,2809.28 351.59,2809.28
             351.59,2809.28 342.96,2817.01 342.96,2817.01
             342.96,2817.01 335.17,2821.64 335.17,2821.64
             332.19,2824.00 331.30,2826.47 327.83,2828.81
             321.52,2833.07 314.83,2832.16 309.97,2839.09
             303.18,2848.77 304.00,2856.95 304.00,2868.00
             296.94,2869.43 298.54,2875.50 297.79,2881.00
             297.28,2884.79 296.63,2884.47 296.66,2889.00
             296.76,2900.79 287.53,2904.25 281.38,2911.61
             281.38,2911.61 273.63,2921.44 273.63,2921.44
             273.63,2921.44 269.70,2927.96 269.70,2927.96
             269.70,2927.96 261.43,2936.04 261.43,2936.04
             261.43,2936.04 257.48,2942.55 257.48,2942.55
             257.48,2942.55 253.59,2946.26 253.59,2946.26
             247.51,2952.40 240.27,2960.23 239.00,2969.00
             239.00,2969.00 236.00,2967.00 236.00,2967.00
             236.00,2967.00 230.64,2979.00 230.64,2979.00
             230.64,2979.00 221.11,2993.00 221.11,2993.00
             221.11,2993.00 218.11,2999.80 218.11,2999.80
             218.11,2999.80 211.52,3007.02 211.52,3007.02
             211.52,3007.02 205.19,3024.17 205.19,3024.17
             205.19,3024.17 196.45,3039.17 196.45,3039.17
             196.45,3039.17 190.07,3054.99 190.07,3054.99
             190.07,3054.99 186.46,3061.28 186.46,3061.28
             186.46,3061.28 179.45,3083.00 179.45,3083.00
             179.45,3083.00 169.90,3106.00 169.90,3106.00
             169.90,3106.00 168.07,3114.00 168.07,3114.00
             168.07,3114.00 161.71,3134.00 161.71,3134.00
             161.71,3134.00 160.24,3142.00 160.24,3142.00
             160.24,3142.00 156.04,3156.00 156.04,3156.00
             156.04,3156.00 154.47,3168.00 154.47,3168.00
             154.47,3168.00 152.04,3176.00 152.04,3176.00
             152.04,3176.00 145.43,3210.00 145.43,3210.00
             145.43,3210.00 142.00,3232.00 142.00,3232.00
             142.00,3232.00 142.00,3239.00 142.00,3239.00
             142.00,3239.00 140.17,3248.00 140.17,3248.00
             140.17,3248.00 136.95,3276.00 136.95,3276.00
             136.95,3276.00 133.32,3294.00 133.32,3294.00
             133.32,3294.00 132.74,3300.91 132.74,3300.91
             132.74,3300.91 131.07,3306.17 131.07,3306.17
             131.07,3306.17 131.07,3314.00 131.07,3314.00
             131.07,3314.00 127.20,3339.00 127.20,3339.00
             127.20,3339.00 123.00,3345.00 123.00,3345.00
             123.00,3345.00 122.00,3355.00 122.00,3355.00
             122.00,3355.00 121.00,3352.00 121.00,3352.00
             121.00,3352.00 119.43,3364.00 119.43,3364.00
             119.43,3364.00 110.12,3390.00 110.12,3390.00
             110.12,3390.00 106.68,3397.00 106.68,3397.00
             106.68,3397.00 103.68,3410.00 103.68,3410.00
             103.68,3410.00 99.95,3418.00 99.95,3418.00
             99.95,3418.00 87.21,3452.00 87.21,3452.00
             87.21,3452.00 79.95,3469.00 79.95,3469.00
             79.95,3469.00 75.07,3486.00 75.07,3486.00
             75.07,3486.00 61.95,3522.17 61.95,3522.17
             61.95,3522.17 60.43,3530.99 60.43,3530.99
             60.43,3530.99 56.18,3539.09 56.18,3539.09
             56.18,3539.09 47.23,3569.00 47.23,3569.00
             47.23,3569.00 43.72,3579.00 43.72,3579.00
             43.72,3579.00 38.54,3598.00 38.54,3598.00
             38.54,3598.00 34.10,3607.17 34.10,3607.17
             34.10,3607.17 31.53,3618.00 31.53,3618.00
             31.53,3618.00 25.14,3640.00 25.14,3640.00
             25.14,3640.00 16.00,3669.00 16.00,3669.00
             8.05,3671.37 10.08,3674.70 7.82,3681.00
             4.76,3689.50 0.02,3699.08 0.00,3708.00
             0.00,3708.00 0.00,3820.00 0.00,3820.00
             0.00,3820.00 0.00,4304.00 0.00,4304.00
             0.00,4304.00 31.96,4317.78 31.96,4317.78
             31.96,4317.78 38.17,4321.43 38.17,4321.43
             38.17,4321.43 44.00,4322.95 44.00,4322.95
             44.00,4322.95 61.00,4329.32 61.00,4329.32
             61.00,4329.32 73.00,4332.43 73.00,4332.43
             73.00,4332.43 82.00,4335.57 82.00,4335.57
             82.00,4335.57 90.00,4337.30 90.00,4337.30
             94.50,4338.56 108.85,4343.47 110.98,4347.18
             112.20,4349.33 112.00,4352.58 112.00,4355.00
             112.00,4355.00 112.00,4360.00 112.00,4360.00
             112.00,4360.00 111.00,4377.00 111.00,4377.00
             111.00,4377.00 111.00,4418.00 111.00,4418.00
             111.00,4418.00 112.00,4435.00 112.00,4435.00
             112.00,4435.00 112.00,4474.00 112.00,4474.00
             112.00,4474.00 113.00,4489.00 113.00,4489.00
             113.00,4489.00 113.00,4526.00 113.00,4526.00
             113.00,4526.00 112.00,4541.00 112.00,4541.00
             111.87,4552.37 113.30,4549.57 113.90,4556.00
             114.63,4563.91 112.48,4567.69 115.00,4576.00
             109.95,4580.53 114.90,4593.05 115.00,4599.00
             115.00,4599.00 114.00,4616.00 114.00,4616.00
             114.00,4616.00 114.00,4636.00 114.00,4636.00
             114.00,4636.00 681.00,4636.00 681.00,4636.00
             681.00,4636.00 682.71,4625.00 682.71,4625.00
             682.71,4625.00 683.83,4606.58 683.83,4606.58
             683.83,4606.58 687.86,4583.00 687.86,4583.00
             687.86,4583.00 687.86,4559.00 687.86,4559.00
             689.67,4559.50 691.63,4559.91 693.06,4560.91
             697.42,4563.94 699.48,4572.93 699.41,4578.00
             699.41,4578.00 696.86,4592.00 696.86,4592.00
             696.86,4592.00 695.83,4602.00 695.83,4602.00
             695.83,4602.00 693.29,4611.00 693.29,4611.00
             693.29,4611.00 688.00,4636.00 688.00,4636.00
             688.00,4636.00 3428.00,4636.00 3428.00,4636.00
             3428.00,4636.00 3429.46,4619.00 3429.46,4619.00
             3430.93,4612.64 3433.89,4607.54 3434.00,4601.00
             3434.00,4601.00 3434.00,4595.00 3434.00,4595.00
             3434.00,4595.00 3438.00,4552.00 3438.00,4552.00
             3438.06,4542.87 3439.88,4545.97 3440.00,4538.00
             3440.00,4538.00 3440.00,4521.00 3440.00,4521.00
             3440.02,4510.34 3442.42,4512.95 3442.81,4508.00
             3443.10,4504.38 3440.88,4502.68 3441.32,4499.07
             3441.32,4499.07 3443.58,4492.91 3443.58,4492.91
             3444.18,4489.74 3443.30,4487.78 3443.58,4485.00
             3443.58,4485.00 3445.73,4478.00 3445.73,4478.00
             3445.73,4478.00 3447.14,4455.00 3447.14,4455.00
             3448.07,4448.33 3450.87,4446.07 3451.00,4435.00
             3451.00,4435.00 3451.00,4332.00 3451.00,4332.00
             3451.00,4332.00 3451.00,4126.00 3451.00,4126.00
             3451.00,4126.00 3451.00,3508.00 3451.00,3508.00
             3451.00,3508.00 3451.00,3238.00 3451.00,3238.00
             3451.00,3238.00 3451.00,3168.00 3451.00,3168.00
             3450.91,3162.74 3448.89,3153.56 3444.00,3151.00
             3444.00,3151.00 3439.32,3138.00 3439.32,3138.00
             3439.32,3138.00 3435.20,3125.01 3435.20,3125.01
             3435.20,3125.01 3431.41,3117.83 3431.41,3117.83
             3431.41,3117.83 3429.22,3110.00 3429.22,3110.00
             3429.22,3110.00 3424.90,3102.00 3424.90,3102.00
             3424.90,3102.00 3422.82,3096.00 3422.82,3096.00
             3422.82,3096.00 3415.00,3079.00 3415.00,3079.00
             3415.00,3079.00 3411.00,3072.00 3411.00,3072.00
             3410.37,3071.78 3410.09,3072.16 3409.23,3071.17
             3409.23,3071.17 3403.92,3057.00 3403.92,3057.00
             3403.92,3057.00 3392.66,3038.72 3392.66,3038.72
             3392.66,3038.72 3387.59,3026.00 3387.59,3026.00
             3387.59,3026.00 3384.23,3020.42 3384.23,3020.42
             3381.83,3015.68 3381.97,3010.26 3376.00,3008.00
             3375.55,2998.94 3373.62,3000.84 3371.07,2995.82
             3371.07,2995.82 3364.60,2981.17 3364.60,2981.17
             3364.60,2981.17 3360.21,2974.96 3360.21,2974.96
             3360.21,2974.96 3350.89,2957.83 3350.89,2957.83
             3350.89,2957.83 3348.59,2952.09 3348.59,2952.09
             3348.59,2952.09 3344.95,2946.83 3344.95,2946.83
             3344.95,2946.83 3337.40,2934.00 3337.40,2934.00
             3333.78,2927.88 3334.51,2927.51 3332.19,2922.17
             3332.19,2922.17 3329.13,2916.92 3329.13,2916.92
             3327.76,2914.14 3328.49,2913.19 3326.00,2911.00
             3326.12,2904.75 3320.57,2893.40 3320.43,2892.00
             3320.18,2889.46 3321.89,2887.43 3322.63,2884.91
             3324.49,2878.58 3325.93,2867.40 3320.00,2863.00
             3320.03,2860.96 3320.19,2860.16 3319.26,2858.17
             3317.61,2854.64 3308.36,2847.13 3304.72,2845.39
             3304.72,2845.39 3289.29,2839.36 3289.29,2839.36
             3289.29,2839.36 3277.04,2830.68 3277.04,2830.68
             3271.49,2826.99 3270.08,2822.49 3262.00,2822.00
             3260.10,2818.17 3259.15,2817.14 3255.00,2816.00
             3255.00,2816.00 3247.00,2804.00 3247.00,2804.00
             3237.02,2803.51 3234.62,2796.42 3229.85,2791.69
             3228.32,2790.18 3217.32,2782.88 3215.00,2782.00
             3215.00,2782.00 3216.00,2780.00 3216.00,2780.00
             3216.00,2780.00 3215.00,2777.00 3215.00,2777.00
             3206.94,2776.72 3209.12,2775.25 3203.83,2771.96
             3203.83,2771.96 3198.00,2768.97 3198.00,2768.97
             3198.00,2768.97 3183.32,2756.72 3183.32,2756.72
             3183.32,2756.72 3177.42,2753.42 3177.42,2753.42
             3177.42,2753.42 3172.96,2749.37 3172.96,2749.37
             3172.96,2749.37 3161.84,2740.89 3161.84,2740.89
             3161.84,2740.89 3152.34,2735.02 3152.34,2735.02
             3152.34,2735.02 3145.82,2727.68 3145.82,2727.68
             3145.82,2727.68 3135.04,2719.29 3135.04,2719.29
             3135.04,2719.29 3129.74,2713.75 3129.74,2713.75
             3124.79,2709.30 3118.86,2705.72 3113.37,2702.07
             3106.80,2697.70 3096.21,2683.50 3089.00,2683.00
             3086.81,2676.58 3079.90,2669.94 3073.00,2669.00
             3073.00,2669.00 3068.00,2658.00 3068.00,2658.00
             3057.88,2657.31 3055.06,2652.30 3047.04,2647.75
             3047.04,2647.75 3033.00,2640.77 3033.00,2640.77
             3033.00,2640.77 3027.55,2639.06 3027.55,2639.06
             3025.21,2637.96 3025.07,2636.23 3023.32,2634.96
             3023.32,2634.96 3017.00,2632.28 3017.00,2632.28
             3012.01,2629.36 3006.93,2624.31 3001.00,2624.00
             3001.00,2624.00 2994.00,2615.00 2994.00,2615.00
             2982.80,2612.72 2969.25,2600.54 2960.42,2593.32
             2953.33,2587.54 2943.70,2581.01 2935.41,2577.05
             2935.41,2577.05 2929.99,2574.88 2929.99,2574.88
             2929.99,2574.88 2924.00,2571.71 2924.00,2571.71
             2924.00,2571.71 2913.00,2569.49 2913.00,2569.49
             2913.00,2569.49 2905.00,2566.78 2905.00,2566.78
             2905.00,2566.78 2898.00,2565.10 2898.00,2565.10
             2898.00,2565.10 2876.00,2556.22 2876.00,2556.22
             2876.00,2556.22 2849.00,2546.63 2849.00,2546.63
             2849.00,2546.63 2822.00,2534.17 2822.00,2534.17
             2822.00,2534.17 2802.00,2526.28 2802.00,2526.28
             2802.00,2526.28 2795.00,2522.04 2795.00,2522.04
             2795.00,2522.04 2788.01,2518.87 2788.01,2518.87
             2788.01,2518.87 2782.58,2515.78 2782.58,2515.78
             2782.58,2515.78 2775.00,2513.83 2775.00,2513.83
             2775.00,2513.83 2749.00,2504.29 2749.00,2504.29
             2749.00,2504.29 2741.00,2500.59 2741.00,2500.59
             2741.00,2500.59 2732.58,2497.81 2732.58,2497.81
             2732.58,2497.81 2724.01,2493.24 2724.01,2493.24
             2719.88,2491.54 2719.17,2493.05 2712.00,2489.68
             2712.00,2489.68 2700.91,2483.08 2700.91,2483.08
             2700.91,2483.08 2678.09,2472.91 2678.09,2472.91
             2673.37,2469.90 2672.74,2467.34 2669.76,2465.21
             2669.76,2465.21 2652.00,2455.66 2652.00,2455.66
             2652.00,2455.66 2640.59,2448.41 2640.59,2448.41
             2640.59,2448.41 2628.83,2437.61 2628.83,2437.61
             2628.83,2437.61 2617.09,2431.71 2617.09,2431.71
             2617.09,2431.71 2610.68,2426.98 2610.68,2426.98
             2604.63,2423.13 2591.22,2417.78 2589.00,2411.00
             2582.59,2409.70 2580.07,2407.15 2574.72,2404.14
             2567.80,2400.26 2563.21,2399.33 2557.00,2393.00
             2557.00,2393.00 2554.00,2394.00 2554.00,2394.00
             2554.00,2394.00 2550.32,2389.20 2550.32,2389.20
             2550.32,2389.20 2542.00,2385.67 2542.00,2385.67
             2542.00,2385.67 2526.00,2377.37 2526.00,2377.37
             2526.00,2377.37 2515.17,2372.02 2515.17,2372.02
             2515.17,2372.02 2506.17,2367.12 2506.17,2367.12
             2506.17,2367.12 2500.91,2363.81 2500.91,2363.81
             2500.91,2363.81 2495.00,2361.45 2495.00,2361.45
             2495.00,2361.45 2488.00,2357.40 2488.00,2357.40
             2488.00,2357.40 2462.00,2345.83 2462.00,2345.83
             2462.00,2345.83 2451.58,2339.71 2451.58,2339.71
             2451.58,2339.71 2436.09,2334.88 2436.09,2334.88
             2436.09,2334.88 2427.00,2332.00 2427.00,2332.00
             2426.11,2328.83 2422.86,2328.22 2420.00,2326.85
             2412.74,2323.36 2411.51,2324.59 2405.00,2322.37
             2400.96,2320.99 2399.48,2319.20 2395.00,2319.00
             2395.00,2319.00 2395.00,2317.00 2395.00,2317.00
             2395.00,2317.00 2393.00,2318.00 2393.00,2318.00
             2393.00,2318.00 2374.00,2300.00 2374.00,2300.00
             2368.65,2299.11 2367.34,2298.33 2364.00,2294.00
             2358.51,2293.46 2350.12,2286.26 2345.29,2282.94
             2345.29,2282.94 2340.26,2280.12 2340.26,2280.12
             2340.26,2280.12 2335.58,2276.61 2335.58,2276.61
             2330.23,2273.14 2314.16,2264.70 2308.00,2262.63
             2301.95,2260.59 2303.65,2258.44 2296.00,2259.00
             2296.00,2259.00 2298.00,2258.00 2298.00,2258.00
             2298.00,2258.00 2286.00,2255.00 2286.00,2255.00
             2286.00,2255.00 2288.00,2253.00 2288.00,2253.00
             2288.00,2253.00 2281.00,2250.59 2281.00,2250.59
             2276.67,2249.50 2269.16,2249.30 2265.87,2246.13
             2260.30,2240.74 2259.57,2233.00 2257.57,2226.00
             2256.68,2222.88 2255.64,2221.46 2255.03,2218.00
             2255.03,2218.00 2255.03,2211.09 2255.03,2211.09
             2254.36,2207.33 2252.71,2206.94 2251.95,2202.99
             2251.95,2202.99 2251.95,2193.17 2251.95,2193.17
             2251.95,2193.17 2250.05,2187.91 2250.05,2187.91
             2250.05,2187.91 2248.20,2178.00 2248.20,2178.00
             2248.20,2178.00 2245.95,2148.04 2245.95,2148.04
             2245.62,2143.03 2243.88,2143.16 2244.30,2138.00
             2245.23,2126.73 2244.08,2132.49 2242.96,2124.00
             2242.96,2124.00 2242.96,2116.00 2242.96,2116.00
             2242.96,2116.00 2241.10,2108.00 2241.10,2108.00
             2240.74,2104.04 2242.21,2098.88 2239.00,2096.00
             2242.22,2082.76 2236.02,2073.05 2236.00,2060.00
             2235.98,2044.74 2234.93,2050.92 2234.36,2043.96
             2233.67,2039.97 2234.66,2037.20 2234.36,2034.00
             2234.66,2029.26 2233.58,2028.94 2234.36,2022.00
             2234.99,2014.98 2233.50,2015.61 2233.63,2012.00
             2233.77,2008.25 2235.89,2002.06 2239.00,2000.00
             2239.00,2000.00 2237.00,1983.00 2237.00,1983.00
             2237.00,1983.00 2242.00,1983.00 2242.00,1983.00
             2242.36,1967.17 2253.05,1968.22 2254.00,1955.00
             2259.75,1953.77 2258.63,1949.07 2260.00,1944.00
             2260.00,1944.00 2264.73,1920.00 2264.73,1920.00
             2264.73,1920.00 2266.59,1908.00 2266.59,1908.00
             2268.16,1903.89 2274.42,1899.07 2277.45,1895.00
             2277.45,1895.00 2291.94,1869.00 2291.94,1869.00
             2293.18,1866.12 2293.73,1862.14 2294.42,1859.00
             2297.77,1843.76 2298.38,1837.25 2300.00,1822.00
             2300.00,1822.00 2300.00,1813.00 2300.00,1813.00
             2300.00,1813.00 2302.49,1803.00 2302.49,1803.00
             2302.49,1803.00 2303.26,1795.09 2303.26,1795.09
             2304.04,1790.85 2304.90,1792.48 2305.00,1786.00
             2305.04,1783.11 2304.44,1777.85 2306.60,1775.74
             2309.17,1773.22 2317.19,1774.21 2321.00,1773.71
             2326.58,1772.98 2339.10,1768.61 2344.00,1765.95
             2351.43,1761.92 2351.52,1760.22 2357.27,1755.29
             2366.76,1747.19 2376.05,1739.05 2380.66,1727.00
             2381.86,1723.86 2382.25,1719.41 2382.96,1716.00
             2384.58,1708.25 2385.10,1711.26 2384.99,1702.00
             2384.90,1694.75 2385.46,1687.93 2387.80,1681.00
             2387.80,1681.00 2390.76,1673.00 2390.76,1673.00
             2390.76,1673.00 2392.46,1661.00 2392.46,1661.00
             2392.46,1661.00 2399.40,1638.00 2399.40,1638.00
             2399.40,1638.00 2401.04,1630.58 2401.04,1630.58
             2401.04,1630.58 2404.13,1624.00 2404.13,1624.00
             2404.13,1624.00 2406.78,1611.00 2406.78,1611.00
             2406.78,1611.00 2412.98,1593.00 2412.98,1593.00
             2412.98,1593.00 2416.44,1580.00 2416.44,1580.00
             2416.44,1580.00 2419.70,1571.00 2419.70,1571.00
             2419.70,1571.00 2422.63,1558.00 2422.63,1558.00
             2426.48,1544.96 2430.77,1532.55 2432.91,1519.00
             2432.91,1519.00 2432.91,1509.00 2432.91,1509.00
             2433.87,1502.38 2435.14,1506.10 2435.00,1494.00
             2434.91,1486.56 2432.22,1455.27 2430.37,1449.00
             2430.37,1449.00 2425.31,1437.83 2425.31,1437.83
             2425.31,1437.83 2422.82,1429.01 2422.82,1429.01
             2422.82,1429.01 2405.76,1395.09 2405.76,1395.09
             2405.76,1395.09 2401.97,1388.91 2401.97,1388.91
             2399.54,1383.83 2402.10,1383.56 2396.00,1380.00
             2396.00,1380.00 2397.00,1377.00 2397.00,1377.00
             2397.00,1377.00 2393.00,1375.00 2393.00,1375.00
             2393.32,1369.23 2390.87,1361.93 2385.00,1360.00
             2384.76,1355.10 2384.74,1351.35 2379.00,1351.00
             2374.99,1340.90 2370.20,1346.76 2368.00,1339.00
             2368.00,1339.00 2349.72,1331.78 2349.72,1331.78
             2349.72,1331.78 2345.00,1331.78 2345.00,1331.78
             2343.86,1328.77 2338.00,1329.14 2335.00,1329.00
             2335.00,1329.00 2336.00,1331.00 2336.00,1331.00
             2332.05,1331.00 2320.08,1331.10 2318.51,1326.76
             2317.10,1322.84 2320.17,1315.31 2320.69,1311.00
             2320.69,1311.00 2319.84,1285.00 2319.84,1285.00
             2319.84,1285.00 2319.84,1277.00 2319.84,1277.00
             2319.84,1277.00 2319.84,1268.00 2319.84,1268.00
             2319.84,1268.00 2319.26,1248.00 2319.26,1248.00
             2319.63,1237.28 2313.79,1209.65 2311.43,1197.96
             2311.43,1197.96 2310.56,1189.00 2310.56,1189.00
             2310.56,1189.00 2305.46,1169.00 2305.46,1169.00
             2303.11,1162.42 2304.44,1161.26 2303.83,1155.00
             2303.83,1155.00 2301.86,1138.72 2301.86,1138.72
             2301.91,1136.18 2302.66,1133.95 2300.00,1133.00
             2300.00,1133.00 2297.46,1114.00 2297.46,1114.00
             2297.46,1114.00 2295.74,1097.00 2295.74,1097.00
             2295.74,1097.00 2289.18,1074.91 2289.18,1074.91
             2289.18,1074.91 2286.69,1057.00 2286.69,1057.00
             2286.69,1057.00 2281.66,1039.91 2281.66,1039.91
             2281.66,1039.91 2280.47,1032.00 2280.47,1032.00
             2280.47,1032.00 2275.02,1017.00 2275.02,1017.00
             2275.02,1017.00 2273.28,1009.00 2273.28,1009.00
             2273.28,1009.00 2263.38,979.00 2263.38,979.00
             2263.38,979.00 2261.05,971.00 2261.05,971.00
             2261.05,971.00 2256.81,962.00 2256.81,962.00
             2256.81,962.00 2253.75,950.00 2253.75,950.00
             2253.75,950.00 2247.54,936.00 2247.54,936.00
             2247.54,936.00 2238.39,908.00 2238.39,908.00
             2238.39,908.00 2235.61,902.00 2235.61,902.00
             2235.61,902.00 2231.00,881.00 2231.00,881.00
             2225.65,876.02 2224.34,870.38 2221.29,864.00
             2221.29,864.00 2214.59,851.91 2214.59,851.91
             2214.59,851.91 2206.82,832.00 2206.82,832.00
             2206.82,832.00 2201.39,820.09 2201.39,820.09
             2201.39,820.09 2198.12,814.83 2198.12,814.83
             2198.12,814.83 2195.60,806.00 2195.60,806.00
             2195.60,806.00 2170.11,764.13 2170.11,764.13
             2167.80,760.96 2164.81,759.47 2162.43,756.72
             2162.43,756.72 2158.03,749.72 2158.03,749.72
             2158.03,749.72 2150.22,739.21 2150.22,739.21
             2150.22,739.21 2145.57,734.64 2145.57,734.64
             2145.57,734.64 2142.77,729.76 2142.77,729.76
             2139.31,724.81 2134.76,725.62 2134.00,720.00
             2134.00,720.00 2121.84,709.50 2121.84,709.50
             2121.84,709.50 2110.59,700.86 2110.59,700.86
             2110.59,700.86 2103.41,691.13 2103.41,691.13
             2103.41,691.13 2097.69,685.78 2097.69,685.78
             2097.69,685.78 2092.38,679.34 2092.38,679.34
             2092.38,679.34 2077.00,671.00 2077.00,671.00
             2077.00,671.00 2078.00,668.00 2078.00,668.00
             2078.00,668.00 2061.17,657.43 2061.17,657.43
             2056.38,653.70 2056.52,651.63 2050.00,650.00
             2050.00,650.00 2053.00,649.00 2053.00,649.00
             2053.00,649.00 2048.00,647.00 2048.00,647.00
             2048.00,647.00 2048.00,649.00 2048.00,649.00
             2048.00,649.00 2046.00,649.00 2046.00,649.00
             2046.00,649.00 2038.00,641.00 2038.00,641.00
             2038.00,641.00 2028.86,633.63 2028.86,633.63
             2028.86,633.63 2014.17,626.21 2014.17,626.21
             2014.17,626.21 2004.00,619.88 2004.00,619.88
             2004.00,619.88 1997.00,617.29 1997.00,617.29
             1997.00,617.29 1991.00,613.11 1991.00,613.11
             1991.00,613.11 1974.00,607.00 1974.00,607.00
             1972.90,602.87 1968.72,603.91 1965.04,602.66
             1960.98,601.29 1962.07,600.54 1956.41,599.09
             1951.72,597.89 1948.39,594.24 1944.00,592.72
             1944.00,592.72 1935.00,591.30 1935.00,591.30
             1935.00,591.30 1913.00,580.49 1913.00,580.49
             1913.00,580.49 1894.00,569.30 1894.00,569.30
             1894.00,569.30 1883.00,563.80 1883.00,563.80
             1878.20,561.03 1877.81,559.97 1872.00,557.86
             1853.21,551.07 1832.74,550.07 1813.00,548.03
             1813.00,548.03 1776.00,544.00 1776.00,544.00
             1776.00,544.00 1755.00,544.00 1755.00,544.00
             1755.00,544.00 1739.00,545.06 1739.00,545.06
             1739.00,545.06 1716.00,545.06 1716.00,545.06
             1705.68,544.98 1688.97,541.45 1680.00,544.00
             1680.00,544.00 1680.00,542.00 1680.00,542.00
             1680.00,542.00 1667.96,544.91 1667.96,544.91
             1667.96,544.91 1649.00,547.31 1649.00,547.31
             1649.00,547.31 1640.00,549.96 1640.00,549.96
             1633.54,551.51 1631.84,550.59 1625.00,553.90
             1609.56,561.37 1598.52,575.52 1584.09,584.58
             1580.11,587.08 1579.39,585.49 1575.00,587.26
             1575.00,587.26 1567.00,590.95 1567.00,590.95
             1567.00,590.95 1548.00,596.71 1548.00,596.71
             1548.00,596.71 1535.96,601.86 1535.96,601.86
             1535.96,601.86 1527.00,604.21 1527.00,604.21
             1517.76,607.85 1509.83,615.58 1500.00,617.00 Z
           M 1890.00,568.00
           C 1890.00,568.00 1890.00,569.00 1890.00,569.00
             1890.00,569.00 1889.00,568.00 1889.00,568.00
             1889.00,568.00 1890.00,568.00 1890.00,568.00 Z
           M 1960.00,600.00
           C 1960.00,600.00 1960.00,601.00 1960.00,601.00
             1960.00,601.00 1959.00,600.00 1959.00,600.00
             1959.00,600.00 1960.00,600.00 1960.00,600.00 Z
           M 2327.00,1329.00
           C 2327.00,1329.00 2327.00,1330.00 2327.00,1330.00
             2327.00,1330.00 2328.00,1329.00 2328.00,1329.00
             2328.00,1329.00 2327.00,1329.00 2327.00,1329.00 Z
           M 2329.00,1329.00
           C 2329.00,1329.00 2329.00,1330.00 2329.00,1330.00
             2329.00,1330.00 2330.00,1329.00 2330.00,1329.00
             2330.00,1329.00 2329.00,1329.00 2329.00,1329.00 Z
           M 2331.00,1329.00
           C 2331.00,1329.00 2331.00,1330.00 2331.00,1330.00
             2331.00,1330.00 2332.00,1329.00 2332.00,1329.00
             2332.00,1329.00 2331.00,1329.00 2331.00,1329.00 Z
           M 2333.00,1329.00
           C 2333.00,1329.00 2333.00,1330.00 2333.00,1330.00
             2333.00,1330.00 2334.00,1329.00 2334.00,1329.00
             2334.00,1329.00 2333.00,1329.00 2333.00,1329.00 Z
           M 2340.00,1330.00
           C 2340.00,1330.00 2340.00,1331.00 2340.00,1331.00
             2340.00,1331.00 2339.00,1330.00 2339.00,1330.00
             2339.00,1330.00 2340.00,1330.00 2340.00,1330.00 Z
           M 2366.00,1339.00
           C 2366.00,1339.00 2366.00,1340.00 2366.00,1340.00
             2366.00,1340.00 2365.00,1339.00 2365.00,1339.00
             2365.00,1339.00 2366.00,1339.00 2366.00,1339.00 Z
           M 2242.00,2120.00
           C 2242.00,2120.00 2242.00,2121.00 2242.00,2121.00
             2242.00,2121.00 2241.00,2120.00 2241.00,2120.00
             2241.00,2120.00 2242.00,2120.00 2242.00,2120.00 Z
           M 2285.00,2253.00
           C 2285.00,2253.00 2285.00,2254.00 2285.00,2254.00
             2285.00,2254.00 2284.00,2253.00 2284.00,2253.00
             2284.00,2253.00 2285.00,2253.00 2285.00,2253.00 Z
           M 208.00,3020.00
           C 208.00,3020.00 208.00,3021.00 208.00,3021.00
             208.00,3021.00 207.00,3020.00 207.00,3020.00
             207.00,3020.00 208.00,3020.00 208.00,3020.00 Z" />
</svg>
