<?xml version="1.0" encoding="UTF-8" standalone="no"?>
<!DOCTYPE svg PUBLIC "-//W3C//DTD SVG 20010904//EN"
              "http://www.w3.org/TR/2001/REC-SVG-20010904/DTD/svg10.dtd">

<svg xmlns="http://www.w3.org/2000/svg"
     width="12.0067in" height="14.8033in"
     viewBox="0 0 3602 4441">
  <path id="face"
        fill="none" stroke="black" stroke-width="1"
        d="M 1280.00,1283.00
           C 1274.02,1286.37 1273.12,1289.49 1269.56,1295.00
             1263.67,1304.14 1258.13,1309.22 1264.00,1320.00
             1245.87,1327.86 1245.73,1336.47 1234.99,1346.96
             1226.29,1355.45 1216.66,1356.08 1219.00,1371.00
             1219.00,1371.00 1234.00,1365.00 1234.00,1365.00
             1234.00,1365.00 1232.00,1362.00 1232.00,1362.00
             1238.30,1360.62 1239.05,1358.01 1240.00,1352.00
             1248.63,1354.35 1248.14,1349.48 1254.09,1343.00
             1261.43,1335.02 1266.11,1331.26 1276.00,1327.00
             1276.00,1327.00 1277.00,1330.00 1277.00,1330.00
             1277.00,1330.00 1285.37,1322.81 1285.37,1322.81
             1285.37,1322.81 1294.00,1317.00 1294.00,1317.00
             1295.20,1322.43 1294.39,1324.74 1293.00,1330.00
             1293.00,1330.00 1289.00,1324.00 1289.00,1324.00
             1281.84,1330.19 1288.43,1332.23 1289.53,1339.00
             1289.53,1339.00 1289.53,1345.00 1289.53,1345.00
             1289.53,1345.00 1290.51,1351.00 1290.51,1351.00
             1290.51,1351.00 1289.00,1376.00 1289.00,1376.00
             1289.00,1376.00 1282.00,1376.00 1282.00,1376.00
             1282.00,1376.00 1283.00,1386.00 1283.00,1386.00
             1284.26,1388.41 1286.07,1391.36 1286.59,1394.00
             1287.20,1397.05 1286.19,1400.78 1286.04,1404.00
             1286.04,1404.00 1284.00,1433.00 1284.00,1433.00
             1284.00,1433.00 1284.00,1461.00 1284.00,1461.00
             1284.00,1461.00 1286.91,1490.00 1286.91,1490.00
             1287.23,1495.88 1284.39,1505.28 1286.91,1516.00
             1286.91,1516.00 1289.00,1516.00 1289.00,1516.00
             1289.00,1516.00 1292.00,1509.00 1292.00,1509.00
             1297.07,1514.88 1295.71,1514.93 1299.30,1520.00
             1305.44,1528.68 1317.98,1543.73 1329.00,1545.00
             1329.00,1545.00 1307.08,1518.00 1307.08,1518.00
             1305.20,1514.68 1300.79,1499.77 1300.91,1496.00
             1300.91,1496.00 1302.84,1485.00 1302.84,1485.00
             1302.84,1485.00 1304.70,1471.00 1304.70,1471.00
             1306.24,1466.25 1308.56,1465.81 1311.77,1452.00
             1311.77,1452.00 1317.98,1421.00 1317.98,1421.00
             1319.35,1418.48 1321.98,1416.05 1324.00,1414.00
             1324.00,1414.00 1330.78,1430.00 1330.78,1430.00
             1330.78,1430.00 1335.31,1446.00 1335.31,1446.00
             1335.31,1446.00 1340.97,1459.00 1340.97,1459.00
             1340.97,1459.00 1346.54,1470.00 1346.54,1470.00
             1346.54,1470.00 1354.21,1491.00 1354.21,1491.00
             1354.21,1491.00 1356.35,1503.00 1356.35,1503.00
             1356.35,1503.00 1360.63,1517.00 1360.63,1517.00
             1360.63,1517.00 1364.91,1542.00 1364.91,1542.00
             1365.33,1547.67 1365.80,1560.98 1367.89,1565.90
             1369.05,1568.63 1374.95,1573.01 1377.58,1576.00
             1385.99,1585.59 1398.16,1597.26 1404.00,1608.00
             1404.00,1608.00 1406.00,1607.00 1406.00,1607.00
             1410.08,1615.86 1415.57,1615.73 1424.00,1619.14
             1424.00,1619.14 1441.00,1624.56 1441.00,1624.56
             1441.00,1624.56 1450.00,1629.17 1450.00,1629.17
             1450.00,1629.17 1459.00,1629.17 1459.00,1629.17
             1459.00,1629.17 1473.00,1630.00 1473.00,1630.00
             1473.00,1630.00 1478.58,1662.00 1478.58,1662.00
             1478.58,1662.00 1484.01,1694.00 1484.01,1694.00
             1488.05,1712.73 1495.66,1735.08 1502.54,1753.00
             1502.54,1753.00 1511.98,1778.00 1511.98,1778.00
             1511.98,1778.00 1528.29,1801.00 1528.29,1801.00
             1528.29,1801.00 1571.63,1859.00 1571.63,1859.00
             1571.63,1859.00 1601.63,1899.00 1601.63,1899.00
             1605.18,1903.74 1614.36,1916.39 1618.09,1919.79
             1618.09,1919.79 1646.00,1936.42 1646.00,1936.42
             1646.00,1936.42 1701.00,1967.02 1701.00,1967.02
             1706.68,1969.69 1707.45,1967.94 1717.00,1972.31
             1717.00,1972.31 1730.00,1978.89 1730.00,1978.89
             1730.00,1978.89 1778.00,2002.26 1778.00,2002.26
             1778.00,2002.26 1805.00,2014.90 1805.00,2014.90
             1805.00,2014.90 1840.00,2021.08 1840.00,2021.08
             1840.00,2021.08 1896.00,2029.00 1896.00,2029.00
             1896.00,2029.00 1933.00,2029.00 1933.00,2029.00
             1933.00,2029.00 1950.00,2030.00 1950.00,2030.00
             1950.00,2030.00 1980.00,2030.00 1980.00,2030.00
             1991.07,2029.98 2012.14,2025.69 2024.00,2023.75
             2024.00,2023.75 2083.00,2013.22 2083.00,2013.22
             2083.00,2013.22 2123.00,1997.40 2123.00,1997.40
             2123.00,1997.40 2169.00,1977.75 2169.00,1977.75
             2169.00,1977.75 2179.00,1970.13 2179.00,1970.13
             2179.00,1970.13 2203.00,1951.65 2203.00,1951.65
             2203.00,1951.65 2229.83,1929.96 2229.83,1929.96
             2229.83,1929.96 2241.20,1916.00 2241.20,1916.00
             2241.20,1916.00 2276.30,1871.00 2276.30,1871.00
             2276.30,1871.00 2285.54,1861.00 2285.54,1861.00
             2285.54,1861.00 2296.72,1845.00 2296.72,1845.00
             2313.09,1821.58 2320.39,1810.72 2333.25,1785.00
             2337.95,1775.59 2347.50,1762.11 2348.00,1752.00
             2354.68,1750.51 2358.96,1743.52 2352.00,1741.00
             2352.00,1741.00 2356.00,1737.00 2356.00,1737.00
             2356.00,1737.00 2357.00,1743.00 2357.00,1743.00
             2362.31,1736.30 2363.27,1729.86 2360.00,1722.00
             2370.89,1717.82 2369.40,1714.96 2370.09,1705.00
             2370.09,1705.00 2370.90,1696.00 2370.90,1696.00
             2370.69,1691.03 2369.48,1690.30 2371.47,1685.00
             2375.29,1674.81 2384.15,1667.75 2386.00,1658.00
             2386.00,1658.00 2388.00,1665.00 2388.00,1665.00
             2395.91,1656.06 2394.89,1658.85 2403.00,1652.48
             2403.00,1652.48 2410.00,1646.59 2410.00,1646.59
             2413.52,1644.32 2414.80,1645.52 2418.96,1641.86
             2418.96,1641.86 2469.82,1591.00 2469.82,1591.00
             2469.82,1591.00 2476.52,1582.00 2476.52,1582.00
             2482.32,1574.63 2489.86,1570.11 2493.52,1561.00
             2493.52,1561.00 2496.62,1548.00 2496.62,1548.00
             2496.62,1548.00 2499.90,1540.00 2499.90,1540.00
             2499.90,1540.00 2504.16,1519.00 2504.16,1519.00
             2504.66,1513.93 2502.30,1510.46 2502.04,1504.00
             2501.84,1499.00 2502.61,1497.35 2502.96,1493.00
             2502.96,1493.00 2502.96,1479.00 2502.96,1479.00
             2503.02,1464.63 2508.48,1464.41 2509.87,1456.00
             2513.70,1432.82 2513.60,1430.67 2524.24,1409.00
             2526.60,1404.21 2527.47,1398.73 2531.00,1395.00
             2531.34,1391.39 2537.75,1378.45 2539.55,1374.00
             2539.55,1374.00 2542.99,1365.00 2542.99,1365.00
             2546.61,1357.73 2547.59,1358.00 2550.48,1349.00
             2550.48,1349.00 2553.63,1336.00 2553.63,1336.00
             2553.63,1336.00 2554.43,1330.00 2554.43,1330.00
             2556.34,1322.76 2558.96,1326.71 2559.00,1314.00
             2559.00,1314.00 2555.00,1314.00 2555.00,1314.00
             2554.16,1303.58 2552.57,1300.42 2557.00,1290.00
             2559.65,1298.18 2559.00,1300.65 2559.00,1309.00
             2565.58,1304.32 2565.02,1302.32 2571.00,1304.00
             2571.00,1304.00 2568.00,1293.00 2568.00,1293.00
             2568.00,1293.00 2564.00,1296.00 2564.00,1296.00
             2564.00,1291.16 2564.38,1283.44 2563.24,1279.00
             2559.81,1265.62 2551.95,1257.60 2551.00,1237.00
             2551.00,1237.00 2554.00,1238.00 2554.00,1238.00
             2551.99,1223.72 2548.90,1225.60 2546.00,1217.00
             2546.00,1217.00 2551.00,1222.00 2551.00,1222.00
             2551.00,1222.00 2549.00,1215.00 2549.00,1215.00
             2556.42,1220.94 2554.67,1224.85 2558.08,1229.63
             2559.93,1232.22 2563.10,1233.55 2567.00,1239.00
             2567.00,1239.00 2569.00,1236.00 2569.00,1236.00
             2573.37,1243.82 2574.64,1244.99 2577.65,1254.00
             2577.65,1254.00 2582.65,1270.91 2582.65,1270.91
             2584.03,1273.77 2589.15,1280.89 2592.00,1282.00
             2592.00,1282.00 2586.53,1256.00 2586.53,1256.00
             2586.53,1256.00 2571.63,1223.00 2571.63,1223.00
             2571.63,1223.00 2570.00,1212.00 2570.00,1212.00
             2570.00,1212.00 2568.00,1216.00 2568.00,1216.00
             2568.00,1216.00 2566.00,1214.00 2566.00,1214.00
             2566.00,1214.00 2565.00,1214.00 2565.00,1214.00
             2565.00,1214.00 2562.59,1217.66 2562.59,1217.66
             2562.59,1217.66 2557.66,1214.94 2557.66,1214.94
             2557.66,1214.94 2549.00,1203.00 2549.00,1203.00
             2549.00,1203.00 2564.00,1213.00 2564.00,1213.00
             2562.71,1206.71 2561.92,1205.14 2558.00,1200.00
             2558.00,1200.00 2559.00,1199.00 2559.00,1199.00
             2559.00,1199.00 2566.00,1205.00 2566.00,1205.00
             2563.67,1194.15 2555.03,1198.07 2549.00,1188.00
             2542.59,1188.53 2541.96,1188.25 2537.00,1184.00
             2537.00,1184.00 2547.00,1185.00 2547.00,1185.00
             2544.21,1179.20 2534.39,1164.33 2529.96,1160.30
             2523.98,1154.86 2514.06,1148.95 2511.16,1141.00
             2509.74,1137.11 2511.99,1127.50 2512.00,1122.00
             2512.00,1122.00 2512.00,1096.00 2512.00,1096.00
             2511.98,1080.13 2505.29,1064.21 2504.93,1060.00
             2504.50,1054.97 2509.09,1048.43 2508.26,1044.00
             2507.55,1040.20 2503.16,1037.32 2503.00,1024.00
             2503.00,1024.00 2503.00,1008.00 2503.00,1008.00
             2503.00,1008.00 2499.28,980.00 2499.28,980.00
             2499.28,980.00 2497.54,964.00 2497.54,964.00
             2497.54,964.00 2493.67,948.00 2493.67,948.00
             2493.67,948.00 2492.38,939.00 2492.38,939.00
             2492.38,939.00 2488.00,923.00 2488.00,923.00
             2485.35,915.19 2484.23,915.24 2481.32,909.00
             2481.32,909.00 2466.69,875.00 2466.69,875.00
             2466.69,875.00 2458.56,844.00 2458.56,844.00
             2458.56,844.00 2454.20,832.00 2454.20,832.00
             2454.20,832.00 2436.91,781.00 2436.91,781.00
             2436.91,781.00 2431.31,770.00 2431.31,770.00
             2431.31,770.00 2423.17,753.00 2423.17,753.00
             2423.17,753.00 2419.51,744.00 2419.51,744.00
             2419.51,744.00 2407.40,724.00 2407.40,724.00
             2407.40,724.00 2395.94,704.00 2395.94,704.00
             2395.94,704.00 2383.93,686.00 2383.93,686.00
             2383.93,686.00 2378.88,675.00 2378.88,675.00
             2378.88,675.00 2373.32,665.00 2373.32,665.00
             2373.32,665.00 2367.75,653.00 2367.75,653.00
             2367.75,653.00 2362.08,642.00 2362.08,642.00
             2362.08,642.00 2356.37,633.00 2356.37,633.00
             2356.37,633.00 2348.91,618.00 2348.91,618.00
             2340.60,605.04 2321.76,586.63 2310.00,576.28
             2310.00,576.28 2293.00,562.43 2293.00,562.43
             2293.00,562.43 2282.00,555.22 2282.00,555.22
             2282.00,555.22 2267.00,544.82 2267.00,544.82
             2267.00,544.82 2250.00,536.74 2250.00,536.74
             2250.00,536.74 2221.00,522.18 2221.00,522.18
             2221.00,522.18 2186.00,507.14 2186.00,507.14
             2186.00,507.14 2173.04,500.54 2173.04,500.54
             2173.04,500.54 2167.72,496.89 2167.72,496.89
             2167.72,496.89 2142.00,484.52 2142.00,484.52
             2142.00,484.52 2111.00,477.74 2111.00,477.74
             2111.00,477.74 2096.00,474.30 2096.00,474.30
             2085.90,472.85 2089.58,475.90 2071.00,470.57
             2071.00,470.57 2057.00,465.44 2057.00,465.44
             2057.00,465.44 2031.00,456.31 2031.00,456.31
             2031.00,456.31 2018.00,451.75 2018.00,451.75
             2018.00,451.75 1993.00,447.39 1993.00,447.39
             1993.00,447.39 1976.00,443.29 1976.00,443.29
             1976.00,443.29 1946.00,440.72 1946.00,440.72
             1946.00,440.72 1928.00,436.46 1928.00,436.46
             1928.00,436.46 1901.00,434.83 1901.00,434.83
             1890.56,433.79 1890.10,431.85 1877.00,432.00
             1860.05,432.20 1839.99,436.30 1825.00,444.27
             1819.86,447.00 1811.47,455.11 1801.00,459.37
             1787.59,464.83 1777.65,462.30 1767.00,465.44
             1758.06,468.07 1752.43,472.32 1749.00,473.35
             1745.02,474.55 1742.18,473.33 1738.00,475.08
             1738.00,475.08 1730.00,479.69 1730.00,479.69
             1730.00,479.69 1713.00,488.13 1713.00,488.13
             1713.00,488.13 1685.00,498.66 1685.00,498.66
             1685.00,498.66 1673.00,502.09 1673.00,502.09
             1673.00,502.09 1650.00,511.25 1650.00,511.25
             1650.00,511.25 1627.00,517.92 1627.00,517.92
             1627.00,517.92 1617.00,522.57 1617.00,522.57
             1617.00,522.57 1598.00,530.13 1598.00,530.13
             1598.00,530.13 1589.00,535.49 1589.00,535.49
             1589.00,535.49 1577.00,541.45 1577.00,541.45
             1577.00,541.45 1549.00,559.97 1549.00,559.97
             1549.00,559.97 1538.00,567.04 1538.00,567.04
             1538.00,567.04 1518.00,583.17 1518.00,583.17
             1505.63,594.22 1484.69,617.36 1475.33,631.00
             1475.33,631.00 1469.24,643.00 1469.24,643.00
             1469.24,643.00 1461.43,655.00 1461.43,655.00
             1451.89,671.57 1444.15,689.14 1437.42,707.00
             1437.42,707.00 1419.31,766.00 1419.31,766.00
             1419.31,766.00 1410.26,784.00 1410.26,784.00
             1410.26,784.00 1406.20,795.00 1406.20,795.00
             1406.20,795.00 1397.26,812.00 1397.26,812.00
             1397.26,812.00 1388.09,835.00 1388.09,835.00
             1388.09,835.00 1384.80,847.00 1384.80,847.00
             1384.80,847.00 1380.04,860.00 1380.04,860.00
             1380.04,860.00 1374.26,883.00 1374.26,883.00
             1374.26,883.00 1368.57,899.00 1368.57,899.00
             1368.57,899.00 1362.50,925.00 1362.50,925.00
             1362.50,925.00 1357.32,943.00 1357.32,943.00
             1357.32,943.00 1355.39,958.00 1355.39,958.00
             1352.59,973.77 1347.02,1004.83 1347.00,1020.00
             1347.00,1020.00 1347.00,1051.00 1347.00,1051.00
             1347.00,1051.00 1346.00,1065.00 1346.00,1065.00
             1346.00,1065.00 1346.99,1081.00 1346.99,1081.00
             1346.99,1081.00 1345.00,1107.00 1345.00,1107.00
             1345.00,1107.00 1345.00,1120.00 1345.00,1120.00
             1345.00,1120.00 1350.08,1163.00 1350.08,1163.00
             1350.99,1171.68 1359.12,1184.17 1355.58,1192.00
             1354.10,1195.29 1339.66,1213.09 1336.83,1215.74
             1336.83,1215.74 1330.31,1221.13 1330.31,1221.13
             1327.03,1225.01 1328.78,1227.70 1326.98,1230.63
             1326.98,1230.63 1320.52,1237.04 1320.52,1237.04
             1320.52,1237.04 1314.68,1244.82 1314.68,1244.82
             1314.68,1244.82 1298.00,1258.49 1298.00,1258.49
             1298.00,1258.49 1288.09,1264.63 1288.09,1264.63
             1285.45,1266.68 1278.05,1275.71 1278.15,1279.00
             1278.21,1280.82 1279.14,1281.63 1280.00,1283.00 Z
           M 2548.00,1201.00
           C 2548.00,1201.00 2548.00,1202.00 2548.00,1202.00
             2548.00,1202.00 2547.00,1201.00 2547.00,1201.00
             2547.00,1201.00 2548.00,1201.00 2548.00,1201.00 Z
           M 2549.00,1202.00
           C 2549.00,1202.00 2549.00,1203.00 2549.00,1203.00
             2549.00,1203.00 2548.00,1202.00 2548.00,1202.00
             2548.00,1202.00 2549.00,1202.00 2549.00,1202.00 Z
           M 2562.00,1228.00
           C 2562.00,1228.00 2562.00,1229.00 2562.00,1229.00
             2562.00,1229.00 2561.00,1228.00 2561.00,1228.00
             2561.00,1228.00 2562.00,1228.00 2562.00,1228.00 Z
           M 1287.00,1284.00
           C 1284.98,1287.46 1284.85,1287.80 1281.00,1289.00
             1281.00,1289.00 1280.00,1283.00 1280.00,1283.00
             1280.00,1283.00 1287.00,1284.00 1287.00,1284.00 Z
           M 2560.00,1315.00
           C 2560.00,1315.00 2560.00,1316.00 2560.00,1316.00
             2560.00,1316.00 2561.00,1315.00 2561.00,1315.00
             2561.00,1315.00 2560.00,1315.00 2560.00,1315.00 Z
           M 1298.13,1474.00
           C 1298.13,1474.00 1298.13,1480.91 1298.13,1480.91
             1299.21,1486.22 1301.54,1486.96 1296.00,1492.00
             1295.46,1485.34 1293.21,1479.63 1298.13,1474.00 Z
           M 2360.00,1724.00
           C 2360.00,1724.00 2357.00,1731.00 2357.00,1731.00
             2356.15,1726.89 2356.29,1726.10 2360.00,1724.00 Z
           M 2353.00,1747.00
           C 2353.00,1747.00 2353.00,1748.00 2353.00,1748.00
             2353.00,1748.00 2352.00,1747.00 2352.00,1747.00
             2352.00,1747.00 2353.00,1747.00 2353.00,1747.00 Z" />
  <path id="profile"
        fill="none" stroke="black" stroke-width="1"
        d="M 1280.00,1282.00
           C 1273.05,1288.17 1273.40,1288.29 1268.58,1296.00
             1263.22,1304.56 1259.26,1309.76 1264.00,1320.00
             1247.42,1327.18 1248.00,1332.50 1236.96,1344.00
             1232.71,1348.43 1222.37,1355.83 1220.31,1360.00
             1218.73,1363.22 1219.00,1367.47 1219.00,1371.00
             1219.00,1371.00 1234.00,1365.00 1234.00,1365.00
             1234.00,1365.00 1234.00,1364.00 1234.00,1364.00
             1234.00,1364.00 1232.00,1362.00 1232.00,1362.00
             1237.78,1360.01 1239.02,1357.88 1240.00,1352.00
             1249.96,1353.20 1252.59,1344.61 1259.17,1338.29
             1264.93,1332.75 1269.35,1330.79 1276.00,1327.00
             1276.00,1327.00 1277.00,1330.00 1277.00,1330.00
             1277.00,1330.00 1294.00,1317.00 1294.00,1317.00
             1294.00,1317.00 1293.00,1329.00 1293.00,1329.00
             1293.00,1329.00 1288.00,1324.00 1288.00,1324.00
             1283.34,1334.13 1289.93,1332.15 1289.96,1347.00
             1289.96,1347.00 1289.96,1364.00 1289.96,1364.00
             1289.96,1364.00 1289.00,1376.00 1289.00,1376.00
             1289.00,1376.00 1282.00,1376.00 1282.00,1376.00
             1282.63,1389.74 1286.47,1391.06 1286.65,1397.00
             1286.65,1397.00 1286.09,1403.00 1286.09,1403.00
             1286.09,1403.00 1284.00,1434.00 1284.00,1434.00
             1284.00,1434.00 1284.00,1459.00 1284.00,1459.00
             1284.00,1459.00 1286.95,1490.00 1286.95,1490.00
             1287.33,1497.41 1284.33,1505.01 1286.95,1516.00
             1286.95,1516.00 1289.00,1516.00 1289.00,1516.00
             1289.00,1516.00 1291.00,1510.00 1291.00,1510.00
             1296.58,1514.39 1297.73,1518.50 1301.90,1524.00
             1308.61,1532.87 1317.90,1542.39 1329.00,1545.00
             1329.00,1545.00 1307.08,1517.00 1307.08,1517.00
             1307.08,1517.00 1301.26,1497.00 1301.26,1497.00
             1301.26,1497.00 1305.22,1471.00 1305.22,1471.00
             1305.22,1471.00 1311.79,1452.00 1311.79,1452.00
             1311.79,1452.00 1318.85,1421.00 1318.85,1421.00
             1318.85,1421.00 1325.00,1415.00 1325.00,1415.00
             1325.00,1415.00 1330.46,1430.00 1330.46,1430.00
             1330.46,1430.00 1336.45,1449.00 1336.45,1449.00
             1336.45,1449.00 1345.69,1469.00 1345.69,1469.00
             1345.69,1469.00 1352.92,1488.00 1352.92,1488.00
             1352.92,1488.00 1356.50,1504.00 1356.50,1504.00
             1356.50,1504.00 1360.11,1516.00 1360.11,1516.00
             1360.11,1516.00 1364.57,1541.00 1364.57,1541.00
             1364.57,1541.00 1367.70,1565.00 1367.70,1565.00
             1367.70,1565.00 1377.00,1576.00 1377.00,1576.00
             1377.00,1576.00 1388.97,1589.00 1388.97,1589.00
             1388.97,1589.00 1410.18,1612.51 1410.18,1612.51
             1410.18,1612.51 1430.00,1620.69 1430.00,1620.69
             1430.00,1620.69 1440.00,1624.51 1440.00,1624.51
             1440.00,1624.51 1452.00,1630.28 1452.00,1630.28
             1452.00,1630.28 1466.00,1629.00 1466.00,1629.00
             1466.00,1629.00 1474.58,1668.00 1474.58,1668.00
             1474.58,1668.00 1482.54,1701.00 1482.54,1701.00
             1482.54,1701.00 1502.91,1746.00 1502.91,1746.00
             1502.91,1746.00 1514.57,1790.00 1514.57,1790.00
             1516.42,1793.80 1530.41,1809.48 1534.00,1812.96
             1536.31,1815.20 1539.49,1817.65 1541.37,1820.09
             1543.95,1823.45 1547.09,1831.66 1549.25,1836.00
             1555.22,1848.04 1562.98,1860.25 1563.00,1874.00
             1563.00,1874.00 1563.00,1900.00 1563.00,1900.00
             1562.89,1909.35 1560.57,1922.86 1562.34,1932.00
             1563.51,1938.04 1566.84,1938.89 1568.43,1943.04
             1570.09,1947.37 1569.32,1951.63 1569.09,1956.00
             1568.75,1962.63 1570.80,1965.29 1570.82,1970.00
             1570.82,1970.00 1569.04,1990.00 1569.04,1990.00
             1568.51,2003.56 1574.15,2011.47 1574.00,2025.00
             1574.00,2025.00 1572.68,2043.00 1572.68,2043.00
             1572.68,2043.00 1570.30,2053.00 1570.30,2053.00
             1570.30,2053.00 1568.72,2070.00 1568.72,2070.00
             1568.72,2070.00 1566.00,2087.00 1566.00,2087.00
             1551.74,2081.92 1548.84,2095.33 1542.25,2105.00
             1535.49,2114.94 1518.62,2132.09 1508.00,2137.60
             1505.00,2139.16 1502.28,2139.76 1499.00,2140.39
             1499.00,2140.39 1474.00,2145.72 1474.00,2145.72
             1463.31,2147.50 1446.83,2149.78 1437.00,2153.95
             1425.47,2158.84 1418.11,2169.76 1408.00,2176.30
             1399.74,2181.65 1388.94,2184.66 1380.00,2188.89
             1380.00,2188.89 1370.00,2194.69 1370.00,2194.69
             1370.00,2194.69 1351.00,2204.75 1351.00,2204.75
             1351.00,2204.75 1329.00,2215.69 1329.00,2215.69
             1329.00,2215.69 1314.00,2222.26 1314.00,2222.26
             1314.00,2222.26 1293.00,2232.55 1293.00,2232.55
             1293.00,2232.55 1271.00,2241.31 1271.00,2241.31
             1271.00,2241.31 1258.00,2245.46 1258.00,2245.46
             1258.00,2245.46 1226.00,2259.69 1226.00,2259.69
             1226.00,2259.69 1202.00,2270.60 1202.00,2270.60
             1193.83,2274.68 1185.57,2278.76 1178.00,2283.89
             1172.99,2287.28 1168.30,2291.97 1163.00,2294.62
             1154.94,2298.65 1148.76,2296.60 1141.00,2301.39
             1141.00,2301.39 1116.00,2318.63 1116.00,2318.63
             1111.34,2322.09 1106.18,2326.71 1101.00,2329.10
             1101.00,2329.10 1081.00,2335.69 1081.00,2335.69
             1081.00,2335.69 1062.00,2344.14 1062.00,2344.14
             1062.00,2344.14 1047.00,2349.45 1047.00,2349.45
             1047.00,2349.45 1007.00,2370.31 1007.00,2370.31
             1007.00,2370.31 969.00,2392.80 969.00,2392.80
             969.00,2392.80 917.00,2424.05 917.00,2424.05
             917.00,2424.05 892.00,2441.00 892.00,2441.00
             892.00,2441.00 861.00,2460.44 861.00,2460.44
             861.00,2460.44 821.00,2491.10 821.00,2491.10
             821.00,2491.10 803.00,2502.75 803.00,2502.75
             803.00,2502.75 787.00,2514.48 787.00,2514.48
             787.00,2514.48 750.00,2539.43 750.00,2539.43
             750.00,2539.43 731.00,2552.92 731.00,2552.92
             731.00,2552.92 704.00,2569.89 704.00,2569.89
             704.00,2569.89 693.00,2578.34 693.00,2578.34
             693.00,2578.34 683.00,2585.16 683.00,2585.16
             683.00,2585.16 673.00,2593.10 673.00,2593.10
             673.00,2593.10 658.00,2604.18 658.00,2604.18
             658.00,2604.18 648.00,2613.91 648.00,2613.91
             648.00,2613.91 632.00,2628.04 632.00,2628.04
             632.00,2628.04 619.83,2640.91 619.83,2640.91
             619.83,2640.91 609.81,2649.37 609.81,2649.37
             609.81,2649.37 606.37,2655.00 606.37,2655.00
             606.37,2655.00 588.83,2678.96 588.83,2678.96
             582.45,2685.70 574.60,2686.79 569.39,2693.04
             569.39,2693.04 562.40,2704.00 562.40,2704.00
             562.40,2704.00 552.07,2717.00 552.07,2717.00
             549.63,2721.15 549.16,2724.47 545.61,2729.00
             545.61,2729.00 535.44,2740.00 535.44,2740.00
             535.44,2740.00 521.39,2758.00 521.39,2758.00
             518.14,2762.00 513.24,2767.48 511.00,2772.00
             507.20,2779.64 508.58,2788.76 506.49,2797.00
             506.49,2797.00 494.22,2825.00 494.22,2825.00
             494.22,2825.00 485.31,2842.00 485.31,2842.00
             485.31,2842.00 463.96,2892.00 463.96,2892.00
             463.96,2892.00 453.45,2913.00 453.45,2913.00
             453.45,2913.00 449.65,2926.00 449.65,2926.00
             449.65,2926.00 442.43,2941.00 442.43,2941.00
             442.43,2941.00 431.57,2968.00 431.57,2968.00
             431.57,2968.00 425.92,2980.00 425.92,2980.00
             425.92,2980.00 422.91,2989.00 422.91,2989.00
             422.91,2989.00 418.47,2998.00 418.47,2998.00
             418.47,2998.00 415.00,3009.00 415.00,3009.00
             415.00,3009.00 403.58,3042.00 403.58,3042.00
             403.58,3042.00 393.05,3069.00 393.05,3069.00
             393.05,3069.00 383.31,3097.00 383.31,3097.00
             383.31,3097.00 379.10,3107.00 379.10,3107.00
             379.10,3107.00 376.85,3116.00 376.85,3116.00
             376.85,3116.00 371.31,3134.00 371.31,3134.00
             371.31,3134.00 366.13,3148.00 366.13,3148.00
             366.13,3148.00 361.21,3159.00 361.21,3159.00
             361.21,3159.00 355.28,3180.00 355.28,3180.00
             355.28,3180.00 343.33,3217.00 343.33,3217.00
             343.33,3217.00 330.75,3251.00 330.75,3251.00
             330.75,3251.00 326.85,3266.00 326.85,3266.00
             326.85,3266.00 321.04,3284.00 321.04,3284.00
             321.04,3284.00 318.96,3293.00 318.96,3293.00
             318.96,3293.00 310.02,3321.00 310.02,3321.00
             310.02,3321.00 302.09,3350.00 302.09,3350.00
             302.09,3350.00 299.04,3359.00 299.04,3359.00
             299.04,3359.00 293.83,3381.00 293.83,3381.00
             293.83,3381.00 289.55,3391.00 289.55,3391.00
             289.55,3391.00 286.96,3404.00 286.96,3404.00
             286.96,3404.00 280.02,3425.00 280.02,3425.00
             280.02,3425.00 276.33,3438.00 276.33,3438.00
             276.33,3438.00 272.30,3449.00 272.30,3449.00
             272.30,3449.00 265.08,3478.00 265.08,3478.00
             265.08,3478.00 257.90,3501.00 257.90,3501.00
             257.90,3501.00 254.22,3522.00 254.22,3522.00
             254.22,3522.00 250.57,3532.00 250.57,3532.00
             250.57,3532.00 247.90,3543.00 247.90,3543.00
             247.90,3543.00 243.43,3555.00 243.43,3555.00
             243.43,3555.00 240.12,3569.00 240.12,3569.00
             240.12,3569.00 236.45,3583.00 236.45,3583.00
             236.45,3583.00 232.79,3604.00 232.79,3604.00
             232.79,3604.00 224.89,3634.00 224.89,3634.00
             224.89,3634.00 221.96,3650.00 221.96,3650.00
             221.96,3650.00 216.65,3668.00 216.65,3668.00
             216.65,3668.00 212.54,3693.00 212.54,3693.00
             212.54,3693.00 208.66,3710.00 208.66,3710.00
             208.66,3710.00 207.10,3719.00 207.10,3719.00
             207.10,3719.00 204.38,3728.00 204.38,3728.00
             204.38,3728.00 202.20,3743.00 202.20,3743.00
             202.20,3743.00 193.29,3788.00 193.29,3788.00
             193.29,3788.00 192.71,3801.00 192.71,3801.00
             192.71,3801.00 179.42,3859.00 179.42,3859.00
             179.42,3859.00 176.29,3875.00 176.29,3875.00
             176.29,3875.00 175.68,3882.00 175.68,3882.00
             175.68,3882.00 173.46,3891.00 173.46,3891.00
             173.46,3891.00 172.39,3901.00 172.39,3901.00
             172.39,3901.00 168.44,3920.00 168.44,3920.00
             168.44,3920.00 167.83,3930.00 167.83,3930.00
             167.83,3930.00 164.84,3955.00 164.84,3955.00
             164.84,3955.00 160.00,3997.00 160.00,3997.00
             159.93,4003.51 160.53,4019.68 159.32,4025.00
             158.10,4030.40 155.69,4034.04 153.61,4039.00
             153.61,4039.00 147.09,4056.00 147.09,4056.00
             147.09,4056.00 142.84,4064.00 142.84,4064.00
             139.44,4072.63 144.15,4073.15 139.21,4084.00
             139.21,4084.00 132.08,4098.00 132.08,4098.00
             132.08,4098.00 126.98,4106.00 126.98,4106.00
             126.98,4106.00 121.19,4121.00 121.19,4121.00
             117.41,4130.99 112.13,4145.44 112.00,4156.00
             111.83,4170.64 112.43,4172.53 117.99,4186.00
             120.29,4191.58 121.02,4194.26 125.18,4199.00
             132.09,4206.87 142.81,4213.14 151.00,4220.28
             151.00,4220.28 181.00,4246.11 181.00,4246.11
             181.00,4246.11 243.00,4284.99 243.00,4284.99
             243.00,4284.99 257.00,4292.31 257.00,4292.31
             257.00,4292.31 282.00,4305.75 282.00,4305.75
             287.89,4308.68 295.58,4310.70 298.84,4317.00
             300.72,4321.14 298.94,4332.41 298.84,4338.00
             299.22,4356.26 308.22,4364.55 312.11,4380.00
             312.11,4380.00 317.66,4406.00 317.66,4406.00
             317.66,4406.00 317.04,4417.00 317.04,4417.00
             317.04,4417.00 320.00,4441.00 320.00,4441.00
             320.00,4441.00 870.00,4441.00 870.00,4441.00
             870.00,4441.00 875.90,4405.00 875.90,4405.00
             876.35,4394.72 870.97,4390.96 876.80,4380.00
             883.82,4366.79 897.40,4358.87 907.96,4348.83
             910.60,4346.32 925.36,4325.66 927.53,4322.00
             932.85,4313.00 932.96,4302.57 935.93,4295.00
             935.93,4295.00 942.30,4281.00 942.30,4281.00
             942.30,4281.00 951.67,4249.00 951.67,4249.00
             951.67,4249.00 960.11,4225.00 960.11,4225.00
             960.11,4225.00 965.57,4200.00 965.57,4200.00
             965.57,4200.00 969.26,4190.00 969.26,4190.00
             969.26,4190.00 973.08,4177.00 973.08,4177.00
             973.08,4177.00 976.24,4168.00 976.24,4168.00
             977.48,4163.16 976.91,4150.25 982.13,4148.17
             987.02,4146.21 991.28,4155.67 993.14,4159.00
             993.14,4159.00 1009.45,4187.00 1009.45,4187.00
             1012.39,4191.90 1016.42,4196.96 1016.03,4203.00
             1016.03,4203.00 1011.46,4221.00 1011.46,4221.00
             1011.46,4221.00 1010.72,4233.00 1010.72,4233.00
             1009.11,4246.52 1007.84,4251.87 1008.00,4266.00
             1008.00,4266.00 1009.00,4280.00 1009.00,4280.00
             1009.00,4280.00 1010.96,4311.00 1010.96,4311.00
             1010.96,4311.00 1010.04,4323.00 1010.04,4323.00
             1010.04,4323.00 1010.96,4335.00 1010.96,4335.00
             1010.96,4335.00 1010.04,4347.00 1010.04,4347.00
             1010.04,4347.00 1011.00,4365.00 1011.00,4365.00
             1011.00,4365.00 1012.00,4381.00 1012.00,4381.00
             1012.00,4381.00 1013.96,4409.00 1013.96,4409.00
             1014.39,4420.11 1008.92,4430.11 1008.00,4441.00
             1008.00,4441.00 3602.00,4441.00 3602.00,4441.00
             3602.00,4441.00 3602.00,2846.00 3602.00,2846.00
             3601.98,2831.86 3597.40,2827.91 3591.26,2816.00
             3591.26,2816.00 3566.36,2771.00 3566.36,2771.00
             3566.36,2771.00 3544.55,2728.00 3544.55,2728.00
             3544.55,2728.00 3537.45,2717.00 3537.45,2717.00
             3537.45,2717.00 3518.58,2684.00 3518.58,2684.00
             3518.58,2684.00 3501.56,2657.00 3501.56,2657.00
             3499.17,2652.21 3500.34,2648.10 3499.83,2643.00
             3499.15,2636.17 3495.24,2619.69 3491.79,2614.00
             3486.07,2604.57 3476.42,2598.51 3468.00,2591.88
             3460.34,2585.84 3442.38,2569.27 3436.47,2562.00
             3436.47,2562.00 3429.47,2552.00 3429.47,2552.00
             3429.47,2552.00 3421.46,2543.00 3421.46,2543.00
             3421.46,2543.00 3411.55,2530.00 3411.55,2530.00
             3411.55,2530.00 3394.08,2509.00 3394.08,2509.00
             3394.08,2509.00 3369.72,2480.17 3369.72,2480.17
             3369.72,2480.17 3359.29,2471.68 3359.29,2471.68
             3359.29,2471.68 3348.96,2460.30 3348.96,2460.30
             3348.96,2460.30 3331.00,2446.54 3331.00,2446.54
             3331.00,2446.54 3314.00,2432.68 3314.00,2432.68
             3314.00,2432.68 3306.00,2425.76 3306.00,2425.76
             3306.00,2425.76 3270.00,2403.09 3270.00,2403.09
             3270.00,2403.09 3258.00,2394.55 3258.00,2394.55
             3258.00,2394.55 3243.00,2385.31 3243.00,2385.31
             3243.00,2385.31 3234.00,2380.37 3234.00,2380.37
             3234.00,2380.37 3220.00,2369.10 3220.00,2369.10
             3220.00,2369.10 3200.00,2357.07 3200.00,2357.07
             3200.00,2357.07 3189.00,2348.37 3189.00,2348.37
             3189.00,2348.37 3176.00,2339.12 3176.00,2339.12
             3176.00,2339.12 3164.00,2330.09 3164.00,2330.09
             3164.00,2330.09 3135.00,2313.32 3135.00,2313.32
             3126.98,2309.11 3111.51,2302.15 3103.00,2299.23
             3103.00,2299.23 3090.00,2295.78 3090.00,2295.78
             3090.00,2295.78 3078.00,2289.45 3078.00,2289.45
             3078.00,2289.45 3052.00,2280.31 3052.00,2280.31
             3052.00,2280.31 3030.00,2271.69 3030.00,2271.69
             3030.00,2271.69 2996.00,2259.67 2996.00,2259.67
             2990.82,2257.20 2988.47,2254.38 2984.00,2251.56
             2984.00,2251.56 2969.00,2244.40 2969.00,2244.40
             2969.00,2244.40 2957.00,2237.41 2957.00,2237.41
             2952.20,2235.25 2950.05,2236.69 2944.00,2234.96
             2935.45,2232.52 2920.03,2225.88 2912.00,2221.74
             2912.00,2221.74 2871.00,2200.25 2871.00,2200.25
             2871.00,2200.25 2851.00,2191.02 2851.00,2191.02
             2851.00,2191.02 2834.00,2180.53 2834.00,2180.53
             2834.00,2180.53 2816.00,2174.92 2816.00,2174.92
             2791.52,2166.50 2765.01,2159.30 2739.00,2159.00
             2730.99,2158.90 2722.03,2155.49 2714.00,2153.65
             2714.00,2153.65 2674.00,2143.49 2674.00,2143.49
             2674.00,2143.49 2633.00,2128.04 2633.00,2128.04
             2619.55,2124.05 2613.28,2125.99 2604.00,2123.99
             2604.00,2123.99 2590.00,2119.89 2590.00,2119.89
             2590.00,2119.89 2573.00,2115.96 2573.00,2115.96
             2573.00,2115.96 2553.00,2109.48 2553.00,2109.48
             2553.00,2109.48 2535.00,2106.89 2535.00,2106.89
             2525.07,2103.42 2522.82,2093.67 2514.99,2087.39
             2507.92,2081.72 2486.27,2076.03 2477.00,2075.32
             2468.72,2074.69 2461.07,2079.80 2453.00,2076.52
             2438.95,2070.80 2437.32,2054.58 2432.58,2042.00
             2429.54,2033.96 2426.22,2028.98 2426.01,2020.00
             2425.90,2014.95 2426.29,2008.40 2429.14,2004.09
             2432.70,1998.72 2439.31,1996.36 2442.78,1992.79
             2447.22,1988.22 2452.48,1974.34 2452.00,1968.00
             2467.70,1968.05 2468.38,1973.29 2485.00,1966.00
             2479.15,1958.09 2475.09,1959.52 2467.00,1955.36
             2455.31,1949.35 2428.28,1936.73 2416.00,1935.00
             2414.79,1930.75 2407.74,1931.14 2404.00,1930.39
             2397.72,1929.13 2383.43,1922.81 2379.42,1917.91
             2371.48,1908.21 2379.57,1899.96 2379.96,1891.00
             2380.49,1878.96 2375.37,1875.76 2373.65,1870.00
             2372.72,1866.93 2373.00,1860.46 2373.00,1857.00
             2373.00,1857.00 2370.00,1858.00 2370.00,1858.00
             2370.00,1858.00 2368.00,1846.00 2368.00,1846.00
             2368.00,1846.00 2373.00,1846.00 2373.00,1846.00
             2373.00,1846.00 2365.86,1832.00 2365.86,1832.00
             2365.86,1832.00 2360.76,1817.00 2360.76,1817.00
             2360.76,1817.00 2357.90,1810.00 2357.90,1810.00
             2357.90,1810.00 2357.90,1797.00 2357.90,1797.00
             2357.90,1797.00 2368.00,1795.00 2368.00,1795.00
             2368.00,1795.00 2354.65,1769.00 2354.65,1769.00
             2351.85,1762.37 2349.96,1762.45 2352.00,1755.00
             2352.00,1755.00 2349.00,1754.00 2349.00,1754.00
             2349.00,1754.00 2352.00,1747.00 2352.00,1747.00
             2352.00,1747.00 2355.00,1748.00 2355.00,1748.00
             2355.22,1744.77 2355.68,1744.01 2353.00,1742.00
             2353.00,1742.00 2356.00,1738.00 2356.00,1738.00
             2356.00,1738.00 2358.00,1742.00 2358.00,1742.00
             2362.34,1734.15 2363.12,1730.54 2360.00,1722.00
             2362.57,1720.88 2365.44,1719.81 2367.30,1717.61
             2370.01,1714.41 2370.90,1700.54 2371.03,1696.00
             2370.94,1692.42 2370.05,1690.74 2371.03,1687.00
             2373.20,1679.91 2382.05,1668.34 2386.00,1660.00
             2386.00,1660.00 2388.00,1664.00 2388.00,1664.00
             2388.00,1664.00 2410.00,1647.33 2410.00,1647.33
             2410.00,1647.33 2418.00,1642.59 2418.00,1642.59
             2418.00,1642.59 2425.00,1636.46 2425.00,1636.46
             2425.00,1636.46 2445.00,1619.17 2445.00,1619.17
             2445.00,1619.17 2462.82,1602.99 2462.82,1602.99
             2462.82,1602.99 2475.75,1584.00 2475.75,1584.00
             2480.83,1577.09 2490.30,1568.81 2493.07,1562.00
             2493.07,1562.00 2497.03,1548.00 2497.03,1548.00
             2499.84,1539.11 2503.36,1528.36 2503.91,1519.00
             2504.25,1513.10 2502.40,1509.35 2502.09,1504.00
             2501.85,1499.76 2502.65,1497.85 2502.96,1494.00
             2502.96,1494.00 2502.96,1482.00 2502.96,1482.00
             2503.02,1466.39 2507.39,1465.71 2509.65,1457.00
             2509.65,1457.00 2515.03,1431.00 2515.03,1431.00
             2515.03,1431.00 2523.57,1411.00 2523.57,1411.00
             2523.57,1411.00 2542.87,1366.00 2542.87,1366.00
             2545.64,1359.69 2547.71,1357.93 2550.25,1350.00
             2550.25,1350.00 2554.31,1332.00 2554.31,1332.00
             2556.04,1323.50 2558.89,1325.91 2559.00,1314.00
             2559.00,1314.00 2555.00,1314.00 2555.00,1314.00
             2554.52,1303.48 2552.35,1301.94 2557.00,1291.00
             2559.42,1299.38 2559.00,1300.50 2559.00,1309.00
             2564.03,1305.68 2564.76,1304.07 2571.00,1304.00
             2571.00,1304.00 2568.00,1293.00 2568.00,1293.00
             2568.00,1293.00 2564.00,1296.00 2564.00,1296.00
             2564.00,1290.96 2564.39,1283.71 2563.25,1279.00
             2559.49,1263.34 2551.90,1256.60 2551.00,1237.00
             2551.00,1237.00 2554.00,1238.00 2554.00,1238.00
             2552.41,1226.75 2550.28,1226.94 2547.00,1218.00
             2547.00,1218.00 2551.00,1221.00 2551.00,1221.00
             2551.00,1221.00 2549.00,1216.00 2549.00,1216.00
             2556.74,1222.20 2558.41,1237.94 2570.00,1237.00
             2570.00,1237.00 2576.66,1252.00 2576.66,1252.00
             2580.71,1263.57 2581.34,1274.19 2592.00,1282.00
             2592.00,1282.00 2585.76,1254.00 2585.76,1254.00
             2585.76,1254.00 2572.10,1223.00 2572.10,1223.00
             2572.10,1223.00 2570.00,1213.00 2570.00,1213.00
             2568.03,1213.84 2562.98,1215.87 2561.04,1215.61
             2557.15,1215.09 2553.08,1208.09 2551.00,1205.00
             2551.00,1205.00 2564.00,1213.00 2564.00,1213.00
             2562.70,1206.64 2562.13,1205.11 2558.00,1200.00
             2558.00,1200.00 2559.00,1199.00 2559.00,1199.00
             2559.00,1199.00 2566.00,1204.00 2566.00,1204.00
             2562.39,1197.33 2560.67,1197.54 2555.00,1193.40
             2553.14,1192.04 2550.98,1190.01 2549.00,1189.01
             2544.25,1186.64 2545.08,1189.58 2538.00,1184.00
             2538.00,1184.00 2547.00,1185.00 2547.00,1185.00
             2543.44,1177.62 2535.75,1165.74 2529.96,1160.09
             2524.45,1154.71 2515.13,1149.04 2512.03,1142.00
             2509.70,1136.47 2511.97,1127.21 2512.03,1121.00
             2512.03,1121.00 2512.03,1097.00 2512.03,1097.00
             2511.97,1079.06 2506.12,1067.57 2505.36,1061.00
             2504.72,1055.39 2508.56,1050.19 2507.78,1044.00
             2507.11,1038.75 2503.15,1035.34 2503.00,1023.00
             2503.00,1023.00 2503.00,1012.00 2503.00,1012.00
             2503.00,1012.00 2497.54,964.00 2497.54,964.00
             2497.54,964.00 2493.88,948.00 2493.88,948.00
             2493.88,948.00 2488.33,924.00 2488.33,924.00
             2485.63,915.82 2483.65,913.29 2480.31,906.00
             2480.31,906.00 2467.08,875.00 2467.08,875.00
             2467.08,875.00 2458.58,844.00 2458.58,844.00
             2458.58,844.00 2436.55,780.00 2436.55,780.00
             2436.55,780.00 2426.25,759.00 2426.25,759.00
             2426.25,759.00 2419.63,744.00 2419.63,744.00
             2419.63,744.00 2396.19,704.00 2396.19,704.00
             2396.19,704.00 2384.45,686.00 2384.45,686.00
             2384.45,686.00 2378.52,674.00 2378.52,674.00
             2378.52,674.00 2362.69,643.00 2362.69,643.00
             2362.69,643.00 2356.31,632.00 2356.31,632.00
             2356.31,632.00 2348.45,617.00 2348.45,617.00
             2341.55,606.26 2325.59,589.84 2316.00,581.17
             2286.52,554.51 2257.78,538.74 2222.00,522.31
             2222.00,522.31 2189.00,508.14 2189.00,508.14
             2189.00,508.14 2167.00,496.31 2167.00,496.31
             2167.00,496.31 2151.00,488.69 2151.00,488.69
             2151.00,488.69 2141.00,484.22 2141.00,484.22
             2141.00,484.22 2096.00,474.30 2096.00,474.30
             2084.20,472.62 2088.01,475.27 2072.00,470.58
             2072.00,470.58 2018.00,451.75 2018.00,451.75
             2018.00,451.75 1995.00,447.55 1995.00,447.55
             1995.00,447.55 1975.00,443.17 1975.00,443.17
             1975.00,443.17 1947.00,440.70 1947.00,440.70
             1947.00,440.70 1928.00,436.44 1928.00,436.44
             1928.00,436.44 1901.00,434.83 1901.00,434.83
             1889.39,433.67 1887.84,431.84 1874.00,432.00
             1859.08,432.18 1838.07,437.13 1825.00,444.31
             1815.98,449.26 1810.22,455.54 1800.00,459.54
             1788.47,464.05 1777.37,462.50 1767.00,465.43
             1759.03,467.67 1756.44,470.09 1750.00,472.53
             1744.44,474.64 1742.65,473.40 1738.00,475.21
             1738.00,475.21 1711.00,488.57 1711.00,488.57
             1711.00,488.57 1673.00,502.08 1673.00,502.08
             1673.00,502.08 1648.00,511.65 1648.00,511.65
             1648.00,511.65 1627.00,517.91 1627.00,517.91
             1627.00,517.91 1597.00,530.61 1597.00,530.61
             1569.91,544.15 1533.03,568.54 1511.00,589.09
             1503.61,595.99 1482.89,619.62 1477.22,628.00
             1477.22,628.00 1469.40,642.00 1469.40,642.00
             1469.40,642.00 1459.43,658.00 1459.43,658.00
             1451.84,671.25 1443.34,690.58 1438.05,705.00
             1438.05,705.00 1419.31,765.00 1419.31,765.00
             1419.31,765.00 1410.31,784.00 1410.31,784.00
             1410.31,784.00 1405.69,795.00 1405.69,795.00
             1405.69,795.00 1390.20,829.00 1390.20,829.00
             1390.20,829.00 1384.57,847.00 1384.57,847.00
             1384.57,847.00 1379.72,861.00 1379.72,861.00
             1379.72,861.00 1374.57,881.00 1374.57,881.00
             1374.57,881.00 1368.77,898.00 1368.77,898.00
             1368.77,898.00 1363.11,922.00 1363.11,922.00
             1363.11,922.00 1357.51,942.00 1357.51,942.00
             1357.51,942.00 1355.72,955.00 1355.72,955.00
             1355.72,955.00 1352.75,973.00 1352.75,973.00
             1350.59,985.96 1347.02,1006.29 1347.00,1019.00
             1347.00,1019.00 1347.00,1049.00 1347.00,1049.00
             1347.00,1049.00 1346.00,1067.00 1346.00,1067.00
             1346.00,1067.00 1346.96,1082.00 1346.96,1082.00
             1346.96,1082.00 1345.00,1106.00 1345.00,1106.00
             1344.83,1121.14 1347.61,1150.15 1350.46,1165.00
             1351.98,1172.93 1357.87,1183.39 1355.30,1191.00
             1353.77,1195.55 1341.65,1210.07 1337.91,1213.99
             1337.91,1213.99 1331.23,1220.28 1331.23,1220.28
             1327.22,1224.59 1328.88,1226.45 1325.57,1231.00
             1325.57,1231.00 1320.30,1237.00 1320.30,1237.00
             1311.79,1246.98 1307.80,1250.83 1297.00,1258.57
             1291.21,1262.73 1273.86,1273.24 1280.00,1282.00 Z
           M 2551.00,1204.00
           C 2551.00,1204.00 2551.00,1205.00 2551.00,1205.00
             2551.00,1205.00 2550.00,1204.00 2550.00,1204.00
             2550.00,1204.00 2551.00,1204.00 2551.00,1204.00 Z
           M 1287.00,1284.00
           C 1287.00,1284.00 1281.00,1289.00 1281.00,1289.00
             1281.00,1289.00 1280.00,1283.00 1280.00,1283.00
             1280.00,1283.00 1287.00,1284.00 1287.00,1284.00 Z
           M 2560.00,1315.00
           C 2560.00,1315.00 2560.00,1316.00 2560.00,1316.00
             2560.00,1316.00 2561.00,1315.00 2561.00,1315.00
             2561.00,1315.00 2560.00,1315.00 2560.00,1315.00 Z
           M 1298.00,1475.00
           C 1298.21,1484.46 1301.40,1485.95 1296.00,1491.00
             1294.93,1485.01 1293.74,1480.01 1298.00,1475.00 Z
           M 2359.00,1725.00
           C 2359.00,1725.00 2358.00,1730.00 2358.00,1730.00
             2358.00,1730.00 2359.00,1725.00 2359.00,1725.00 Z" />
</svg>
