<?xml version="1.0" encoding="UTF-8" standalone="no"?>
<!DOCTYPE svg PUBLIC "-//W3C//DTD SVG 20010904//EN"
              "http://www.w3.org/TR/2001/REC-SVG-20010904/DTD/svg10.dtd">

<svg xmlns="http://www.w3.org/2000/svg"
     width="12.7367in" height="12.95in"
     viewBox="0 0 3821 3885">
  <path id="face"
        fill="none" stroke="black" stroke-width="1"
        d="M 1729.00,543.00
           C 1717.98,543.10 1713.26,547.29 1704.00,552.11
             1699.61,554.40 1699.12,553.77 1695.83,555.06
             1695.83,555.06 1680.00,562.39 1680.00,562.39
             1674.81,565.05 1664.60,571.81 1660.00,573.00
             1660.00,573.00 1663.00,574.00 1663.00,574.00
             1663.00,574.00 1644.91,583.01 1644.91,583.01
             1644.91,583.01 1635.00,585.35 1635.00,585.35
             1633.12,585.93 1626.34,587.43 1628.00,590.00
             1624.32,591.12 1619.60,590.98 1617.00,594.00
             1611.83,593.86 1611.31,595.43 1607.00,597.58
             1607.00,597.58 1590.00,605.00 1590.00,605.00
             1588.88,608.67 1585.25,609.41 1582.00,611.18
             1582.00,611.18 1559.00,623.00 1559.00,623.00
             1557.40,627.25 1553.31,624.33 1552.00,632.00
             1546.44,632.73 1542.69,634.32 1541.00,640.00
             1539.57,640.25 1538.72,640.17 1537.38,641.02
             1537.38,641.02 1521.05,660.83 1521.05,660.83
             1521.05,660.83 1513.44,668.13 1513.44,668.13
             1513.44,668.13 1502.46,681.59 1502.46,681.59
             1502.46,681.59 1494.21,690.00 1494.21,690.00
             1494.21,690.00 1487.79,698.83 1487.79,698.83
             1481.04,706.07 1473.27,713.39 1468.42,722.17
             1468.42,722.17 1464.69,730.99 1464.69,730.99
             1463.29,734.03 1461.60,735.66 1461.00,739.00
             1461.00,739.00 1455.00,742.00 1455.00,742.00
             1455.00,742.00 1455.00,751.00 1455.00,751.00
             1455.00,751.00 1454.00,745.00 1454.00,745.00
             1454.00,745.00 1448.14,757.00 1448.14,757.00
             1448.14,757.00 1442.46,766.55 1442.46,766.55
             1442.46,766.55 1437.48,772.05 1437.48,772.05
             1437.48,772.05 1431.09,783.00 1431.09,783.00
             1431.09,783.00 1425.07,794.55 1425.07,794.55
             1425.07,794.55 1426.00,796.00 1426.00,796.00
             1422.35,801.72 1414.60,807.67 1417.00,815.00
             1410.85,817.35 1410.81,822.35 1408.56,827.96
             1408.56,827.96 1405.25,834.17 1405.25,834.17
             1402.64,839.52 1397.70,854.19 1398.00,860.00
             1398.00,860.00 1395.00,860.00 1395.00,860.00
             1395.00,860.00 1395.00,863.00 1395.00,863.00
             1395.00,863.00 1398.00,863.00 1398.00,863.00
             1391.67,865.41 1391.27,867.35 1393.00,874.00
             1389.98,876.08 1389.60,879.60 1388.32,883.01
             1387.04,886.44 1384.91,891.35 1384.84,894.96
             1384.77,898.21 1386.09,899.00 1386.40,902.08
             1386.80,906.10 1385.78,910.11 1385.00,914.00
             1385.00,914.00 1384.00,911.00 1384.00,911.00
             1384.00,911.00 1383.07,920.00 1383.07,920.00
             1383.07,920.00 1383.07,943.00 1383.07,943.00
             1383.07,943.00 1381.00,939.00 1381.00,939.00
             1380.04,941.61 1379.89,942.11 1382.00,944.00
             1382.00,944.00 1379.00,952.00 1379.00,952.00
             1379.00,952.00 1381.00,956.00 1381.00,956.00
             1381.00,956.00 1377.00,956.00 1377.00,956.00
             1377.00,956.00 1377.00,962.00 1377.00,962.00
             1377.00,962.00 1378.00,958.00 1378.00,958.00
             1378.00,958.00 1379.75,958.00 1379.75,958.00
             1379.75,958.00 1379.75,965.83 1379.75,965.83
             1379.75,965.83 1377.94,970.55 1377.94,970.55
             1377.94,970.55 1379.00,972.00 1379.00,972.00
             1373.92,980.59 1376.11,994.17 1376.00,1004.00
             1376.00,1004.00 1376.00,1029.00 1376.00,1029.00
             1376.00,1029.00 1376.96,1043.00 1376.96,1043.00
             1376.96,1043.00 1376.04,1052.00 1376.04,1052.00
             1375.82,1057.66 1376.79,1059.45 1376.92,1061.72
             1376.94,1065.99 1375.23,1064.63 1376.92,1072.00
             1373.11,1075.49 1376.39,1082.83 1376.24,1087.66
             1376.24,1087.66 1374.00,1125.00 1374.00,1125.00
             1374.00,1125.00 1375.72,1144.00 1375.72,1144.00
             1376.65,1149.40 1378.17,1149.08 1377.98,1157.00
             1377.79,1165.15 1371.62,1171.96 1373.00,1182.00
             1368.77,1184.08 1368.38,1184.28 1368.00,1189.00
             1368.00,1189.00 1367.00,1187.00 1367.00,1187.00
             1364.82,1192.27 1364.29,1196.40 1364.68,1202.00
             1365.18,1209.26 1362.74,1213.68 1361.48,1220.00
             1361.48,1220.00 1359.89,1232.00 1359.89,1232.00
             1362.49,1236.51 1360.45,1243.03 1359.89,1248.00
             1359.89,1248.00 1359.89,1255.96 1359.89,1255.96
             1359.89,1255.96 1358.59,1262.17 1358.59,1262.17
             1358.59,1262.17 1358.59,1272.00 1358.59,1272.00
             1358.59,1272.00 1360.00,1281.00 1360.00,1281.00
             1360.00,1281.00 1358.00,1279.00 1358.00,1279.00
             1358.00,1279.00 1358.00,1278.00 1358.00,1278.00
             1358.00,1278.00 1356.00,1287.00 1356.00,1287.00
             1356.00,1287.00 1352.00,1282.00 1352.00,1282.00
             1352.00,1282.00 1355.00,1281.00 1355.00,1281.00
             1355.00,1281.00 1352.00,1277.00 1352.00,1277.00
             1343.53,1281.62 1345.47,1278.16 1339.00,1279.40
             1335.07,1280.16 1325.07,1285.42 1322.26,1288.26
             1320.12,1290.41 1312.73,1305.07 1311.98,1308.00
             1310.56,1313.57 1312.85,1312.96 1309.00,1319.00
             1310.74,1322.43 1312.39,1332.30 1308.00,1334.00
             1308.00,1334.00 1310.00,1336.00 1310.00,1336.00
             1310.00,1336.00 1306.00,1336.00 1306.00,1336.00
             1306.00,1336.00 1307.07,1346.28 1307.07,1346.28
             1307.07,1346.28 1306.00,1362.00 1306.00,1362.00
             1306.00,1362.00 1303.00,1360.00 1303.00,1360.00
             1301.43,1364.83 1299.04,1372.68 1303.77,1376.00
             1303.13,1379.60 1302.13,1395.42 1303.77,1398.46
             1304.14,1399.74 1304.46,1399.51 1305.00,1400.00
             1303.56,1405.68 1306.63,1414.28 1308.20,1420.00
             1312.36,1435.19 1311.09,1437.70 1318.18,1453.00
             1321.14,1459.39 1325.92,1463.53 1327.33,1467.07
             1328.85,1470.93 1327.95,1473.49 1328.17,1477.09
             1328.17,1477.09 1329.23,1484.00 1329.23,1484.00
             1329.23,1484.00 1329.23,1496.00 1329.23,1496.00
             1329.23,1496.00 1335.00,1496.00 1335.00,1496.00
             1335.00,1496.00 1337.68,1515.00 1337.68,1515.00
             1337.68,1515.00 1337.68,1524.00 1337.68,1524.00
             1337.68,1524.00 1343.16,1538.17 1343.16,1538.17
             1343.16,1538.17 1342.22,1550.00 1342.22,1550.00
             1342.22,1550.00 1344.94,1558.28 1344.94,1558.28
             1344.94,1558.28 1344.94,1568.00 1344.94,1568.00
             1344.94,1568.00 1348.00,1568.00 1348.00,1568.00
             1348.79,1573.79 1352.02,1578.40 1352.17,1584.43
             1352.17,1584.43 1353.01,1608.00 1353.01,1608.00
             1352.92,1613.10 1352.44,1621.83 1358.00,1624.00
             1358.00,1624.00 1359.00,1636.00 1359.00,1636.00
             1359.00,1636.00 1363.00,1636.00 1363.00,1636.00
             1359.23,1641.65 1365.17,1638.63 1363.00,1648.00
             1368.18,1652.44 1367.01,1653.71 1369.91,1659.00
             1371.92,1662.66 1378.48,1671.32 1382.09,1673.37
             1384.99,1675.01 1390.57,1676.91 1393.91,1676.95
             1398.04,1676.65 1404.79,1671.95 1411.98,1676.95
             1413.89,1678.48 1415.46,1679.93 1416.44,1682.09
             1416.44,1682.09 1420.11,1696.00 1420.11,1696.00
             1420.11,1696.00 1424.53,1710.00 1424.53,1710.00
             1424.53,1710.00 1424.53,1721.00 1424.53,1721.00
             1425.62,1726.14 1427.54,1727.35 1428.46,1730.17
             1428.46,1730.17 1429.96,1743.00 1429.96,1743.00
             1431.06,1754.27 1430.21,1749.63 1434.05,1760.00
             1435.57,1764.11 1434.67,1766.31 1439.00,1768.00
             1439.38,1774.87 1440.54,1774.21 1441.96,1780.00
             1443.92,1787.98 1442.31,1794.21 1451.00,1799.00
             1449.45,1807.55 1458.03,1823.00 1461.69,1831.00
             1461.69,1831.00 1475.25,1861.00 1475.25,1861.00
             1475.25,1861.00 1499.58,1902.00 1499.58,1902.00
             1499.58,1902.00 1510.57,1920.00 1510.57,1920.00
             1510.57,1920.00 1538.92,1955.00 1538.92,1955.00
             1538.92,1955.00 1556.17,1975.68 1556.17,1975.68
             1556.17,1975.68 1581.00,1993.42 1581.00,1993.42
             1581.00,1993.42 1622.00,2022.10 1622.00,2022.10
             1622.00,2022.10 1679.00,2047.28 1679.00,2047.28
             1679.00,2047.28 1711.00,2061.30 1711.00,2061.30
             1711.00,2061.30 1734.00,2071.07 1734.00,2071.07
             1734.00,2071.07 1773.00,2076.42 1773.00,2076.42
             1773.00,2076.42 1866.00,2088.72 1866.00,2088.72
             1866.00,2088.72 1883.00,2090.82 1883.00,2090.82
             1883.00,2090.82 1890.00,2090.09 1890.00,2090.09
             1890.00,2090.09 1914.00,2088.04 1914.00,2088.04
             1914.00,2088.04 1922.00,2088.04 1922.00,2088.04
             1922.00,2088.04 1953.00,2085.17 1953.00,2085.17
             1953.00,2085.17 2017.00,2079.91 2017.00,2079.91
             2017.00,2079.91 2072.00,2062.67 2072.00,2062.67
             2072.00,2062.67 2134.00,2042.82 2134.00,2042.82
             2134.00,2042.82 2174.00,2015.42 2174.00,2015.42
             2174.00,2015.42 2218.91,1983.68 2218.91,1983.68
             2222.15,1980.76 2230.79,1969.10 2233.87,1965.00
             2233.87,1965.00 2258.88,1932.00 2258.88,1932.00
             2258.88,1932.00 2300.45,1877.00 2300.45,1877.00
             2300.45,1877.00 2319.31,1842.00 2319.31,1842.00
             2319.31,1842.00 2336.31,1810.00 2336.31,1810.00
             2336.31,1810.00 2348.73,1787.00 2348.73,1787.00
             2348.73,1787.00 2360.72,1749.00 2360.72,1749.00
             2360.72,1749.00 2380.12,1684.00 2380.12,1684.00
             2380.12,1684.00 2382.12,1676.00 2382.12,1676.00
             2382.76,1670.66 2381.49,1662.28 2383.74,1657.11
             2386.94,1649.73 2396.05,1655.00 2407.00,1651.37
             2407.00,1651.37 2417.69,1646.98 2417.69,1646.98
             2417.69,1646.98 2422.90,1641.83 2422.90,1641.83
             2424.89,1640.45 2426.53,1641.10 2428.63,1639.39
             2433.72,1635.25 2438.11,1622.53 2439.00,1616.00
             2439.00,1616.00 2433.00,1616.00 2433.00,1616.00
             2433.00,1616.00 2435.13,1608.43 2435.13,1608.43
             2435.13,1608.43 2438.24,1602.01 2438.24,1602.01
             2438.24,1602.01 2437.00,1600.00 2437.00,1600.00
             2438.39,1597.00 2439.43,1594.49 2438.70,1591.09
             2438.02,1587.91 2435.13,1586.60 2438.00,1584.00
             2438.00,1584.00 2444.43,1569.59 2444.43,1569.59
             2444.43,1569.59 2448.00,1568.00 2448.00,1568.00
             2448.42,1560.74 2449.47,1562.64 2451.17,1557.83
             2451.17,1557.83 2455.88,1540.00 2455.88,1540.00
             2457.63,1531.56 2456.55,1529.76 2457.21,1525.00
             2457.21,1525.00 2458.81,1518.00 2458.81,1518.00
             2458.81,1518.00 2462.10,1497.00 2462.10,1497.00
             2462.10,1497.00 2466.32,1487.00 2466.32,1487.00
             2466.32,1487.00 2468.47,1476.00 2468.47,1476.00
             2471.53,1466.53 2476.55,1461.19 2478.17,1457.17
             2478.17,1457.17 2481.44,1441.00 2481.44,1441.00
             2481.44,1441.00 2486.08,1429.00 2486.08,1429.00
             2486.08,1429.00 2488.29,1418.00 2488.29,1418.00
             2490.16,1409.09 2491.94,1406.78 2491.32,1397.00
             2491.32,1397.00 2492.97,1372.58 2492.97,1372.58
             2492.97,1372.58 2492.97,1360.00 2492.97,1360.00
             2492.97,1360.00 2490.17,1333.00 2490.17,1333.00
             2490.17,1333.00 2489.56,1324.00 2489.56,1324.00
             2488.09,1314.70 2485.55,1313.18 2484.77,1308.00
             2483.74,1301.08 2487.92,1289.49 2481.00,1285.00
             2481.00,1285.00 2483.00,1280.00 2483.00,1280.00
             2483.00,1280.00 2467.13,1268.92 2467.13,1268.92
             2467.13,1268.92 2461.74,1264.58 2461.74,1264.58
             2461.74,1264.58 2446.00,1263.00 2446.00,1263.00
             2446.00,1263.00 2443.00,1271.00 2443.00,1271.00
             2443.00,1249.49 2444.40,1258.56 2445.92,1243.00
             2446.55,1239.56 2448.58,1234.74 2445.92,1232.00
             2448.73,1225.08 2446.67,1219.94 2445.92,1213.00
             2445.92,1213.00 2445.92,1205.00 2445.92,1205.00
             2445.92,1205.00 2443.26,1196.00 2443.26,1196.00
             2441.28,1185.45 2443.35,1190.77 2439.13,1179.97
             2439.13,1179.97 2437.54,1175.37 2437.54,1175.37
             2434.80,1169.97 2428.03,1167.89 2424.62,1157.00
             2421.01,1145.45 2426.22,1143.90 2426.39,1130.00
             2426.39,1130.00 2424.03,1116.00 2424.03,1116.00
             2424.03,1116.00 2424.03,1100.00 2424.03,1100.00
             2424.03,1100.00 2424.03,1069.00 2424.03,1069.00
             2424.03,1069.00 2425.95,1048.00 2425.95,1048.00
             2425.95,1048.00 2425.95,1026.99 2425.95,1026.99
             2425.95,1026.99 2424.71,1017.00 2424.71,1017.00
             2424.71,1017.00 2425.41,1005.00 2425.41,1005.00
             2425.41,1005.00 2421.09,976.00 2421.09,976.00
             2421.09,976.00 2420.00,945.00 2420.00,945.00
             2419.90,937.39 2418.83,938.18 2417.52,932.00
             2417.52,932.00 2416.28,922.00 2416.28,922.00
             2416.28,922.00 2415.05,907.00 2415.05,907.00
             2415.05,907.00 2408.45,885.00 2408.45,885.00
             2408.45,885.00 2404.85,877.00 2404.85,877.00
             2403.40,872.54 2404.67,869.38 2402.76,865.28
             2402.76,865.28 2393.99,851.00 2393.99,851.00
             2393.99,851.00 2388.65,831.00 2388.65,831.00
             2384.13,819.65 2380.50,813.92 2374.31,803.72
             2374.31,803.72 2370.52,797.01 2370.52,797.01
             2370.52,797.01 2364.87,789.83 2364.87,789.83
             2364.87,789.83 2358.57,779.00 2358.57,779.00
             2358.57,779.00 2349.99,768.82 2349.99,768.82
             2349.99,768.82 2347.26,762.17 2347.26,762.17
             2345.06,757.31 2340.73,751.82 2337.35,747.72
             2333.41,742.94 2333.69,739.19 2328.00,736.00
             2329.01,728.27 2323.39,727.64 2318.30,723.54
             2318.30,723.54 2305.30,710.83 2305.30,710.83
             2305.30,710.83 2293.01,694.17 2293.01,694.17
             2287.53,687.35 2285.68,687.11 2281.38,682.56
             2281.38,682.56 2276.10,675.32 2276.10,675.32
             2276.10,675.32 2267.72,667.24 2267.72,667.24
             2258.11,658.41 2244.94,651.89 2240.00,639.00
             2236.23,637.80 2235.17,633.64 2233.26,630.42
             2233.26,630.42 2226.97,616.43 2226.97,616.43
             2226.97,616.43 2223.00,612.31 2223.00,612.31
             2220.27,609.24 2221.22,608.66 2217.00,607.00
             2217.53,599.67 2212.63,599.96 2205.09,592.59
             2205.09,592.59 2197.32,584.41 2197.32,584.41
             2197.32,584.41 2179.96,570.75 2179.96,570.75
             2177.16,569.16 2174.86,568.85 2172.04,567.77
             2167.57,566.05 2167.24,563.79 2162.00,564.00
             2159.48,560.09 2158.58,559.65 2154.00,559.00
             2154.00,559.00 2152.88,555.85 2152.88,555.85
             2152.88,555.85 2147.07,552.72 2147.07,552.72
             2147.07,552.72 2135.00,546.66 2135.00,546.66
             2135.00,546.66 2117.00,537.70 2117.00,537.70
             2117.00,537.70 2094.17,529.62 2094.17,529.62
             2094.17,529.62 2082.00,525.00 2082.00,525.00
             2082.00,525.00 2082.00,526.00 2082.00,526.00
             2082.00,526.00 2084.00,526.00 2084.00,526.00
             2084.00,526.00 2081.00,524.00 2081.00,524.00
             2081.00,524.00 2067.00,523.11 2067.00,523.11
             2067.00,523.11 2059.00,521.17 2059.00,521.17
             2059.00,521.17 2036.00,519.46 2036.00,519.46
             2036.00,519.46 2025.00,515.76 2025.00,515.76
             2025.00,515.76 2015.00,514.24 2015.00,514.24
             2015.00,514.24 2007.00,512.37 2007.00,512.37
             2007.00,512.37 1999.00,511.79 1999.00,511.79
             1995.06,511.24 1992.15,509.52 1986.00,509.09
             1979.71,508.65 1972.68,508.88 1966.58,507.03
             1963.57,506.12 1961.77,504.52 1959.00,503.26
             1959.00,503.26 1933.83,494.24 1933.83,494.24
             1931.38,493.84 1915.90,495.49 1913.00,496.17
             1913.00,496.17 1906.17,498.08 1906.17,498.08
             1906.17,498.08 1893.28,498.08 1893.28,498.08
             1893.28,498.08 1875.00,501.20 1875.00,501.20
             1875.00,501.20 1863.00,501.20 1863.00,501.20
             1863.00,501.20 1848.00,501.91 1848.00,501.91
             1848.00,501.91 1832.00,501.91 1832.00,501.91
             1832.00,501.91 1820.00,501.91 1820.00,501.91
             1820.00,501.91 1791.00,509.58 1791.00,509.58
             1791.00,509.58 1778.17,512.18 1778.17,512.18
             1778.17,512.18 1770.00,516.56 1770.00,516.56
             1770.00,516.56 1758.01,521.72 1758.01,521.72
             1758.01,521.72 1746.83,531.80 1746.83,531.80
             1744.20,534.02 1741.36,536.17 1738.17,537.51
             1734.40,539.09 1730.14,538.42 1729.00,543.00 Z
           M 1646.00,584.00
           C 1646.00,584.00 1646.00,585.00 1646.00,585.00
             1646.00,585.00 1645.00,584.00 1645.00,584.00
             1645.00,584.00 1646.00,584.00 1646.00,584.00 Z
           M 2216.00,602.00
           C 2216.00,602.00 2216.00,603.00 2216.00,603.00
             2216.00,603.00 2215.00,602.00 2215.00,602.00
             2215.00,602.00 2216.00,602.00 2216.00,602.00 Z
           M 2226.00,616.00
           C 2226.00,616.00 2226.00,617.00 2226.00,617.00
             2226.00,617.00 2225.00,616.00 2225.00,616.00
             2225.00,616.00 2226.00,616.00 2226.00,616.00 Z
           M 1459.00,741.00
           C 1459.00,741.00 1459.00,742.00 1459.00,742.00
             1459.00,742.00 1458.00,741.00 1458.00,741.00
             1458.00,741.00 1459.00,741.00 1459.00,741.00 Z
           M 1395.00,866.00
           C 1395.00,866.00 1395.00,870.00 1395.00,870.00
             1395.00,870.00 1395.00,866.00 1395.00,866.00 Z
           M 1394.00,870.00
           C 1394.00,870.00 1394.00,871.00 1394.00,871.00
             1394.00,871.00 1393.00,870.00 1393.00,870.00
             1393.00,870.00 1394.00,870.00 1394.00,870.00 Z
           M 1391.00,880.00
           C 1391.00,880.00 1390.00,887.00 1390.00,887.00
             1390.00,887.00 1391.00,880.00 1391.00,880.00 Z
           M 1379.00,1063.00
           C 1379.00,1063.00 1379.00,1064.00 1379.00,1064.00
             1379.00,1064.00 1378.00,1063.00 1378.00,1063.00
             1378.00,1063.00 1379.00,1063.00 1379.00,1063.00 Z
           M 1380.00,1064.00
           C 1380.00,1064.00 1380.00,1073.00 1380.00,1073.00
             1377.58,1069.57 1378.17,1067.60 1380.00,1064.00 Z
           M 1379.00,1074.00
           C 1379.00,1074.00 1379.00,1075.00 1379.00,1075.00
             1379.00,1075.00 1378.00,1074.00 1378.00,1074.00
             1378.00,1074.00 1379.00,1074.00 1379.00,1074.00 Z
           M 2446.00,1259.00
           C 2446.00,1259.00 2446.00,1260.00 2446.00,1260.00
             2446.00,1260.00 2447.00,1259.00 2447.00,1259.00
             2447.00,1259.00 2446.00,1259.00 2446.00,1259.00 Z
           M 1353.00,1285.00
           C 1353.00,1285.00 1353.00,1286.00 1353.00,1286.00
             1353.00,1286.00 1352.00,1285.00 1352.00,1285.00
             1352.00,1285.00 1353.00,1285.00 1353.00,1285.00 Z
           M 1305.00,1372.00
           C 1305.00,1372.00 1305.00,1373.00 1305.00,1373.00
             1305.00,1373.00 1304.00,1372.00 1304.00,1372.00
             1304.00,1372.00 1305.00,1372.00 1305.00,1372.00 Z
           M 1305.00,1374.00
           C 1305.00,1374.00 1305.00,1375.00 1305.00,1375.00
             1305.00,1375.00 1304.00,1374.00 1304.00,1374.00
             1304.00,1374.00 1305.00,1374.00 1305.00,1374.00 Z
           M 1345.00,1527.00
           C 1345.00,1527.00 1345.00,1528.00 1345.00,1528.00
             1345.00,1528.00 1344.00,1527.00 1344.00,1527.00
             1344.00,1527.00 1345.00,1527.00 1345.00,1527.00 Z
           M 1345.00,1551.00
           C 1345.00,1551.00 1345.00,1552.00 1345.00,1552.00
             1345.00,1552.00 1344.00,1551.00 1344.00,1551.00
             1344.00,1551.00 1345.00,1551.00 1345.00,1551.00 Z
           M 1347.00,1563.00
           C 1347.00,1563.00 1347.00,1564.00 1347.00,1564.00
             1347.00,1564.00 1346.00,1563.00 1346.00,1563.00
             1346.00,1563.00 1347.00,1563.00 1347.00,1563.00 Z
           M 2440.00,1583.00
           C 2440.00,1583.00 2440.00,1584.00 2440.00,1584.00
             2440.00,1584.00 2441.00,1583.00 2441.00,1583.00
             2441.00,1583.00 2440.00,1583.00 2440.00,1583.00 Z
           M 1361.00,1642.00
           C 1361.00,1642.00 1361.00,1643.00 1361.00,1643.00
             1361.00,1643.00 1362.00,1642.00 1362.00,1642.00
             1362.00,1642.00 1361.00,1642.00 1361.00,1642.00 Z" />
  <path id="profile"
        fill="none" stroke="black" stroke-width="1"
        d="M 1728.00,543.00
           C 1719.26,542.22 1711.56,547.76 1704.00,551.49
             1704.00,551.49 1681.00,561.51 1681.00,561.51
             1681.00,561.51 1658.00,574.00 1658.00,574.00
             1658.00,574.00 1663.00,574.00 1663.00,574.00
             1663.00,574.00 1644.00,582.99 1644.00,582.99
             1644.00,582.99 1635.00,584.97 1635.00,584.97
             1631.21,586.08 1626.97,586.93 1626.00,591.00
             1616.99,590.41 1612.37,594.82 1605.00,598.22
             1605.00,598.22 1594.01,602.94 1594.01,602.94
             1590.31,604.75 1589.20,605.95 1585.00,607.00
             1585.00,607.00 1587.00,609.00 1587.00,609.00
             1587.00,609.00 1583.00,609.00 1583.00,609.00
             1580.80,615.21 1563.57,616.71 1562.00,623.00
             1562.00,623.00 1561.00,624.00 1561.00,624.00
             1561.00,624.00 1559.00,623.00 1559.00,623.00
             1559.00,623.00 1559.00,625.00 1559.00,625.00
             1552.90,625.66 1553.88,628.02 1549.75,631.11
             1549.75,631.11 1544.44,634.40 1544.44,634.40
             1537.81,639.36 1534.18,644.30 1528.79,650.24
             1524.23,655.26 1523.32,659.86 1517.00,663.00
             1517.00,663.00 1511.00,669.00 1511.00,669.00
             1511.00,669.00 1512.00,672.00 1512.00,672.00
             1506.53,673.80 1506.06,676.75 1502.55,680.72
             1495.85,688.28 1495.26,688.28 1489.05,696.96
             1486.41,700.64 1485.07,700.68 1482.55,703.37
             1482.55,703.37 1469.43,719.58 1469.43,719.58
             1469.43,719.58 1462.37,733.91 1462.37,733.91
             1462.37,733.91 1453.00,745.04 1453.00,745.04
             1453.00,745.04 1448.47,755.96 1448.47,755.96
             1444.70,762.96 1444.45,758.10 1443.00,768.00
             1437.71,768.34 1436.89,772.70 1434.58,776.91
             1434.58,776.91 1426.50,790.00 1426.50,790.00
             1426.50,790.00 1422.72,799.71 1422.72,799.71
             1422.72,799.71 1417.59,807.17 1417.59,807.17
             1417.59,807.17 1410.05,823.00 1410.05,823.00
             1410.05,823.00 1407.63,829.83 1407.63,829.83
             1407.63,829.83 1403.83,837.01 1403.83,837.01
             1403.83,837.01 1398.35,852.91 1398.35,852.91
             1398.35,852.91 1392.68,865.00 1392.68,865.00
             1392.68,865.00 1391.62,871.00 1391.62,871.00
             1391.62,871.00 1388.23,882.00 1388.23,882.00
             1387.17,885.49 1384.75,890.59 1384.37,894.00
             1383.98,897.42 1385.09,898.89 1385.20,901.96
             1385.20,901.96 1385.20,913.00 1385.20,913.00
             1385.20,913.00 1384.00,910.00 1384.00,910.00
             1384.00,910.00 1382.21,926.00 1382.21,926.00
             1382.21,926.00 1382.82,932.99 1382.82,932.99
             1382.82,932.99 1379.00,945.00 1379.00,945.00
             1381.20,948.04 1381.20,948.96 1379.00,952.00
             1379.00,952.00 1380.00,948.00 1380.00,948.00
             1377.72,951.56 1378.13,952.37 1380.00,956.00
             1380.00,956.00 1377.00,955.00 1377.00,955.00
             1377.01,963.70 1378.52,965.25 1376.00,974.00
             1376.00,974.00 1378.00,973.00 1378.00,973.00
             1373.10,981.84 1375.95,982.09 1375.96,992.00
             1375.96,992.00 1375.96,1006.00 1375.96,1006.00
             1375.96,1006.00 1375.10,1021.00 1375.10,1021.00
             1375.10,1021.00 1376.47,1044.00 1376.47,1044.00
             1376.47,1044.00 1375.51,1053.00 1375.51,1053.00
             1375.21,1057.17 1375.95,1057.19 1375.00,1062.00
             1375.00,1062.00 1377.00,1062.00 1377.00,1062.00
             1377.00,1062.00 1373.04,1081.00 1373.04,1081.00
             1372.95,1084.18 1372.60,1087.03 1376.00,1088.00
             1376.00,1088.00 1375.00,1107.00 1375.00,1107.00
             1375.00,1107.00 1374.01,1103.00 1374.01,1103.00
             1374.01,1103.00 1374.01,1116.00 1374.01,1116.00
             1374.01,1116.00 1374.01,1129.00 1374.01,1129.00
             1374.01,1129.00 1374.01,1144.00 1374.01,1144.00
             1380.25,1157.27 1378.28,1156.54 1374.01,1169.00
             1373.16,1172.89 1373.64,1174.56 1371.00,1178.00
             1371.00,1178.00 1373.00,1182.00 1373.00,1182.00
             1373.00,1182.00 1365.00,1187.00 1365.00,1187.00
             1365.00,1187.00 1364.49,1201.00 1364.49,1201.00
             1364.87,1208.98 1363.28,1211.11 1361.49,1218.00
             1361.49,1218.00 1360.37,1228.72 1360.37,1228.72
             1360.37,1228.72 1360.90,1236.00 1360.90,1236.00
             1360.90,1236.00 1359.73,1252.91 1359.73,1252.91
             1359.37,1254.73 1358.87,1255.45 1358.00,1257.00
             1358.00,1257.00 1360.00,1259.00 1360.00,1259.00
             1355.49,1264.17 1358.71,1273.93 1360.00,1280.00
             1360.00,1280.00 1357.00,1275.00 1357.00,1275.00
             1357.00,1275.00 1356.00,1280.00 1356.00,1280.00
             1356.00,1280.00 1352.00,1280.00 1352.00,1280.00
             1350.37,1276.39 1348.69,1278.34 1344.00,1280.00
             1340.94,1275.59 1334.83,1278.88 1331.00,1281.12
             1327.72,1283.05 1323.01,1286.05 1320.75,1289.05
             1320.75,1289.05 1309.15,1309.00 1309.15,1309.00
             1309.16,1310.52 1309.47,1312.50 1309.15,1314.00
             1308.93,1317.38 1304.15,1325.97 1310.00,1331.00
             1310.00,1331.00 1306.00,1333.00 1306.00,1333.00
             1306.00,1333.00 1305.17,1338.75 1305.17,1338.75
             1305.35,1343.48 1308.17,1347.95 1305.17,1361.00
             1305.17,1361.00 1304.00,1356.00 1304.00,1356.00
             1304.00,1356.00 1300.15,1361.00 1300.15,1361.00
             1301.07,1367.83 1299.72,1369.90 1300.15,1372.91
             1301.05,1376.66 1302.75,1376.12 1302.98,1382.00
             1302.98,1382.00 1302.41,1399.00 1302.41,1399.00
             1302.41,1399.00 1305.49,1410.00 1305.49,1410.00
             1305.49,1410.00 1310.34,1431.00 1310.34,1431.00
             1310.34,1431.00 1311.79,1439.00 1311.79,1439.00
             1311.79,1439.00 1319.76,1457.00 1319.76,1457.00
             1322.94,1462.37 1325.90,1464.39 1325.00,1471.00
             1325.00,1471.00 1328.72,1485.00 1328.72,1485.00
             1328.72,1485.00 1328.00,1496.00 1328.00,1496.00
             1332.48,1496.77 1335.38,1500.08 1332.00,1504.00
             1332.00,1504.00 1335.00,1504.00 1335.00,1504.00
             1335.00,1504.00 1336.47,1517.00 1336.47,1517.00
             1336.47,1517.00 1336.47,1523.00 1336.47,1523.00
             1336.47,1523.00 1339.27,1535.00 1339.27,1535.00
             1339.27,1535.00 1339.27,1541.00 1339.27,1541.00
             1339.25,1546.34 1340.54,1556.03 1344.00,1560.00
             1340.44,1564.29 1347.27,1570.39 1348.84,1574.72
             1352.59,1585.04 1352.14,1596.20 1352.01,1607.00
             1351.95,1612.32 1351.05,1621.85 1357.00,1624.00
             1357.00,1624.00 1357.00,1630.00 1357.00,1630.00
             1357.00,1630.00 1353.00,1629.00 1353.00,1629.00
             1355.12,1639.36 1360.30,1635.23 1361.00,1648.00
             1367.29,1649.76 1367.97,1658.12 1371.59,1662.83
             1380.03,1673.82 1385.12,1677.17 1399.00,1678.00
             1401.80,1673.81 1406.35,1675.00 1411.00,1675.00
             1412.62,1679.71 1414.83,1679.20 1416.42,1683.04
             1416.42,1683.04 1419.52,1696.00 1419.52,1696.00
             1419.52,1696.00 1424.14,1710.00 1424.14,1710.00
             1425.01,1714.83 1423.93,1716.20 1424.14,1720.00
             1424.90,1725.34 1426.98,1727.58 1427.75,1731.09
             1427.75,1731.09 1431.52,1755.00 1431.52,1755.00
             1431.52,1755.00 1435.67,1765.83 1435.67,1765.83
             1437.22,1769.26 1438.79,1770.14 1441.05,1777.00
             1441.05,1777.00 1443.85,1792.00 1443.85,1792.00
             1446.13,1797.71 1449.99,1797.73 1450.83,1807.00
             1451.35,1812.76 1447.43,1828.00 1446.43,1835.00
             1446.43,1835.00 1445.91,1845.00 1445.91,1845.00
             1445.91,1845.00 1445.00,1867.00 1445.00,1867.00
             1445.00,1867.00 1444.00,1882.00 1444.00,1882.00
             1444.00,1882.00 1444.00,1922.00 1444.00,1922.00
             1444.00,1922.00 1445.00,1939.00 1445.00,1939.00
             1445.00,1939.00 1445.00,1966.00 1445.00,1966.00
             1444.97,1982.10 1440.06,1971.27 1440.00,1986.00
             1434.98,1983.36 1426.68,1982.89 1421.00,1983.01
             1421.00,1983.01 1412.00,1983.82 1412.00,1983.82
             1407.57,1983.82 1404.86,1982.29 1399.00,1982.66
             1395.59,1982.88 1384.04,1985.25 1382.00,1984.00
             1382.00,1984.00 1377.00,1986.00 1377.00,1986.00
             1377.00,1986.00 1377.00,1987.00 1377.00,1987.00
             1377.00,1987.00 1379.00,1987.00 1379.00,1987.00
             1376.29,1988.63 1375.10,1990.21 1372.00,1989.00
             1372.00,1989.00 1362.00,1998.70 1362.00,1998.70
             1362.00,1998.70 1333.00,2007.00 1333.00,2007.00
             1333.00,2007.00 1336.00,2008.00 1336.00,2008.00
             1330.80,2009.10 1328.01,2008.15 1320.96,2010.23
             1314.46,2012.15 1313.22,2014.48 1309.00,2016.36
             1309.00,2016.36 1295.00,2020.14 1295.00,2020.14
             1295.00,2020.14 1289.00,2023.13 1289.00,2023.13
             1289.00,2023.13 1281.00,2026.09 1281.00,2026.09
             1281.00,2026.09 1270.00,2031.23 1270.00,2031.23
             1270.00,2031.23 1253.00,2036.43 1253.00,2036.43
             1253.00,2036.43 1231.00,2046.21 1231.00,2046.21
             1231.00,2046.21 1225.00,2048.41 1225.00,2048.41
             1225.00,2048.41 1219.00,2051.71 1219.00,2051.71
             1216.35,2052.92 1213.76,2053.15 1211.00,2053.92
             1203.44,2056.05 1187.36,2060.71 1183.00,2067.00
             1176.39,2065.51 1167.22,2070.95 1161.00,2073.79
             1161.00,2073.79 1141.00,2083.41 1141.00,2083.41
             1141.00,2083.41 1129.00,2087.13 1129.00,2087.13
             1129.00,2087.13 1113.00,2095.22 1113.00,2095.22
             1106.47,2098.26 1097.96,2102.33 1091.17,2104.35
             1087.56,2105.42 1086.51,2104.20 1080.00,2106.95
             1080.00,2106.95 1051.00,2123.58 1051.00,2123.58
             1051.00,2123.58 1020.91,2134.90 1020.91,2134.90
             1020.91,2134.90 1012.00,2136.64 1012.00,2136.64
             1012.00,2136.64 999.00,2143.00 999.00,2143.00
             999.00,2143.00 980.04,2149.03 980.04,2149.03
             980.04,2149.03 971.96,2152.30 971.96,2152.30
             971.96,2152.30 952.00,2157.00 952.00,2157.00
             952.00,2157.00 954.00,2159.00 954.00,2159.00
             954.00,2159.00 948.00,2160.00 948.00,2160.00
             948.00,2160.00 948.00,2162.00 948.00,2162.00
             944.36,2161.41 941.57,2161.01 939.00,2164.00
             930.10,2163.14 930.78,2169.33 920.00,2168.00
             915.74,2172.33 911.63,2171.78 906.00,2173.69
             906.00,2173.69 888.00,2180.10 888.00,2180.10
             888.00,2180.10 880.00,2184.00 880.00,2184.00
             880.00,2184.00 875.00,2181.00 875.00,2181.00
             875.00,2181.00 876.00,2184.00 876.00,2184.00
             876.00,2184.00 868.91,2186.75 868.91,2186.75
             868.91,2186.75 863.00,2187.68 863.00,2187.68
             863.00,2187.68 848.59,2196.34 848.59,2196.34
             848.59,2196.34 847.00,2200.00 847.00,2200.00
             847.00,2200.00 840.00,2199.00 840.00,2199.00
             840.00,2199.00 840.00,2200.00 840.00,2200.00
             840.00,2200.00 842.00,2200.00 842.00,2200.00
             838.66,2200.48 835.23,2200.24 832.00,2201.31
             825.40,2203.51 820.15,2207.82 814.00,2210.65
             814.00,2210.65 795.01,2218.41 795.01,2218.41
             790.76,2220.78 790.08,2223.23 785.96,2225.47
             785.96,2225.47 766.00,2233.21 766.00,2233.21
             763.27,2234.00 760.75,2233.89 758.17,2235.12
             758.17,2235.12 748.42,2240.61 748.42,2240.61
             745.51,2242.61 744.68,2243.93 741.00,2245.77
             741.00,2245.77 713.01,2257.31 713.01,2257.31
             713.01,2257.31 700.00,2263.80 700.00,2263.80
             700.00,2263.80 689.00,2269.10 689.00,2269.10
             689.00,2269.10 678.00,2273.26 678.00,2273.26
             678.00,2273.26 669.00,2278.79 669.00,2278.79
             664.28,2280.89 657.26,2281.24 656.00,2287.00
             652.26,2287.08 647.18,2286.76 646.00,2291.00
             641.24,2291.53 629.24,2295.89 625.37,2298.82
             622.92,2300.67 622.58,2302.38 617.98,2305.24
             617.98,2305.24 604.00,2311.38 604.00,2311.38
             599.19,2313.60 596.54,2316.92 592.00,2317.00
             592.00,2317.00 570.09,2330.90 570.09,2330.90
             570.09,2330.90 561.71,2338.34 561.71,2338.34
             561.71,2338.34 555.09,2342.23 555.09,2342.23
             555.09,2342.23 542.84,2351.50 542.84,2351.50
             542.84,2351.50 537.68,2353.96 537.68,2353.96
             537.68,2353.96 525.00,2364.00 525.00,2364.00
             525.00,2364.00 527.00,2367.00 527.00,2367.00
             519.13,2368.51 519.60,2370.44 513.28,2374.35
             508.10,2377.55 503.03,2377.65 503.00,2385.00
             503.00,2385.00 497.00,2385.00 497.00,2385.00
             494.03,2394.24 491.86,2390.82 485.37,2395.78
             485.37,2395.78 481.64,2399.10 481.64,2399.10
             481.64,2399.10 477.51,2401.72 477.51,2401.72
             477.51,2401.72 472.82,2406.78 472.82,2406.78
             472.82,2406.78 459.91,2414.98 459.91,2414.98
             458.33,2415.58 456.66,2415.76 455.00,2416.00
             455.00,2416.00 456.00,2419.00 456.00,2419.00
             456.00,2419.00 452.00,2418.00 452.00,2418.00
             452.00,2418.00 449.00,2419.00 449.00,2419.00
             449.00,2419.00 452.00,2420.00 452.00,2420.00
             447.01,2422.60 446.66,2423.02 441.00,2423.00
             441.00,2423.00 444.00,2425.00 444.00,2425.00
             444.00,2425.00 439.00,2425.00 439.00,2425.00
             439.00,2425.00 437.00,2430.00 437.00,2430.00
             437.00,2430.00 433.00,2428.00 433.00,2428.00
             433.00,2428.00 431.00,2433.00 431.00,2433.00
             425.55,2432.33 424.02,2434.84 421.00,2439.00
             422.90,2442.33 417.78,2452.88 415.31,2455.58
             413.83,2457.18 412.90,2457.31 411.00,2458.00
             411.00,2458.00 398.00,2480.00 398.00,2480.00
             398.00,2480.00 396.00,2476.00 396.00,2476.00
             396.00,2476.00 388.17,2496.08 388.17,2496.08
             388.17,2496.08 388.17,2502.00 388.17,2502.00
             388.17,2502.00 386.00,2501.00 386.00,2501.00
             384.92,2503.81 382.85,2506.41 385.00,2509.00
             382.73,2513.17 383.05,2514.88 378.00,2516.00
             378.00,2516.00 375.15,2524.91 375.15,2524.91
             375.15,2524.91 369.53,2534.17 369.53,2534.17
             369.53,2534.17 366.72,2540.91 366.72,2540.91
             366.72,2540.91 362.00,2550.00 362.00,2550.00
             362.00,2550.00 360.00,2548.00 360.00,2548.00
             360.00,2548.00 357.00,2554.00 357.00,2554.00
             357.00,2554.00 359.00,2553.00 359.00,2553.00
             359.00,2553.00 348.21,2573.00 348.21,2573.00
             348.21,2573.00 344.02,2582.00 344.02,2582.00
             344.02,2582.00 340.12,2588.00 340.12,2588.00
             340.12,2588.00 334.55,2601.83 334.55,2601.83
             334.55,2601.83 331.38,2607.07 331.38,2607.07
             331.38,2607.07 325.06,2619.00 325.06,2619.00
             325.06,2619.00 319.73,2633.00 319.73,2633.00
             319.73,2633.00 309.64,2650.16 309.64,2650.16
             309.64,2650.16 304.42,2661.01 304.42,2661.01
             304.42,2661.01 296.07,2684.00 296.07,2684.00
             296.07,2684.00 291.58,2690.00 291.58,2690.00
             291.58,2690.00 288.00,2696.00 288.00,2696.00
             288.14,2700.88 286.04,2703.69 284.03,2708.00
             284.03,2708.00 276.02,2727.00 276.02,2727.00
             276.02,2727.00 268.80,2747.96 268.80,2747.96
             268.80,2747.96 263.18,2760.00 263.18,2760.00
             263.18,2760.00 260.08,2768.00 260.08,2768.00
             260.08,2768.00 257.41,2773.00 257.41,2773.00
             257.41,2773.00 254.80,2781.83 254.80,2781.83
             254.80,2781.83 248.12,2795.00 248.12,2795.00
             248.12,2795.00 243.96,2807.00 243.96,2807.00
             243.96,2807.00 237.20,2821.91 237.20,2821.91
             237.20,2821.91 229.64,2843.00 229.64,2843.00
             229.64,2843.00 226.90,2854.00 226.90,2854.00
             226.90,2854.00 217.09,2879.00 217.09,2879.00
             217.09,2879.00 212.56,2900.00 212.56,2900.00
             212.56,2900.00 208.50,2912.83 208.50,2912.83
             208.50,2912.83 206.13,2918.09 206.13,2918.09
             206.13,2918.09 204.43,2925.00 204.43,2925.00
             204.43,2925.00 200.57,2936.00 200.57,2936.00
             200.57,2936.00 191.87,2973.00 191.87,2973.00
             190.97,2976.84 189.96,2977.74 188.83,2981.00
             188.83,2981.00 186.64,2989.00 186.64,2989.00
             186.64,2989.00 180.22,3008.00 180.22,3008.00
             177.80,3016.05 176.10,3013.96 176.00,3024.00
             176.00,3024.00 173.00,3024.00 173.00,3024.00
             171.76,3036.27 165.87,3042.61 164.68,3048.00
             164.68,3048.00 162.82,3061.00 162.82,3061.00
             162.82,3061.00 160.76,3068.00 160.76,3068.00
             160.76,3068.00 160.10,3074.00 160.10,3074.00
             160.10,3074.00 154.54,3090.00 154.54,3090.00
             154.54,3090.00 153.61,3096.00 153.61,3096.00
             153.61,3096.00 151.72,3101.91 151.72,3101.91
             151.72,3101.91 150.86,3113.17 150.86,3113.17
             150.86,3113.17 147.39,3121.28 147.39,3121.28
             147.39,3121.28 143.25,3139.00 143.25,3139.00
             141.85,3144.01 140.03,3145.62 141.00,3151.00
             135.09,3153.65 137.18,3154.69 135.59,3160.00
             135.59,3160.00 133.32,3166.00 133.32,3166.00
             131.94,3170.61 132.37,3173.13 131.63,3177.00
             131.63,3177.00 130.17,3183.00 130.17,3183.00
             128.09,3194.42 128.63,3200.17 124.48,3211.95
             122.78,3216.75 121.23,3214.89 118.29,3224.00
             116.58,3229.28 117.41,3230.74 116.52,3234.99
             116.52,3234.99 113.65,3244.02 113.65,3244.02
             113.65,3244.02 110.79,3260.91 110.79,3260.91
             109.71,3264.41 107.93,3265.28 106.85,3269.01
             106.85,3269.01 105.59,3277.00 105.59,3277.00
             105.59,3277.00 101.63,3288.00 101.63,3288.00
             101.63,3288.00 99.51,3299.00 99.51,3299.00
             99.51,3299.00 95.60,3313.00 95.60,3313.00
             95.60,3313.00 93.41,3319.00 93.41,3319.00
             93.41,3319.00 91.54,3333.83 91.54,3333.83
             91.54,3333.83 88.41,3346.00 88.41,3346.00
             88.41,3346.00 84.89,3357.00 84.89,3357.00
             84.89,3357.00 82.42,3370.00 82.42,3370.00
             82.42,3370.00 78.10,3382.00 78.10,3382.00
             78.10,3382.00 74.73,3398.00 74.73,3398.00
             73.78,3404.09 73.28,3417.62 70.00,3422.00
             69.94,3426.27 68.48,3427.18 67.45,3431.00
             67.45,3431.00 66.08,3438.00 66.08,3438.00
             64.80,3442.79 63.25,3444.83 61.51,3449.00
             61.51,3449.00 59.00,3457.00 59.00,3457.00
             55.92,3465.77 52.69,3473.72 51.37,3483.00
             50.50,3489.11 47.63,3490.14 49.00,3497.00
             45.68,3499.23 41.80,3508.04 40.63,3512.00
             40.63,3512.00 38.26,3523.00 38.26,3523.00
             38.26,3523.00 34.54,3534.91 34.54,3534.91
             34.54,3534.91 32.50,3539.28 32.50,3539.28
             32.50,3539.28 30.79,3548.91 30.79,3548.91
             29.64,3552.74 28.09,3552.86 26.48,3559.00
             26.48,3559.00 23.72,3579.00 23.72,3579.00
             23.72,3579.00 20.55,3599.00 20.55,3599.00
             20.57,3603.30 22.42,3609.50 20.55,3613.00
             17.39,3618.06 2.61,3629.54 0.60,3635.00
             -0.12,3636.94 0.00,3639.91 0.00,3642.00
             0.00,3642.00 0.00,3775.00 0.00,3775.00
             0.00,3777.41 -0.22,3780.58 1.02,3782.70
             2.27,3784.84 5.97,3787.33 8.00,3788.88
             8.00,3788.88 23.00,3800.37 23.00,3800.37
             23.00,3800.37 59.00,3827.91 59.00,3827.91
             59.00,3827.91 98.00,3850.80 98.00,3850.80
             98.00,3850.80 140.00,3874.31 140.00,3874.31
             149.73,3879.57 155.66,3884.98 167.00,3885.00
             167.00,3885.00 729.00,3885.00 729.00,3885.00
             729.00,3885.00 3821.00,3885.00 3821.00,3885.00
             3821.00,3885.00 3821.00,3546.00 3821.00,3546.00
             3821.00,3546.00 3821.00,3466.00 3821.00,3466.00
             3821.00,3460.78 3821.95,3446.20 3819.40,3442.31
             3818.29,3440.63 3817.69,3440.64 3816.00,3440.00
             3815.71,3418.60 3810.34,3406.99 3806.01,3387.00
             3806.01,3387.00 3803.34,3371.00 3803.34,3371.00
             3803.34,3371.00 3799.91,3359.00 3799.91,3359.00
             3799.91,3359.00 3797.64,3349.01 3797.64,3349.01
             3797.64,3349.01 3794.36,3339.96 3794.36,3339.96
             3794.36,3339.96 3792.81,3334.00 3792.81,3334.00
             3792.81,3334.00 3790.39,3328.00 3790.39,3328.00
             3790.39,3328.00 3789.46,3320.00 3789.46,3320.00
             3789.46,3320.00 3785.85,3301.00 3785.85,3301.00
             3785.85,3301.00 3780.59,3284.00 3780.59,3284.00
             3780.59,3284.00 3779.09,3276.04 3779.09,3276.04
             3779.09,3276.04 3774.59,3265.00 3774.59,3265.00
             3774.59,3265.00 3772.40,3250.00 3772.40,3250.00
             3772.40,3250.00 3766.38,3232.00 3766.38,3232.00
             3765.53,3227.82 3766.80,3225.58 3764.10,3215.00
             3764.10,3215.00 3756.56,3193.00 3756.56,3193.00
             3756.56,3193.00 3754.26,3183.00 3754.26,3183.00
             3754.26,3183.00 3750.23,3169.00 3750.23,3169.00
             3750.23,3169.00 3748.47,3160.00 3748.47,3160.00
             3748.47,3160.00 3744.45,3149.00 3744.45,3149.00
             3744.45,3149.00 3742.48,3133.00 3742.48,3133.00
             3742.48,3133.00 3739.10,3124.00 3739.10,3124.00
             3739.10,3124.00 3737.42,3117.00 3737.42,3117.00
             3737.42,3117.00 3733.37,3103.00 3733.37,3103.00
             3733.37,3103.00 3731.48,3091.00 3731.48,3091.00
             3731.48,3091.00 3727.44,3074.00 3727.44,3074.00
             3727.44,3074.00 3722.55,3060.00 3722.55,3060.00
             3722.55,3060.00 3721.04,3053.00 3721.04,3053.00
             3721.04,3053.00 3716.30,3039.00 3716.30,3039.00
             3716.30,3039.00 3711.91,3027.00 3711.91,3027.00
             3711.91,3027.00 3709.32,3017.00 3709.32,3017.00
             3709.32,3017.00 3708.41,3009.00 3708.41,3009.00
             3708.41,3009.00 3701.43,2985.00 3701.43,2985.00
             3701.43,2985.00 3692.56,2952.00 3692.56,2952.00
             3692.56,2952.00 3688.62,2942.00 3688.62,2942.00
             3688.62,2942.00 3686.00,2931.00 3686.00,2931.00
             3684.55,2927.00 3682.45,2924.90 3680.72,2919.00
             3680.72,2919.00 3678.13,2906.00 3678.13,2906.00
             3678.13,2906.00 3673.09,2896.00 3673.09,2896.00
             3673.09,2896.00 3670.54,2888.00 3670.54,2888.00
             3670.54,2888.00 3664.77,2874.00 3664.77,2874.00
             3664.77,2874.00 3662.40,2864.00 3662.40,2864.00
             3662.40,2864.00 3655.19,2846.00 3655.19,2846.00
             3655.19,2846.00 3647.22,2823.00 3647.22,2823.00
             3647.22,2823.00 3643.10,2812.91 3643.10,2812.91
             3643.10,2812.91 3641.01,2803.00 3641.01,2803.00
             3641.01,2803.00 3636.60,2791.00 3636.60,2791.00
             3636.60,2791.00 3635.28,2782.09 3635.28,2782.09
             3634.22,2779.23 3630.46,2775.75 3627.70,2768.00
             3627.70,2768.00 3624.28,2752.00 3624.28,2752.00
             3621.59,2744.62 3618.58,2742.98 3616.30,2737.99
             3616.30,2737.99 3610.36,2722.00 3610.36,2722.00
             3610.36,2722.00 3603.07,2705.00 3603.07,2705.00
             3603.07,2705.00 3599.51,2695.00 3599.51,2695.00
             3599.51,2695.00 3595.25,2687.00 3595.25,2687.00
             3591.89,2679.48 3593.59,2679.80 3588.45,2671.00
             3584.99,2665.08 3583.75,2661.75 3577.00,2659.00
             3576.79,2651.55 3572.38,2639.56 3568.76,2633.01
             3563.47,2623.46 3561.96,2627.03 3561.00,2615.00
             3561.00,2615.00 3560.00,2615.00 3560.00,2615.00
             3560.00,2615.00 3558.00,2617.00 3558.00,2617.00
             3558.00,2617.00 3558.00,2608.00 3558.00,2608.00
             3553.46,2607.63 3552.43,2607.49 3551.00,2603.00
             3551.00,2603.00 3548.00,2605.00 3548.00,2605.00
             3546.45,2600.67 3541.01,2588.90 3542.00,2585.00
             3542.00,2585.00 3540.00,2587.00 3540.00,2587.00
             3532.38,2580.27 3529.75,2570.38 3524.78,2561.83
             3524.78,2561.83 3518.55,2554.00 3518.55,2554.00
             3518.55,2554.00 3513.33,2545.00 3513.33,2545.00
             3510.48,2540.36 3505.13,2537.18 3505.00,2532.00
             3501.43,2529.44 3493.01,2522.06 3490.21,2518.71
             3490.21,2518.71 3486.50,2513.45 3486.50,2513.45
             3483.97,2510.48 3480.59,2508.12 3478.55,2504.68
             3475.96,2500.29 3476.64,2488.96 3470.00,2484.00
             3470.00,2484.00 3470.00,2482.00 3470.00,2482.00
             3470.00,2482.00 3472.00,2480.00 3472.00,2480.00
             3472.00,2480.00 3466.00,2478.00 3466.00,2478.00
             3466.00,2478.00 3468.00,2476.00 3468.00,2476.00
             3468.00,2476.00 3468.00,2475.00 3468.00,2475.00
             3468.00,2475.00 3467.00,2475.00 3467.00,2475.00
             3467.00,2475.00 3465.00,2473.00 3465.00,2473.00
             3458.31,2474.55 3457.46,2471.35 3451.96,2467.85
             3451.96,2467.85 3434.28,2456.62 3434.28,2456.62
             3429.48,2452.98 3427.78,2449.73 3422.00,2447.00
             3422.00,2447.00 3423.00,2443.00 3423.00,2443.00
             3419.97,2442.13 3419.00,2442.12 3418.00,2439.00
             3418.00,2439.00 3417.00,2438.00 3417.00,2438.00
             3417.00,2438.00 3415.00,2439.00 3415.00,2439.00
             3415.00,2439.00 3404.00,2429.83 3404.00,2429.83
             3404.00,2429.83 3393.24,2419.45 3393.24,2419.45
             3393.24,2419.45 3385.00,2411.00 3385.00,2411.00
             3379.22,2409.63 3372.97,2401.56 3368.72,2397.43
             3368.72,2397.43 3358.32,2389.26 3358.32,2389.26
             3358.32,2389.26 3342.90,2374.39 3342.90,2374.39
             3342.90,2374.39 3333.85,2365.09 3333.85,2365.09
             3332.94,2363.79 3333.16,2363.38 3333.00,2362.00
             3333.00,2362.00 3329.00,2363.00 3329.00,2363.00
             3329.00,2363.00 3318.39,2350.75 3318.39,2350.75
             3318.39,2350.75 3310.67,2343.39 3310.67,2343.39
             3310.67,2343.39 3305.49,2337.49 3305.49,2337.49
             3305.49,2337.49 3288.00,2329.00 3288.00,2329.00
             3288.00,2329.00 3288.00,2325.00 3288.00,2325.00
             3288.00,2325.00 3285.00,2326.00 3285.00,2326.00
             3285.00,2326.00 3286.00,2323.00 3286.00,2323.00
             3286.00,2323.00 3278.00,2319.00 3278.00,2319.00
             3278.00,2319.00 3279.00,2316.00 3279.00,2316.00
             3268.39,2309.11 3266.65,2313.10 3265.00,2308.00
             3258.33,2308.21 3260.18,2305.74 3255.74,2303.92
             3253.55,2303.02 3251.70,2303.64 3249.17,2302.33
             3243.79,2299.54 3241.47,2293.61 3230.00,2289.00
             3230.00,2289.00 3231.00,2291.00 3231.00,2291.00
             3227.27,2288.10 3224.30,2284.17 3219.91,2282.24
             3216.83,2280.90 3210.34,2280.12 3209.00,2277.00
             3209.00,2277.00 3202.93,2273.77 3202.93,2273.77
             3202.93,2273.77 3189.00,2268.00 3189.00,2268.00
             3189.00,2268.00 3192.00,2267.00 3192.00,2267.00
             3192.00,2267.00 3184.00,2267.00 3184.00,2267.00
             3184.00,2267.00 3187.00,2266.00 3187.00,2266.00
             3187.00,2266.00 3181.00,2265.00 3181.00,2265.00
             3181.00,2265.00 3173.00,2262.00 3173.00,2262.00
             3173.00,2262.00 3175.00,2259.00 3175.00,2259.00
             3172.67,2259.20 3171.81,2258.73 3171.00,2261.00
             3171.00,2261.00 3169.00,2258.00 3169.00,2258.00
             3164.49,2256.99 3161.56,2257.39 3161.00,2252.00
             3161.00,2252.00 3149.00,2247.00 3149.00,2247.00
             3149.00,2247.00 3150.00,2249.00 3150.00,2249.00
             3150.00,2249.00 3138.00,2244.16 3138.00,2244.16
             3138.00,2244.16 3127.00,2239.00 3127.00,2239.00
             3127.00,2239.00 3126.00,2234.00 3126.00,2234.00
             3126.00,2234.00 3121.00,2236.00 3121.00,2236.00
             3117.70,2231.46 3112.97,2231.82 3108.04,2229.30
             3102.60,2226.52 3103.98,2224.81 3097.00,2224.00
             3097.00,2224.00 3098.00,2221.00 3098.00,2221.00
             3093.88,2218.61 3091.93,2216.95 3087.00,2217.00
             3083.05,2211.76 3077.66,2212.61 3072.00,2211.32
             3072.00,2211.32 3064.00,2209.00 3064.00,2209.00
             3064.00,2209.00 3066.00,2207.00 3066.00,2207.00
             3061.12,2203.54 3051.99,2198.67 3046.00,2199.00
             3045.02,2195.34 3042.33,2195.34 3039.00,2194.36
             3030.83,2191.96 3034.89,2191.99 3024.00,2190.00
             3022.96,2186.16 3019.87,2187.75 3016.00,2186.00
             3016.00,2186.00 3015.00,2188.00 3015.00,2188.00
             3015.00,2188.00 3015.00,2185.00 3015.00,2185.00
             3015.00,2185.00 3001.00,2177.96 3001.00,2177.96
             3001.00,2177.96 2993.00,2174.88 2993.00,2174.88
             2989.03,2172.93 2986.79,2170.06 2982.00,2168.13
             2972.53,2164.30 2962.85,2165.39 2958.58,2163.69
             2958.58,2163.69 2942.00,2156.53 2942.00,2156.53
             2942.00,2156.53 2929.00,2152.20 2929.00,2152.20
             2929.00,2152.20 2922.00,2148.49 2922.00,2148.49
             2922.00,2148.49 2906.17,2143.69 2906.17,2143.69
             2906.17,2143.69 2874.00,2129.82 2874.00,2129.82
             2874.00,2129.82 2865.00,2127.35 2865.00,2127.35
             2865.00,2127.35 2849.09,2119.38 2849.09,2119.38
             2841.76,2113.94 2833.39,2101.29 2817.00,2097.00
             2817.00,2097.00 2816.00,2102.00 2816.00,2102.00
             2816.00,2102.00 2792.00,2087.68 2792.00,2087.68
             2792.00,2087.68 2776.00,2081.64 2776.00,2081.64
             2776.00,2081.64 2769.00,2080.12 2769.00,2080.12
             2769.00,2080.12 2760.00,2075.40 2760.00,2075.40
             2760.00,2075.40 2743.00,2071.39 2743.00,2071.39
             2743.00,2071.39 2733.00,2067.46 2733.00,2067.46
             2733.00,2067.46 2718.00,2062.36 2718.00,2062.36
             2718.00,2062.36 2704.00,2058.67 2704.00,2058.67
             2698.46,2056.61 2696.35,2053.47 2692.91,2052.00
             2692.91,2052.00 2673.00,2046.46 2673.00,2046.46
             2666.76,2044.28 2663.87,2041.22 2657.00,2043.00
             2652.64,2036.48 2636.01,2041.80 2633.00,2033.00
             2633.00,2033.00 2616.00,2027.76 2616.00,2027.76
             2616.00,2027.76 2593.00,2026.00 2593.00,2026.00
             2591.82,2021.92 2585.69,2021.03 2582.00,2020.00
             2582.00,2020.00 2574.17,2017.56 2574.17,2017.56
             2574.17,2017.56 2568.91,2015.21 2568.91,2015.21
             2568.91,2015.21 2556.00,2012.20 2556.00,2012.20
             2551.71,2011.52 2548.85,2009.71 2545.00,2012.20
             2545.00,2012.20 2544.00,2010.00 2544.00,2010.00
             2544.00,2010.00 2543.00,2010.00 2543.00,2010.00
             2543.00,2010.00 2542.00,2012.00 2542.00,2012.00
             2537.58,2008.88 2533.38,2007.49 2528.00,2007.00
             2528.00,2007.00 2529.00,2005.00 2529.00,2005.00
             2529.00,2005.00 2528.00,2004.00 2528.00,2004.00
             2528.00,2004.00 2522.00,2004.00 2522.00,2004.00
             2520.88,1999.02 2517.11,2000.07 2513.00,1998.25
             2503.68,1994.11 2507.42,1994.52 2496.42,1991.82
             2490.93,1990.48 2492.17,1989.65 2486.00,1991.00
             2486.00,1991.00 2487.00,1988.06 2487.00,1988.06
             2487.00,1988.06 2479.01,1988.06 2479.01,1988.06
             2479.01,1988.06 2472.00,1989.00 2472.00,1989.00
             2470.86,1984.73 2464.51,1985.20 2462.00,1988.00
             2462.00,1988.00 2450.28,1985.12 2450.28,1985.12
             2450.28,1985.12 2444.96,1981.60 2444.96,1981.60
             2444.96,1981.60 2438.18,1978.51 2438.18,1978.51
             2438.18,1978.51 2427.42,1968.51 2427.42,1968.51
             2427.42,1968.51 2416.00,1960.36 2416.00,1960.36
             2416.00,1960.36 2406.00,1956.04 2406.00,1956.04
             2406.00,1956.04 2401.00,1953.14 2401.00,1953.14
             2401.00,1953.14 2386.00,1947.94 2386.00,1947.94
             2386.00,1947.94 2380.77,1948.69 2380.77,1948.69
             2380.77,1948.69 2379.97,1953.00 2379.97,1953.00
             2377.21,1946.12 2380.39,1947.21 2379.97,1942.00
             2379.67,1938.69 2378.10,1938.41 2378.00,1931.00
             2378.00,1931.00 2377.40,1916.00 2377.40,1916.00
             2377.40,1916.00 2377.40,1910.00 2377.40,1910.00
             2377.40,1910.00 2376.07,1901.00 2376.07,1901.00
             2376.07,1901.00 2376.07,1892.00 2376.07,1892.00
             2376.07,1892.00 2375.04,1874.92 2375.04,1874.92
             2375.04,1874.92 2375.04,1846.00 2375.04,1846.00
             2374.89,1839.61 2374.05,1840.71 2373.26,1836.00
             2372.65,1832.40 2373.20,1832.22 2372.00,1828.00
             2372.00,1828.00 2369.00,1829.00 2369.00,1829.00
             2367.32,1824.81 2366.28,1825.14 2362.00,1825.00
             2362.00,1825.00 2364.02,1823.00 2364.02,1823.00
             2362.18,1819.58 2363.57,1819.50 2364.02,1816.00
             2364.84,1810.03 2362.16,1807.26 2367.00,1802.00
             2367.00,1802.00 2369.00,1783.00 2369.00,1783.00
             2366.10,1781.84 2366.79,1777.79 2366.89,1775.00
             2366.89,1775.00 2369.25,1752.00 2369.25,1752.00
             2369.18,1747.05 2367.65,1738.45 2369.25,1734.00
             2370.04,1730.62 2372.01,1728.83 2373.43,1725.83
             2375.36,1721.73 2377.97,1710.59 2378.00,1706.00
             2378.06,1694.63 2378.69,1700.10 2380.24,1691.96
             2380.24,1691.96 2381.21,1682.00 2381.21,1682.00
             2381.21,1682.00 2382.55,1676.00 2382.55,1676.00
             2384.04,1665.55 2378.51,1653.22 2394.00,1653.00
             2394.00,1653.00 2398.00,1653.00 2398.00,1653.00
             2407.50,1652.88 2412.23,1649.31 2421.00,1647.00
             2421.71,1640.78 2424.13,1643.18 2427.85,1640.37
             2429.80,1638.90 2432.43,1634.63 2433.96,1632.42
             2436.13,1629.29 2439.04,1621.99 2438.67,1618.17
             2438.39,1615.28 2436.22,1613.40 2436.80,1610.03
             2436.89,1607.49 2446.32,1593.07 2436.80,1587.00
             2436.80,1587.00 2441.00,1584.00 2441.00,1584.00
             2441.00,1584.00 2439.00,1582.00 2439.00,1582.00
             2442.20,1576.74 2441.72,1571.35 2448.00,1568.00
             2449.20,1561.66 2450.52,1561.86 2452.00,1557.00
             2452.00,1557.00 2455.62,1542.72 2455.62,1542.72
             2455.62,1542.72 2458.34,1523.00 2458.34,1523.00
             2461.02,1513.95 2459.21,1514.42 2460.48,1508.00
             2461.23,1504.18 2463.05,1502.67 2461.00,1499.00
             2461.00,1499.00 2466.47,1488.00 2466.47,1488.00
             2466.47,1488.00 2469.21,1475.00 2469.21,1475.00
             2469.21,1475.00 2478.61,1457.00 2478.61,1457.00
             2478.61,1457.00 2481.49,1442.00 2481.49,1442.00
             2481.49,1442.00 2486.58,1428.00 2486.58,1428.00
             2486.58,1428.00 2491.91,1402.00 2491.91,1402.00
             2491.91,1402.00 2493.00,1392.00 2493.00,1392.00
             2492.18,1387.83 2493.43,1373.02 2495.00,1369.00
             2493.64,1365.66 2493.16,1364.23 2495.00,1361.00
             2491.87,1355.39 2493.43,1352.92 2492.89,1347.00
             2492.03,1337.58 2489.39,1328.57 2490.00,1319.00
             2481.92,1308.97 2488.38,1293.76 2484.06,1283.00
             2481.41,1276.41 2472.89,1271.70 2467.20,1267.83
             2467.20,1267.83 2462.63,1264.47 2462.63,1264.47
             2459.79,1263.06 2458.99,1263.93 2454.00,1261.00
             2451.45,1263.07 2449.09,1262.51 2446.00,1262.00
             2446.00,1262.00 2444.00,1268.00 2444.00,1268.00
             2441.11,1257.91 2447.10,1246.96 2447.80,1236.00
             2447.80,1236.00 2445.95,1207.00 2445.95,1207.00
             2446.07,1198.96 2444.90,1201.10 2443.55,1195.96
             2441.42,1187.79 2444.54,1190.99 2438.01,1176.09
             2435.15,1169.54 2424.85,1165.24 2423.69,1152.00
             2423.69,1152.00 2426.66,1130.00 2426.66,1130.00
             2426.66,1130.00 2424.53,1116.00 2424.53,1116.00
             2424.53,1116.00 2424.00,1070.00 2424.00,1070.00
             2424.09,1062.55 2425.24,1062.54 2425.83,1057.00
             2425.83,1057.00 2426.43,1041.00 2426.43,1041.00
             2426.43,1041.00 2425.01,1014.00 2425.01,1014.00
             2425.01,1014.00 2425.68,1004.00 2425.68,1004.00
             2425.68,1004.00 2422.05,985.00 2422.05,985.00
             2422.05,985.00 2422.05,975.00 2422.05,975.00
             2422.05,975.00 2420.00,957.00 2420.00,957.00
             2420.00,957.00 2420.00,944.00 2420.00,944.00
             2419.89,935.09 2417.98,934.40 2417.18,928.00
             2417.18,928.00 2414.96,905.00 2414.96,905.00
             2414.96,905.00 2408.53,884.00 2408.53,884.00
             2408.53,884.00 2404.85,876.00 2404.85,876.00
             2404.85,876.00 2403.28,866.17 2403.28,866.17
             2403.28,866.17 2394.69,852.00 2394.69,852.00
             2389.76,840.55 2392.32,836.42 2383.36,818.17
             2383.36,818.17 2370.37,796.44 2370.37,796.44
             2370.37,796.44 2364.93,789.83 2364.93,789.83
             2364.93,789.83 2358.62,778.96 2358.62,778.96
             2358.62,778.96 2349.99,768.00 2349.99,768.00
             2349.99,768.00 2345.10,758.00 2345.10,758.00
             2345.10,758.00 2335.80,745.00 2335.80,745.00
             2333.08,740.86 2333.03,737.75 2328.00,736.00
             2329.69,727.68 2323.29,727.54 2318.30,723.37
             2318.30,723.37 2305.55,710.70 2305.55,710.70
             2305.55,710.70 2293.42,693.97 2293.42,693.97
             2287.63,686.50 2285.70,686.91 2281.19,681.96
             2281.19,681.96 2274.75,673.51 2274.75,673.51
             2262.95,661.65 2248.20,654.91 2240.00,639.00
             2240.00,639.00 2238.00,640.00 2238.00,640.00
             2238.00,640.00 2237.00,635.00 2237.00,635.00
             2228.80,626.93 2230.75,614.84 2218.00,607.00
             2217.80,599.91 2210.00,596.54 2205.00,591.75
             2205.00,591.75 2196.25,583.10 2196.25,583.10
             2196.25,583.10 2189.30,577.96 2189.30,577.96
             2186.40,575.44 2184.47,572.74 2180.96,570.83
             2180.96,570.83 2172.00,567.52 2172.00,567.52
             2167.69,565.64 2154.35,557.09 2152.00,553.00
             2144.64,552.57 2146.52,551.38 2140.91,548.78
             2140.91,548.78 2127.00,543.46 2127.00,543.46
             2127.00,543.46 2119.00,538.64 2119.00,538.64
             2111.31,534.47 2103.17,532.36 2095.00,529.57
             2095.00,529.57 2082.00,524.55 2082.00,524.55
             2082.00,524.55 2069.00,522.83 2069.00,522.83
             2069.00,522.83 2056.00,520.62 2056.00,520.62
             2056.00,520.62 2048.00,520.62 2048.00,520.62
             2048.00,520.62 2041.00,519.30 2041.00,519.30
             2041.00,519.30 2036.00,519.30 2036.00,519.30
             2036.00,519.30 2025.00,515.38 2025.00,515.38
             2025.00,515.38 2016.00,514.38 2016.00,514.38
             2016.00,514.38 2007.00,512.32 2007.00,512.32
             2007.00,512.32 1997.00,511.06 1997.00,511.06
             1997.00,511.06 1988.00,509.17 1988.00,509.17
             1988.00,509.17 1970.00,507.41 1970.00,507.41
             1962.57,506.13 1963.16,504.69 1957.00,502.09
             1946.85,497.81 1937.12,493.87 1926.00,494.00
             1919.56,494.08 1914.02,496.40 1907.83,497.45
             1907.83,497.45 1893.01,498.11 1893.01,498.11
             1893.01,498.11 1873.00,501.00 1873.00,501.00
             1873.00,501.00 1841.00,502.00 1841.00,502.00
             1841.00,502.00 1820.00,501.25 1820.00,501.25
             1820.00,501.25 1804.91,505.78 1804.91,505.78
             1804.91,505.78 1777.28,512.38 1777.28,512.38
             1777.28,512.38 1766.00,518.21 1766.00,518.21
             1766.00,518.21 1757.44,521.72 1757.44,521.72
             1757.44,521.72 1748.57,529.87 1748.57,529.87
             1745.18,532.94 1742.29,535.61 1737.99,537.29
             1734.36,538.71 1729.06,538.90 1728.00,543.00 Z
           M 2162.00,562.00
           C 2162.00,562.00 2162.00,563.00 2162.00,563.00
             2162.00,563.00 2161.00,562.00 2161.00,562.00
             2161.00,562.00 2162.00,562.00 2162.00,562.00 Z
           M 1455.00,749.00
           C 1455.00,749.00 1455.00,750.00 1455.00,750.00
             1455.00,750.00 1454.00,749.00 1454.00,749.00
             1454.00,749.00 1455.00,749.00 1455.00,749.00 Z
           M 1379.00,959.00
           C 1379.00,959.00 1379.00,960.00 1379.00,960.00
             1379.00,960.00 1378.00,959.00 1378.00,959.00
             1378.00,959.00 1379.00,959.00 1379.00,959.00 Z
           M 1379.00,972.00
           C 1379.00,972.00 1379.00,973.00 1379.00,973.00
             1379.00,973.00 1378.00,972.00 1378.00,972.00
             1378.00,972.00 1379.00,972.00 1379.00,972.00 Z
           M 1374.00,1007.00
           C 1374.00,1007.00 1374.00,1008.00 1374.00,1008.00
             1374.00,1008.00 1375.00,1007.00 1375.00,1007.00
             1375.00,1007.00 1374.00,1007.00 1374.00,1007.00 Z
           M 1373.00,1010.00
           C 1373.00,1010.00 1373.00,1016.00 1373.00,1016.00
             1373.00,1016.00 1373.00,1010.00 1373.00,1010.00 Z
           M 1380.00,1066.00
           C 1380.00,1066.00 1380.00,1072.00 1380.00,1072.00
             1378.50,1069.24 1378.67,1068.82 1380.00,1066.00 Z
           M 2445.00,1268.00
           C 2445.00,1268.00 2445.00,1269.00 2445.00,1269.00
             2445.00,1269.00 2444.00,1268.00 2444.00,1268.00
             2444.00,1268.00 2445.00,1268.00 2445.00,1268.00 Z
           M 2488.00,1312.00
           C 2488.00,1312.00 2488.00,1313.00 2488.00,1313.00
             2488.00,1313.00 2489.00,1312.00 2489.00,1312.00
             2489.00,1312.00 2488.00,1312.00 2488.00,1312.00 Z
           M 1309.00,1320.00
           C 1309.00,1320.00 1309.00,1321.00 1309.00,1321.00
             1309.00,1321.00 1308.00,1320.00 1308.00,1320.00
             1308.00,1320.00 1309.00,1320.00 1309.00,1320.00 Z
           M 1329.00,1471.00
           C 1329.00,1471.00 1329.00,1472.00 1329.00,1472.00
             1329.00,1472.00 1328.00,1471.00 1328.00,1471.00
             1328.00,1471.00 1329.00,1471.00 1329.00,1471.00 Z
           M 1361.00,1636.00
           C 1361.00,1636.00 1361.00,1637.00 1361.00,1637.00
             1361.00,1637.00 1360.00,1636.00 1360.00,1636.00
             1360.00,1636.00 1361.00,1636.00 1361.00,1636.00 Z
           M 2365.00,1819.00
           C 2365.00,1819.00 2365.00,1822.00 2365.00,1822.00
             2365.00,1822.00 2368.00,1822.00 2368.00,1822.00
             2368.00,1822.00 2368.00,1819.00 2368.00,1819.00
             2368.00,1819.00 2365.00,1819.00 2365.00,1819.00 Z
           M 2368.00,1823.00
           C 2368.00,1823.00 2368.00,1824.00 2368.00,1824.00
             2368.00,1824.00 2369.00,1823.00 2369.00,1823.00
             2369.00,1823.00 2368.00,1823.00 2368.00,1823.00 Z
           M 2368.00,1831.00
           C 2368.00,1831.00 2368.00,1832.00 2368.00,1832.00
             2368.00,1832.00 2367.00,1831.00 2367.00,1831.00
             2367.00,1831.00 2368.00,1831.00 2368.00,1831.00 Z
           M 2369.00,1832.00
           C 2369.00,1832.00 2370.00,1840.00 2370.00,1840.00
             2370.00,1840.00 2369.00,1834.00 2369.00,1834.00
             2369.00,1834.00 2367.00,1835.00 2367.00,1835.00
             2367.00,1835.00 2369.00,1832.00 2369.00,1832.00 Z
           M 2371.00,1832.00
           C 2371.00,1832.00 2371.00,1833.00 2371.00,1833.00
             2371.00,1833.00 2370.00,1832.00 2370.00,1832.00
             2370.00,1832.00 2371.00,1832.00 2371.00,1832.00 Z
           M 2379.00,1958.00
           C 2379.00,1958.00 2379.00,1959.00 2379.00,1959.00
             2379.00,1959.00 2378.00,1958.00 2378.00,1958.00
             2378.00,1958.00 2379.00,1958.00 2379.00,1958.00 Z
           M 2446.00,1980.00
           C 2446.00,1980.00 2446.00,1981.00 2446.00,1981.00
             2446.00,1981.00 2447.00,1980.00 2447.00,1980.00
             2447.00,1980.00 2446.00,1980.00 2446.00,1980.00 Z
           M 2456.00,1984.00
           C 2456.00,1984.00 2456.00,1985.00 2456.00,1985.00
             2456.00,1985.00 2457.00,1984.00 2457.00,1984.00
             2457.00,1984.00 2456.00,1984.00 2456.00,1984.00 Z
           M 1381.00,1986.00
           C 1381.00,1986.00 1381.00,1987.00 1381.00,1987.00
             1381.00,1987.00 1380.00,1986.00 1380.00,1986.00
             1380.00,1986.00 1381.00,1986.00 1381.00,1986.00 Z
           M 1363.00,1995.00
           C 1363.00,1995.00 1361.00,1997.00 1361.00,1997.00
             1361.00,1997.00 1361.00,1998.00 1361.00,1998.00
             1361.00,1998.00 1363.00,1995.00 1363.00,1995.00 Z
           M 2505.00,1996.00
           C 2505.00,1996.00 2508.00,1999.00 2508.00,1999.00
             2505.76,1998.25 2505.24,1998.44 2505.00,1996.00 Z
           M 2631.00,2034.00
           C 2631.00,2034.00 2631.00,2035.00 2631.00,2035.00
             2631.00,2035.00 2630.00,2034.00 2630.00,2034.00
             2630.00,2034.00 2631.00,2034.00 2631.00,2034.00 Z
           M 2776.00,2083.00
           C 2776.00,2083.00 2776.00,2084.00 2776.00,2084.00
             2776.00,2084.00 2775.00,2083.00 2775.00,2083.00
             2775.00,2083.00 2776.00,2083.00 2776.00,2083.00 Z
           M 959.00,2158.00
           C 959.00,2158.00 955.00,2159.00 955.00,2159.00
             955.00,2159.00 959.00,2158.00 959.00,2158.00 Z
           M 943.00,2163.00
           C 943.00,2163.00 943.00,2164.00 943.00,2164.00
             943.00,2164.00 942.00,2163.00 942.00,2163.00
             942.00,2163.00 943.00,2163.00 943.00,2163.00 Z
           M 895.00,2179.00
           C 895.00,2179.00 895.00,2180.00 895.00,2180.00
             895.00,2180.00 894.00,2179.00 894.00,2179.00
             894.00,2179.00 895.00,2179.00 895.00,2179.00 Z
           M 3058.00,2205.00
           C 3058.00,2205.00 3064.00,2206.00 3064.00,2206.00
             3064.00,2206.00 3057.00,2206.00 3057.00,2206.00
             3057.00,2206.00 3058.00,2205.00 3058.00,2205.00 Z
           M 3096.00,2222.00
           C 3096.00,2222.00 3096.00,2223.00 3096.00,2223.00
             3096.00,2223.00 3095.00,2222.00 3095.00,2222.00
             3095.00,2222.00 3096.00,2222.00 3096.00,2222.00 Z
           M 3112.00,2229.00
           C 3112.00,2229.00 3112.00,2230.00 3112.00,2230.00
             3112.00,2230.00 3113.00,2229.00 3113.00,2229.00
             3113.00,2229.00 3112.00,2229.00 3112.00,2229.00 Z
           M 3140.00,2243.00
           C 3140.00,2243.00 3140.00,2244.00 3140.00,2244.00
             3140.00,2244.00 3141.00,2243.00 3141.00,2243.00
             3141.00,2243.00 3140.00,2243.00 3140.00,2243.00 Z
           M 3154.00,2250.00
           C 3154.00,2250.00 3154.00,2251.00 3154.00,2251.00
             3154.00,2251.00 3153.00,2250.00 3153.00,2250.00
             3153.00,2250.00 3154.00,2250.00 3154.00,2250.00 Z
           M 3160.00,2253.00
           C 3160.00,2253.00 3160.00,2254.00 3160.00,2254.00
             3160.00,2254.00 3159.00,2253.00 3159.00,2253.00
             3159.00,2253.00 3160.00,2253.00 3160.00,2253.00 Z
           M 3166.00,2258.00
           C 3166.00,2258.00 3166.00,2259.00 3166.00,2259.00
             3166.00,2259.00 3165.00,2258.00 3165.00,2258.00
             3165.00,2258.00 3166.00,2258.00 3166.00,2258.00 Z
           M 3167.00,2259.00
           C 3167.00,2259.00 3167.00,2260.00 3167.00,2260.00
             3167.00,2260.00 3166.00,2259.00 3166.00,2259.00
             3166.00,2259.00 3167.00,2259.00 3167.00,2259.00 Z
           M 3217.00,2283.00
           C 3217.00,2283.00 3217.00,2284.00 3217.00,2284.00
             3217.00,2284.00 3216.00,2283.00 3216.00,2283.00
             3216.00,2283.00 3217.00,2283.00 3217.00,2283.00 Z
           M 453.00,2417.00
           C 453.00,2417.00 453.00,2418.00 453.00,2418.00
             453.00,2418.00 454.00,2417.00 454.00,2417.00
             454.00,2417.00 453.00,2417.00 453.00,2417.00 Z
           M 3470.00,2481.00
           C 3470.00,2481.00 3470.00,2482.00 3470.00,2482.00
             3470.00,2482.00 3469.00,2481.00 3469.00,2481.00
             3469.00,2481.00 3470.00,2481.00 3470.00,2481.00 Z
           M 360.00,2552.00
           C 360.00,2552.00 360.00,2553.00 360.00,2553.00
             360.00,2553.00 359.00,2552.00 359.00,2552.00
             359.00,2552.00 360.00,2552.00 360.00,2552.00 Z
           M 336.00,2593.00
           C 336.00,2593.00 336.00,2594.00 336.00,2594.00
             336.00,2594.00 337.00,2593.00 337.00,2593.00
             337.00,2593.00 336.00,2593.00 336.00,2593.00 Z" />
</svg>
