<?xml version="1.0" encoding="UTF-8" standalone="no"?>
<!DOCTYPE svg PUBLIC "-//W3C//DTD SVG 20010904//EN"
              "http://www.w3.org/TR/2001/REC-SVG-20010904/DTD/svg10.dtd">

<svg xmlns="http://www.w3.org/2000/svg"
     width="11.6367in" height="15.2733in"
     viewBox="0 0 3491 4582">
  <path id="face"
        fill="none" stroke="black" stroke-width="1"
        d="M 1759.00,451.00
           C 1752.84,452.01 1738.59,462.22 1732.00,465.13
             1732.00,465.13 1706.00,471.78 1706.00,471.78
             1706.00,471.78 1699.00,474.68 1699.00,474.68
             1699.00,474.68 1691.00,476.74 1691.00,476.74
             1676.44,481.54 1676.14,483.47 1659.83,483.10
             1647.15,482.82 1647.99,487.48 1640.00,486.00
             1634.70,492.55 1633.37,489.89 1626.83,491.88
             1623.43,492.91 1620.13,495.25 1617.00,497.00
             1615.48,502.55 1606.00,506.32 1601.00,508.49
             1601.00,508.49 1587.00,515.88 1587.00,515.88
             1587.00,515.88 1582.17,518.09 1582.17,518.09
             1582.17,518.09 1576.91,521.74 1576.91,521.74
             1576.91,521.74 1571.09,524.11 1571.09,524.11
             1571.09,524.11 1562.00,528.83 1562.00,528.83
             1562.00,528.83 1554.00,534.06 1554.00,534.06
             1554.00,534.06 1547.00,536.85 1547.00,536.85
             1547.00,536.85 1539.00,542.96 1539.00,542.96
             1539.00,542.96 1514.04,555.26 1514.04,555.26
             1514.04,555.26 1505.96,560.89 1505.96,560.89
             1505.96,560.89 1489.00,569.52 1489.00,569.52
             1489.00,569.52 1480.00,575.95 1480.00,575.95
             1480.00,575.95 1463.09,586.10 1463.09,586.10
             1463.09,586.10 1442.26,602.46 1442.26,602.46
             1442.26,602.46 1438.55,606.56 1438.55,606.56
             1438.55,606.56 1433.14,611.13 1433.14,611.13
             1430.43,613.94 1430.03,616.08 1427.74,618.91
             1427.74,618.91 1421.79,625.32 1421.79,625.32
             1421.79,625.32 1407.80,645.96 1407.80,645.96
             1404.45,651.21 1401.37,652.03 1401.00,659.00
             1401.00,659.00 1396.65,661.51 1396.65,661.51
             1396.65,661.51 1386.80,684.00 1386.80,684.00
             1386.80,684.00 1380.70,698.00 1380.70,698.00
             1380.70,698.00 1372.23,725.00 1372.23,725.00
             1372.23,725.00 1368.62,734.00 1368.62,734.00
             1368.62,734.00 1366.91,741.00 1366.91,741.00
             1366.91,741.00 1358.69,763.00 1358.69,763.00
             1358.69,763.00 1349.81,782.00 1349.81,782.00
             1349.81,782.00 1345.99,796.00 1345.99,796.00
             1345.99,796.00 1343.52,802.00 1343.52,802.00
             1343.52,802.00 1342.19,806.72 1342.19,806.72
             1342.19,806.72 1339.22,813.01 1339.22,813.01
             1339.22,813.01 1337.10,822.00 1337.10,822.00
             1337.10,822.00 1331.48,838.00 1331.48,838.00
             1331.48,838.00 1326.95,857.99 1326.95,857.99
             1326.95,857.99 1324.21,865.17 1324.21,865.17
             1324.21,865.17 1322.79,875.00 1322.79,875.00
             1322.79,875.00 1320.27,883.00 1320.27,883.00
             1320.27,883.00 1317.20,904.00 1317.20,904.00
             1317.20,904.00 1314.54,914.00 1314.54,914.00
             1314.54,914.00 1310.71,943.00 1310.71,943.00
             1310.71,943.00 1308.00,960.00 1308.00,960.00
             1308.00,960.00 1308.00,976.00 1308.00,976.00
             1308.00,976.00 1307.00,996.00 1307.00,996.00
             1307.00,996.00 1306.00,994.00 1306.00,994.00
             1306.00,994.00 1306.00,1020.00 1306.00,1020.00
             1306.00,1020.00 1304.70,1044.00 1304.70,1044.00
             1304.70,1044.00 1304.70,1059.00 1304.70,1059.00
             1304.70,1059.00 1304.70,1070.00 1304.70,1070.00
             1304.70,1070.00 1299.38,1090.00 1299.38,1090.00
             1299.38,1090.00 1297.47,1103.00 1297.47,1103.00
             1297.47,1103.00 1295.38,1110.00 1295.38,1110.00
             1295.38,1110.00 1293.00,1121.00 1293.00,1121.00
             1293.00,1121.00 1289.04,1160.00 1289.04,1160.00
             1289.04,1160.00 1291.44,1188.00 1291.44,1188.00
             1291.44,1188.00 1294.40,1197.00 1294.40,1197.00
             1294.40,1197.00 1295.94,1206.00 1295.94,1206.00
             1295.94,1206.00 1298.33,1213.00 1298.33,1213.00
             1298.33,1213.00 1297.00,1227.00 1297.00,1227.00
             1297.00,1227.00 1299.00,1222.00 1299.00,1222.00
             1299.00,1222.00 1301.00,1222.00 1301.00,1222.00
             1301.00,1222.00 1303.49,1230.00 1303.49,1230.00
             1303.49,1230.00 1306.36,1261.00 1306.36,1261.00
             1306.36,1261.00 1306.96,1270.00 1306.96,1270.00
             1306.96,1270.00 1305.58,1280.00 1305.58,1280.00
             1305.58,1280.00 1305.58,1290.00 1305.58,1290.00
             1305.58,1290.00 1302.00,1315.00 1302.00,1315.00
             1302.00,1315.00 1302.00,1324.00 1302.00,1324.00
             1302.00,1324.00 1300.30,1337.00 1300.30,1337.00
             1300.30,1337.00 1299.00,1351.00 1299.00,1351.00
             1299.00,1351.00 1304.00,1352.00 1304.00,1352.00
             1304.00,1352.00 1305.00,1349.00 1305.00,1349.00
             1308.54,1361.47 1302.25,1361.49 1305.00,1372.00
             1300.93,1373.34 1301.91,1382.28 1301.55,1386.00
             1301.55,1386.00 1301.04,1390.41 1301.04,1390.41
             1301.37,1391.85 1302.77,1391.90 1303.00,1392.00
             1300.48,1396.18 1303.33,1405.53 1303.00,1411.00
             1303.00,1411.00 1301.00,1408.00 1301.00,1408.00
             1301.00,1408.00 1295.01,1419.98 1295.01,1419.98
             1295.01,1419.98 1288.98,1428.04 1288.98,1428.04
             1286.36,1432.83 1283.10,1447.27 1282.77,1453.04
             1282.77,1453.04 1282.77,1465.00 1282.77,1465.00
             1282.77,1465.00 1284.10,1484.00 1284.10,1484.00
             1284.10,1484.00 1284.10,1492.00 1284.10,1492.00
             1286.38,1508.12 1287.78,1502.26 1288.00,1522.00
             1288.00,1522.00 1291.52,1556.00 1291.52,1556.00
             1291.52,1556.00 1298.26,1579.00 1298.26,1579.00
             1298.26,1579.00 1300.61,1589.00 1300.61,1589.00
             1300.61,1589.00 1304.61,1598.00 1304.61,1598.00
             1306.37,1602.98 1305.85,1606.55 1308.62,1612.91
             1308.62,1612.91 1311.44,1618.17 1311.44,1618.17
             1311.44,1618.17 1317.48,1637.00 1317.48,1637.00
             1319.34,1645.75 1316.08,1639.80 1321.38,1656.00
             1322.54,1659.56 1323.30,1666.71 1326.00,1669.00
             1326.00,1669.00 1325.00,1672.00 1325.00,1672.00
             1327.16,1674.88 1326.83,1675.81 1328.03,1679.00
             1330.06,1684.40 1334.08,1694.12 1334.27,1699.73
             1334.27,1699.73 1336.55,1717.00 1336.55,1717.00
             1336.55,1717.00 1338.55,1723.00 1338.55,1723.00
             1341.43,1732.75 1342.91,1743.22 1348.46,1751.96
             1353.08,1759.23 1357.04,1760.47 1358.87,1763.22
             1360.75,1766.03 1360.70,1768.58 1365.75,1773.72
             1365.75,1773.72 1371.58,1778.11 1371.58,1778.11
             1382.64,1786.79 1389.55,1791.83 1404.00,1792.00
             1404.00,1792.00 1417.00,1792.00 1417.00,1792.00
             1427.46,1792.20 1425.41,1796.92 1429.48,1804.00
             1437.42,1817.81 1432.45,1811.62 1436.18,1822.00
             1436.18,1822.00 1438.95,1829.00 1438.95,1829.00
             1438.95,1829.00 1440.54,1834.83 1440.54,1834.83
             1440.54,1834.83 1443.98,1841.04 1443.98,1841.04
             1443.98,1841.04 1445.69,1847.58 1445.69,1847.58
             1445.69,1847.58 1456.96,1875.00 1456.96,1875.00
             1456.96,1875.00 1467.03,1904.00 1467.03,1904.00
             1467.03,1904.00 1498.20,1957.00 1498.20,1957.00
             1503.77,1966.28 1516.94,1990.32 1523.09,1997.00
             1523.09,1997.00 1568.00,2038.28 1568.00,2038.28
             1568.00,2038.28 1590.00,2057.93 1590.00,2057.93
             1590.00,2057.93 1627.00,2074.01 1627.00,2074.01
             1627.00,2074.01 1685.00,2098.85 1685.00,2098.85
             1685.00,2098.85 1793.00,2147.42 1793.00,2147.42
             1793.00,2147.42 1823.00,2161.00 1823.00,2161.00
             1829.66,2163.88 1831.47,2165.90 1839.00,2166.00
             1839.00,2166.00 1847.00,2166.00 1847.00,2166.00
             1847.00,2166.00 1862.00,2165.00 1862.00,2165.00
             1862.00,2165.00 1886.00,2165.00 1886.00,2165.00
             1886.00,2165.00 1900.00,2164.00 1900.00,2164.00
             1900.00,2164.00 1920.00,2164.00 1920.00,2164.00
             1920.00,2164.00 1935.00,2162.81 1935.00,2162.81
             1935.00,2162.81 1948.00,2162.81 1948.00,2162.81
             1948.00,2162.81 1990.00,2147.69 1990.00,2147.69
             1990.00,2147.69 2041.00,2129.40 2041.00,2129.40
             2041.00,2129.40 2093.00,2105.26 2093.00,2105.26
             2093.00,2105.26 2143.00,2081.78 2143.00,2081.78
             2143.00,2081.78 2164.00,2071.83 2164.00,2071.83
             2164.00,2071.83 2196.00,2050.34 2196.00,2050.34
             2196.00,2050.34 2236.00,2023.24 2236.00,2023.24
             2241.90,2018.81 2248.25,2010.01 2252.88,2004.00
             2252.88,2004.00 2273.40,1978.00 2273.40,1978.00
             2273.40,1978.00 2294.40,1951.00 2294.40,1951.00
             2294.40,1951.00 2311.78,1918.00 2311.78,1918.00
             2311.78,1918.00 2325.31,1892.00 2325.31,1892.00
             2325.31,1892.00 2333.69,1876.00 2333.69,1876.00
             2333.69,1876.00 2344.05,1848.00 2344.05,1848.00
             2344.05,1848.00 2355.05,1818.00 2355.05,1818.00
             2358.27,1809.19 2360.98,1804.61 2361.00,1795.00
             2361.00,1795.00 2361.00,1778.00 2361.00,1778.00
             2361.00,1778.00 2367.75,1735.00 2367.75,1735.00
             2368.41,1731.00 2370.01,1719.00 2371.93,1716.15
             2376.75,1708.99 2391.24,1716.36 2398.00,1716.79
             2398.00,1716.79 2409.00,1715.90 2409.00,1715.90
             2409.00,1715.90 2417.00,1715.90 2417.00,1715.90
             2424.30,1714.74 2431.47,1710.68 2439.00,1711.00
             2439.00,1711.00 2439.00,1710.00 2439.00,1710.00
             2439.00,1710.00 2437.00,1710.00 2437.00,1710.00
             2437.00,1710.00 2454.23,1699.47 2454.23,1699.47
             2454.23,1699.47 2455.00,1697.00 2455.00,1697.00
             2459.35,1694.90 2464.64,1690.18 2467.00,1686.00
             2467.00,1686.00 2475.00,1680.00 2475.00,1680.00
             2475.00,1680.00 2481.46,1661.96 2481.46,1661.96
             2481.46,1661.96 2482.10,1653.04 2482.10,1653.04
             2482.10,1653.04 2484.46,1642.17 2484.46,1642.17
             2484.46,1642.17 2486.35,1634.16 2486.35,1634.16
             2486.35,1634.16 2493.44,1615.00 2493.44,1615.00
             2493.44,1615.00 2497.04,1598.00 2497.04,1598.00
             2502.54,1579.04 2507.76,1560.52 2511.08,1541.00
             2512.16,1534.66 2513.92,1528.46 2514.09,1522.00
             2514.09,1522.00 2514.09,1510.00 2514.09,1510.00
             2514.81,1504.73 2515.91,1505.28 2516.00,1498.00
             2516.00,1498.00 2516.00,1465.00 2516.00,1465.00
             2515.98,1453.96 2514.12,1456.70 2514.00,1448.00
             2514.00,1448.00 2514.00,1398.00 2514.00,1398.00
             2514.00,1398.00 2515.99,1368.00 2515.99,1368.00
             2516.09,1363.25 2514.69,1349.40 2513.38,1345.00
             2511.48,1338.59 2507.42,1331.75 2508.00,1325.00
             2508.00,1325.00 2504.00,1325.00 2504.00,1325.00
             2506.08,1321.06 2507.09,1313.41 2506.08,1309.00
             2506.08,1309.00 2503.84,1302.00 2503.84,1302.00
             2503.84,1302.00 2496.81,1282.00 2496.81,1282.00
             2495.26,1277.54 2496.86,1276.78 2493.18,1268.00
             2493.18,1268.00 2485.52,1252.91 2485.52,1252.91
             2485.52,1252.91 2481.47,1238.99 2481.47,1238.99
             2479.11,1233.30 2473.99,1224.01 2473.05,1218.00
             2473.05,1218.00 2474.18,1205.00 2474.18,1205.00
             2474.18,1205.00 2474.18,1188.00 2474.18,1188.00
             2474.18,1188.00 2474.18,1177.00 2474.18,1177.00
             2474.18,1177.00 2474.18,1155.00 2474.18,1155.00
             2474.18,1155.00 2474.18,1149.00 2474.18,1149.00
             2474.18,1149.00 2471.39,1119.83 2471.39,1119.83
             2471.39,1119.83 2467.43,1099.00 2467.43,1099.00
             2467.43,1099.00 2466.91,1087.00 2466.91,1087.00
             2466.91,1087.00 2464.93,1074.00 2464.93,1074.00
             2464.93,1074.00 2464.93,1059.00 2464.93,1059.00
             2464.93,1059.00 2460.90,1036.04 2460.90,1036.04
             2460.90,1036.04 2460.90,1027.96 2460.90,1027.96
             2460.90,1027.96 2455.63,1002.00 2455.63,1002.00
             2455.63,1002.00 2454.55,994.00 2454.55,994.00
             2454.55,994.00 2452.29,984.42 2452.29,984.42
             2451.31,981.61 2450.34,980.72 2449.52,977.00
             2449.52,977.00 2447.98,967.00 2447.98,967.00
             2447.98,967.00 2444.93,957.00 2444.93,957.00
             2444.93,957.00 2439.62,935.09 2439.62,935.09
             2439.62,935.09 2435.65,926.99 2435.65,926.99
             2435.65,926.99 2434.05,915.09 2434.05,915.09
             2434.05,915.09 2432.04,908.05 2432.04,908.05
             2432.04,908.05 2431.18,899.99 2431.18,899.99
             2431.18,899.99 2427.24,884.00 2427.24,884.00
             2427.24,884.00 2423.71,875.00 2423.71,875.00
             2423.71,875.00 2421.28,860.00 2421.28,860.00
             2419.72,854.62 2416.72,853.71 2414.79,848.00
             2414.79,848.00 2406.46,822.00 2406.46,822.00
             2406.46,822.00 2400.33,808.00 2400.33,808.00
             2400.33,808.00 2395.25,793.00 2395.25,793.00
             2395.25,793.00 2391.41,786.00 2391.41,786.00
             2389.30,781.31 2390.61,779.05 2388.99,775.00
             2388.99,775.00 2384.98,768.00 2384.98,768.00
             2383.75,765.34 2384.19,764.00 2382.44,761.00
             2380.74,758.06 2378.96,756.65 2377.36,753.00
             2377.36,753.00 2374.12,742.00 2374.12,742.00
             2374.12,742.00 2369.37,733.83 2369.37,733.83
             2369.37,733.83 2357.18,707.91 2357.18,707.91
             2354.14,702.40 2354.66,691.11 2350.00,688.00
             2350.00,688.00 2351.00,685.00 2351.00,685.00
             2345.88,681.96 2343.83,674.28 2341.53,669.00
             2341.53,669.00 2330.80,649.00 2330.80,649.00
             2328.49,645.12 2324.02,641.33 2323.00,637.00
             2323.00,637.00 2321.22,636.19 2321.22,636.19
             2321.22,636.19 2314.00,624.00 2314.00,624.00
             2314.00,624.00 2296.91,607.18 2296.91,607.18
             2296.91,607.18 2294.00,607.18 2294.00,607.18
             2294.00,607.18 2293.03,604.35 2293.03,604.35
             2293.03,604.35 2281.72,593.65 2281.72,593.65
             2281.72,593.65 2277.00,591.00 2277.00,591.00
             2277.00,591.00 2278.00,588.00 2278.00,588.00
             2267.41,581.61 2268.53,580.38 2260.00,573.32
             2260.00,573.32 2246.00,562.13 2246.00,562.13
             2246.00,562.13 2237.83,557.09 2237.83,557.09
             2237.83,557.09 2228.72,549.49 2228.72,549.49
             2228.72,549.49 2222.00,545.79 2222.00,545.79
             2222.00,545.79 2206.71,535.09 2206.71,535.09
             2206.71,535.09 2196.00,529.80 2196.00,529.80
             2196.00,529.80 2187.00,523.76 2187.00,523.76
             2183.40,521.86 2181.35,522.33 2178.04,520.28
             2178.04,520.28 2173.58,516.87 2173.58,516.87
             2173.58,516.87 2168.00,513.58 2168.00,513.58
             2168.00,513.58 2161.00,508.14 2161.00,508.14
             2161.00,508.14 2148.00,500.64 2148.00,500.64
             2144.36,498.98 2143.42,499.65 2138.00,496.37
             2138.00,496.37 2118.00,484.13 2118.00,484.13
             2115.55,483.02 2113.52,483.06 2111.00,482.40
             2111.00,482.40 2104.28,480.49 2104.28,480.49
             2104.28,480.49 2081.42,477.91 2081.42,477.91
             2076.80,477.01 2068.56,473.63 2064.00,471.87
             2064.00,471.87 2032.01,462.96 2032.01,462.96
             2032.01,462.96 2022.96,458.43 2022.96,458.43
             2022.96,458.43 2013.09,455.37 2013.09,455.37
             2010.31,454.13 2009.11,452.46 2005.96,451.57
             2005.96,451.57 1998.00,450.66 1998.00,450.66
             1998.00,450.66 1990.00,448.22 1990.00,448.22
             1987.18,447.59 1984.23,447.97 1983.00,445.00
             1977.31,444.49 1971.87,442.29 1966.08,442.67
             1966.08,442.67 1948.00,441.50 1948.00,441.50
             1948.00,441.50 1924.00,437.04 1924.00,437.04
             1924.00,437.04 1900.00,437.04 1900.00,437.04
             1900.00,437.04 1893.00,436.10 1893.00,436.10
             1885.35,435.68 1876.07,438.78 1874.28,438.73
             1874.28,438.73 1859.94,435.21 1859.94,435.21
             1859.94,435.21 1831.00,435.21 1831.00,435.21
             1811.60,435.03 1796.75,438.25 1778.00,442.00
             1770.67,443.47 1762.68,443.67 1759.00,451.00 Z
           M 1304.00,1383.00
           C 1304.00,1383.00 1304.00,1384.00 1304.00,1384.00
             1304.00,1384.00 1303.00,1383.00 1303.00,1383.00
             1303.00,1383.00 1304.00,1383.00 1304.00,1383.00 Z" />
  <path id="profile"
        fill="none" stroke="black" stroke-width="1"
        d="M 1759.00,451.00
           C 1752.84,452.01 1738.59,462.22 1732.00,465.13
             1732.00,465.13 1706.00,471.78 1706.00,471.78
             1706.00,471.78 1699.00,474.68 1699.00,474.68
             1699.00,474.68 1691.00,476.74 1691.00,476.74
             1676.44,481.54 1676.14,483.47 1659.83,483.10
             1647.15,482.82 1647.99,487.48 1640.00,486.00
             1634.70,492.55 1633.37,489.89 1626.83,491.88
             1623.43,492.91 1620.13,495.25 1617.00,497.00
             1615.48,502.55 1606.00,506.32 1601.00,508.49
             1601.00,508.49 1587.00,515.88 1587.00,515.88
             1587.00,515.88 1582.17,518.09 1582.17,518.09
             1582.17,518.09 1576.91,521.74 1576.91,521.74
             1576.91,521.74 1571.09,524.11 1571.09,524.11
             1571.09,524.11 1562.00,528.83 1562.00,528.83
             1562.00,528.83 1554.00,534.06 1554.00,534.06
             1554.00,534.06 1547.00,536.85 1547.00,536.85
             1547.00,536.85 1539.00,542.96 1539.00,542.96
             1539.00,542.96 1514.04,555.26 1514.04,555.26
             1514.04,555.26 1505.96,560.89 1505.96,560.89
             1505.96,560.89 1489.00,569.52 1489.00,569.52
             1489.00,569.52 1480.00,575.95 1480.00,575.95
             1480.00,575.95 1463.09,586.10 1463.09,586.10
             1463.09,586.10 1442.26,602.46 1442.26,602.46
             1442.26,602.46 1438.55,606.56 1438.55,606.56
             1438.55,606.56 1433.14,611.13 1433.14,611.13
             1430.43,613.94 1430.03,616.08 1427.74,618.91
             1427.74,618.91 1421.79,625.32 1421.79,625.32
             1421.79,625.32 1407.80,645.96 1407.80,645.96
             1404.45,651.21 1401.37,652.03 1401.00,659.00
             1401.00,659.00 1396.65,661.51 1396.65,661.51
             1396.65,661.51 1386.80,684.00 1386.80,684.00
             1386.80,684.00 1380.70,698.00 1380.70,698.00
             1380.70,698.00 1372.23,725.00 1372.23,725.00
             1372.23,725.00 1368.62,734.00 1368.62,734.00
             1368.62,734.00 1366.91,741.00 1366.91,741.00
             1366.91,741.00 1358.69,763.00 1358.69,763.00
             1358.69,763.00 1349.81,782.00 1349.81,782.00
             1349.81,782.00 1345.99,796.00 1345.99,796.00
             1345.99,796.00 1343.52,802.00 1343.52,802.00
             1343.52,802.00 1342.19,806.72 1342.19,806.72
             1342.19,806.72 1339.22,813.01 1339.22,813.01
             1339.22,813.01 1337.10,822.00 1337.10,822.00
             1337.10,822.00 1331.48,838.00 1331.48,838.00
             1331.48,838.00 1326.95,857.99 1326.95,857.99
             1326.95,857.99 1324.21,865.17 1324.21,865.17
             1324.21,865.17 1322.79,875.00 1322.79,875.00
             1322.79,875.00 1320.27,883.00 1320.27,883.00
             1320.27,883.00 1317.20,904.00 1317.20,904.00
             1317.20,904.00 1314.54,914.00 1314.54,914.00
             1314.54,914.00 1310.71,943.00 1310.71,943.00
             1310.71,943.00 1308.00,960.00 1308.00,960.00
             1308.00,960.00 1308.00,976.00 1308.00,976.00
             1308.00,976.00 1307.00,996.00 1307.00,996.00
             1307.00,996.00 1306.00,994.00 1306.00,994.00
             1306.00,994.00 1306.00,1020.00 1306.00,1020.00
             1306.00,1020.00 1304.70,1044.00 1304.70,1044.00
             1304.70,1044.00 1304.70,1059.00 1304.70,1059.00
             1304.70,1059.00 1304.70,1070.00 1304.70,1070.00
             1304.70,1070.00 1299.38,1090.00 1299.38,1090.00
             1299.38,1090.00 1297.47,1103.00 1297.47,1103.00
             1297.47,1103.00 1295.38,1110.00 1295.38,1110.00
             1295.38,1110.00 1293.00,1121.00 1293.00,1121.00
             1293.00,1121.00 1289.04,1160.00 1289.04,1160.00
             1289.04,1160.00 1291.44,1188.00 1291.44,1188.00
             1291.44,1188.00 1294.40,1197.00 1294.40,1197.00
             1294.40,1197.00 1295.94,1206.00 1295.94,1206.00
             1295.94,1206.00 1298.33,1213.00 1298.33,1213.00
             1298.33,1213.00 1297.00,1227.00 1297.00,1227.00
             1297.00,1227.00 1299.00,1222.00 1299.00,1222.00
             1299.00,1222.00 1301.00,1222.00 1301.00,1222.00
             1301.00,1222.00 1303.49,1230.00 1303.49,1230.00
             1303.49,1230.00 1306.36,1261.00 1306.36,1261.00
             1306.36,1261.00 1306.96,1270.00 1306.96,1270.00
             1306.96,1270.00 1305.58,1280.00 1305.58,1280.00
             1305.58,1280.00 1305.58,1290.00 1305.58,1290.00
             1305.58,1290.00 1302.00,1315.00 1302.00,1315.00
             1302.00,1315.00 1302.00,1324.00 1302.00,1324.00
             1302.00,1324.00 1300.30,1337.00 1300.30,1337.00
             1300.30,1337.00 1299.00,1351.00 1299.00,1351.00
             1299.00,1351.00 1304.00,1352.00 1304.00,1352.00
             1304.00,1352.00 1305.00,1349.00 1305.00,1349.00
             1308.54,1361.47 1302.25,1361.49 1305.00,1372.00
             1300.93,1373.34 1301.91,1382.28 1301.55,1386.00
             1301.55,1386.00 1301.04,1390.41 1301.04,1390.41
             1301.37,1391.85 1302.77,1391.90 1303.00,1392.00
             1300.48,1396.18 1303.33,1405.53 1303.00,1411.00
             1303.00,1411.00 1301.00,1408.00 1301.00,1408.00
             1301.00,1408.00 1295.01,1419.98 1295.01,1419.98
             1295.01,1419.98 1288.98,1428.04 1288.98,1428.04
             1286.36,1432.83 1283.10,1447.27 1282.77,1453.04
             1282.77,1453.04 1282.77,1465.00 1282.77,1465.00
             1282.77,1465.00 1284.10,1484.00 1284.10,1484.00
             1284.10,1484.00 1284.10,1492.00 1284.10,1492.00
             1286.38,1508.12 1287.78,1502.26 1288.00,1522.00
             1288.00,1522.00 1291.52,1556.00 1291.52,1556.00
             1291.52,1556.00 1298.26,1579.00 1298.26,1579.00
             1298.26,1579.00 1300.61,1589.00 1300.61,1589.00
             1300.61,1589.00 1304.61,1598.00 1304.61,1598.00
             1306.37,1602.98 1305.85,1606.55 1308.62,1612.91
             1308.62,1612.91 1311.44,1618.17 1311.44,1618.17
             1311.44,1618.17 1317.48,1637.00 1317.48,1637.00
             1319.34,1645.75 1316.08,1639.80 1321.38,1656.00
             1322.54,1659.56 1323.30,1666.71 1326.00,1669.00
             1326.00,1669.00 1325.00,1672.00 1325.00,1672.00
             1327.62,1675.49 1334.11,1695.08 1334.27,1699.73
             1334.27,1699.73 1336.80,1718.00 1336.80,1718.00
             1336.80,1718.00 1338.82,1724.00 1338.82,1724.00
             1341.19,1733.22 1343.70,1745.04 1349.09,1752.91
             1353.54,1759.41 1356.64,1760.38 1358.29,1762.41
             1360.23,1764.79 1360.52,1768.40 1365.75,1773.72
             1365.75,1773.72 1371.58,1778.11 1371.58,1778.11
             1382.64,1786.79 1389.55,1791.83 1404.00,1792.00
             1404.00,1792.00 1417.00,1792.00 1417.00,1792.00
             1427.46,1792.20 1425.41,1796.92 1429.48,1804.00
             1437.42,1817.81 1432.45,1811.62 1436.18,1822.00
             1436.18,1822.00 1438.95,1829.00 1438.95,1829.00
             1438.95,1829.00 1440.54,1834.83 1440.54,1834.83
             1440.54,1834.83 1443.98,1841.04 1443.98,1841.04
             1443.98,1841.04 1445.69,1847.58 1445.69,1847.58
             1445.69,1847.58 1456.58,1874.00 1456.58,1874.00
             1456.58,1874.00 1461.77,1890.00 1461.77,1890.00
             1461.77,1890.00 1465.92,1901.00 1465.92,1901.00
             1465.92,1901.00 1465.92,1910.72 1465.92,1910.72
             1465.92,1910.72 1466.43,1929.00 1466.43,1929.00
             1466.43,1929.00 1465.78,1949.00 1465.78,1949.00
             1465.78,1949.00 1467.00,1960.00 1467.00,1960.00
             1467.00,1960.00 1467.00,1976.00 1467.00,1976.00
             1467.00,1976.00 1468.04,1993.00 1468.04,1993.00
             1468.04,1993.00 1469.40,2012.00 1469.40,2012.00
             1470.37,2019.15 1471.02,2015.37 1470.51,2024.00
             1470.51,2024.00 1471.96,2044.00 1471.96,2044.00
             1471.96,2044.00 1471.10,2057.00 1471.10,2057.00
             1471.10,2057.00 1472.04,2067.00 1472.04,2067.00
             1472.04,2067.00 1472.04,2077.00 1472.04,2077.00
             1472.04,2077.00 1473.00,2089.00 1473.00,2089.00
             1473.00,2089.00 1473.00,2127.00 1473.00,2127.00
             1473.00,2127.00 1472.02,2141.00 1472.02,2141.00
             1472.02,2141.00 1473.00,2154.00 1473.00,2154.00
             1473.00,2154.00 1473.00,2174.00 1473.00,2174.00
             1473.00,2174.00 1474.24,2188.00 1474.24,2188.00
             1474.24,2188.00 1474.24,2227.17 1474.24,2227.17
             1474.87,2231.08 1475.85,2244.85 1474.24,2247.79
             1472.62,2250.54 1465.10,2251.97 1462.00,2253.00
             1462.00,2253.00 1463.00,2255.00 1463.00,2255.00
             1463.00,2255.00 1455.00,2256.71 1455.00,2256.71
             1455.00,2256.71 1445.04,2262.52 1445.04,2262.52
             1445.04,2262.52 1436.02,2266.29 1436.02,2266.29
             1436.02,2266.29 1425.00,2272.88 1425.00,2272.88
             1419.45,2276.01 1414.58,2281.09 1408.00,2282.00
             1408.00,2282.00 1408.00,2286.00 1408.00,2286.00
             1396.66,2289.25 1399.63,2288.22 1389.00,2293.26
             1385.39,2294.98 1383.00,2294.72 1382.00,2299.00
             1382.00,2299.00 1369.00,2305.97 1369.00,2305.97
             1363.08,2308.13 1361.30,2305.27 1359.00,2311.00
             1353.32,2309.90 1350.33,2312.18 1345.09,2314.06
             1345.09,2314.06 1337.96,2315.94 1337.96,2315.94
             1333.98,2317.22 1330.44,2319.57 1326.72,2321.41
             1326.72,2321.41 1316.04,2325.62 1316.04,2325.62
             1316.04,2325.62 1308.91,2329.41 1308.91,2329.41
             1308.91,2329.41 1291.00,2336.80 1291.00,2336.80
             1291.00,2336.80 1285.00,2340.24 1285.00,2340.24
             1285.00,2340.24 1278.00,2342.88 1278.00,2342.88
             1271.56,2345.79 1272.16,2347.26 1264.00,2348.00
             1260.60,2353.69 1245.45,2358.16 1239.09,2360.44
             1234.27,2362.16 1232.75,2363.69 1228.72,2366.34
             1228.72,2366.34 1223.17,2369.23 1223.17,2369.23
             1214.21,2374.41 1211.55,2377.84 1200.00,2380.00
             1196.85,2385.67 1182.07,2392.57 1176.00,2395.96
             1176.00,2395.96 1166.00,2402.27 1166.00,2402.27
             1166.00,2402.27 1151.01,2409.44 1151.01,2409.44
             1151.01,2409.44 1142.91,2415.03 1142.91,2415.03
             1142.91,2415.03 1136.45,2417.30 1136.45,2417.30
             1134.61,2418.38 1133.92,2419.90 1130.95,2421.45
             1125.44,2424.31 1119.41,2423.86 1117.04,2425.24
             1114.01,2426.99 1113.90,2429.64 1110.78,2432.03
             1110.78,2432.03 1092.18,2440.78 1092.18,2440.78
             1090.43,2441.11 1089.75,2441.02 1088.00,2440.78
             1088.00,2440.78 1081.83,2445.46 1081.83,2445.46
             1072.54,2452.36 1072.35,2453.43 1061.00,2457.45
             1055.50,2459.39 1054.65,2456.90 1046.17,2461.35
             1046.17,2461.35 1025.00,2472.43 1025.00,2472.43
             1021.77,2474.02 1018.19,2474.88 1015.18,2476.93
             1011.36,2479.54 1009.43,2483.78 1005.96,2486.78
             1002.19,2490.03 1000.54,2489.43 997.00,2491.29
             997.00,2491.29 991.00,2495.12 991.00,2495.12
             991.00,2495.12 976.00,2502.32 976.00,2502.32
             970.18,2504.16 962.57,2505.47 959.00,2511.00
             950.14,2510.16 948.37,2512.73 940.91,2516.15
             940.91,2516.15 927.00,2521.80 927.00,2521.80
             927.00,2521.80 918.00,2526.68 918.00,2526.68
             912.56,2529.46 911.22,2528.51 907.00,2530.41
             907.00,2530.41 899.00,2534.87 899.00,2534.87
             899.00,2534.87 891.00,2538.08 891.00,2538.08
             891.00,2538.08 882.00,2542.67 882.00,2542.67
             882.00,2542.67 873.00,2545.02 873.00,2545.02
             873.00,2545.02 864.42,2551.38 864.42,2551.38
             864.42,2551.38 842.17,2562.64 842.17,2562.64
             842.17,2562.64 834.00,2567.47 834.00,2567.47
             834.00,2567.47 826.09,2570.72 826.09,2570.72
             821.26,2573.86 821.74,2576.49 815.00,2577.00
             810.20,2580.74 797.24,2584.77 795.37,2586.09
             795.37,2586.09 789.90,2591.41 789.90,2591.41
             789.90,2591.41 765.00,2604.69 765.00,2604.69
             765.00,2604.69 757.29,2608.19 757.29,2608.19
             757.29,2608.19 749.83,2613.22 749.83,2613.22
             749.83,2613.22 736.00,2620.46 736.00,2620.46
             736.00,2620.46 727.00,2626.37 727.00,2626.37
             727.00,2626.37 716.00,2630.87 716.00,2630.87
             716.00,2630.87 703.91,2639.18 703.91,2639.18
             699.34,2641.31 689.80,2645.13 687.00,2649.00
             679.96,2649.58 675.50,2653.76 669.91,2657.21
             669.91,2657.21 663.04,2660.68 663.04,2660.68
             663.04,2660.68 656.85,2664.74 656.85,2664.74
             656.85,2664.74 652.42,2666.90 652.42,2666.90
             652.42,2666.90 646.99,2671.19 646.99,2671.19
             646.99,2671.19 640.00,2675.22 640.00,2675.22
             640.00,2675.22 631.01,2682.01 631.01,2682.01
             631.01,2682.01 619.04,2688.89 619.04,2688.89
             619.04,2688.89 613.72,2693.02 613.72,2693.02
             610.60,2694.88 607.55,2694.18 603.13,2696.85
             603.13,2696.85 592.17,2705.77 592.17,2705.77
             592.17,2705.77 580.18,2713.45 580.18,2713.45
             580.18,2713.45 574.68,2718.09 574.68,2718.09
             574.68,2718.09 565.09,2722.87 565.09,2722.87
             565.09,2722.87 559.49,2727.47 559.49,2727.47
             559.49,2727.47 554.16,2730.56 554.16,2730.56
             548.38,2734.74 541.62,2741.92 535.00,2744.51
             535.00,2744.51 528.00,2746.00 528.00,2746.00
             528.00,2746.00 528.00,2752.00 528.00,2752.00
             526.32,2752.16 524.85,2752.20 523.26,2752.87
             523.26,2752.87 507.09,2763.46 507.09,2763.46
             507.09,2763.46 502.72,2767.37 502.72,2767.37
             502.72,2767.37 495.01,2772.64 495.01,2772.64
             495.01,2772.64 484.03,2780.49 484.03,2780.49
             484.03,2780.49 465.66,2797.87 465.66,2797.87
             460.25,2803.59 451.07,2805.86 451.00,2815.00
             451.00,2815.00 444.00,2818.00 444.00,2818.00
             444.00,2818.00 430.55,2833.55 430.55,2833.55
             430.55,2833.55 422.04,2841.51 422.04,2841.51
             422.04,2841.51 416.55,2849.30 416.55,2849.30
             416.55,2849.30 403.71,2862.81 403.71,2862.81
             398.90,2867.55 389.74,2869.40 388.00,2878.00
             377.56,2882.02 381.46,2879.72 373.00,2887.00
             373.15,2896.54 364.50,2910.74 375.98,2917.00
             375.98,2917.00 375.98,2926.00 375.98,2926.00
             375.98,2926.00 368.63,2938.29 368.63,2938.29
             368.63,2938.29 356.50,2955.95 356.50,2955.95
             356.50,2955.95 351.89,2961.45 351.89,2961.45
             351.89,2961.45 348.91,2967.58 348.91,2967.58
             348.91,2967.58 342.20,2978.09 342.20,2978.09
             342.20,2978.09 336.69,2989.00 336.69,2989.00
             336.69,2989.00 325.60,3007.09 325.60,3007.09
             325.60,3007.09 314.13,3028.93 314.13,3028.93
             314.13,3028.93 310.08,3038.00 310.08,3038.00
             310.08,3038.00 301.44,3054.82 301.44,3054.82
             301.44,3054.82 298.00,3058.00 298.00,3058.00
             298.60,3067.23 294.00,3071.85 290.35,3079.17
             288.00,3083.87 287.48,3089.09 286.34,3091.91
             286.34,3091.91 280.70,3103.00 280.70,3103.00
             279.08,3106.94 277.11,3115.48 273.00,3117.00
             273.00,3117.00 271.00,3131.00 271.00,3131.00
             271.00,3131.00 269.11,3131.77 269.11,3131.77
             269.11,3131.77 264.30,3145.00 264.30,3145.00
             264.30,3145.00 259.62,3155.00 259.62,3155.00
             259.62,3155.00 257.69,3162.28 257.69,3162.28
             257.69,3162.28 251.33,3178.00 251.33,3178.00
             251.33,3178.00 246.00,3190.00 246.00,3190.00
             246.00,3190.00 247.00,3193.00 247.00,3193.00
             247.00,3193.00 245.00,3193.00 245.00,3193.00
             245.31,3201.05 242.51,3201.51 240.63,3208.00
             240.63,3208.00 239.01,3217.00 239.01,3217.00
             239.01,3217.00 235.33,3225.00 235.33,3225.00
             235.33,3225.00 226.60,3250.00 226.60,3250.00
             226.60,3250.00 225.25,3257.00 225.25,3257.00
             225.25,3257.00 220.76,3276.00 220.76,3276.00
             220.76,3276.00 218.30,3291.96 218.30,3291.96
             218.30,3291.96 212.04,3310.00 212.04,3310.00
             212.04,3310.00 209.17,3324.00 209.17,3324.00
             209.17,3324.00 204.45,3341.00 204.45,3341.00
             204.45,3341.00 202.57,3356.00 202.57,3356.00
             202.57,3356.00 198.08,3375.00 198.08,3375.00
             198.08,3375.00 195.03,3384.00 195.03,3384.00
             195.03,3384.00 190.96,3406.58 190.96,3406.58
             190.96,3406.58 188.96,3413.00 188.96,3413.00
             188.96,3413.00 187.55,3421.00 187.55,3421.00
             185.76,3427.81 181.44,3439.20 182.00,3446.00
             182.00,3446.00 179.45,3448.27 179.45,3448.27
             179.45,3448.27 175.00,3463.00 175.00,3463.00
             170.84,3464.08 171.43,3467.41 172.00,3471.00
             166.46,3475.09 165.66,3484.81 163.24,3491.00
             163.24,3491.00 158.95,3501.83 158.95,3501.83
             155.76,3508.57 151.97,3514.84 149.67,3522.00
             146.69,3531.24 147.24,3540.12 140.00,3548.00
             140.10,3551.00 139.57,3552.17 139.17,3555.01
             137.39,3567.64 135.78,3563.35 131.62,3573.00
             131.62,3573.00 126.93,3588.00 126.93,3588.00
             124.36,3593.89 121.49,3596.83 122.00,3604.00
             122.00,3604.00 120.00,3604.00 120.00,3604.00
             120.00,3604.00 121.00,3607.00 121.00,3607.00
             116.71,3610.28 117.79,3614.40 116.36,3619.00
             116.36,3619.00 111.99,3630.42 111.99,3630.42
             111.99,3630.42 104.45,3645.28 104.45,3645.28
             104.45,3645.28 98.29,3668.00 98.29,3668.00
             95.94,3674.05 93.80,3674.07 93.00,3681.00
             93.00,3681.00 90.00,3680.00 90.00,3680.00
             91.15,3692.87 83.55,3703.38 82.42,3707.83
             82.42,3707.83 80.43,3717.00 80.43,3717.00
             80.43,3717.00 75.42,3730.00 75.42,3730.00
             75.42,3730.00 68.30,3752.00 68.30,3752.00
             68.30,3752.00 65.10,3760.00 65.10,3760.00
             65.10,3760.00 63.25,3768.00 63.25,3768.00
             63.25,3768.00 57.40,3786.00 57.40,3786.00
             57.40,3786.00 53.80,3794.17 53.80,3794.17
             53.80,3794.17 48.87,3809.00 48.87,3809.00
             47.76,3812.05 48.33,3815.71 45.00,3817.00
             45.00,3817.00 44.00,3819.00 44.00,3819.00
             44.18,3823.56 43.66,3823.71 42.81,3828.00
             42.81,3828.00 41.45,3836.00 41.45,3836.00
             41.45,3836.00 32.97,3858.00 32.97,3858.00
             32.97,3858.00 30.38,3871.00 30.38,3871.00
             30.38,3871.00 19.82,3901.00 19.82,3901.00
             19.82,3901.00 16.93,3912.00 16.93,3912.00
             16.93,3912.00 12.83,3923.00 12.83,3923.00
             12.83,3923.00 10.11,3938.00 10.11,3938.00
             10.11,3938.00 6.83,3947.00 6.83,3947.00
             6.83,3947.00 5.16,3954.00 5.16,3954.00
             1.93,3963.72 0.02,3963.50 0.00,3975.00
             0.00,3975.00 0.00,4450.00 0.00,4450.00
             0.02,4458.85 0.30,4456.67 5.09,4463.17
             5.09,4463.17 8.75,4468.71 8.75,4468.71
             14.16,4475.48 22.60,4478.71 29.84,4482.90
             29.84,4482.90 39.00,4488.97 39.00,4488.97
             47.51,4493.57 60.52,4496.75 70.00,4499.55
             70.00,4499.55 110.00,4510.49 110.00,4510.49
             110.00,4510.49 118.00,4511.26 118.00,4511.26
             118.00,4511.26 130.00,4514.47 130.00,4514.47
             130.00,4514.47 138.00,4517.91 138.00,4517.91
             138.00,4517.91 147.96,4521.25 147.96,4521.25
             147.96,4521.25 155.09,4524.67 155.09,4524.67
             155.09,4524.67 181.00,4534.23 181.00,4534.23
             189.51,4537.50 197.77,4542.17 207.00,4543.00
             207.00,4543.00 205.00,4582.00 205.00,4582.00
             205.00,4582.00 3330.00,4582.00 3330.00,4582.00
             3330.00,4582.00 3324.49,4547.00 3324.49,4547.00
             3324.49,4547.00 3315.89,4513.00 3315.89,4513.00
             3315.89,4513.00 3314.38,4503.00 3314.38,4503.00
             3314.38,4503.00 3307.00,4471.00 3307.00,4471.00
             3307.00,4471.00 3315.28,4475.39 3315.28,4475.39
             3315.28,4475.39 3321.85,4499.00 3321.85,4499.00
             3321.85,4499.00 3333.54,4540.00 3333.54,4540.00
             3333.54,4540.00 3349.00,4582.00 3349.00,4582.00
             3349.00,4582.00 3491.00,4582.00 3491.00,4582.00
             3491.00,4582.00 3491.00,3331.00 3491.00,3331.00
             3491.00,3331.00 3491.00,2925.00 3491.00,2925.00
             3491.00,2925.00 3491.00,2794.00 3491.00,2794.00
             3491.00,2794.00 3491.00,2728.00 3491.00,2728.00
             3491.00,2728.00 3489.00,2715.00 3489.00,2715.00
             3485.66,2712.22 3477.69,2704.90 3476.51,2701.00
             3474.83,2695.41 3477.94,2691.77 3473.56,2683.00
             3470.22,2676.32 3463.39,2670.84 3464.00,2663.00
             3464.00,2663.00 3452.44,2657.07 3452.44,2657.07
             3452.44,2657.07 3443.95,2649.58 3443.95,2649.58
             3443.95,2649.58 3432.99,2646.44 3432.99,2646.44
             3432.99,2646.44 3426.04,2645.26 3426.04,2645.26
             3426.04,2645.26 3415.00,2637.00 3415.00,2637.00
             3415.00,2637.00 3411.00,2638.00 3411.00,2638.00
             3410.01,2634.53 3407.98,2635.42 3405.09,2633.86
             3405.09,2633.86 3400.72,2630.60 3400.72,2630.60
             3397.30,2628.13 3392.02,2626.39 3388.00,2625.00
             3388.00,2625.00 3389.00,2623.00 3389.00,2623.00
             3389.00,2623.00 3375.21,2616.78 3375.21,2616.78
             3375.21,2616.78 3369.80,2612.20 3369.80,2612.20
             3369.80,2612.20 3358.99,2606.33 3358.99,2606.33
             3358.99,2606.33 3344.42,2596.27 3344.42,2596.27
             3344.42,2596.27 3338.99,2593.79 3338.99,2593.79
             3338.99,2593.79 3325.17,2586.12 3325.17,2586.12
             3325.17,2586.12 3313.55,2576.26 3313.55,2576.26
             3313.55,2576.26 3297.00,2569.31 3297.00,2569.31
             3297.00,2569.31 3290.00,2563.75 3290.00,2563.75
             3290.00,2563.75 3282.21,2559.20 3282.21,2559.20
             3282.21,2559.20 3277.63,2555.00 3277.63,2555.00
             3277.63,2555.00 3263.01,2549.79 3263.01,2549.79
             3263.01,2549.79 3251.71,2540.87 3251.71,2540.87
             3251.71,2540.87 3243.00,2538.03 3243.00,2538.03
             3243.00,2538.03 3225.10,2528.92 3225.10,2528.92
             3225.10,2528.92 3217.90,2522.80 3217.90,2522.80
             3217.90,2522.80 3207.00,2517.10 3207.00,2517.10
             3206.52,2517.13 3206.59,2517.62 3205.40,2517.10
             3208.43,2518.28 3193.19,2510.17 3194.00,2510.60
             3194.00,2510.60 3177.00,2502.13 3177.00,2502.13
             3177.00,2502.13 3168.13,2498.24 3168.13,2498.24
             3164.21,2496.07 3163.83,2493.19 3159.00,2491.65
             3159.00,2491.65 3150.09,2490.16 3150.09,2490.16
             3150.09,2490.16 3130.01,2481.24 3130.01,2481.24
             3125.74,2479.08 3125.01,2476.69 3121.91,2475.26
             3121.91,2475.26 3102.00,2469.65 3102.00,2469.65
             3102.00,2469.65 3093.00,2465.31 3093.00,2465.31
             3093.00,2465.31 3085.00,2462.17 3085.00,2462.17
             3085.00,2462.17 3078.00,2458.48 3078.00,2458.48
             3078.00,2458.48 3068.00,2455.25 3068.00,2455.25
             3068.00,2455.25 3058.00,2450.83 3058.00,2450.83
             3058.00,2450.83 3051.01,2448.86 3051.01,2448.86
             3051.01,2448.86 3042.91,2443.71 3042.91,2443.71
             3042.91,2443.71 3032.83,2439.29 3032.83,2439.29
             3030.55,2438.70 3028.47,2439.34 3025.00,2438.00
             3025.00,2438.00 3015.58,2432.69 3015.58,2432.69
             3015.58,2432.69 3010.16,2430.81 3010.16,2430.81
             3010.16,2430.81 2998.00,2424.40 2998.00,2424.40
             2998.00,2424.40 2990.00,2421.76 2990.00,2421.76
             2990.00,2421.76 2983.00,2418.65 2983.00,2418.65
             2979.00,2417.15 2971.54,2416.41 2970.00,2412.00
             2967.54,2412.07 2959.92,2410.52 2957.85,2409.45
             2955.51,2408.24 2955.28,2406.66 2952.17,2405.57
             2952.17,2405.57 2938.00,2402.67 2938.00,2402.67
             2931.98,2400.57 2928.76,2397.14 2925.83,2396.00
             2925.83,2396.00 2918.00,2394.09 2918.00,2394.09
             2918.00,2394.09 2896.99,2385.72 2896.99,2385.72
             2888.26,2381.72 2881.09,2374.31 2871.00,2374.00
             2868.28,2370.09 2865.31,2371.52 2861.00,2368.66
             2858.33,2366.89 2855.61,2363.92 2852.83,2362.68
             2852.83,2362.68 2843.00,2359.65 2843.00,2359.65
             2843.00,2359.65 2836.00,2355.83 2836.00,2355.83
             2831.59,2353.73 2821.88,2351.12 2817.00,2351.00
             2817.00,2351.00 2816.00,2346.00 2816.00,2346.00
             2808.80,2346.12 2809.84,2344.66 2804.00,2342.76
             2804.00,2342.76 2798.09,2341.45 2798.09,2341.45
             2798.09,2341.45 2780.00,2333.04 2780.00,2333.04
             2776.26,2331.24 2772.01,2330.63 2769.00,2328.49
             2764.16,2325.03 2763.00,2320.78 2758.70,2317.76
             2753.90,2314.39 2749.41,2315.16 2745.28,2313.20
             2745.28,2313.20 2728.00,2302.90 2728.00,2302.90
             2721.78,2299.85 2719.84,2300.56 2716.00,2299.19
             2716.00,2299.19 2710.00,2296.63 2710.00,2296.63
             2705.03,2295.01 2700.71,2294.92 2699.00,2289.00
             2688.15,2288.76 2689.52,2286.63 2681.00,2283.55
             2676.74,2282.01 2673.27,2281.53 2669.00,2279.19
             2669.00,2279.19 2660.83,2273.64 2660.83,2273.64
             2656.63,2271.66 2652.72,2272.57 2649.00,2270.86
             2644.99,2269.03 2644.14,2266.67 2638.96,2264.92
             2638.96,2264.92 2627.09,2261.17 2627.09,2261.17
             2627.09,2261.17 2618.00,2257.23 2618.00,2257.23
             2618.00,2257.23 2611.09,2255.46 2611.09,2255.46
             2608.18,2254.40 2606.17,2251.81 2599.00,2249.30
             2599.00,2249.30 2588.00,2246.35 2588.00,2246.35
             2588.00,2246.35 2580.01,2243.19 2580.01,2243.19
             2580.01,2243.19 2571.91,2241.43 2571.91,2241.43
             2571.91,2241.43 2559.72,2236.46 2559.72,2236.46
             2559.72,2236.46 2549.72,2233.86 2549.72,2233.86
             2549.72,2233.86 2527.00,2226.97 2527.00,2226.97
             2527.00,2226.97 2509.83,2220.94 2509.83,2220.94
             2509.83,2220.94 2500.00,2218.26 2500.00,2218.26
             2500.00,2218.26 2478.00,2210.97 2478.00,2210.97
             2478.00,2210.97 2463.00,2207.08 2463.00,2207.08
             2463.00,2207.08 2455.00,2204.82 2455.00,2204.82
             2455.00,2204.82 2447.01,2203.21 2447.01,2203.21
             2444.07,2202.27 2443.15,2201.22 2440.72,2200.05
             2440.72,2200.05 2435.09,2198.14 2435.09,2198.14
             2428.94,2195.65 2428.71,2191.91 2418.00,2191.00
             2418.00,2191.00 2420.00,2190.00 2420.00,2190.00
             2420.00,2190.00 2404.00,2187.93 2404.00,2187.93
             2404.00,2187.93 2395.00,2183.87 2395.00,2183.87
             2395.00,2183.87 2377.00,2181.00 2377.00,2181.00
             2377.00,2181.00 2374.98,2155.00 2374.98,2155.00
             2374.98,2155.00 2374.98,2133.00 2374.98,2133.00
             2374.98,2133.00 2374.00,2121.00 2374.00,2121.00
             2373.96,2113.45 2373.28,2105.58 2371.78,2098.17
             2371.15,2095.05 2370.34,2094.90 2369.84,2090.99
             2369.84,2090.99 2369.84,2080.00 2369.84,2080.00
             2369.84,2080.00 2369.84,2067.07 2369.84,2067.07
             2369.46,2062.90 2368.12,2063.71 2368.00,2057.00
             2368.00,2057.00 2368.00,1967.00 2368.00,1967.00
             2368.00,1967.00 2367.25,1952.00 2367.25,1952.00
             2367.25,1952.00 2367.25,1941.00 2367.25,1941.00
             2367.25,1941.00 2366.49,1919.00 2366.49,1919.00
             2366.49,1919.00 2365.20,1903.00 2365.20,1903.00
             2365.14,1900.84 2364.61,1895.06 2365.20,1893.09
             2365.76,1888.90 2370.39,1886.26 2364.00,1884.00
             2364.00,1884.00 2367.00,1883.00 2367.00,1883.00
             2367.00,1883.00 2362.81,1881.00 2362.81,1881.00
             2363.73,1876.21 2362.72,1868.31 2362.81,1863.00
             2362.81,1863.00 2362.00,1852.00 2362.00,1852.00
             2362.00,1852.00 2362.00,1832.00 2362.00,1832.00
             2362.00,1832.00 2361.00,1816.00 2361.00,1816.00
             2361.00,1816.00 2361.00,1780.00 2361.00,1780.00
             2361.01,1770.86 2363.19,1761.97 2364.75,1753.00
             2364.75,1753.00 2369.25,1726.00 2369.25,1726.00
             2369.84,1722.59 2370.53,1716.86 2373.30,1714.60
             2378.33,1710.50 2390.26,1715.57 2396.00,1716.53
             2396.00,1716.53 2419.00,1715.39 2419.00,1715.39
             2424.77,1713.94 2433.15,1710.75 2439.00,1711.00
             2439.00,1711.00 2439.00,1710.00 2439.00,1710.00
             2439.00,1710.00 2437.00,1710.00 2437.00,1710.00
             2437.00,1710.00 2454.23,1699.47 2454.23,1699.47
             2454.23,1699.47 2455.00,1697.00 2455.00,1697.00
             2459.35,1694.90 2464.64,1690.18 2467.00,1686.00
             2467.00,1686.00 2475.00,1680.00 2475.00,1680.00
             2475.00,1680.00 2481.46,1661.96 2481.46,1661.96
             2481.46,1661.96 2482.10,1653.04 2482.10,1653.04
             2482.10,1653.04 2484.46,1642.17 2484.46,1642.17
             2484.46,1642.17 2486.35,1634.16 2486.35,1634.16
             2486.35,1634.16 2493.44,1615.00 2493.44,1615.00
             2493.44,1615.00 2497.04,1598.00 2497.04,1598.00
             2502.54,1579.04 2507.76,1560.52 2511.08,1541.00
             2512.16,1534.66 2513.92,1528.46 2514.09,1522.00
             2514.09,1522.00 2514.09,1510.00 2514.09,1510.00
             2514.81,1504.73 2515.91,1505.28 2516.00,1498.00
             2516.00,1498.00 2516.00,1465.00 2516.00,1465.00
             2515.98,1453.96 2514.12,1456.70 2514.00,1448.00
             2514.00,1448.00 2514.00,1398.00 2514.00,1398.00
             2514.00,1398.00 2515.99,1368.00 2515.99,1368.00
             2516.09,1363.25 2514.69,1349.40 2513.38,1345.00
             2511.48,1338.59 2507.42,1331.75 2508.00,1325.00
             2508.00,1325.00 2504.00,1325.00 2504.00,1325.00
             2506.08,1321.06 2507.09,1313.41 2506.08,1309.00
             2506.08,1309.00 2503.84,1302.00 2503.84,1302.00
             2503.84,1302.00 2496.81,1282.00 2496.81,1282.00
             2495.26,1277.54 2496.86,1276.78 2493.18,1268.00
             2493.18,1268.00 2485.52,1252.91 2485.52,1252.91
             2485.52,1252.91 2481.47,1238.99 2481.47,1238.99
             2479.11,1233.30 2473.99,1224.01 2473.05,1218.00
             2473.05,1218.00 2474.18,1205.00 2474.18,1205.00
             2474.18,1205.00 2474.18,1188.00 2474.18,1188.00
             2474.18,1188.00 2474.18,1177.00 2474.18,1177.00
             2474.18,1177.00 2474.18,1155.00 2474.18,1155.00
             2474.18,1155.00 2474.18,1149.00 2474.18,1149.00
             2474.18,1149.00 2471.39,1119.83 2471.39,1119.83
             2471.39,1119.83 2467.43,1099.00 2467.43,1099.00
             2467.43,1099.00 2466.91,1087.00 2466.91,1087.00
             2466.91,1087.00 2464.93,1074.00 2464.93,1074.00
             2464.93,1074.00 2464.93,1059.00 2464.93,1059.00
             2464.93,1059.00 2460.90,1036.04 2460.90,1036.04
             2460.90,1036.04 2460.90,1027.96 2460.90,1027.96
             2460.90,1027.96 2455.63,1002.00 2455.63,1002.00
             2455.63,1002.00 2454.55,994.00 2454.55,994.00
             2454.55,994.00 2452.29,984.42 2452.29,984.42
             2451.31,981.61 2450.34,980.72 2449.52,977.00
             2449.52,977.00 2447.98,967.00 2447.98,967.00
             2447.98,967.00 2444.93,957.00 2444.93,957.00
             2444.93,957.00 2439.62,935.09 2439.62,935.09
             2439.62,935.09 2435.65,926.99 2435.65,926.99
             2435.65,926.99 2434.05,915.09 2434.05,915.09
             2434.05,915.09 2432.04,908.05 2432.04,908.05
             2432.04,908.05 2431.18,899.99 2431.18,899.99
             2431.18,899.99 2427.24,884.00 2427.24,884.00
             2427.24,884.00 2423.71,875.00 2423.71,875.00
             2423.71,875.00 2421.28,860.00 2421.28,860.00
             2419.72,854.62 2416.72,853.71 2414.79,848.00
             2414.79,848.00 2406.46,822.00 2406.46,822.00
             2406.46,822.00 2400.33,808.00 2400.33,808.00
             2400.33,808.00 2395.25,793.00 2395.25,793.00
             2395.25,793.00 2391.41,786.00 2391.41,786.00
             2389.30,781.31 2390.61,779.05 2388.99,775.00
             2388.99,775.00 2384.98,768.00 2384.98,768.00
             2383.75,765.34 2384.19,764.00 2382.44,761.00
             2380.74,758.06 2378.96,756.65 2377.36,753.00
             2377.36,753.00 2374.12,742.00 2374.12,742.00
             2374.12,742.00 2369.37,733.83 2369.37,733.83
             2369.37,733.83 2357.18,707.91 2357.18,707.91
             2354.14,702.40 2354.66,691.11 2350.00,688.00
             2350.00,688.00 2351.00,685.00 2351.00,685.00
             2345.88,681.96 2343.83,674.28 2341.53,669.00
             2341.53,669.00 2330.80,649.00 2330.80,649.00
             2328.49,645.12 2324.02,641.33 2323.00,637.00
             2323.00,637.00 2321.22,636.19 2321.22,636.19
             2321.22,636.19 2314.00,624.00 2314.00,624.00
             2314.00,624.00 2296.91,607.18 2296.91,607.18
             2296.91,607.18 2294.00,607.18 2294.00,607.18
             2294.00,607.18 2293.04,604.35 2293.04,604.35
             2293.04,604.35 2281.72,593.65 2281.72,593.65
             2281.72,593.65 2277.00,591.00 2277.00,591.00
             2277.00,591.00 2278.00,588.00 2278.00,588.00
             2267.41,581.61 2268.53,580.38 2260.00,573.32
             2260.00,573.32 2246.00,562.13 2246.00,562.13
             2246.00,562.13 2237.83,557.09 2237.83,557.09
             2237.83,557.09 2228.72,549.49 2228.72,549.49
             2228.72,549.49 2222.00,545.79 2222.00,545.79
             2222.00,545.79 2206.71,535.09 2206.71,535.09
             2206.71,535.09 2196.00,529.80 2196.00,529.80
             2196.00,529.80 2187.00,523.76 2187.00,523.76
             2183.40,521.86 2181.35,522.33 2178.04,520.28
             2178.04,520.28 2173.58,516.87 2173.58,516.87
             2173.58,516.87 2168.00,513.58 2168.00,513.58
             2168.00,513.58 2161.00,508.14 2161.00,508.14
             2161.00,508.14 2148.00,500.64 2148.00,500.64
             2144.36,498.98 2143.42,499.65 2138.00,496.37
             2138.00,496.37 2118.00,484.13 2118.00,484.13
             2115.55,483.02 2113.52,483.06 2111.00,482.40
             2111.00,482.40 2104.28,480.49 2104.28,480.49
             2104.28,480.49 2081.42,477.91 2081.42,477.91
             2076.80,477.01 2068.56,473.63 2064.00,471.87
             2064.00,471.87 2032.01,462.96 2032.01,462.96
             2032.01,462.96 2022.96,458.43 2022.96,458.43
             2022.96,458.43 2013.09,455.37 2013.09,455.37
             2010.31,454.13 2009.11,452.46 2005.96,451.57
             2005.96,451.57 1998.00,450.66 1998.00,450.66
             1998.00,450.66 1990.00,448.22 1990.00,448.22
             1987.18,447.59 1984.23,447.97 1983.00,445.00
             1977.31,444.49 1971.87,442.29 1966.08,442.67
             1966.08,442.67 1948.00,441.50 1948.00,441.50
             1948.00,441.50 1924.00,437.04 1924.00,437.04
             1924.00,437.04 1900.00,437.04 1900.00,437.04
             1900.00,437.04 1893.00,436.10 1893.00,436.10
             1885.35,435.68 1876.07,438.78 1874.28,438.73
             1874.28,438.73 1859.95,435.21 1859.95,435.21
             1859.95,435.21 1831.00,435.21 1831.00,435.21
             1811.60,435.03 1796.75,438.25 1778.00,442.00
             1770.67,443.47 1762.68,443.67 1759.00,451.00 Z
           M 1304.00,1383.00
           C 1304.00,1383.00 1304.00,1384.00 1304.00,1384.00
             1304.00,1384.00 1303.00,1383.00 1303.00,1383.00
             1303.00,1383.00 1304.00,1383.00 1304.00,1383.00 Z
           M 2945.00,2401.00
           C 2945.00,2401.00 2945.00,2402.00 2945.00,2402.00
             2945.00,2402.00 2946.00,2401.00 2946.00,2401.00
             2946.00,2401.00 2945.00,2401.00 2945.00,2401.00 Z" />
</svg>
