<?xml version="1.0" encoding="UTF-8" standalone="no"?>
<!DOCTYPE svg PUBLIC "-//W3C//DTD SVG 20010904//EN"
              "http://www.w3.org/TR/2001/REC-SVG-20010904/DTD/svg10.dtd">

<svg xmlns="http://www.w3.org/2000/svg"
     width="12.3767in" height="14.3633in"
     viewBox="0 0 3713 4309">
  <path id="face"
        fill="none" stroke="black" stroke-width="1"
        d="M 1795.00,367.00
           C 1786.01,366.48 1768.32,378.35 1759.92,382.91
             1759.92,382.91 1754.42,385.55 1754.42,385.55
             1754.42,385.55 1747.00,391.10 1747.00,391.10
             1747.00,391.10 1740.43,395.04 1740.43,395.04
             1740.43,395.04 1736.29,398.82 1736.29,398.82
             1729.65,403.18 1720.91,405.42 1714.26,410.90
             1714.26,410.90 1708.87,416.49 1708.87,416.49
             1708.87,416.49 1677.88,440.51 1677.88,440.51
             1677.88,440.51 1670.00,443.00 1670.00,443.00
             1668.77,447.96 1666.30,447.53 1663.00,451.05
             1663.00,451.05 1651.13,461.72 1651.13,461.72
             1646.27,466.44 1640.07,474.25 1633.00,475.00
             1630.67,484.92 1618.66,490.19 1614.00,500.00
             1613.05,500.20 1612.91,499.75 1611.36,500.77
             1611.36,500.77 1599.86,515.99 1599.86,515.99
             1599.86,515.99 1589.18,529.37 1589.18,529.37
             1587.51,531.92 1587.06,534.50 1582.99,539.90
             1582.99,539.90 1577.87,545.37 1577.87,545.37
             1571.37,552.87 1568.29,559.28 1567.00,569.00
             1562.85,569.82 1562.04,570.77 1562.00,575.00
             1555.28,579.72 1554.70,591.72 1551.31,598.87
             1549.78,602.09 1548.13,601.97 1546.27,606.05
             1546.27,606.05 1541.25,623.00 1541.25,623.00
             1541.25,623.00 1531.53,650.00 1531.53,650.00
             1531.53,650.00 1530.07,664.00 1530.07,664.00
             1528.50,676.08 1525.97,675.30 1523.90,681.96
             1522.79,685.53 1523.13,690.63 1519.20,700.91
             1519.20,700.91 1515.81,707.00 1515.81,707.00
             1515.81,707.00 1509.74,726.00 1509.74,726.00
             1509.74,726.00 1508.81,732.91 1508.81,732.91
             1507.56,738.33 1505.71,743.32 1505.37,749.00
             1505.37,749.00 1504.83,765.00 1504.83,765.00
             1504.83,765.00 1501.21,788.00 1501.21,788.00
             1501.21,788.00 1501.82,796.00 1501.82,796.00
             1501.82,796.00 1501.10,803.00 1501.10,803.00
             1501.10,803.00 1501.82,812.00 1501.82,812.00
             1501.82,812.00 1501.08,820.00 1501.08,820.00
             1501.08,820.00 1501.82,828.00 1501.82,828.00
             1501.82,828.00 1500.00,841.00 1500.00,841.00
             1500.00,841.00 1496.00,841.00 1496.00,841.00
             1494.78,845.92 1483.42,865.38 1480.20,869.79
             1480.20,869.79 1475.27,875.21 1475.27,875.21
             1473.07,878.23 1471.00,885.77 1468.00,887.00
             1468.00,887.00 1463.49,897.00 1463.49,897.00
             1463.49,897.00 1461.09,904.00 1461.09,904.00
             1461.09,904.00 1455.00,920.00 1455.00,920.00
             1455.00,920.00 1453.00,919.00 1453.00,919.00
             1452.59,927.22 1451.13,925.62 1449.53,930.17
             1451.75,923.85 1442.45,957.34 1443.90,951.00
             1443.08,954.36 1443.95,958.40 1443.90,962.00
             1444.22,980.74 1447.41,997.02 1463.58,1008.87
             1470.30,1013.80 1479.41,1015.15 1487.00,1018.00
             1487.00,1018.00 1484.00,1024.00 1484.00,1024.00
             1486.68,1024.88 1486.36,1025.30 1487.00,1028.00
             1487.00,1028.00 1481.00,1027.00 1481.00,1027.00
             1481.00,1027.00 1479.00,1024.00 1479.00,1024.00
             1479.00,1024.00 1480.00,1020.96 1480.00,1020.96
             1480.00,1020.96 1474.58,1020.96 1474.58,1020.96
             1474.58,1020.96 1469.00,1019.96 1469.00,1019.96
             1469.00,1019.96 1462.00,1019.96 1462.00,1019.96
             1462.00,1019.96 1449.00,1019.96 1449.00,1019.96
             1438.09,1020.02 1441.61,1021.84 1434.00,1027.57
             1430.97,1029.85 1428.15,1030.12 1425.56,1033.14
             1422.83,1036.34 1417.50,1046.59 1417.02,1050.83
             1417.08,1053.49 1417.50,1055.16 1417.02,1058.01
             1417.02,1058.01 1414.69,1063.72 1414.69,1063.72
             1413.67,1066.81 1413.19,1070.77 1412.73,1074.00
             1412.73,1074.00 1410.71,1096.00 1410.71,1096.00
             1409.68,1104.31 1408.02,1103.38 1408.00,1113.00
             1408.00,1113.00 1408.71,1132.00 1408.71,1132.00
             1408.71,1132.00 1408.71,1139.00 1408.71,1139.00
             1408.71,1139.00 1411.20,1161.49 1411.20,1161.49
             1411.20,1161.49 1411.20,1176.00 1411.20,1176.00
             1411.20,1176.00 1413.37,1196.00 1413.37,1196.00
             1413.20,1204.83 1415.79,1211.49 1417.39,1220.00
             1417.39,1220.00 1419.74,1233.00 1419.74,1233.00
             1419.74,1233.00 1423.84,1246.00 1423.84,1246.00
             1427.66,1259.95 1426.13,1258.27 1432.51,1273.00
             1435.53,1280.00 1436.03,1290.69 1443.00,1295.00
             1440.10,1300.89 1447.42,1310.19 1449.39,1316.00
             1451.44,1322.03 1450.38,1326.69 1452.95,1333.00
             1452.95,1333.00 1457.08,1343.12 1457.08,1343.12
             1459.58,1347.78 1462.65,1351.77 1464.46,1356.91
             1465.78,1360.68 1464.95,1361.68 1465.58,1365.09
             1466.52,1370.16 1467.15,1368.98 1467.00,1375.00
             1472.47,1380.48 1471.17,1383.35 1472.92,1390.00
             1472.92,1390.00 1477.79,1404.00 1477.79,1404.00
             1477.79,1404.00 1480.15,1416.58 1480.15,1416.58
             1480.98,1420.45 1481.33,1429.43 1477.00,1431.00
             1477.00,1431.00 1473.00,1436.00 1473.00,1436.00
             1473.00,1436.00 1475.62,1444.00 1475.62,1444.00
             1475.62,1444.00 1475.00,1456.00 1475.00,1456.00
             1475.00,1456.00 1472.00,1456.00 1472.00,1456.00
             1472.00,1456.00 1472.00,1471.00 1472.00,1471.00
             1472.00,1471.00 1475.00,1472.00 1475.00,1472.00
             1471.18,1481.16 1474.34,1494.43 1478.67,1503.00
             1480.88,1507.37 1481.68,1511.67 1487.00,1512.00
             1489.18,1517.06 1496.19,1522.62 1501.01,1525.32
             1504.29,1527.15 1508.59,1527.22 1510.26,1531.13
             1512.32,1535.93 1508.93,1540.33 1508.56,1544.00
             1508.13,1548.24 1510.52,1551.30 1511.51,1555.00
             1511.51,1555.00 1512.74,1565.00 1512.74,1565.00
             1512.74,1565.00 1514.88,1570.70 1514.88,1570.70
             1515.66,1573.20 1514.87,1573.17 1517.00,1575.00
             1517.00,1575.00 1516.00,1583.00 1516.00,1583.00
             1516.00,1583.00 1519.00,1583.00 1519.00,1583.00
             1516.53,1592.36 1514.20,1591.88 1516.00,1602.00
             1516.00,1602.00 1513.00,1600.00 1513.00,1600.00
             1513.00,1600.00 1511.00,1609.00 1511.00,1609.00
             1511.00,1609.00 1514.00,1605.00 1514.00,1605.00
             1514.00,1605.00 1515.00,1608.00 1515.00,1608.00
             1521.54,1610.17 1521.11,1615.39 1520.57,1621.09
             1520.10,1626.21 1522.23,1627.71 1522.32,1631.00
             1522.46,1636.16 1518.69,1636.61 1521.00,1645.00
             1521.00,1645.00 1524.00,1644.00 1524.00,1644.00
             1524.00,1644.00 1526.00,1650.00 1526.00,1650.00
             1526.00,1650.00 1523.00,1648.00 1523.00,1648.00
             1523.00,1648.00 1525.00,1651.00 1525.00,1651.00
             1525.00,1651.00 1519.00,1653.00 1519.00,1653.00
             1519.00,1653.00 1519.00,1666.00 1519.00,1666.00
             1519.00,1666.00 1520.00,1662.00 1520.00,1662.00
             1520.00,1662.00 1525.00,1659.00 1525.00,1659.00
             1526.25,1660.35 1527.88,1661.77 1528.47,1663.58
             1528.47,1663.58 1528.47,1670.00 1528.47,1670.00
             1529.21,1679.21 1529.93,1684.91 1527.41,1694.00
             1526.14,1698.58 1528.57,1699.00 1525.00,1703.00
             1525.00,1703.00 1528.00,1704.00 1528.00,1704.00
             1528.00,1704.00 1531.00,1720.00 1531.00,1720.00
             1531.00,1720.00 1533.00,1718.00 1533.00,1718.00
             1533.00,1718.00 1536.00,1744.00 1536.00,1744.00
             1536.00,1744.00 1529.00,1744.00 1529.00,1744.00
             1529.00,1744.00 1528.00,1747.00 1528.00,1747.00
             1528.00,1747.00 1532.00,1748.00 1532.00,1748.00
             1532.00,1748.00 1531.00,1751.00 1531.00,1751.00
             1531.00,1751.00 1527.00,1750.00 1527.00,1750.00
             1527.00,1750.00 1528.05,1760.58 1528.05,1760.58
             1528.05,1760.58 1529.00,1773.00 1529.00,1773.00
             1522.94,1774.88 1526.79,1788.02 1526.00,1793.00
             1526.00,1793.00 1528.00,1794.00 1528.00,1794.00
             1528.00,1794.00 1529.00,1793.00 1529.00,1793.00
             1528.72,1795.41 1527.51,1799.56 1528.40,1801.62
             1529.38,1803.87 1532.95,1805.58 1534.22,1808.18
             1536.03,1811.11 1534.85,1814.03 1534.22,1817.00
             1541.72,1821.94 1535.42,1829.04 1534.22,1836.00
             1532.73,1845.16 1536.52,1851.20 1544.00,1856.00
             1542.86,1860.55 1543.82,1867.35 1546.26,1871.42
             1546.26,1871.42 1550.70,1877.42 1550.70,1877.42
             1552.49,1880.56 1551.63,1882.54 1553.89,1885.83
             1553.89,1885.83 1563.06,1895.42 1563.06,1895.42
             1566.78,1900.02 1564.97,1901.09 1569.14,1906.00
             1569.14,1906.00 1586.00,1923.00 1586.00,1923.00
             1603.88,1940.88 1611.39,1947.57 1627.12,1968.00
             1627.12,1968.00 1681.58,2039.00 1681.58,2039.00
             1681.58,2039.00 1703.58,2069.00 1703.58,2069.00
             1703.58,2069.00 1720.09,2090.91 1720.09,2090.91
             1720.09,2090.91 1749.00,2113.88 1749.00,2113.88
             1749.00,2113.88 1783.00,2139.93 1783.00,2139.93
             1783.00,2139.93 1825.00,2156.42 1825.00,2156.42
             1825.00,2156.42 1880.00,2177.56 1880.00,2177.56
             1880.00,2177.56 1925.00,2186.42 1925.00,2186.42
             1925.00,2186.42 1963.00,2193.61 1963.00,2193.61
             1963.00,2193.61 1982.00,2196.92 1982.00,2196.92
             1982.00,2196.92 2036.00,2191.17 2036.00,2191.17
             2036.00,2191.17 2084.00,2186.16 2084.00,2186.16
             2084.00,2186.16 2106.00,2183.50 2106.00,2183.50
             2106.00,2183.50 2151.00,2168.33 2151.00,2168.33
             2151.00,2168.33 2220.00,2145.13 2220.00,2145.13
             2220.00,2145.13 2258.00,2125.31 2258.00,2125.31
             2258.00,2125.31 2302.00,2102.31 2302.00,2102.31
             2302.00,2102.31 2332.00,2086.55 2332.00,2086.55
             2332.00,2086.55 2350.00,2074.67 2350.00,2074.67
             2350.00,2074.67 2381.00,2053.72 2381.00,2053.72
             2387.40,2049.25 2406.60,2037.41 2410.68,2032.91
             2410.68,2032.91 2430.34,2003.00 2430.34,2003.00
             2430.34,2003.00 2458.68,1959.00 2458.68,1959.00
             2458.68,1959.00 2466.86,1941.00 2466.86,1941.00
             2466.86,1941.00 2478.31,1916.00 2478.31,1916.00
             2478.31,1916.00 2501.57,1865.00 2501.57,1865.00
             2501.57,1865.00 2510.60,1842.00 2510.60,1842.00
             2510.60,1842.00 2524.58,1807.00 2524.58,1807.00
             2524.58,1807.00 2543.00,1761.00 2543.00,1761.00
             2545.78,1753.70 2543.67,1753.23 2545.09,1750.13
             2545.09,1750.13 2549.47,1744.76 2549.47,1744.76
             2549.47,1744.76 2555.00,1731.00 2555.00,1731.00
             2555.00,1731.00 2560.00,1732.00 2560.00,1732.00
             2560.00,1732.00 2558.28,1714.00 2558.28,1714.00
             2558.28,1714.00 2563.09,1704.91 2563.09,1704.91
             2563.09,1704.91 2567.00,1690.00 2567.00,1690.00
             2567.00,1690.00 2560.00,1689.00 2560.00,1689.00
             2560.00,1689.00 2562.00,1684.00 2562.00,1684.00
             2562.00,1684.00 2559.00,1684.00 2559.00,1684.00
             2559.00,1684.00 2561.00,1677.00 2561.00,1677.00
             2561.00,1677.00 2562.00,1681.00 2562.00,1681.00
             2563.23,1679.94 2564.15,1679.48 2564.93,1677.89
             2566.50,1674.68 2564.70,1668.09 2562.00,1666.00
             2562.54,1662.87 2564.03,1656.73 2563.90,1654.00
             2563.26,1647.73 2558.99,1645.35 2563.90,1640.00
             2563.90,1640.00 2561.54,1631.01 2561.54,1631.01
             2561.54,1631.01 2565.00,1623.00 2565.00,1623.00
             2565.00,1623.00 2569.92,1624.00 2569.92,1624.00
             2569.92,1624.00 2569.92,1615.00 2569.92,1615.00
             2570.10,1612.15 2571.31,1610.60 2571.20,1608.00
             2571.20,1608.00 2569.39,1601.00 2569.39,1601.00
             2568.84,1597.84 2570.05,1587.74 2571.85,1585.14
             2573.19,1583.20 2574.07,1582.99 2576.00,1582.00
             2576.00,1582.00 2575.00,1579.00 2575.00,1579.00
             2575.00,1579.00 2572.00,1581.00 2572.00,1581.00
             2577.28,1571.83 2575.63,1566.69 2579.96,1564.47
             2582.64,1563.10 2590.47,1564.91 2594.00,1564.99
             2605.05,1565.24 2616.95,1560.11 2623.08,1550.58
             2630.89,1538.43 2636.47,1522.54 2635.96,1508.00
             2635.77,1502.64 2635.36,1489.89 2636.78,1485.09
             2636.78,1485.09 2639.43,1479.83 2639.43,1479.83
             2641.20,1475.10 2638.91,1474.56 2645.00,1471.00
             2645.00,1471.00 2652.00,1461.00 2652.00,1461.00
             2652.00,1461.00 2655.00,1462.00 2655.00,1462.00
             2655.77,1452.87 2660.14,1449.40 2664.91,1442.00
             2664.91,1442.00 2673.25,1426.17 2673.25,1426.17
             2673.25,1426.17 2677.63,1418.99 2677.63,1418.99
             2677.63,1418.99 2692.48,1390.00 2692.48,1390.00
             2692.48,1390.00 2696.36,1380.00 2696.36,1380.00
             2696.36,1380.00 2703.05,1367.00 2703.05,1367.00
             2703.05,1367.00 2704.95,1362.09 2704.95,1362.09
             2704.95,1362.09 2712.12,1350.00 2712.12,1350.00
             2712.12,1350.00 2717.03,1339.17 2717.03,1339.17
             2717.03,1339.17 2721.90,1331.99 2721.90,1331.99
             2727.16,1322.72 2731.38,1308.47 2739.00,1301.00
             2739.00,1301.00 2750.19,1266.01 2750.19,1266.01
             2750.19,1266.01 2752.85,1258.83 2752.85,1258.83
             2757.46,1241.25 2758.53,1222.11 2759.82,1204.00
             2760.08,1200.37 2759.32,1198.45 2759.09,1195.00
             2758.14,1181.12 2759.67,1183.46 2753.49,1170.00
             2752.05,1166.86 2751.63,1163.25 2749.00,1161.00
             2748.76,1152.87 2744.59,1142.74 2742.59,1135.00
             2741.51,1130.80 2741.96,1127.19 2737.00,1126.00
             2737.00,1126.00 2734.83,1110.57 2734.83,1110.57
             2734.83,1110.57 2731.00,1109.00 2731.00,1109.00
             2730.01,1098.09 2726.60,1098.06 2721.91,1090.80
             2719.81,1087.55 2720.95,1084.47 2718.42,1081.45
             2712.52,1074.44 2695.97,1069.90 2687.00,1068.75
             2687.00,1068.75 2677.00,1068.75 2677.00,1068.75
             2671.86,1068.31 2667.11,1070.97 2662.00,1071.70
             2658.68,1072.18 2653.85,1071.65 2651.09,1072.73
             2648.30,1073.82 2646.94,1076.08 2643.96,1077.03
             2641.42,1077.83 2631.18,1076.93 2629.00,1085.00
             2627.10,1077.76 2631.76,1069.16 2632.59,1061.42
             2632.59,1061.42 2633.81,1042.00 2633.81,1042.00
             2633.81,1042.00 2630.72,1026.00 2630.72,1026.00
             2630.72,1026.00 2631.82,1011.00 2631.82,1011.00
             2631.82,1011.00 2630.26,1003.00 2630.26,1003.00
             2630.26,1003.00 2627.21,981.00 2627.21,981.00
             2627.21,981.00 2627.96,973.00 2627.96,973.00
             2627.96,973.00 2627.96,962.00 2627.96,962.00
             2627.96,962.00 2626.00,940.00 2626.00,940.00
             2626.00,940.00 2624.48,921.00 2624.48,921.00
             2624.48,921.00 2624.48,914.00 2624.48,914.00
             2624.48,914.00 2623.09,906.00 2623.09,906.00
             2623.09,906.00 2620.72,873.00 2620.72,873.00
             2620.72,873.00 2617.00,849.00 2617.00,849.00
             2617.00,849.00 2617.79,829.00 2617.79,829.00
             2617.79,829.00 2616.46,822.00 2616.46,822.00
             2616.46,822.00 2615.74,813.00 2615.74,813.00
             2615.74,813.00 2614.30,807.00 2614.30,807.00
             2613.55,802.67 2614.54,798.89 2614.30,796.00
             2614.10,792.44 2613.09,792.47 2613.00,786.00
             2613.00,786.00 2612.24,763.00 2612.24,763.00
             2612.24,763.00 2608.08,748.00 2608.08,748.00
             2608.08,748.00 2606.37,732.00 2606.37,732.00
             2606.37,732.00 2604.11,722.00 2604.11,722.00
             2604.11,722.00 2601.99,706.28 2601.99,706.28
             2601.99,706.28 2598.39,689.04 2598.39,689.04
             2598.39,689.04 2596.87,679.00 2596.87,679.00
             2596.87,679.00 2593.45,667.00 2593.45,667.00
             2593.45,667.00 2591.41,655.00 2591.41,655.00
             2591.41,655.00 2588.36,643.99 2588.36,643.99
             2588.36,643.99 2587.30,637.00 2587.30,637.00
             2587.30,637.00 2576.53,616.00 2576.53,616.00
             2572.77,607.56 2572.44,604.24 2567.31,595.58
             2565.48,592.49 2566.61,589.98 2563.00,589.00
             2561.62,583.87 2559.88,582.65 2558.07,578.00
             2558.07,578.00 2555.32,569.09 2555.32,569.09
             2554.04,566.08 2552.95,565.98 2551.63,561.96
             2551.63,561.96 2546.77,542.00 2546.77,542.00
             2544.13,534.22 2543.77,535.85 2541.41,530.91
             2541.41,530.91 2538.78,523.00 2538.78,523.00
             2538.78,523.00 2534.51,515.00 2534.51,515.00
             2534.51,515.00 2530.51,505.00 2530.51,505.00
             2530.51,505.00 2524.75,495.72 2524.75,495.72
             2520.54,487.61 2524.52,491.91 2517.16,483.91
             2517.16,483.91 2505.33,468.96 2505.33,468.96
             2502.82,465.42 2501.46,461.98 2497.00,461.00
             2495.27,455.72 2488.98,451.17 2485.17,447.00
             2471.38,431.92 2476.89,436.77 2460.00,424.13
             2455.17,420.51 2450.81,416.85 2445.00,415.00
             2443.52,407.87 2433.37,405.86 2427.89,402.30
             2427.89,402.30 2418.91,394.72 2418.91,394.72
             2418.91,394.72 2412.00,391.32 2412.00,391.32
             2412.00,391.32 2405.00,386.44 2405.00,386.44
             2405.00,386.44 2392.00,378.66 2392.00,378.66
             2386.54,374.93 2381.34,374.06 2378.00,368.00
             2378.00,368.00 2369.00,367.00 2369.00,367.00
             2366.81,360.07 2359.68,359.81 2353.58,357.97
             2348.05,356.29 2347.49,355.03 2343.72,353.34
             2343.72,353.34 2329.00,348.58 2329.00,348.58
             2321.50,346.36 2315.10,342.40 2308.00,339.34
             2308.00,339.34 2298.04,335.74 2298.04,335.74
             2298.04,335.74 2292.73,332.50 2292.73,332.50
             2282.61,327.82 2271.65,326.88 2261.04,324.04
             2261.04,324.04 2252.96,320.71 2252.96,320.71
             2248.15,319.31 2224.05,315.06 2219.00,315.00
             2211.73,314.92 2200.00,313.89 2194.00,309.51
             2194.00,309.51 2182.83,298.40 2182.83,298.40
             2179.52,295.63 2176.87,295.34 2173.28,290.98
             2168.73,285.47 2171.45,281.76 2164.00,276.81
             2155.70,271.31 2148.40,271.89 2139.00,272.00
             2129.51,272.12 2129.24,274.18 2123.42,275.11
             2123.42,275.11 2092.00,281.20 2092.00,281.20
             2092.00,281.20 2083.00,282.52 2083.00,282.52
             2073.34,284.61 2064.00,287.98 2054.00,288.02
             2054.00,288.02 2036.00,288.02 2036.00,288.02
             2036.00,288.02 2029.00,288.66 2029.00,288.66
             2029.00,288.66 2018.00,288.00 2018.00,288.00
             2018.00,288.00 1992.00,288.00 1992.00,288.00
             1992.00,288.00 1976.00,289.00 1976.00,289.00
             1959.52,289.08 1953.46,290.97 1938.00,296.17
             1938.00,296.17 1928.83,299.16 1928.83,299.16
             1928.83,299.16 1914.08,308.19 1914.08,308.19
             1908.35,311.87 1892.15,325.69 1887.00,327.35
             1887.00,327.35 1869.58,331.04 1869.58,331.04
             1869.58,331.04 1853.00,333.40 1853.00,333.40
             1844.78,336.11 1843.58,340.27 1838.00,343.49
             1834.46,345.54 1832.07,344.95 1828.42,346.64
             1828.42,346.64 1816.00,354.56 1816.00,354.56
             1816.00,354.56 1798.05,362.66 1798.05,362.66
             1796.48,364.01 1795.95,365.26 1795.00,367.00 Z
           M 2499.00,461.00
           C 2499.00,461.00 2499.00,462.00 2499.00,462.00
             2499.00,462.00 2498.00,461.00 2498.00,461.00
             2498.00,461.00 2499.00,461.00 2499.00,461.00 Z
           M 2565.00,590.00
           C 2565.00,590.00 2565.00,591.00 2565.00,591.00
             2565.00,591.00 2564.00,590.00 2564.00,590.00
             2564.00,590.00 2565.00,590.00 2565.00,590.00 Z
           M 1472.00,1019.00
           C 1472.00,1019.00 1472.00,1020.00 1472.00,1020.00
             1472.00,1020.00 1473.00,1019.00 1473.00,1019.00
             1473.00,1019.00 1472.00,1019.00 1472.00,1019.00 Z
           M 1475.00,1019.00
           C 1475.00,1019.00 1475.00,1020.00 1475.00,1020.00
             1475.00,1020.00 1476.00,1019.00 1476.00,1019.00
             1476.00,1019.00 1475.00,1019.00 1475.00,1019.00 Z
           M 1512.00,1542.00
           C 1512.00,1542.00 1512.00,1543.00 1512.00,1543.00
             1512.00,1543.00 1511.00,1542.00 1511.00,1542.00
             1511.00,1542.00 1512.00,1542.00 1512.00,1542.00 Z
           M 1511.00,1543.00
           C 1511.00,1543.00 1511.00,1544.00 1511.00,1544.00
             1511.00,1544.00 1510.00,1543.00 1510.00,1543.00
             1510.00,1543.00 1511.00,1543.00 1511.00,1543.00 Z
           M 1529.00,1787.00
           C 1529.00,1787.00 1529.00,1788.00 1529.00,1788.00
             1529.00,1788.00 1528.00,1787.00 1528.00,1787.00
             1528.00,1787.00 1529.00,1787.00 1529.00,1787.00 Z
           M 1537.00,1844.00
           C 1537.00,1844.00 1543.00,1846.00 1543.00,1846.00
             1543.00,1846.00 1536.00,1847.00 1536.00,1847.00
             1536.00,1847.00 1537.00,1844.00 1537.00,1844.00 Z" />
  <path id="profile"
        fill="none" stroke="black" stroke-width="1"
        d="M 1500.00,841.00
           C 1498.65,841.23 1497.73,841.16 1496.49,842.02
             1494.81,843.20 1489.58,853.53 1488.23,856.00
             1486.07,859.97 1482.90,865.41 1480.24,869.00
             1480.24,869.00 1474.69,876.00 1474.69,876.00
             1471.14,881.32 1465.34,892.01 1463.06,898.00
             1461.31,902.63 1457.29,917.50 1453.00,919.00
             1451.08,931.27 1444.02,942.38 1444.00,957.00
             1443.97,978.34 1446.03,999.54 1467.00,1011.10
             1470.99,1013.30 1482.37,1016.94 1487.00,1018.00
             1484.54,1022.82 1484.59,1023.17 1487.00,1028.00
             1482.35,1026.79 1480.27,1026.16 1480.00,1021.00
             1477.41,1020.98 1474.19,1021.63 1473.00,1019.00
             1466.30,1020.63 1457.99,1019.99 1451.00,1020.00
             1439.57,1020.02 1441.46,1020.99 1433.00,1027.61
             1429.72,1030.19 1427.56,1030.64 1424.78,1034.10
             1421.64,1038.03 1417.83,1045.98 1417.18,1051.00
             1417.18,1051.00 1416.47,1058.00 1416.47,1058.00
             1416.47,1058.00 1413.82,1067.00 1413.82,1067.00
             1413.82,1067.00 1410.92,1093.00 1410.92,1093.00
             1410.92,1093.00 1408.00,1112.00 1408.00,1112.00
             1408.00,1112.00 1409.00,1140.00 1409.00,1140.00
             1409.00,1140.00 1411.00,1164.00 1411.00,1164.00
             1411.00,1164.00 1411.00,1173.00 1411.00,1173.00
             1411.00,1173.00 1413.06,1191.00 1413.06,1191.00
             1413.06,1191.00 1413.06,1199.00 1413.06,1199.00
             1415.41,1216.74 1422.67,1245.94 1428.35,1263.00
             1428.35,1263.00 1433.31,1276.00 1433.31,1276.00
             1433.31,1276.00 1436.93,1287.00 1436.93,1287.00
             1436.93,1287.00 1441.64,1296.00 1441.64,1296.00
             1442.46,1298.30 1442.18,1300.36 1444.45,1306.00
             1444.45,1306.00 1449.05,1316.00 1449.05,1316.00
             1451.44,1322.43 1450.16,1325.97 1453.61,1335.00
             1453.61,1335.00 1464.04,1357.00 1464.04,1357.00
             1464.04,1357.00 1467.54,1375.00 1467.54,1375.00
             1467.54,1375.00 1470.86,1382.00 1470.86,1382.00
             1470.86,1382.00 1473.44,1392.00 1473.44,1392.00
             1476.44,1402.14 1479.48,1408.89 1480.53,1420.00
             1481.39,1429.02 1474.97,1431.09 1473.78,1436.00
             1473.15,1438.60 1474.78,1441.49 1475.02,1445.00
             1475.02,1445.00 1475.02,1452.00 1475.02,1452.00
             1475.02,1452.00 1475.02,1456.00 1475.02,1456.00
             1475.02,1456.00 1472.00,1456.00 1472.00,1456.00
             1472.00,1461.25 1470.38,1468.53 1475.00,1472.00
             1471.43,1482.81 1474.35,1498.55 1480.97,1507.90
             1480.97,1507.90 1494.00,1520.68 1494.00,1520.68
             1501.29,1526.81 1508.38,1527.24 1510.17,1533.02
             1511.32,1536.73 1508.46,1539.75 1509.10,1547.00
             1509.45,1550.92 1510.68,1552.54 1511.47,1556.00
             1513.27,1563.86 1512.39,1563.97 1515.51,1573.00
             1517.71,1579.37 1514.45,1581.08 1519.00,1583.00
             1516.26,1591.22 1514.45,1593.22 1516.00,1602.00
             1516.00,1602.00 1514.00,1600.00 1514.00,1600.00
             1514.00,1600.00 1513.00,1600.00 1513.00,1600.00
             1513.00,1600.00 1511.00,1608.00 1511.00,1608.00
             1511.00,1608.00 1513.00,1607.00 1513.00,1607.00
             1513.00,1607.00 1513.00,1606.00 1513.00,1606.00
             1521.67,1613.61 1520.56,1613.17 1521.04,1624.00
             1521.04,1624.00 1521.73,1632.00 1521.73,1632.00
             1521.43,1637.88 1519.14,1637.04 1521.00,1645.00
             1521.00,1645.00 1524.00,1644.00 1524.00,1644.00
             1524.00,1644.00 1525.00,1651.00 1525.00,1651.00
             1517.37,1653.05 1519.00,1656.84 1519.00,1664.00
             1519.00,1664.00 1524.00,1659.00 1524.00,1659.00
             1525.46,1660.74 1526.58,1661.79 1527.40,1664.00
             1527.99,1665.58 1528.06,1668.23 1528.28,1670.00
             1529.58,1680.35 1529.10,1693.32 1525.00,1703.00
             1529.55,1707.33 1529.88,1714.03 1531.00,1720.00
             1531.00,1720.00 1533.00,1719.00 1533.00,1719.00
             1533.00,1719.00 1536.00,1744.00 1536.00,1744.00
             1536.00,1744.00 1528.00,1745.00 1528.00,1745.00
             1528.00,1745.00 1528.00,1747.00 1528.00,1747.00
             1528.00,1747.00 1532.00,1748.00 1532.00,1748.00
             1532.00,1748.00 1531.00,1751.00 1531.00,1751.00
             1531.00,1751.00 1527.00,1750.00 1527.00,1750.00
             1527.00,1750.00 1528.54,1770.00 1528.54,1770.00
             1528.54,1770.00 1526.44,1777.00 1526.44,1777.00
             1526.44,1777.00 1526.44,1791.71 1526.44,1791.71
             1526.44,1791.71 1529.00,1794.00 1529.00,1794.00
             1526.66,1803.78 1530.71,1802.57 1533.82,1809.00
             1535.37,1812.19 1534.38,1814.02 1535.20,1817.00
             1535.20,1817.00 1537.19,1822.00 1537.19,1822.00
             1538.33,1826.60 1534.52,1831.78 1534.10,1838.00
             1533.32,1849.33 1540.37,1851.78 1542.98,1857.00
             1544.67,1860.39 1543.42,1863.51 1544.80,1868.00
             1544.80,1868.00 1552.54,1883.00 1552.54,1883.00
             1555.39,1889.79 1558.83,1890.87 1562.57,1896.00
             1565.01,1899.35 1564.50,1900.65 1565.90,1904.00
             1567.10,1906.87 1569.99,1910.43 1567.25,1913.40
             1565.34,1915.47 1562.81,1914.34 1558.00,1917.13
             1555.11,1918.80 1553.32,1920.58 1550.00,1921.86
             1550.00,1921.86 1543.00,1923.92 1543.00,1923.92
             1538.69,1925.81 1539.22,1927.05 1531.00,1929.65
             1531.00,1929.65 1514.00,1933.67 1514.00,1933.67
             1514.00,1933.67 1462.00,1947.48 1462.00,1947.48
             1462.00,1947.48 1449.00,1951.62 1449.00,1951.62
             1449.00,1951.62 1426.00,1957.17 1426.00,1957.17
             1426.00,1957.17 1413.00,1962.70 1413.00,1962.70
             1413.00,1962.70 1404.00,1964.91 1404.00,1964.91
             1404.00,1964.91 1396.00,1967.47 1396.00,1967.47
             1396.00,1967.47 1386.00,1968.79 1386.00,1968.79
             1386.00,1968.79 1375.00,1973.45 1375.00,1973.45
             1375.00,1973.45 1365.00,1976.44 1365.00,1976.44
             1365.00,1976.44 1350.91,1983.17 1350.91,1983.17
             1350.91,1983.17 1330.00,1990.99 1330.00,1990.99
             1325.89,1992.68 1317.12,1994.53 1316.00,1999.00
             1306.69,2001.12 1303.17,2004.04 1295.00,2007.69
             1295.00,2007.69 1284.00,2011.70 1284.00,2011.70
             1277.51,2014.99 1272.54,2020.80 1265.00,2019.00
             1265.00,2019.00 1266.00,2022.00 1266.00,2022.00
             1254.27,2026.10 1245.70,2032.32 1235.00,2038.14
             1235.00,2038.14 1224.00,2043.00 1224.00,2043.00
             1215.76,2047.92 1215.91,2050.64 1204.00,2054.64
             1204.00,2054.64 1171.00,2061.72 1171.00,2061.72
             1158.42,2065.49 1153.44,2070.31 1147.00,2072.22
             1147.00,2072.22 1126.00,2076.51 1126.00,2076.51
             1126.00,2076.51 1115.00,2079.96 1115.00,2079.96
             1115.00,2079.96 1080.00,2087.88 1080.00,2087.88
             1080.00,2087.88 1068.00,2091.39 1068.00,2091.39
             1068.00,2091.39 1060.00,2092.32 1060.00,2092.32
             1060.00,2092.32 1052.00,2094.49 1052.00,2094.49
             1052.00,2094.49 1045.00,2095.76 1045.00,2095.76
             1045.00,2095.76 1019.00,2104.55 1019.00,2104.55
             1019.00,2104.55 1004.00,2108.09 1004.00,2108.09
             1004.00,2108.09 992.00,2112.92 992.00,2112.92
             992.00,2112.92 981.00,2116.09 981.00,2116.09
             981.00,2116.09 970.00,2120.41 970.00,2120.41
             970.00,2120.41 952.00,2123.52 952.00,2123.52
             952.00,2123.52 942.00,2126.76 942.00,2126.76
             942.00,2126.76 920.00,2131.83 920.00,2131.83
             920.00,2131.83 909.00,2136.56 909.00,2136.56
             909.00,2136.56 892.00,2140.22 892.00,2140.22
             892.00,2140.22 877.00,2146.25 877.00,2146.25
             877.00,2146.25 867.00,2148.74 867.00,2148.74
             867.00,2148.74 853.00,2153.11 853.00,2153.11
             853.00,2153.11 842.00,2155.57 842.00,2155.57
             842.00,2155.57 811.00,2166.25 811.00,2166.25
             811.00,2166.25 794.00,2170.36 794.00,2170.36
             794.00,2170.36 781.00,2175.43 781.00,2175.43
             781.00,2175.43 771.00,2177.73 771.00,2177.73
             771.00,2177.73 757.00,2181.55 757.00,2181.55
             757.00,2181.55 739.00,2185.15 739.00,2185.15
             739.00,2185.15 728.00,2188.46 728.00,2188.46
             728.00,2188.46 718.00,2192.56 718.00,2192.56
             718.00,2192.56 700.00,2196.78 700.00,2196.78
             687.14,2200.59 696.23,2200.46 677.00,2203.00
             677.00,2203.00 678.00,2206.00 678.00,2206.00
             663.29,2209.35 662.80,2212.66 654.00,2216.48
             654.00,2216.48 638.00,2222.38 638.00,2222.38
             633.78,2223.70 633.86,2223.01 629.00,2225.26
             622.07,2228.47 608.98,2235.94 602.00,2236.00
             602.00,2236.00 603.00,2239.00 603.00,2239.00
             603.00,2239.00 583.09,2246.36 583.09,2246.36
             583.09,2246.36 578.72,2249.51 578.72,2249.51
             578.72,2249.51 572.64,2252.50 572.64,2252.50
             572.64,2252.50 568.80,2256.88 568.80,2256.88
             568.80,2256.88 559.17,2265.15 559.17,2265.15
             559.17,2265.15 547.96,2276.99 547.96,2276.99
             547.96,2276.99 539.37,2284.37 539.37,2284.37
             539.37,2284.37 525.00,2301.00 525.00,2301.00
             525.00,2301.00 521.00,2299.00 521.00,2299.00
             521.00,2299.00 523.00,2302.00 523.00,2302.00
             523.00,2302.00 510.00,2308.51 510.00,2308.51
             510.00,2308.51 493.00,2322.96 493.00,2322.96
             493.00,2322.96 464.00,2344.52 464.00,2344.52
             464.00,2344.52 444.00,2360.00 444.00,2360.00
             444.00,2360.00 423.77,2379.00 423.77,2379.00
             423.77,2379.00 423.00,2382.00 423.00,2382.00
             419.56,2383.20 414.17,2385.06 411.51,2387.49
             408.45,2390.30 405.64,2396.53 400.00,2400.00
             395.79,2402.58 389.24,2403.10 384.00,2405.34
             373.75,2409.71 374.29,2411.48 366.83,2417.51
             366.83,2417.51 360.29,2422.22 360.29,2422.22
             357.50,2424.90 350.91,2433.42 349.70,2437.00
             348.34,2441.01 349.91,2443.82 346.35,2449.00
             346.35,2449.00 332.46,2465.00 332.46,2465.00
             332.46,2465.00 316.84,2490.00 316.84,2490.00
             316.84,2490.00 313.83,2498.00 313.83,2498.00
             313.83,2498.00 309.06,2508.00 309.06,2508.00
             309.06,2508.00 303.48,2526.00 303.48,2526.00
             303.48,2526.00 298.75,2538.00 298.75,2538.00
             298.75,2538.00 295.48,2550.00 295.48,2550.00
             295.48,2550.00 292.36,2559.00 292.36,2559.00
             292.36,2559.00 290.55,2570.00 290.55,2570.00
             290.55,2570.00 288.32,2579.00 288.32,2579.00
             287.42,2584.46 288.65,2584.19 286.30,2591.00
             286.30,2591.00 270.13,2640.00 270.13,2640.00
             270.13,2640.00 265.37,2649.00 265.37,2649.00
             261.52,2656.71 254.39,2675.68 254.00,2684.00
             254.00,2684.00 252.00,2683.00 252.00,2683.00
             250.01,2697.73 245.25,2700.15 241.92,2712.00
             241.92,2712.00 236.57,2736.00 236.57,2736.00
             236.57,2736.00 227.74,2762.00 227.74,2762.00
             227.74,2762.00 224.64,2777.00 224.64,2777.00
             224.64,2777.00 220.56,2786.00 220.56,2786.00
             219.56,2789.22 220.58,2791.15 218.56,2798.00
             218.56,2798.00 215.03,2808.00 215.03,2808.00
             215.03,2808.00 209.56,2828.00 209.56,2828.00
             209.56,2828.00 206.78,2836.00 206.78,2836.00
             206.78,2836.00 204.76,2846.00 204.76,2846.00
             204.76,2846.00 200.73,2860.00 200.73,2860.00
             200.73,2860.00 197.51,2874.00 197.51,2874.00
             197.51,2874.00 193.76,2885.00 193.76,2885.00
             193.76,2885.00 190.31,2908.00 190.31,2908.00
             189.24,2911.24 187.26,2913.19 186.39,2917.00
             186.39,2917.00 182.64,2942.00 182.64,2942.00
             182.64,2942.00 182.64,2950.00 182.64,2950.00
             182.64,2950.00 178.00,2966.00 178.00,2966.00
             177.12,2969.05 173.04,2983.25 173.71,2985.46
             174.09,2986.70 174.56,2986.57 175.00,2987.00
             175.00,2987.00 165.51,3021.00 165.51,3021.00
             165.51,3021.00 164.62,3027.00 164.62,3027.00
             162.52,3036.20 161.18,3029.10 161.00,3045.00
             161.00,3045.00 159.00,3073.00 159.00,3073.00
             159.00,3073.00 156.00,3072.00 156.00,3072.00
             156.00,3080.90 154.85,3097.39 153.20,3106.00
             153.20,3106.00 149.45,3122.00 149.45,3122.00
             149.45,3122.00 145.41,3145.00 145.41,3145.00
             145.41,3145.00 126.80,3196.00 126.80,3196.00
             126.80,3196.00 118.02,3223.00 118.02,3223.00
             116.96,3226.45 116.71,3230.70 113.00,3232.00
             113.00,3232.00 111.07,3244.00 111.07,3244.00
             111.07,3244.00 97.20,3277.00 97.20,3277.00
             97.20,3277.00 89.35,3299.91 89.35,3299.91
             89.35,3299.91 84.49,3307.04 84.49,3307.04
             84.49,3307.04 73.70,3341.00 73.70,3341.00
             73.70,3341.00 59.41,3375.84 59.41,3375.84
             57.38,3381.42 54.92,3380.37 56.00,3387.00
             56.00,3387.00 53.00,3386.00 53.00,3386.00
             53.00,3386.00 49.39,3396.00 49.39,3396.00
             48.50,3400.15 49.70,3401.42 47.76,3407.00
             45.54,3413.36 42.66,3417.29 39.81,3423.00
             39.81,3423.00 33.61,3438.00 33.61,3438.00
             33.61,3438.00 29.91,3452.00 29.91,3452.00
             29.91,3452.00 19.55,3480.00 19.55,3480.00
             19.55,3480.00 16.91,3489.00 16.91,3489.00
             14.99,3494.18 12.82,3495.78 10.96,3500.00
             10.96,3500.00 5.33,3518.00 5.33,3518.00
             1.97,3528.19 0.02,3527.59 0.00,3539.00
             0.00,3539.00 0.00,4020.00 0.00,4020.00
             0.03,4032.62 4.95,4030.92 20.96,4043.01
             33.09,4052.16 54.00,4062.97 68.00,4069.74
             78.85,4074.99 90.08,4079.76 100.00,4086.72
             102.58,4088.53 106.41,4091.17 107.79,4094.04
             107.79,4094.04 109.48,4110.00 109.48,4110.00
             109.25,4113.33 108.12,4116.64 108.39,4120.00
             108.92,4126.81 111.98,4127.13 112.14,4140.00
             112.14,4140.00 112.14,4160.00 112.14,4160.00
             113.04,4163.97 115.36,4166.06 115.70,4170.00
             115.70,4170.00 114.18,4182.00 114.18,4182.00
             114.18,4182.00 116.24,4198.00 116.24,4198.00
             117.34,4202.52 119.41,4204.46 118.00,4209.00
             123.52,4216.55 120.32,4215.66 121.25,4221.83
             121.25,4221.83 124.10,4234.00 124.10,4234.00
             124.10,4234.00 127.22,4242.00 127.22,4242.00
             127.22,4242.00 129.09,4252.00 129.09,4252.00
             129.09,4252.00 131.48,4261.00 131.48,4261.00
             131.48,4261.00 132.52,4268.00 132.52,4268.00
             132.52,4268.00 135.52,4278.00 135.52,4278.00
             135.52,4278.00 138.24,4291.00 138.24,4291.00
             138.24,4291.00 144.00,4309.00 144.00,4309.00
             144.00,4309.00 3713.00,4309.00 3713.00,4309.00
             3713.00,4309.00 3713.00,2530.00 3713.00,2530.00
             3705.03,2528.10 3704.27,2525.63 3698.00,2521.01
             3698.00,2521.01 3688.00,2514.07 3688.00,2514.07
             3688.00,2514.07 3681.17,2510.20 3681.17,2510.20
             3681.17,2510.20 3675.91,2505.98 3675.91,2505.98
             3675.91,2505.98 3668.00,2501.45 3668.00,2501.45
             3668.00,2501.45 3654.96,2489.21 3654.96,2489.21
             3654.96,2489.21 3646.04,2481.96 3646.04,2481.96
             3646.04,2481.96 3638.68,2473.04 3638.68,2473.04
             3638.68,2473.04 3624.72,2459.51 3624.72,2459.51
             3624.72,2459.51 3610.17,2448.61 3610.17,2448.61
             3610.17,2448.61 3602.99,2441.52 3602.99,2441.52
             3602.99,2441.52 3586.00,2429.48 3586.00,2429.48
             3586.00,2429.48 3575.00,2419.68 3575.00,2419.68
             3569.52,2415.50 3568.00,2416.26 3564.00,2413.51
             3564.00,2413.51 3557.00,2408.10 3557.00,2408.10
             3557.00,2408.10 3541.00,2398.99 3541.00,2398.99
             3541.00,2398.99 3527.00,2390.31 3527.00,2390.31
             3527.00,2390.31 3506.00,2380.33 3506.00,2380.33
             3506.00,2380.33 3477.00,2363.78 3477.00,2363.78
             3477.00,2363.78 3457.00,2354.63 3457.00,2354.63
             3457.00,2354.63 3446.00,2347.41 3446.00,2347.41
             3446.00,2347.41 3423.00,2335.79 3423.00,2335.79
             3423.00,2335.79 3405.00,2324.51 3405.00,2324.51
             3405.00,2324.51 3392.00,2318.12 3392.00,2318.12
             3392.00,2318.12 3384.00,2312.93 3384.00,2312.93
             3384.00,2312.93 3379.00,2310.72 3379.00,2310.72
             3379.00,2310.72 3372.00,2306.78 3372.00,2306.78
             3372.00,2306.78 3363.13,2303.45 3363.13,2303.45
             3359.61,2301.45 3360.18,2299.62 3356.78,2297.97
             3356.78,2297.97 3350.00,2295.49 3350.00,2295.49
             3350.00,2295.49 3334.09,2286.69 3334.09,2286.69
             3334.09,2286.69 3327.91,2282.37 3327.91,2282.37
             3327.91,2282.37 3320.00,2278.53 3320.00,2278.53
             3320.00,2278.53 3286.00,2258.34 3286.00,2258.34
             3286.00,2258.34 3271.00,2249.99 3271.00,2249.99
             3271.00,2249.99 3261.00,2245.67 3261.00,2245.67
             3253.02,2240.84 3248.86,2234.95 3247.41,2233.99
             3245.27,2232.57 3243.74,2233.51 3239.00,2230.78
             3228.97,2225.01 3212.98,2214.99 3202.00,2213.00
             3202.00,2213.00 3203.00,2209.00 3203.00,2209.00
             3198.90,2208.90 3192.63,2208.40 3191.00,2204.00
             3191.00,2204.00 3181.00,2202.10 3181.00,2202.10
             3174.31,2200.01 3170.77,2197.02 3165.00,2194.32
             3165.00,2194.32 3150.00,2188.44 3150.00,2188.44
             3150.00,2188.44 3140.00,2185.45 3140.00,2185.45
             3140.00,2185.45 3127.00,2180.08 3127.00,2180.08
             3127.00,2180.08 3116.00,2176.66 3116.00,2176.66
             3116.00,2176.66 3084.00,2161.32 3084.00,2161.32
             3084.00,2161.32 3064.00,2152.31 3064.00,2152.31
             3064.00,2152.31 3049.00,2145.81 3049.00,2145.81
             3049.00,2145.81 3037.00,2141.73 3037.00,2141.73
             3031.44,2138.79 3026.43,2131.66 3014.00,2125.12
             3014.00,2125.12 2979.00,2110.69 2979.00,2110.69
             2979.00,2110.69 2960.00,2103.51 2960.00,2103.51
             2960.00,2103.51 2934.00,2086.00 2934.00,2086.00
             2934.00,2086.00 2910.00,2071.08 2910.00,2071.08
             2910.00,2071.08 2902.00,2065.88 2902.00,2065.88
             2902.00,2065.88 2894.00,2061.83 2894.00,2061.83
             2894.00,2061.83 2881.00,2054.26 2881.00,2054.26
             2881.00,2054.26 2857.00,2042.34 2857.00,2042.34
             2857.00,2042.34 2848.00,2039.08 2848.00,2039.08
             2848.00,2039.08 2840.00,2034.00 2840.00,2034.00
             2840.00,2034.00 2832.00,2031.65 2832.00,2031.65
             2832.00,2031.65 2809.00,2021.42 2809.00,2021.42
             2809.00,2021.42 2743.00,2000.71 2743.00,2000.71
             2743.00,2000.71 2726.00,1994.49 2726.00,1994.49
             2726.00,1994.49 2712.00,1991.76 2712.00,1991.76
             2712.00,1991.76 2697.00,1987.47 2697.00,1987.47
             2697.00,1987.47 2686.00,1985.49 2686.00,1985.49
             2686.00,1985.49 2669.00,1980.43 2669.00,1980.43
             2669.00,1980.43 2647.00,1975.46 2647.00,1975.46
             2638.03,1973.80 2628.71,1974.19 2620.00,1971.14
             2607.24,1966.66 2601.63,1960.36 2591.00,1955.87
             2585.61,1953.60 2575.96,1951.72 2570.00,1950.35
             2566.54,1949.55 2561.87,1948.72 2559.60,1945.78
             2558.02,1943.73 2557.56,1938.05 2556.66,1935.00
             2555.53,1931.19 2553.36,1914.04 2553.48,1910.00
             2553.48,1910.00 2553.48,1905.00 2553.48,1905.00
             2553.43,1900.95 2552.18,1900.97 2552.00,1890.00
             2552.00,1890.00 2549.00,1864.00 2549.00,1864.00
             2549.00,1864.00 2546.96,1834.00 2546.96,1834.00
             2546.96,1834.00 2546.96,1824.00 2546.96,1824.00
             2546.96,1824.00 2545.00,1801.00 2545.00,1801.00
             2545.00,1801.00 2545.00,1775.00 2545.00,1775.00
             2545.00,1775.00 2546.51,1759.00 2546.51,1759.00
             2546.51,1759.00 2545.00,1751.00 2545.00,1751.00
             2556.26,1752.91 2551.31,1747.01 2555.75,1737.00
             2556.98,1734.22 2558.90,1732.11 2559.11,1729.00
             2559.11,1729.00 2559.11,1715.00 2559.11,1715.00
             2559.08,1714.03 2564.87,1700.59 2567.00,1690.00
             2567.00,1690.00 2560.00,1689.00 2560.00,1689.00
             2560.00,1689.00 2562.00,1684.00 2562.00,1684.00
             2562.00,1684.00 2560.00,1679.00 2560.00,1679.00
             2560.00,1679.00 2562.85,1681.00 2562.85,1681.00
             2567.65,1672.18 2562.90,1670.06 2562.85,1664.00
             2562.85,1664.00 2563.78,1654.00 2563.78,1654.00
             2563.78,1654.00 2562.31,1646.00 2562.31,1646.00
             2562.31,1646.00 2563.42,1639.00 2563.42,1639.00
             2563.43,1632.49 2560.07,1635.41 2565.00,1623.00
             2565.00,1623.00 2570.00,1624.00 2570.00,1624.00
             2570.00,1624.00 2570.67,1610.00 2570.67,1610.00
             2571.38,1602.00 2567.59,1600.92 2570.67,1590.00
             2571.63,1585.83 2574.11,1583.67 2576.00,1580.00
             2576.00,1580.00 2575.00,1579.00 2575.00,1579.00
             2575.00,1579.00 2573.00,1580.00 2573.00,1580.00
             2574.63,1575.91 2576.71,1568.07 2580.13,1565.60
             2583.84,1562.91 2588.76,1564.80 2593.00,1564.96
             2602.12,1565.31 2612.23,1562.18 2618.91,1555.82
             2629.54,1545.69 2635.98,1523.47 2636.00,1509.00
             2636.00,1509.00 2636.00,1494.00 2636.00,1494.00
             2636.03,1488.42 2638.58,1479.62 2641.58,1475.00
             2641.58,1475.00 2646.54,1469.00 2646.54,1469.00
             2649.36,1465.56 2650.36,1462.53 2655.00,1462.00
             2657.31,1450.70 2660.50,1450.03 2665.66,1441.00
             2665.66,1441.00 2684.69,1406.00 2684.69,1406.00
             2684.69,1406.00 2705.89,1361.00 2705.89,1361.00
             2705.89,1361.00 2712.22,1350.00 2712.22,1350.00
             2712.22,1350.00 2717.03,1340.00 2717.03,1340.00
             2717.03,1340.00 2723.22,1330.00 2723.22,1330.00
             2723.22,1330.00 2731.26,1313.00 2731.26,1313.00
             2731.26,1313.00 2739.21,1300.00 2739.21,1300.00
             2739.21,1300.00 2748.02,1273.00 2748.02,1273.00
             2748.02,1273.00 2754.34,1253.00 2754.34,1253.00
             2757.27,1239.50 2758.15,1225.72 2759.09,1212.00
             2759.09,1212.00 2759.96,1204.00 2759.96,1204.00
             2759.96,1204.00 2758.10,1182.00 2758.10,1182.00
             2758.10,1182.00 2749.46,1160.00 2749.46,1160.00
             2749.46,1160.00 2741.66,1131.04 2741.66,1131.04
             2740.36,1127.45 2738.76,1126.81 2737.41,1123.91
             2736.17,1121.24 2735.26,1113.19 2735.00,1110.00
             2729.95,1107.18 2731.05,1104.70 2728.60,1100.00
             2728.60,1100.00 2722.05,1090.00 2722.05,1090.00
             2719.90,1085.95 2720.30,1083.18 2716.66,1079.68
             2707.25,1070.63 2689.38,1068.86 2677.00,1069.00
             2669.81,1069.09 2668.33,1070.42 2662.00,1071.54
             2652.24,1073.27 2656.77,1070.26 2646.00,1075.49
             2639.06,1078.85 2633.77,1076.60 2630.00,1084.00
             2627.64,1075.62 2632.32,1067.44 2632.91,1059.00
             2632.91,1059.00 2633.82,1042.00 2633.82,1042.00
             2633.23,1034.29 2630.80,1030.61 2631.01,1021.00
             2631.01,1021.00 2631.79,1011.00 2631.79,1011.00
             2631.79,1011.00 2630.43,1003.00 2630.43,1003.00
             2630.43,1003.00 2627.76,982.00 2627.76,982.00
             2627.76,982.00 2627.76,965.00 2627.76,965.00
             2627.76,965.00 2626.09,942.00 2626.09,942.00
             2626.09,942.00 2621.91,887.00 2621.91,887.00
             2621.91,887.00 2619.58,865.00 2619.58,865.00
             2619.58,865.00 2617.04,847.00 2617.04,847.00
             2617.04,847.00 2617.91,833.00 2617.91,833.00
             2617.91,833.00 2614.08,805.00 2614.08,805.00
             2614.08,805.00 2614.08,797.00 2614.08,797.00
             2614.08,797.00 2613.00,784.00 2613.00,784.00
             2612.92,776.56 2612.88,768.34 2611.68,761.00
             2611.68,761.00 2608.31,748.00 2608.31,748.00
             2608.31,748.00 2606.71,734.00 2606.71,734.00
             2606.71,734.00 2604.28,722.00 2604.28,722.00
             2604.28,722.00 2597.00,680.00 2597.00,680.00
             2597.00,680.00 2593.45,666.00 2593.45,666.00
             2593.45,666.00 2586.87,636.00 2586.87,636.00
             2586.87,636.00 2578.25,619.00 2578.25,619.00
             2578.25,619.00 2566.82,594.00 2566.82,594.00
             2566.82,594.00 2558.87,579.00 2558.87,579.00
             2558.87,579.00 2551.44,560.00 2551.44,560.00
             2551.44,560.00 2546.48,541.00 2546.48,541.00
             2546.48,541.00 2530.63,505.00 2530.63,505.00
             2523.89,491.71 2512.62,476.16 2502.70,465.04
             2502.70,465.04 2496.51,458.83 2496.51,458.83
             2496.51,458.83 2475.72,436.17 2475.72,436.17
             2472.07,432.45 2458.66,422.42 2454.00,419.36
             2454.00,419.36 2447.17,415.20 2447.17,415.20
             2444.05,412.90 2443.12,410.68 2439.00,407.96
             2439.00,407.96 2429.00,402.40 2429.00,402.40
             2429.00,402.40 2418.00,394.12 2418.00,394.12
             2418.00,394.12 2387.00,375.38 2387.00,375.38
             2387.00,375.38 2378.00,368.93 2378.00,368.93
             2378.00,368.93 2370.17,366.02 2370.17,366.02
             2367.50,364.45 2366.72,362.41 2362.99,360.65
             2362.99,360.65 2353.00,357.46 2353.00,357.46
             2353.00,357.46 2342.00,352.69 2342.00,352.69
             2342.00,352.69 2323.00,346.13 2323.00,346.13
             2323.00,346.13 2311.00,340.43 2311.00,340.43
             2311.00,340.43 2299.00,335.68 2299.00,335.68
             2293.50,333.13 2291.33,331.33 2285.00,329.44
             2285.00,329.44 2265.00,324.85 2265.00,324.85
             2265.00,324.85 2252.00,320.44 2252.00,320.44
             2252.00,320.44 2233.00,316.75 2233.00,316.75
             2233.00,316.75 2203.00,313.07 2203.00,313.07
             2193.76,310.56 2190.71,305.09 2184.00,299.18
             2180.28,295.91 2176.58,293.99 2173.39,289.99
             2169.29,284.83 2170.43,281.44 2163.98,276.80
             2156.54,271.43 2147.68,271.90 2139.00,272.00
             2132.05,272.09 2125.77,274.44 2119.00,275.80
             2119.00,275.80 2095.00,280.58 2095.00,280.58
             2095.00,280.58 2082.00,282.66 2082.00,282.66
             2071.23,284.92 2063.41,287.98 2052.00,288.12
             2052.00,288.12 2030.00,288.12 2030.00,288.12
             2030.00,288.12 2018.00,288.12 2018.00,288.12
             2018.00,288.12 1991.00,288.12 1991.00,288.12
             1991.00,288.12 1971.00,289.00 1971.00,289.00
             1959.21,289.14 1939.79,294.42 1929.00,299.17
             1914.04,305.76 1895.14,323.70 1887.00,326.88
             1887.00,326.88 1850.00,334.53 1850.00,334.53
             1844.24,337.03 1841.71,341.09 1837.00,343.56
             1837.00,343.56 1827.00,347.49 1827.00,347.49
             1827.00,347.49 1815.00,354.68 1815.00,354.68
             1815.00,354.68 1800.04,361.68 1800.04,361.68
             1800.04,361.68 1792.91,366.58 1792.91,366.58
             1790.63,367.70 1785.06,368.61 1778.00,372.32
             1778.00,372.32 1752.00,387.09 1752.00,387.09
             1752.00,387.09 1735.00,399.04 1735.00,399.04
             1735.00,399.04 1717.00,408.79 1717.00,408.79
             1717.00,408.79 1707.00,417.54 1707.00,417.54
             1707.00,417.54 1681.00,437.75 1681.00,437.75
             1675.57,441.74 1673.32,441.40 1670.28,443.70
             1670.28,443.70 1643.00,468.91 1643.00,468.91
             1638.27,473.23 1635.59,473.83 1633.63,475.68
             1633.63,475.68 1628.79,482.00 1628.79,482.00
             1628.79,482.00 1615.34,496.91 1615.34,496.91
             1615.34,496.91 1609.46,503.09 1609.46,503.09
             1609.46,503.09 1591.48,526.00 1591.48,526.00
             1591.48,526.00 1583.70,538.00 1583.70,538.00
             1583.70,538.00 1573.36,551.00 1573.36,551.00
             1568.23,558.71 1568.82,563.04 1566.72,566.79
             1565.70,568.61 1561.75,572.27 1557.82,580.00
             1557.82,580.00 1552.10,596.00 1552.10,596.00
             1552.10,596.00 1546.52,606.00 1546.52,606.00
             1546.52,606.00 1540.00,626.00 1540.00,626.00
             1540.00,626.00 1531.78,649.00 1531.78,649.00
             1531.78,649.00 1528.96,669.00 1528.96,669.00
             1528.96,669.00 1524.22,681.00 1524.22,681.00
             1524.22,681.00 1520.64,696.00 1520.64,696.00
             1520.64,696.00 1514.34,711.00 1514.34,711.00
             1508.99,726.27 1505.19,743.85 1505.00,760.00
             1504.86,771.85 1500.77,781.56 1501.40,794.00
             1501.93,797.48 1501.27,798.81 1501.40,802.00
             1500.89,805.60 1501.44,806.83 1501.40,810.00
             1501.40,810.00 1501.40,819.00 1501.40,819.00
             1501.40,819.00 1501.40,829.00 1501.40,829.00
             1501.40,829.00 1500.00,841.00 1500.00,841.00 Z
           M 1475.00,1019.00
           C 1475.00,1019.00 1475.00,1020.00 1475.00,1020.00
             1475.00,1020.00 1476.00,1019.00 1476.00,1019.00
             1476.00,1019.00 1475.00,1019.00 1475.00,1019.00 Z
           M 1541.00,1845.00
           C 1541.00,1845.00 1536.00,1847.00 1536.00,1847.00
             1536.00,1847.00 1537.00,1844.00 1537.00,1844.00
             1537.00,1844.00 1541.00,1845.00 1541.00,1845.00 Z
           M 573.00,2253.00
           C 573.00,2253.00 573.00,2254.00 573.00,2254.00
             573.00,2254.00 572.00,2253.00 572.00,2253.00
             572.00,2253.00 573.00,2253.00 573.00,2253.00 Z
           M 481.00,2321.00
           C 481.00,2321.00 481.00,2322.00 481.00,2322.00
             481.00,2322.00 482.00,2321.00 482.00,2321.00
             482.00,2321.00 481.00,2321.00 481.00,2321.00 Z
           M 176.00,2986.00
           C 176.00,2986.00 176.00,2987.00 176.00,2987.00
             176.00,2987.00 175.00,2986.00 175.00,2986.00
             175.00,2986.00 176.00,2986.00 176.00,2986.00 Z
           M 77.00,3335.00
           C 77.00,3335.00 77.00,3336.00 77.00,3336.00
             77.00,3336.00 76.00,3335.00 76.00,3335.00
             76.00,3335.00 77.00,3335.00 77.00,3335.00 Z
           M 121.00,4208.00
           C 121.00,4208.00 121.00,4209.00 121.00,4209.00
             121.00,4209.00 120.00,4208.00 120.00,4208.00
             120.00,4208.00 121.00,4208.00 121.00,4208.00 Z" />
</svg>
