<?xml version="1.0" encoding="UTF-8" standalone="no"?>
<!DOCTYPE svg PUBLIC "-//W3C//DTD SVG 20010904//EN"
              "http://www.w3.org/TR/2001/REC-SVG-20010904/DTD/svg10.dtd">

<svg xmlns="http://www.w3.org/2000/svg"
     width="12.1033in" height="13.38in"
     viewBox="0 0 3631 4014">
  <path id="face"
        fill="none" stroke="black" stroke-width="1"
        d="M 1735.00,386.00
           C 1724.18,387.56 1719.33,393.22 1710.72,398.50
             1707.63,400.40 1706.10,399.61 1703.28,400.92
             1703.28,400.92 1695.28,405.63 1695.28,405.63
             1695.28,405.63 1675.00,411.44 1675.00,411.44
             1675.00,411.44 1664.00,416.15 1664.00,416.15
             1664.00,416.15 1647.00,419.64 1647.00,419.64
             1647.00,419.64 1633.00,425.46 1633.00,425.46
             1625.37,428.48 1623.77,430.54 1618.00,433.47
             1618.00,433.47 1610.17,436.76 1610.17,436.76
             1605.90,438.92 1606.23,440.88 1601.00,441.00
             1597.12,447.17 1591.14,448.82 1585.00,451.94
             1581.66,453.63 1571.74,460.24 1568.58,462.69
             1564.45,465.90 1559.94,467.29 1559.00,473.00
             1554.80,474.16 1553.41,474.76 1552.00,479.00
             1552.00,479.00 1537.00,484.00 1537.00,484.00
             1537.00,484.00 1536.00,488.00 1536.00,488.00
             1530.91,488.83 1529.83,489.91 1529.00,495.00
             1522.32,495.70 1518.70,500.74 1513.91,504.74
             1513.91,504.74 1500.49,512.88 1500.49,512.88
             1500.49,512.88 1495.65,519.71 1495.65,519.71
             1493.19,522.66 1491.54,522.95 1491.00,527.00
             1487.50,528.49 1478.98,533.41 1478.00,537.00
             1474.04,538.31 1474.48,539.00 1471.54,541.53
             1465.89,546.37 1464.49,546.47 1459.18,553.01
             1459.18,553.01 1451.65,563.74 1451.65,563.74
             1447.32,568.76 1445.76,567.34 1442.26,570.42
             1442.26,570.42 1431.72,581.90 1431.72,581.90
             1424.63,589.15 1414.38,597.46 1413.00,608.00
             1405.90,610.42 1408.95,616.04 1404.00,618.00
             1404.00,618.00 1400.00,625.00 1400.00,625.00
             1399.61,630.78 1395.15,633.66 1392.05,638.09
             1392.05,638.09 1385.95,648.87 1385.95,648.87
             1382.28,654.20 1378.46,652.93 1381.00,662.00
             1381.00,662.00 1377.00,663.00 1377.00,663.00
             1376.96,667.56 1374.89,667.97 1372.67,672.04
             1372.67,672.04 1361.73,691.09 1361.73,691.09
             1360.27,693.52 1356.02,698.42 1358.00,701.00
             1350.54,707.97 1349.00,715.48 1346.26,725.00
             1342.72,737.30 1341.69,733.79 1342.47,747.00
             1342.47,747.00 1342.47,755.00 1342.47,755.00
             1342.47,755.00 1343.82,764.00 1343.82,764.00
             1343.82,764.00 1341.71,782.00 1341.71,782.00
             1340.42,791.87 1338.02,792.49 1338.00,805.00
             1337.98,816.49 1338.48,823.39 1336.23,834.99
             1336.23,834.99 1331.33,853.00 1331.33,853.00
             1331.33,853.00 1330.39,864.00 1330.39,864.00
             1330.39,864.00 1327.55,877.83 1327.55,877.83
             1327.55,877.83 1324.75,884.04 1324.75,884.04
             1321.44,893.11 1321.16,899.59 1321.01,909.01
             1321.01,909.01 1321.82,922.00 1321.82,922.00
             1321.76,926.85 1319.88,926.79 1320.00,938.00
             1320.00,938.00 1321.00,953.00 1321.00,953.00
             1321.03,969.65 1321.96,984.50 1324.29,1001.00
             1325.13,1006.95 1326.39,1007.24 1327.46,1011.00
             1327.46,1011.00 1330.12,1030.83 1330.12,1030.83
             1330.12,1030.83 1327.61,1064.00 1327.61,1064.00
             1327.55,1068.33 1329.32,1071.06 1329.61,1075.00
             1329.93,1079.18 1328.46,1084.12 1327.00,1088.00
             1327.00,1088.00 1325.00,1088.00 1325.00,1088.00
             1323.69,1085.47 1322.65,1083.53 1320.53,1081.53
             1317.76,1078.91 1304.84,1072.79 1301.01,1072.32
             1296.76,1071.80 1296.37,1073.23 1292.91,1074.49
             1290.14,1075.49 1277.48,1079.03 1275.00,1079.00
             1275.00,1079.00 1269.94,1090.83 1269.94,1090.83
             1269.94,1090.83 1264.76,1098.99 1264.76,1098.99
             1264.76,1098.99 1264.76,1106.08 1264.76,1106.08
             1264.76,1106.08 1263.00,1120.00 1263.00,1120.00
             1263.00,1120.00 1260.00,1120.00 1260.00,1120.00
             1260.00,1120.00 1258.68,1134.00 1258.68,1134.00
             1258.68,1134.00 1256.95,1141.00 1256.95,1141.00
             1256.95,1141.00 1256.95,1150.00 1256.95,1150.00
             1255.80,1157.40 1255.01,1157.59 1255.00,1166.00
             1255.00,1166.00 1255.00,1192.00 1255.00,1192.00
             1255.00,1192.00 1256.92,1218.00 1256.92,1218.00
             1256.92,1218.00 1259.54,1229.00 1259.54,1229.00
             1259.54,1229.00 1260.51,1238.00 1260.51,1238.00
             1260.51,1238.00 1265.91,1254.00 1265.91,1254.00
             1265.91,1254.00 1267.92,1271.00 1267.92,1271.00
             1267.92,1275.11 1266.66,1277.99 1267.10,1283.00
             1267.10,1283.00 1269.05,1291.83 1269.05,1291.83
             1269.05,1291.83 1271.19,1311.00 1271.19,1311.00
             1271.19,1311.00 1272.98,1321.67 1272.98,1321.67
             1272.98,1321.67 1274.13,1341.00 1274.13,1341.00
             1274.13,1341.00 1279.00,1357.00 1279.00,1357.00
             1279.00,1357.00 1281.60,1373.70 1281.60,1373.70
             1282.75,1376.22 1285.17,1376.20 1286.40,1379.14
             1286.40,1379.14 1287.62,1397.00 1287.62,1397.00
             1287.68,1399.12 1287.18,1400.79 1287.62,1403.00
             1287.85,1407.16 1294.25,1421.47 1296.71,1424.87
             1296.71,1424.87 1304.26,1432.32 1304.26,1432.32
             1304.26,1432.32 1312.00,1436.18 1312.00,1436.18
             1319.10,1439.97 1319.62,1440.82 1328.00,1441.00
             1330.63,1448.38 1347.05,1449.68 1354.00,1450.00
             1354.00,1450.00 1351.21,1480.00 1351.21,1480.00
             1351.21,1480.00 1354.84,1493.00 1354.84,1493.00
             1354.84,1493.00 1354.84,1513.00 1354.84,1513.00
             1355.00,1517.74 1355.91,1523.04 1353.00,1527.00
             1353.00,1527.00 1358.85,1549.00 1358.85,1549.00
             1358.85,1549.00 1358.85,1570.00 1358.85,1570.00
             1358.85,1570.00 1361.92,1596.00 1361.92,1596.00
             1361.92,1596.00 1361.92,1608.00 1361.92,1608.00
             1362.02,1620.29 1364.89,1640.09 1368.15,1652.00
             1368.15,1652.00 1373.24,1669.00 1373.24,1669.00
             1374.70,1674.80 1373.22,1676.75 1375.04,1683.00
             1375.04,1683.00 1391.00,1724.00 1391.00,1724.00
             1391.00,1724.00 1398.58,1744.00 1398.58,1744.00
             1398.58,1744.00 1413.82,1760.00 1413.82,1760.00
             1413.82,1760.00 1419.75,1768.00 1419.75,1768.00
             1420.97,1769.67 1423.13,1772.16 1423.92,1774.00
             1424.63,1776.12 1423.95,1782.19 1423.92,1785.00
             1424.32,1798.20 1431.95,1808.20 1435.90,1820.00
             1437.60,1825.10 1436.40,1827.11 1437.90,1832.00
             1437.90,1832.00 1457.63,1878.00 1457.63,1878.00
             1457.63,1878.00 1480.98,1912.00 1480.98,1912.00
             1480.98,1912.00 1495.89,1933.00 1495.89,1933.00
             1495.89,1933.00 1516.59,1958.00 1516.59,1958.00
             1516.59,1958.00 1536.04,1980.70 1536.04,1980.70
             1536.04,1980.70 1549.00,1990.37 1549.00,1990.37
             1549.00,1990.37 1589.96,2020.65 1589.96,2020.65
             1589.96,2020.65 1598.04,2027.92 1598.04,2027.92
             1598.04,2027.92 1620.00,2046.25 1620.00,2046.25
             1623.77,2049.39 1631.06,2055.83 1635.00,2057.96
             1635.00,2057.96 1676.00,2073.00 1676.00,2073.00
             1676.00,2073.00 1717.00,2087.12 1717.00,2087.12
             1717.00,2087.12 1756.00,2092.28 1756.00,2092.28
             1756.00,2092.28 1788.00,2096.15 1788.00,2096.15
             1788.00,2096.15 1801.00,2097.82 1801.00,2097.82
             1801.00,2097.82 1836.00,2092.41 1836.00,2092.41
             1836.00,2092.41 1887.00,2083.12 1887.00,2083.12
             1887.00,2083.12 1917.00,2072.69 1917.00,2072.69
             1917.00,2072.69 1978.00,2050.37 1978.00,2050.37
             1978.00,2050.37 2011.00,2031.20 2011.00,2031.20
             2011.00,2031.20 2035.00,2016.62 2035.00,2016.62
             2035.00,2016.62 2064.09,1986.00 2064.09,1986.00
             2064.09,1986.00 2074.42,1975.32 2074.42,1975.32
             2074.42,1975.32 2081.48,1968.91 2081.48,1968.91
             2081.48,1968.91 2099.02,1944.00 2099.02,1944.00
             2099.02,1944.00 2112.69,1924.00 2112.69,1924.00
             2112.69,1924.00 2140.67,1865.00 2140.67,1865.00
             2140.67,1865.00 2151.95,1847.00 2151.95,1847.00
             2151.95,1847.00 2176.69,1808.00 2176.69,1808.00
             2176.69,1808.00 2188.40,1790.99 2188.40,1790.99
             2188.40,1790.99 2197.78,1769.00 2197.78,1769.00
             2197.78,1769.00 2212.46,1738.00 2212.46,1738.00
             2212.46,1738.00 2229.43,1676.00 2229.43,1676.00
             2229.43,1676.00 2237.46,1656.00 2237.46,1656.00
             2237.46,1656.00 2245.63,1626.00 2245.63,1626.00
             2247.61,1618.00 2247.49,1602.80 2248.09,1594.00
             2248.09,1594.00 2249.91,1571.00 2249.91,1571.00
             2249.91,1571.00 2251.17,1547.00 2251.17,1547.00
             2251.17,1547.00 2253.83,1522.00 2253.83,1522.00
             2253.83,1522.00 2256.47,1495.17 2256.47,1495.17
             2259.21,1484.24 2264.84,1483.56 2274.00,1480.53
             2274.00,1480.53 2281.00,1477.43 2281.00,1477.43
             2281.00,1477.43 2286.83,1475.79 2286.83,1475.79
             2286.83,1475.79 2291.17,1473.48 2291.17,1473.48
             2296.91,1470.93 2297.52,1471.36 2302.64,1466.57
             2302.64,1466.57 2306.37,1462.96 2306.37,1462.96
             2306.37,1462.96 2311.86,1459.97 2311.86,1459.97
             2314.47,1457.99 2314.57,1456.62 2316.10,1454.07
             2322.43,1443.52 2321.15,1444.34 2324.16,1433.00
             2324.16,1433.00 2330.05,1417.00 2330.05,1417.00
             2330.05,1417.00 2332.28,1408.01 2332.28,1408.01
             2332.28,1408.01 2335.49,1401.72 2335.49,1401.72
             2336.57,1398.45 2335.19,1396.35 2337.88,1390.00
             2337.88,1390.00 2342.05,1381.00 2342.05,1381.00
             2342.05,1381.00 2344.90,1370.00 2344.90,1370.00
             2346.75,1364.16 2348.99,1362.49 2348.00,1356.00
             2348.00,1356.00 2351.00,1355.00 2351.00,1355.00
             2351.00,1355.00 2350.00,1352.00 2350.00,1352.00
             2352.24,1349.99 2352.83,1345.07 2353.56,1342.00
             2353.56,1342.00 2355.39,1333.01 2355.39,1333.01
             2357.26,1326.25 2359.85,1321.45 2358.00,1314.00
             2360.86,1311.45 2360.60,1306.63 2361.25,1303.00
             2361.25,1303.00 2366.44,1285.00 2366.44,1285.00
             2366.97,1281.99 2365.82,1276.44 2369.00,1275.00
             2369.06,1268.04 2376.77,1252.04 2376.84,1240.28
             2376.84,1240.28 2377.43,1233.00 2377.43,1233.00
             2377.63,1213.40 2379.01,1193.57 2376.83,1174.00
             2376.83,1174.00 2374.99,1166.00 2374.99,1166.00
             2374.99,1166.00 2372.54,1153.00 2372.54,1153.00
             2372.54,1153.00 2365.84,1134.00 2365.84,1134.00
             2364.70,1130.98 2360.53,1123.71 2358.32,1121.58
             2357.02,1120.33 2355.64,1119.96 2354.15,1119.09
             2354.15,1119.09 2348.91,1115.85 2348.91,1115.85
             2342.78,1113.17 2332.61,1112.43 2326.00,1113.00
             2319.56,1113.56 2308.60,1117.40 2305.00,1123.00
             2305.00,1123.00 2299.00,1124.00 2299.00,1124.00
             2299.00,1124.00 2303.70,1103.00 2303.70,1103.00
             2303.70,1103.00 2304.30,1094.00 2304.30,1094.00
             2305.50,1086.24 2307.98,1087.55 2308.00,1074.00
             2308.00,1074.00 2309.38,1040.00 2309.38,1040.00
             2309.38,1040.00 2309.38,1023.00 2309.38,1023.00
             2309.38,1023.00 2309.38,1014.00 2309.38,1014.00
             2309.38,1014.00 2308.00,990.00 2308.00,990.00
             2308.00,990.00 2307.34,976.00 2307.34,976.00
             2307.34,976.00 2308.00,967.00 2308.00,967.00
             2308.19,950.21 2305.14,951.49 2304.87,940.00
             2304.87,940.00 2304.87,914.00 2304.87,914.00
             2304.87,914.00 2299.21,892.00 2299.21,892.00
             2299.21,892.00 2297.82,874.00 2297.82,874.00
             2297.82,874.00 2293.46,854.00 2293.46,854.00
             2293.46,854.00 2292.56,843.00 2292.56,843.00
             2292.56,843.00 2290.29,832.00 2290.29,832.00
             2290.29,832.00 2289.12,822.00 2289.12,822.00
             2287.73,814.69 2286.87,816.75 2287.00,808.00
             2287.00,808.00 2284.00,809.00 2284.00,809.00
             2285.36,804.17 2284.77,799.82 2283.46,795.00
             2282.45,791.27 2280.51,789.85 2282.00,786.00
             2277.22,777.04 2278.94,767.04 2276.04,759.00
             2276.04,759.00 2270.72,748.58 2270.72,748.58
             2270.72,748.58 2267.83,741.00 2267.83,741.00
             2267.83,741.00 2264.60,734.00 2264.60,734.00
             2264.60,734.00 2261.31,724.00 2261.31,724.00
             2261.31,724.00 2257.05,714.00 2257.05,714.00
             2257.05,714.00 2251.10,695.00 2251.10,695.00
             2250.03,691.89 2250.45,688.98 2247.00,688.00
             2247.69,678.58 2238.66,671.00 2241.00,664.00
             2241.00,664.00 2240.00,663.00 2240.00,663.00
             2240.00,663.00 2238.00,664.00 2238.00,664.00
             2238.00,664.00 2234.22,648.00 2234.22,648.00
             2234.22,648.00 2229.00,632.00 2229.00,632.00
             2229.00,632.00 2223.00,626.00 2223.00,626.00
             2223.00,626.00 2224.00,623.00 2224.00,623.00
             2224.00,623.00 2214.64,605.83 2214.64,605.83
             2214.64,605.83 2209.53,599.00 2209.53,599.00
             2209.53,599.00 2202.16,587.09 2202.16,587.09
             2198.87,581.87 2196.57,576.05 2191.00,573.00
             2190.06,563.96 2177.18,553.28 2171.59,547.00
             2171.59,547.00 2158.57,532.59 2158.57,532.59
             2158.57,532.59 2152.47,526.72 2152.47,526.72
             2152.47,526.72 2143.57,516.27 2143.57,516.27
             2143.57,516.27 2133.77,506.91 2133.77,506.91
             2133.77,506.91 2127.09,501.79 2127.09,501.79
             2127.09,501.79 2121.20,495.18 2121.20,495.18
             2116.00,489.59 2107.68,487.00 2104.00,480.00
             2099.89,479.59 2099.81,477.89 2096.83,475.45
             2096.83,475.45 2091.00,471.45 2091.00,471.45
             2091.00,471.45 2084.59,465.45 2084.59,465.45
             2077.29,458.74 2069.10,453.73 2061.00,448.16
             2053.17,442.78 2056.77,443.58 2046.00,438.25
             2038.17,434.37 2039.33,435.97 2034.00,433.82
             2034.00,433.82 2022.00,428.04 2022.00,428.04
             2017.84,426.14 2017.24,426.63 2014.17,425.54
             2014.17,425.54 2007.96,422.56 2007.96,422.56
             2004.20,421.11 2000.99,420.93 1997.09,418.82
             1997.09,418.82 1977.00,406.45 1977.00,406.45
             1965.58,398.01 1968.84,395.96 1953.00,390.24
             1939.52,385.37 1917.60,383.03 1903.00,380.75
             1903.00,380.75 1896.00,379.25 1896.00,379.25
             1896.00,379.25 1849.00,375.05 1849.00,375.05
             1849.00,375.05 1839.00,376.44 1839.00,376.44
             1839.00,376.44 1802.00,373.10 1802.00,373.10
             1802.00,373.10 1788.00,374.00 1788.00,374.00
             1775.23,374.02 1772.75,375.29 1761.00,376.91
             1754.23,377.85 1747.21,377.94 1741.00,381.13
             1738.27,382.53 1735.85,382.98 1735.00,386.00 Z
           M 1359.00,700.00
           C 1359.00,700.00 1359.00,701.00 1359.00,701.00
             1359.00,701.00 1358.00,700.00 1358.00,700.00
             1358.00,700.00 1359.00,700.00 1359.00,700.00 Z" />
  <path id="profile"
        fill="none" stroke="black" stroke-width="1"
        d="M 1381.00,662.00
           C 1374.85,664.40 1369.99,676.25 1366.72,682.00
             1366.72,682.00 1359.55,694.00 1359.55,694.00
             1359.55,694.00 1357.01,701.00 1357.01,701.00
             1357.01,701.00 1351.27,710.00 1351.27,710.00
             1347.89,716.61 1342.09,735.66 1342.00,743.00
             1341.85,755.69 1342.85,753.73 1343.49,763.00
             1344.13,772.36 1339.90,787.63 1338.22,797.00
             1338.22,797.00 1338.22,818.00 1338.22,818.00
             1337.93,832.03 1334.10,839.39 1331.51,852.00
             1331.51,852.00 1330.83,860.00 1330.83,860.00
             1330.83,860.00 1327.70,876.00 1327.70,876.00
             1324.36,887.83 1321.17,890.98 1321.00,905.00
             1321.00,905.00 1321.82,921.00 1321.82,921.00
             1321.80,925.49 1319.86,927.46 1320.00,940.00
             1320.00,940.00 1321.00,955.00 1321.00,955.00
             1321.00,955.00 1323.28,994.00 1323.28,994.00
             1324.53,1004.02 1325.67,1004.12 1327.47,1012.00
             1328.24,1015.36 1330.09,1030.63 1329.96,1034.00
             1329.96,1034.00 1328.00,1058.00 1328.00,1058.00
             1327.84,1071.90 1331.13,1073.71 1327.00,1088.00
             1327.00,1088.00 1325.00,1088.00 1325.00,1088.00
             1323.45,1085.11 1322.46,1083.46 1319.96,1081.21
             1316.35,1077.96 1304.86,1072.37 1300.00,1072.37
             1296.88,1072.37 1290.62,1075.15 1287.00,1076.12
             1283.59,1077.03 1277.07,1078.03 1274.70,1080.51
             1272.99,1082.30 1271.65,1086.61 1270.51,1089.00
             1270.51,1089.00 1265.70,1098.00 1265.70,1098.00
             1265.70,1098.00 1263.00,1120.00 1263.00,1120.00
             1263.00,1120.00 1260.00,1120.00 1260.00,1120.00
             1260.00,1120.00 1258.70,1133.00 1258.70,1133.00
             1258.70,1133.00 1256.94,1141.00 1256.94,1141.00
             1256.94,1141.00 1256.94,1150.00 1256.94,1150.00
             1255.80,1157.40 1255.01,1157.59 1255.00,1166.00
             1255.00,1166.00 1255.00,1191.00 1255.00,1191.00
             1255.02,1204.22 1257.24,1217.05 1259.54,1230.00
             1259.54,1230.00 1260.52,1238.00 1260.52,1238.00
             1263.18,1250.47 1265.33,1248.56 1267.16,1266.00
             1267.46,1268.79 1267.90,1270.05 1267.68,1273.00
             1266.58,1287.61 1268.42,1285.78 1269.84,1299.00
             1269.84,1299.00 1272.83,1322.00 1272.83,1322.00
             1272.83,1322.00 1274.17,1340.00 1274.17,1340.00
             1274.17,1340.00 1278.76,1357.00 1278.76,1357.00
             1278.76,1357.00 1281.39,1372.00 1281.39,1372.00
             1282.61,1375.92 1284.83,1377.51 1286.11,1381.00
             1286.98,1383.35 1287.42,1394.91 1287.45,1398.00
             1287.53,1409.11 1293.83,1424.77 1303.00,1431.37
             1305.34,1433.05 1316.21,1438.62 1319.00,1439.61
             1319.00,1439.61 1326.00,1441.56 1326.00,1441.56
             1326.00,1441.56 1334.00,1446.44 1334.00,1446.44
             1339.11,1448.90 1348.31,1449.95 1354.00,1450.00
             1354.00,1450.00 1351.39,1480.00 1351.39,1480.00
             1351.84,1486.03 1354.88,1489.31 1354.95,1499.00
             1354.95,1499.00 1354.95,1520.00 1354.95,1520.00
             1354.61,1523.07 1353.29,1525.89 1353.57,1529.00
             1353.57,1529.00 1358.77,1549.00 1358.77,1549.00
             1358.77,1549.00 1358.77,1570.00 1358.77,1570.00
             1358.77,1570.00 1362.00,1602.00 1362.00,1602.00
             1362.00,1602.00 1362.00,1609.00 1362.00,1609.00
             1362.00,1609.00 1362.91,1619.00 1362.91,1619.00
             1364.80,1646.06 1372.58,1667.25 1379.96,1693.00
             1379.96,1693.00 1381.78,1701.00 1381.78,1701.00
             1381.78,1701.00 1392.80,1729.00 1392.80,1729.00
             1394.47,1733.18 1398.37,1743.86 1400.65,1746.96
             1402.70,1749.76 1405.48,1751.65 1407.91,1754.09
             1411.26,1757.44 1421.55,1769.94 1423.15,1774.00
             1424.30,1776.92 1423.97,1780.86 1424.00,1784.00
             1424.10,1792.32 1426.88,1800.49 1430.31,1808.00
             1432.16,1812.06 1436.14,1819.77 1436.59,1824.00
             1436.59,1824.00 1435.00,1843.00 1435.00,1843.00
             1435.00,1843.00 1436.19,1859.00 1436.19,1859.00
             1436.19,1859.00 1436.19,1865.00 1436.19,1865.00
             1436.19,1865.00 1437.30,1886.00 1437.30,1886.00
             1437.30,1886.00 1439.83,1898.00 1439.83,1898.00
             1439.83,1898.00 1440.82,1914.00 1440.82,1914.00
             1440.82,1914.00 1440.00,1924.00 1440.00,1924.00
             1439.88,1934.95 1440.34,1939.73 1435.76,1950.00
             1433.98,1954.01 1433.27,1956.38 1429.82,1959.48
             1420.11,1968.22 1415.39,1965.81 1405.00,1967.30
             1405.00,1967.30 1385.00,1972.33 1385.00,1972.33
             1385.00,1972.33 1375.00,1973.27 1375.00,1973.27
             1375.00,1973.27 1368.00,1975.59 1368.00,1975.59
             1364.75,1976.34 1362.57,1975.58 1359.00,1976.81
             1354.99,1978.19 1353.68,1979.81 1347.00,1981.52
             1347.00,1981.52 1331.17,1984.58 1331.17,1984.58
             1327.70,1986.02 1328.87,1987.43 1320.00,1990.81
             1320.00,1990.81 1307.00,1994.31 1307.00,1994.31
             1303.50,1995.97 1302.19,1998.27 1298.00,1999.61
             1298.00,1999.61 1291.00,2001.48 1291.00,2001.48
             1291.00,2001.48 1282.00,2006.22 1282.00,2006.22
             1270.08,2012.51 1262.08,2016.51 1252.00,2025.96
             1246.74,2030.90 1241.62,2031.40 1241.00,2039.00
             1227.94,2040.77 1230.81,2044.45 1223.00,2049.40
             1219.62,2051.55 1218.16,2050.38 1214.00,2052.39
             1214.00,2052.39 1197.00,2062.60 1197.00,2062.60
             1197.00,2062.60 1191.00,2065.26 1191.00,2065.26
             1191.00,2065.26 1180.00,2071.69 1180.00,2071.69
             1180.00,2071.69 1158.00,2080.82 1158.00,2080.82
             1158.00,2080.82 1147.09,2088.10 1147.09,2088.10
             1143.88,2089.81 1143.43,2088.54 1138.83,2090.85
             1138.83,2090.85 1130.00,2096.09 1130.00,2096.09
             1130.00,2096.09 1108.00,2105.33 1108.00,2105.33
             1108.00,2105.33 1099.00,2110.74 1099.00,2110.74
             1099.00,2110.74 1088.00,2116.32 1088.00,2116.32
             1088.00,2116.32 1082.00,2118.31 1082.00,2118.31
             1078.97,2119.82 1076.73,2122.42 1074.00,2124.37
             1066.31,2129.83 1064.92,2127.98 1060.00,2138.00
             1052.93,2136.78 1050.46,2140.74 1044.00,2142.90
             1038.56,2144.72 1036.00,2143.37 1031.00,2144.79
             1031.00,2144.79 1012.00,2152.80 1012.00,2152.80
             1012.00,2152.80 993.00,2160.24 993.00,2160.24
             993.00,2160.24 985.00,2161.38 985.00,2161.38
             985.00,2161.38 976.00,2164.25 976.00,2164.25
             968.26,2166.42 961.82,2166.58 954.00,2170.33
             948.17,2173.13 946.74,2175.87 942.00,2178.87
             938.62,2181.01 936.36,2181.36 933.00,2182.90
             933.00,2182.90 924.00,2187.68 924.00,2187.68
             924.00,2187.68 911.00,2193.10 911.00,2193.10
             904.48,2195.93 905.13,2197.72 897.00,2199.00
             897.00,2199.00 898.00,2201.00 898.00,2201.00
             887.97,2201.23 882.10,2206.95 873.00,2210.65
             868.33,2212.55 863.73,2212.40 859.00,2213.52
             853.95,2214.72 848.58,2217.59 844.00,2220.00
             844.00,2220.00 845.00,2222.00 845.00,2222.00
             827.15,2225.36 832.58,2224.45 817.00,2231.13
             817.00,2231.13 808.00,2234.51 808.00,2234.51
             808.00,2234.51 800.00,2238.64 800.00,2238.64
             800.00,2238.64 791.00,2240.99 791.00,2240.99
             787.00,2242.51 785.01,2244.86 779.00,2246.51
             775.01,2247.61 768.55,2248.31 765.05,2249.97
             761.69,2251.56 761.12,2253.39 758.74,2254.70
             753.14,2257.80 748.94,2254.67 740.73,2260.64
             737.90,2262.70 737.20,2262.62 736.00,2266.00
             730.87,2266.02 726.75,2266.06 722.00,2268.42
             722.00,2268.42 711.00,2275.01 711.00,2275.01
             711.00,2275.01 705.17,2276.98 705.17,2276.98
             705.17,2276.98 700.83,2279.72 700.83,2279.72
             698.73,2280.54 697.06,2279.90 694.00,2281.09
             694.00,2281.09 680.00,2288.40 680.00,2288.40
             680.00,2288.40 656.00,2303.25 656.00,2303.25
             656.00,2303.25 638.00,2312.51 638.00,2312.51
             634.06,2314.55 631.05,2314.25 631.00,2319.00
             631.00,2319.00 624.00,2320.00 624.00,2320.00
             624.00,2320.00 625.00,2323.00 625.00,2323.00
             611.41,2328.85 599.42,2337.57 587.00,2345.46
             587.00,2345.46 575.30,2351.56 575.30,2351.56
             575.30,2351.56 566.96,2360.70 566.96,2360.70
             566.96,2360.70 553.04,2370.63 553.04,2370.63
             553.04,2370.63 546.20,2377.29 546.20,2377.29
             546.20,2377.29 531.09,2388.46 531.09,2388.46
             531.09,2388.46 522.71,2397.83 522.71,2397.83
             518.39,2402.33 516.18,2402.62 514.00,2409.00
             508.10,2409.06 503.87,2414.97 500.04,2419.00
             500.04,2419.00 492.68,2427.96 492.68,2427.96
             492.68,2427.96 485.61,2435.09 485.61,2435.09
             485.61,2435.09 479.48,2443.91 479.48,2443.91
             479.48,2443.91 471.41,2453.00 471.41,2453.00
             471.41,2453.00 453.10,2472.00 453.10,2472.00
             453.10,2472.00 447.64,2478.59 447.64,2478.59
             445.64,2480.53 444.09,2480.85 442.09,2483.25
             442.09,2483.25 431.40,2501.00 431.40,2501.00
             431.40,2501.00 425.41,2509.00 425.41,2509.00
             425.41,2509.00 422.02,2514.96 422.02,2514.96
             422.02,2514.96 417.63,2520.28 417.63,2520.28
             417.63,2520.28 414.20,2525.79 414.20,2525.79
             414.20,2525.79 409.10,2531.21 409.10,2531.21
             409.10,2531.21 398.45,2546.91 398.45,2546.91
             398.45,2546.91 392.61,2553.09 392.61,2553.09
             392.61,2553.09 382.42,2565.83 382.42,2565.83
             382.42,2565.83 373.49,2574.29 373.49,2574.29
             373.49,2574.29 369.36,2580.96 369.36,2580.96
             364.94,2586.94 363.20,2584.79 359.00,2594.00
             350.23,2594.08 346.24,2604.45 344.42,2606.63
             342.45,2608.99 339.24,2610.11 335.93,2614.17
             331.19,2619.99 328.72,2633.75 333.00,2640.00
             333.00,2640.00 310.22,2671.00 310.22,2671.00
             310.22,2671.00 303.63,2679.00 303.63,2679.00
             303.63,2679.00 278.43,2720.00 278.43,2720.00
             278.43,2720.00 272.64,2732.00 272.64,2732.00
             272.64,2732.00 265.27,2742.00 265.27,2742.00
             265.27,2742.00 262.01,2750.00 262.01,2750.00
             262.01,2750.00 256.90,2759.00 256.90,2759.00
             256.90,2759.00 254.03,2766.83 254.03,2766.83
             254.03,2766.83 249.35,2773.04 249.35,2773.04
             249.35,2773.04 244.55,2782.00 244.55,2782.00
             244.55,2782.00 238.49,2792.00 238.49,2792.00
             238.49,2792.00 233.46,2805.00 233.46,2805.00
             233.46,2805.00 222.53,2823.00 222.53,2823.00
             222.53,2823.00 219.92,2831.00 219.92,2831.00
             219.92,2831.00 213.42,2841.00 213.42,2841.00
             213.42,2841.00 207.19,2858.00 207.19,2858.00
             207.19,2858.00 190.68,2890.00 190.68,2890.00
             190.68,2890.00 183.53,2902.00 183.53,2902.00
             183.53,2902.00 177.20,2921.00 177.20,2921.00
             177.20,2921.00 171.41,2930.00 171.41,2930.00
             171.41,2930.00 167.33,2940.00 167.33,2940.00
             167.33,2940.00 162.55,2948.00 162.55,2948.00
             162.55,2948.00 159.51,2957.91 159.51,2957.91
             159.51,2957.91 154.48,2966.01 154.48,2966.01
             154.48,2966.01 148.51,2982.99 148.51,2982.99
             148.51,2982.99 142.48,2991.09 142.48,2991.09
             142.48,2991.09 133.12,3010.00 133.12,3010.00
             133.12,3010.00 127.91,3024.00 127.91,3024.00
             127.91,3024.00 123.46,3033.00 123.46,3033.00
             123.46,3033.00 119.74,3042.96 119.74,3042.96
             119.74,3042.96 112.86,3051.26 112.86,3051.26
             112.86,3051.26 110.52,3059.00 110.52,3059.00
             110.52,3059.00 105.61,3069.00 105.61,3069.00
             105.61,3069.00 100.09,3087.00 100.09,3087.00
             100.09,3087.00 92.14,3097.17 92.14,3097.17
             92.14,3097.17 88.07,3110.00 88.07,3110.00
             88.07,3110.00 78.00,3135.00 78.00,3135.00
             72.23,3136.44 73.93,3143.58 72.42,3148.00
             72.42,3148.00 67.82,3156.00 67.82,3156.00
             63.97,3163.37 64.85,3164.12 59.12,3172.00
             57.29,3174.51 54.45,3177.96 53.68,3181.00
             53.14,3183.64 54.16,3185.25 53.68,3187.42
             55.45,3180.15 46.76,3206.47 49.41,3199.91
             48.25,3202.78 45.96,3203.89 44.30,3207.04
             44.30,3207.04 34.45,3231.00 34.45,3231.00
             34.45,3231.00 29.59,3248.00 29.59,3248.00
             29.59,3248.00 14.99,3273.00 14.99,3273.00
             14.99,3273.00 9.21,3289.00 9.21,3289.00
             9.21,3289.00 4.48,3297.00 4.48,3297.00
             2.03,3301.38 0.06,3309.95 0.00,3315.00
             0.00,3315.00 0.00,3394.00 0.00,3394.00
             0.00,3394.00 0.00,3551.00 0.00,3551.00
             0.00,3551.00 0.00,3976.00 0.00,3976.00
             0.01,3979.26 -0.32,3982.91 1.74,3985.68
             3.13,3987.55 12.42,3993.94 15.00,3995.87
             25.68,4003.88 34.91,4013.83 49.00,4014.00
             49.00,4014.00 132.00,4014.00 132.00,4014.00
             132.00,4014.00 297.00,4014.00 297.00,4014.00
             297.00,4014.00 1276.00,4014.00 1276.00,4014.00
             1276.00,4014.00 2807.00,4014.00 2807.00,4014.00
             2807.00,4014.00 3572.00,4014.00 3572.00,4014.00
             3574.41,4014.00 3578.52,4014.24 3580.52,4012.83
             3582.59,4011.35 3582.85,4008.32 3583.25,4006.00
             3583.25,4006.00 3584.96,3989.00 3584.96,3989.00
             3585.27,3981.14 3583.19,3973.64 3582.07,3966.00
             3582.07,3966.00 3580.05,3951.00 3580.05,3951.00
             3580.05,3951.00 3576.56,3943.00 3576.56,3943.00
             3576.56,3943.00 3575.20,3931.00 3575.20,3931.00
             3575.20,3931.00 3570.71,3907.00 3570.71,3907.00
             3570.71,3907.00 3568.38,3899.00 3568.38,3899.00
             3568.38,3899.00 3567.67,3891.00 3567.67,3891.00
             3567.67,3891.00 3563.31,3876.00 3563.31,3876.00
             3562.77,3871.46 3564.38,3867.47 3564.83,3863.00
             3565.22,3859.18 3564.56,3856.51 3566.74,3853.00
             3570.66,3846.69 3579.90,3842.14 3586.00,3837.97
             3586.00,3837.97 3614.00,3817.02 3614.00,3817.02
             3617.42,3814.66 3629.04,3807.96 3630.40,3804.79
             3631.12,3803.11 3631.00,3799.88 3631.00,3798.00
             3631.00,3798.00 3631.00,2982.00 3631.00,2982.00
             3630.98,2969.79 3629.41,2971.71 3623.88,2962.00
             3623.88,2962.00 3617.53,2949.00 3617.53,2949.00
             3617.53,2949.00 3609.95,2939.00 3609.95,2939.00
             3604.84,2931.23 3606.89,2929.18 3603.35,2924.00
             3603.35,2924.00 3598.41,2918.00 3598.41,2918.00
             3596.62,2915.59 3591.46,2905.79 3591.00,2903.00
             3588.98,2901.70 3587.22,2900.73 3585.70,2898.79
             3585.70,2898.79 3573.22,2876.00 3573.22,2876.00
             3573.22,2876.00 3559.05,2852.10 3559.05,2852.10
             3559.05,2852.10 3553.98,2846.63 3553.98,2846.63
             3553.98,2846.63 3550.91,2838.00 3550.91,2838.00
             3549.48,2834.51 3546.63,2830.29 3544.58,2827.00
             3544.58,2827.00 3528.19,2800.00 3528.19,2800.00
             3528.19,2800.00 3519.87,2787.00 3519.87,2787.00
             3519.87,2787.00 3509.66,2767.00 3509.66,2767.00
             3509.66,2767.00 3496.87,2747.00 3496.87,2747.00
             3496.87,2747.00 3487.07,2728.00 3487.07,2728.00
             3487.07,2728.00 3478.06,2715.00 3478.06,2715.00
             3478.06,2715.00 3472.55,2705.00 3472.55,2705.00
             3472.55,2705.00 3464.44,2693.00 3464.44,2693.00
             3464.44,2693.00 3456.94,2680.00 3456.94,2680.00
             3456.94,2680.00 3437.44,2649.00 3437.44,2649.00
             3437.44,2649.00 3433.25,2640.00 3433.25,2640.00
             3433.25,2640.00 3420.84,2620.00 3420.84,2620.00
             3420.84,2620.00 3408.47,2603.00 3408.47,2603.00
             3405.47,2597.91 3405.62,2595.44 3404.49,2593.17
             3401.67,2587.47 3397.03,2588.36 3396.00,2577.00
             3389.19,2575.18 3390.22,2573.44 3386.77,2568.00
             3386.77,2568.00 3374.58,2549.00 3374.58,2549.00
             3374.01,2547.33 3374.06,2545.72 3374.00,2544.00
             3366.96,2542.11 3368.76,2540.27 3364.76,2535.00
             3361.69,2530.94 3357.97,2527.41 3355.35,2523.00
             3352.08,2517.49 3349.98,2511.11 3345.62,2506.28
             3343.10,2503.48 3341.34,2502.59 3338.80,2499.00
             3336.55,2495.83 3336.21,2493.91 3334.59,2491.00
             3334.59,2491.00 3325.70,2478.11 3325.70,2478.11
             3322.51,2474.50 3319.73,2474.48 3316.37,2470.87
             3316.37,2470.87 3307.99,2460.83 3307.99,2460.83
             3307.99,2460.83 3303.45,2453.00 3303.45,2453.00
             3303.45,2453.00 3295.32,2444.00 3295.32,2444.00
             3295.32,2444.00 3290.24,2437.19 3290.24,2437.19
             3287.56,2434.08 3283.82,2432.76 3280.86,2429.99
             3272.97,2422.59 3275.92,2423.87 3270.81,2418.00
             3270.81,2418.00 3263.32,2410.00 3263.32,2410.00
             3255.62,2400.73 3258.84,2398.24 3254.00,2393.00
             3254.00,2393.00 3256.00,2391.00 3256.00,2391.00
             3250.87,2385.20 3248.62,2387.19 3243.09,2382.52
             3243.09,2382.52 3234.99,2374.33 3234.99,2374.33
             3234.99,2374.33 3228.09,2369.40 3228.09,2369.40
             3228.09,2369.40 3221.91,2363.76 3221.91,2363.76
             3221.91,2363.76 3210.00,2355.18 3210.00,2355.18
             3204.31,2351.05 3193.89,2346.96 3193.00,2339.00
             3193.00,2339.00 3185.00,2338.00 3185.00,2338.00
             3183.17,2327.04 3170.40,2319.59 3163.04,2311.99
             3163.04,2311.99 3139.63,2281.00 3139.63,2281.00
             3135.63,2276.09 3132.27,2273.98 3128.01,2269.91
             3128.01,2269.91 3120.83,2262.00 3120.83,2262.00
             3118.93,2259.92 3112.78,2254.17 3110.58,2252.52
             3105.42,2248.65 3102.03,2249.88 3101.00,2241.00
             3094.22,2240.83 3091.33,2239.78 3089.00,2233.00
             3080.82,2232.90 3082.86,2231.86 3076.00,2229.00
             3076.00,2229.00 3077.00,2225.00 3077.00,2225.00
             3070.76,2222.42 3070.51,2220.32 3065.00,2216.90
             3065.00,2216.90 3047.00,2206.39 3047.00,2206.39
             3041.23,2202.08 3041.34,2198.61 3034.00,2198.00
             3033.66,2196.26 3033.93,2195.85 3032.59,2194.27
             3030.80,2192.16 3027.40,2191.20 3025.00,2189.78
             3025.00,2189.78 3017.00,2184.31 3017.00,2184.31
             3011.91,2181.82 3009.19,2183.90 3008.00,2177.00
             3008.00,2177.00 3006.00,2178.00 3006.00,2178.00
             3006.00,2178.00 3006.00,2179.00 3006.00,2179.00
             2998.85,2172.25 2999.22,2174.11 2992.00,2169.39
             2988.70,2167.23 2986.82,2164.93 2983.00,2167.00
             2974.30,2158.42 2974.02,2161.45 2963.00,2160.00
             2963.00,2160.00 2964.00,2158.00 2964.00,2158.00
             2964.00,2158.00 2955.00,2153.14 2955.00,2153.14
             2955.00,2153.14 2939.00,2147.89 2939.00,2147.89
             2933.16,2145.08 2931.60,2142.83 2924.00,2140.36
             2924.00,2140.36 2911.00,2137.71 2911.00,2137.71
             2901.69,2135.23 2898.45,2133.23 2888.00,2133.00
             2888.00,2133.00 2890.00,2129.00 2890.00,2129.00
             2890.00,2129.00 2870.00,2125.60 2870.00,2125.60
             2870.00,2125.60 2855.00,2122.66 2855.00,2122.66
             2855.00,2122.66 2844.00,2117.30 2844.00,2117.30
             2844.00,2117.30 2816.00,2111.95 2816.00,2111.95
             2816.00,2111.95 2806.91,2107.55 2806.91,2107.55
             2806.91,2107.55 2797.00,2106.39 2797.00,2106.39
             2797.00,2106.39 2787.91,2101.87 2787.91,2101.87
             2787.91,2101.87 2767.00,2096.08 2767.00,2096.08
             2767.00,2096.08 2758.00,2092.33 2758.00,2092.33
             2758.00,2092.33 2734.00,2087.25 2734.00,2087.25
             2734.00,2087.25 2718.00,2081.88 2718.00,2081.88
             2718.00,2081.88 2703.09,2078.90 2703.09,2078.90
             2703.09,2078.90 2694.00,2075.43 2694.00,2075.43
             2694.00,2075.43 2674.00,2071.58 2674.00,2071.58
             2674.00,2071.58 2661.00,2068.26 2661.00,2068.26
             2661.00,2068.26 2641.00,2064.57 2641.00,2064.57
             2641.00,2064.57 2628.00,2058.53 2628.00,2058.53
             2628.00,2058.53 2619.00,2055.56 2619.00,2055.56
             2619.00,2055.56 2603.00,2049.24 2603.00,2049.24
             2603.00,2049.24 2584.00,2043.29 2584.00,2043.29
             2584.00,2043.29 2574.00,2042.00 2574.00,2042.00
             2560.91,2044.35 2560.16,2041.22 2548.00,2039.08
             2548.00,2039.08 2522.00,2036.37 2522.00,2036.37
             2522.00,2036.37 2501.00,2026.25 2501.00,2026.25
             2493.86,2022.68 2484.75,2020.26 2480.00,2014.00
             2474.31,2013.40 2474.69,2011.91 2470.00,2010.34
             2470.00,2010.34 2459.00,2007.66 2459.00,2007.66
             2459.00,2007.66 2450.00,2003.92 2450.00,2003.92
             2446.39,2002.81 2440.31,2000.77 2439.00,1997.00
             2439.00,1997.00 2429.00,1995.04 2429.00,1995.04
             2429.00,1995.04 2404.00,1983.69 2404.00,1983.69
             2404.00,1983.69 2395.00,1978.53 2395.00,1978.53
             2395.00,1978.53 2388.00,1976.05 2388.00,1976.05
             2388.00,1976.05 2381.00,1972.52 2381.00,1972.52
             2381.00,1972.52 2366.99,1966.74 2366.99,1966.74
             2366.99,1966.74 2357.00,1961.12 2357.00,1961.12
             2357.00,1961.12 2330.00,1951.33 2330.00,1951.33
             2330.00,1951.33 2320.00,1945.78 2320.00,1945.78
             2320.00,1945.78 2305.13,1939.00 2305.13,1939.00
             2305.13,1939.00 2305.13,1934.71 2305.13,1934.71
             2305.13,1934.71 2298.00,1931.77 2298.00,1931.77
             2298.00,1931.77 2279.00,1917.80 2279.00,1917.80
             2279.00,1917.80 2251.00,1908.23 2251.00,1908.23
             2251.00,1908.23 2237.00,1902.90 2237.00,1902.90
             2237.00,1902.90 2199.00,1898.08 2199.00,1898.08
             2199.00,1898.08 2176.00,1898.08 2176.00,1898.08
             2177.91,1890.13 2176.04,1886.64 2176.00,1879.00
             2176.00,1879.00 2176.00,1860.00 2176.00,1860.00
             2176.00,1848.09 2175.84,1835.73 2178.09,1824.00
             2178.09,1824.00 2182.10,1811.00 2182.10,1811.00
             2182.10,1811.00 2184.17,1801.00 2184.17,1801.00
             2185.60,1796.23 2187.88,1794.22 2190.21,1790.00
             2190.21,1790.00 2197.69,1774.00 2197.69,1774.00
             2197.69,1774.00 2217.20,1727.00 2217.20,1727.00
             2217.20,1727.00 2228.30,1700.00 2228.30,1700.00
             2228.30,1700.00 2237.88,1664.00 2237.88,1664.00
             2237.88,1664.00 2251.39,1612.00 2251.39,1612.00
             2251.39,1612.00 2255.17,1574.00 2255.17,1574.00
             2255.17,1574.00 2259.01,1535.00 2259.01,1535.00
             2259.01,1535.00 2260.22,1529.00 2260.22,1529.00
             2260.22,1529.00 2260.82,1520.00 2260.82,1520.00
             2261.34,1512.10 2255.63,1495.90 2259.85,1489.02
             2264.10,1482.09 2275.64,1479.99 2283.00,1477.19
             2296.88,1471.93 2295.39,1472.53 2307.00,1463.36
             2313.04,1458.59 2313.49,1459.12 2317.57,1452.00
             2322.64,1443.16 2322.16,1439.54 2325.08,1431.00
             2325.08,1431.00 2329.48,1419.00 2329.48,1419.00
             2329.48,1419.00 2332.09,1410.00 2332.09,1410.00
             2332.09,1410.00 2335.37,1402.00 2335.37,1402.00
             2335.37,1402.00 2337.10,1393.00 2337.10,1393.00
             2337.10,1393.00 2341.92,1381.00 2341.92,1381.00
             2341.92,1381.00 2348.58,1358.18 2348.58,1358.18
             2349.31,1356.48 2349.84,1356.24 2351.00,1355.00
             2351.00,1355.00 2358.52,1322.00 2358.52,1322.00
             2358.52,1322.00 2358.52,1316.00 2358.52,1316.00
             2358.52,1316.00 2364.58,1292.00 2364.58,1292.00
             2364.58,1292.00 2367.72,1277.00 2367.72,1277.00
             2367.72,1277.00 2375.79,1249.00 2375.79,1249.00
             2378.48,1236.36 2378.02,1204.24 2378.00,1190.00
             2377.97,1173.38 2373.73,1155.53 2368.05,1140.00
             2365.57,1133.21 2363.62,1126.35 2357.91,1121.38
             2349.44,1114.00 2339.71,1112.88 2329.00,1113.00
             2312.40,1113.20 2308.96,1121.42 2299.00,1124.00
             2299.00,1124.00 2303.70,1103.00 2303.70,1103.00
             2303.70,1103.00 2304.46,1094.00 2304.46,1094.00
             2307.02,1079.82 2307.80,1086.24 2308.00,1069.00
             2308.00,1069.00 2309.00,1054.00 2309.00,1054.00
             2309.00,1054.00 2309.00,1007.00 2309.00,1007.00
             2309.00,1007.00 2307.74,985.00 2307.74,985.00
             2307.74,985.00 2307.74,975.00 2307.74,975.00
             2307.89,969.04 2308.49,962.96 2307.74,957.00
             2306.83,950.23 2305.09,947.55 2305.00,940.00
             2305.00,940.00 2305.00,921.00 2305.00,921.00
             2304.98,909.10 2301.40,902.92 2299.46,892.00
             2299.46,892.00 2297.71,874.00 2297.71,874.00
             2297.71,874.00 2293.61,854.00 2293.61,854.00
             2293.61,854.00 2292.56,843.00 2292.56,843.00
             2292.56,843.00 2287.00,808.00 2287.00,808.00
             2287.00,808.00 2284.00,809.00 2284.00,809.00
             2286.25,799.72 2281.27,786.53 2279.21,777.00
             2279.21,777.00 2276.56,761.00 2276.56,761.00
             2276.56,761.00 2264.45,733.00 2264.45,733.00
             2264.45,733.00 2251.33,695.00 2251.33,695.00
             2248.08,685.48 2241.10,672.84 2241.00,663.00
             2241.00,663.00 2238.00,664.00 2238.00,664.00
             2236.34,655.73 2232.60,640.40 2229.20,633.00
             2229.20,633.00 2224.34,625.42 2224.34,625.42
             2224.34,625.42 2222.09,619.00 2222.09,619.00
             2222.09,619.00 2207.42,595.00 2207.42,595.00
             2207.42,595.00 2197.39,579.00 2197.39,579.00
             2197.39,579.00 2191.69,572.00 2191.69,572.00
             2189.11,568.17 2190.06,567.51 2184.98,561.00
             2184.98,561.00 2156.01,530.00 2156.01,530.00
             2156.01,530.00 2140.96,513.04 2140.96,513.04
             2140.96,513.04 2128.00,501.83 2128.00,501.83
             2128.00,501.83 2117.91,492.01 2117.91,492.01
             2117.91,492.01 2091.00,470.68 2091.00,470.68
             2091.00,470.68 2079.00,460.42 2079.00,460.42
             2079.00,460.42 2061.00,447.66 2061.00,447.66
             2061.00,447.66 2052.00,441.34 2052.00,441.34
             2042.55,435.74 2041.22,436.65 2033.00,433.13
             2033.00,433.13 2023.00,428.31 2023.00,428.31
             2023.00,428.31 2008.00,422.46 2008.00,422.46
             2003.40,420.67 2002.07,420.85 1997.00,418.21
             1997.00,418.21 1976.00,405.10 1976.00,405.10
             1965.39,397.07 1966.48,394.43 1952.00,389.74
             1939.12,385.57 1923.47,383.71 1910.00,381.73
             1910.00,381.73 1896.00,379.29 1896.00,379.29
             1896.00,379.29 1868.00,376.83 1868.00,376.83
             1868.00,376.83 1850.00,375.08 1850.00,375.08
             1850.00,375.08 1839.00,376.00 1839.00,376.00
             1839.00,376.00 1802.00,373.04 1802.00,373.04
             1802.00,373.04 1788.00,374.00 1788.00,374.00
             1776.45,374.05 1773.97,374.95 1763.00,376.57
             1763.00,376.57 1746.00,379.16 1746.00,379.16
             1738.29,381.25 1738.52,382.95 1733.00,385.74
             1733.00,385.74 1724.00,389.52 1724.00,389.52
             1724.00,389.52 1711.00,397.89 1711.00,397.89
             1711.00,397.89 1692.00,406.30 1692.00,406.30
             1692.00,406.30 1676.00,411.08 1676.00,411.08
             1676.00,411.08 1663.00,416.08 1663.00,416.08
             1663.00,416.08 1645.00,420.44 1645.00,420.44
             1635.07,423.97 1627.26,428.56 1618.00,433.19
             1618.00,433.19 1601.00,441.80 1601.00,441.80
             1601.00,441.80 1594.00,447.04 1594.00,447.04
             1594.00,447.04 1583.00,452.87 1583.00,452.87
             1583.00,452.87 1565.02,464.90 1565.02,464.90
             1565.02,464.90 1550.83,478.32 1550.83,478.32
             1546.89,481.10 1541.74,481.38 1538.37,483.82
             1538.37,483.82 1530.79,490.48 1530.79,490.48
             1530.79,490.48 1527.59,494.31 1527.59,494.31
             1527.59,494.31 1521.00,498.33 1521.00,498.33
             1521.00,498.33 1501.18,512.53 1501.18,512.53
             1501.18,512.53 1489.63,526.62 1489.63,526.62
             1489.63,526.62 1483.00,531.53 1483.00,531.53
             1483.00,531.53 1463.09,548.17 1463.09,548.17
             1457.91,553.20 1455.46,558.68 1451.68,562.96
             1447.53,567.65 1444.99,567.63 1441.17,571.21
             1441.17,571.21 1418.22,596.00 1418.22,596.00
             1418.22,596.00 1413.47,604.96 1413.47,604.96
             1413.47,604.96 1402.79,620.00 1402.79,620.00
             1402.79,620.00 1397.86,630.00 1397.86,630.00
             1397.86,630.00 1388.40,644.00 1388.40,644.00
             1384.17,650.99 1379.09,653.70 1381.00,662.00 Z" />
</svg>
