<?xml version="1.0" encoding="UTF-8" standalone="no"?>
<!DOCTYPE svg PUBLIC "-//W3C//DTD SVG 20010904//EN"
              "http://www.w3.org/TR/2001/REC-SVG-20010904/DTD/svg10.dtd">

<svg xmlns="http://www.w3.org/2000/svg"
     width="1.11667in" height="1.10667in"
     viewBox="0 0 335 332">
  <path id="face"
        fill="none" stroke="black" stroke-width="1"
        d="M 106.00,156.00
           C 108.42,165.11 110.09,174.71 116.76,181.82
             120.78,186.11 126.03,188.78 131.00,191.81
             136.23,195.00 148.33,201.56 154.00,202.96
             159.68,204.36 161.74,203.73 167.00,204.09
             177.99,204.84 181.66,205.76 193.00,202.71
             198.94,201.11 203.86,198.22 209.00,194.95
             224.50,185.08 231.37,177.64 234.00,159.00
             241.46,158.74 242.46,155.45 245.47,149.00
             247.23,145.25 247.29,141.00 248.24,137.00
             248.24,137.00 252.54,123.00 252.54,123.00
             253.34,119.48 253.49,108.11 251.83,105.06
             250.51,102.63 249.29,102.15 247.00,101.00
             249.76,86.32 248.09,93.26 248.58,81.00
             248.81,74.99 247.29,74.25 245.59,69.00
             243.42,62.29 241.66,55.19 237.94,49.09
             237.94,49.09 234.07,43.83 234.07,43.83
             231.00,38.67 233.20,34.77 227.79,29.30
             220.31,21.74 215.53,24.39 208.00,19.06
             200.63,13.85 191.39,1.80 183.01,1.13
             161.96,-0.56 136.18,9.02 122.29,25.00
             114.82,33.59 114.88,37.72 109.40,47.00
             105.75,53.17 101.90,59.24 99.44,66.00
             99.44,66.00 96.54,75.00 96.54,75.00
             94.17,81.19 92.16,83.98 92.02,91.00
             92.02,91.00 92.02,95.00 92.02,95.00
             91.56,103.07 87.06,99.59 87.23,113.00
             86.99,116.00 86.91,119.04 87.23,122.00
             87.23,122.00 94.82,148.00 94.82,148.00
             97.11,154.00 98.95,157.59 106.00,156.00 Z" />
  <path id="profile"
        fill="none" stroke="black" stroke-width="1"
        d="M 106.00,156.00
           C 106.00,156.00 111.06,173.00 111.06,173.00
             111.06,173.00 115.61,184.00 115.61,184.00
             115.61,184.00 116.13,196.00 116.13,196.00
             116.51,207.41 106.57,209.41 98.00,212.88
             98.00,212.88 88.00,217.42 88.00,217.42
             88.00,217.42 65.00,227.98 65.00,227.98
             65.00,227.98 56.00,233.22 56.00,233.22
             56.00,233.22 45.00,238.50 45.00,238.50
             45.00,238.50 21.00,252.58 21.00,252.58
             16.96,254.86 2.76,260.66 1.02,263.39
             -0.22,265.34 0.00,268.73 0.00,271.00
             0.00,271.00 0.00,332.00 0.00,332.00
             0.00,332.00 335.00,332.00 335.00,332.00
             335.00,332.00 335.00,258.00 335.00,258.00
             335.00,255.85 335.23,252.29 333.98,250.51
             332.73,248.73 329.02,247.57 327.00,246.72
             327.00,246.72 309.00,239.22 309.00,239.22
             309.00,239.22 293.00,229.92 293.00,229.92
             293.00,229.92 279.00,222.90 279.00,222.90
             279.00,222.90 258.00,215.36 258.00,215.36
             251.35,212.33 230.05,202.64 224.00,202.00
             224.00,202.00 224.56,184.04 224.56,184.04
             224.56,184.04 229.90,174.00 229.90,174.00
             229.90,174.00 234.00,159.00 234.00,159.00
             241.46,158.74 242.46,155.45 245.47,149.00
             247.23,145.25 247.29,141.00 248.24,137.00
             248.24,137.00 252.54,123.00 252.54,123.00
             253.34,119.48 253.49,108.11 251.83,105.06
             250.51,102.63 249.29,102.15 247.00,101.00
             249.76,86.32 248.09,93.26 248.58,81.00
             248.81,74.99 247.29,74.25 245.59,69.00
             243.42,62.29 241.66,55.19 237.94,49.09
             237.94,49.09 234.07,43.83 234.07,43.83
             231.00,38.67 233.20,34.77 227.79,29.30
             220.31,21.74 215.53,24.39 208.00,19.06
             200.63,13.85 191.39,1.80 183.01,1.13
             161.96,-0.56 136.18,9.02 122.29,25.00
             114.82,33.59 114.88,37.72 109.40,47.00
             105.75,53.17 101.90,59.24 99.44,66.00
             99.44,66.00 96.54,75.00 96.54,75.00
             94.17,81.19 92.16,83.98 92.02,91.00
             92.02,91.00 92.02,95.00 92.02,95.00
             91.56,103.07 87.06,99.59 87.23,113.00
             86.99,116.00 86.91,119.04 87.23,122.00
             87.23,122.00 94.82,148.00 94.82,148.00
             97.11,154.00 98.95,157.59 106.00,156.00 Z" />
</svg>
