<?xml version="1.0" encoding="UTF-8" standalone="no"?>
<!DOCTYPE svg PUBLIC "-//W3C//DTD SVG 20010904//EN"
              "http://www.w3.org/TR/2001/REC-SVG-20010904/DTD/svg10.dtd">

<svg xmlns="http://www.w3.org/2000/svg"
     width="1.11667in" height="1.10333in"
     viewBox="0 0 335 331">
  <path id="face"
        fill="none" stroke="black" stroke-width="1"
        d="M 108.12,102.00
           C 99.63,99.64 98.54,103.30 98.09,111.00
             97.70,117.85 100.09,120.84 101.96,127.00
             101.96,127.00 104.97,138.00 104.97,138.00
             106.72,141.96 111.22,147.45 115.01,149.57
             118.51,151.52 120.99,150.60 122.83,153.31
             123.90,154.89 124.56,159.81 125.16,162.00
             126.05,165.28 129.38,173.13 131.07,176.00
             131.07,176.00 139.37,187.00 139.37,187.00
             142.02,190.56 145.23,195.77 148.18,198.71
             159.58,210.09 174.13,213.74 189.00,206.68
             192.97,204.79 196.71,202.11 199.71,198.91
             205.56,192.68 208.08,187.09 212.31,180.00
             220.75,165.83 222.00,161.62 222.00,145.00
             235.68,144.02 238.59,131.06 240.80,120.00
             240.80,120.00 242.83,109.00 242.83,109.00
             243.64,100.78 240.60,93.23 231.00,95.00
             231.00,95.00 227.75,73.00 227.75,73.00
             227.75,73.00 225.22,55.00 225.22,55.00
             223.69,49.58 215.90,36.42 212.18,32.17
             203.40,22.13 183.50,12.57 170.00,12.04
             159.78,11.64 153.14,14.93 144.00,18.60
             134.35,22.47 122.47,30.29 116.61,39.01
             111.66,46.37 111.14,53.73 109.74,62.00
             109.74,62.00 107.21,77.00 107.21,77.00
             107.21,77.00 108.12,87.00 108.12,87.00
             108.12,87.00 108.12,102.00 108.12,102.00 Z" />
  <path id="profile"
        fill="none" stroke="black" stroke-width="1"
        d="M 108.12,102.00
           C 98.49,99.32 97.53,105.98 98.10,114.00
             98.10,114.00 103.43,133.00 103.43,133.00
             104.91,139.24 108.59,145.36 114.04,148.97
             118.24,151.76 120.83,150.38 122.83,153.31
             122.83,153.31 125.75,164.00 125.75,164.00
             125.75,164.00 130.51,176.00 130.51,176.00
             131.74,180.51 132.76,194.78 133.00,200.00
             127.06,200.97 125.49,202.64 120.00,204.49
             113.46,206.69 111.01,206.40 104.00,209.69
             104.00,209.69 92.00,216.03 92.00,216.03
             92.00,216.03 82.00,218.24 82.00,218.24
             82.00,218.24 72.00,222.54 72.00,222.54
             72.00,222.54 59.00,226.52 59.00,226.52
             49.77,228.92 38.90,231.28 31.04,236.90
             22.88,242.75 14.15,255.26 9.00,263.83
             4.02,272.13 0.02,279.09 0.00,289.00
             0.00,289.00 0.00,331.00 0.00,331.00
             0.00,331.00 335.00,331.00 335.00,331.00
             335.00,331.00 335.00,239.00 335.00,239.00
             335.00,237.13 335.13,233.97 334.43,232.29
             332.47,227.66 320.78,222.63 316.00,221.47
             316.00,221.47 300.00,218.78 300.00,218.78
             300.00,218.78 273.00,211.12 273.00,211.12
             273.00,211.12 260.04,208.64 260.04,208.64
             260.04,208.64 252.92,207.95 252.92,207.95
             244.11,205.79 247.75,202.62 233.00,202.07
             229.68,201.95 228.01,201.30 225.00,199.97
             222.63,198.92 218.17,196.67 216.63,194.62
             214.96,192.39 215.62,190.13 215.49,187.58
             214.66,170.88 218.15,174.78 220.74,161.00
             222.11,153.68 222.00,152.27 222.00,145.00
             235.68,144.02 238.59,131.06 240.80,120.00
             240.80,120.00 242.83,109.00 242.83,109.00
             243.64,100.78 240.60,93.23 231.00,95.00
             231.00,95.00 227.75,73.00 227.75,73.00
             227.75,73.00 225.22,55.00 225.22,55.00
             223.69,49.58 215.90,36.42 212.18,32.17
             203.40,22.13 183.50,12.57 170.00,12.04
             159.78,11.64 153.14,14.93 144.00,18.60
             134.35,22.47 122.47,30.29 116.61,39.01
             111.66,46.37 111.14,53.73 109.74,62.00
             109.74,62.00 107.21,77.00 107.21,77.00
             107.21,77.00 108.12,87.00 108.12,87.00
             108.12,87.00 108.12,102.00 108.12,102.00 Z
           M 0.00,246.00
           C 0.00,246.00 0.00,247.00 0.00,247.00
             0.00,247.00 1.00,246.00 1.00,246.00
             1.00,246.00 0.00,246.00 0.00,246.00 Z" />
</svg>
