<?xml version="1.0" encoding="UTF-8" standalone="no"?>
<!DOCTYPE svg PUBLIC "-//W3C//DTD SVG 20010904//EN"
              "http://www.w3.org/TR/2001/REC-SVG-20010904/DTD/svg10.dtd">

<svg xmlns="http://www.w3.org/2000/svg"
     width="1.11667in" height="1.10333in"
     viewBox="0 0 335 331">
  <path id="face"
        fill="none" stroke="black" stroke-width="1"
        d="M 116.00,171.00
           C 114.29,186.59 127.07,201.86 139.00,210.42
             148.90,217.53 156.49,222.98 169.00,223.00
             169.00,223.00 177.00,223.00 177.00,223.00
             200.31,222.71 224.88,197.99 226.00,174.98
             228.28,175.57 229.65,176.11 231.96,174.98
             238.54,171.69 243.50,155.07 243.43,148.00
             243.43,148.00 242.39,138.00 242.39,138.00
             242.85,131.63 246.65,126.69 240.00,122.00
             242.01,114.90 237.85,98.92 236.42,91.00
             233.40,74.22 233.76,73.68 226.11,58.00
             224.26,54.22 223.13,51.43 220.47,48.00
             214.85,40.73 202.64,33.16 194.00,29.91
             194.00,29.91 186.00,27.60 186.00,27.60
             183.54,26.78 181.63,25.60 179.00,25.24
             179.00,25.24 161.00,26.48 161.00,26.48
             157.36,26.81 154.81,25.69 151.00,26.48
             144.14,27.49 143.14,31.83 138.91,33.42
             138.91,33.42 131.00,35.10 131.00,35.10
             121.96,38.37 112.70,44.55 107.88,53.00
             104.27,59.33 105.52,61.65 103.48,68.00
             96.40,90.04 97.24,95.56 96.02,118.00
             95.72,123.58 93.17,124.28 92.77,129.00
             92.77,129.00 94.18,141.00 94.18,141.00
             94.18,141.00 94.18,151.00 94.18,151.00
             95.00,158.11 101.39,173.91 110.00,173.59
             112.57,173.49 113.98,172.33 116.00,171.00 Z" />
  <path id="profile"
        fill="none" stroke="black" stroke-width="1"
        d="M 116.00,171.00
           C 115.05,179.62 116.99,182.27 117.00,191.00
             117.00,191.00 117.00,213.00 117.00,213.00
             116.99,216.41 116.88,223.82 114.99,226.61
             113.33,229.07 108.72,230.49 106.00,231.65
             106.00,231.65 87.00,240.00 87.00,240.00
             77.76,243.64 71.54,247.06 63.00,252.00
             63.00,252.00 56.00,256.32 56.00,256.32
             56.00,256.32 46.00,260.01 46.00,260.01
             46.00,260.01 24.42,270.37 24.42,270.37
             16.78,274.86 4.06,278.59 0.60,288.00
             -0.12,289.94 0.00,292.91 0.00,295.00
             0.00,295.00 0.00,331.00 0.00,331.00
             0.00,331.00 335.00,331.00 335.00,331.00
             335.00,331.00 335.00,289.00 335.00,289.00
             335.00,286.69 335.22,283.34 333.98,281.34
             332.46,278.89 328.55,277.45 326.00,276.22
             326.00,276.22 310.00,267.58 310.00,267.58
             310.00,267.58 293.00,257.94 293.00,257.94
             293.00,257.94 280.00,252.19 280.00,252.19
             280.00,252.19 257.00,240.31 257.00,240.31
             257.00,240.31 244.00,234.49 244.00,234.49
             244.00,234.49 235.00,228.67 235.00,228.67
             235.00,228.67 226.31,224.28 226.31,224.28
             222.70,221.17 223.02,210.66 223.14,206.00
             223.14,206.00 223.14,190.00 223.14,190.00
             223.14,190.00 226.00,174.98 226.00,174.98
             228.28,175.57 229.65,176.11 231.96,174.98
             238.54,171.69 243.50,155.07 243.43,148.00
             243.43,148.00 242.39,138.00 242.39,138.00
             242.85,131.63 246.65,126.69 240.00,122.00
             242.01,114.90 237.85,98.92 236.42,91.00
             233.40,74.22 233.76,73.68 226.11,58.00
             224.26,54.22 223.13,51.43 220.47,48.00
             214.85,40.73 202.64,33.16 194.00,29.91
             194.00,29.91 186.00,27.60 186.00,27.60
             183.54,26.78 181.63,25.60 179.00,25.24
             179.00,25.24 161.00,26.48 161.00,26.48
             157.36,26.81 154.81,25.69 151.00,26.48
             144.14,27.49 143.14,31.83 138.91,33.42
             138.91,33.42 131.00,35.10 131.00,35.10
             121.96,38.37 112.70,44.55 107.88,53.00
             104.27,59.33 105.52,61.65 103.48,68.00
             96.40,90.04 97.24,95.56 96.02,118.00
             95.72,123.58 93.17,124.28 92.77,129.00
             92.77,129.00 94.18,141.00 94.18,141.00
             94.18,141.00 94.18,151.00 94.18,151.00
             95.00,158.11 101.39,173.91 110.00,173.59
             112.57,173.49 113.98,172.33 116.00,171.00 Z" />
</svg>
