<?xml version="1.0" encoding="UTF-8" standalone="no"?>
<!DOCTYPE svg PUBLIC "-//W3C//DTD SVG 20010904//EN"
              "http://www.w3.org/TR/2001/REC-SVG-20010904/DTD/svg10.dtd">

<svg xmlns="http://www.w3.org/2000/svg"
     width="1.12in" height="1.11333in"
     viewBox="0 0 336 334">
  <path id="face"
        fill="none" stroke="black" stroke-width="1"
        d="M 87.00,116.00
           C 87.04,129.54 89.38,127.50 91.45,134.00
             92.64,137.76 91.89,141.88 96.52,152.00
             96.52,152.00 106.02,168.00 106.02,168.00
             106.02,168.00 117.96,194.00 117.96,194.00
             119.39,196.22 130.49,210.09 132.10,210.98
             134.40,212.25 138.38,212.03 141.00,212.00
             159.49,211.79 168.32,207.54 180.91,194.00
             183.60,191.11 189.19,184.39 190.90,181.00
             190.90,181.00 193.52,174.00 193.52,174.00
             193.52,174.00 197.36,166.00 197.36,166.00
             199.59,158.65 199.34,148.59 199.00,141.04
             201.77,141.22 205.40,141.97 207.99,141.04
             216.55,138.10 220.90,124.25 221.00,116.00
             221.09,108.43 221.54,101.78 217.39,95.01
             214.43,90.18 210.68,88.55 208.41,84.00
             208.41,84.00 205.80,77.00 205.80,77.00
             200.28,62.96 196.29,47.45 183.99,37.52
             175.34,30.54 164.90,24.98 154.00,22.67
             154.00,22.67 147.00,21.73 147.00,21.73
             143.40,21.01 140.88,18.86 137.00,19.26
             134.58,19.51 131.50,21.14 129.00,21.91
             122.85,23.81 116.54,25.54 111.00,28.98
             103.08,33.92 93.20,46.86 88.46,55.00
             85.22,60.57 80.61,71.70 79.29,78.00
             79.29,78.00 77.26,91.96 77.26,91.96
             75.76,95.69 71.89,97.46 69.18,100.18
             65.26,104.14 62.22,109.37 62.18,115.00
             61.95,116.87 61.99,120.21 62.18,122.00
             64.39,132.56 73.69,130.63 79.89,124.79
             83.14,121.73 83.26,119.50 87.00,116.00 Z" />
  <path id="profile"
        fill="none" stroke="black" stroke-width="1"
        d="M 112.00,-1.00
           C 112.00,-1.00 112.00,0.00 112.00,0.00
             112.00,0.00 113.00,-1.00 113.00,-1.00
             113.00,-1.00 112.00,-1.00 112.00,-1.00 Z
           M 87.00,116.00
           C 87.04,129.54 89.38,127.50 91.45,134.00
             92.64,137.76 91.89,141.88 96.52,152.00
             96.52,152.00 106.02,168.00 106.02,168.00
             106.02,168.00 117.96,194.00 117.96,194.00
             119.39,196.22 130.49,210.09 132.10,210.98
             134.45,212.27 138.33,212.00 141.00,212.00
             139.54,213.43 137.86,214.11 139.00,216.00
             139.00,216.00 135.68,225.00 135.68,225.00
             135.68,225.00 131.17,234.00 131.17,234.00
             131.17,234.00 127.47,244.00 127.47,244.00
             127.47,244.00 122.10,258.00 122.10,258.00
             122.10,258.00 118.83,271.28 118.83,271.28
             118.83,271.28 113.17,296.00 113.17,296.00
             113.17,296.00 113.97,310.00 113.97,310.00
             113.97,310.00 113.04,319.00 113.04,319.00
             113.04,319.00 113.04,335.00 113.04,335.00
             113.04,335.00 332.00,335.00 332.00,335.00
             331.69,328.74 330.23,325.90 328.89,320.00
             328.89,320.00 326.76,308.00 326.76,308.00
             324.84,299.82 322.11,294.96 322.00,286.00
             322.00,286.00 322.00,279.00 322.00,279.00
             322.00,279.00 321.07,262.00 321.07,262.00
             321.07,262.00 314.43,238.00 314.43,238.00
             312.71,231.87 312.90,228.05 309.59,222.00
             309.59,222.00 296.66,205.09 296.66,205.09
             291.63,198.43 287.80,197.16 282.04,192.33
             277.52,188.54 278.23,187.46 275.55,184.45
             267.77,175.73 266.84,179.76 261.69,167.00
             260.93,165.11 258.29,155.91 256.00,161.00
             255.56,159.84 254.86,157.62 254.05,156.74
             248.53,150.67 234.14,163.00 228.09,161.37
             225.12,160.57 223.20,156.59 222.04,154.00
             220.50,150.55 216.29,139.40 216.39,136.00
             216.52,131.65 220.87,126.29 221.00,116.00
             221.09,108.43 221.54,101.78 217.39,95.01
             214.24,89.87 210.37,88.59 207.99,83.00
             202.87,70.97 199.63,56.30 191.76,46.00
             182.94,34.45 169.10,26.26 155.00,22.90
             155.00,22.90 147.00,21.73 147.00,21.73
             143.91,21.12 141.22,19.21 138.00,19.21
             135.08,19.21 132.69,20.69 130.00,21.60
             123.18,23.90 116.06,25.47 110.00,29.63
             96.75,38.73 84.48,59.69 80.04,75.00
             80.04,75.00 77.26,91.96 77.26,91.96
             75.76,95.69 71.89,97.46 69.18,100.18
             63.83,105.57 61.83,110.56 62.01,118.00
             62.06,120.07 62.16,122.00 62.85,123.94
             66.12,133.36 75.83,129.22 80.78,123.94
             83.51,120.96 83.53,119.25 87.00,116.00 Z" />
</svg>
